<svg id="Layer_1" data-name="Layer 1" xmlns="http://www.w3.org/2000/svg" xmlns:xlink="http://www.w3.org/1999/xlink" viewBox="0 0 2063.9 2063.9"><defs><style>.cls-1,.cls-3,.cls-5{fill:none;}.cls-2{clip-path:url(#clip-path);}.cls-3{stroke:#000;stroke-width:0;}.cls-3,.cls-5{stroke-linecap:round;stroke-linejoin:round;}.cls-4{fill:#fff;}.cls-5{stroke:#fff;stroke-width:2.09px;}.cls-6{fill:#231f20;}</style><clipPath id="clip-path" transform="translate(41.35 102.94)"><rect class="cls-1" x="10.01" y="-12.11" width="1984.71" height="1944.98"/></clipPath></defs><title>Q_Black with White Background_Digital</title><g class="cls-2"><path class="cls-3" d="M106.61,344.87c55.72-84,127-138.74,163.1-165.92a791.86,791.86,0,0,1,161.7-94.21c86.53-37.39,156.25-48.89,234.81-61.87A1372.78,1372.78,0,0,1,872.91,4.6c113.15-1.39,198.8,11.69,222.16,15.46,101.71,16.42,314.52,50.77,500.87,213.33,28.28,24.67,91.65,83.43,151.55,174.75,27.83,42.41,80.78,123.54,105.46,229.19,55,235.37-54.66,490.05-54.65,490s-37.11,101.54-147.63,209c-48.29,46.94-151.58,145-316.78,189.07-98,26.14-173.81,21.7-195.71,19.9-112.88-9.26-194.1-51.42-214.78-71.43-13.32-12.92-28.21-24.27-40.65-38-9-10-14.79-15.66-24.49-21.22-17.55-10-34.83-10.14-40.19-10.3-300.36-8.48-399.72-106.15-399.72-106.15-25.08-24.65-90.76-102.31-104.49-164.19-2.09-9.39-5.78-31.07-23.22-48.11-11.91-11.61-22.33-14-56.39-29.85-14.13-6.56-27.63-14.41-41.47-21.56C162.58,1018.86,71,935.26,30.24,800.63-39.18,571.47,91.09,368.25,106.61,344.87Z" transform="translate(41.35 102.94)"/><path d="M106.61,344.87c55.72-84,127-138.74,163.1-165.92a791.86,791.86,0,0,1,161.7-94.21c86.53-37.39,156.25-48.89,234.81-61.87A1372.78,1372.78,0,0,1,872.91,4.6c113.15-1.39,198.8,11.69,222.16,15.46,101.71,16.42,314.52,50.77,500.87,213.33,28.28,24.67,91.65,83.43,151.55,174.75,27.83,42.41,80.78,123.54,105.46,229.19,55,235.37-54.66,490.05-54.65,490s-37.11,101.54-147.63,209c-48.29,46.94-151.58,145-316.78,189.07-98,26.14-173.81,21.7-195.71,19.9-112.88-9.26-194.1-51.42-214.78-71.43-13.32-12.92-28.21-24.27-40.65-38-9-10-14.79-15.66-24.49-21.22-17.55-10-34.83-10.14-40.19-10.3-300.36-8.48-399.72-106.15-399.72-106.15-25.08-24.65-90.76-102.31-104.49-164.19-2.09-9.39-5.78-31.07-23.22-48.11-11.91-11.61-22.33-14-56.39-29.85-14.13-6.56-27.63-14.41-41.47-21.56C162.58,1018.86,71,935.26,30.24,800.63c-69.42-229.16,76.37-455.76,76.37-455.76h0" transform="translate(41.35 102.94)"/><path class="cls-4" d="M419.32,350.38c-45.24,35.83-129.24,124-158.61,255.63-9,40.57-18,84.44-2.49,136.83,15.09,50.92,45.87,83.63,56.35,94.59,8.66,9.05,23.39,24.23,46.49,37.27,12.56,7.09,25,12,35.24,16.16,13.56,5.43,21.37,8.56,32.76,11.2,18.11,4.2,32.5,4.21,43.12,4.14,14.7-.08,23.43-.12,34.83-3.52,11-3.26,13.51-6.37,27.37-12.44,2.81-1.23,12.44-5.35,34.83-11.4,43.27-11.68,64.91-17.52,87.08-16,32.19,2.25,54.73,9.33,54.73,9.33,13.25,4.19,17.76,7.19,24.87,5,17.65-5.5,33.44-30.71,28.49-46a39.9,39.9,0,0,1-2.79-14.29c.06-5.16,1.28-9.16,3.85-12.12,1.63-1.87,3.65-3.14,4-2.8s-1.75,2.82-2.21,6.79a14,14,0,0,0,.21,4.15c1.47,8.38,5.33,14.45,6.88,23.42.92,5.4-.05,5.7.94,6.79,4,4.49,18.71-1.8,55.75-21.25,37.34-19.6,34.78-19.68,41.27-21.42,29.46-7.91,40.37,5,60.12-6.56,8.55-5,25.37-18.48,28.62-21.15a66.78,66.78,0,0,0,6.66-5.88c3.06-3.32,4.4-5.83,5.45-5.47s1,3.12.79,4.82a12.56,12.56,0,0,1-2.33,5.6c-7.23,9.6-18.37,19.42-17.4,23.92,1.23,5.7,22.78,6.94,43,4.93,15.67-1.56,35.59-3.55,58.4-16.1,19.62-10.8,43-30.3,46-47.27.66-3.72,2.74-21.21,0-27.16l-.63-3.31c.75-.67,3.26,1.05,3.53,1.24,4.26,2.93,5.57,8.74,6,11.4a63.77,63.77,0,0,1-4.76,35.87c-11.39,22.59-29.49,24.63-28.19,35.24a15,15,0,0,0,.41,1.62c2,7.52,5.77,21.53,17.33,29.48a33.78,33.78,0,0,0,12.81,5.6c5.14,1,9.32.44,9.6,1.6.15.59-.78,1.72-6.1,4.11a30.29,30.29,0,0,1-18.31-1.3,29.78,29.78,0,0,1-10.42-7.21c-6-12.54-12.38-20.52-14.53-21.28-1.51-.53-3.13-.91-3.14-.91a25.07,25.07,0,0,0-2.78-.49c-11-1.33-22.09,2.36-22.09,2.36-3.47,1.17-29,9.79-39.82,12.31-3.57.83-22.23-1.36-59.38-5.78,0,0-24.85-2.66-45.16.34a70.49,70.49,0,0,0-9.58,2.15c-9.19,2.68-13.47,5.32-31.1,14.93-60.39,32.93-67,32.91-82.09,47.88S749.75,899.2,747.3,912a71.51,71.51,0,0,1-8.08,23.84c-.73,1.29-6.42,11.28-8.92,10.37-.43-.15-2.59-1.12,0-16.17,2.78-16.2,4.61-27.93,0-35.45-1.9-3.1-5.16-5.47-22.39-9.33-17.54-3.92-26.3-5.89-41-6.22-20.24-.45-48.9-1.1-82.1,12.44-20.71,8.45-55.64,22.91-70.28,58.47-6.66,16.18-6.44,30.39-6.22,39.18.88,34.73,17.77,59.68,37.8,88.47,15.21,21.88,30.77,44.24,56.74,64.53,53.13,41.53,112.13,44.47,174.77,48.52,48.76,3.15,99.46,6.43,138.08-14.94,6.18-3.41,21.42-12.65,44.16-17.41,19.24-4,33.91-2.92,53.48-1.24,55.4,4.78,77.83,19.84,106.57,7,5.05-2.25,12.93-6.67,13.48-5.81.71,1.14-11.09,11.75-25.09,18.25-4.85,2.25-20.08,8.7-51.41,6.64-37.09-2.44-47.54-13.56-54.74-7.48-12.13,10.27,0,56.7,28.61,88.33,41,45.29,104.65,47.32,141.19,48.51,70.26,2.31,122.61-21.77,143.74-31.77,32.32-15.31,54.49-32.41,85.76-56.55,40.15-31,63.53-56.23,74.35-68.49,6.4-7.25,12.08-14.12,17.08-20.44,61.88-65.47,70.7-84.9,88.32-123.77,3.55-7.82,9.52-22.6,3.11-33.6-3.49-6-9.7-9.21-11.19-10a33.6,33.6,0,0,0-21.77-2.49c-2.83.61-9.44,2-14.87,7.37-5.17,5.1-6,10.5-7.19,10.21-1.63-.39-3.2-10.4,1.53-18.2,5.9-9.69,19.57-12.45,27.37-14.3,11.84-2.8,14.23-1.35,19.9-3.11,4.93-1.53,19.07-7.24,33-39.82,10.3-24.15,12.91-45.25,14.92-70.9,6-76.49.52-113.63-13.06-138.07-5.1-9.18-11.36-16.6-20.31-18.87-3-.77-10.84-2.08-28.83,8.29-16.09,9.29-43.13,25.17-49.89,53.75-2.73,11.55,1.15,11.26-2,35.85,0,0-2.86,22.09-15.39,36.61-1.13,1.3-2.68,2.93-3.6,2.54-2.23-1,2.91-12.57,4.36-25.91,2.94-27-3.15-34.23,3-51.77,1.1-3.16,4.1-8.76,10.06-20,10.71-20.12,15.8-26.49,13.68-29-2.34-2.81-10.5,2.62-26.11,7.87-17.09,5.75-31,7.25-54.33,9.75-22,2.37-33.08,3.55-35.86,3.52-8.33-.06-16.25-.77-24.06,4.15-2.81,1.77-4.85,3.8-10.31,11.35-14.07,19.44-13.71,24.18-21.92,31.26-2.67,2.3-12.48,10.43-22.71,8.24-4.47-1-8.55-3.8-8.37-4.23s3.88,1.83,8.86,1.53c7.38-.44,12.46-6.07,13.37-7.15,1.06-1.26,2.52-3.26,5-9,2.56-6,5.68-13.52,6.54-23.94.52-6.39.75-9.65-1.12-13-2.2-4-5.8-5.72-11.6-8.28a58,58,0,0,0-21.56-5,41.31,41.31,0,0,0-16.59,2.49c-11.33,4.27-16.4,12.54-17.1,11.93s4.8-13.46,17.1-19.5c6-3,11.61-3.46,22.39-4,7.54-.41,11.75-.64,17.1.31,10,1.77,13.74,6,20.84,9,9.39,4,16.21,2.43,32.55,1,35.55-3,33,1.73,59.52-2,10.56-1.47,23.91-3.43,40.41-9.64a141.2,141.2,0,0,0,28.92-14.61c2.65-1.79,7.73-5.36,18.67-15.24,17.78-16.08,26.66-24.12,30.16-30.48,10.79-19.62,5.58-41.71,2.8-53.49-2.33-9.91-5.9-18.44-19.27-41-13.58-22.9-22-37.16-37-56.91-45.3-59.67-96-97.81-105.42-104.8a544.1,544.1,0,0,0-88.63-53.49s-19.05-11.31-83-37.94c-6.06-2.53-18.56-7.56-34.52-6.22-5.15.43-27.61,1.09-32,12.13-1.51,3.75-1,8.91-4.61,10.74-1.57.8-4,1.05-5.34-.17-2.77-2.59,2.8-9.38,2.8-17.72,0,0-.37-9.39-8.08-19.9-21.21-28.91-120.67-40.13-120.67-40.13-53-3.78-79.1-10.37-115.37-10.57-39.6-.2-42.78,3.52-81.58,1.76-15.42-.7-25.68-1.77-40.64,1.66-11.35,2.61-43,9.87-51,31.41-5.17,13.91,4.47,18.43,2.9,54-.46,10.38-1.7,19.06-4.91,28.35-2.71,7.87-6.52,18.46-16.58,26.54a41.4,41.4,0,0,1-16.87,8c-4.72,1-10.25,1.26-10.57.11s5.69-2.74,12.3-8.25a45,45,0,0,0,8.71-9.95,65.54,65.54,0,0,0,9.29-21.17c4-16.05,1.13-29.72-.45-36.93-3.15-14.45-7.71-35.16-23.62-44.78-10.37-6.26-21.68-5.37-38.57-2.48-54.47,9.27-98.21,27.49-120.66,37.31-19.59,8.57-32.81,14.36-51,24.05,0,0-45.66,24.34-82.72,53.7" transform="translate(41.35 102.94)"/><path class="cls-5" d="M419.32,350.38c-45.24,35.83-129.24,124-158.61,255.63-9,40.57-18,84.44-2.49,136.83,15.09,50.92,45.87,83.63,56.35,94.59,8.66,9.05,23.39,24.23,46.49,37.27,12.56,7.09,25,12,35.24,16.16,13.56,5.43,21.37,8.56,32.76,11.2,18.11,4.2,32.5,4.21,43.12,4.14,14.7-.08,23.43-.12,34.83-3.52,11-3.26,13.51-6.37,27.37-12.44,2.81-1.23,12.44-5.35,34.83-11.4,43.27-11.68,64.91-17.52,87.08-16,32.19,2.25,54.73,9.33,54.73,9.33,13.25,4.19,17.76,7.19,24.87,5,17.65-5.5,33.44-30.71,28.49-46a39.9,39.9,0,0,1-2.79-14.29c.06-5.16,1.28-9.16,3.85-12.12,1.63-1.87,3.65-3.14,4-2.8s-1.75,2.82-2.21,6.79a14,14,0,0,0,.21,4.15c1.47,8.38,5.33,14.45,6.88,23.42.92,5.4-.05,5.7.94,6.79,4,4.49,18.71-1.8,55.75-21.25,37.34-19.6,34.78-19.68,41.27-21.42,29.46-7.91,40.37,5,60.12-6.56,8.55-5,25.37-18.48,28.62-21.15a66.78,66.78,0,0,0,6.66-5.88c3.06-3.32,4.4-5.83,5.45-5.47s1,3.12.79,4.82a12.56,12.56,0,0,1-2.33,5.6c-7.23,9.6-18.37,19.42-17.4,23.92,1.23,5.7,22.78,6.94,43,4.93,15.67-1.56,35.59-3.55,58.4-16.1,19.62-10.8,43-30.3,46-47.27.66-3.72,2.74-21.21,0-27.16l-.63-3.31c.75-.67,3.26,1.05,3.53,1.24,4.26,2.93,5.57,8.74,6,11.4a63.77,63.77,0,0,1-4.76,35.87c-11.39,22.59-29.49,24.63-28.19,35.24a15,15,0,0,0,.41,1.62c2,7.52,5.77,21.53,17.33,29.48a33.78,33.78,0,0,0,12.81,5.6c5.14,1,9.32.44,9.6,1.6.15.59-.78,1.72-6.1,4.11a30.29,30.29,0,0,1-18.31-1.3,29.78,29.78,0,0,1-10.42-7.21c-6-12.54-12.38-20.52-14.53-21.28-1.51-.53-3.13-.91-3.14-.91a25.07,25.07,0,0,0-2.78-.49c-11-1.33-22.09,2.36-22.09,2.36-3.47,1.17-29,9.79-39.82,12.31-3.57.83-22.23-1.36-59.38-5.78,0,0-24.85-2.66-45.16.34a70.49,70.49,0,0,0-9.58,2.15c-9.19,2.68-13.47,5.32-31.1,14.93-60.39,32.93-67,32.91-82.09,47.88S749.75,899.2,747.3,912a71.51,71.51,0,0,1-8.08,23.84c-.73,1.29-6.42,11.28-8.92,10.37-.43-.15-2.59-1.12,0-16.17,2.78-16.2,4.61-27.93,0-35.45-1.9-3.1-5.16-5.47-22.39-9.33-17.54-3.92-26.3-5.89-41-6.22-20.24-.45-48.9-1.1-82.1,12.44-20.71,8.45-55.64,22.91-70.28,58.47-6.66,16.18-6.44,30.39-6.22,39.18.88,34.73,17.77,59.68,37.8,88.47,15.21,21.88,30.77,44.24,56.74,64.53,53.13,41.53,112.13,44.47,174.77,48.52,48.76,3.15,99.46,6.43,138.08-14.94,6.18-3.41,21.42-12.65,44.16-17.41,19.24-4,33.91-2.92,53.48-1.24,55.4,4.78,77.83,19.84,106.57,7,5.05-2.25,12.93-6.67,13.48-5.81.71,1.14-11.09,11.75-25.09,18.25-4.85,2.25-20.08,8.7-51.41,6.64-37.09-2.44-47.54-13.56-54.74-7.48-12.13,10.27,0,56.7,28.61,88.33,41,45.29,104.65,47.32,141.19,48.51,70.26,2.31,122.61-21.77,143.74-31.77,32.32-15.31,54.49-32.41,85.76-56.55,40.15-31,63.53-56.23,74.35-68.49,6.4-7.25,12.08-14.12,17.08-20.44,61.88-65.47,70.7-84.9,88.32-123.77,3.55-7.82,9.52-22.6,3.11-33.6-3.49-6-9.7-9.21-11.19-10a33.6,33.6,0,0,0-21.77-2.49c-2.83.61-9.44,2-14.87,7.37-5.17,5.1-6,10.5-7.19,10.21-1.63-.39-3.2-10.4,1.53-18.2,5.9-9.69,19.57-12.45,27.37-14.3,11.84-2.8,14.23-1.35,19.9-3.11,4.93-1.53,19.07-7.24,33-39.82,10.3-24.15,12.91-45.25,14.92-70.9,6-76.49.52-113.63-13.06-138.07-5.1-9.18-11.36-16.6-20.31-18.87-3-.77-10.84-2.08-28.83,8.29-16.09,9.29-43.13,25.17-49.89,53.75-2.73,11.55,1.15,11.26-2,35.85,0,0-2.86,22.09-15.39,36.61-1.13,1.3-2.68,2.93-3.6,2.54-2.23-1,2.91-12.57,4.36-25.91,2.94-27-3.15-34.23,3-51.77,1.1-3.16,4.1-8.76,10.06-20,10.71-20.12,15.8-26.49,13.68-29-2.34-2.81-10.5,2.62-26.11,7.87-17.09,5.75-31,7.25-54.33,9.75-22,2.37-33.08,3.55-35.86,3.52-8.33-.06-16.25-.77-24.06,4.15-2.81,1.77-4.85,3.8-10.31,11.35-14.07,19.44-13.71,24.18-21.92,31.26-2.67,2.3-12.48,10.43-22.71,8.24-4.47-1-8.55-3.8-8.37-4.23s3.88,1.83,8.86,1.53c7.38-.44,12.46-6.07,13.37-7.15,1.06-1.26,2.52-3.26,5-9,2.56-6,5.68-13.52,6.54-23.94.52-6.39.75-9.65-1.12-13-2.2-4-5.8-5.72-11.6-8.28a58,58,0,0,0-21.56-5,41.31,41.31,0,0,0-16.59,2.49c-11.33,4.27-16.4,12.54-17.1,11.93s4.8-13.46,17.1-19.5c6-3,11.61-3.46,22.39-4,7.54-.41,11.75-.64,17.1.31,10,1.77,13.74,6,20.84,9,9.39,4,16.21,2.43,32.55,1,35.55-3,33,1.73,59.52-2,10.56-1.47,23.91-3.43,40.41-9.64a141.2,141.2,0,0,0,28.92-14.61c2.65-1.79,7.73-5.36,18.67-15.24,17.78-16.08,26.66-24.12,30.16-30.48,10.79-19.62,5.58-41.71,2.8-53.49-2.33-9.91-5.9-18.44-19.27-41-13.58-22.9-22-37.16-37-56.91-45.3-59.67-96-97.81-105.42-104.8a544.1,544.1,0,0,0-88.63-53.49s-19.05-11.31-83-37.94c-6.06-2.53-18.56-7.56-34.52-6.22-5.15.43-27.61,1.09-32,12.13-1.51,3.75-1,8.91-4.61,10.74-1.57.8-4,1.05-5.34-.17-2.77-2.59,2.8-9.38,2.8-17.72,0,0-.37-9.39-8.08-19.9-21.21-28.91-120.67-40.13-120.67-40.13-53-3.78-79.1-10.37-115.37-10.57-39.6-.2-42.78,3.52-81.58,1.76-15.42-.7-25.68-1.77-40.64,1.66-11.35,2.61-43,9.87-51,31.41-5.17,13.91,4.47,18.43,2.9,54-.46,10.38-1.7,19.06-4.91,28.35-2.71,7.87-6.52,18.46-16.58,26.54a41.4,41.4,0,0,1-16.87,8c-4.72,1-10.25,1.26-10.57.11s5.69-2.74,12.3-8.25a45,45,0,0,0,8.71-9.95,65.54,65.54,0,0,0,9.29-21.17c4-16.05,1.13-29.72-.45-36.93-3.15-14.45-7.71-35.16-23.62-44.78-10.37-6.26-21.68-5.37-38.57-2.48-54.47,9.27-98.21,27.49-120.66,37.31-19.59,8.57-32.81,14.36-51,24.05C502,296.68,456.38,321,419.32,350.38Z" transform="translate(41.35 102.94)"/><path class="cls-5" d="M545.16,418.58c-.11,1.95-17.5-.69-40.63,5.81-12.57,3.53-35.86,10.39-46.45,29.85-4.32,8-4.88,15.47-5.79,25.71-1.36,15.14-2.44,27.3,4.14,35.25,9.61,11.59,23.54-.3,46.44,10.36,15.6,7.27,14.67,15.37,39.8,29.86,14.62,8.42,20.69,9,23.23,9.12,18.33.9,33.79-12.7,34.41-13.27,4.52-4.07,7.09-8,7.88-7.46,1.21.77-2.09,11.58-9.12,19.08C584,579,560.91,577.2,558.43,577c-11.2-1-20.45-6.49-39-17.42s-17.13-13-26.53-16.58c-2.71-1-25.46-9.31-49.76.83-6.55,2.74-21.7,9.05-25.71,22.38-2,6.72.39,9.91,1.66,21.57.73,6.62,2.81,25.76-3.31,39-10.78,23.26-47.86,28-48.1,27.37-.13-.3,8.52-2.86,19.48-11.2,5.38-4.08,10.15-7.71,13.69-13.68,3.36-5.67,4.93-12.32,4.55-24.05-.89-28.6-11.61-32.29-7.87-44,5.4-16.81,29-13.19,37.32-34,1.58-4,1.3-5.53,1.66-24.89.52-28.47.78-42.71,1.65-45.61,8.1-26.9,44.39-41.91,70.49-44C528.06,411.26,545.28,416.64,545.16,418.58Z" transform="translate(41.35 102.94)"/><path class="cls-6" d="M545.16,418.58c-.11,1.95-17.5-.69-40.63,5.81-12.57,3.53-35.86,10.39-46.45,29.85-4.32,8-4.88,15.47-5.79,25.71-1.36,15.14-2.44,27.3,4.14,35.25,9.61,11.59,23.54-.3,46.44,10.36,15.6,7.27,14.67,15.37,39.8,29.86,14.62,8.42,20.69,9,23.23,9.12,18.33.9,33.79-12.7,34.41-13.27,4.52-4.07,7.09-8,7.88-7.46,1.21.77-2.09,11.58-9.12,19.08C584,579,560.91,577.2,558.43,577c-11.2-1-20.45-6.49-39-17.42s-17.13-13-26.53-16.58c-2.71-1-25.46-9.31-49.76.83-6.55,2.74-21.7,9.05-25.71,22.38-2,6.72.39,9.91,1.66,21.57.73,6.62,2.81,25.76-3.31,39-10.78,23.26-47.86,28-48.1,27.37-.13-.3,8.52-2.86,19.48-11.2,5.38-4.08,10.15-7.71,13.69-13.68,3.36-5.67,4.93-12.32,4.55-24.05-.89-28.6-11.61-32.29-7.87-44,5.4-16.81,29-13.19,37.32-34,1.58-4,1.3-5.53,1.66-24.89.52-28.47.78-42.71,1.65-45.61,8.1-26.9,44.39-41.91,70.49-44,19.39-1.52,36.49,5.8,36.49,5.8h0" transform="translate(41.35 102.94)"/><path class="cls-5" d="M346.57,702.44c1.71-.28,1.72,15.13,12.16,27.21,1.53,1.76,12.14,14,25.76,13.38,10.56-.51,12.38-6.39,37.58-25.64,2.75-2.1,8.28-5.38,15.4-10.91,6.67-5.2,10-7.8,12.28-10.37,9.53-10.81,9.54-20.83,17.9-27.9a41,41,0,0,1,6.24-4.07c17-8.91,23.35-1,69.89-2.86,23.23-.91,41.72-1.77,64.47-9.15,20.09-6.51,42.47-14.14,57.42-36.58,3.35-5,12.52-19.17,13-38.88.66-26.58-14.86-46.25-21.67-54.88-19-24-32.71-21-42.26-42.88-7.39-16.89-5.47-33.14-4.87-37.73.53-4.11,2.87-19.42,16.78-38.3,26-35.29,67.07-48.52,68.27-46.3.45.83-6.47,4.24-19.5,15.43-21.72,18.64-47.23,40.54-47.68,69.17-.22,14.2,5.79,25.2,7.59,28.4,8.16,14.53,19.53,19.08,28.17,25.53,22.39,16.71,32.31,50.37,32,73.56-.71,47.45-44.83,81.93-75.68,94.9-15.72,6.61-29.35,8.19-42.43,9.71-49.63,5.78-71.68-10.53-95.9,5.72-7.67,5.15-7.46,8.8-11.77,16-2.68,4.47-5.25,7.82-11.34,13.95-17.79,17.88-42.49,19-49.79,37.49-2.72,6.89.8,6.23-2.59,25.39-3,16.74-6.21,20-4,25.5,5.29,13,30.67,11,30.6,15.14,0,2.55-9.57,5.88-18.69,4.29-10.25-1.79-21-10-24.11-21.15-4.41-16,9.08-29.59,3.2-36.35-2.72-3.12-6-.72-13.73-2.29-15.41-3.13-27.24-17.87-31.79-31.25C343.54,714.12,345.12,702.68,346.57,702.44Z" transform="translate(41.35 102.94)"/><path class="cls-6" d="M346.57,702.44c1.71-.28,1.72,15.13,12.16,27.21,1.53,1.76,12.14,14,25.76,13.38,10.56-.51,12.38-6.39,37.58-25.64,2.75-2.1,8.28-5.38,15.4-10.91,6.67-5.2,10-7.8,12.28-10.37,9.53-10.81,9.54-20.83,17.9-27.9a41,41,0,0,1,6.24-4.07c17-8.91,23.35-1,69.89-2.86,23.23-.91,41.72-1.77,64.47-9.15,20.09-6.51,42.47-14.14,57.42-36.58,3.35-5,12.52-19.17,13-38.88.66-26.58-14.86-46.25-21.67-54.88-19-24-32.71-21-42.26-42.88-7.39-16.89-5.47-33.14-4.87-37.73.53-4.11,2.87-19.42,16.78-38.3,26-35.29,67.07-48.52,68.27-46.3.45.83-6.47,4.24-19.5,15.43-21.72,18.64-47.23,40.54-47.68,69.17-.22,14.2,5.79,25.2,7.59,28.4,8.16,14.53,19.53,19.08,28.17,25.53,22.39,16.71,32.31,50.37,32,73.56-.71,47.45-44.83,81.93-75.68,94.9-15.72,6.61-29.35,8.19-42.43,9.71-49.63,5.78-71.68-10.53-95.9,5.72-7.67,5.15-7.46,8.8-11.77,16-2.68,4.47-5.25,7.82-11.34,13.95-17.79,17.88-42.49,19-49.79,37.49-2.72,6.89.8,6.23-2.59,25.39-3,16.74-6.21,20-4,25.5,5.29,13,30.67,11,30.6,15.14,0,2.55-9.57,5.88-18.69,4.29-10.25-1.79-21-10-24.11-21.15-4.41-16,9.08-29.59,3.2-36.35-2.72-3.12-6-.72-13.73-2.29-15.41-3.13-27.24-17.87-31.79-31.25-3.93-11.57-.9-23.25-.9-23.25h0" transform="translate(41.35 102.94)"/><path class="cls-5" d="M661.89,1029c-3.92-1.22-7-7.7-6.36-12.81.35-2.78,1.78-4.8,2.79-11.2.54-3.37.27-3.62.15-3.68-1.1-.47-6.64,7.11-9.65,15.56-5.4,15.2-.85,20.58-6.63,26.63-5,5.2-11.31,4.39-14.94,11.58a21,21,0,0,0-1.74,6.25c-2.81,14.5,2,34.67,4.24,34.41,2-.21-3.77-16,4.63-32,6.66-12.65,19.18-19.66,30.17-25.81,8.38-4.7,13.23-7.43,20.52-9,21.78-4.79,29.74,8.15,52.39,3.78a48.4,48.4,0,0,0,21.94-10c2.41-2,12.18-10.33,13.4-22.49.32-3.14.23-8.18-1.24-8.56-1.27-.32-3,2.94-4.7,5.71a72.11,72.11,0,0,1-16.48,16.95,55.49,55.49,0,0,1-19.9,9c-24.23,5.3-36.77-12.74-52.63-4.71C669.72,1022.69,666.79,1030.48,661.89,1029Z" transform="translate(41.35 102.94)"/><path class="cls-6" d="M661.89,1029c-3.92-1.22-7-7.7-6.36-12.81.35-2.78,1.78-4.8,2.79-11.2.54-3.37.27-3.62.15-3.68-1.1-.47-6.64,7.11-9.65,15.56-5.4,15.2-.85,20.58-6.63,26.63-5,5.2-11.31,4.39-14.94,11.58a21,21,0,0,0-1.74,6.25c-2.81,14.5,2,34.67,4.24,34.41,2-.21-3.77-16,4.63-32,6.66-12.65,19.18-19.66,30.17-25.81,8.38-4.7,13.23-7.43,20.52-9,21.78-4.79,29.74,8.15,52.39,3.78a48.4,48.4,0,0,0,21.94-10c2.41-2,12.18-10.33,13.4-22.49.32-3.14.23-8.18-1.24-8.56-1.27-.32-3,2.94-4.7,5.71a72.11,72.11,0,0,1-16.48,16.95,55.49,55.49,0,0,1-19.9,9c-24.23,5.3-36.77-12.74-52.63-4.71a107.42,107.42,0,0,0-16,10.37h0" transform="translate(41.35 102.94)"/><path class="cls-5" d="M849.93,935c5.18-19,13.64-29.52,12.61-30.48s-12.27,9.15-19.61,25.29c-2.82,6.21-13.19,29-6.66,51.21,6.13,20.8,21.15,20.79,25.75,43.54,1.61,8,1,14.45,0,24.88-2.18,22.87-8,25-10,43.53-.39,3.57-3.56,35.73,11.56,50.38,5,4.87,11.39,6.82,12.09,5.61.93-1.64-9.41-7-13.26-20-2-6.64-1.79-13.78-1.46-27.31.08-3.49-.14-6.36.41-9,2.2-10.49,10.17-15.36,13.25-33.9,4.29-25.76-7-39.37,1.06-49.13,3.46-4.2,10.88-5.09,25.74-6.84a177.23,177.23,0,0,1,22.07-1.24c29.48.19,44.53.39,60.24,4.56,13.34,3.54,21.18,7.68,26.62,15.75,1.12,1.68,7.29,10.82,4.82,17.83-2,5.79-8.68,6.74-8.32,8.71s7.54,3.76,11.91,0c5.77-5,4.7-18,2.46-25.7-4-13.78-14.63-20.42-19.63-23.64-2.23-1.45-9.43-5.84-29.77-8.29-4.44-.54-12-1.29-37.83-.83-22.27.39-33.4.57-37.83.83-15.25.84-19.09,1.68-25.92-.83-3.53-1.3-17.1-6.3-22.41-20.74C843.69,958,846.73,946.8,849.93,935Z" transform="translate(41.35 102.94)"/><path class="cls-6" d="M849.93,935c5.18-19,13.64-29.52,12.61-30.48s-12.27,9.15-19.61,25.29c-2.82,6.21-13.19,29-6.66,51.21,6.13,20.8,21.15,20.79,25.75,43.54,1.61,8,1,14.45,0,24.88-2.18,22.87-8,25-10,43.53-.39,3.57-3.56,35.73,11.56,50.38,5,4.87,11.39,6.82,12.09,5.61.93-1.64-9.41-7-13.26-20-2-6.64-1.79-13.78-1.46-27.31.08-3.49-.14-6.36.41-9,2.2-10.49,10.17-15.36,13.25-33.9,4.29-25.76-7-39.37,1.06-49.13,3.46-4.2,10.88-5.09,25.74-6.84a177.23,177.23,0,0,1,22.07-1.24c29.48.19,44.53.39,60.24,4.56,13.34,3.54,21.18,7.68,26.62,15.75,1.12,1.68,7.29,10.82,4.82,17.83-2,5.79-8.68,6.74-8.32,8.71s7.54,3.76,11.91,0c5.77-5,4.7-18,2.46-25.7-4-13.78-14.63-20.42-19.63-23.64-2.23-1.45-9.43-5.84-29.77-8.29-4.44-.54-12-1.29-37.83-.83-22.27.39-33.4.57-37.83.83-15.25.84-19.09,1.68-25.92-.83-3.53-1.3-17.1-6.3-22.41-20.74-4.14-11.26,2.1-34.2,2.1-34.2h0" transform="translate(41.35 102.94)"/><path class="cls-5" d="M729.27,480.37c2.31-.84-7.87-18.36-.83-34,5.2-11.56,17.19-16.31,29.43-21.15,7.47-3,38.75-15.32,63-1.66,6.47,3.64,12,8.89,14.51,7.05,2.93-2.15-3.11-10.45-3.1-20.53,0-21.91,28.65-38.63,36.69-43.33,14.89-8.69,28-11.6,43.85-15.13,30.09-6.69,40.62-2.78,56.08-13.89,9.74-7,7-19.9,17-23.64,8.17-3.06,16.49,1.3,16.67.63s-11.68-8.09-23.31-5.18c-10.47,2.61-11,14.23-20.73,19.06C936.65,339.55,923,334.18,896,341c-18.74,4.76-51.64,13.13-62.72,37.33-3.76,8.2-5,18.17-13.38,21.77-6.6,2.82-12-.75-19.9-2.49-27.19-6-53.6,16.36-59.5,21.35-9.21,7.79-22.37,18.94-22.8,35.25C717.27,468.84,727.26,481.09,729.27,480.37Z" transform="translate(41.35 102.94)"/><path class="cls-6" d="M729.27,480.37c2.31-.84-7.87-18.36-.83-34,5.2-11.56,17.19-16.31,29.43-21.15,7.47-3,38.75-15.32,63-1.66,6.47,3.64,12,8.89,14.51,7.05,2.93-2.15-3.11-10.45-3.1-20.53,0-21.91,28.65-38.63,36.69-43.33,14.89-8.69,28-11.6,43.85-15.13,30.09-6.69,40.62-2.78,56.08-13.89,9.74-7,7-19.9,17-23.64,8.17-3.06,16.49,1.3,16.67.63s-11.68-8.09-23.31-5.18c-10.47,2.61-11,14.23-20.73,19.06C936.65,339.55,923,334.18,896,341c-18.74,4.76-51.64,13.13-62.72,37.33-3.76,8.2-5,18.17-13.38,21.77-6.6,2.82-12-.75-19.9-2.49-27.19-6-53.6,16.36-59.5,21.35-9.21,7.79-22.37,18.94-22.8,35.25-.39,14.59,11.61,26.12,11.61,26.12h0" transform="translate(41.35 102.94)"/><path class="cls-5" d="M1162.16,302.48c2,1,2.51,3.8,2.57,4.24,1.21,7.84-12.65,10.36-20.42,24.81-4.45,8.29-6.31,19.42-2.06,26.52a13.19,13.19,0,0,0,1,1.49c2,2.37,5.85,4.27,17.64,8.46,16.91,6,25.37,9,34.62,10.37,16.31,2.37,26.58.33,26.75,1.65.19,1.53-13.15,7-29,6.63s-20.64-5.88-44.36-8.7c-7.45-.89-13-1.05-19.49-1.24a282.11,282.11,0,0,0-41.05,1.66c-45.61,5.73-76.29,29-76.29,29-22.3,16.91-48.34,47.46-49.14,72.36-.14,4.41-.13,28.54-1,39.6a67.61,67.61,0,0,0-.41,10.36c.3,6.08,1.36,7.71.41,9.54-1.76,3.4-10,3-19.07,2.48-15-.82-22.59-1.23-27.92-1.08-8.24.21-14.82,2.16-27.64,6.06-23.81,7.23-47.33,14.68-69.67,36.09-1.57,1.5-2.62,2.58-3.72,3.72-27.59,28.37-38,57.3-40.16,63.59a170.86,170.86,0,0,0-8.7,46c-1,14.56-1.82,23.57,0,36.07,1.7,11.71,5.39,24.95,4.14,44.37-.44,6.8-1.15,9.25-2.17,9.4-2.85.42-7.79-17.65-10.75-28.63C749.68,733.12,746.41,721,745.5,709c-2.11-28.14,7.78-50,17.18-70.87,9.93-22,29.63-65.39,74.81-91,22.1-12.53,45.15-17.9,56.8-19.91,14-2.41,21-3.62,28.27-2.7,9.38,1.18,15.89,4.26,20.67.63,3.18-2.42,4.08-6.48,4.41-12.44,1.38-24.33-1.19-34.49,1.39-47.27,1.44-7.14,3.81-11.77,7.67-19.29,13.91-27.1,35.67-42.58,41.67-46.64,23.89-16.16,58.06-27.34,84-30.47,13.6-1.65,18.75-3.69,21.6-5.48a44.87,44.87,0,0,0,4.31-3c11.51-9.28,17.78-23.66,27.66-36.81C1142.92,314.4,1156.31,299.63,1162.16,302.48Z" transform="translate(41.35 102.94)"/><path class="cls-6" d="M1162.16,302.48c2,1,2.51,3.8,2.57,4.24,1.21,7.84-12.65,10.36-20.42,24.81-4.45,8.29-6.31,19.42-2.06,26.52,3,3.86,6.87,5.76,18.66,9.95,16.91,6,25.37,9,34.62,10.37,16.31,2.37,26.58.33,26.75,1.65.19,1.53-13.15,7-29,6.63s-20.64-5.88-44.36-8.7c-7.45-.89-13-1.05-19.49-1.24a282.11,282.11,0,0,0-41.05,1.66c-45.61,5.73-76.29,29-76.29,29-22.3,16.91-48.34,47.46-49.14,72.36-.14,4.41-.13,28.54-1,39.6a67.61,67.61,0,0,0-.41,10.36c.3,6.08,1.36,7.71.41,9.54-1.76,3.4-10,3-19.07,2.48-15-.82-22.59-1.23-27.92-1.08-8.24.21-14.82,2.16-27.64,6.06-23.81,7.23-47.33,14.68-69.67,36.09-1.57,1.5-2.62,2.58-3.72,3.72-27.59,28.37-38,57.3-40.16,63.59a170.86,170.86,0,0,0-8.7,46c-1,14.56-1.82,23.57,0,36.07,1.7,11.71,5.39,24.95,4.14,44.37-.44,6.8-1.15,9.25-2.17,9.4-2.85.42-7.79-17.65-10.75-28.63C749.68,733.12,746.41,721,745.5,709c-2.11-28.14,7.78-50,17.18-70.87,9.93-22,29.63-65.39,74.81-91,22.1-12.53,45.15-17.9,56.8-19.91,14-2.41,21-3.62,28.27-2.7,9.38,1.18,15.89,4.26,20.67.63,3.18-2.42,4.08-6.48,4.41-12.44,1.38-24.33-1.19-34.49,1.39-47.27,1.44-7.14,3.81-11.77,7.67-19.29,13.91-27.1,35.67-42.58,41.67-46.64,23.89-16.16,58.06-27.34,84-30.47,13.6-1.65,18.75-3.69,21.6-5.48a44.87,44.87,0,0,0,4.31-3c11.51-9.28,17.78-23.66,27.66-36.81,7-9.33,26.25-21.25,26.25-21.25h0" transform="translate(41.35 102.94)"/><path class="cls-5" d="M894.29,621.76c.56.94,6.39-1.6,7.12-1.92,7-3.06,10-6.86,12.79-8.86,13.76-9.74,42.81,10.76,45.19,12.44,5,3.55,9.21,7.51,11.2,13.27a23.79,23.79,0,0,1,.83,11.61c-1.06,7.05-4.72,33.93,0,54.32,2.56,11.1,7.34,18.94,11.2,25.29s9.45,15.36,19.89,22.8c7.92,5.65,18.26,9,19.49,7.06,1.39-2.13-9.52-9.15-18.16-20.58-13-17.15-14.74-36.07-15.83-47.84-.62-6.61-2.87-33.17,17.41-75.47,13.77-28.72,35.89-74.85,87.9-104.07,33.08-18.59,63-21.74,96.61-25.3,21.44-2.26,56-5.59,98.27,5.39,18.58,4.83,40.82,10.62,64.28,28.2,11.56,8.66,38.31,29.33,49.34,66.34,8.91,29.88,7.18,69.09-8.23,79.77-1.81,1.25-7.28,4.52-6.7,6.06.65,1.73,9,1.56,15.76-1.65,19.08-9,18.35-47.38,18.24-53.08-.75-40.42-23.5-69.75-32.34-80.86-23.21-29.12-50.53-42.1-62.61-47.68-20.66-9.53-37.74-12.76-52.66-15.34-14.54-2.51-48.29-7.2-93.3-1.24-37.13,4.91-76.43,10.1-115.68,38.56-1.3.94-30.35,22.46-50.86,54-10.94,16.84-16.41,25.26-18.8,36.35-1.59,7.36-1.39,12.16-5,14.09-7.41,4-16.27-12.73-36.5-15.75-14.75-2.2-27.11,2.84-32.34,5C905.47,609,893.39,620.25,894.29,621.76Z" transform="translate(41.35 102.94)"/><path class="cls-6" d="M894.29,621.76c.56.94,6.39-1.6,7.12-1.92,7-3.06,10-6.86,12.79-8.86,13.76-9.74,42.81,10.76,45.19,12.44,5,3.55,9.21,7.51,11.2,13.27a23.79,23.79,0,0,1,.83,11.61c-1.06,7.05-4.72,33.93,0,54.32,2.56,11.1,7.34,18.94,11.2,25.29s9.45,15.36,19.89,22.8c7.92,5.65,18.26,9,19.49,7.06,1.39-2.13-9.52-9.15-18.16-20.58-13-17.15-14.74-36.07-15.83-47.84-.62-6.61-2.87-33.17,17.41-75.47,13.77-28.72,35.89-74.85,87.9-104.07,33.08-18.59,63-21.74,96.61-25.3,21.44-2.26,56-5.59,98.27,5.39,18.58,4.83,40.82,10.62,64.28,28.2,11.56,8.66,38.31,29.33,49.34,66.34,8.91,29.88,7.18,69.09-8.23,79.77-1.81,1.25-7.28,4.52-6.7,6.06.65,1.73,9,1.56,15.76-1.65,19.08-9,18.35-47.38,18.24-53.08-.75-40.42-23.5-69.75-32.34-80.86-23.21-29.12-50.53-42.1-62.61-47.68-20.66-9.53-37.74-12.76-52.66-15.34-14.54-2.51-48.29-7.2-93.3-1.24-37.13,4.91-76.43,10.1-115.68,38.56-1.3.94-30.35,22.46-50.86,54-10.94,16.84-16.41,25.26-18.8,36.35-1.59,7.36-1.39,12.16-5,14.09-7.41,4-16.27-12.73-36.5-15.75-14.75-2.2-27.11,2.84-32.34,5-15.36,6.26-26.54,19.07-26.54,19.07h0" transform="translate(41.35 102.94)"/><path class="cls-5" d="M1276.11,576c1.76,1.24-24.76,31.07-36.81,79.77a211.24,211.24,0,0,0-4.22,79c3.05,21.55,11.56,81.72,56.43,111.54,24.56,16.32,55.82,20.75,69.78,22.73.52.08,10.67.77,31,2.14,18.21,1.23,22.3,1.77,25.68-1.6,6.7-6.65,6-23.64-.93-31.4-1.7-1.92-4.23-3.76-6.66-8.1-2.2-3.92-4.35-9.89-3.14-10.75,2.28-1.64,21,12,27,33.81,5.58,20.22-1.19,42.23-14.37,55-12.69,12.34-30.8,14.39-31.64,12.57-.67-1.44,8.28-8,11.56-10.37,4.7-3.42,5.7-3.55,7.79-5.77.73-.8,7.91-8.63,6.1-13.87-1.43-4.14-7.9-5-44.81-8.39-9.08-.83-8.34-.8-10.3-.94a343.35,343.35,0,0,1-44.15-6.24,117.91,117.91,0,0,1-59.17-34.05c-19.22-20.58-25.62-43.08-29.78-57.69-7.63-26.81-6.52-48.3-5.75-67.41.67-17,2.16-47.44,16.67-81.56C1251.74,598.46,1274.52,574.91,1276.11,576Z" transform="translate(41.35 102.94)"/><path class="cls-6" d="M1276.11,576c1.76,1.24-24.76,31.07-36.81,79.77a211.24,211.24,0,0,0-4.22,79c3.05,21.55,11.56,81.72,56.43,111.54,24.56,16.32,55.82,20.75,69.78,22.73.52.08,10.67.77,31,2.14,18.21,1.23,22.3,1.77,25.68-1.6,6.7-6.65,6-23.64-.93-31.4-1.7-1.92-4.23-3.76-6.66-8.1-2.2-3.92-4.35-9.89-3.14-10.75,2.28-1.64,21,12,27,33.81,5.58,20.22-1.19,42.23-14.37,55-12.69,12.34-30.8,14.39-31.64,12.57-.67-1.44,8.28-8,11.56-10.37,4.7-3.42,5.7-3.55,7.79-5.77.73-.8,7.91-8.63,6.1-13.87-1.43-4.14-7.9-5-44.81-8.39-9.08-.83-8.34-.8-10.3-.94a343.35,343.35,0,0,1-44.15-6.24,117.91,117.91,0,0,1-59.17-34.05c-19.22-20.58-25.62-43.08-29.78-57.69-7.63-26.81-6.52-48.3-5.75-67.41.67-17,2.16-47.44,16.67-81.56,15.32-36,39.69-58.44,39.69-58.44h0" transform="translate(41.35 102.94)"/><polyline class="cls-3" points="1027.76 1029.46 1345.07 1348.84 1420.57 1263.72 1463.79 1353.95 1660.17 1723.32 1769.87 1577.24 2026.34 1956.47 2036.07 1944.46 1841.82 1347.31 1686.57 1541.17 1526.57 1014.49 1398.88 1159.12 1254.25 911.42 1027.76 1029.46"/><polygon class="cls-6" points="1027.76 1029.46 1345.07 1348.84 1420.57 1263.72 1463.79 1353.95 1660.17 1723.32 1769.87 1577.24 2026.34 1956.47 2036.07 1944.46 1841.82 1347.31 1686.57 1541.17 1526.57 1014.49 1398.88 1159.12 1254.25 911.42 1027.76 1029.46"/><polyline class="cls-3" points="1663.76 1466.08 1526.57 1014.49 1398.88 1159.13 1254.25 911.42 1027.76 1029.45 1345.07 1348.84 1420.57 1263.71 1564.57 1543.51"/><polygon class="cls-6" points="1663.76 1466.08 1526.57 1014.49 1398.88 1159.13 1254.25 911.42 1027.76 1029.45 1345.07 1348.84 1420.57 1263.71 1564.57 1543.51 1663.76 1466.08"/><polyline class="cls-5" points="1582.23 1180.85 1527.83 1014.02 1400.14 1158.65 1255.5 910.95 1029.01 1028.98 1346.32 1348.37 1421.81 1263.25 1453.12 1324.69"/><rect class="cls-3" width="2063.9" height="2063.9"/></g></svg>