<svg id="Layer_1" data-name="Layer 1" xmlns="http://www.w3.org/2000/svg" xmlns:xlink="http://www.w3.org/1999/xlink" viewBox="0 0 1980.36 1845.16"><defs><style>.cls-1{fill:none;}.cls-2{clip-path:url(#clip-path);}.cls-3,.cls-4{fill:#231f20;}.cls-3{fill-opacity:0;stroke:#231f20;stroke-miterlimit:10;stroke-width:8.17px;}</style><clipPath id="clip-path" transform="translate(-13.52 -12.62)"><rect class="cls-1" x="-31.45" y="-94.22" width="2059.19" height="2059.19"/></clipPath></defs><title>Q_Black with Transparent Background_Digital</title><g class="cls-2"><path class="cls-3" d="M422.08,358.06C377,393.8,293.13,481.8,263.89,613.1c-9,40.48-18,84.25-2.48,136.52,13.4,45.23,41.85,77.6,56.21,94.38,18.59,21.75,31.55,30.35,38.16,34.32,10.29,6.19,21.32,10.45,43.38,19,15.51,6,23.27,9,32.69,11.17,18.06,4.19,32.42,4.2,43,4.14,14.66-.09,23.38-.13,34.75-3.52,10.94-3.25,13.47-6.36,27.3-12.41,2.8-1.22,12.4-5.35,34.75-11.38,43.17-11.65,64.76-17.48,86.87-15.92,32.13,2.25,54.61,9.32,54.61,9.32,13.23,4.17,17.72,7.17,24.88,5,17.61-5.48,33.34-30.63,28.41-45.93a40.06,40.06,0,0,1-2.78-14.26c.06-5.15,1.28-9.14,3.84-12.1,1.63-1.87,3.64-3.12,4-2.79s-1.75,2.81-2.2,6.77a13.75,13.75,0,0,0,.21,4.15c1.47,8.36,5.32,14.41,6.86,23.36.92,5.38,0,5.68.93,6.77,4,4.49,18.68-1.79,55.64-21.2,37.2-19.62,34.64-19.62,41.12-21.4,29.39-7.9,40.28,5,60-6.54,8.53-5,25.31-18.44,28.55-21.11a69.84,69.84,0,0,0,6.65-5.86c3-3.31,4.39-5.83,5.43-5.46s1,3.12.79,4.81a12.42,12.42,0,0,1-2.32,5.58c-7.21,9.59-18.33,19.39-17.36,23.88,1.23,5.68,22.73,7,42.86,4.91,15.63-1.56,35.51-3.55,58.26-16.07,19.58-10.76,42.94-30.23,45.93-47.16.66-3.7,2.73-21.16,0-27.09-.2-.44-1.31-2.71-.62-3.31s3.25,1.06,3.52,1.25c4.25,2.91,5.55,8.72,6,11.37a63.62,63.62,0,0,1-4.76,35.81c-11.37,22.55-29.43,24.58-28.12,35.16a13.4,13.4,0,0,0,.41,1.63c2,7.5,5.76,21.48,17.29,29.4a33.58,33.58,0,0,0,12.78,5.59c5.13,1,9.3.44,9.58,1.6.15.59-.78,1.72-6.09,4.1a30.15,30.15,0,0,1-18.27-1.31,29.28,29.28,0,0,1-10.39-7.19c-6-12.51-12.36-20.46-14.49-21.22a31.27,31.27,0,0,0-3.14-.91,25.89,25.89,0,0,0-2.77-.49c-11-1.33-22,2.35-22,2.35-3.47,1.17-28.92,9.77-39.74,12.28-3.56.84-22.17-1.35-59.24-5.76,0,0-24.79-2.66-45.06.34a68.88,68.88,0,0,0-9.54,2.14c-9.19,2.67-13.45,5.31-31,14.92-60.26,32.83-66.83,32.83-81.91,47.76s-23.41,23.21-25.87,36a71.65,71.65,0,0,1-8.07,23.78c-.73,1.29-6.41,11.25-8.89,10.35-.44-.16-2.59-1.13,0-16.14,2.77-16.16,4.59-27.86,0-35.37-1.9-3.09-5.16-5.45-22.35-9.3-17.49-3.91-26.24-5.88-41-6.21-20.2-.45-48.75-1.09-81.91,12.41-20.66,8.43-55.52,22.88-70.13,58.34-6.65,16.14-6.43,30.32-6.2,39.09.88,34.64,17.73,59.54,37.72,88.27,15.17,21.82,30.69,44.13,56.6,64.38,53,41.43,111.87,44.37,174.37,48.41,48.65,3.14,99.23,6.41,137.77-14.93,6.16-3.41,21.38-12.62,44.06-17.38,19.19-4,33.83-2.92,53.36-1.23,55.26,4.75,77.6,19.8,106.32,7,5-2.24,12.94-6.64,13.45-5.79.71,1.15-11.06,11.72-25,18.21-4.83,2.24-20,8.68-51.29,6.62-37-2.43-47.43-13.54-54.61-7.45-12.09,10.24,0,56.57,28.55,88.13,40.9,45.18,104.46,47.2,140.87,48.38,70.1,2.32,122.37-21.71,143.4-31.68,32.25-15.29,54.37-32.34,85.56-56.43,40.06-30.91,63.39-56.1,74.18-68.34,6.39-7.23,12.06-14.08,17-20.4,61.75-65.31,70.53-84.7,88.12-123.48,3.53-7.8,9.49-22.54,3.1-33.51-3.49-6-9.68-9.21-11.17-10a33.42,33.42,0,0,0-21.72-2.48c-2.81.6-9.41,2-14.83,7.34-5.15,5.09-6,10.48-7.18,10.19-1.62-.38-3.19-10.38,1.54-18.16,5.88-9.67,19.52-12.42,27.31-14.27,11.8-2.79,14.19-1.34,19.9-3.1,4.91-1.52,19-7.21,32.89-39.72C1621.34,890,1624,868.9,1626,843.3c6-76.32.52-113.42-13-137.76-5.1-9.16-11.33-16.56-20.27-18.82-3-.76-10.82-2.07-28.76,8.27-16.06,9.28-43,25.12-49.75,53.63-2.72,11.52,1.15,11.23-2,35.82,0,0-2.84,22-15.35,36.52-1.12,1.31-2.67,2.93-3.59,2.54-2.23-1,2.9-12.54,4.34-25.87,3-27-3.13-34.14,3-51.64,1.1-3.16,4.09-8.75,10-19.9,10.69-20.08,15.76-26.43,13.65-29-2.34-2.8-10.47,2.61-26,7.86-17.06,5.74-31,7.23-54.21,9.73-22,2.36-33,3.53-35.81,3.51-8.31-.07-16.21-.77-24,4.14-2.8,1.77-4.83,3.79-10.29,11.32-14,19.4-13.68,24.13-21.88,31.19-2.66,2.3-12.45,10.41-22.65,8.22-4.46-1-8.53-3.79-8.36-4.22s3.88,1.82,8.84,1.53c7.36-.45,12.44-6.07,13.34-7.14,1.06-1.26,2.52-3.23,5-9,2.54-6,5.66-13.49,6.51-23.87.53-6.38.76-9.63-1.1-13-2.2-4-5.8-5.7-11.58-8.26a58.18,58.18,0,0,0-21.52-5,41.28,41.28,0,0,0-16.55,2.49c-11.31,4.27-16.35,12.51-17.06,11.94s4.79-13.43,17.06-19.46c6-3,11.59-3.46,22.34-4,7.53-.41,11.73-.64,17.06.32,10,1.76,13.71,6,20.79,8.95,9.38,4,16.17,2.43,32.49,1,35.46-3,32.88,1.72,59.36-2,10.55-1.47,23.88-3.42,40.34-9.63a140.76,140.76,0,0,0,28.85-14.57c2.65-1.78,7.71-5.34,18.62-15.2,17.74-16,26.61-24.06,30.1-30.41,10.75-19.57,5.56-41.61,2.78-53.37-2.32-9.88-5.88-18.4-19.23-41-13.54-22.89-22-37.08-36.93-56.78-45.19-59.55-95.78-97.59-105.18-104.57a543.52,543.52,0,0,0-88.41-53.36s-19-11.28-82.86-37.86c-6-2.51-18.52-7.55-34.44-6.21-5.14.44-27.54,1.09-32,12.11-1.5,3.75-1,8.89-4.61,10.72-1.56.79-4,1-5.32-.17-2.75-2.59,2.8-9.36,2.8-17.68,0,0-.37-9.37-8.06-19.9-21.16-28.85-120.38-40-120.38-40a763.24,763.24,0,0,0-107.8-11.4c-7.44-.25-.77.08-59.28,0-15.91,0-35.38-.08-60.77,3-4.65.56-7,.76-9.21,1.26-11.32,2.6-42.89,9.85-50.88,31.34-5.15,13.87,4.46,18.39,2.9,53.89-.46,10.35-1.69,19-4.9,28.28-2.7,7.85-6.5,18.42-16.55,26.48a41.2,41.2,0,0,1-16.82,8c-4.72,1-10.23,1.26-10.55.11s5.68-2.73,12.28-8.22a45.53,45.53,0,0,0,8.68-10,65.73,65.73,0,0,0,9.21-21c4-16,1.14-29.64-.43-36.81-3.16-14.41-7.7-35.08-23.58-44.68-10.35-6.24-21.63-5.35-38.48-2.48-54.35,9.27-98,27.43-120.38,37.23-19.55,8.55-32.74,14.33-50.89,24C504.6,304.48,459.06,328.77,422.08,358.06Z" transform="translate(-13.52 -12.62)"/><path class="cls-4" d="M547.63,426.11c-.11,2-17.47-.7-40.53,5.79-12.55,3.52-35.82,10.36-46.34,29.78-4.32,8-4.88,15.44-5.79,25.65-1.36,15.08-2.43,27.24,4.14,35.17,9.58,11.57,23.49-.3,46.33,10.34,15.57,7.25,14.63,15.33,39.72,29.79,14.58,8.4,20.62,9,23.16,9.1,18.29.9,33.72-12.67,34.33-13.24,4.52-4.06,7.07-8,7.86-7.44,1.21.76-2.07,11.56-9.09,19-15.06,16-38.08,14.29-40.55,14.07-11.18-1-20.41-6.48-38.89-17.38s-17.1-12.94-26.47-16.56c-2.7-1-25.4-9.28-49.65.84-6.53,2.73-21.64,9-25.64,22.33-2,6.7.38,9.88,1.65,21.52.72,6.61,2.8,25.7-3.31,38.88-10.75,23.22-47.75,27.86-48,27.31-.13-.29,8.49-2.85,19.44-11.17,5.36-4.07,10.12-7.69,13.64-13.65,3.36-5.65,4.93-12.29,4.56-24-.9-28.53-11.6-32.21-7.85-43.85,5.38-16.78,28.95-13.16,37.23-33.92,1.57-4,1.29-5.51,1.64-24.82.54-28.42.79-42.62,1.66-45.51,8.08-26.86,44.29-41.78,70.33-43.85C530.57,418.83,547.75,424.18,547.63,426.11Z" transform="translate(-13.52 -12.62)"/><path class="cls-4" d="M349.5,709.34c1.7-.27,1.71,15.1,12.13,27.15,1.53,1.77,12.11,14,25.7,13.35,10.53-.51,12.35-6.37,37.5-25.57,2.74-2.1,8.25-5.37,15.35-10.95,6.66-5.19,9.95-7.78,12.26-10.34,9.51-10.79,9.52-20.79,17.91-27.86a41.24,41.24,0,0,1,6.21-4.07c17-8.88,23.3-1,69.73-2.84,23.18-.92,41.63-1.78,64.33-9.14,20-6.49,42.37-14.11,57.29-36.5,3.34-5,12.48-19.11,13-38.8.66-26.53-14.82-46.14-21.63-54.72-18.9-24-32.63-21-42.15-42.78-7.39-16.85-5.47-33.07-4.87-37.65.53-4.1,2.88-19.38,16.76-38.21,26-35.21,66.9-48.41,68.11-46.2.44.83-6.46,4.24-19.47,15.4-21.66,18.6-47.11,40.45-47.56,69-.23,14.17,5.77,25.15,7.56,28.34,8.14,14.49,19.49,19,28.11,25.48,22.35,16.66,32.24,50.24,31.89,73.38-.7,47.35-44.77,81.75-75.49,94.68-15.7,6.6-29.3,8.17-42.34,9.69-49.52,5.77-71.53-10.5-95.67,5.7-7.67,5.15-7.45,8.79-11.75,15.92-2.69,4.46-5.23,7.8-11.32,13.93-17.75,17.84-42.39,18.9-49.67,37.41-2.71,6.86.8,6.21-2.59,25.33-3,16.7-6.2,20-4,25.44,5.28,12.93,30.6,10.94,30.53,15.1,0,2.55-9.54,5.87-18.65,4.29-10.22-1.79-21-9.95-24.05-21.11-4.41-15.92,9.06-29.52,3.18-36.27-2.71-3.11-6-.71-13.69-2.27-15.37-3.14-27.17-17.83-31.72-31.18C346.47,721,348.08,709.56,349.5,709.34Z" transform="translate(-13.52 -12.62)"/><path class="cls-4" d="M664.1,1035.07c-3.91-1.2-7-7.68-6.35-12.77.36-2.78,1.78-4.8,2.79-11.17.54-3.37.27-3.62.13-3.67-1.09-.48-6.61,7.09-9.61,15.52-5.39,15.16-.85,20.53-6.61,26.57-5,5.18-11.3,4.38-14.93,11.55a21.47,21.47,0,0,0-1.74,6.24c-2.79,14.46,2.05,34.58,4.24,34.33,2-.21-3.76-16,4.63-31.9,6.63-12.62,19.13-19.61,30.09-25.75,8.37-4.69,13.2-7.4,20.48-9,21.72-4.77,29.66,8.14,52.26,3.78a48.48,48.48,0,0,0,21.89-9.94c2.4-2,12.15-10.31,13.37-22.44.32-3.14.23-8.17-1.25-8.55-1.26-.32-3,2.94-4.68,5.71a72.16,72.16,0,0,1-16.45,16.91,55.1,55.1,0,0,1-19.9,9c-24.16,5.3-36.68-12.71-52.5-4.7C671.91,1028.84,669,1036.61,664.1,1035.07Z" transform="translate(-13.52 -12.62)"/><path class="cls-4" d="M851.7,941.37c5.18-19,13.61-29.43,12.59-30.4S852,920.09,844.72,936.2c-2.82,6.19-13.16,28.95-6.64,51.1,6.1,20.75,21.1,20.73,25.68,43.43,1.62,8,1,14.42,0,24.87-2.17,22.81-8,25-10,43.44-.39,3.56-3.54,35.64,11.53,50.26,5,4.86,11.37,6.81,12.06,5.59.93-1.63-9.38-7-13.22-19.9-2-6.64-1.78-13.75-1.46-27.26.09-3.47-.14-6.33.41-9,2.19-10.47,10.15-15.32,13.22-33.83,4.27-25.71-7-39.29,1-49,3.45-4.21,10.87-5.08,25.69-6.82a178.18,178.18,0,0,1,22-1.3c29.42.21,44.45.39,60.11,4.56,13.32,3.54,21.13,7.67,26.56,15.72,1.13,1.66,7.27,10.78,4.82,17.8-2,5.76-8.67,6.71-8.31,8.67s7.52,3.75,11.88,0c5.75-5,4.68-17.9,2.44-25.63-4-13.75-14.59-20.38-19.56-23.59-2.24-1.45-9.42-5.82-29.71-8.28-4.42-.53-11.94-1.28-37.75-.83-22.21.39-33.32.59-37.73.83-15.24.85-19.06,1.68-25.87-.83-3.59-1.35-17.09-6.32-22.39-20.73C845.52,964.26,848.51,953.09,851.7,941.37Z" transform="translate(-13.52 -12.62)"/><path class="cls-4" d="M731.32,487.75c2.31-.83-7.85-18.32-.84-33.91,5.2-11.54,17.17-16.28,29.38-21.11,7.46-3,38.67-15.29,62.88-1.66,6.47,3.64,11.94,8.87,14.48,7,2.92-2.15-3.11-10.43-3.1-20.49,0-21.89,28.6-38.54,36.62-43.23,14.86-8.67,27.91-11.57,43.77-15.09,30-6.68,40.53-2.78,56-13.86,9.72-7,7-19.9,17-23.59,8.14-3.05,16.45,1.3,16.63.64.2-.81-11.65-8.08-23.26-5.17-10.45,2.6-11,14.19-20.67,19-21.89,10.94-35.53,5.56-62.47,12.4-18.7,4.75-51.52,13.11-62.57,37.24-3.76,8.19-5,18.14-13.35,21.72-6.6,2.82-11.94-.74-19.85-2.49-27.13-6-53.5,16.33-59.37,21.32-9.19,7.78-22.32,18.9-22.76,35.16C719.35,476.25,729.32,488.48,731.32,487.75Z" transform="translate(-13.52 -12.62)"/><path class="cls-4" d="M1163.22,310.27c2,1,2.5,3.79,2.56,4.23,1.22,7.83-12.62,10.34-20.36,24.76-4.44,8.27-6.3,19.37-2.06,26.45a11.33,11.33,0,0,0,1,1.49c2,2.37,5.83,4.26,17.6,8.44,16.91,6,25.31,9,34.53,10.34,16.27,2.37,26.53.34,26.7,1.65.19,1.53-13.12,7-29,6.62s-20.6-5.87-44.27-8.68c-7.44-.89-12.93-1.05-19.45-1.24a282.91,282.91,0,0,0-41,1.65c-45.49,5.72-76.12,29-76.12,29-22.24,16.92-48.23,47.35-49,72.19-.13,4.4-.11,28.48-1,39.51A67.4,67.4,0,0,0,963,537c.3,6.07,1.35,7.7.41,9.52-1.76,3.39-10,3-19,2.48-15-.82-22.54-1.23-27.86-1.09-8.22.21-14.79,2.16-27.58,6.05-23.76,7.21-47.23,14.65-69.51,36-1.56,1.49-2.61,2.57-3.71,3.71-27.52,28.31-37.91,57.17-40.07,63.45A170.68,170.68,0,0,0,766.93,703c-1,14.53-1.82,23.52,0,36,1.7,11.68,5.38,24.87,4.14,44.27-.45,6.78-1.16,9.23-2.18,9.38-2.84.41-7.76-17.61-10.73-28.57-6.51-24.17-9.79-36.27-10.68-48.25-2.11-28.07,7.75-49.91,17.13-70.71,9.95-21.95,29.57-65.23,74.62-90.78,22-12.5,45-17.85,56.71-19.9,14-2.4,21-3.61,28.2-2.69,9.35,1.19,15.86,4.25,20.63.63,3.15-2.42,4.05-6.46,4.39-12.41,1.38-24.27-1.19-34.42,1.39-47.16,1.44-7.13,3.81-11.74,7.66-19.24,13.87-27,35.58-42.49,41.57-46.54,23.83-16.12,57.93-27.29,83.77-30.41,13.57-1.64,18.72-3.67,21.56-5.46a44,44,0,0,0,4.3-3c11.48-9.25,17.73-23.59,27.59-36.72C1144,322.16,1157.38,307.41,1163.22,310.27Z" transform="translate(-13.52 -12.62)"/><path class="cls-4" d="M896,628.82c.56,1,6.38-1.59,7.1-1.91,7-3.06,9.95-6.85,12.75-8.84,13.74-9.72,42.72,10.74,45.1,12.41,5,3.54,9.19,7.49,11.18,13.24a23.94,23.94,0,0,1,.82,11.58c-1,7-4.7,33.83,0,54.19,2.56,11.08,7.32,18.91,11.16,25.24s9.44,15.33,19.9,22.75c7.9,5.63,18.21,8.95,19.45,7,1.38-2.11-9.5-9.12-18.13-20.52-12.94-17.12-14.71-36-15.79-47.76-.61-6.58-2.87-33.09,17.37-75.29,13.74-28.66,35.81-74.68,87.71-103.83,33-18.55,62.79-21.7,96.38-25.24,21.4-2.26,55.9-5.58,98.06,5.37,18.52,4.83,40.71,10.59,64.12,28.14,11.52,8.64,38.21,29.26,49.23,66.19,8.89,29.85,7.16,68.92-8.21,79.59-1.81,1.25-7.27,4.52-6.69,6.05.65,1.72,9,1.55,15.72-1.65,19-9,18.32-47.27,18.21-52.95-.76-40.33-23.44-69.64-32.27-80.68-23.16-29.06-50.43-42-62.47-47.57-20.61-9.51-37.64-12.73-52.54-15.3-14.51-2.51-48.18-7.19-93.08-1.25-37,4.91-76.26,10.09-115.4,38.47-1.29.94-30.28,22.42-50.74,53.93-10.95,16.79-16.37,25.2-18.77,36.26-1.58,7.34-1.39,12.14-5,14.06-7.39,4-16.23-12.7-36.42-15.72-14.71-2.19-27,2.84-32.27,5C907.11,616,895.07,627.32,896,628.82Z" transform="translate(-13.52 -12.62)"/><path class="cls-4" d="M1276.91,583.2c1.75,1.25-24.69,31-36.72,79.59a210.6,210.6,0,0,0-4.21,78.8c3,21.5,11.53,81.58,56.3,111.29,24.51,16.28,55.72,20.7,69.65,22.68.5.07,10.65.76,30.93,2.13,18.17,1.22,22.25,1.76,25.63-1.59,6.66-6.65,6-23.59-.94-31.34-1.71-1.91-4.22-3.74-6.65-8.07-2.19-3.92-4.33-9.87-3.13-10.73,2.28-1.64,21,12,27,33.73,5.57,20.18-1.19,42.13-14.34,54.92-12.66,12.31-30.72,14.35-31.57,12.54-.66-1.45,8.27-8,11.55-10.35,4.67-3.41,5.68-3.54,7.76-5.76.73-.8,7.89-8.61,6.09-13.84-1.44-4.13-7.88-5-44.71-8.37-9.06-.82-8.32-.79-10.27-.93a342.37,342.37,0,0,1-44-6.23,117.6,117.6,0,0,1-59-34c-19.17-20.53-25.57-43-29.72-57.56-7.61-26.75-6.5-48.19-5.74-67.25.69-16.92,2.17-47.33,16.64-81.39C1252.6,605.57,1275.32,582.08,1276.91,583.2Z" transform="translate(-13.52 -12.62)"/><polygon class="cls-4" points="974.35 920.26 1290.94 1238.91 1366.25 1153.98 1409.39 1244.01 1605.31 1612.54 1714.78 1466.8 1970.65 1845.15 1980.36 1833.18 1786.56 1237.39 1631.67 1430.81 1472.03 905.33 1344.63 1049.63 1200.32 802.49 974.35 920.26"/></g><path class="cls-4" d="M235.05,217.87c6.83-1.25,14,8.95,15.74,11.29,15.55,21.45,59.78,62.24,81.84,82.57,36.32,33.5,68.74,46.76,64.66,60.35-.85,2.83-2.54,3.17-11.29,11.44,0,0-5.17,9-23.63,25.86-15.7,14.38-47.94,59.9-71.75,111.43a466.06,466.06,0,0,0-37,119.45c-3.79,23.31-6.44,39.52-4.9,62.4.66,10,4.41,55.38,34.32,104.29a255.13,255.13,0,0,0,37.88,47.25c13.47,13.3,24.95,24.63,43.67,33.83,11.78,5.81,20.37,5.77,35.66,13.81a97.53,97.53,0,0,0,18.27,7.73,119.7,119.7,0,0,0,14.86,3.27A251.15,251.15,0,0,0,460,916.55a185.47,185.47,0,0,0,33-.45c8.55-.91,15-1.65,23.17-4.6,6.67-2.41,6.12-3.27,16.5-8.17a203.64,203.64,0,0,1,30.6-11.44c5.08-1.44,5-1.19,13.93-3.42,24.62-6.1,29.3-9,47.25-12.48A128,128,0,0,1,646,873.31a139.18,139.18,0,0,1,16.2.6,268.25,268.25,0,0,1,30.9,4.31c10.57,2,15.86,3,19.46,4.46a120.53,120.53,0,0,0,13.07,4.6,25.45,25.45,0,0,0,8,1.33,24.23,24.23,0,0,0,8.48-1.78c8.09-3.15,13.84-9.6,16.48-12.62,0,0,10.29-11.78,12.32-24,.26-1.55.41-3.14.41-3.14s.17-1.85.19-3.58c.07-4.63-2.42-11.33-2.51-11.3s.34,1.24,1,3.72c2.08,7.37,2.57,7.41,2.83,9.94.3,3-.31,3.81.59,5.5a7.82,7.82,0,0,0,3.86,3.27c5.84,2.55,14.34-2,15.6-2.68,8.71-4.65-122.84,66.3,35.21-16.34,18.72-9.78,28.11-14.7,29.72-15.72a77.53,77.53,0,0,1,10.4-5.67c4.33-1.94,9.5-4.23,16.34-5.06,3.43-.42,7-.28,14.26,0,.77,0,4.58.19,9.81.3h.06c2.75.06,10.49.17,13.31,0,6.53-.4,11.83-3.83,16.92-7.13,3.82-2.47,4-3.29,9.51-6.84a68.85,68.85,0,0,0,7.25-5c2.51-2,4.58-4,4.64-4a28.24,28.24,0,0,0-4.91,5.5,23.38,23.38,0,0,0-3.12,7.28,9.06,9.06,0,0,0-.45,3.27,8.36,8.36,0,0,0,1.93,4.45c2.42,3,7,3.85,13.23,4.46a109.89,109.89,0,0,0,13.81.75c19.58-.85,29.37-1.28,41.9-4a135.73,135.73,0,0,0,14.56-3.87c14.48-4.81,24-11,35.66-18.72,3.6-2.38,18-12,25.26-22a63.68,63.68,0,0,0,3.76-6,50.13,50.13,0,0,0,5.15-13.69c1.4-7,.75-12.48.59-12.48s3.33,16.85-5.34,30.9a60.73,60.73,0,0,1-12.19,13.93c-3.2,2.56-6.74,4.73-10.94,9.66-3.66,4.23-4.44,6.56-4.76,8.17-.25,1.28-.37,3,1.78,10.1s3.91,12.71,7.73,17.83a44.31,44.31,0,0,0,4,4.57,39.27,39.27,0,0,0,4.75,4,36.37,36.37,0,0,0,3.5,2.23c2.9,1.64,4.73,2.16,4.68,2.28s-2.89-.87-8.61-2.82a9.11,9.11,0,0,1-4-2.23,8,8,0,0,1-1.78-3.12c-1-2.83-2.83-5.32-4.16-8s-4.85-9.78-11.14-13.22c-4.42-2.43-8.64-2.22-14.72-2-2.68.13-6.58.51-17.08,3.42-9.59,2.66-12.65,4.1-25.26,7.87-6.89,2.07-10.4,3.11-13.07,3.42-6.87.81-11.14-.23-20.21-1.48-6.85-.94-13.77-1.37-20.64-2.09-15.46-1.59-23.2-2.38-33.14-3-15.25-.9-22-.54-29.11.73a104.56,104.56,0,0,0-11.45,2.83c-11.5,3.52-15.62,6.82-41.78,21.1-11.08,6-18.84,10.11-21.69,11.59-2.59,1.35-5.08,2.63-9.21,4.75-13.87,7.14-16.17,8.24-20.9,11a128.17,128.17,0,0,0-11.74,7.43,119.61,119.61,0,0,0-9.81,8c-7.1,6.41-17.62,15.92-22.28,27-1.26,3-2.37,6.54-2.37,6.54A89.46,89.46,0,0,0,744,923.89c-2.18,10.47-7.75,19.3-8.47,19-.47-.18,1.08-4,2.52-12.19a73.51,73.51,0,0,0,1.49-15.45c-.13-5.21-.3-9.95-3-15.15a20,20,0,0,0-4.45-6.24c-3.22-2.94-6.54-3.73-19.31-6.24-8.18-1.6-9.22-1.78-9.22-1.78-25.86-4.45-25.09-4.35-25.86-4.46-17.33-2.52-35.65-.36-43.69.59a217.53,217.53,0,0,0-57,14.86c-17.25,7.11-26.92,13.75-31.83,17.38a90.26,90.26,0,0,0-28.53,33.43,101.41,101.41,0,0,0-8,20.51c-4.47,17.25-2.15,31.72-.3,42.48A137.52,137.52,0,0,0,525,1055.83c5.14,8.8,5,6.15,16.91,24.36,10.14,15.41,12.21,20.23,19.9,30.32a197.64,197.64,0,0,0,17.83,20.2,235.75,235.75,0,0,0,40.83,33.3c41.34,25.87,82.27,30.58,99.84,32.39,2.79.28.09,0,21.7,1.48,43.15,3,49.49,4,68.93,4.75,14.73.54,25.34.91,40.12,0,18.64-1.13,28.49-1.73,41.29-6,10.52-3.45,10.23-5.14,35.36-16,12.24-5.31,18.36-8,24.67-9.8a144.88,144.88,0,0,1,37.43-5.36c10.61-.18,19.55,1.07,37.44,3.57,19.59,2.74,29.39,4.12,42.21,6.83,7.29,1.55,14.65,3.32,25.25,3.27,9,0,15.36-1.39,15.45-.89.13.72-12.13,4.67-26.75,6.24a137.7,137.7,0,0,1-42.19-2.08c-14.92-3.26-16-3.56-16-3.56-8-2.27-10.94-3.92-16.33-3.28-2,.25-7.77,1-11,5.36-.82,1.13-1.72,2.82-2.37,9.21a64.24,64.24,0,0,0-.3,14.27c1.43,13.69,8.35,28.35,11.59,34.76,4.54,9,9.32,18.48,18.41,29.42a137.26,137.26,0,0,0,37.15,30.6c14.18,8.06,26.06,11.58,35.36,14.27,21.89,6.31,38.86,7.25,60.62,8.31,19.9,1,39.92,2,66.56-2.08a291.89,291.89,0,0,0,52-13.07,350.75,350.75,0,0,0,64.18-28.85s19.33-11.24,57.06-39.23c9.71-7.2,8.77-8,12.93-9.74,1.49-.63,3.8-1.44,4.32-3.33.58-2.09-1.41-4.16-3.26-6.54-2.82-3.6-4.5-8-6.84-11.94-4.54-7.61-3.29-8-9-19-6.2-12.19-7-10.25-10.11-18.13-2.08-5.17-3.57-10.48-5.64-10.39-1.06,0-1.41,1.46-4.16,4.45a41.17,41.17,0,0,1-4.17,3.86c-5.53,4.82-16.81,19.67-18.11,21.39-7.17,9.4-5.67,5.35-19.9,22-5.83,6.82-15.06,18-20.81,23.33a33.72,33.72,0,0,0-3.47,3.5c-3.53,4.24-4.14,7.57-5.74,7.49-.84,0-1-1-3-3.26a33.09,33.09,0,0,0-3.86-3.72c-5-4.44-29.85-31.07-49.33-50.36-8.16-8.09-6.27-5.87-17.08-16.5-14.15-13.93-23.82-24-30.46-30.9-5.51-5.7-5.31-5.43-43.53-43.82q-27.42-27.56-54.82-55.12c-67.88-68.25-74.45-74.85-79.59-80.38-7.56-8.08-9-10.47-13.82-14.12-1.88-1.4-9.14-6.64-10.26-9.66a5,5,0,0,0-2.23-3c-.57-.28-1-.25-1-.47-.24-.81,4.89-3,6-3.42,5.16-2.19,9.84-5.36,14.86-7.87,28-13.93,55.53-28.85,83.34-43.24,70.58-36.4,105.87-54.61,107.15-55.91.24-.25,3.91-4,5.76-3.07,1,.53.52,2,2.16,4.46,1,1.45,1.52,1.49,2.75,3.26a16.21,16.21,0,0,1,1.71,3.21c1.28,3.06,5.89,10.75,10.48,18.49,7.3,12.32,14.41,24.75,21.88,37,13.13,21.66,26.77,45.43,46.06,79,0,0,38,66.13,51.52,88.54,1.59,2.64,3.19,5.25,3.19,5.25,3.61,6,3.08,5,3.71,6.07,1.7,2.9,1.66,3,1.9,3.11,3.57,1.83,16.36-16.7,23.62-26.45.8-1.07,11.13-12.74,31.83-36.1,21.11-23.88,26.47-29.46,40-45,13-15,19.53-22.5,21-24.36,2.08-2.75,4.62-5.13,6.69-7.88,1.62-2.16,2.53-3.61,3.41-3.42,1.44.3,1.53,4.7,1.78,7.43.73,7.77,3.68,11.8,7.13,19.47,3.87,8.58,4.63,13.48,9.37,30,3.09,10.83,8.85,28,20.35,62.4,15.2,45.44,15.28,43.16,15.39,45.18,0,.88.19,4.44,1.69,4.89,2.2.66,5.67-5.75,11.3-14.71,7.88-12.59,7-9.41,13.07-19.46,3.5-5.77,7.59-13.93,15.75-30.17,1.22-2.43,3.92-7.82,6.83-15.15,2.44-6.11,3.67-9.25,4.31-13.52.54-3.57,1.46-9.7-.89-16.19-4-11.18-15.06-15.82-17.68-16.91,0,0-10.6-4.48-25.45-.86a23.46,23.46,0,0,0-8,3.24c-3.86,2.57-5.8,5.71-6.1,5.5s1.15-3.56,4-6.54c3.24-3.38,6.81-4.74,11.94-6.68a79.71,79.71,0,0,1,10.69-3.12,42.3,42.3,0,0,1,7.88-1.49c1.79-.13,2.8,0,5.79-.3a38.48,38.48,0,0,0,4.91-.59,23.69,23.69,0,0,0,6.09-2.23,39.47,39.47,0,0,0,10.25-7.87,86,86,0,0,0,11.11-14.51,119,119,0,0,0,9.35-18.56,262.58,262.58,0,0,0,13.07-45.92c7.32-42.08,5.39-76.82,3.57-106.37a222.82,222.82,0,0,0-9.51-47.55c-2.26-7.2-6.21-18.37-16.41-26.86a27.94,27.94,0,0,0-7.36-4.89c-11.66-5-24.19,1.55-39.23,9.35-7.14,3.71-17.82,9.37-28.74,20.5-5.13,5.24-11.11,11.34-15.68,21.4a68.82,68.82,0,0,0-6,25c-.33,9.16,1.63,10.63.45,20a88.8,88.8,0,0,1-4.16,16.92c-2,6-4.52,12.34-5,12.17s1-4.77,1.93-12.32a109.2,109.2,0,0,0,.59-14.12c0-7.17-.45-9.05-.51-19a40.2,40.2,0,0,1,3.63-19,85.14,85.14,0,0,1,6-11.29c13.11-22.13,10.32-21.42,14.25-26.44a12.89,12.89,0,0,0,2.83-6.54,7.59,7.59,0,0,0-.75-4.75c-1.67-3-5.24-3.51-5.64-3.57-2.82-.39-4.37,1-9.81,3.27-2.47,1.06-5,1.86-7.57,2.82,0,0-9.11,3.52-19.17,6.54-5,1.5-12.2,2.46-26.44,4.31-5,.65-4.85.59-34.91,3.87-7.83.84-10.74,1.16-15.31,1.18-4.76,0-6.46-.31-10.84.15a40.57,40.57,0,0,0-11.94,2.83,28.59,28.59,0,0,0-6.39,3.56c-2.69,2-4.16,4-8,9.21-4,5.54-6.08,8.31-6.68,9.21-5.24,7.91-6,10.85-11.14,17.68-1.8,2.36-4.54,5.75-4.91,5.49s1.34-2.77,3.26-7a64.74,64.74,0,0,0,4.76-13.93c.37-1.78,0-.48,1.34-10.4.71-5.3.88-6.16.74-7.87a18.91,18.91,0,0,0-3.56-9.81c-2.56-3.38-6.06-5-13.08-8a63.63,63.63,0,0,0-6.83-2.68c-11.25-3.56-21.1-2.3-21.1-2.53s5.19-.28,11.94-.58c6-.26,6.25-.35,8.16-.3a42.83,42.83,0,0,1,11.6,1.48c3.32,1,3.18,1.55,11.29,5.5,5.15,2.51,7.73,3.76,9.81,4.31a44.13,44.13,0,0,0,13.51,1c2.54-.1,4.64-.35,6.68-.6,5.8-.68,6.46-1.21,10.26-1.33,2.61-.09,3,.13,6.69,0,1.34-.05,1.87-.1,5.34-.3l5.5-.3c4.27-.21,7.82-.12,12.63,0,9,.24,8,.56,11.7.41,2.88-.11,2.66-.27,10.88-1,5.82-.52,6.22-.46,8.84-.78s5.38-.77,10.14-1.79c5.08-1.07,10.95-2.31,17.72-4.34a145.06,145.06,0,0,0,25.29-10,167.21,167.21,0,0,0,31.19-21.61l10-9c7.17-6.53,8.61-7.85,10.48-9.69,5.51-5.38,8.28-8.07,10.25-10.8a51.87,51.87,0,0,0,8-17.39,60.64,60.64,0,0,0,2-15,79.77,79.77,0,0,0-1-14.48,123.73,123.73,0,0,0-5.79-24.08,98.38,98.38,0,0,0-9.58-20c-1.19-1.85-1.91-2.82-3.79-5.83-4-6.39-6.33-11-8-14.15-3.29-6.17-6-10.32-11.25-18.62-1.32-2-6-9.24-13.59-19.82-2-2.74-13.81-19.06-27.19-34.78-27.91-32.78-59.64-59.52-63.74-62.95,0,0-48.69-40.74-107.27-70.42-22.48-11.39-46.65-22-46.65-22-12.83-5.63-12.93-5.31-23.48-10.11-10.11-4.61-15.13-7.27-24.06-10.09a90.47,90.47,0,0,0-15.45-3.86s-15.92-2.37-36,3.56c-5.53,1.63-8.75,3.31-11,6.24-1.36,1.77-2.61,4.32-3,4.15s.35-1.62.59-4.15a25,25,0,0,0,0-3.87c-.19-3-3.08-12.88-8-19.31-11.31-14.7-40.11-23.48-40.11-23.48-39.35-13.11-71.64-16-71.64-16-25.8-3.89-45.92-6-86.17-10.1-22.14-2.28-31.83-3.06-43.38-3.56-13.71-.61-26.28-.46-51.4-.15-17.13.2-30.73.59-47,2.23-5,.49-11.24,1.21-19,2.66A148.36,148.36,0,0,0,780,222c-8.33,3.21-12.47,4.84-17.24,8.62-3.19,2.54-11.11,9-13.67,19.9a30.69,30.69,0,0,0-.29,14.26c.76,3.2,1.77,4.77,2.67,9.52a59.64,59.64,0,0,1,.89,8.95c.41,8,.62,11.88.6,15.45-.07,10.09-.12,17.2-2.68,26.15a75.76,75.76,0,0,1-7.73,17.53c-4.28,7.59-7.25,10.45-8.95,11.94-4.2,3.63-8.88,5.8-9.2,5.34s3.66-3,7.42-7.72c1-1.21,3.73-4.85,6.83-13.37a83.47,83.47,0,0,0,5.65-29.72c0-7.78-1.15-13.61-2.37-19.9a146.4,146.4,0,0,0-4.76-17.83c-2.82-8.7-4.24-13.06-6.83-16.91a40.4,40.4,0,0,0-14.27-12.79c-10.71-5.79-21.71-4.9-33.83-3.26a395.42,395.42,0,0,0-60,12.78c-15.35,4.74-31.17,10.25-48.14,16.91-22.89,9-41.21,16.24-63.89,28.85-25.41,14.11-51.73,30.9-51.73,30.9-7,4.43-6.83,4.49-7.72,4.75-39.45,11.76-103.8-135.13-127.52-161.48-1-1.08-9.2-10.11-6.74-14.51.54-1,1.56-1.65,3.56-3a33.07,33.07,0,0,1,7.13-3.58c4.56-1.64,7-3.88,12.19-7.42s7.71-4.65,29.71-16.91c22.79-12.72,20-11.46,25.87-14.56,6.81-3.61,16.2-8.27,44.86-19.89,22-9,33-13.44,47.23-18.42A758.07,758.07,0,0,1,565.76,50c24-5.59,43-8.76,80.23-14.86,46.86-7.69,70.3-11.53,104.29-15.15,21.89-2.33,57.08-5.52,100.74-6.83,14.68-.44,53.64-1.38,103.4.89,7.2.32,55.09,2.56,84.08,6.83,2.8.41,12.12,1.83,25.27,3.57,12.7,1.68,16.53,2,25.55,3.26,12.42,1.73,21.39,3.37,29.11,4.76,46.88,8.44,47,7.85,64.2,11.29,33.68,6.74,58.69,14.08,82.57,21.1,17.45,5.12,38.73,11.41,66.56,21.69,5.51,2,28.92,10.74,59.43,24.36,14.46,6.44,30.38,13.5,50.83,24.35a751.77,751.77,0,0,1,66,39.52c8.37,5.52,23.1,15.44,41,28.68,6.73,5,17.11,12.7,29.76,23,24.43,19.9,41.7,36.81,52.59,47.55,17.66,17.37,32,32.91,42.5,44.86a901.92,901.92,0,0,1,129,192c9.35,18.91,19.29,39,29.72,67.75a588.23,588.23,0,0,1,27.63,107.84,616.11,616.11,0,0,1,7.43,85.56c1.18,47.57-2.82,84.23-5.35,106.68-3,27.06-6.6,47.25-9,60.32a1009.24,1009.24,0,0,1-25.55,109.64c-7.27,24.29-15.43,51.28-30.62,85.87a582.46,582.46,0,0,1-86.44,141.14c-9.84,12.17-40.49,49.26-88.85,93-23.73,21.47-54.07,48.92-99.24,78.15a662,662,0,0,1-161.65,76.08c-65.43,20.36-117.7,25.2-133.13,26.46-17,1.37-91.29,6.62-165.15-10.71a519.77,519.77,0,0,1-62.68-19.31c-19-7.31-29.95-11.55-44.27-19.9-9.23-5.39-37.24-21.74-62.4-50.21-5.08-5.75-11.13-13.22-22-21.4-7.53-5.67-16.91-12.59-30.61-15.75-8.44-2-17.32-2.2-23.77-2.38-7.22-.2-7.86.26-15.15,0-10-.35-14.45-1.41-23.77-2.38-10.74-1.1-14.74-.72-25.26-1.18-9.72-.43-18.05-1.26-40.71-4.46-34.4-4.84-71.4-10.06-104.3-17.53-17.38-4-34.42-8.54-34.42-8.54s-7.25-2-13.12-3.64c-34.64-10-73.1-28.53-73.1-28.53-23.09-11.14-40.39-19.49-59.42-33.28-69.7-50.48-97.63-126.7-102.22-143.26-3.7-13.34-8.09-26.5-11.89-39.8-2.44-8.57-3.07-11-5-15.15-7.43-15.43-19.47-24.08-25-27.93-1.86-1.3-5.79-4-22.59-11.59-26.56-12.08-34.3-13.44-50.22-22A216.15,216.15,0,0,1,186.35,1035c-43.45-30.78-77-78.79-86.77-93a498.6,498.6,0,0,1-47.24-85,482.13,482.13,0,0,1-35.4-131.93C7.79,649,19.2,590.48,25.56,559.28c12.87-63.23,33.77-109.49,46.65-137.57,14.57-31.73,26.67-51.63,30-57,19.72-32,38.63-54.08,56.16-74.61,14.46-16.92,22.22-25.87,33.83-36,9.35-8.08,17.28-13.43,24.66-21.4,2.36-2.54,5.53-5.26,11.88-10.7C232.43,218.93,233.5,218.15,235.05,217.87Z" transform="translate(-13.52 -12.62)"/><path class="cls-4" d="M232.22,218.17c.82-1.75,15.1-12.16,43.68-33,8-5.86-.21.21,35.4-25.13,5.16-3.66,5.22-3.71,5.61-3.84,21.95-7.69,42,67.53,108.32,129.73,9.16,8.59,31.91,28.85,26.72,42.31-.73,1.93-3.77,4.43-9.81,9.36-13.8,11.28-20,14.07-30.69,23.24-7.32,6.3-8.54,8.58-10.75,10.19C371.26,392.52,210.7,264.25,232.22,218.17Z" transform="translate(-13.52 -12.62)"/></svg>