<svg id="Layer_1" data-name="Layer 1" xmlns="http://www.w3.org/2000/svg" xmlns:xlink="http://www.w3.org/1999/xlink" viewBox="0 0 1980.92 1845.72"><defs><style>.cls-1,.cls-5{fill:none;}.cls-2{clip-path:url(#clip-path);}.cls-3{opacity:0;}.cls-4{fill:#ffc627;}.cls-5{stroke:#fff;stroke-miterlimit:10;stroke-width:3.1px;}</style><clipPath id="clip-path" transform="translate(-12.97 -11.14)"><rect class="cls-1" x="3.22" y="-0.98" width="1999.21" height="1860.7"/></clipPath></defs><title>Q_Gold with Transparent Fill and Transparent Background_Digital</title><g class="cls-2"><path class="cls-4" d="M547.24,424.79c-.12,1.95-17.47-.7-40.56,5.79-12.54,3.53-35.79,10.37-46.34,29.8-4.32,7.94-4.88,15.43-5.8,25.66-1.35,15.1-2.43,27.23,4.14,35.17,9.59,11.57,23.49-.3,46.35,10.35,15.56,7.24,14.64,15.33,39.73,29.79,14.58,8.41,20.63,9,23.17,9.1,18.29.9,33.73-12.67,34.34-13.24,4.51-4.06,7.07-8,7.87-7.44,1.2.76-2.08,11.55-9.11,19-15.06,16-38.09,14.29-40.56,14.07-11.17-1-20.41-6.48-38.89-17.39s-17.11-13-26.49-16.55c-2.69-1-25.4-9.28-49.66.84-6.54,2.73-21.65,9-25.64,22.34-2,6.7.37,9.88,1.65,21.52.71,6.61,2.8,25.7-3.31,38.89-10.76,23.23-47.76,27.91-48,27.32-.12-.3,8.51-2.85,19.46-11.18,5.36-4.06,10.12-7.69,13.64-13.65,3.37-5.65,4.92-12.29,4.56-24-.89-28.54-11.6-32.23-7.86-43.87,5.39-16.78,29-13.16,37.24-33.93,1.58-4,1.3-5.51,1.65-24.83.54-28.42.8-42.64,1.67-45.52C448.56,436,484.77,421,510.82,419c19.35-1.5,36.53,3.86,36.42,5.8" transform="translate(-12.97 -11.14)"/><path class="cls-4" d="M349,708.07c1.7-.27,1.72,15.1,12.14,27.16,1.52,1.77,12.11,14,25.71,13.36,10.53-.52,12.36-6.38,37.5-25.59,2.75-2.1,8.26-5.38,15.36-10.89,6.66-5.2,10-7.79,12.26-10.35,9.52-10.79,9.52-20.79,17.88-27.84a40.49,40.49,0,0,1,6.21-4.06c17-8.9,23.31-1,69.75-2.86,23.19-.92,41.65-1.76,64.35-9.13,20-6.51,42.39-14.11,57.3-36.51,3.35-5,12.49-19.12,13-38.8.66-26.53-14.83-46.16-21.62-54.77-18.92-24-32.65-21-42.17-42.79-7.38-16.87-5.47-33.08-4.87-37.66.53-4.1,2.87-19.38,16.76-38.22,26-35.23,66.92-48.43,68.13-46.22.45.83-6.46,4.24-19.47,15.41-21.67,18.6-47.13,40.46-47.58,69-.22,14.17,5.78,25.15,7.57,28.34,8.14,14.5,19.49,19.05,28.12,25.49,22.35,16.67,32.24,50.25,31.9,73.41-.71,47.35-44.75,81.76-75.52,94.7-15.7,6.6-29.3,8.18-42.36,9.7-49.52,5.77-71.53-10.52-95.69,5.7-7.67,5.14-7.46,8.79-11.76,15.94-2.68,4.46-5.23,7.81-11.31,13.93-17.76,17.84-42.4,18.93-49.69,37.41-2.71,6.87.81,6.21-2.59,25.34-2.95,16.7-6.2,20-4,25.44,5.28,13,30.6,11,30.54,15.12,0,2.54-9.55,5.86-18.66,4.27-10.22-1.78-21-10-24.06-21.1-4.4-15.92,9.07-29.53,3.19-36.28-2.71-3.12-6-.72-13.7-2.28-15.37-3.13-27.17-17.84-31.72-31.19-3.92-11.55-2.34-23-.9-23.21" transform="translate(-12.97 -11.14)"/><path class="cls-4" d="M663.73,1033.93c-3.91-1.21-7-7.69-6.35-12.78.36-2.78,1.78-4.8,2.79-11.18.54-3.36.27-3.61.14-3.67-1.1-.48-6.62,7.09-9.62,15.53-5.4,15.17-.85,20.53-6.62,26.57-5,5.19-11.29,4.39-14.92,11.56a21.51,21.51,0,0,0-1.74,6.24c-2.8,14.48,2.06,34.6,4.24,34.34,2-.21-3.76-16,4.63-31.91,6.64-12.62,19.13-19.62,30.1-25.75,8.37-4.7,13.21-7.41,20.48-9,21.73-4.78,29.69,8.12,52.29,3.78a48.5,48.5,0,0,0,21.9-10c2.4-2,12.15-10.31,13.37-22.45.32-3.14.23-8.17-1.24-8.54-1.26-.33-3,2.93-4.69,5.69a72.15,72.15,0,0,1-16.44,16.92,55.56,55.56,0,0,1-19.87,9c-24.18,5.29-36.7-12.71-52.52-4.7-8.12,4.1-11,11.87-15.93,10.35" transform="translate(-12.97 -11.14)"/><path class="cls-4" d="M851.39,940.2c5.17-19,13.62-29.45,12.59-30.42S851.72,918.91,844.4,935c-2.81,6.18-13.16,29-6.64,51.1,6.1,20.76,21.1,20.75,25.69,43.45,1.62,8,1,14.42,0,24.83-2.17,22.82-8,24.95-10,43.45-.4,3.55-3.55,35.65,11.53,50.27,5,4.87,11.37,6.82,12.06,5.59.93-1.63-9.38-6.93-13.23-19.91-2-6.63-1.77-13.75-1.45-27.26.09-3.48-.14-6.34.42-9,2.19-10.47,10.14-15.32,13.21-33.83,4.28-25.71-6.95-39.29,1.05-49,3.45-4.19,10.87-5.08,25.7-6.82a179.33,179.33,0,0,1,22-1.25c29.43.2,44.46.39,60.13,4.55,13.33,3.55,21.14,7.67,26.58,15.73,1.12,1.66,7.27,10.78,4.81,17.8-2,5.77-8.67,6.72-8.31,8.68s7.52,3.75,11.88,0c5.75-4.95,4.69-17.92,2.44-25.65-4-13.75-14.58-20.38-19.56-23.59-2.25-1.44-9.42-5.83-29.72-8.28-4.43-.53-12-1.27-37.76-.82-22.22.39-33.33.57-37.74.82-15.24.85-19.06,1.68-25.87-.82-3.53-1.3-17.08-6.28-22.37-20.7-4.14-11.24-1.11-22.39,2.09-34.13" transform="translate(-12.97 -11.14)"/><path class="cls-4" d="M731,486.45c2.31-.84-7.85-18.31-.83-33.93,5.19-11.53,17.16-16.28,29.39-21.11,7.45-2.94,38.66-15.29,62.89-1.66,6.46,3.64,12,8.87,14.48,7,2.93-2.14-3.11-10.42-3.1-20.49,0-21.86,28.6-38.55,36.63-43.23,14.86-8.69,27.92-11.59,43.75-15.11,30-6.68,40.54-2.77,56-13.86,9.72-7,7-19.86,17-23.59,8.15-3.06,16.46,1.29,16.64.63S992.1,313.06,980.5,316c-10.46,2.61-11,14.21-20.69,19-21.87,10.93-35.54,5.57-62.49,12.41-18.69,4.76-51.53,13.11-62.58,37.26-3.77,8.18-5,18.13-13.35,21.72-6.61,2.82-12-.74-19.86-2.49-27.14-6-53.51,16.34-59.39,21.32-9.19,7.77-22.33,18.9-22.76,35.17C719,475,729,487.17,731,486.45" transform="translate(-12.97 -11.14)"/><path class="cls-4" d="M1163,308.92c2,1,2.49,3.78,2.55,4.23,1.22,7.83-12.62,10.34-20.37,24.77-4.43,8.27-6.29,19.38-2.06,26.45a13.53,13.53,0,0,0,1,1.5c2,2.36,5.85,4.25,17.61,8.44,16.88,6,25.32,9,34.55,10.34,16.26,2.38,26.53.34,26.7,1.66.18,1.52-13.13,7-29,6.61s-20.6-5.88-44.28-8.68c-7.44-.88-13-1.05-19.45-1.24a282.81,282.81,0,0,0-41,1.65c-45.51,5.72-76.14,29-76.14,29-22.25,16.88-48.24,47.37-49,72.22-.14,4.39-.12,28.48-1,39.51a67.4,67.4,0,0,0-.41,10.34c.3,6.08,1.36,7.7.41,9.53-1.76,3.39-10,3-19,2.47-15-.82-22.54-1.23-27.87-1.08-8.22.21-14.79,2.16-27.58,6-23.76,7.22-47.24,14.65-69.53,36-1.57,1.5-2.62,2.58-3.72,3.71-27.53,28.33-37.92,57.19-40.07,63.47a170.58,170.58,0,0,0-8.69,45.94c-1,14.53-1.83,23.53,0,36,1.69,11.68,5.39,24.89,4.13,44.29-.44,6.78-1.15,9.22-2.17,9.37-2.84.42-7.77-17.61-10.73-28.57-6.52-24.19-9.78-36.28-10.68-48.27-2.11-28.08,7.75-49.93,17.13-70.72,9.92-22,29.58-65.26,74.67-90.81,22-12.51,45.06-17.86,56.68-19.87,14-2.41,21-3.61,28.21-2.7,9.36,1.19,15.87,4.26,20.63.63,3.17-2.41,4.06-6.47,4.41-12.42,1.37-24.27-1.19-34.42,1.38-47.16,1.44-7.13,3.81-11.75,7.66-19.25,13.88-27.06,35.59-42.5,41.58-46.55,23.84-16.13,58-27.29,83.8-30.42,13.58-1.64,18.72-3.68,21.57-5.47a42.27,42.27,0,0,0,4.3-3c11.49-9.26,17.74-23.61,27.6-36.73,7-9.31,20.36-24.05,26.2-21.21" transform="translate(-12.97 -11.14)"/><path class="cls-4" d="M895.67,627.56c.56.94,6.38-1.59,7.1-1.91,7-3.06,10-6.85,12.76-8.85,13.74-9.72,42.73,10.74,45.1,12.42,5,3.54,9.2,7.5,11.18,13.24a23.75,23.75,0,0,1,.82,11.58c-1,7-4.7,33.87,0,54.22,2.57,11.07,7.33,18.9,11.18,25.24s9.43,15.32,19.86,22.76c7.9,5.63,18.21,8.94,19.45,7,1.39-2.12-9.5-9.13-18.13-20.53-13-17.12-14.71-36-15.8-47.75-.6-6.59-2.86-33.1,17.37-75.31,13.76-28.67,35.82-74.7,87.74-103.86,33-18.56,62.82-21.71,96.41-25.26,21.4-2.25,55.91-5.58,98.08,5.39,18.53,4.82,40.72,10.59,64.14,28.14,11.53,8.64,38.23,29.27,49.25,66.21,8.9,29.82,7.17,68.95-8.2,79.61-1.83,1.24-7.28,4.5-6.7,6,.65,1.73,9,1.56,15.72-1.65,19-9,18.31-47.28,18.21-53-.76-40.34-23.44-69.61-32.27-80.7-23.17-29.06-50.44-42-62.49-47.59-20.62-9.51-37.66-12.73-52.56-15.31-14.51-2.51-48.19-7.18-93.1-1.24-37.06,4.9-76.28,10.08-115.45,38.48-1.29.94-30.29,22.43-50.77,53.94-10.91,16.8-16.37,25.2-18.76,36.27-1.59,7.35-1.39,12.14-5,14.07-7.39,4-16.23-12.71-36.42-15.73-14.72-2.18-27,2.84-32.28,5-15.34,6.25-27.38,17.54-26.48,19" transform="translate(-12.97 -11.14)"/><path class="cls-4" d="M1276.71,581.93c1.76,1.24-24.7,31-36.73,79.61a210.84,210.84,0,0,0-4.22,78.82c3,21.5,11.54,81.56,56.33,111.32,24.51,16.28,55.7,20.7,69.64,22.69.51.07,10.65.76,30.93,2.13,18.18,1.23,22.26,1.76,25.64-1.6,6.66-6.64,6-23.59-.94-31.34-1.7-1.92-4.22-3.75-6.64-8.07-2.2-3.92-4.34-9.88-3.14-10.74,2.28-1.63,21,12,27,33.74,5.57,20.19-1.19,42.15-14.35,54.94-12.66,12.31-30.72,14.35-31.58,12.54-.65-1.45,8.28-8,11.56-10.35,4.67-3.41,5.67-3.54,7.76-5.76.73-.8,7.89-8.61,6.09-13.84-1.43-4.14-7.88-5-44.72-8.38-9.07-.83-8.32-.79-10.27-.94a341.64,341.64,0,0,1-44.07-6.22,117.73,117.73,0,0,1-59-34c-19.18-20.53-25.58-43-29.72-57.57-7.61-26.76-6.51-48.21-5.75-67.28.68-16.95,2.16-47.34,16.65-81.4,15.29-36,38-59.45,39.6-58.32" transform="translate(-12.97 -11.14)"/><polygon class="cls-4" points="974.63 920.56 1291.3 1239.3 1366.63 1154.35 1409.78 1244.39 1605.76 1613.02 1715.26 1467.24 1971.2 1845.72 1980.92 1833.72 1787.06 1237.77 1632.13 1431.25 1472.45 905.61 1345.01 1049.96 1200.67 802.76 974.63 920.56"/><polyline class="cls-5" points="1526.73 1072.11 1472.44 905.62 1345.01 1049.95 1200.65 802.75 974.62 920.55 1291.3 1239.3 1366.64 1154.35 1397.89 1215.67"/></g><g class="cls-2"><path class="cls-4" d="M234.55,216.5c6.85-1.25,14,8.95,15.76,11.3,15.54,21.45,59.79,62.25,81.85,82.6,36.34,33.5,68.78,46.79,64.68,60.36-.85,2.83-2.54,3.16-11.3,11.44,0,0-5.17,8.95-23.62,25.86-15.71,14.39-48,59.9-71.78,111.46a465.25,465.25,0,0,0-37,119.48c-3.8,23.32-6.45,39.52-4.91,62.42.66,10,4.41,55.4,34.33,104.32A255,255,0,0,0,320.45,853c13.47,13.31,25,24.64,43.7,33.89,11.78,5.81,20.37,5.77,35.67,13.82a97.4,97.4,0,0,0,18.27,7.73A120.43,120.43,0,0,0,433,911.71c10.3,1.8,17.17,3,26.6,3.71a185.41,185.41,0,0,0,33-.45c8.55-.91,15-1.65,23.18-4.61,6.66-2.4,6.12-3.27,16.49-8.17a204.83,204.83,0,0,1,30.62-11.44c5.07-1.45,4.95-1.18,14-3.42,24.64-6.1,29.31-9,47.25-12.48a127.72,127.72,0,0,1,21.55-2.68,139.73,139.73,0,0,1,16.2.59,269.35,269.35,0,0,1,30.91,4.32c10.58,2,15.87,3,19.47,4.45a119.88,119.88,0,0,0,13.08,4.61,25.65,25.65,0,0,0,8,1.34,24.33,24.33,0,0,0,8.46-1.79c8.12-3.15,13.86-9.6,16.5-12.63,0,0,10.29-11.77,12.32-24,.26-1.55.41-3.15.41-3.15s.18-1.84.2-3.58c.06-4.63-2.43-11.32-2.52-11.29s.33,1.23,1,3.71c2.07,7.38,2.56,7.41,2.82,10,.3,3-.31,3.82.6,5.5a7.77,7.77,0,0,0,3.86,3.27c5.85,2.55,14.34-2,15.6-2.68,8.71-4.65-122.88,66.32,35.23-16.35,18.71-9.78,28.11-14.7,29.72-15.72A78.6,78.6,0,0,1,867.93,813c4.34-1.94,9.51-4.22,16.35-5,3.44-.41,7.05-.27,14.27,0,.77,0,4.57.19,9.81.3h.06c2.75.06,10.49.17,13.31,0,6.53-.4,11.83-3.83,16.95-7.13,3.82-2.48,4-3.29,9.5-6.84a71,71,0,0,0,7.26-4.94c2.51-2,4.59-4,4.64-4a28.52,28.52,0,0,0-4.91,5.51,23.49,23.49,0,0,0-3.12,7.27,8.91,8.91,0,0,0-.45,3.27,8.31,8.31,0,0,0,1.94,4.46c2.41,3,7,3.85,13.23,4.46a112.67,112.67,0,0,0,13.81.75c19.59-.85,29.38-1.28,41.91-4a129.88,129.88,0,0,0,14.57-3.86c14.48-4.82,24-11,35.66-18.73,3.6-2.38,18-12,25.26-22a59.73,59.73,0,0,0,3.78-5.93,49.85,49.85,0,0,0,5.14-13.69c1.4-6.92.76-12.48.6-12.48s3.33,16.86-5.35,30.91a61,61,0,0,1-12.19,14c-3.2,2.56-6.74,4.72-11,9.65-3.66,4.24-4.44,6.57-4.76,8.18-.26,1.29-.37,3,1.78,10.11s3.91,12.71,7.74,17.83a44.79,44.79,0,0,0,4,4.58,40.44,40.44,0,0,0,8.25,6.22c2.91,1.64,4.74,2.15,4.69,2.28s-2.9-.87-8.61-2.83a8.88,8.88,0,0,1-4-2.22,8.33,8.33,0,0,1-1.8-3.12c-1-2.84-2.81-5.33-4.15-8s-4.85-9.78-11.15-13.23c-4.42-2.41-8.63-2.22-14.72-1.93-2.67.13-6.59.51-17.09,3.42-9.58,2.66-12.64,4.1-25.26,7.87-6.9,2.07-10.4,3.11-13.07,3.42-6.87.81-11.14-.23-20.22-1.48-6.85-1-13.77-1.37-20.65-2.08-15.46-1.59-23.2-2.39-33.15-3-15.24-.9-22-.54-29.13.74a101.4,101.4,0,0,0-11.43,2.82c-11.51,3.52-15.63,6.82-41.76,21.1-11.09,6.06-18.85,10.12-21.7,11.59-2.59,1.35-5.08,2.63-9.22,4.76-13.87,7.15-16.17,8.24-20.95,11a123.81,123.81,0,0,0-11.74,7.43,118.2,118.2,0,0,0-9.81,8c-7.11,6.41-17.63,15.9-22.29,27-1.26,3-2.38,6.54-2.38,6.54a92.88,92.88,0,0,0-2.67,11c-2.18,10.47-7.74,19.29-8.47,19-.47-.18,1.09-4,2.52-12.18a72.22,72.22,0,0,0,1.49-15.46c-.12-5.2-.29-9.92-3-15.16a20.5,20.5,0,0,0-4.46-6.24c-3.21-2.94-6.54-3.73-19.32-6.24-8.18-1.61-9.21-1.79-9.22-1.79-25.84-4.44-25.09-4.35-25.85-4.46-17.32-2.51-35.65-.35-43.7.6A218.32,218.32,0,0,0,576.66,896c-17.26,7.11-26.93,13.76-31.8,17.39a90.38,90.38,0,0,0-28.54,33.44,102,102,0,0,0-8,20.51c-4.47,17.25-2.14,31.73-.3,42.5A137.86,137.86,0,0,0,524.64,1055c5.15,8.81,5,6.14,16.94,24.37,10.16,15.41,12.22,20.23,19.92,30.32a199.56,199.56,0,0,0,17.83,20.21,236.23,236.23,0,0,0,40.72,33c41.35,25.91,82.29,30.58,99.87,32.39,2.79.29.09,0,21.7,1.49,43.17,3,49.51,4,69,4.76,14.74.54,25.36.9,40.13,0,18.65-1.13,28.51-1.73,41.31-6,10.52-3.46,10.23-5.15,35.37-16,12.24-5.31,18.37-8,24.67-9.81a145.8,145.8,0,0,1,37.45-5.35c10.61-.19,19.56,1.06,37.45,3.57,19.59,2.74,29.39,4.12,42.2,6.84,7.31,1.55,14.67,3.32,25.27,3.27,9,0,15.37-1.4,15.46-.9.12.71-12.14,4.66-26.75,6.24a138.1,138.1,0,0,1-42.21-2.07c-15-3.26-16.05-3.57-16.05-3.57-7.94-2.27-11-3.92-16.35-3.27-2,.25-7.77,1-11,5.35-.82,1.13-1.71,2.83-2.37,9.21a64.53,64.53,0,0,0-.3,14.27c1.43,13.7,8.36,28.37,11.59,34.77,4.55,9,9.33,18.5,18.43,29.43A137.13,137.13,0,0,0,1062,1298.1c14.19,8.06,26.08,11.57,35.37,14.26,21.91,6.32,38.87,7.26,60.63,8.32,19.87,1,39.94,2,66.58-2.08,23.17-3.5,40.13-9.1,52-13.08a350.23,350.23,0,0,0,64.2-28.83s19.33-11.24,57.07-39.23c9.71-7.21,8.77-8,12.91-9.74,1.49-.62,3.8-1.44,4.33-3.34.57-2.09-1.41-4.16-3.27-6.54-2.81-3.59-4.49-8-6.84-11.88-4.55-7.62-3.29-8-8.92-19-6.19-12.2-6.93-10.25-10.1-18.13-2.09-5.18-3.57-10.49-5.65-10.42-1.06,0-1.42,1.47-4.16,4.47a40,40,0,0,1-4.17,3.86c-5.54,4.81-16.81,19.67-18.13,21.4-7.16,9.4-5.66,5.35-19.91,22-5.82,6.8-15,18-20.81,23.32a34,34,0,0,0-3.47,3.51c-3.53,4.25-4.14,7.58-5.74,7.5-.84,0-1-1-3-3.27a30.82,30.82,0,0,0-3.86-3.72c-5-4.44-29.87-31.08-49.34-50.38-8.16-8.08-6.28-5.87-17.09-16.5-14.16-13.9-23.83-24-30.47-30.91-5.51-5.7-5.31-5.43-43.54-43.84q-27.42-27.55-54.83-55.14c-67.91-68.26-74.48-74.85-79.66-80.39-7.56-8.07-9-10.48-13.82-14.11-1.87-1.42-9.14-6.66-10.26-9.67a4.91,4.91,0,0,0-2.23-2.95c-.57-.27-1-.24-1-.46-.23-.83,4.9-3,5.95-3.42,5.15-2.2,9.84-5.38,14.86-7.88,28-14,55.55-28.89,83.36-43.24,70.61-36.43,105.89-54.63,107.18-55.94.25-.25,3.92-4,5.77-3.06,1,.52.52,2,2.16,4.45,1,1.45,1.53,1.5,2.74,3.27a16.82,16.82,0,0,1,1.72,3.2c1.28,3.06,5.89,10.76,10.47,18.5,7.31,12.32,14.43,24.75,21.85,37,13.13,21.67,26.77,45.44,46.07,79.06,0,0,38,66.16,51.54,88.56,1.59,2.64,3.19,5.25,3.19,5.25,3.6,5.93,3.08,5,3.71,6.08,1.7,2.89,1.66,3,1.9,3.1,3.57,1.83,16.37-16.69,23.62-26.45.8-1.07,11.14-12.75,31.8-36.11,21.13-23.87,26.48-29.47,40-45,13-15,19.53-22.51,21-24.38,2.08-2.74,4.62-5.11,6.69-7.87,1.62-2.16,2.53-3.6,3.42-3.41,1.44.3,1.53,4.69,1.77,7.42.72,7.76,3.69,11.8,7.14,19.47,3.87,8.6,4.63,13.49,9.36,30,3.11,10.82,8.85,28,20.36,62.42,15.21,45.45,15.29,43.17,15.4,45.19,0,.88.19,4.44,1.69,4.89,2.2.66,5.68-5.75,11.3-14.71,7.89-12.59,7-9.41,13.08-19.48,3.5-5.76,7.59-13.89,15.75-30.16,1.22-2.43,3.91-7.83,6.83-15.16,2.44-6.11,3.68-9.26,4.31-13.52.55-3.59,1.47-9.71-.89-16.2-4.05-11.18-15.06-15.84-17.68-16.94,0,0-10.61-4.48-25.46-.88a23.59,23.59,0,0,0-8,3.26c-3.86,2.56-5.8,5.71-6.09,5.5s1.15-3.56,4-6.55c3.24-3.37,6.82-4.74,11.89-6.68a79.59,79.59,0,0,1,10.7-3.12,43.81,43.81,0,0,1,7.88-1.49c1.79-.12,2.8-.05,5.78-.3a35.62,35.62,0,0,0,4.92-.59A24.34,24.34,0,0,0,1584,955a39.14,39.14,0,0,0,10.25-7.88,85.59,85.59,0,0,0,11.29-14.56,116.25,116.25,0,0,0,9.37-18.58A262.77,262.77,0,0,0,1627.93,868c7.33-42.1,5.4-76.85,3.57-106.4a223.12,223.12,0,0,0-9.51-47.56c-2.26-7.2-6.21-18.38-16.42-26.9a27.84,27.84,0,0,0-7.35-4.9c-11.67-5-24.2,1.55-39.24,9.36-7.14,3.71-17.83,9.37-28.76,20.51-5.12,5.23-11.11,11.33-15.68,21.4a68.66,68.66,0,0,0-5.94,25c-.33,9.16,1.63,10.63.45,20.06a88.25,88.25,0,0,1-4.17,16.94c-2,6-4.51,12.35-5,12.19s1-4.78,1.92-12.34a106,106,0,0,0,.6-14.12c0-7.17-.46-9.06-.51-19a45,45,0,0,1,.66-9.8,45.55,45.55,0,0,1,3-9.22,84.36,84.36,0,0,1,6-11.28c13.12-22.15,10.33-21.44,14.26-26.46a12.87,12.87,0,0,0,2.83-6.54,7.6,7.6,0,0,0-.75-4.75c-1.67-3-5.25-3.51-5.64-3.57-2.83-.4-4.39.95-9.81,3.27-2.48,1.06-5.07,1.85-7.58,2.82,0,0-9.11,3.52-19.18,6.54-5,1.5-12.2,2.45-26.44,4.31-5,.66-4.86.59-34.92,3.87-7.84.85-10.75,1.17-15.32,1.18-4.76,0-6.46-.31-10.84.15a40.25,40.25,0,0,0-11.89,2.83,28.66,28.66,0,0,0-6.39,3.56c-2.7,2-4.17,3.94-8,9.22-4.06,5.54-6.08,8.31-6.68,9.21-5.25,7.92-6,10.85-11.16,17.68-1.78,2.36-4.52,5.76-4.9,5.51s1.35-2.79,3.27-7a65.26,65.26,0,0,0,4.76-14c.37-1.78,0-.48,1.34-10.4.71-5.3.88-6.17.74-7.88a19,19,0,0,0-3.57-9.8c-2.55-3.39-6.06-4.94-13.08-8a63.48,63.48,0,0,0-6.83-2.68c-11.25-3.56-21.1-2.3-21.1-2.52s5.18-.3,11.88-.6c6-.26,6.26-.34,8.17-.3a42.61,42.61,0,0,1,11.6,1.49c3.32,1,3.17,1.55,11.3,5.5,5.14,2.51,7.73,3.76,9.8,4.31a44.23,44.23,0,0,0,13.53,1c2.54-.11,4.64-.35,6.68-.6,5.8-.68,6.46-1.2,10.26-1.33,2.6-.09,2.93.13,6.69,0,1.34-.06,1.87-.1,5.35-.3,2.78-.16,5-.27,5.5-.29,4.27-.22,7.82-.13,12.63,0,8.92.23,8,.54,11.7.4,2.88-.11,2.66-.28,10.89-1,5.81-.52,6.22-.46,8.84-.78s5.37-.77,10.14-1.79c5.08-1.07,10.94-2.32,17.72-4.34a143.93,143.93,0,0,0,25.3-9.92,167.09,167.09,0,0,0,31.21-21.62l9.92-9c7.17-6.54,8.61-7.87,10.47-9.69,5.54-5.38,8.29-8.08,10.27-10.81a52.3,52.3,0,0,0,8-17.39,61.66,61.66,0,0,0,2-15,82.13,82.13,0,0,0-1-14.5,122.21,122.21,0,0,0-5.81-24.07,96.52,96.52,0,0,0-9.58-20c-1.18-1.85-1.9-2.82-3.79-5.84-4-6.38-6.33-11-8-14.15-3.29-6.17-6-10.32-11.25-18.61-1.31-2.06-6-9.26-13.6-19.84-2-2.74-13.81-19.07-27.19-34.78-27.92-32.8-59.66-59.55-63.76-63,0,0-48.7-40.76-107.29-70.45-22.5-11.39-46.67-22-46.67-22-12.84-5.63-13-5.32-23.49-10.11-10.1-4.62-15.13-7.27-24.07-10.1a90.94,90.94,0,0,0-15.45-3.87s-15.92-2.36-36,3.57c-5.53,1.64-8.75,3.31-11,6.24-1.36,1.76-2.62,4.33-3,4.16s.36-1.63.59-4.16a23.68,23.68,0,0,0,0-3.87c-.19-2.93-3.07-12.88-8-19.31-11.32-14.7-40.12-23.48-40.12-23.48-39.36-13.13-71.63-16.06-71.63-16.06-25.81-3.89-45.94-6-86.2-10.1-22.15-2.28-31.85-3.06-43.39-3.57-13.72-.6-26.29-.45-51.42-.15-17.13.21-30.74.6-47,2.23-5,.51-11.23,1.23-19,2.68a146.7,146.7,0,0,0-27.65,7.43c-8.32,3.2-12.46,4.83-17.24,8.62-3.2,2.53-11.11,9-13.67,19.92a30.52,30.52,0,0,0-.29,14.26c.75,3.2,1.76,4.77,2.66,9.51a59.83,59.83,0,0,1,.9,8.92c.42,7.92.62,11.88.6,15.45-.07,10.1-.12,17.21-2.68,26.16A75.92,75.92,0,0,1,742.21,341c-4.28,7.59-7.26,10.45-8.91,11.88-4.22,3.64-8.89,5.81-9.22,5.36s3.66-3,7.44-7.73c1-1.21,3.72-4.85,6.82-13.37A83.35,83.35,0,0,0,744,307.45c0-7.78-1.15-13.62-2.38-19.91a144.26,144.26,0,0,0-4.76-17.84c-2.83-8.7-4.23-13.06-6.84-16.94A39.93,39.93,0,0,0,715.76,240c-10.71-5.8-21.73-4.91-33.88-3.26a395.45,395.45,0,0,0-60,12.77c-15.35,4.75-31.18,10.26-48.16,16.95-22.89,9-41.21,16.23-63.9,28.83-25.42,14.11-51.71,30.91-51.71,30.91-6.95,4.44-6.84,4.48-7.73,4.75-39.5,11.84-103.87-135.08-127.59-161.45-1-1.07-9.22-10.11-6.75-14.51.53-1,1.56-1.64,3.56-3a32.73,32.73,0,0,1,7.13-3.56c4.57-1.65,7-3.89,12.19-7.43s7.72-4.66,29.72-16.94c22.8-12.74,20-11.48,25.86-14.58,6.82-3.6,16.22-8.27,44.88-19.9,22-9,33.05-13.42,47.26-18.44a760.5,760.5,0,0,1,78.76-22.58c24-5.6,43.06-8.76,80.25-14.87C692.5,26,715.93,22.17,749.94,18.55,771.79,16.22,807,13,850.7,11.71c14.69-.44,53.66-1.36,103.43.89,7.21.33,55.11,2.57,84.12,6.84,2.79.41,12.11,1.83,25.26,3.57,12.71,1.68,16.54,2,25.57,3.27,12.41,1.73,21.39,3.36,29.12,4.75,46.89,8.44,47,7.85,64.2,11.29,33.7,6.75,58.7,14.09,82.63,21.1,17.46,5.13,38.74,11.43,66.58,21.71,5.51,2,28.93,10.75,59.44,24.36,14.47,6.47,30.33,13.55,50.83,24.38a754.4,754.4,0,0,1,66,39.53c8.38,5.52,23.1,15.44,41,28.68,6.73,5,17.12,12.72,29.77,23,24.44,19.94,41.7,36.83,52.6,47.55,17.68,17.38,32,32.93,42.51,44.88a901.88,901.88,0,0,1,129,192c9.34,18.92,19.28,39,29.72,67.76a589.12,589.12,0,0,1,27.64,107.89,616.88,616.88,0,0,1,7.43,85.6c1.17,47.59-2.82,84.25-5.35,106.7-3.05,27.07-6.6,47.28-8.92,60.34a1006.79,1006.79,0,0,1-25.56,109.67c-7.26,24.31-15.43,51.3-30.61,85.9a582.27,582.27,0,0,1-86.49,141.18c-9.85,12.17-40.5,49.27-88.87,93-23.75,21.48-54.09,48.94-99.28,78.18a662,662,0,0,1-161.68,76.08c-65.45,20.36-117.72,25.21-133.17,26.46-17,1.37-91.31,6.63-165.25-10.7a519.42,519.42,0,0,1-62.71-19.33c-19-7.32-30-11.55-44.29-19.91-9.23-5.39-37.24-21.74-62.42-50.23-5.07-5.74-11.13-13.22-22-21.4-7.53-5.67-16.92-12.59-30.61-15.75-8.44-2-17.33-2.2-23.78-2.37-7.23-.22-7.86.25-15.16,0-10-.36-14.45-1.42-23.77-2.39-10.75-1.11-14.75-.72-25.27-1.19-9.73-.42-18.05-1.26-40.72-4.45-34.42-4.85-71.43-10.07-104.33-17.54-17.38-4-34.43-8.54-34.43-8.54s-7.25-2-13.12-3.65c-34.67-10-73.12-28.53-73.12-28.53-23.11-11.15-40.4-19.5-59.45-33.29-69.72-50.49-97.66-126.73-102.24-143.26-3.7-13.36-8.09-26.51-11.89-39.82-2.45-8.59-3.07-11.06-5-15.17-7.43-15.43-19.47-24.08-25-27.94-1.86-1.3-5.79-3.94-22.59-11.58-26.57-12.09-34.3-13.45-50.23-22a214.77,214.77,0,0,1-24.37-15.44c-43.47-30.79-77-78.83-86.79-93a498.11,498.11,0,0,1-47.25-85,481.7,481.7,0,0,1-35.38-132C7.24,647.78,18.66,589.21,25,558c12.88-63.25,33.78-109.54,46.66-137.62,14.58-31.76,26.69-51.65,30-57.06,19.72-32,38.63-54.1,56.17-74.61,14.46-16.9,22.22-25.9,33.89-36,9.35-8.07,17.28-13.43,24.67-21.4,2.35-2.55,5.53-5.26,11.88-10.7,3.63-3.1,4.71-3.88,6.24-4.16" transform="translate(-12.97 -11.14)"/><path class="cls-4" d="M231.73,216.8c.82-1.76,15.11-12.17,43.7-33,8-5.86-.22.21,35.41-25.14,5.15-3.66,5.21-3.71,5.59-3.84,22-7.7,42.05,67.55,108.37,129.76,9.17,8.6,31.91,28.85,26.73,42.33-.74,1.92-3.78,4.43-9.81,9.36-13.81,11.28-20.05,14.07-30.71,23.25-7.31,6.3-8.55,8.57-10.76,10.19-29.43,21.47-190-106.83-168.52-152.92" transform="translate(-12.97 -11.14)"/></g></svg>