<svg id="Layer_1" data-name="Layer 1" xmlns="http://www.w3.org/2000/svg" viewBox="0 0 1957.12 1843.2"><defs><style>.cls-1{fill:#fff;}.cls-2{fill:#ffc62a;}</style></defs><title>Q_Gold with White Fill and White Background_Digital</title><path class="cls-1" d="M506,221.66c321.75-235,711.8-88.57,727.72-82.29,392.33,154.69,677.25,657.49,519.81,960.09-152.41,292.91-651.64,268.2-700.61,265.17-302.32-18.71-504.6-184.5-578.56-246.88-113.83-96-227.09-191.54-253.12-347.46C171.57,472.73,486.44,236,506,221.66Z" transform="translate(-23.84 -10.51)"/><path class="cls-2" d="M237.13,221.9c.83-1.76,15.08-12.26,43.57-33.25,8-5.91-.23.21,35.28-25.34,5.14-3.68,5.2-3.75,5.57-3.87,21.9-7.76,41.91,68.1,108,130.82,9.11,8.65,31.8,29.08,26.62,42.66-.73,1.95-3.75,4.46-9.76,9.43-13.78,11.38-20,14.18-30.62,23.45-7.29,6.32-8.51,8.63-10.73,10.26C375.75,397.71,215.69,268.38,237.13,221.9" transform="translate(-23.84 -10.51)"/><path class="cls-2" d="M244.69,217.52c7.71-.2,13.69,8.53,15.71,11.38,19.89,28.22,62.9,65.87,81.56,83.28C378.17,346,410.51,359.34,406.43,373c-.85,2.87-2.53,3.18-11.25,11.54,0,0-5.16,9-23.56,26.07C356,425.14,323.81,471,300.09,523a472.5,472.5,0,0,0-36.88,120.44c-3.79,23.51-6.42,39.86-4.91,62.91.67,10,4.4,55.86,34.23,105.19a259.07,259.07,0,0,0,37.76,47.63c13.43,13.41,24.89,24.85,43.53,34.15,11.77,5.85,20.32,5.83,35.55,13.94a97.87,97.87,0,0,0,18.23,7.79,118.61,118.61,0,0,0,14.81,3.29c10.28,1.82,17.12,3.06,26.52,3.75a183.48,183.48,0,0,0,32.88-.44c8.51-.92,15-1.7,23.1-4.65,6.65-2.43,6.09-3.29,16.45-8.26a202.29,202.29,0,0,1,30.51-11.52c5-1.47,4.91-1.19,13.92-3.46,24.53-6.14,29.21-9,47.09-12.57a125.27,125.27,0,0,1,21.47-2.7,134.31,134.31,0,0,1,16.15.6,260.68,260.68,0,0,1,30.81,4.34c10.55,2,15.83,3,19.41,4.49a116,116,0,0,0,13,4.65,24.86,24.86,0,0,0,8,1.34,23.72,23.72,0,0,0,8.43-1.8c8.1-3.17,13.82-9.68,16.45-12.72,0,0,10.26-11.86,12.29-24.23.24-1.57.41-3.18.41-3.18s.14-1.87.19-3.6c.06-4.66-2.43-11.4-2.53-11.4l1,3.75c2.1,7.44,2.57,7.5,2.84,10,.29,3-.33,3.84.58,5.54a7.94,7.94,0,0,0,3.86,3.31c5.82,2.57,14.29-2,15.55-2.71,8.68-4.69-122.45,66.85,35.1-16.47,18.64-9.87,28-14.83,29.64-15.86A77.5,77.5,0,0,1,876,818.87a52.51,52.51,0,0,1,16.29-5.09c3.41-.42,7-.29,14.21,0,.76,0,4.56.19,9.78.29h.06c2.73.07,10.46.19,13.28,0,6.48-.4,11.79-3.85,16.86-7.18,3.83-2.5,4-3.32,9.49-6.9a77,77,0,0,0,7.23-5c2.51-2,4.56-4.09,4.62-4a27.91,27.91,0,0,0-4.89,5.56,23.22,23.22,0,0,0-3.11,7.31,9.12,9.12,0,0,0-.45,3.31,8.14,8.14,0,0,0,1.94,4.48c2.39,3,7,3.9,13.18,4.51a106.16,106.16,0,0,0,13.78.73c19.51-.84,29.27-1.26,41.76-4a134,134,0,0,0,14.5-3.9c14.44-4.86,23.91-11.08,35.55-18.88,3.59-2.39,17.94-12.15,25.19-22.17a58,58,0,0,0,3.75-6,51.84,51.84,0,0,0,5.14-13.79c1.39-7,.75-12.57.58-12.57s3.32,17-5.32,31.16a62,62,0,0,1-12.16,14.08c-3.19,2.58-6.72,4.76-11,9.74-3.63,4.26-4.41,6.6-4.73,8.22-.24,1.32-.37,3,1.77,10.2s3.89,12.83,7.72,18a42.17,42.17,0,0,0,4,4.61,38.73,38.73,0,0,0,4.72,4c1.64,1.18,3,1.95,3.48,2.27,2.93,1.63,4.73,2.15,4.69,2.28s-2.88-.88-8.58-2.85a8.75,8.75,0,0,1-4-2.24,7.87,7.87,0,0,1-1.78-3.17c-1-2.82-2.82-5.36-4.16-8.06s-4.81-9.85-11.11-13.33c-4.41-2.45-8.6-2.26-14.67-2-2.67.15-6.54.52-17,3.46-9.55,2.68-12.59,4.13-25.17,7.94-6.87,2.09-10.38,3.12-13,3.44-6.85.81-11.1-.26-20.13-1.49-6.84-1-13.74-1.41-20.6-2.12-15.43-1.59-23.12-2.39-33-3-15.2-.91-22-.55-29,.75a99.49,99.49,0,0,0-11.4,2.85c-11.45,3.52-15.56,6.87-41.62,21.25-11,6.12-18.79,10.2-21.63,11.69-2.56,1.36-5,2.66-9.17,4.8-13.82,7.19-16.14,8.3-20.89,11.08a119.29,119.29,0,0,0-11.7,7.48,125.55,125.55,0,0,0-9.78,8.11c-7.08,6.46-17.57,16-22.23,27.27-1.24,3.05-2.36,6.57-2.36,6.57a97.72,97.72,0,0,0-2.67,11.09c-2.16,10.56-7.71,19.47-8.43,19.17-.48-.14,1.09-4,2.5-12.28A73.29,73.29,0,0,0,747.67,921c-.14-5.23-.29-10-3-15.25a20.39,20.39,0,0,0-4.43-6.31c-3.21-3-6.53-3.77-19.27-6.28-8.14-1.62-9.18-1.81-9.18-1.81-25.75-4.48-25-4.38-25.77-4.5-17.25-2.52-35.53-.34-43.54.63a214.43,214.43,0,0,0-56.89,15c-17.2,7.14-26.83,13.87-31.68,17.5a99.71,99.71,0,0,0-15.56,14.24,98.15,98.15,0,0,0-12.88,19.47,101.35,101.35,0,0,0-8,20.68c-4.45,17.4-2.15,32-.31,42.85a140,140,0,0,0,16.6,45.54c5.13,8.88,4.9,6.2,16.9,24.58,10.11,15.53,12.14,20.37,19.85,30.55a196,196,0,0,0,17.75,20.37,234.45,234.45,0,0,0,40.58,33.25c41.21,26.13,82,30.85,99.55,32.67,2.75.29.08,0,21.63,1.49,43,3.1,49.32,4.1,68.71,4.82,14.67.52,25.28.9,40,0,18.58-1.16,28.42-1.76,41.18-6,10.48-3.5,10.17-5.19,35.24-16.19,12.2-5.35,18.32-8,24.59-9.89a144,144,0,0,1,37.31-5.39c10.59-.19,19.5,1.07,37.33,3.6,19.54,2.75,29.3,4.15,42.06,6.9,7.29,1.55,14.63,3.35,25.19,3.29,9,0,15.31-1.43,15.39-.9.15.71-12.09,4.69-26.66,6.28a136,136,0,0,1-42.05-2.09c-14.9-3.27-16-3.61-16-3.61-7.91-2.28-11-3.94-16.32-3.29-2,.26-7.75,1-10.94,5.41-.83,1.11-1.72,2.85-2.38,9.28a65.58,65.58,0,0,0-.29,14.38c1.43,13.83,8.35,28.6,11.56,35.08,4.54,9.07,9.28,18.62,18.37,29.65a136.49,136.49,0,0,0,37,30.84c14.11,8.15,26,11.69,35.24,14.4,21.84,6.37,38.74,7.31,60.43,8.38,19.79,1,39.8,2,66.36-2.08,23.08-3.54,40-9.2,51.83-13.2a347.82,347.82,0,0,0,64-29.06s19.26-11.34,56.86-39.56c9.7-7.25,8.75-8.07,12.89-9.83,1.47-.63,3.79-1.45,4.31-3.35.56-2.1-1.41-4.19-3.25-6.58-2.82-3.65-4.5-8-6.82-12-4.54-7.69-3.29-8-8.91-19.17-6.17-12.3-6.9-10.35-10-18.3-2.1-5.21-3.57-10.56-5.66-10.47-1.06,0-1.39,1.48-4.12,4.48-1.83,2-5.84-32.55-6.81-31.69-5.51,4.84-32.73,7-34,8.73-7.14,9.47-26,3.29-40.14,20.07-5.82,6.87-19.2,3.49-6.11,21.82.89,1.25.45,11.46-.87,13.09-3.5,4.27-6.26,2.7-7.86,2.62-.83,0,1.06-5.57-.87-7.86-1.62-1.9,9.72,6.16,8.73,5.24-5-4.46-20.59,11.86-40-7.61-8.12-8.13-6.26-5.91-17-16.61-14.11-14-23.76-24.23-30.37-31.16-5.49-5.74-5.28-5.49-43.4-44.2q-27.35-27.78-54.63-55.59c-67.68-68.79-74.23-75.43-79.39-81-7.56-8.13-9-10.58-13.78-14.23-1.86-1.42-9.11-6.72-10.23-9.74a4.78,4.78,0,0,0-2.22-3c-.56-.3-1-.26-1-.47-.25-.83,4.89-3,5.92-3.45,5.14-2.2,9.82-5.41,14.82-7.94,27.92-14.09,55.35-29.13,83.09-43.59,71.38-37.21,105.38-58.69,106.82-56.41,1,1.59-14,14.11-15.43,12.82-.76-.7,2.5-5.3,2.62-5.24s-7.15,10.86-4.36,14c.76.85,2.27.87,5.24.87a34.67,34.67,0,0,0,7.85-.87c6.17-1.6,19.32-1,26.86,5,3.4,2.71,3.05,5.21,7.78,13.41,4.62,8,9.24,16,14,23.89,13.07,21.84,26.68,45.81,45.88,79.71,0,0,37.88,66.68,51.38,89.25,1.6,2.66,3.17,5.3,3.17,5.3,3.61,6,3.09,5.07,3.71,6.12,1.7,2.93,1.66,3,1.91,3.14,3.56,1.84,16.3-16.83,23.53-26.68.79-1.06,11.1-12.84,31.7-36.39,21-24,26.37-29.72,39.86-45.39,12.94-15.13-1.41,1.89,0,0,2.09-2.77,8.22-8.14,10.29-10.93,1.6-2.16-43.65,38.21-42.76,38.4,1.43.31,45.11-35.91,45.38-33.17.71,7.82-26,38.06-2.62,23.57,8.06-5,9.24,2.52,14,19.2,3.08,10.89-5.37,35.14,6.11,69.82,10.81,32.68,19.45,39.47,23.57,41.41,1.34.64,2.61,1.35,2.61,1.35,9.78,4.1,20.48-1.5,20.94-1.75,4.69-2.53,9.94-11,20.25-27.9,1.56-2.55,3.18-5.16,5.65-8.66a116.38,116.38,0,0,0,7.38-11c3.5-5.8,7.56-14,15.7-30.4,1.22-2.46,3.9-7.9,6.82-15.3,2.42-6.16,3.64-9.33,4.29-13.62.53-3.61,1.45-9.79-.89-16.32-4-11.28-15-16-17.61-17.1,0,0-10.59-4.51-25.38-.88a23.65,23.65,0,0,0-8,3.29c-3.83,2.59-5.78,5.76-6.09,5.53s1.16-3.58,4-6.58c3.23-3.4,6.8-4.8,11.85-6.75a85.24,85.24,0,0,1,10.65-3.14,42,42,0,0,1,7.85-1.49c1.78-.13,2.8-.06,5.78-.31a40.63,40.63,0,0,0,4.89-.59,23,23,0,0,0,6.07-2.26,38.29,38.29,0,0,0,10.21-7.95A86,86,0,0,0,1611,939.32a117.79,117.79,0,0,0,9.33-18.74,267.39,267.39,0,0,0,13-46.28c7.31-42.46,5.36-77.47,3.56-107.27a226.11,226.11,0,0,0-9.49-47.92c-2.24-7.27-6.19-18.55-16.36-27.12a27.72,27.72,0,0,0-7.32-5c-11.64-5-24.13,1.57-39.11,9.43-7.13,3.75-17.78,9.47-28.65,20.7-5.12,5.26-11.09,11.42-15.64,21.56a70.21,70.21,0,0,0-5.93,25.17c-.33,9.24,1.64,10.73.46,20.22a88.77,88.77,0,0,1-4.17,17.08c-1.92,6.07-4.47,12.44-5,12.28s1-4.8,1.93-12.43a111.2,111.2,0,0,0,.58-14.23c0-7.25-.46-9.13-.5-19.19a47.84,47.84,0,0,1,.64-9.87,46.14,46.14,0,0,1,3-9.29,80.19,80.19,0,0,1,5.92-11.39c13.07-22.32,10.3-21.59,14.19-26.68a13,13,0,0,0,2.84-6.58,7.74,7.74,0,0,0-.75-4.78c-1.67-3-5.24-3.54-5.63-3.6-2.82-.42-4.37,1-9.76,3.29-2.49,1.07-5.05,1.86-7.58,2.85,0,0-9.08,3.54-19.08,6.58-5,1.51-12.16,2.47-26.37,4.36-5,.65-4.83.58-34.83,3.89-7.79.86-10.69,1.18-15.25,1.2-4.74,0-6.42-.32-10.79.15a39,39,0,0,0-11.87,2.85,28.1,28.1,0,0,0-6.36,3.6c-2.69,2-4.14,4-8,9.28-4,5.58-6.07,8.36-6.67,9.26-5.22,8-5.94,11-11.1,17.86-1.78,2.37-4.52,5.78-4.89,5.55s1.35-2.83,3.27-7.06a67.55,67.55,0,0,0,4.73-14.08c.37-1.8,0-.48,1.32-10.48.73-5.34.87-6.22.77-7.94a19.56,19.56,0,0,0-3.57-9.89c-2.54-3.42-6-5-13-8.09a64.45,64.45,0,0,0-6.81-2.7c-11.21-3.59-21-2.33-21-2.54s5.18-.31,11.85-.61c6-.25,6.24-.33,8.16-.29a41.29,41.29,0,0,1,11.56,1.49c3.3,1,3.15,1.57,11.25,5.55,5.14,2.54,7.71,3.79,9.76,4.34a44,44,0,0,0,13.49,1c2.54-.11,4.62-.36,6.67-.61,5.76-.67,6.42-1.22,10.21-1.32,2.59-.11,2.94.1,6.65,0,1.35-.06,1.88-.11,5.34-.32,2.78-.16,5-.27,5.49-.31,4.25-.21,7.79-.13,12.58,0,8.91.25,8,.57,11.68.42,2.86-.11,2.66-.27,10.84-1,5.8-.5,6.19-.48,8.82-.77s5.35-.78,10.09-1.8c5.06-1.09,10.92-2.35,17.67-4.38a142.69,142.69,0,0,0,25.22-10A165.58,165.58,0,0,0,1549.43,673c.81-.71,3.83-3.52,9.9-9.1,7.15-6.6,8.58-7.94,10.45-9.78,5.51-5.43,8.24-8.15,10.21-10.9a52.43,52.43,0,0,0,8-17.52,62.28,62.28,0,0,0,2-15.17,85.25,85.25,0,0,0-1-14.6,121.43,121.43,0,0,0-5.8-24.29,97.82,97.82,0,0,0-9.55-20.18c-1.16-1.86-1.89-2.83-3.77-5.89-4-6.43-6.3-11.06-8-14.24-3.27-6.23-5.92-10.42-11.23-18.78-1.28-2.07-5.9-9.32-13.52-20-2-2.77-13.78-19.22-27.12-35.06-27.82-33.06-59.46-60-63.54-63.49,0,0-48.54-41.09-106.94-71-22.41-11.49-46.49-22.17-46.49-22.17-12.82-5.68-13-5.35-23.41-10.19-10.09-4.65-15.1-7.33-24-10.18a89.85,89.85,0,0,0-15.39-3.9s-15.87-2.39-35.84,3.59c-5.53,1.65-8.72,3.33-11,6.3-1.37,1.78-2.61,4.36-3,4.19s.35-1.63.58-4.19a29.11,29.11,0,0,0,0-3.89c-.21-3-3.07-13-8-19.49-11.29-14.82-40-23.66-40-23.66-39.24-13.22-71.39-16.2-71.39-16.2-25.73-3.92-45.79-6-85.91-10.16-22.07-2.3-31.74-3.08-43.26-3.6-13.65-.61-26.19-.46-51.23-.15-17.09.21-30.64.61-46.8,2.24-5,.5-11.21,1.24-19,2.7A145,145,0,0,0,788,221.72c-8.31,3.22-12.43,4.88-17.18,8.69-3.21,2.56-11.1,9.07-13.65,20.08a30.92,30.92,0,0,0-.27,14.37c.75,3.23,1.76,4.82,2.65,9.6a62.14,62.14,0,0,1,.9,9c.41,8,.62,12,.6,15.57-.09,10.18-.13,17.35-2.68,26.36a76.67,76.67,0,0,1-7.7,17.68c-4.27,7.65-7.25,10.54-8.89,12-4.19,3.66-8.87,5.84-9.18,5.38s3.65-3,7.4-7.77c.95-1.22,3.73-4.88,6.81-13.5a85,85,0,0,0,5.64-30c0-7.84-1.16-13.73-2.36-20.07a153.66,153.66,0,0,0-4.75-18c-2.84-8.78-4.22-13.18-6.81-17.08a40.27,40.27,0,0,0-14.24-12.91c-10.66-5.82-21.64-4.92-33.74-3.29a392.22,392.22,0,0,0-59.85,12.89c-15.29,4.78-31.08,10.35-48,17.08C559.86,277,541.6,284.22,519,296.92c-25.31,14.23-51.54,31.16-51.54,31.16-6.92,4.48-6.82,4.53-7.69,4.8C420.37,344.82,356.23,196.7,332.57,170.13c-1-1.07-9.17-10.19-6.73-14.63.54-1,1.57-1.66,3.56-3a31.36,31.36,0,0,1,7.13-3.58c4.52-1.68,6.94-3.92,12.14-7.5s7.69-4.7,29.6-17.08c22.73-12.82,20-11.57,25.78-14.67,6.81-3.64,16.18-8.36,44.74-20.07,21.94-9,32.92-13.54,47.09-18.59a751.42,751.42,0,0,1,78.5-22.78c23.89-5.63,42.9-8.82,80-15,46.73-7.75,70.1-11.63,104-15.27,21.78-2.35,56.89-5.58,100.42-6.9,14.64-.44,53.49-1.38,103.08.9,7.19.34,54.94,2.58,83.84,6.9,2.78.42,12.06,1.84,25.18,3.58,12.65,1.7,16.49,2,25.46,3.31,12.38,1.74,21.35,3.4,29,4.8,46.74,8.51,46.82,7.9,64,11.38,33.58,6.79,58.5,14.18,82.32,21.27,17.41,5.17,38.64,11.5,66.36,21.87,5.51,2.06,28.86,10.84,59.27,24.58,14.42,6.52,30.22,13.64,50.63,24.56a742.7,742.7,0,0,1,65.78,39.86c8.35,5.55,23,15.54,40.83,28.91,6.71,5,17.07,12.81,29.67,23.22,24.36,20.1,41.55,37.13,52.41,47.94,17.63,17.5,31.88,33.2,42.36,45.24A906.92,906.92,0,0,1,1807.56,513c9.33,19.07,19.23,39.35,29.63,68.31A600.36,600.36,0,0,1,1864.74,690a633,633,0,0,1,7.42,86.29c1.16,48-2.82,85-5.35,107.58-3,27.29-6.59,47.65-8.88,60.81a1031,1031,0,0,1-25.47,110.56c-7.25,24.49-15.41,51.71-30.51,86.6a621.93,621.93,0,0,1-46.51,87.8,614.91,614.91,0,0,1-39.69,54.52c-9.82,12.26-40.36,49.64-88.59,93.77-23.66,21.67-53.9,49.33-98.94,78.81a657.22,657.22,0,0,1-161.14,76.72c-65.23,20.51-117.32,25.39-132.73,26.65-17,1.4-91,6.71-164.68-10.77a520.2,520.2,0,0,1-62.5-19.49c-18.91-7.37-29.87-11.65-44.15-20.07-9.19-5.45-37.1-21.92-62.19-50.65-5.07-5.78-11.1-13.33-21.94-21.56-7.5-5.72-16.84-12.7-30.49-15.88-8.43-2-17.28-2.23-23.7-2.39-7.21-.21-7.85.25-15.1,0-10-.36-14.42-1.43-23.72-2.41-10.71-1.11-14.69-.74-25.17-1.2-9.7-.44-18-1.28-40.59-4.48-34.31-4.9-71.18-10.16-104-17.69-17.34-4-34.35-8.61-34.35-8.61s-7.21-2-13.06-3.67c-34.55-10-72.88-28.77-72.88-28.77-23-11.23-40.25-19.65-59.23-33.54-69.5-50.9-97.34-127.76-101.9-144.42-3.71-13.47-8.08-26.72-11.87-40.15-2.43-8.65-3.05-11.15-5-15.3-7.39-15.57-19.39-24.28-24.88-28.16-1.84-1.32-5.76-4-22.52-11.69-26.47-12.18-34.18-13.54-50.05-22.17a216.7,216.7,0,0,1-24.3-15.57c-43.32-31-76.73-79.46-86.49-93.77A504.45,504.45,0,0,1,62.51,862,490.72,490.72,0,0,1,27.25,729c-9.14-76.67,2.26-135.72,8.6-167.2C48.67,498,69.51,451.37,82.36,423.07c14.52-32,26.58-52.08,29.91-57.54,19.66-32.23,38.51-54.53,56-75.19,14.4-17,22.15-26.11,33.75-36.25,15.52-13.57,15.3-11.53,24.59-21.58C234.7,223.74,238.39,217.69,244.69,217.52Z" transform="translate(-23.84 -10.51)"/><polygon class="cls-2" points="954.22 910.59 1269.82 1231.9 1344.9 1146.26 1387.9 1237.03 1583.22 1608.64 1692.36 1461.68 1947.42 1843.2 1957.12 1831.13 1763.91 1230.37 1609.49 1425.39 1450.35 895.52 1323.33 1041.05 1179.49 791.84 954.22 910.59"/><path class="cls-2" d="M541.72,420.07c-.13,2-17.42-.7-40.42,5.84-12.51,3.54-35.67,10.44-46.2,30-4.31,8-4.85,15.57-5.76,25.86-1.34,15.23-2.42,27.47,4.13,35.47,9.55,11.65,23.41-.29,46.19,10.42,15.52,7.31,14.59,15.46,39.59,30,14.53,8.48,20.55,9,23.08,9.19,18.25.91,33.63-12.8,34.23-13.34,4.49-4.11,7-8,7.83-7.53,1.22.78-2,11.65-9.06,19.2-15,16.17-38,14.41-40.41,14.18-11.13-1-20.35-6.53-38.77-17.51s-17.07-13.08-26.39-16.7c-2.69-1-25.31-9.37-49.49.83-6.53,2.77-21.59,9.12-25.59,22.53-2,6.77.4,9.95,1.66,21.71.71,6.64,2.8,25.9-3.29,39.2-10.73,23.41-47.61,28.12-47.86,27.54-.1-.32,8.5-2.89,19.39-11.25,5.35-4.11,10.09-7.78,13.61-13.79,3.34-5.7,4.91-12.39,4.54-24.21-.89-28.77-11.56-32.47-7.83-44.21,5.37-16.91,28.88-13.26,37.12-34.2,1.56-4,1.31-5.55,1.64-25,.54-28.64.79-42.95,1.66-45.87,8.06-27.07,44.15-42.18,70.1-44.23,19.29-1.53,36.42,3.9,36.3,5.85" transform="translate(-23.84 -10.51)"/><path class="cls-2" d="M352.65,711.65c1.69-.27,1.71,15.23,12.09,27.39,1.54,1.78,12.08,14.12,25.63,13.45,10.5-.5,12.33-6.41,37.39-25.77,2.72-2.14,8.21-5.43,15.29-11,6.65-5.24,10-7.84,12.23-10.44,9.48-10.85,9.48-20.95,17.81-28.06a40.77,40.77,0,0,1,6.2-4.08c16.92-9,23.22-1,69.52-2.89,23.1-.93,41.5-1.79,64.12-9.2,20-6.56,42.26-14.23,57.12-36.8,3.31-5.07,12.45-19.28,12.92-39.12.69-26.74-14.77-46.52-21.54-55.22-18.85-24.16-32.55-21.16-42-43.12-7.35-17-5.44-33.36-4.84-38,.53-4.13,2.86-19.55,16.69-38.53,25.88-35.5,66.71-48.81,67.91-46.59.46.84-6.44,4.28-19.41,15.53-21.59,18.76-47,40.8-47.42,69.59a58.07,58.07,0,0,0,7.54,28.56c8.12,14.63,19.45,19.22,28,25.69,22.29,16.83,32.15,50.67,31.8,74-.7,47.74-44.58,82.44-75.26,95.47-15.66,6.64-29.21,8.24-42.22,9.79-49.35,5.8-71.29-10.61-95.36,5.74-7.67,5.17-7.44,8.86-11.73,16.07-2.67,4.48-5.22,7.88-11.29,14-17.67,18-42.24,19.09-49.49,37.7-2.71,6.93.79,6.26-2.59,25.54-2.94,16.85-6.17,20.18-4,25.67,5.26,13.07,30.52,11,30.46,15.21-.05,2.58-9.53,5.93-18.61,4.32-10.19-1.8-20.88-10-24-21.27-4.39-16.05,9.06-29.76,3.19-36.57-2.69-3.14-6-.73-13.67-2.3-15.31-3.14-27.06-18-31.59-31.45-3.94-11.61-2.34-23.14-.91-23.39" transform="translate(-23.84 -10.51)"/><path class="cls-2" d="M744.36,483.7c2.3-.84-7.83-18.46-.83-34.2,5.18-11.63,17.11-16.4,29.3-21.27,7.41-3,38.53-15.42,62.66-1.69,6.47,3.69,12,8.94,14.46,7.1,2.9-2.16-3.1-10.52-3.1-20.66,0-22,28.5-38.85,36.5-43.59,14.81-8.75,27.84-11.67,43.61-15.23,29.93-6.7,40.42-2.79,55.79-14,9.69-7.07,7-20,16.9-23.79,8.14-3.08,16.41,1.3,16.6.63s-11.63-8.13-23.19-5.22c-10.42,2.64-11,14.32-20.63,19.2-21.79,11-35.4,5.59-62.27,12.51-18.63,4.8-51.36,13.2-62.38,37.55-3.73,8.25-4.95,18.29-13.28,21.89-6.61,2.85-12-.75-19.81-2.51-27.05-6-53.34,16.47-59.18,21.5-9.16,7.84-22.25,19-22.71,35.45-.37,14.69,9.57,27,11.56,26.28" transform="translate(-23.84 -10.51)"/><path class="cls-2" d="M1168.3,308.47c2,1,2.48,3.81,2.54,4.27,1.23,7.88-12.57,10.41-20.3,25-4.41,8.34-6.27,19.53-2,26.65a11,11,0,0,0,1,1.53c2,2.39,5.82,4.27,17.54,8.51,16.83,6,25.24,9.07,34.46,10.41,16.2,2.39,26.41.34,26.6,1.68.18,1.53-13.1,7-28.88,6.66s-20.53-5.93-44.13-8.76c-7.42-.88-12.93-1-19.39-1.23a279.5,279.5,0,0,0-40.83,1.65C1049.53,390.56,1019,414,1019,414c-22.17,17-48.06,47.74-48.87,72.8-.12,4.44-.12,28.7-1,39.83a71.3,71.3,0,0,0-.41,10.44c.31,6.12,1.37,7.75.41,9.59-1.74,3.42-10,3-19,2.5-15-.84-22.48-1.24-27.78-1.09-8.21.21-14.75,2.18-27.49,6.1-23.68,7.27-47.09,14.77-69.3,36.29-1.56,1.51-2.61,2.6-3.71,3.75-27.43,28.56-37.79,57.64-39.92,64-6.78,19.89-8,36.57-8.66,46.31-1,14.67-1.82,23.72,0,36.29,1.7,11.78,5.34,25.11,4.12,44.66-.45,6.83-1.16,9.28-2.17,9.43-2.82.42-7.75-17.75-10.69-28.79-6.51-24.37-9.76-36.57-10.65-48.64-2.09-28.33,7.71-50.35,17.07-71.31,9.88-22.14,29.48-65.79,74.41-91.55,22-12.59,44.92-18,56.52-20,13.92-2.43,20.9-3.64,28.09-2.72,9.32,1.19,15.83,4.29,20.55.63,3.17-2.41,4.08-6.52,4.41-12.51,1.37-24.48-1.18-34.68,1.39-47.55,1.41-7.19,3.77-11.84,7.63-19.4,13.84-27.28,35.46-42.83,41.45-46.92,23.74-16.26,57.74-27.51,83.51-30.68,13.51-1.65,18.64-3.68,21.48-5.51a42.94,42.94,0,0,0,4.29-3c11.46-9.32,17.67-23.78,27.49-37,7-9.39,20.31-24.25,26.13-21.37" transform="translate(-23.84 -10.51)"/><path class="cls-2" d="M910.44,624.86c.54.95,6.36-1.61,7.09-1.92,7-3.09,9.9-6.9,12.7-8.93,13.69-9.79,42.59,10.83,44.95,12.53,5,3.56,9.16,7.54,11.15,13.35a24.2,24.2,0,0,1,.81,11.67c-1.06,7.1-4.69,34.13,0,54.65,2.54,11.17,7.31,19,11.14,25.46s9.41,15.44,19.79,22.92c7.89,5.68,18.14,9,19.41,7.08,1.37-2.11-9.49-9.17-18.09-20.68-12.9-17.24-14.67-36.27-15.74-48.13-.6-6.64-2.86-33.38,17.32-75.92,13.69-28.89,35.69-75.31,87.44-104.71,32.9-18.71,62.59-21.87,96.09-25.43,21.33-2.29,55.72-5.64,97.74,5.4,18.48,4.86,40.6,10.69,63.93,28.37,11.5,8.72,38.1,29.51,49.08,66.74,8.86,30.07,7.14,69.51-8.19,80.26-1.8,1.28-7.25,4.55-6.67,6.1.67,1.73,8.93,1.55,15.66-1.66,19-9.11,18.28-47.67,18.17-53.39-.76-40.67-23.39-70.18-32.19-81.37-23.08-29.29-50.24-42.35-62.25-48-20.55-9.6-37.54-12.85-52.4-15.44-14.46-2.52-48-7.23-92.79-1.24-36.91,4.94-76,10.16-115.06,38.79-1.28.94-30.18,22.61-50.59,54.37-10.89,16.93-16.3,25.42-18.7,36.57-1.58,7.39-1.39,12.23-4.94,14.18-7.35,4-16.18-12.82-36.31-15.86-14.67-2.2-27,2.85-32.17,5-15.27,6.31-27.29,17.68-26.38,19.19" transform="translate(-23.84 -10.51)"/><path class="cls-2" d="M690.27,1051.66c-3.9-1.24-7-7.76-6.34-12.89.37-2.81,1.78-4.84,2.8-11.27.51-3.38.27-3.63.12-3.69-1.1-.5-6.59,7.14-9.59,15.63-5.37,15.3-.83,20.7-6.59,26.8-4.95,5.22-11.25,4.42-14.87,11.65a21.78,21.78,0,0,0-1.72,6.29c-2.8,14.58,2,34.89,4.22,34.61,2-.21-3.77-16.09,4.62-32.16,6.61-12.72,19.06-19.76,30-25.94,8.33-4.76,13.16-7.48,20.41-9.1,21.65-4.82,29.58,8.22,52.1,3.82a48.19,48.19,0,0,0,21.83-10.08c2.39-2,12.12-10.37,13.33-22.61.33-3.17.22-8.24-1.23-8.61-1.28-.34-3,2.95-4.7,5.72a71.34,71.34,0,0,1-16.39,17.07,55.2,55.2,0,0,1-19.78,9.08c-24.09,5.3-36.59-12.85-52.35-4.76-8.08,4.13-11,12-15.87,10.44" transform="translate(-23.84 -10.51)"/><path class="cls-2" d="M862.52,957.62c5.15-19.15,13.57-29.67,12.55-30.66s-12.2,9.22-19.52,25.44c-2.79,6.25-13.11,29.21-6.6,51.53,6.09,20.93,21,20.91,25.6,43.79,1.6,8.09,1,14.54,0,25-2.15,23-7.93,25.15-9.92,43.8-.4,3.58-3.54,36,11.48,50.69,5,4.88,11.33,6.85,12,5.61.93-1.63-9.34-7-13.17-20.07-2-6.69-1.77-13.85-1.45-27.47.08-3.5-.15-6.4.41-9.1,2.18-10.54,10.11-15.44,13.18-34.09,4.26-25.9-6.92-39.6,1-49.41,3.44-4.23,10.86-5.11,25.63-6.87a174.13,174.13,0,0,1,21.94-1.28c29.31.21,44.31.4,59.93,4.59,13.26,3.58,21,7.73,26.48,15.86,1.12,1.68,7.25,10.85,4.8,17.94-2,5.82-8.64,6.78-8.3,8.75s7.5,3.78,11.85,0c5.73-5,4.68-18.08,2.44-25.85-4-13.85-14.56-20.56-19.52-23.79-2.21-1.44-9.38-5.86-29.6-8.34-4.41-.54-11.95-1.3-37.64-.83-22.15.37-33.21.58-37.6.83-15.21.86-19,1.7-25.79-.83-3.53-1.32-17-6.33-22.32-20.85-4.1-11.34-1.07-22.59,2.1-34.43" transform="translate(-23.84 -10.51)"/><path class="cls-2" d="M1291.39,585.17c1.76,1.26-24.61,31.26-36.63,80.25a214.83,214.83,0,0,0-4.18,79.46c3,21.67,11.49,82.21,56.12,112.23,24.44,16.41,55.54,20.87,69.42,22.84.5.09,10.63.78,30.83,2.16,18.12,1.24,22.18,1.78,25.56-1.59,6.63-6.71,6-23.81-.93-31.6-1.7-1.93-4.23-3.79-6.63-8.15-2.2-3.94-4.33-9.95-3.13-10.81,2.26-1.64,20.93,12.13,26.89,34,5.53,20.34-1.2,42.47-14.31,55.38-12.62,12.4-30.62,14.48-31.45,12.63-.66-1.46,8.22-8,11.5-10.41,4.66-3.44,5.65-3.58,7.72-5.83.75-.79,7.88-8.67,6.07-14-1.41-4.17-7.83-5-44.56-8.45-9-.81-8.28-.79-10.23-.94a336.4,336.4,0,0,1-43.92-6.27c-16.68-3.66-40.13-14-58.86-34.23-19.12-20.73-25.48-43.38-29.62-58.07-7.59-27-6.47-48.57-5.72-67.81.66-17.1,2.15-47.73,16.59-82,15.23-36.26,37.89-59.93,39.47-58.8" transform="translate(-23.84 -10.51)"/></svg>