<svg id="Layer_1" data-name="Layer 1" xmlns="http://www.w3.org/2000/svg" viewBox="0 0 1967.45 1832.95"><defs><style>.cls-1{fill:#8b1d40;}.cls-2{fill:#ffc628;}</style></defs><title>Q_Maroon with Gold Fill and White Background_Digital</title><path class="cls-1" d="M115.8,351.77C171,268.48,241.71,214.23,277.48,187.29A784.69,784.69,0,0,1,437.78,93.9c85.78-37.07,154.89-48.47,232.77-61.33a1361.51,1361.51,0,0,1,204.9-18.12c112.16-1.37,197.06,11.6,220.22,15.34,100.82,16.27,311.78,50.32,496.52,211.47,28,24.45,90.85,82.71,150.23,173.23C1770,456.53,1822.5,537,1847,641.69c54.51,233.32-54.19,485.78-54.18,485.77s-56.17,117.32-146.33,207.17c-20.59,20.51-76.1,73.4-161.13,121.67-34,19.28-82.8,46.57-152.91,65.76-97.59,26.72-176.07,21.2-194,19.73-111.89-9.17-192.4-51-212.9-70.82-13.22-12.79-28-24-40.3-37.69-9-9.91-14.66-15.52-24.28-21-17.4-10-34.52-10.06-39.84-10.21-297.75-8.4-396.24-105.22-396.25-105.23-24.86-24.44-90-101.42-103.58-162.77-2.06-9.3-5.73-30.8-23-47.68-11.8-11.53-22.13-13.93-55.9-29.59-14-6.5-27.39-14.28-41.1-21.38C171.28,1019.9,80.53,937,40.1,803.57-28.71,576.4,100.42,375,115.8,351.77Z" transform="translate(-20.05 -14.35)"/><path class="cls-2" d="M425.79,357.23c-44.84,35.52-128.11,123-157.22,253.4-9,40.22-17.85,83.71-2.47,135.65,15,50.48,45.47,82.9,55.86,93.77,8.58,9,23.18,24,46.08,36.94,12.46,7,24.75,12,34.94,16,13.43,5.37,21.18,8.48,32.47,11.1,17.95,4.16,32.22,4.17,42.75,4.11,14.58-.09,23.23-.13,34.53-3.5,10.87-3.23,13.39-6.32,27.13-12.33,2.78-1.22,12.33-5.31,34.52-11.3,42.9-11.58,64.35-17.37,86.32-15.83,31.92,2.24,54.26,9.25,54.26,9.25,13.14,4.16,17.6,7.13,24.66,4.93,17.5-5.45,33.14-30.44,28.24-45.65a39.39,39.39,0,0,1-2.76-14.16c0-5.12,1.26-9.09,3.81-12,1.62-1.86,3.61-3.11,4-2.77s-1.74,2.79-2.2,6.73a13.8,13.8,0,0,0,.21,4.11c1.46,8.31,5.29,14.32,6.82,23.21.92,5.35,0,5.66.93,6.74,4,4.45,18.55-1.78,55.28-21.06,37-19.43,34.47-19.51,40.9-21.24,29.2-7.84,40,5,59.6-6.51,8.47-5,25.15-18.31,28.36-21a66.94,66.94,0,0,0,6.61-5.83c3-3.29,4.36-5.78,5.4-5.42s1,3.09.78,4.78A12.32,12.32,0,0,1,973.3,775c-7.16,9.52-18.21,19.25-17.24,23.71,1.22,5.65,22.58,6.88,42.58,4.89,15.53-1.55,35.28-3.52,57.9-16,19.44-10.7,42.66-30,45.62-46.86.65-3.69,2.72-21,0-26.93-.2-.44-1.29-2.69-.62-3.28s3.24,1.05,3.5,1.23c4.22,2.91,5.52,8.67,6,11.3a63.28,63.28,0,0,1-4.73,35.56c-11.3,22.4-29.24,24.42-28,34.94a13.28,13.28,0,0,0,.41,1.61c2,7.45,5.72,21.34,17.18,29.21a33.23,33.23,0,0,0,12.7,5.56c5.09,1,9.25.43,9.52,1.58.14.59-.78,1.71-6.05,4.07a30,30,0,0,1-18.16-1.29,29.21,29.21,0,0,1-10.31-7.14c-5.94-12.43-12.29-20.34-14.41-21.09a31.91,31.91,0,0,0-3.11-.9,27.72,27.72,0,0,0-2.76-.49c-10.86-1.32-21.9,2.34-21.9,2.34-3.44,1.16-28.74,9.71-39.48,12.2-3.54.82-22-1.35-58.86-5.73,0,0-24.63-2.63-44.77.34a69.17,69.17,0,0,0-9.49,2.13c-9.11,2.65-13.36,5.27-30.83,14.8-59.87,32.64-66.41,32.62-81.38,47.47S753.36,901.28,750.93,914a71.25,71.25,0,0,1-8,23.64c-.72,1.27-6.36,11.17-8.84,10.27-.43-.15-2.56-1.11,0-16,2.76-16.06,4.58-27.69,0-35.14-1.88-3.08-5.11-5.43-22.19-9.25-17.38-3.89-26.07-5.84-40.69-6.17-20.07-.45-48.48-1.09-81.39,12.33-20.53,8.38-55.16,22.72-69.67,58-6.61,16-6.39,30.13-6.17,38.84.88,34.43,17.62,59.17,37.48,87.71,15.08,21.68,30.5,43.85,56.24,64,52.66,41.16,111.16,44.07,173.25,48.09,48.34,3.13,98.59,6.38,136.88-14.8,6.13-3.39,21.24-12.54,43.78-17.26,19.07-4,33.61-2.91,53-1.23,54.91,4.73,77.15,19.66,105.64,7,5-2.23,12.82-6.61,13.35-5.75.71,1.13-11,11.64-24.86,18.08-4.81,2.24-19.9,8.63-51,6.58-36.76-2.42-47.13-13.44-54.26-7.4-12,10.18,0,56.21,28.36,87.55,40.64,44.91,103.75,46.91,140,48.1,69.66,2.28,121.55-21.58,142.5-31.5,32-15.18,54-32.14,85-56.06,39.81-30.71,63-55.74,73.71-67.9,6.33-7.18,12-14,16.93-20.26,61.33-64.9,70.07-84.16,87.55-122.7,3.51-7.74,9.44-22.4,3.08-33.29-3.46-5.94-9.63-9.14-11.1-9.87a33.3,33.3,0,0,0-21.58-2.46c-2.79.6-9.35,2-14.73,7.29-5.13,5.05-5.92,10.41-7.14,10.12-1.61-.38-3.17-10.3,1.53-18,5.84-9.62,19.39-12.35,27.13-14.18,11.73-2.78,14.1-1.34,19.73-3.09,4.88-1.51,18.9-7.17,32.67-39.45,10.22-23.95,12.81-44.87,14.8-70.29,5.95-75.83.51-112.65-13-136.88-5-9.1-11.26-16.46-20.14-18.7-3-.76-10.75-2.06-28.57,8.22-16,9.21-42.76,25-49.46,53.28-2.71,11.45,1.15,11.16-2,35.54,0,0-2.83,21.9-15.26,36.29-1.12,1.29-2.65,2.91-3.56,2.52-2.21-.95,2.87-12.46,4.31-25.69,2.92-26.8-3.12-33.93,3-51.32,1.09-3.13,4.06-8.68,10-19.79,10.62-20,15.66-26.26,13.56-28.78-2.31-2.78-10.4,2.6-25.89,7.81-16.93,5.7-30.75,7.19-53.85,9.66-21.86,2.35-32.79,3.52-35.55,3.5-8.26-.07-16.11-.77-23.84,4.11-2.79,1.76-4.82,3.77-10.23,11.25-13.94,19.27-13.59,24-21.73,31-2.65,2.28-12.36,10.35-22.5,8.17-4.43-.95-8.48-3.76-8.31-4.19s3.84,1.81,8.78,1.52c7.32-.43,12.36-6,13.26-7.09,1-1.24,2.51-3.22,4.93-8.94,2.53-5.94,5.62-13.4,6.48-23.74.52-6.33.74-9.56-1.1-12.89-2.19-4-5.76-5.67-11.51-8.23a57.91,57.91,0,0,0-21.37-4.93,41.24,41.24,0,0,0-16.44,2.47c-11.24,4.24-16.26,12.43-17,11.83s4.76-13.34,17-19.33c6-2.93,11.51-3.43,22.19-4,7.48-.41,11.65-.63,17,.31,9.87,1.75,13.61,5.95,20.65,8.94,9.31,3.94,16.06,2.41,32.27,1,35.23-3,32.68,1.71,59-2,10.48-1.46,23.72-3.4,40.08-9.55a139.53,139.53,0,0,0,28.67-14.49c2.62-1.77,7.66-5.3,18.5-15.11,17.62-15.94,26.43-23.9,29.9-30.21,10.69-19.44,5.53-41.35,2.77-53-2.31-9.83-5.83-18.29-19.11-40.7-13.44-22.69-21.82-36.84-36.68-56.41-44.92-59.16-95.17-97-104.51-103.89a539,539,0,0,0-87.86-53s-18.87-11.21-82.31-37.61c-6-2.5-18.41-7.49-34.22-6.16-5.11.43-27.37,1.07-31.75,12-1.49,3.72-1,8.84-4.59,10.65-1.54.79-4,1-5.28-.17-2.74-2.57,2.78-9.29,2.78-17.57,0,0-.37-9.3-8-19.73-21-28.66-119.61-39.77-119.61-39.77-52.59-3.75-78.41-10.29-114.37-10.48-39.25-.21-42.41,3.49-80.88,1.75-15.29-.7-25.45-1.76-40.28,1.64-11.25,2.58-42.62,9.79-50.56,31.14-5.12,13.79,4.44,18.27,2.88,53.54-.45,10.29-1.68,18.89-4.86,28.1-2.69,7.8-6.46,18.3-16.45,26.31a40.86,40.86,0,0,1-16.71,8c-4.69,1-10.17,1.25-10.48.1s5.64-2.7,12.19-8.17a45.22,45.22,0,0,0,8.63-9.86,65.15,65.15,0,0,0,9.21-21c3.93-15.92,1.12-29.47-.44-36.61-3.13-14.33-7.65-34.86-23.43-44.39-10.27-6.21-21.48-5.32-38.22-2.47-54,9.21-97.36,27.26-119.62,37-19.41,8.49-32.52,14.23-50.55,23.84C507.79,304,462.54,328.12,425.79,357.23Z" transform="translate(-20.05 -14.35)"/><path class="cls-1" d="M550.54,424.84c-.11,1.93-17.35-.69-40.28,5.76-12.45,3.5-35.55,10.29-46,29.59-4.29,7.89-4.85,15.33-5.76,25.49-1.34,15-2.41,27.06,4.11,34.94,9.53,11.49,23.34-.3,46,10.27,15.47,7.21,14.54,15.23,39.46,29.6,14.49,8.35,20.5,8.92,23,9,18.17.89,33.5-12.6,34.11-13.15,4.48-4,7-7.91,7.81-7.4,1.2.77-2.06,11.48-9,18.91-15,15.92-37.83,14.19-40.28,14-11.1-1-20.28-6.43-38.64-17.26s-17-12.88-26.31-16.44c-2.68-1-25.23-9.23-49.32.82-6.5,2.71-21.52,9-25.49,22.19-2,6.66.39,9.81,1.65,21.38.71,6.56,2.78,25.53-3.29,38.64-10.68,23.06-47.44,27.71-47.68,27.12-.12-.29,8.44-2.83,19.32-11.09,5.32-4.05,10.06-7.65,13.56-13.57,3.33-5.62,4.89-12.21,4.52-23.84-.89-28.35-11.52-32-7.81-43.57,5.36-16.67,28.78-13.08,37-33.7,1.56-3.93,1.29-5.48,1.64-24.67.52-28.23.78-42.35,1.65-45.21,8-26.67,44-41.55,69.87-43.57C533.59,417.59,550.66,422.91,550.54,424.84Z" transform="translate(-20.05 -14.35)"/><path class="cls-1" d="M353.68,706.23c1.69-.28,1.7,15,12.05,27,1.52,1.75,12,13.92,25.54,13.27,10.47-.51,12.27-6.33,37.25-25.42,2.73-2.08,8.2-5.33,15.26-10.82,6.62-5.15,9.93-7.73,12.18-10.28,9.45-10.72,9.46-20.65,17.75-27.65a40.65,40.65,0,0,1,6.18-4c16.86-8.83,23.15-1,69.28-2.83,23-.9,41.36-1.75,63.91-9.07,19.91-6.46,42.11-14,56.93-36.27,3.32-5,12.4-19,12.89-38.54.66-26.34-14.73-45.84-21.48-54.4-18.79-23.81-32.43-20.86-41.89-42.5-7.33-16.75-5.43-32.86-4.84-37.41.53-4.07,2.86-19.26,16.65-38,25.8-35,66.48-48.1,67.67-45.91.45.83-6.41,4.21-19.33,15.3-21.53,18.48-46.82,40.19-47.27,68.57-.22,14.07,5.75,25,7.52,28.15,8.09,14.41,19.37,18.92,27.93,25.31,22.2,16.57,32,49.93,31.69,72.92-.7,47-44.44,81.22-75,94.07-15.59,6.56-29.1,8.13-42.07,9.64-49.2,5.72-71.06-10.44-95.06,5.66-7.61,5.11-7.4,8.73-11.67,15.83-2.67,4.44-5.2,7.76-11.25,13.83-17.63,17.72-42.11,18.82-49.35,37.17-2.69,6.83.8,6.17-2.56,25.17-2.94,16.59-6.17,19.86-4,25.27,5.25,12.89,30.4,10.88,30.34,15,0,2.53-9.48,5.83-18.53,4.25-10.16-1.77-20.82-9.88-23.9-21-4.37-15.81,9-29.33,3.17-36-2.7-3.09-6-.71-13.61-2.26-15.27-3.11-27-17.72-31.51-31C350.68,717.81,352.24,706.47,353.68,706.23Z" transform="translate(-20.05 -14.35)"/><path class="cls-1" d="M666.25,1029.89c-3.87-1.2-6.94-7.63-6.3-12.69.35-2.75,1.77-4.76,2.77-11.09.54-3.34.27-3.6.14-3.65-1.09-.47-6.58,7-9.56,15.41-5.36,15.07-.84,20.4-6.57,26.41-4.92,5.15-11.21,4.34-14.82,11.47a21.53,21.53,0,0,0-1.73,6.21c-2.77,14.37,2,34.35,4.22,34.11,2-.21-3.74-15.88,4.59-31.7,6.6-12.54,19-19.49,29.9-25.59,8.32-4.65,13.12-7.35,20.35-8.94,21.58-4.75,29.48,8.08,51.92,3.75a48.15,48.15,0,0,0,21.76-9.91c2.39-2,12.08-10.24,13.29-22.3.31-3.11.23-8.1-1.24-8.48-1.25-.32-2.93,2.91-4.66,5.65a71.25,71.25,0,0,1-16.34,16.8,54.72,54.72,0,0,1-19.72,8.94c-24,5.26-36.45-12.63-52.17-4.67C674,1023.7,671.11,1031.41,666.25,1029.89Z" transform="translate(-20.05 -14.35)"/><path class="cls-1" d="M852.66,936.79c5.14-18.87,13.52-29.24,12.5-30.21s-12.17,9.07-19.44,25.08c-2.8,6.14-13.08,28.76-6.6,50.76,6.07,20.62,21,20.61,25.52,43.16,1.61,8,1,14.32,0,24.66-2.16,22.67-7.89,24.79-9.9,43.16-.38,3.53-3.52,35.42,11.46,49.94,5,4.83,11.29,6.76,12,5.55.92-1.62-9.33-6.89-13.14-19.78-1.94-6.58-1.77-13.66-1.44-27.08.08-3.45-.15-6.29.41-8.94,2.17-10.4,10.08-15.23,13.13-33.6,4.24-25.55-6.91-39,1-48.71,3.43-4.17,10.79-5,25.52-6.78a175.5,175.5,0,0,1,21.88-1.23c29.22.2,44.15.38,59.72,4.52,13.23,3.51,21,7.61,26.39,15.62,1.11,1.65,7.22,10.71,4.78,17.68-2,5.73-8.61,6.67-8.25,8.62s7.47,3.73,11.8,0c5.72-4.92,4.67-17.81,2.43-25.48-4-13.65-14.49-20.24-19.44-23.43-2.22-1.43-9.35-5.79-29.52-8.22-4.39-.53-11.89-1.27-37.5-.82-22.07.38-33.11.57-37.5.82-15.12.84-18.92,1.67-25.69-.82-3.5-1.29-17-6.24-22.22-20.56C846.47,959.53,849.49,948.46,852.66,936.79Z" transform="translate(-20.05 -14.35)"/><path class="cls-1" d="M733.05,486.09c2.29-.83-7.8-18.2-.83-33.71,5.16-11.46,17-16.16,29.19-21,7.4-2.93,38.41-15.19,62.48-1.64,6.41,3.61,11.9,8.8,14.38,7,2.91-2.13-3.09-10.35-3.08-20.34,0-21.73,28.41-38.3,36.38-43,14.76-8.62,27.73-11.5,43.46-15,29.83-6.63,40.28-2.75,55.6-13.77,9.66-6.95,7-19.72,16.85-23.43,8.1-3,16.35,1.28,16.52.62s-11.57-8-23.1-5.14c-10.39,2.59-11,14.12-20.55,18.91-21.72,10.85-35.3,5.52-62.06,12.33-18.57,4.72-51.19,13-62.18,37-3.72,8.14-4.94,18-13.25,21.58-6.56,2.81-11.89-.73-19.73-2.46-27-5.95-53.14,16.22-59,21.16C735,433,722,444,721.54,460.19,721.15,474.66,731.06,486.8,733.05,486.09Z" transform="translate(-20.05 -14.35)"/><path class="cls-1" d="M1162.17,309.75c2,1,2.49,3.77,2.56,4.2,1.2,7.78-12.55,10.27-20.24,24.6-4.41,8.21-6.26,19.25-2,26.28a14.48,14.48,0,0,0,1,1.49c2,2.34,5.8,4.22,17.49,8.38,16.77,6,25.15,8.94,34.32,10.27,16.16,2.36,26.35.33,26.51,1.65.19,1.51-13,6.93-28.77,6.57s-20.46-5.84-44-8.63c-7.39-.88-12.87-1-19.32-1.23A280.72,280.72,0,0,0,1089,385c-45.21,5.69-75.63,28.77-75.63,28.78-22.1,16.76-47.92,47-48.71,71.72-.14,4.37-.13,28.3-1,39.26a66.49,66.49,0,0,0-.41,10.27c.3,6,1.35,7.65.41,9.46-1.75,3.37-9.94,2.95-18.91,2.46-14.92-.81-22.38-1.21-27.67-1.08-8.17.22-14.7,2.15-27.41,6-23.6,7.18-46.91,14.56-69.06,35.78-1.55,1.49-2.59,2.55-3.69,3.68-27.34,28.13-37.66,56.81-39.8,63.05A169.8,169.8,0,0,0,768.46,700c-1,14.44-1.8,23.37,0,35.76,1.7,11.61,5.36,24.73,4.11,44-.43,6.73-1.14,9.16-2.15,9.31-2.82.43-7.72-17.49-10.66-28.38-6.48-24-9.72-36-10.61-47.93-2.1-27.9,7.69-49.61,17-70.25,9.85-21.83,29.38-64.83,74.17-90.21,21.91-12.42,44.75-17.74,56.31-19.73,13.9-2.4,20.85-3.6,28-2.69,9.31,1.19,15.76,4.23,20.49.63,3.15-2.4,4.05-6.42,4.38-12.33,1.37-24.11-1.18-34.19,1.38-46.86,1.43-7.07,3.78-11.66,7.6-19.11,13.79-26.88,35.36-42.22,41.31-46.24,23.68-16,57.56-27.11,83.24-30.22,13.49-1.63,18.59-3.65,21.41-5.43a42.66,42.66,0,0,0,4.28-3c11.41-9.19,17.62-23.45,27.41-36.49C1143.11,321.56,1156.38,306.93,1162.17,309.75Z" transform="translate(-20.05 -14.35)"/><path class="cls-1" d="M896.64,626.25c.56.94,6.34-1.58,7.06-1.9,7-3,9.87-6.8,12.67-8.78,13.65-9.66,42.44,10.66,44.8,12.33,5,3.52,9.13,7.45,11.1,13.15a23.47,23.47,0,0,1,.82,11.51c-1,7-4.68,33.63,0,53.85,2.55,11,7.28,18.77,11.1,25.07s9.38,15.23,19.73,22.61c7.85,5.59,18.09,8.87,19.32,7,1.37-2.1-9.44-9.07-18-20.39-12.87-17-14.6-35.75-15.68-47.43-.61-6.55-2.84-32.88,17.26-74.81,13.65-28.47,35.58-74.19,87.14-103.17,32.79-18.43,62.4-21.55,95.77-25.07,21.26-2.24,55.54-5.55,97.42,5.34,18.41,4.79,40.46,10.52,63.71,27.95,11.46,8.59,38,29.08,48.91,65.77,8.84,29.62,7.12,68.49-8.15,79.07-1.79,1.25-7.22,4.49-6.64,6,.64,1.72,8.9,1.54,15.62-1.64,18.91-9,18.19-47,18.08-52.61-.75-40.08-23.29-69.15-32.06-80.16-23-28.86-50.1-41.74-62.07-47.27-20.48-9.45-37.4-12.65-52.2-15.2-14.42-2.49-47.87-7.14-92.48-1.24-36.81,4.87-75.77,10-114.68,38.23-1.29.93-30.08,22.26-50.42,53.58-10.84,16.69-16.26,25-18.64,36-1.58,7.3-1.38,12.06-4.93,14-7.34,4-16.12-12.63-36.17-15.62-14.62-2.18-26.87,2.82-32.06,4.93C907.71,613.56,895.75,624.76,896.64,626.25Z" transform="translate(-20.05 -14.35)"/><path class="cls-1" d="M1275.14,580.93c1.73,1.23-24.54,30.8-36.49,79.08a209.07,209.07,0,0,0-4.18,78.29c3,21.35,11.45,81,55.93,110.57,24.35,16.18,55.34,20.57,69.18,22.54.5.07,10.58.75,30.72,2.11,18.06,1.23,22.12,1.76,25.47-1.58,6.62-6.6,6-23.44-.93-31.14-1.69-1.89-4.19-3.71-6.6-8-2.18-3.89-4.31-9.81-3.12-10.67,2.27-1.62,20.85,12,26.8,33.52,5.53,20-1.18,41.86-14.25,54.56-12.58,12.23-30.52,14.26-31.36,12.46-.66-1.43,8.21-7.9,11.47-10.28,4.65-3.39,5.64-3.51,7.71-5.73.73-.78,7.85-8.54,6-13.74-1.42-4.11-7.83-5-44.42-8.31-9-.83-8.27-.8-10.2-.94a342,342,0,0,1-43.78-6.18c-16.62-3.61-40-13.76-58.66-33.75-19-20.41-25.39-42.72-29.52-57.19-7.56-26.58-6.45-47.88-5.7-66.83.68-16.84,2.15-47,16.54-80.86C1251,603.15,1273.57,579.81,1275.14,580.93Z" transform="translate(-20.05 -14.35)"/><polygon class="cls-1" points="967.91 914 1282.46 1230.61 1357.3 1146.22 1400.15 1235.67 1594.82 1601.83 1703.57 1457.02 1957.8 1832.95 1967.45 1821.05 1774.89 1229.09 1621 1421.27 1462.39 899.16 1335.81 1042.54 1192.43 796.99 967.91 914"/></svg>