<svg id="Layer_1" data-name="Layer 1" xmlns="http://www.w3.org/2000/svg" xmlns:xlink="http://www.w3.org/1999/xlink" viewBox="0 0 1966.31 1832.11"><defs><style>.cls-1,.cls-3{fill:none;}.cls-2{clip-path:url(#clip-path);}.cls-3{stroke:#8c1d40;stroke-miterlimit:10;stroke-width:8.11px;}.cls-4{fill:#8b1d40;}.cls-5{clip-path:url(#clip-path-2);}</style><clipPath id="clip-path" transform="translate(-17.87 -14.86)"><rect class="cls-1" x="12.6" y="3.7" width="1973.77" height="1846.31"/></clipPath><clipPath id="clip-path-2" transform="translate(-17.87 -14.86)"><rect class="cls-1" x="12.6" y="3.69" width="1973.77" height="1846.31"/></clipPath></defs><title>Q_Maroon with Transparent Fill_Digital</title><g class="cls-2"><path class="cls-3" d="M423.53,357.89c-44.81,35.5-128,122.87-157.12,253.24-9,40.19-17.84,83.65-2.46,135.55,14.94,50.45,45.43,82.84,55.81,93.71,8.58,9,23.17,24,46.06,36.91,12.44,7,24.72,11.94,34.91,16,13.42,5.37,21.16,8.48,32.45,11.09,17.94,4.16,32.19,4.17,42.72,4.11,14.56-.09,23.21-.13,34.5-3.49,10.86-3.23,13.38-6.32,27.11-12.33,2.78-1.21,12.32-5.3,34.51-11.29,42.86-11.57,64.3-17.36,86.26-15.82,31.89,2.24,54.22,9.25,54.22,9.25,13.13,4.15,17.59,7.12,24.64,4.92,17.48-5.44,33.12-30.42,28.22-45.61A39.44,39.44,0,0,1,762.6,820c.06-5.11,1.27-9.08,3.81-12,1.62-1.86,3.61-3.11,4-2.77s-1.73,2.79-2.19,6.72a13.87,13.87,0,0,0,.21,4.12c1.46,8.3,5.29,14.31,6.82,23.19.92,5.35,0,5.65.92,6.73,4,4.45,18.54-1.78,55.24-21.05,37-19.41,34.45-19.49,40.88-21.22,29.18-7.84,40,4.95,59.55-6.5,8.48-5,25.14-18.31,28.35-21a64.5,64.5,0,0,0,6.61-5.83c3-3.28,4.35-5.77,5.39-5.42s1,3.1.78,4.78a12.23,12.23,0,0,1-2.3,5.54c-7.17,9.52-18.2,19.25-17.24,23.71,1.22,5.64,22.57,6.87,42.56,4.88,15.52-1.55,35.25-3.52,57.85-15.95,19.44-10.7,42.63-30,45.6-46.83.65-3.69,2.71-21,0-26.91-.21-.44-1.3-2.68-.62-3.27s3.23,1,3.5,1.23c4.21,2.89,5.51,8.66,5.94,11.29a63.24,63.24,0,0,1-4.72,35.53c-11.29,22.39-29.22,24.41-27.93,34.91a15,15,0,0,0,.41,1.61c2,7.45,5.72,21.33,17.17,29.2a33.43,33.43,0,0,0,12.69,5.55c5.09,1,9.24.44,9.51,1.59.15.58-.78,1.7-6,4.06a29.88,29.88,0,0,1-18.14-1.29,29.36,29.36,0,0,1-10.32-7.14c-5.93-12.42-12.27-20.32-14.39-21.07-1.5-.53-3.1-.91-3.11-.91a25.14,25.14,0,0,0-2.76-.48c-10.85-1.32-21.88,2.33-21.88,2.33-3.44,1.16-28.71,9.71-39.45,12.2-3.54.83-22-1.35-58.83-5.72,0,0-24.61-2.64-44.74.33a69.77,69.77,0,0,0-9.47,2.13c-2.14.62-4,1.24-5.84,1.94a151.77,151.77,0,0,0-25,12.85c-14.29,9.52-24.05,9.67-63.7,29.31-27,13.35-31.28,17.65-34.33,23.22-3.92,7.17-6,17-9,30.65-1.39,6.45-3,14.67-8,23.61-.72,1.29-6.36,11.17-8.83,10.27-.43-.16-2.57-1.11,0-16,2.76-16,4.57-27.66,0-35.11-1.88-3.08-5.11-5.42-22.18-9.24-17.37-3.89-26.06-5.84-40.67-6.17-20-.45-48.44-1.09-81.33,12.32-20.51,8.38-55.12,22.71-69.63,57.93-6.59,16-6.37,30.1-6.15,38.81.87,34.4,17.6,59.12,37.45,87.64,15.06,21.66,30.47,43.82,56.2,63.93,52.63,41.14,111.08,44,173.14,48.06,48.3,3.12,98.52,6.38,136.78-14.79,6.12-3.38,21.23-12.54,43.75-17.25,19.06-4,33.59-2.9,53-1.23,54.88,4.73,77.1,19.65,105.57,7,5-2.22,12.81-6.6,13.36-5.74.7,1.13-11,11.63-24.86,18.07-4.81,2.23-19.89,8.62-50.93,6.58-36.74-2.42-47.1-13.44-54.22-7.4-12,10.17,0,56.17,28.34,87.5,40.6,44.86,103.67,46.86,139.86,48,69.61,2.3,121.47-21.56,142.39-31.46,32-15.18,54-32.12,85-56,39.77-30.69,62.93-55.7,73.65-67.87,6.34-7.16,12-14,16.92-20.25,61.3-64.83,70-84.08,87.49-122.6,3.51-7.74,9.43-22.37,3.08-33.27-3.46-5.93-9.61-9.14-11.09-9.86a33.24,33.24,0,0,0-21.56-2.46c-2.8.6-9.35,2-14.73,7.28-5.12,5.05-5.9,10.41-7.13,10.12-1.61-.37-3.16-10.3,1.53-18,5.84-9.61,19.38-12.34,27.11-14.18,11.72-2.77,14.09-1.33,19.71-3.07,4.89-1.52,18.89-7.16,32.66-39.44,10.21-23.93,12.8-44.83,14.79-70.24,6-75.78.51-112.57-12.95-136.78-5.05-9.1-11.25-16.45-20.12-18.69-3-.75-10.74-2.06-28.56,8.21-15.94,9.21-42.72,24.95-49.41,53.25-2.71,11.44,1.13,11.15-2,35.52,0,0-2.83,21.88-15.24,36.26-1.12,1.29-2.66,2.91-3.57,2.52-2.21-1,2.88-12.45,4.31-25.67,2.92-26.79-3.11-33.91,3-51.28,1.09-3.13,4.06-8.68,10-19.79,10.62-19.93,15.65-26.24,13.57-28.75-2.33-2.78-10.41,2.59-25.88,7.8-16.93,5.7-30.74,7.18-53.82,9.66-21.85,2.34-32.77,3.51-35.53,3.49-8.25-.07-16.09-.77-23.83,4.11-2.78,1.76-4.8,3.76-10.21,11.24-13.94,19.26-13.58,24-21.72,31-2.64,2.28-12.36,10.33-22.49,8.16-4.43-1-8.47-3.77-8.3-4.19s3.85,1.81,8.78,1.52c7.31-.44,12.35-6,13.25-7.09,1-1.24,2.5-3.22,4.92-8.94,2.53-5.93,5.62-13.38,6.48-23.71.52-6.33.74-9.56-1.11-12.89-2.18-4-5.75-5.67-11.49-8.21a57.73,57.73,0,0,0-21.37-4.94,41.22,41.22,0,0,0-16.43,2.47c-11.22,4.23-16.24,12.43-16.94,11.82s4.76-13.33,16.94-19.32c6-2.93,11.52-3.42,22.19-4,7.47-.4,11.65-.63,16.94.31,9.87,1.76,13.6,6,20.64,8.94,9.3,3.94,16.05,2.41,32.25,1,35.21-3,32.65,1.71,59-2,10.47-1.45,23.69-3.39,40-9.55a139.59,139.59,0,0,0,28.64-14.47c2.63-1.77,7.66-5.31,18.49-15.1,17.61-15.93,26.42-23.89,29.88-30.19,10.69-19.43,5.53-41.32,2.78-53-2.32-9.82-5.85-18.27-19.1-40.66-13.45-22.69-21.8-36.82-36.67-56.38-44.87-59.12-95.1-96.89-104.43-103.82a539.2,539.2,0,0,0-87.8-53S1303,313.41,1239.61,287c-6-2.51-18.39-7.5-34.2-6.17-5.1.43-27.34,1.08-31.73,12-1.49,3.72-1,8.82-4.58,10.64-1.55.79-4,1-5.28-.17-2.74-2.57,2.78-9.29,2.78-17.56,0,0-.36-9.29-8-19.71-21-28.64-119.53-39.75-119.53-39.75A760.06,760.06,0,0,0,932,215c-7.39-.24-.76.09-58.85,0-15.77,0-35.14-.08-60.35,3-4.61.56-6.94.76-9.13,1.26-11.25,2.58-42.59,9.77-50.53,31.11-5.12,13.78,4.43,18.26,2.88,53.5-.46,10.29-1.68,18.88-4.86,28.09-2.69,7.8-6.46,18.29-16.43,26.29a41,41,0,0,1-16.71,8c-4.68,1-10.16,1.24-10.47.1s5.64-2.71,12.18-8.16a45.31,45.31,0,0,0,8.64-9.86,65.33,65.33,0,0,0,9.19-21c3.93-15.9,1.13-29.44-.44-36.58-3.12-14.31-7.64-34.83-23.41-44.36-10.27-6.2-21.47-5.32-38.19-2.46-54,9.19-97.3,27.23-119.54,37-19.41,8.49-32.5,14.22-50.52,23.82C505.47,304.7,460.25,328.81,423.53,357.89Z" transform="translate(-17.87 -14.86)"/><path class="cls-4" d="M548.19,425.46c-.11,1.93-17.34-.69-40.25,5.75-12.45,3.5-35.53,10.29-46,29.58-4.28,7.88-4.84,15.32-5.75,25.47-1.34,15-2.41,27,4.11,34.91,9.52,11.49,23.32-.3,46,10.27,15.45,7.19,14.53,15.22,39.43,29.57,14.48,8.35,20.48,8.92,23,9,18.16.89,33.48-12.58,34.09-13.14,4.48-4,7-7.9,7.81-7.39,1.2.76-2.07,11.47-9,18.89-15,15.92-37.81,14.18-40.26,14-11.1-1-20.27-6.42-38.61-17.25s-17-12.87-26.29-16.43c-2.68-1-25.22-9.22-49.3.83-6.49,2.7-21.49,9-25.46,22.17-2,6.65.38,9.81,1.64,21.36.71,6.57,2.78,25.52-3.29,38.61-10.67,23.05-47.4,27.7-47.64,27.12-.13-.29,8.43-2.83,19.3-11.09,5.33-4,10.06-7.65,13.55-13.56,3.34-5.62,4.89-12.2,4.52-23.82-.88-28.33-11.51-32-7.79-43.55,5.34-16.65,28.75-13.07,37-33.67,1.57-3.93,1.29-5.48,1.64-24.65.53-28.21.79-42.32,1.65-45.19,8-26.65,44-41.52,69.83-43.54,19.2-1.5,36.26,3.83,36.14,5.75" transform="translate(-17.87 -14.86)"/><path class="cls-4" d="M351.46,706.66c1.69-.28,1.7,15,12.05,27,1.52,1.75,12,13.91,25.52,13.26,10.45-.51,12.26-6.33,37.23-25.4,2.72-2.08,8.19-5.33,15.24-10.81,6.61-5.16,9.92-7.73,12.17-10.28,9.45-10.7,9.45-20.63,17.75-27.63a40,40,0,0,1,6.16-4c16.86-8.83,23.13-1,69.24-2.83,23-.91,41.33-1.76,63.87-9.07,19.89-6.45,42.08-14,56.88-36.24,3.32-5,12.4-19,12.89-38.51.65-26.34-14.72-45.82-21.47-54.37-18.77-23.79-32.41-20.84-41.86-42.47-7.32-16.74-5.43-32.84-4.83-37.38.52-4.08,2.85-19.25,16.64-38,25.77-35,66.43-48.06,67.62-45.86.45.82-6.41,4.2-19.32,15.28-21.51,18.47-46.79,40.16-47.23,68.53-.22,14.06,5.73,25,7.51,28.13,8.08,14.39,19.35,18.9,27.91,25.29,22.19,16.56,32,49.89,31.67,72.87-.7,47-44.41,81.17-75,94-15.59,6.55-29.09,8.11-42,9.62-49.16,5.73-71-10.43-95,5.67-7.61,5.1-7.4,8.72-11.66,15.82-2.66,4.43-5.2,7.75-11.24,13.82-17.62,17.71-42.08,18.8-49.31,37.14-2.7,6.82.79,6.16-2.58,25.15-2.92,16.58-6.15,19.85-3.95,25.26,5.24,12.87,30.38,10.87,30.31,15,0,2.52-9.47,5.82-18.51,4.25-10.15-1.78-20.81-9.88-23.89-21-4.37-15.79,9-29.3,3.17-36-2.7-3.09-5.95-.71-13.6-2.26-15.26-3.11-27-17.7-31.49-31-3.89-11.46-2.33-22.79-.89-23" transform="translate(-17.87 -14.86)"/><path class="cls-4" d="M663.83,1030.1c-3.88-1.19-7-7.62-6.3-12.67.35-2.76,1.76-4.76,2.77-11.11.53-3.33.26-3.58.13-3.64-1.08-.47-6.57,7-9.55,15.41-5.35,15.05-.84,20.39-6.57,26.38-4.91,5.15-11.2,4.36-14.8,11.48a20.82,20.82,0,0,0-1.73,6.18c-2.78,14.38,2,34.36,4.21,34.1,2-.21-3.73-15.87,4.59-31.68,6.59-12.53,19-19.46,29.88-25.56,8.31-4.66,13.11-7.35,20.33-8.94,21.57-4.75,29.46,8.07,51.9,3.74a47.85,47.85,0,0,0,21.73-9.9c2.4-2,12.08-10.23,13.28-22.28.32-3.12.23-8.11-1.23-8.48-1.26-.33-2.94,2.92-4.66,5.66a71.07,71.07,0,0,1-16.32,16.78,54.92,54.92,0,0,1-19.72,8.94c-24,5.24-36.42-12.63-52.13-4.68-8.06,4.07-10.95,11.79-15.81,10.27" transform="translate(-17.87 -14.86)"/><path class="cls-4" d="M850.1,937.07c5.14-18.87,13.52-29.23,12.5-30.19s-12.16,9.06-19.43,25c-2.79,6.14-13.07,28.75-6.59,50.73,6.06,20.61,20.95,20.6,25.5,43.13,1.61,8,1,14.32,0,24.65-2.16,22.65-7.89,24.77-9.89,43.13-.39,3.53-3.52,35.39,11.45,49.89,5,4.84,11.28,6.76,12,5.56.92-1.62-9.32-6.88-13.13-19.77-1.94-6.58-1.77-13.65-1.45-27.06.09-3.45-.13-6.29.42-8.94,2.17-10.39,10.07-15.21,13.12-33.57,4.24-25.53-6.91-39,1-48.68,3.43-4.17,10.79-5,25.5-6.77A178.11,178.11,0,0,1,923,1003c29.21.19,44.13.39,59.68,4.52,13.23,3.52,21,7.62,26.38,15.6,1.11,1.66,7.22,10.72,4.78,17.68-2,5.73-8.61,6.66-8.25,8.62s7.47,3.72,11.79,0c5.72-4.92,4.66-17.8,2.43-25.46-4-13.65-14.48-20.23-19.42-23.42-2.23-1.44-9.35-5.78-29.5-8.22-4.39-.53-11.89-1.26-37.48-.82-22.06.38-33.09.58-37.47.82-15.12.85-18.92,1.67-25.68-.82-3.5-1.29-17-6.24-22.2-20.54-4.11-11.16-1.1-22.22,2.07-33.88" transform="translate(-17.87 -14.86)"/><path class="cls-4" d="M730.57,486.66c2.29-.82-7.79-18.18-.82-33.67,5.15-11.45,17-16.16,29.16-20.95,7.4-2.93,38.39-15.18,62.44-1.65,6.41,3.61,11.9,8.8,14.37,7,2.91-2.14-3.08-10.36-3.07-20.35,0-21.7,28.39-38.27,36.35-42.91,14.75-8.62,27.72-11.5,43.44-15,29.8-6.63,40.24-2.75,55.56-13.76,9.64-6.94,7-19.71,16.83-23.41,8.1-3,16.34,1.28,16.53.62s-11.58-8-23.1-5.13c-10.38,2.58-11,14.1-20.54,18.88-21.71,10.85-35.27,5.53-62,12.33-18.56,4.71-51.15,13-62.13,37-3.73,8.13-4.94,18-13.25,21.57-6.55,2.79-11.87-.74-19.71-2.47-26.94-6-53.11,16.21-59,21.15-9.12,7.72-22.16,18.77-22.59,34.92-.38,14.46,9.52,26.59,11.5,25.87" transform="translate(-17.87 -14.86)"/><path class="cls-4" d="M1159.41,310.45c2,1,2.49,3.75,2.54,4.19,1.21,7.78-12.52,10.27-20.22,24.59-4.41,8.21-6.24,19.23-2,26.26a11,11,0,0,0,1,1.48c2,2.35,5.79,4.23,17.48,8.38,16.75,5.95,25.13,8.94,34.29,10.27,16.14,2.35,26.33.33,26.5,1.64.18,1.51-13,6.93-28.75,6.57s-20.45-5.83-44-8.63c-7.39-.87-12.87-1-19.32-1.22a279,279,0,0,0-40.66,1.64c-45.17,5.68-75.57,28.75-75.57,28.75-22.08,16.76-47.89,47-48.69,71.68-.14,4.37-.11,28.28-1,39.23a69.29,69.29,0,0,0-.4,10.27c.3,6,1.35,7.64.4,9.45-1.73,3.36-9.93,2.94-18.89,2.46-14.92-.82-22.37-1.22-27.65-1.08-8.16.21-14.68,2.15-27.38,6-23.59,7.16-46.89,14.54-69,35.75-1.55,1.48-2.59,2.55-3.67,3.68-27.34,28.11-37.65,56.77-39.79,63a169.45,169.45,0,0,0-8.63,45.6c-1,14.42-1.8,23.35,0,35.73,1.69,11.6,5.36,24.71,4.12,44-.45,6.73-1.15,9.16-2.16,9.3-2.82.42-7.72-17.48-10.64-28.35-6.48-24-9.73-36-10.63-47.91-2.08-27.88,7.7-49.57,17-70.21,9.83-21.8,29.34-64.77,74.1-90.14,21.9-12.41,44.73-17.73,56.27-19.72,13.89-2.39,20.84-3.59,28-2.68,9.29,1.18,15.75,4.23,20.48.63,3.13-2.4,4-6.42,4.37-12.33,1.36-24.09-1.19-34.16,1.37-46.82,1.42-7.08,3.77-11.66,7.6-19.11,13.77-26.85,35.34-42.18,41.28-46.2,23.67-16,57.52-27.09,83.18-30.19,13.47-1.63,18.58-3.65,21.4-5.43a43.94,43.94,0,0,0,4.27-3c11.4-9.19,17.61-23.44,27.4-36.47,6.94-9.24,20.2-23.87,26-21" transform="translate(-17.87 -14.86)"/><path class="cls-4" d="M894.05,626.73c.56.94,6.34-1.58,7.05-1.89,7-3,9.88-6.8,12.67-8.78,13.64-9.65,42.42,10.66,44.78,12.32,5,3.51,9.12,7.44,11.09,13.15a23.65,23.65,0,0,1,.82,11.49c-1.05,7-4.68,33.62,0,53.82,2.54,11,7.27,18.76,11.09,25s9.36,15.22,19.71,22.59c7.85,5.59,18.08,8.88,19.31,7,1.38-2.11-9.43-9.07-18-20.39-12.87-17-14.6-35.73-15.68-47.39-.6-6.54-2.84-32.86,17.25-74.76,13.64-28.45,35.55-74.15,87.09-103.1,32.77-18.41,62.35-21.54,95.7-25.06,21.24-2.24,55.5-5.54,97.35,5.34,18.4,4.79,40.43,10.51,63.67,27.93,11.45,8.59,38,29.06,48.88,65.72,8.83,29.61,7.12,68.45-8.14,79-1.8,1.24-7.22,4.48-6.65,6,.65,1.71,8.9,1.54,15.61-1.64,18.9-9,18.18-46.93,18.08-52.57-.76-40.05-23.28-69.1-32-80.11-23-28.85-50.07-41.71-62-47.23-20.46-9.45-37.38-12.64-52.17-15.2-14.41-2.49-47.83-7.13-92.42-1.23-36.78,4.87-75.71,10-114.6,38.2-1.28.93-30.06,22.25-50.38,53.54-10.84,16.68-16.25,25-18.63,36-1.57,7.3-1.38,12.05-4.93,14-7.33,4-16.1-12.62-36.15-15.61-14.61-2.18-26.85,2.81-32,4.93-15.22,6.21-27.18,17.4-26.29,18.89" transform="translate(-17.87 -14.86)"/><path class="cls-4" d="M1272.3,581.44c1.74,1.24-24.52,30.78-36.46,79a209.05,209.05,0,0,0-4.19,78.23c3,21.35,11.45,81,55.91,110.5,24.33,16.17,55.28,20.56,69.12,22.52.51.08,10.57.76,30.71,2.12,18,1.22,22.09,1.75,25.44-1.58,6.63-6.6,6-23.43-.93-31.12-1.69-1.9-4.18-3.71-6.58-8-2.19-3.89-4.32-9.8-3.12-10.66,2.26-1.62,20.82,11.94,26.78,33.5,5.52,20-1.19,41.83-14.24,54.53-12.57,12.22-30.5,14.24-31.35,12.44-.66-1.43,8.21-7.89,11.46-10.27,4.66-3.38,5.65-3.51,7.72-5.72.73-.79,7.82-8.54,6-13.74-1.42-4.1-7.82-5-44.4-8.31-9-.82-8.25-.79-10.2-.93a339.88,339.88,0,0,1-43.73-6.18,116.85,116.85,0,0,1-58.62-33.73c-19-20.39-25.39-42.68-29.51-57.15-7.55-26.56-6.45-47.85-5.7-66.78.68-16.83,2.16-47,16.53-80.8,15.17-35.68,37.75-59,39.32-57.89" transform="translate(-17.87 -14.86)"/><polygon class="cls-4" points="967.44 913.77 1281.78 1230.16 1356.56 1145.84 1399.39 1235.22 1593.92 1601.14 1702.61 1456.43 1956.67 1832.11 1966.31 1820.21 1773.89 1228.65 1620.09 1420.69 1461.59 898.94 1335.09 1042.22 1191.81 796.84 967.44 913.77"/></g><g class="cls-5"><path class="cls-4" d="M237.82,218.7c7.66-.2,13.6,8.41,15.63,11.22,15.43,21.3,59.36,61.8,81.26,82,36.06,33.26,68.26,46.44,64.19,59.92-.84,2.81-2.52,3.14-11.2,11.35,0,0-5.15,8.89-23.46,25.67-15.59,14.28-47.61,59.47-71.25,110.63a462.87,462.87,0,0,0-36.73,118.61c-3.73,22.88-7.16,40.45-4.87,62,2.62,24.62,10.17,42.75,14.78,53.57,15.18,35.71,27.73,38.21,46.15,78.72,2.32,5.1,4.94,11.24,10.76,18.18,8.79,10.44,15.17,11.14,38.86,24.48,12.75,7.18,22.5,13.51,39.91,22.87A95.25,95.25,0,0,0,420,905.53a118.55,118.55,0,0,0,14.75,3.25c10.23,1.8,17.05,3,26.4,3.69A183.9,183.9,0,0,0,493.9,912c8.49-.91,14.9-1.64,23-4.57,6.61-2.4,6.07-3.25,16.37-8.12A202.36,202.36,0,0,1,563.68,888c5-1.44,4.91-1.18,13.87-3.4,24.45-6.06,29.09-8.9,46.91-12.39a127.65,127.65,0,0,1,21.39-2.66,135.62,135.62,0,0,1,16.08.6,265.28,265.28,0,0,1,30.68,4.27c10.5,2,15.75,3,19.33,4.42a118.52,118.52,0,0,0,13,4.58,25.74,25.74,0,0,0,8,1.33,24.56,24.56,0,0,0,8.41-1.77c8-3.14,13.76-9.54,16.38-12.54,0,0,10.21-11.69,12.22-23.85.26-1.55.41-3.13.41-3.13s.17-1.83.2-3.56c.07-4.59-2.42-11.24-2.51-11.21s.34,1.23,1,3.69c2.07,7.32,2.55,7.36,2.8,9.88.3,3-.3,3.79.6,5.46a7.72,7.72,0,0,0,3.83,3.25c5.8,2.53,14.23-2,15.49-2.66,8.64-4.61-122,65.83,35-16.22,18.58-9.72,27.9-14.6,29.51-15.62a78.73,78.73,0,0,1,10.32-5.63,53.74,53.74,0,0,1,16.23-5c3.41-.4,7-.26,14.16,0,.76,0,4.54.19,9.74.3h.06c2.72.06,10.41.17,13.21,0,6.48-.39,11.74-3.79,16.82-7.08,3.79-2.45,4-3.26,9.44-6.78a70,70,0,0,0,7.2-4.91c2.49-2,4.55-4,4.6-3.94a27.35,27.35,0,0,0-4.86,5.45,23,23,0,0,0-3.1,7.24,8.43,8.43,0,0,0-.44,3.23,8.22,8.22,0,0,0,1.91,4.43c2.4,3,7,3.82,13.13,4.42a106.81,106.81,0,0,0,13.72.74c19.44-.83,29.16-1.25,41.6-4a134.64,134.64,0,0,0,14.46-3.83c14.37-4.78,23.78-10.91,35.4-18.59,3.57-2.37,17.87-12,25.08-21.83a60.76,60.76,0,0,0,3.73-5.88,49.74,49.74,0,0,0,5.12-13.59c1.37-6.88.74-12.39.59-12.39s3.31,16.74-5.31,30.67a60.48,60.48,0,0,1-12.1,13.87c-3.18,2.55-6.69,4.69-10.91,9.59-3.63,4.2-4.41,6.51-4.72,8.11-.26,1.29-.37,3,1.76,10s3.88,12.62,7.67,17.69a42.55,42.55,0,0,0,4,4.55,39.35,39.35,0,0,0,4.72,4,35.84,35.84,0,0,0,3.48,2.21c2.88,1.63,4.69,2.14,4.65,2.27s-2.88-.86-8.56-2.8a9,9,0,0,1-4-2.22,8.19,8.19,0,0,1-1.77-3.1c-1-2.81-2.81-5.28-4.13-8s-4.8-9.7-11.06-13.13c-4.39-2.4-8.57-2.2-14.61-1.92-2.67.13-6.54.51-17,3.39-9.51,2.65-12.56,4.08-25.07,7.83-6.86,2-10.34,3.08-13,3.39-6.82.79-11-.24-20.06-1.48-6.81-.94-13.67-1.36-20.5-2.06-15.35-1.58-23-2.38-32.9-3-15.13-.89-21.85-.54-28.92.74a97.69,97.69,0,0,0-11.35,2.8c-11.42,3.49-15.51,6.77-41.46,20.94-11,6-18.71,10-21.53,11.52l-9.15,4.71c-13.77,7.09-16,8.17-20.8,10.92a109.21,109.21,0,0,0-21.39,15.33c-7.06,6.38-17.5,15.79-22.13,26.86-1.26,3-2.36,6.49-2.36,6.49A92.51,92.51,0,0,0,743.21,920c-2.17,10.4-7.69,19.16-8.42,18.88-.46-.17,1.09-4,2.51-12.09a72.41,72.41,0,0,0,1.49-15.34c-.13-5.17-.3-9.85-3-15.05a20.06,20.06,0,0,0-4.43-6.2c-3.19-2.91-6.48-3.7-19.17-6.19-8.11-1.59-9.14-1.77-9.14-1.77l-25.67-4.43c-17.2-2.49-35.39-.35-43.38.6a216,216,0,0,0-56.65,14.75c-17.12,7.05-26.72,13.66-31.56,17.25a97.8,97.8,0,0,0-15.48,14,99.51,99.51,0,0,0-12.84,19.18,101.46,101.46,0,0,0-8,20.36c-4.44,17.14-2.12,31.51-.29,42.19A136.27,136.27,0,0,0,525.77,1051c5.11,8.75,4.9,6.09,16.81,24.19,10.08,15.3,12.13,20.09,19.77,30.1a194.65,194.65,0,0,0,17.71,20.06,233.65,233.65,0,0,0,40.42,32.75c41,25.72,81.67,30.35,99.13,32.16,2.76.28.08,0,21.54,1.47,42.85,3,49.14,4,68.44,4.72,14.62.54,25.17.89,39.83,0,18.52-1.12,28.29-1.72,41-5.9,10.44-3.43,10.15-5.11,35.11-15.93,12.15-5.28,18.22-7.91,24.49-9.74a143.89,143.89,0,0,1,37.17-5.31c10.52-.19,19.41,1,37.17,3.54,19.46,2.73,29.17,4.08,41.9,6.79,7.24,1.53,14.55,3.3,25.07,3.24,9-.05,15.26-1.39,15.35-.88.12.7-12,4.63-26.56,6.19a137,137,0,0,1-41.9-2.06c-14.83-3.23-15.92-3.54-15.92-3.54-7.88-2.26-10.91-3.9-16.23-3.25-2,.24-7.71.94-10.91,5.31-.83,1.13-1.71,2.81-2.36,9.15a63.52,63.52,0,0,0-.3,14.16c1.42,13.61,8.3,28.16,11.51,34.52,4.51,8.94,9.25,18.35,18.29,29.21a136.23,136.23,0,0,0,36.87,30.38c14.09,8,25.89,11.5,35.11,14.17,21.74,6.27,38.59,7.2,60.19,8.25,19.71,1,39.64,1.94,66.09-2.06,23-3.47,39.83-9,51.63-13a348.39,348.39,0,0,0,63.73-28.62s19.19-11.16,56.64-38.94c9.65-7.15,8.71-8,12.83-9.68,1.47-.62,3.77-1.42,4.29-3.3.57-2.09-1.4-4.13-3.25-6.49-2.79-3.58-4.47-7.91-6.79-11.81-4.51-7.55-3.27-7.88-8.85-18.88-6.14-12.1-6.87-10.17-10-18-2.07-5.15-3.54-10.42-5.6-10.33-1.06,0-1.41,1.46-4.13,4.43a41.8,41.8,0,0,1-4.13,3.83c-5.51,4.78-16.7,19.53-18,21.25-7.1,9.33-5.62,5.29-19.76,21.82-5.78,6.77-14.94,17.87-20.65,23.17a31.37,31.37,0,0,0-3.45,3.47c-3.5,4.22-4.11,7.52-5.7,7.44-.84,0-1-1-2.95-3.24a31.78,31.78,0,0,0-3.83-3.69c-4.93-4.41-29.64-30.86-49-50-8.1-8-6.23-5.84-17-16.38-14-13.81-23.65-23.85-30.24-30.69-5.47-5.65-5.28-5.39-43.23-43.51q-27.23-27.36-54.43-54.73c-67.4-67.76-73.92-74.31-79.07-79.81-7.51-8-8.9-10.41-13.71-14-1.87-1.4-9.08-6.61-10.19-9.59a5,5,0,0,0-2.2-2.94c-.58-.26-1-.24-1-.46-.24-.81,4.86-2.94,5.9-3.39,5.12-2.17,9.77-5.33,14.75-7.81,27.81-13.89,55.13-28.68,82.76-42.93C1166,839.74,1201,821.66,1202.3,820.36c.24-.24,3.88-4,5.73-3,1,.52.51,2,2.14,4.42,1,1.43,1.51,1.48,2.73,3.24a17,17,0,0,1,1.7,3.18c1.28,3,5.84,10.68,10.4,18.36,7.24,12.23,14.32,24.57,21.68,36.73,13,21.51,26.58,45.11,45.72,78.48,0,0,37.7,65.67,51.17,87.9,1.58,2.62,3.16,5.21,3.16,5.21,3.59,5.9,3.06,5,3.68,6,1.7,2.88,1.65,3,1.89,3.08,3.55,1.82,16.25-16.56,23.46-26.25.79-1.06,11-12.66,31.57-35.84,21-23.7,26.27-29.26,39.67-44.7,12.94-14.9,19.4-22.34,20.81-24.2,2.06-2.71,4.59-5.07,6.63-7.82,1.61-2.14,2.53-3.57,3.39-3.39,1.44.3,1.52,4.68,1.78,7.38.71,7.7,3.65,11.7,7.08,19.32,3.83,8.54,4.59,13.39,9.29,29.8,3.08,10.75,8.79,27.82,20.21,62,15.09,45.12,15.18,42.86,15.28,44.86,0,.86.2,4.4,1.68,4.85,2.18.65,5.64-5.71,11.21-14.6,7.84-12.49,6.93-9.34,13-19.32,3.48-5.73,7.52-13.81,15.63-30,1.22-2.43,3.89-7.77,6.79-15,2.42-6.08,3.64-9.2,4.28-13.43.53-3.55,1.44-9.64-.89-16.08-4-11.1-14.94-15.72-17.56-16.82,0,0-10.53-4.45-25.26-.87a23.87,23.87,0,0,0-7.93,3.23c-3.82,2.55-5.75,5.67-6,5.46s1.14-3.54,4-6.49c3.2-3.35,6.77-4.71,11.8-6.64a81.38,81.38,0,0,1,10.62-3.1,43.81,43.81,0,0,1,7.81-1.47c1.78-.13,2.78,0,5.75-.29a38.45,38.45,0,0,0,4.88-.6,24.26,24.26,0,0,0,6-2.21,39,39,0,0,0,10.19-7.82,86.24,86.24,0,0,0,11.21-14.45A117.29,117.29,0,0,0,1608,911a261.7,261.7,0,0,0,13-45.59c7.26-41.79,5.35-76.28,3.54-105.62a221.14,221.14,0,0,0-9.45-47.2c-2.23-7.16-6.16-18.25-16.3-26.7a27.59,27.59,0,0,0-7.3-4.88c-11.58-4.91-24,1.55-38.94,9.3-7.09,3.68-17.71,9.3-28.54,20.36-5.09,5.19-11,11.24-15.57,21.24a68.27,68.27,0,0,0-5.9,24.79c-.33,9.09,1.62,10.55.45,19.91a88.56,88.56,0,0,1-4.14,16.81c-1.93,6-4.48,12.26-5,12.1s1-4.74,1.91-12.24a107.92,107.92,0,0,0,.6-14c0-7.13-.46-9-.51-18.9a45.72,45.72,0,0,1,.65-9.73,46.38,46.38,0,0,1,2.95-9.14,84.53,84.53,0,0,1,5.9-11.21c13-22,10.26-21.27,14.17-26.26a12.93,12.93,0,0,0,2.81-6.49,7.66,7.66,0,0,0-.75-4.72c-1.65-2.92-5.21-3.48-5.61-3.54-2.8-.4-4.34.93-9.73,3.25-2.46,1.05-5,1.83-7.52,2.8,0,0-9.05,3.48-19,6.49-4.94,1.49-12.11,2.44-26.26,4.27-5,.66-4.81.59-34.66,3.84-7.78.84-10.66,1.16-15.2,1.18-4.73,0-6.42-.3-10.77.15a40.33,40.33,0,0,0-11.8,2.8,28.73,28.73,0,0,0-6.35,3.54c-2.67,2-4.12,3.91-8,9.15-4,5.5-6,8.25-6.63,9.14-5.22,7.86-5.94,10.78-11.08,17.56-1.76,2.34-4.48,5.7-4.86,5.46s1.33-2.77,3.24-6.94a63.93,63.93,0,0,0,4.72-13.86c.37-1.77,0-.48,1.33-10.33.71-5.26.88-6.12.74-7.81a18.87,18.87,0,0,0-3.53-9.74c-2.54-3.36-6-4.89-13-8a62,62,0,0,0-6.79-2.66c-11.17-3.53-20.94-2.28-21-2.51s5.16-.29,11.81-.58c6-.26,6.21-.34,8.11-.3a42.35,42.35,0,0,1,11.51,1.48c3.29,1,3.15,1.54,11.21,5.46,5.12,2.49,7.67,3.73,9.74,4.27a43.48,43.48,0,0,0,13.42,1c2.53-.09,4.61-.35,6.64-.58,5.75-.68,6.4-1.2,10.18-1.33,2.58-.09,2.91.14,6.63,0,1.33,0,1.86-.1,5.32-.29,2.76-.17,5-.28,5.45-.3,4.25-.22,7.77-.13,12.54,0,8.86.23,8,.55,11.62.4,2.86-.1,2.64-.27,10.81-1,5.77-.5,6.16-.44,8.77-.77s5.34-.76,10.07-1.77c5-1.07,10.86-2.3,17.59-4.31a144.47,144.47,0,0,0,25.11-9.85,165,165,0,0,0,31-21.46c.8-.71,3.81-3.46,9.85-9,7.12-6.49,8.54-7.81,10.4-9.62,5.48-5.35,8.22-8,10.18-10.73a51.44,51.44,0,0,0,8-17.26,60.75,60.75,0,0,0,2-14.94,79,79,0,0,0-1-14.38,120.06,120.06,0,0,0-5.75-23.9,96.54,96.54,0,0,0-9.5-19.87c-1.18-1.84-1.9-2.8-3.76-5.8-4-6.33-6.3-10.9-8-14-3.26-6.12-5.91-10.25-11.17-18.48-1.31-2-5.9-9.19-13.5-19.69-2-2.72-13.71-18.93-27-34.52-27.7-32.55-59.21-59.11-63.28-62.51,0,0-48.34-40.46-106.5-69.92-22.33-11.31-46.32-21.84-46.32-21.84-12.74-5.59-12.89-5.27-23.31-10-10-4.59-15-7.22-23.9-10a90.52,90.52,0,0,0-15.35-3.83s-15.79-2.35-35.69,3.54c-5.49,1.62-8.69,3.27-10.92,6.19-1.34,1.76-2.59,4.3-2.94,4.13s.34-1.62.58-4.13a26.31,26.31,0,0,0,0-3.83c-.19-2.92-3.05-12.81-8-19.18-11.24-14.59-39.83-23.31-39.83-23.31-39.07-13-71.1-15.93-71.1-15.93-25.62-3.87-45.6-5.93-85.56-10-22-2.26-31.63-3-43.07-3.54-13.63-.6-26.1-.46-51-.15-17,.2-30.52.59-46.62,2.21-4.94.49-11.16,1.22-18.88,2.66a145.91,145.91,0,0,0-27.44,7.37c-8.27,3.19-12.38,4.8-17.11,8.56-3.18,2.52-11,8.94-13.58,19.77a30.23,30.23,0,0,0-.29,14.16c.75,3.17,1.76,4.73,2.65,9.44a59.07,59.07,0,0,1,.89,8.85c.4,7.86.61,11.8.59,15.34-.07,10-.12,17.08-2.65,26a75,75,0,0,1-7.68,17.4c-4.25,7.54-7.2,10.39-8.85,11.81-4.18,3.61-8.82,5.76-9.14,5.3s3.63-3,7.37-7.67c.95-1.2,3.7-4.81,6.78-13.28A82.36,82.36,0,0,0,743.5,309c0-7.72-1.14-13.51-2.35-19.76a143.27,143.27,0,0,0-4.72-17.71c-2.81-8.64-4.21-13-6.8-16.81A39.88,39.88,0,0,0,715.48,242c-10.64-5.76-21.57-4.87-33.63-3.24a392.84,392.84,0,0,0-59.6,12.68c-15.24,4.71-31,10.18-47.8,16.82-22.73,9-40.92,16.11-63.43,28.62-25.24,14-51.33,30.68-51.33,30.68-6.9,4.41-6.79,4.45-7.68,4.72C412.8,344.05,348.91,198.2,325.36,172c-1-1.07-9.14-10-6.7-14.4.53-1,1.55-1.64,3.54-3a32.67,32.67,0,0,1,7.08-3.54c4.53-1.63,6.91-3.86,12.1-7.38s7.66-4.61,29.5-16.81c22.62-12.63,19.86-11.39,25.66-14.46,6.77-3.58,16.1-8.22,44.56-19.76C463,83.84,473.9,79.41,488,74.43A756,756,0,0,1,566.19,52c23.81-5.55,42.74-8.69,79.66-14.75,46.53-7.64,69.8-11.45,103.56-15,21.68-2.32,56.67-5.5,100-6.8,14.59-.43,53.26-1.35,102.68.89,7.14.32,54.7,2.55,83.48,6.79,2.78.41,12,1.81,25.08,3.54,12.62,1.66,16.41,2,25.38,3.24,12.32,1.72,21.24,3.34,28.91,4.72,46.54,8.39,46.62,7.79,63.73,11.22,33.45,6.69,58.27,14,82,20.94,17.32,5.08,38.45,11.33,66.08,21.54,5.48,2,28.73,10.68,59,24.19,14.37,6.42,30.11,13.44,50.45,24.2a747,747,0,0,1,65.5,39.23c8.31,5.49,22.92,15.33,40.66,28.47,6.69,5,17,12.63,29.56,22.87,24.26,19.79,41.39,36.56,52.22,47.21,17.53,17.24,31.73,32.68,42.18,44.54a893.62,893.62,0,0,1,128,190.59c9.28,18.79,19.15,38.77,29.51,67.27A584.44,584.44,0,0,1,1851.35,684a611.63,611.63,0,0,1,7.37,85c1.17,47.23-2.79,83.63-5.31,105.92-3,26.86-6.55,46.92-8.85,59.88a1000.71,1000.71,0,0,1-25.37,108.87c-7.21,24.12-15.32,50.93-30.39,85.26A577.89,577.89,0,0,1,1703,1269c-9.78,12.08-40.2,48.9-88.22,92.34-23.56,21.32-53.69,48.58-98.54,77.6a657,657,0,0,1-160.49,75.52c-65,20.22-116.85,25-132.18,26.26-16.91,1.37-90.65,6.59-164-10.62A519.65,519.65,0,0,1,997.23,1511c-18.84-7.27-29.74-11.48-44-19.78-9.17-5.35-37-21.58-62-49.85-5-5.71-11-13.13-21.83-21.24-7.48-5.64-16.79-12.51-30.39-15.65-8.37-1.93-17.2-2.18-23.6-2.36-7.17-.19-7.8.26-15,0-10-.35-14.35-1.4-23.6-2.36-10.67-1.1-14.64-.72-25.08-1.17-9.66-.43-17.92-1.26-40.42-4.43-34.17-4.81-70.91-10-103.56-17.41-17.26-3.92-34.18-8.48-34.18-8.48s-7.2-1.93-13-3.61c-34.4-9.9-72.58-28.32-72.58-28.32-22.93-11.07-40.09-19.36-59-33-69.2-50.11-96.93-125.8-101.48-142.21-3.67-13.25-8-26.3-11.8-39.52-2.43-8.52-3-11-5-15.06-7.37-15.31-19.32-23.91-24.78-27.73-1.85-1.3-5.75-3.92-22.42-11.5-26.38-12-34.06-13.35-49.87-21.83A213.78,213.78,0,0,1,189.44,1030c-43.15-30.56-76.44-78.23-86.16-92.34a496.15,496.15,0,0,1-46.91-84.38,478.62,478.62,0,0,1-35.11-131c-9.08-75.5,2.25-133.65,8.56-164.62C42.6,494.91,63.36,449,76.14,421.09c14.46-31.53,26.49-51.27,29.8-56.64,19.57-31.75,38.35-53.71,55.76-74.06,14.36-16.77,22.06-25.71,33.64-35.69,15.45-13.34,15.25-11.35,24.48-21.24,8-8.62,11.72-14.58,18-14.76" transform="translate(-17.87 -14.86)"/><path class="cls-4" d="M235,219c.81-1.74,15-12.07,43.36-32.75,8-5.82-.21.21,35.16-24.95,5.12-3.64,5.17-3.68,5.55-3.82,21.81-7.63,41.73,67.05,107.57,128.81,9.1,8.54,31.68,28.65,26.53,42-.74,1.91-3.75,4.4-9.73,9.29-13.71,11.2-19.91,14-30.49,23.07-7.26,6.26-8.47,8.52-10.67,10.12C373.07,392.1,213.65,264.75,235,219" transform="translate(-17.87 -14.86)"/></g></svg>