<svg id="Layer_1" data-name="Layer 1" xmlns="http://www.w3.org/2000/svg" xmlns:xlink="http://www.w3.org/1999/xlink" viewBox="0 0 1963.42 1829.41"><defs><style>.cls-1,.cls-3,.cls-5{fill:none;}.cls-2{clip-path:url(#clip-path);}.cls-3{stroke:#821e5e;}.cls-3,.cls-5{stroke-miterlimit:10;stroke-width:8.1px;}.cls-4{fill:#821e5e;}.cls-5{stroke:#fff;}</style><clipPath id="clip-path" transform="translate(-17.36 -13.47)"><rect class="cls-1" x="-27.23" y="-92.42" width="2041.57" height="2041.57"/></clipPath></defs><title>Q_Maroon with Transparent Fill and Transparent Background_Print</title><g class="cls-2"><path class="cls-3" d="M422.42,356c-44.75,35.45-127.84,122.69-156.89,252.87-8.95,40.13-17.81,83.52-2.45,135.35,14.91,50.37,45.36,82.72,55.73,93.57,8.56,9,23.13,24,46,36.86,12.43,7,24.7,11.93,34.86,16,13.41,5.37,21.14,8.47,32.41,11.08,17.91,4.15,32.14,4.16,42.65,4.11,14.54-.09,23.18-.13,34.46-3.5C520,899.1,522.53,896,536.23,890c2.78-1.21,12.31-5.3,34.46-11.28,42.8-11.55,64.2-17.33,86.13-15.79,31.85,2.23,54.15,9.23,54.15,9.23,13.1,4.15,17.56,7.11,24.6,4.92,17.46-5.44,33.07-30.38,28.18-45.55A39.58,39.58,0,0,1,761,817.41c.06-5.1,1.27-9.06,3.81-12,1.61-1.85,3.61-3.1,4-2.77s-1.73,2.79-2.18,6.72a13.48,13.48,0,0,0,.21,4.11c1.45,8.28,5.27,14.29,6.8,23.16.92,5.34,0,5.64.93,6.71,4,4.45,18.51-1.77,55.15-21,36.94-19.39,34.4-19.47,40.82-21.19,29.14-7.83,39.94,5,59.47-6.49,8.46-4.95,25.1-18.28,28.31-20.92a67.55,67.55,0,0,0,6.59-5.82c3-3.28,4.35-5.77,5.39-5.41s1,3.09.78,4.77a12.2,12.2,0,0,1-2.31,5.53c-7.15,9.51-18.17,19.22-17.2,23.68,1.21,5.63,22.53,6.86,42.49,4.87,15.5-1.55,35.2-3.52,57.76-15.93,19.41-10.68,42.58-30,45.54-46.76.65-3.68,2.71-21,0-26.87-.21-.43-1.3-2.68-.62-3.27s3.22,1,3.49,1.23c4.21,2.89,5.51,8.65,5.94,11.28a63.13,63.13,0,0,1-4.72,35.47c-11.27,22.36-29.17,24.37-27.88,34.87a14.75,14.75,0,0,0,.4,1.6c2,7.44,5.71,21.3,17.14,29.16a33.55,33.55,0,0,0,12.68,5.54c5.08,1,9.22.44,9.5,1.59.14.58-.78,1.7-6,4.05a29.92,29.92,0,0,1-18.11-1.28,29.44,29.44,0,0,1-10.31-7.13c-5.91-12.41-12.25-20.3-14.37-21a31.28,31.28,0,0,0-3.1-.9,27.22,27.22,0,0,0-2.76-.49c-10.83-1.31-21.85,2.34-21.85,2.34-3.43,1.16-28.67,9.69-39.39,12.17-3.53.83-22-1.34-58.74-5.71,0,0-24.57-2.63-44.67.33a69.65,69.65,0,0,0-9.46,2.13c-9.1,2.65-13.34,5.26-30.77,14.77-59.74,32.57-66.26,32.56-81.21,47.36s-23.21,23-25.63,35.69a71.18,71.18,0,0,1-8,23.59c-.72,1.28-6.35,11.14-8.82,10.25-.43-.16-2.56-1.12,0-16,2.75-16,4.56-27.62,0-35.06-1.88-3.07-5.11-5.41-22.15-9.23-17.35-3.88-26-5.82-40.61-6.16-20-.44-48.37-1.08-81.21,12.31-20.48,8.36-55,22.67-69.52,57.84-6.59,16-6.37,30.06-6.15,38.75.87,34.35,17.58,59,37.4,87.52,15,21.63,30.42,43.75,56.11,63.83,52.56,41.08,110.92,44,172.89,48,48.23,3.12,98.38,6.37,136.58-14.77,6.11-3.38,21.19-12.52,43.68-17.22,19-4,33.54-2.9,52.91-1.23,54.8,4.72,77,19.63,105.41,7,5-2.22,12.8-6.58,13.34-5.73.7,1.12-11,11.61-24.82,18-4.8,2.22-19.86,8.6-50.86,6.56-36.68-2.42-47-13.42-54.14-7.39-12,10.15,0,56.09,28.3,87.37,40.55,44.81,103.52,46.8,139.66,48,69.5,2.29,121.29-21.52,142.18-31.42,32-15.15,53.91-32.06,84.84-55.94,39.71-30.64,62.84-55.62,73.54-67.76,6.33-7.16,11.95-14,16.89-20.22,61.22-64.75,69.94-84,87.37-122.43,3.51-7.73,9.41-22.34,3.08-33.22-3.46-5.92-9.6-9.12-11.08-9.84a33.25,33.25,0,0,0-21.53-2.47c-2.79.6-9.33,2-14.7,7.29-5.12,5-5.9,10.38-7.12,10.1-1.61-.38-3.16-10.29,1.52-18,5.83-9.6,19.35-12.33,27.07-14.16,11.71-2.77,14.08-1.33,19.68-3.07,4.88-1.51,18.87-7.15,32.62-39.38,10.19-23.89,12.77-44.76,14.76-70.13,6-75.67.51-112.41-12.92-136.58-5-9.09-11.24-16.43-20.09-18.66-3-.76-10.73-2.06-28.52,8.2-15.92,9.19-42.66,24.9-49.35,53.17-2.7,11.42,1.14,11.13-2,35.46,0,0-2.83,21.85-15.22,36.21-1.12,1.29-2.66,2.9-3.57,2.51-2.2-.95,2.88-12.43,4.31-25.63,2.92-26.74-3.11-33.86,3-51.2,1.08-3.13,4.05-8.67,10-19.76,10.59-19.91,15.62-26.2,13.53-28.71-2.31-2.77-10.38,2.59-25.83,7.79-16.9,5.69-30.69,7.17-53.74,9.64-21.82,2.34-32.72,3.51-35.47,3.48-8.24-.06-16.08-.76-23.8,4.11-2.78,1.76-4.79,3.76-10.2,11.22-13.92,19.23-13.56,23.93-21.69,30.93-2.64,2.27-12.33,10.32-22.45,8.15-4.43-1-8.46-3.76-8.29-4.19s3.84,1.81,8.76,1.52c7.3-.44,12.34-6,13.23-7.08,1.05-1.24,2.5-3.21,4.92-8.92,2.53-5.93,5.62-13.37,6.47-23.68.52-6.32.74-9.54-1.1-12.87-2.18-4-5.75-5.66-11.48-8.2a57.54,57.54,0,0,0-21.34-4.93,41,41,0,0,0-16.4,2.46c-11.21,4.23-16.22,12.42-16.92,11.81s4.75-13.31,16.92-19.29c5.95-2.93,11.49-3.42,22.15-4,7.46-.41,11.62-.64,16.91.3,9.86,1.75,13.59,6,20.61,8.92,9.3,3.94,16,2.41,32.21,1,35.16-3,32.61,1.71,58.86-2,10.45-1.45,23.66-3.39,40-9.54A138.33,138.33,0,0,0,1516,674.38c2.62-1.76,7.65-5.3,18.46-15.07,17.59-15.91,26.38-23.86,29.84-30.15,10.67-19.4,5.52-41.26,2.77-52.91-2.31-9.8-5.83-18.25-19.07-40.61-13.42-22.65-21.78-36.76-36.61-56.29-44.81-59-95-96.75-104.28-103.67a537.86,537.86,0,0,0-87.67-52.91s-18.84-11.19-82.14-37.52c-6-2.51-18.36-7.49-34.15-6.16-5.09.43-27.31,1.08-31.68,12-1.49,3.71-1,8.81-4.57,10.63-1.55.78-4,1-5.27-.17-2.74-2.57,2.77-9.28,2.77-17.54,0,0-.37-9.28-8-19.68-21-28.6-119.36-39.69-119.36-39.69a757.27,757.27,0,0,0-106.87-11.31c-7.38-.24-.76.09-58.77,0-15.75,0-35.09-.08-60.26,3-4.61.56-6.93.75-9.12,1.26-11.23,2.57-42.53,9.76-50.45,31.06-5.11,13.76,4.42,18.23,2.87,53.43-.45,10.27-1.68,18.85-4.85,28-2.69,7.79-6.45,18.26-16.41,26.25a40.84,40.84,0,0,1-16.68,7.95c-4.67,1-10.14,1.24-10.46.1s5.63-2.7,12.17-8.15a44.93,44.93,0,0,0,8.62-9.85A65.11,65.11,0,0,0,736,325.46c3.93-15.88,1.12-29.4-.44-36.53-3.12-14.29-7.63-34.78-23.37-44.3-10.26-6.19-21.45-5.3-38.14-2.45-53.89,9.18-97.16,27.19-119.36,36.91-19.38,8.47-32.46,14.2-50.45,23.78C504.24,302.88,459.08,327,422.42,356Z" transform="translate(-17.36 -13.47)"/><path class="cls-4" d="M546.9,423.46c-.11,1.93-17.32-.68-40.19,5.75-12.44,3.49-35.48,10.27-45.94,29.53-4.28,7.87-4.84,15.29-5.75,25.43-1.33,15-2.4,27,4.11,34.86,9.5,11.47,23.28-.29,45.94,10.26,15.43,7.18,14.51,15.19,39.37,29.53,14.46,8.33,20.46,8.9,23,9,18.14.89,33.43-12.56,34-13.12,4.47-4,7-7.89,7.79-7.38,1.2.76-2.06,11.45-9,18.86-14.94,15.9-37.76,14.17-40.2,13.95-11.09-1-20.24-6.42-38.56-17.23s-17-12.85-26.25-16.41c-2.67-1-25.18-9.2-49.22.83-6.48,2.7-21.46,8.95-25.42,22.14-2,6.64.38,9.79,1.63,21.33.72,6.55,2.78,25.48-3.28,38.55-10.66,23-47.34,27.66-47.57,27.08-.13-.29,8.42-2.83,19.27-11.08,5.32-4,10-7.63,13.53-13.53,3.33-5.61,4.88-12.19,4.51-23.79-.88-28.29-11.49-31.94-7.78-43.48,5.34-16.63,28.71-13,36.91-33.63,1.56-3.92,1.29-5.47,1.64-24.61.52-28.17.78-42.26,1.64-45.12,8-26.61,43.91-41.46,69.73-43.48C530,416.22,547,421.54,546.9,423.46Z" transform="translate(-17.36 -13.47)"/><path class="cls-4" d="M350.46,704.25c1.68-.28,1.7,15,12,26.91,1.51,1.75,12,13.89,25.48,13.24,10.44-.51,12.25-6.32,37.17-25.36,2.72-2.08,8.19-5.32,15.23-10.8,6.6-5.14,9.91-7.71,12.15-10.26,9.43-10.69,9.44-20.6,17.72-27.59a40.17,40.17,0,0,1,6.15-4c16.84-8.81,23.1-1,69.14-2.82,23-.91,41.27-1.75,63.78-9,19.86-6.45,42-14,56.8-36.19,3.31-5,12.37-19,12.86-38.46.66-26.3-14.7-45.75-21.44-54.29-18.74-23.75-32.35-20.81-41.79-42.41-7.32-16.71-5.42-32.78-4.83-37.32.53-4.07,2.85-19.22,16.62-37.89,25.73-34.91,66.33-48,67.52-45.8.45.82-6.4,4.2-19.3,15.26C654.28,395.83,629,417.5,628.6,445.82c-.22,14,5.72,24.93,7.5,28.09,8.07,14.37,19.32,18.87,27.87,25.26,22.15,16.52,32,49.81,31.62,72.76-.7,46.94-44.35,81-74.85,93.87-15.57,6.53-29,8.1-42,9.61-49.09,5.71-70.91-10.42-94.86,5.65-7.59,5.1-7.38,8.71-11.65,15.8-2.65,4.42-5.18,7.73-11.22,13.8-17.59,17.68-42,18.77-49.24,37.08-2.69,6.82.8,6.16-2.57,25.12-2.92,16.56-6.14,19.82-4,25.22,5.24,12.85,30.34,10.85,30.28,15,0,2.52-9.47,5.81-18.49,4.24-10.14-1.77-20.78-9.87-23.85-20.92-4.37-15.78,9-29.27,3.16-36-2.69-3.08-5.94-.71-13.58-2.26-15.24-3.1-26.94-17.68-31.44-30.91C347.46,715.8,349,704.49,350.46,704.25Z" transform="translate(-17.36 -13.47)"/><path class="cls-4" d="M662.36,1027.22c-3.87-1.2-6.93-7.61-6.28-12.66.34-2.76,1.75-4.76,2.76-11.09.53-3.32.27-3.58.14-3.63-1.09-.47-6.57,7-9.54,15.38-5.35,15-.84,20.36-6.56,26.35-4.91,5.14-11.19,4.34-14.79,11.45a21.08,21.08,0,0,0-1.72,6.18c-2.77,14.35,2,34.3,4.2,34,2-.21-3.72-15.85,4.59-31.63,6.58-12.51,19-19.44,29.84-25.53,8.29-4.65,13.09-7.34,20.3-8.93,21.53-4.74,29.41,8.06,51.81,3.75a47.9,47.9,0,0,0,21.71-9.9c2.39-2,12-10.21,13.26-22.24.32-3.11.23-8.1-1.23-8.47-1.26-.32-2.93,2.91-4.65,5.65a71.37,71.37,0,0,1-16.3,16.76,54.69,54.69,0,0,1-19.69,8.92c-24,5.24-36.36-12.61-52.06-4.67C670.11,1021,667.22,1028.74,662.36,1027.22Z" transform="translate(-17.36 -13.47)"/><path class="cls-4" d="M848.37,934.32c5.13-18.84,13.5-29.19,12.47-30.15s-12.14,9.05-19.4,25c-2.79,6.13-13,28.7-6.58,50.66,6,20.58,20.92,20.56,25.47,43.06,1.6,7.95,1,14.3,0,24.61-2.16,22.62-7.89,24.73-9.88,43.07-.39,3.52-3.52,35.34,11.43,49.83,5,4.82,11.27,6.75,12,5.54.91-1.62-9.31-6.87-13.12-19.74-1.93-6.57-1.76-13.63-1.44-27,.09-3.44-.14-6.28.41-8.93,2.18-10.38,10.07-15.19,13.1-33.52,4.24-25.49-6.89-39,1.05-48.6,3.42-4.17,10.77-5,25.46-6.77a179.7,179.7,0,0,1,21.83-1.24c29.16.21,44.06.39,59.59,4.52,13.21,3.51,20.95,7.6,26.34,15.58,1.11,1.66,7.21,10.7,4.77,17.65-2,5.72-8.59,6.66-8.24,8.6s7.46,3.72,11.78,0c5.7-4.91,4.65-17.76,2.42-25.42-4-13.63-14.46-20.2-19.39-23.38-2.22-1.44-9.33-5.78-29.46-8.21-4.38-.52-11.87-1.26-37.42-.82-22,.38-33,.58-37.41.82-15.1.84-18.89,1.67-25.64-.82-3.5-1.28-16.93-6.22-22.18-20.51C842.19,957,845.2,946,848.37,934.32Z" transform="translate(-17.36 -13.47)"/><path class="cls-4" d="M729,484.58c2.29-.83-7.78-18.16-.82-33.63,5.14-11.43,17-16.13,29.12-20.92,7.39-2.92,38.33-15.16,62.34-1.64,6.41,3.6,11.89,8.79,14.36,7,2.9-2.13-3.08-10.34-3.07-20.31,0-21.67,28.35-38.21,36.3-42.86,14.73-8.6,27.68-11.47,43.37-15,29.75-6.62,40.18-2.74,55.48-13.74,9.63-6.92,6.94-19.68,16.81-23.38,8.08-3,16.31,1.28,16.49.63.2-.8-11.55-8-23-5.13-10.37,2.58-10.94,14.08-20.51,18.86-21.68,10.83-35.22,5.52-61.93,12.3-18.53,4.71-51.08,13-62,36.92-3.72,8.12-4.93,18-13.23,21.54-6.54,2.79-11.86-.74-19.68-2.47-26.9-5.93-53,16.19-58.86,21.12-9.12,7.72-22.13,18.74-22.56,34.87C717.15,473.18,727,485.29,729,484.58Z" transform="translate(-17.36 -13.47)"/><path class="cls-4" d="M1157.22,308.62c2,1,2.48,3.75,2.54,4.19,1.2,7.76-12.51,10.25-20.19,24.55-4.4,8.2-6.24,19.21-2,26.22a11,11,0,0,0,1,1.48c2,2.35,5.78,4.22,17.45,8.36,16.73,5.95,25.1,8.93,34.24,10.26,16.12,2.35,26.29.33,26.46,1.64.19,1.51-13,6.92-28.71,6.56s-20.41-5.83-43.88-8.61c-7.39-.88-12.85-1-19.29-1.23a281,281,0,0,0-40.6,1.64c-45.11,5.67-75.47,28.71-75.47,28.71-22,16.73-47.82,46.95-48.6,71.58-.14,4.36-.13,28.23-1,39.17a66.16,66.16,0,0,0-.41,10.25c.3,6,1.35,7.63.41,9.44-1.74,3.36-9.92,2.94-18.86,2.45-14.9-.81-22.35-1.21-27.62-1.07-8.15.2-14.66,2.14-27.34,6-23.55,7.15-46.82,14.51-68.92,35.69-1.55,1.48-2.59,2.55-3.68,3.68-27.29,28.07-37.58,56.69-39.72,62.91A168.78,168.78,0,0,0,764.36,698c-1,14.4-1.81,23.31,0,35.68,1.68,11.58,5.34,24.67,4.1,43.89-.44,6.72-1.15,9.15-2.16,9.29-2.81.42-7.7-17.46-10.63-28.31-6.46-24-9.7-36-10.6-47.84-2.09-27.84,7.68-49.49,17-70.1,9.83-21.77,29.31-64.69,74-90,21.87-12.4,44.67-17.7,56.19-19.7,13.87-2.38,20.81-3.58,28-2.67,9.28,1.18,15.73,4.22,20.45.63,3.14-2.39,4-6.41,4.37-12.31,1.36-24.06-1.19-34.12,1.37-46.75,1.42-7.07,3.77-11.65,7.59-19.08,13.75-26.82,35.28-42.12,41.22-46.14,23.63-16,57.43-27.05,83-30.15,13.46-1.63,18.56-3.64,21.37-5.42a42.74,42.74,0,0,0,4.27-3c11.39-9.17,17.58-23.39,27.35-36.4C1138.19,320.41,1151.44,305.8,1157.22,308.62Z" transform="translate(-17.36 -13.47)"/><path class="cls-4" d="M892.25,624.44c.56.93,6.33-1.58,7-1.89,7-3,9.86-6.79,12.65-8.77,13.62-9.63,42.35,10.65,44.71,12.31,5,3.51,9.11,7.43,11.08,13.12a23.74,23.74,0,0,1,.82,11.48c-1,7-4.67,33.57,0,53.74,2.53,11,7.25,18.73,11.07,25S989,744.64,999.31,752c7.83,5.58,18.05,8.86,19.28,7,1.37-2.1-9.42-9.05-18-20.36C987.76,721.66,986,703,985,691.3c-.6-6.53-2.84-32.81,17.22-74.65,13.63-28.41,35.5-74,87-102.95,32.72-18.39,62.25-21.51,95.56-25,21.21-2.24,55.41-5.53,97.21,5.33,18.36,4.78,40.37,10.5,63.57,27.89,11.43,8.57,37.89,29,48.81,65.62,8.82,29.57,7.11,68.35-8.13,78.91-1.8,1.24-7.21,4.47-6.64,6,.65,1.71,8.89,1.54,15.59-1.64,18.87-8.94,18.16-46.87,18.05-52.5-.75-40-23.24-69-32-80-23-28.81-50-41.65-61.94-47.17-20.43-9.43-37.32-12.62-52.09-15.17-14.39-2.49-47.77-7.12-92.28-1.23-36.74,4.86-75.61,10-114.44,38.14-1.28.93-30,22.22-50.31,53.46-10.82,16.66-16.22,25-18.6,35.95-1.57,7.29-1.37,12-4.91,14-7.33,4-16.09-12.6-36.11-15.59-14.59-2.17-26.8,2.81-32,4.92C903.3,611.77,891.36,623,892.25,624.44Z" transform="translate(-17.36 -13.47)"/><path class="cls-4" d="M1269.94,579.22c1.74,1.23-24.49,30.73-36.41,78.9a208.81,208.81,0,0,0-4.17,78.13c3,21.31,11.43,80.83,55.81,110.33,24.3,16.15,55.22,20.53,69,22.49.5.07,10.56.75,30.66,2.11,18,1.22,22.06,1.75,25.41-1.58,6.61-6.58,6-23.38-.92-31.06-1.7-1.9-4.18-3.72-6.59-8-2.18-3.88-4.3-9.79-3.11-10.64,2.26-1.62,20.79,11.92,26.74,33.45,5.52,20-1.18,41.77-14.23,54.45-12.54,12.2-30.45,14.22-31.29,12.42-.66-1.42,8.2-7.88,11.45-10.25,4.64-3.38,5.63-3.51,7.69-5.71.73-.79,7.83-8.53,6-13.72-1.42-4.1-7.81-4.95-44.32-8.3-9-.82-8.25-.79-10.19-.93a339.28,339.28,0,0,1-43.67-6.17,116.7,116.7,0,0,1-58.54-33.68c-19-20.36-25.35-42.62-29.46-57.06-7.54-26.53-6.44-47.79-5.69-66.69.67-16.8,2.15-46.92,16.5-80.68C1245.83,601.39,1268.37,578.1,1269.94,579.22Z" transform="translate(-17.36 -13.47)"/><polygon class="cls-4" points="966.02 912.43 1279.89 1228.35 1354.57 1144.15 1397.33 1233.4 1591.58 1598.78 1700.11 1454.28 1953.79 1829.41 1963.42 1817.53 1771.28 1226.84 1617.71 1418.61 1459.44 897.62 1333.13 1040.69 1190.06 795.67 966.02 912.43"/><polyline class="cls-5" points="1513.25 1062.64 1459.44 897.62 1333.13 1040.68 1190.06 795.66 966.02 912.42 1279.89 1228.36 1354.57 1144.15 1385.54 1204.93"/></g><path class="cls-4" d="M237,217c6.78-1.23,13.93,8.87,15.62,11.2,15.4,21.27,59.26,61.7,81.13,81.87,36,33.21,68.16,46.38,64.1,59.83-.84,2.81-2.52,3.13-11.19,11.34,0,0-5.13,8.88-23.42,25.63-15.57,14.26-47.54,59.38-71.15,110.47a462.46,462.46,0,0,0-36.68,118.43c-3.76,23.11-6.37,39.18-4.86,61.87.66,9.86,4.37,54.91,34,103.4a253.68,253.68,0,0,0,37.56,46.84c13.36,13.19,24.74,24.42,43.31,33.59,11.67,5.76,20.19,5.73,35.35,13.7a97,97,0,0,0,18.12,7.66,120.15,120.15,0,0,0,14.73,3.24c10.21,1.79,17,3,26.36,3.68a184.4,184.4,0,0,0,32.7-.44c8.48-.91,14.87-1.64,23-4.57,6.6-2.39,6.07-3.24,16.35-8.1a202.06,202.06,0,0,1,30.35-11.34c5-1.43,4.9-1.18,13.84-3.39,24.42-6,29-8.89,46.84-12.37a125.15,125.15,0,0,1,21.36-2.65,135.25,135.25,0,0,1,16.06.58,266.4,266.4,0,0,1,30.63,4.28c10.49,2,15.74,2.94,19.3,4.42a123.54,123.54,0,0,0,13,4.56,25.49,25.49,0,0,0,8,1.33,24.18,24.18,0,0,0,8.39-1.77c8-3.13,13.73-9.52,16.35-12.52,0,0,10.2-11.68,12.21-23.82.26-1.54.41-3.12.41-3.12s.17-1.83.2-3.55c.06-4.59-2.41-11.23-2.51-11.2s.34,1.23,1,3.69c2.06,7.3,2.54,7.35,2.79,9.87.3,3-.3,3.78.59,5.45a7.78,7.78,0,0,0,3.83,3.24c5.8,2.53,14.22-2,15.47-2.66,8.63-4.61-121.79,65.73,34.91-16.2,18.55-9.7,27.86-14.57,29.47-15.59a76.49,76.49,0,0,1,10.3-5.62,53.27,53.27,0,0,1,16.2-5c3.4-.41,7-.27,14.14,0,.76,0,4.54.18,9.73.3h.06c2.72.06,10.4.17,13.19,0,6.47-.4,11.73-3.8,16.79-7.07,3.79-2.45,4-3.27,9.43-6.78a68.17,68.17,0,0,0,7.19-4.9c2.49-2,4.55-4,4.6-3.94a28.31,28.31,0,0,0-4.87,5.45,23.25,23.25,0,0,0-3.09,7.22,8.68,8.68,0,0,0-.44,3.24,8.29,8.29,0,0,0,1.91,4.42c2.4,3,7,3.81,13.11,4.42a111.76,111.76,0,0,0,13.7.74c19.41-.84,29.12-1.26,41.54-4a131.54,131.54,0,0,0,14.44-3.83c14.35-4.77,23.76-10.89,35.35-18.56,3.57-2.36,17.84-11.94,25-21.8a62.25,62.25,0,0,0,3.73-5.87,49.9,49.9,0,0,0,5.11-13.57c1.38-6.87.74-12.37.59-12.38s3.3,16.71-5.31,30.64a60.39,60.39,0,0,1-12.07,13.85c-3.18,2.54-6.68,4.68-10.9,9.57-3.63,4.2-4.41,6.51-4.72,8.1-.25,1.28-.37,3,1.77,10s3.87,12.6,7.66,17.67a43.56,43.56,0,0,0,4,4.54,40,40,0,0,0,4.71,4,36.13,36.13,0,0,0,3.47,2.21c2.89,1.63,4.69,2.14,4.65,2.27s-2.87-.86-8.54-2.8a9,9,0,0,1-4-2.21,8.24,8.24,0,0,1-1.77-3.09c-1-2.82-2.8-5.28-4.12-8s-4.8-9.69-11-13.11c-4.38-2.4-8.56-2.2-14.58-1.91-2.67.12-6.54.5-16.94,3.38-9.51,2.64-12.55,4.07-25,7.81-6.84,2.05-10.31,3.08-13,3.39-6.81.8-11.05-.24-20-1.47-6.79-.94-13.65-1.36-20.47-2.07-15.33-1.57-23-2.36-32.85-2.94-15.11-.89-21.82-.54-28.87.73a102,102,0,0,0-11.34,2.8c-11.4,3.49-15.49,6.76-41.39,20.92-11,6-18.69,10-21.51,11.49l-9.13,4.71c-13.76,7.08-16,8.16-20.77,10.9a121.76,121.76,0,0,0-11.64,7.37,118.86,118.86,0,0,0-9.72,8c-7.05,6.36-17.48,15.77-22.09,26.81-1.26,3-2.36,6.48-2.36,6.48a90,90,0,0,0-2.65,10.9c-2.16,10.38-7.67,19.13-8.4,18.86-.46-.18,1.09-4,2.51-12.08a73,73,0,0,0,1.47-15.32c-.13-5.16-.29-9.83-3-15a20,20,0,0,0-4.42-6.18c-3.18-2.91-6.47-3.7-19.14-6.19-8.11-1.59-9.14-1.77-9.14-1.77-25.61-4.4-24.87-4.31-25.63-4.42-17.16-2.48-35.33-.34-43.3.59a216.46,216.46,0,0,0-56.57,14.73c-17.1,7-26.69,13.64-31.52,17.24a89.68,89.68,0,0,0-28.28,33.14,100.38,100.38,0,0,0-7.95,20.33c-4.44,17.1-2.13,31.45-.3,42.12a136.38,136.38,0,0,0,16.5,44.78c5.1,8.73,4.9,6.09,16.79,24.16,10.06,15.28,12.11,20,19.74,30a195.31,195.31,0,0,0,17.68,20,232.58,232.58,0,0,0,40.36,32.7c41,25.68,81.56,30.31,99,32.11,2.77.29.08,0,21.51,1.48,42.79,3,49.07,4,68.34,4.71,14.6.53,25.13.89,39.77,0,18.49-1.12,28.26-1.72,41-5.89,10.43-3.43,10.14-5.1,35.06-15.91,12.13-5.26,18.2-7.9,24.45-9.72a143.79,143.79,0,0,1,37.12-5.3c10.51-.2,19.38,1,37.12,3.53,19.42,2.72,29.13,4.08,41.83,6.78,7.24,1.53,14.54,3.29,25,3.24,9,0,15.23-1.39,15.32-.89.13.71-12,4.63-26.51,6.19a136.87,136.87,0,0,1-41.83-2.06c-14.83-3.23-15.91-3.54-15.91-3.54-7.87-2.25-10.89-3.89-16.2-3.24-2,.24-7.71.94-10.9,5.3-.83,1.13-1.71,2.81-2.36,9.14a64,64,0,0,0-.3,14.14c1.42,13.58,8.29,28.12,11.49,34.47,4.51,8.93,9.25,18.32,18.27,29.16a135.79,135.79,0,0,0,36.82,30.34c14.06,8,25.84,11.48,35.06,14.15,21.71,6.27,38.53,7.19,60.1,8.24,19.68,1,39.58,1.93,66-2.06a289,289,0,0,0,51.55-13,348,348,0,0,0,63.64-28.58s19.16-11.14,56.56-38.88c9.63-7.14,8.69-7.94,12.8-9.66,1.48-.62,3.77-1.43,4.29-3.31.57-2.07-1.4-4.12-3.25-6.48-2.78-3.57-4.45-7.89-6.77-11.78-4.51-7.55-3.27-7.88-8.84-18.86-6.14-12.08-6.87-10.16-10-18-2.06-5.12-3.54-10.39-5.59-10.31-1.05.05-1.4,1.46-4.13,4.42a39.68,39.68,0,0,1-4.12,3.83c-5.49,4.77-16.67,19.51-18,21.21-7.1,9.32-5.62,5.3-19.74,21.8-5.77,6.76-14.93,17.84-20.62,23.13a32.26,32.26,0,0,0-3.45,3.47c-3.49,4.21-4.1,7.51-5.68,7.43-.85,0-1-1-3-3.24a31.58,31.58,0,0,0-3.83-3.68c-4.92-4.4-29.6-30.81-48.9-49.94-8.09-8-6.22-5.82-16.94-16.35-14-13.78-23.62-23.82-30.2-30.64-5.46-5.65-5.27-5.39-43.16-43.45q-27.18-27.32-54.35-54.65c-67.3-67.66-73.81-74.19-78.95-79.69-7.5-8-8.9-10.38-13.7-14-1.86-1.4-9.05-6.59-10.17-9.57a4.85,4.85,0,0,0-2.21-2.93c-.56-.27-1-.24-1-.46-.23-.82,4.85-2.95,5.9-3.39,5.11-2.17,9.75-5.33,14.73-7.81,27.76-13.85,55-28.63,82.63-42.86,70-36.1,105-54.14,106.23-55.44.24-.24,3.88-4,5.72-3,1,.52.51,2,2.13,4.42,1,1.44,1.52,1.48,2.73,3.24a16.43,16.43,0,0,1,1.69,3.17c1.28,3,5.84,10.67,10.39,18.34,7.24,12.21,14.29,24.53,21.65,36.67,13,21.48,26.53,45,45.66,78.37,0,0,37.64,65.57,51.08,87.77l3.16,5.2c3.58,5.89,3.06,5,3.68,6,1.69,2.87,1.65,3,1.89,3.08,3.54,1.8,16.23-16.55,23.42-26.22.79-1.07,11-12.64,31.52-35.8,20.93-23.65,26.23-29.21,39.62-44.63,12.91-14.87,19.36-22.3,20.77-24.16,2.07-2.72,4.58-5.07,6.63-7.8,1.61-2.15,2.51-3.58,3.39-3.39,1.43.3,1.52,4.66,1.77,7.36.71,7.7,3.64,11.7,7.07,19.3,3.83,8.52,4.58,13.37,9.28,29.75,3.07,10.73,8.77,27.78,20.18,61.87,15.07,45,15.15,42.79,15.25,44.79,0,.87.19,4.4,1.68,4.85,2.18.65,5.63-5.7,11.2-14.58,7.83-12.48,6.91-9.33,13-19.3,3.48-5.72,7.52-13.78,15.62-29.9,1.21-2.42,3.88-7.76,6.77-15,2.42-6.07,3.64-9.18,4.27-13.41.54-3.55,1.45-9.62-.88-16-4-11.09-14.93-15.7-17.53-16.8,0,0-10.51-4.44-25.23-.86a23.16,23.16,0,0,0-7.91,3.22c-3.83,2.54-5.75,5.66-6,5.45s1.14-3.53,4-6.48c3.2-3.35,6.75-4.71,11.78-6.63a80.18,80.18,0,0,1,10.61-3.09,42.83,42.83,0,0,1,7.8-1.48c1.78-.12,2.78,0,5.75-.29a36.8,36.8,0,0,0,4.86-.59,23.71,23.71,0,0,0,6-2.21,39.13,39.13,0,0,0,10.16-7.81,85.15,85.15,0,0,0,11.2-14.43,117.54,117.54,0,0,0,9.28-18.41,262.06,262.06,0,0,0,13-45.52c7.25-41.73,5.33-76.17,3.53-105.47a220.69,220.69,0,0,0-9.42-47.13c-2.24-7.15-6.16-18.22-16.28-26.66a27.39,27.39,0,0,0-7.29-4.86c-11.56-4.91-24,1.54-38.89,9.28-7.09,3.68-17.67,9.28-28.5,20.32-5.09,5.19-11,11.23-15.54,21.22a67.69,67.69,0,0,0-5.89,24.74c-.33,9.09,1.62,10.54.44,19.89a87.82,87.82,0,0,1-4.13,16.79c-1.93,6-4.47,12.24-5,12.08s1-4.74,1.91-12.23a107.5,107.5,0,0,0,.59-14c0-7.11-.45-9-.51-18.87a39.75,39.75,0,0,1,3.6-18.84,83,83,0,0,1,5.9-11.19c13-22,10.24-21.24,14.14-26.22a12.83,12.83,0,0,0,2.79-6.49,7.52,7.52,0,0,0-.73-4.71c-1.66-2.92-5.2-3.48-5.6-3.53-2.8-.4-4.34.93-9.72,3.24-2.46,1.05-5,1.83-7.51,2.8,0,0-9,3.48-19,6.48-4.94,1.48-12.1,2.43-26.22,4.27-5,.65-4.81.59-34.62,3.83-7.76.84-10.64,1.16-15.17,1.18-4.72,0-6.41-.31-10.75.14a40.32,40.32,0,0,0-11.79,2.8,28.27,28.27,0,0,0-6.33,3.54c-2.67,2-4.12,3.9-8,9.13-4,5.49-6,8.24-6.62,9.13-5.2,7.85-5.93,10.76-11,17.53-1.77,2.34-4.49,5.7-4.86,5.45s1.33-2.76,3.24-6.92a64.47,64.47,0,0,0,4.71-13.85c.37-1.76,0-.47,1.33-10.31.7-5.25.87-6.11.73-7.81a18.75,18.75,0,0,0-3.53-9.72c-2.53-3.35-6-4.88-13-7.95a62.68,62.68,0,0,0-6.78-2.65c-11.15-3.53-20.91-2.29-20.92-2.51s5.15-.29,11.79-.58c5.94-.26,6.2-.35,8.1-.3a42.16,42.16,0,0,1,11.49,1.47c3.29,1,3.15,1.54,11.19,5.45,5.11,2.49,7.67,3.73,9.73,4.27a43.34,43.34,0,0,0,13.4,1c2.52-.1,4.61-.34,6.63-.58,5.74-.68,6.39-1.2,10.16-1.33,2.58-.09,2.91.14,6.63,0,1.33,0,1.86-.1,5.3-.29l5.45-.3c4.24-.21,7.76-.12,12.52,0,8.85.23,8,.55,11.6.41,2.86-.11,2.64-.28,10.79-1,5.77-.51,6.17-.45,8.77-.77s5.33-.77,10-1.77c5-1.07,10.84-2.3,17.57-4.31a143.58,143.58,0,0,0,25.07-9.83,165.57,165.57,0,0,0,30.94-21.43l9.83-9c7.11-6.49,8.53-7.8,10.38-9.61,5.47-5.34,8.21-8,10.17-10.72a51.33,51.33,0,0,0,8-17.23,60.45,60.45,0,0,0,2-14.92,79.73,79.73,0,0,0-1-14.36,120.82,120.82,0,0,0-5.74-23.86,96,96,0,0,0-9.5-19.84c-1.17-1.84-1.89-2.8-3.76-5.79-4-6.33-6.27-10.89-8-14-3.27-6.11-5.9-10.23-11.16-18.45-1.3-2-5.89-9.17-13.48-19.66-2-2.72-13.69-18.89-27-34.47-27.67-32.5-59.13-59-63.19-62.42,0,0-48.27-40.39-106.35-69.82-22.3-11.29-46.25-21.8-46.26-21.8-12.72-5.58-12.86-5.26-23.27-10-10-4.58-15-7.21-23.86-10a90.38,90.38,0,0,0-15.32-3.83s-15.77-2.34-35.65,3.53c-5.48,1.62-8.67,3.28-10.9,6.19-1.34,1.75-2.59,4.29-2.94,4.12s.35-1.61.59-4.12a26.25,26.25,0,0,0,0-3.83c-.2-2.92-3-12.78-8-19.15-11.22-14.57-39.77-23.27-39.77-23.27-39-13-71-15.91-71-15.91-25.58-3.86-45.53-5.91-85.43-10-22-2.25-31.57-3-43-3.53-13.6-.6-26-.45-51-.15-17,.21-30.46.59-46.54,2.21-4.93.5-11.14,1.21-18.86,2.65a146.61,146.61,0,0,0-27.4,7.37c-8.25,3.17-12.35,4.79-17.08,8.54-3.17,2.51-11,8.93-13.55,19.74a30.25,30.25,0,0,0-.3,14.14c.75,3.17,1.76,4.72,2.65,9.43a58.77,58.77,0,0,1,.89,8.83c.41,7.86.61,11.78.59,15.32-.07,10-.12,17.06-2.66,25.93a75.14,75.14,0,0,1-7.65,17.38c-4.25,7.53-7.2,10.36-8.84,11.78-4.17,3.61-8.81,5.76-9.14,5.31s3.63-3,7.37-7.66c1-1.2,3.7-4.81,6.78-13.26a82.69,82.69,0,0,0,5.59-29.46c0-7.71-1.13-13.5-2.35-19.74a143.53,143.53,0,0,0-4.72-17.68c-2.8-8.63-4.19-12.94-6.77-16.79a39.8,39.8,0,0,0-14.14-12.66c-10.62-5.75-21.53-4.87-33.59-3.25a394.31,394.31,0,0,0-59.51,12.67c-15.21,4.71-30.9,10.17-47.72,16.79-22.7,8.95-40.86,16.1-63.34,28.58-25.2,14-51.26,30.64-51.26,30.64-6.89,4.4-6.78,4.45-7.66,4.71-39.15,11.74-102.95-133.89-126.47-160-.95-1.06-9.13-10-6.69-14.38.54-1,1.55-1.63,3.54-2.95a32.22,32.22,0,0,1,7.07-3.53c4.52-1.63,6.9-3.85,12.08-7.37s7.65-4.61,29.46-16.79C392.44,112.78,389.68,114,395.48,111c6.76-3.58,16.07-8.21,44.48-19.74C461.8,82.35,472.72,77.92,486.8,73a754.32,754.32,0,0,1,78.07-22.39c23.77-5.54,42.68-8.68,79.54-14.73,46.47-7.62,69.7-11.43,103.4-15,21.66-2.31,56.59-5.48,99.87-6.78,14.57-.43,53.19-1.35,102.52.89,7.15.32,54.63,2.54,83.38,6.77,2.76.41,12,1.82,25,3.54,12.59,1.66,16.39,2,25.33,3.24,12.31,1.71,21.22,3.33,28.87,4.71,46.48,8.37,46.56,7.78,63.64,11.2,33.4,6.68,58.18,14,81.89,20.91,17.31,5.08,38.41,11.32,66,21.51,5.47,2,28.68,10.66,58.92,24.16,14.35,6.4,30.07,13.42,50.38,24.15A742.87,742.87,0,0,1,1499,174.3c8.3,5.47,22.9,15.3,40.61,28.43,6.68,5,17,12.6,29.5,22.83,24.23,19.76,41.34,36.5,52.15,47.13,17.51,17.22,31.68,32.64,42.13,44.49a893.16,893.16,0,0,1,127.85,190.31c9.27,18.76,19.12,38.7,29.46,67.16a583.15,583.15,0,0,1,27.4,106.94,611.21,611.21,0,0,1,7.36,84.85c1.17,47.16-2.79,83.51-5.3,105.76-3,26.83-6.54,46.85-8.84,59.8A1000.38,1000.38,0,0,1,1816,1040.71c-7.2,24.08-15.3,50.84-30.35,85.14A577.22,577.22,0,0,1,1700,1265.78c-9.76,12.06-40.14,48.83-88.09,92.21-23.53,21.29-53.61,48.51-98.39,77.48a656.92,656.92,0,0,1-160.27,75.42c-64.86,20.18-116.68,25-132,26.22-16.88,1.36-90.51,6.57-163.79-10.61a514,514,0,0,1-62.16-19.15c-18.81-7.25-29.7-11.45-43.9-19.74-9.15-5.34-36.91-21.55-61.86-49.78-5-5.7-11-13.11-21.8-21.21-7.47-5.63-16.77-12.48-30.35-15.62-8.36-1.93-17.17-2.18-23.57-2.35-7.16-.21-7.79.25-15,0-9.93-.35-14.32-1.4-23.57-2.36-10.64-1.1-14.61-.72-25-1.18-9.64-.42-17.89-1.25-40.36-4.42-34.11-4.8-70.8-10-103.4-17.38-17.23-3.92-34.14-8.47-34.14-8.47s-7.18-1.93-13-3.61c-34.35-9.88-72.47-28.28-72.47-28.28-22.9-11-40-19.33-58.92-33-69.1-50-96.8-125.61-101.34-142-3.67-13.23-8-26.27-11.78-39.48-2.43-8.5-3.05-11-5-15-7.36-15.3-19.3-23.88-24.75-27.69-1.84-1.29-5.73-3.92-22.39-11.49-26.34-12-34-13.33-49.79-21.8a214.28,214.28,0,0,1-24.15-15.32c-43.08-30.52-76.32-78.13-86-92.21A495.21,495.21,0,0,1,55.8,850.69a477.7,477.7,0,0,1-35-130.8c-9.08-75.4,2.24-133.46,8.54-164.38,12.76-62.7,33.48-108.57,46.25-136.4C90,387.62,102,367.9,105.3,362.54c19.54-31.7,38.29-53.62,55.68-73.94,14.33-16.76,22-25.68,33.58-35.65,9.27-8,17.13-13.31,24.45-21.21,2.34-2.52,5.49-5.21,11.79-10.6C234.39,218.06,235.46,217.29,237,217Z" transform="translate(-17.36 -13.47)"/><path class="cls-4" d="M234.18,217.31c.81-1.74,15-12.06,43.31-32.7,8-5.81-.21.21,35.1-24.91,5.11-3.64,5.17-3.68,5.55-3.82,21.77-7.62,41.67,67,107.41,128.62,9.08,8.52,31.63,28.6,26.49,42-.74,1.9-3.74,4.39-9.72,9.27-13.69,11.19-19.88,13.95-30.44,23-7.25,6.25-8.47,8.51-10.66,10.11C372,390.16,212.85,263,234.18,217.31Z" transform="translate(-17.36 -13.47)"/></svg>