<svg id="Layer_1" data-name="Layer 1" xmlns="http://www.w3.org/2000/svg" viewBox="0 0 1972.83 1837.96"><defs><style>.cls-1{fill:#8b1d40;}.cls-2{fill:#fff;}</style></defs><title>Q_Maroon with White Fill and White Background_Digital</title><path class="cls-1" d="M105.19,348.16c55.39-83.51,126.26-137.91,162.13-164.92A787.09,787.09,0,0,1,428.05,89.6c86-37.18,155.32-48.61,233.41-61.5A1364.81,1364.81,0,0,1,866.92,9.93c112.47-1.38,197.6,11.63,220.83,15.37,101.09,16.32,312.63,50.46,497.87,212.06,28.1,24.51,91.1,82.93,150.64,173.7,27.65,42.15,80.29,122.8,104.83,227.82,54.65,234-54.34,487.11-54.34,487.1h0s-36.87,100.93-146.73,207.72c-48,46.67-150.68,144.13-314.89,188-97.36,26-172.77,21.57-194.54,19.78-112.2-9.2-192.93-51.12-213.49-71-13.25-12.83-28-24.12-40.4-37.8-9-9.93-14.71-15.56-24.35-21.08-17.45-10-34.62-10.09-40-10.24-298.57-8.43-397.33-105.51-397.33-105.52-24.93-24.5-90.22-101.7-103.86-163.21-2.07-9.33-5.75-30.89-23.08-47.81-11.84-11.56-22.2-14-56.06-29.68-14-6.52-27.46-14.32-41.21-21.43-30-15.54-121-98.63-161.57-232.46C-39.72,573.42,89.77,371.41,105.19,348.16Z" transform="translate(-9.18 -9.83)"/><path class="cls-2" d="M416,353.64c-45,35.62-128.46,123.29-157.65,254.1-9,40.33-17.9,83.93-2.47,136,15,50.63,45.59,83.13,56,94,8.6,9,23.24,24.08,46.21,37,12.49,7,24.81,12,35,16.08,13.47,5.39,21.24,8.5,32.56,11.12,18,4.18,32.31,4.18,42.87,4.13,14.61-.09,23.28-.14,34.62-3.51,10.89-3.24,13.42-6.34,27.2-12.36,2.79-1.22,12.36-5.33,34.62-11.34,43-11.61,64.52-17.41,86.56-15.87,32,2.25,54.4,9.28,54.4,9.28,13.17,4.17,17.65,7.15,24.73,4.94,17.54-5.46,33.23-30.52,28.31-45.77a39.61,39.61,0,0,1-2.76-14.2c.05-5.13,1.26-9.12,3.82-12.05,1.62-1.87,3.62-3.12,4-2.78s-1.75,2.79-2.2,6.75a13.56,13.56,0,0,0,.2,4.12c1.47,8.33,5.31,14.36,6.84,23.27.92,5.37,0,5.67.93,6.75,4,4.47,18.61-1.78,55.43-21.11,37.12-19.49,34.57-19.57,41-21.3,29.28-7.86,40.13,5,59.76-6.52,8.49-5,25.22-18.37,28.44-21a67.31,67.31,0,0,0,6.63-5.85c3-3.29,4.37-5.79,5.41-5.44s1,3.11.79,4.8A12.3,12.3,0,0,1,965,772.5c-7.18,9.55-18.26,19.31-17.29,23.78,1.22,5.66,22.64,6.9,42.7,4.9,15.57-1.56,35.38-3.53,58-16,19.5-10.73,42.78-30.13,45.75-47,.65-3.7,2.73-21.08,0-27-.2-.44-1.3-2.7-.62-3.3s3.24,1.06,3.51,1.24c4.23,2.92,5.54,8.7,6,11.34a63.43,63.43,0,0,1-4.74,35.65c-11.33,22.46-29.32,24.49-28,35,.05.36.19.78.41,1.62,2,7.47,5.74,21.4,17.23,29.29a33.41,33.41,0,0,0,12.73,5.57c5.12,1,9.28.44,9.56,1.59.14.59-.79,1.72-6.07,4.08A30,30,0,0,1,1086,832a29.57,29.57,0,0,1-10.35-7.16c-6-12.47-12.32-20.4-14.44-21.15-1.5-.53-3.12-.9-3.12-.9a24.84,24.84,0,0,0-2.77-.5c-10.88-1.31-22,2.35-22,2.35-3.45,1.17-28.81,9.74-39.58,12.24-3.55.82-22.09-1.36-59-5.75,0,0-24.69-2.64-44.89.34a69.08,69.08,0,0,0-9.51,2.13c-9.14,2.67-13.4,5.29-30.92,14.84-60,32.73-66.59,32.72-81.6,47.61s-23.33,23.12-25.76,35.86a71.5,71.5,0,0,1-8,23.69c-.72,1.28-6.38,11.21-8.86,10.31-.43-.16-2.57-1.12,0-16.08,2.76-16.1,4.58-27.76,0-35.24-1.89-3.08-5.13-5.43-22.26-9.27-17.43-3.9-26.14-5.85-40.8-6.18-20.12-.46-48.61-1.1-81.61,12.36-20.59,8.4-55.31,22.78-69.86,58.12-6.63,16.08-6.41,30.21-6.19,39,.89,34.52,17.67,59.32,37.58,87.94,15.12,21.74,30.59,44,56.4,64.15,52.8,41.27,111.46,44.19,173.72,48.22,48.47,3.13,98.87,6.39,137.25-14.84,6.15-3.4,21.31-12.58,43.9-17.31,19.13-4,33.71-2.91,53.17-1.24,55.06,4.75,77.37,19.72,105.93,7,5-2.24,12.85-6.63,13.39-5.77.71,1.13-11,11.68-24.93,18.14-4.83,2.23-20,8.64-51.11,6.59-36.86-2.43-47.26-13.47-54.41-7.42-12.05,10.2,0,56.36,28.44,87.79,40.75,45,104,47,140.34,48.23,69.85,2.29,121.89-21.64,142.89-31.59,32.12-15.21,54.16-32.22,85.24-56.21,39.92-30.79,63.15-55.89,73.91-68.08,6.36-7.2,12-14,17-20.32,61.5-65.07,70.26-84.39,87.79-123,3.52-7.76,9.46-22.45,3.09-33.38-3.47-6-9.65-9.17-11.13-9.89a33.46,33.46,0,0,0-21.64-2.48c-2.8.61-9.37,2-14.77,7.32-5.15,5.07-5.94,10.44-7.16,10.15-1.61-.38-3.18-10.34,1.53-18.08,5.86-9.64,19.44-12.39,27.2-14.22,11.77-2.79,14.15-1.34,19.79-3.09,4.89-1.52,19-7.2,32.76-39.57,10.25-24,12.84-45,14.84-70.48,6-76,.51-113-13-137.25-5.07-9.13-11.29-16.51-20.2-18.76-3-.75-10.78-2.06-28.64,8.25-16,9.23-42.88,25-49.6,53.42-2.72,11.49,1.14,11.19-2,35.64,0,0-2.84,22-15.3,36.39-1.12,1.3-2.66,2.91-3.57,2.52-2.22-1,2.88-12.49,4.32-25.76,2.93-26.87-3.12-34,3-51.45,1.1-3.14,4.07-8.71,10-19.85,10.64-20,15.7-26.33,13.6-28.85-2.32-2.79-10.43,2.6-26,7.83-17,5.71-30.83,7.2-54,9.68-21.92,2.36-32.88,3.53-35.65,3.51-8.28-.07-16.15-.77-23.91,4.12-2.8,1.77-4.83,3.79-10.25,11.28-14,19.33-13.63,24-21.79,31.07-2.66,2.29-12.4,10.38-22.57,8.19-4.44-1-8.5-3.77-8.33-4.2s3.85,1.82,8.81,1.52c7.34-.43,12.39-6,13.29-7.11,1-1.24,2.51-3.23,5-9,2.53-6,5.63-13.44,6.49-23.8.52-6.35.75-9.59-1.1-12.94-2.2-4-5.77-5.68-11.54-8.24a57.91,57.91,0,0,0-21.43-5,41.35,41.35,0,0,0-16.49,2.48c-11.26,4.25-16.3,12.47-17,11.86s4.77-13.38,17-19.38c6-2.94,11.54-3.44,22.26-4,7.5-.41,11.68-.64,17,.31,9.9,1.75,13.65,6,20.71,9,9.33,4,16.11,2.42,32.36,1,35.32-3,32.76,1.72,59.14-2,10.51-1.46,23.79-3.4,40.19-9.58A139.5,139.5,0,0,0,1515,673.58c2.63-1.77,7.67-5.31,18.54-15.15,17.68-16,26.51-24,30-30.29,10.72-19.5,5.54-41.46,2.78-53.17-2.32-9.85-5.85-18.33-19.16-40.8-13.49-22.76-21.89-36.94-36.79-56.57-45-59.32-95.43-97.23-104.79-104.18a541,541,0,0,0-88.1-53.17s-18.93-11.24-82.54-37.71c-6-2.51-18.45-7.52-34.31-6.18-5.12.43-27.45,1.08-31.84,12.05-1.5,3.74-1,8.86-4.6,10.69-1.55.78-4,1-5.29-.17-2.75-2.58,2.78-9.32,2.78-17.63,0,0-.37-9.32-8-19.78-21.08-28.73-119.94-39.88-119.94-39.88C980.93,217.88,955,211.32,919,211.13c-39.36-.2-42.52,3.5-81.1,1.76-15.33-.7-25.52-1.77-40.39,1.64-11.28,2.6-42.73,9.82-50.69,31.23-5.15,13.82,4.44,18.31,2.88,53.68-.45,10.32-1.69,18.94-4.88,28.18-2.69,7.82-6.48,18.35-16.48,26.38a41,41,0,0,1-16.76,8c-4.71,1-10.2,1.24-10.51.1s5.65-2.72,12.22-8.19a45.26,45.26,0,0,0,8.66-9.89A65.37,65.37,0,0,0,731.16,323c3.94-16,1.13-29.55-.44-36.71-3.14-14.37-7.67-34.95-23.49-44.51-10.3-6.23-21.55-5.34-38.33-2.48-54.15,9.24-97.62,27.33-119.94,37.1-19.47,8.52-32.62,14.27-50.7,23.9C498.26,300.27,452.88,324.46,416,353.64Z" transform="translate(-9.18 -9.83)"/><path class="cls-1" d="M541.13,421.44c-.12,1.93-17.41-.69-40.4,5.77-12.49,3.51-35.65,10.32-46.16,29.68-4.3,7.91-4.86,15.37-5.77,25.55-1.34,15-2.42,27.14,4.12,35,9.56,11.53,23.4-.29,46.17,10.31,15.51,7.22,14.57,15.27,39.56,29.67,14.53,8.38,20.56,8.95,23.08,9.07,18.23.89,33.6-12.63,34.21-13.19,4.49-4.05,7-7.92,7.83-7.42,1.21.77-2.07,11.52-9.06,19-15,16-37.93,14.24-40.39,14-11.14-1-20.34-6.45-38.75-17.31s-17-12.91-26.38-16.49c-2.68-1-25.3-9.25-49.46.82-6.51,2.72-21.57,9-25.55,22.26-2,6.68.38,9.84,1.65,21.43.72,6.59,2.79,25.6-3.3,38.75-10.71,23.12-47.57,27.79-47.81,27.2-.12-.29,8.47-2.84,19.37-11.13,5.34-4.06,10.09-7.66,13.6-13.6,3.34-5.63,4.9-12.25,4.54-23.91-.9-28.42-11.56-32.09-7.83-43.69,5.36-16.71,28.85-13.11,37.09-33.79,1.57-3.94,1.29-5.49,1.65-24.73.52-28.31.78-42.47,1.65-45.34,8-26.74,44.12-41.66,70.07-43.69C524.12,414.17,541.24,419.51,541.13,421.44Z" transform="translate(-9.18 -9.83)"/><path class="cls-1" d="M343.72,703.6c1.7-.29,1.71,15,12.09,27,1.52,1.76,12.07,14,25.61,13.3,10.49-.5,12.3-6.35,37.35-25.48,2.73-2.09,8.23-5.34,15.3-10.85,6.64-5.17,10-7.75,12.21-10.31,9.48-10.74,9.49-20.7,17.8-27.72a40.08,40.08,0,0,1,6.2-4.06c16.91-8.85,23.21-1,69.47-2.84,23.08-.9,41.47-1.75,64.08-9.09,20-6.48,42.22-14.06,57.09-36.37,3.32-5,12.43-19.05,12.92-38.64.66-26.42-14.77-46-21.54-54.55-18.84-23.87-32.52-20.92-42-42.62-7.35-16.8-5.44-33-4.85-37.51.53-4.08,2.86-19.31,16.69-38.07,25.87-35.08,66.67-48.23,67.86-46,.45.83-6.43,4.22-19.39,15.34-21.58,18.53-46.94,40.3-47.39,68.76C623,458,629,469,630.76,472.13c8.11,14.44,19.41,19,28,25.38,22.27,16.61,32.12,50.06,31.78,73.11-.7,47.18-44.56,81.45-75.22,94.33-15.63,6.58-29.18,8.15-42.18,9.67-49.33,5.73-71.25-10.47-95.32,5.68-7.63,5.12-7.42,8.75-11.7,15.87-2.68,4.45-5.22,7.78-11.28,13.87-17.68,17.76-42.23,18.87-49.49,37.26-2.7,6.86.8,6.2-2.57,25.24-2.94,16.64-6.18,19.92-4,25.34,5.27,12.93,30.49,10.92,30.43,15.06,0,2.53-9.51,5.84-18.58,4.26-10.19-1.78-20.89-9.91-24-21-4.4-15.85,9-29.4,3.17-36.13-2.7-3.1-6-.71-13.65-2.27-15.31-3.11-27.07-17.76-31.59-31.06C340.71,715.21,342.28,703.84,343.72,703.6Z" transform="translate(-9.18 -9.83)"/><path class="cls-1" d="M657.15,1028.15c-3.89-1.21-7-7.66-6.32-12.73.35-2.77,1.77-4.78,2.78-11.13.54-3.35.27-3.6.14-3.66-1.1-.47-6.6,7.07-9.58,15.46-5.38,15.11-.85,20.46-6.6,26.48-4.93,5.17-11.24,4.35-14.85,11.5a21.4,21.4,0,0,0-1.74,6.22c-2.78,14.42,2,34.45,4.23,34.21,2-.21-3.75-15.92,4.6-31.78,6.62-12.57,19.07-19.55,30-25.66,8.33-4.67,13.15-7.37,20.4-9,21.64-4.76,29.56,8.1,52.07,3.77a48.17,48.17,0,0,0,21.81-9.95c2.4-2,12.11-10.27,13.33-22.35.31-3.12.22-8.13-1.24-8.51-1.26-.32-2.94,2.92-4.67,5.67a71.67,71.67,0,0,1-16.39,16.85,55.21,55.21,0,0,1-19.78,9c-24.08,5.27-36.54-12.66-52.31-4.69C664.93,1021.93,662,1029.66,657.15,1028.15Z" transform="translate(-9.18 -9.83)"/><path class="cls-1" d="M844.07,934.79c5.15-18.92,13.56-29.33,12.53-30.29s-12.2,9.09-19.49,25.14c-2.81,6.16-13.11,28.84-6.62,50.9,6.09,20.68,21,20.67,25.59,43.28,1.61,8,1,14.36,0,24.73-2.16,22.72-7.91,24.85-9.92,43.27-.39,3.55-3.54,35.52,11.49,50.08,5,4.84,11.32,6.78,12,5.57.92-1.63-9.35-6.91-13.17-19.84-2-6.6-1.78-13.69-1.45-27.15.08-3.46-.15-6.31.41-9,2.18-10.43,10.11-15.27,13.16-33.69,4.26-25.61-6.93-39.14,1-48.84,3.44-4.18,10.82-5.05,25.59-6.8a175.09,175.09,0,0,1,21.93-1.24c29.31.2,44.28.39,59.89,4.54,13.26,3.52,21,7.63,26.46,15.66,1.12,1.66,7.24,10.74,4.8,17.73-2,5.74-8.64,6.69-8.28,8.65s7.5,3.73,11.84,0c5.73-4.94,4.67-17.86,2.43-25.56-4-13.69-14.53-20.29-19.49-23.49-2.23-1.44-9.38-5.8-29.6-8.24-4.41-.54-11.92-1.28-37.6-.83-22.13.39-33.2.58-37.6.83-15.17.84-19,1.67-25.77-.83-3.51-1.29-17-6.25-22.28-20.61C837.86,957.59,840.89,946.49,844.07,934.79Z" transform="translate(-9.18 -9.83)"/><path class="cls-1" d="M724.13,482.85c2.3-.83-7.82-18.24-.83-33.79,5.17-11.49,17.09-16.21,29.27-21,7.42-2.94,38.51-15.24,62.65-1.65,6.43,3.62,11.93,8.83,14.42,7,2.91-2.13-3.1-10.38-3.09-20.4,0-21.78,28.48-38.4,36.48-43.07,14.8-8.65,27.81-11.54,43.58-15,29.91-6.65,40.38-2.76,55.75-13.81,9.68-7,7-19.77,16.9-23.49,8.12-3.05,16.39,1.28,16.56.62s-11.6-8-23.16-5.16c-10.42,2.6-11,14.16-20.61,19-21.78,10.88-35.39,5.54-62.23,12.37-18.62,4.73-51.32,13-62.34,37.09-3.74,8.16-5,18.07-13.3,21.64-6.57,2.81-11.92-.74-19.78-2.47-27-6-53.28,16.26-59.14,21.22-9.16,7.75-22.24,18.83-22.67,35C712.2,471.4,722.14,483.57,724.13,482.85Z" transform="translate(-9.18 -9.83)"/><path class="cls-1" d="M1154.43,306c2,1,2.49,3.78,2.56,4.21,1.2,7.8-12.58,10.3-20.3,24.67-4.42,8.24-6.27,19.3-2,26.35a14.88,14.88,0,0,0,1,1.5c2,2.35,5.82,4.23,17.54,8.4,16.82,6,25.22,9,34.42,10.3,16.2,2.36,26.42.33,26.58,1.65.19,1.52-13.06,6.95-28.85,6.59s-20.51-5.85-44.1-8.65c-7.42-.88-12.91-1.05-19.38-1.24a281.94,281.94,0,0,0-40.8,1.65c-45.33,5.7-75.84,28.85-75.84,28.85-22.16,16.82-48.05,47.18-48.84,71.92-.14,4.39-.12,28.38-1,39.37a66.91,66.91,0,0,0-.41,10.3c.3,6.05,1.35,7.67.41,9.48-1.76,3.38-10,3-19,2.47-15-.81-22.44-1.22-27.75-1.08-8.19.21-14.73,2.16-27.48,6-23.66,7.19-47,14.59-69.25,35.87-1.56,1.49-2.6,2.56-3.7,3.7-27.41,28.2-37.76,57-39.91,63.21a170.14,170.14,0,0,0-8.66,45.75c-1,14.48-1.81,23.43,0,35.86,1.7,11.64,5.37,24.8,4.12,44.1-.43,6.76-1.14,9.19-2.16,9.35-2.83.42-7.74-17.55-10.68-28.46-6.5-24.09-9.75-36.14-10.65-48.07-2.1-28,7.72-49.74,17.07-70.44,9.87-21.88,29.46-65,74.36-90.46,22-12.45,44.88-17.79,56.47-19.78,13.93-2.4,20.9-3.6,28.09-2.69,9.33,1.18,15.8,4.24,20.54.63,3.16-2.41,4.06-6.45,4.39-12.37,1.37-24.18-1.18-34.28,1.38-47,1.44-7.1,3.8-11.7,7.63-19.17,13.83-27,35.46-42.33,41.42-46.37,23.75-16.06,57.71-27.18,83.46-30.29,13.53-1.64,18.65-3.66,21.48-5.45a43,43,0,0,0,4.29-3c11.44-9.22,17.66-23.52,27.49-36.59C1135.31,317.88,1148.61,303.2,1154.43,306Z" transform="translate(-9.18 -9.83)"/><path class="cls-1" d="M888.17,623.4c.56.94,6.35-1.59,7.07-1.91,7-3,9.91-6.82,12.71-8.81,13.69-9.68,42.56,10.7,44.93,12.37,5,3.53,9.15,7.47,11.13,13.19a23.85,23.85,0,0,1,.82,11.54c-1.05,7-4.69,33.72,0,54,2.55,11,7.29,18.83,11.13,25.14s9.4,15.28,19.78,22.67c7.87,5.61,18.14,8.91,19.37,7,1.38-2.11-9.46-9.1-18.06-20.45-12.91-17-14.65-35.85-15.73-47.56-.61-6.56-2.85-33,17.31-75,13.69-28.55,35.67-74.4,87.38-103.45,32.88-18.48,62.57-21.61,96-25.15,21.31-2.24,55.69-5.56,97.68,5.36,18.46,4.8,40.58,10.55,63.89,28,11.49,8.61,38.08,29.15,49.05,65.95,8.85,29.7,7.13,68.67-8.18,79.29-1.8,1.24-7.24,4.49-6.66,6,.65,1.72,8.93,1.55,15.66-1.64,19-9,18.24-47.1,18.14-52.76-.76-40.19-23.36-69.34-32.15-80.37-23.07-29-50.24-41.86-62.24-47.4-20.53-9.48-37.51-12.69-52.34-15.25-14.46-2.5-48-7.16-92.74-1.24-36.91,4.88-76,10.05-115,38.33-1.29.93-30.17,22.33-50.56,53.72-10.87,16.74-16.3,25.11-18.69,36.13-1.58,7.32-1.38,12.1-4.94,14-7.36,4-16.16-12.67-36.27-15.66-14.67-2.19-27,2.82-32.15,4.94C899.27,610.67,887.27,621.9,888.17,623.4Z" transform="translate(-9.18 -9.83)"/><path class="cls-1" d="M1267.7,578c1.74,1.24-24.61,30.89-36.59,79.3a209.81,209.81,0,0,0-4.19,78.5c3,21.42,11.49,81.23,56.09,110.87,24.41,16.23,55.48,20.64,69.36,22.6.51.08,10.61.76,30.81,2.13,18.11,1.23,22.18,1.76,25.53-1.59,6.65-6.61,6-23.5-.92-31.22-1.7-1.9-4.2-3.72-6.63-8-2.18-3.9-4.31-9.84-3.12-10.69,2.28-1.63,20.9,12,26.87,33.6,5.55,20.1-1.18,42-14.29,54.72-12.61,12.26-30.61,14.29-31.44,12.49-.67-1.44,8.23-7.92,11.5-10.31,4.66-3.4,5.65-3.52,7.72-5.74.74-.79,7.88-8.57,6.08-13.78-1.43-4.12-7.86-5-44.55-8.34-9-.83-8.29-.8-10.23-.94a340.33,340.33,0,0,1-43.89-6.2A117.25,117.25,0,0,1,1247,841.47c-19.1-20.46-25.47-42.83-29.6-57.35-7.59-26.65-6.48-48-5.72-67,.68-16.89,2.15-47.16,16.58-81.08C1243.48,600.23,1266.12,576.83,1267.7,578Z" transform="translate(-9.18 -9.83)"/><polygon class="cls-1" points="970.56 916.5 1285.96 1233.97 1361.01 1149.35 1403.98 1239.05 1599.18 1606.21 1708.23 1461 1963.15 1837.96 1972.83 1826.03 1779.75 1232.45 1625.43 1425.16 1466.39 901.62 1339.46 1045.39 1195.69 799.17 970.56 916.5"/></svg>