<svg id="Layer_1" data-name="Layer 1" xmlns="http://www.w3.org/2000/svg" xmlns:xlink="http://www.w3.org/1999/xlink" viewBox="0 0 1990.52 1854.66"><defs><style>.cls-1{fill:none;}.cls-2,.cls-4{fill:#8c1d40;}.cls-3{clip-path:url(#clip-path);}.cls-4{fill-opacity:0;}.cls-5{fill:#fff;}</style><clipPath id="clip-path" transform="translate(-10.31 -1.61)"><rect class="cls-1" x="-34.89" y="-105.74" width="2069.75" height="2069.75"/></clipPath></defs><title>Q_White With Maroon Fill and Transparent Background</title><path class="cls-2" d="M330.16,202.33c206.45-154.83,459.31-114.89,623.13-89,204.47,32.29,504.43,79.67,667.64,343,122.32,197.35,167.4,515.3,0,712.15-170.42,200.4-472.3,170.92-667.64,151.85-100.73-9.83-250.28-26.16-403.2-125.67C423.91,1112.51,355.79,1013,254.24,864.73,165.53,735.2,121.18,670.43,115.47,592.44,99.89,379.61,308.63,218.47,330.16,202.33Z" transform="translate(-10.31 -1.61)"/><g class="cls-3"><path class="cls-4" d="M421,348.86c-45.36,35.93-129.6,124.38-159,256.35-9.07,40.69-18.06,84.68-2.49,137.22,13.48,45.45,42.06,78,56.5,94.86,18.68,21.86,31.71,30.5,38.35,34.49,10.35,6.23,21.44,10.52,43.61,19.1,15.59,6,23.39,9,32.86,11.22,18.16,4.22,32.59,4.22,43.24,4.17,14.74-.09,23.5-.13,34.93-3.54,11-3.27,13.54-6.39,27.44-12.48,2.82-1.22,12.48-5.37,34.93-11.43,43.39-11.71,65.09-17.57,87.33-16,32.28,2.26,54.88,9.36,54.88,9.36,13.29,4.2,17.81,7.21,25,5C756.14,871.64,772,846.36,767,831a40.43,40.43,0,0,1-2.79-14.34c.06-5.17,1.28-9.19,3.86-12.15,1.64-1.88,3.66-3.15,4-2.81s-1.76,2.82-2.22,6.81a13.78,13.78,0,0,0,.22,4.16c1.47,8.4,5.34,14.49,6.9,23.48.92,5.42,0,5.72.93,6.81,4,4.51,18.77-1.8,55.92-21.3,37.44-19.66,34.87-19.74,41.39-21.49,29.53-7.93,40.48,5,60.28-6.58,8.58-5,25.45-18.53,28.7-21.2a68.47,68.47,0,0,0,6.68-5.9c3.07-3.33,4.41-5.85,5.47-5.49s1,3.13.78,4.84a12.45,12.45,0,0,1-2.33,5.61c-7.25,9.63-18.42,19.48-17.44,24,1.23,5.71,22.84,7,43.07,4.94,15.72-1.57,35.69-3.57,58.57-16.15,19.67-10.83,43.16-30.39,46.16-47.41.66-3.73,2.75-21.26,0-27.23-.21-.45-1.32-2.72-.63-3.32s3.27,1.06,3.54,1.25c4.27,2.93,5.58,8.77,6,11.43a64,64,0,0,1-4.78,36c-11.42,22.66-29.58,24.7-28.27,35.34a15,15,0,0,0,.41,1.62c2,7.54,5.79,21.6,17.38,29.56a33.76,33.76,0,0,0,12.85,5.62c5.15,1,9.35.44,9.63,1.61.15.59-.79,1.73-6.12,4.12a30.4,30.4,0,0,1-18.36-1.31,29.85,29.85,0,0,1-10.45-7.23c-6-12.57-12.42-20.57-14.57-21.34-1.51-.53-3.14-.91-3.15-.91a25.26,25.26,0,0,0-2.79-.49c-11-1.33-22.15,2.36-22.15,2.36-3.48,1.18-29.07,9.83-39.93,12.35-3.59.84-22.3-1.36-59.56-5.79,0,0-24.91-2.67-45.29.34a70.61,70.61,0,0,0-9.59,2.15c-9.22,2.69-13.52,5.34-31.19,15-60.57,33-67.18,33-82.33,48s-23.53,23.34-26,36.18A71.92,71.92,0,0,1,741.77,936c-.73,1.3-6.44,11.3-8.94,10.4-.44-.16-2.6-1.13,0-16.22,2.79-16.25,4.62-28,0-35.55-1.91-3.11-5.18-5.49-22.46-9.35-17.58-3.94-26.37-5.91-41.16-6.25-20.3-.45-49-1.1-82.33,12.48-20.77,8.48-55.8,23-70.49,58.63-6.68,16.23-6.45,30.48-6.23,39.3.89,34.82,17.82,59.85,37.91,88.72,15.25,21.93,30.85,44.36,56.89,64.72,53.28,41.64,112.45,44.59,175.28,48.64,48.89,3.17,99.73,6.46,138.46-15,6.2-3.42,21.49-12.69,44.29-17.46,19.29-4,34-2.94,53.63-1.25,55.56,4.79,78.05,19.9,106.87,7.07,5.07-2.26,13-6.68,13.52-5.82.72,1.14-11.12,11.78-25.16,18.3-4.87,2.25-20.13,8.72-51.56,6.65-37.19-2.45-47.68-13.6-54.89-7.49-12.16,10.29,0,56.86,28.69,88.58,41.11,45.42,105,47.44,141.59,48.64,70.46,2.33,123-21.82,144.14-31.85,32.42-15.36,54.65-32.51,86-56.71,40.26-31.07,63.71-56.4,74.56-68.7,6.42-7.26,12.12-14.15,17.13-20.5,62.06-65.64,70.89-85.13,88.57-124.12,3.56-7.83,9.54-22.65,3.12-33.68-3.51-6-9.73-9.25-11.23-10a33.73,33.73,0,0,0-21.83-2.5c-2.83.61-9.46,2-14.91,7.39-5.18,5.11-6,10.53-7.21,10.24-1.63-.39-3.21-10.43,1.54-18.25,5.91-9.73,19.62-12.49,27.45-14.35,11.87-2.81,14.26-1.35,20-3.11,4.94-1.54,19.13-7.25,33.07-39.93,10.33-24.22,12.94-45.38,15-71.1,6-76.71.52-114-13.1-138.47-5.12-9.2-11.39-16.65-20.37-18.91-3-.77-10.87-2.09-28.91,8.31-16.14,9.32-43.25,25.25-50,53.9-2.74,11.58,1.15,11.29-2,35.95,0,0-2.86,22.15-15.43,36.72-1.13,1.3-2.69,2.94-3.61,2.54-2.24-1,2.91-12.6,4.37-26,2.95-27.12-3.16-34.33,3-51.91,1.1-3.17,4.11-8.79,10.09-20,10.74-20.18,15.84-26.57,13.72-29.11-2.35-2.81-10.53,2.63-26.19,7.9-17.13,5.76-31.11,7.27-54.48,9.77-22.12,2.38-33.17,3.56-36,3.53-8.35-.06-16.29-.77-24.12,4.17-2.81,1.78-4.86,3.81-10.34,11.37-14.11,19.5-13.75,24.26-22,31.35-2.67,2.31-12.5,10.47-22.76,8.27-4.49-1-8.58-3.81-8.4-4.24s3.89,1.83,8.88,1.53c7.4-.44,12.5-6.09,13.41-7.17,1.06-1.26,2.53-3.26,5-9.05,2.56-6,5.69-13.55,6.55-24,.53-6.41.76-9.68-1.11-13.06-2.21-4-5.83-5.73-11.64-8.31a58.35,58.35,0,0,0-21.63-5,41.58,41.58,0,0,0-16.63,2.5c-11.37,4.28-16.44,12.58-17.15,12s4.82-13.49,17.15-19.55c6-3,11.65-3.47,22.46-4.06,7.56-.41,11.78-.64,17.15.31,10,1.78,13.77,6,20.89,9,9.42,4,16.25,2.44,32.65,1.05,35.64-3.05,33.06,1.73,59.68-2,10.59-1.47,24-3.43,40.53-9.67a141.17,141.17,0,0,0,29-14.65c2.66-1.79,7.75-5.37,18.72-15.29,17.83-16.12,26.74-24.18,30.25-30.56,10.81-19.67,5.59-41.83,2.81-53.64-2.34-9.94-5.92-18.49-19.34-41.16-13.61-23-22.08-37.28-37.11-57.08-45.43-59.84-96.28-98.08-105.73-105.09a546.42,546.42,0,0,0-88.87-53.65s-19.11-11.34-83.28-38c-6.07-2.54-18.61-7.59-34.61-6.24-5.17.43-27.69,1.09-32.13,12.16-1.51,3.77-1,8.94-4.63,10.78-1.57.79-4,1.05-5.35-.17-2.77-2.61,2.81-9.41,2.81-17.78,0,0-.37-9.41-8.1-20-21.27-29-121-40.23-121-40.23a768.62,768.62,0,0,0-108.35-11.47c-7.48-.24-.77.09-59.58,0-16,0-35.57-.08-61.09,3-4.67.57-7,.77-9.25,1.28-11.38,2.61-43.11,9.89-51.14,31.49-5.18,14,4.48,18.48,2.91,54.16-.46,10.42-1.7,19.12-4.92,28.44-2.72,7.89-6.54,18.51-16.63,26.61a41.5,41.5,0,0,1-16.92,8.06c-4.73,1-10.28,1.25-10.6.1s5.71-2.74,12.34-8.26a45.85,45.85,0,0,0,8.74-10,66.07,66.07,0,0,0,9.3-21.23c4-16.1,1.14-29.8-.44-37-3.16-14.49-7.74-35.26-23.7-44.91-10.4-6.28-21.74-5.38-38.67-2.49-54.63,9.3-98.49,27.57-121,37.42-19.65,8.59-32.9,14.4-51.15,24.11C503.92,295,458.14,319.41,421,348.86Z" transform="translate(-10.31 -1.61)"/><path class="cls-5" d="M547.17,417.26c-.12,1.95-17.56-.7-40.75,5.82-12.61,3.54-36,10.42-46.58,29.94-4.34,8-4.9,15.51-5.82,25.78-1.36,15.18-2.44,27.38,4.16,35.34,9.64,11.63,23.61-.29,46.57,10.4,15.65,7.29,14.71,15.41,39.92,29.94,14.66,8.45,20.74,9,23.28,9.15,18.39.9,33.9-12.74,34.52-13.31,4.53-4.08,7.1-8,7.9-7.48,1.21.77-2.09,11.61-9.15,19.13-15.13,16.11-38.27,14.35-40.75,14.13-11.24-1-20.52-6.5-39.09-17.47s-17.19-13-26.61-16.63c-2.71-1-25.52-9.33-49.9.84-6.57,2.74-21.76,9.07-25.77,22.45-2,6.73.38,9.93,1.65,21.62.73,6.65,2.82,25.83-3.32,39.09-10.81,23.33-48,28-48.23,27.45-.13-.3,8.53-2.87,19.54-11.23,5.39-4.09,10.18-7.74,13.72-13.72,3.37-5.69,4.94-12.36,4.57-24.12-.9-28.68-11.65-32.38-7.89-44.08,5.41-16.86,29.11-13.23,37.42-34.09,1.58-4,1.3-5.55,1.66-25,.53-28.56.79-42.85,1.66-45.74,8.13-27,44.52-42,70.69-44.09C530,409.92,547.28,415.31,547.17,417.26Z" transform="translate(-10.31 -1.61)"/><path class="cls-5" d="M348,701.92c1.71-.28,1.72,15.17,12.2,27.28,1.53,1.77,12.17,14.09,25.83,13.42,10.58-.51,12.41-6.41,37.69-25.71,2.75-2.11,8.29-5.39,15.43-10.95,6.69-5.21,10-7.81,12.32-10.39,9.56-10.84,9.57-20.89,18-28a40.58,40.58,0,0,1,6.24-4.08c17.07-8.94,23.42-1,70.1-2.87,23.29-.92,41.83-1.77,64.65-9.17,20.14-6.54,42.6-14.18,57.58-36.69,3.36-5,12.55-19.22,13-39,.66-26.66-14.9-46.38-21.74-55-19-24.09-32.8-21.1-42.37-43-7.41-16.95-5.49-33.24-4.89-37.84.53-4.12,2.89-19.48,16.84-38.41,26.1-35.39,67.25-48.66,68.46-46.43.45.83-6.49,4.25-19.56,15.47C656,389.24,630.44,411.21,630,439.92c-.22,14.23,5.8,25.27,7.6,28.48,8.18,14.57,19.59,19.13,28.26,25.6,22.46,16.76,32.4,50.51,32,73.77-.7,47.59-45,82.16-75.88,95.17-15.78,6.62-29.44,8.21-42.56,9.74-49.77,5.79-71.88-10.57-96.16,5.73-7.71,5.17-7.49,8.83-11.81,16-2.7,4.48-5.26,7.84-11.38,14-17.84,17.92-42.6,19-49.92,37.59-2.73,6.91.81,6.24-2.6,25.46-3,16.79-6.24,20.1-4,25.57,5.31,13,30.76,11,30.69,15.19,0,2.55-9.59,5.9-18.74,4.3-10.27-1.8-21.07-10-24.18-21.21-4.43-16,9.11-29.67,3.2-36.45-2.72-3.13-6-.73-13.76-2.3-15.45-3.14-27.31-17.92-31.88-31.34C345,713.63,346.55,702.16,348,701.92Z" transform="translate(-10.31 -1.61)"/><path class="cls-5" d="M664.22,1029.35c-3.93-1.22-7-7.72-6.37-12.84.35-2.79,1.78-4.82,2.8-11.24.54-3.37.27-3.63.14-3.68-1.1-.48-6.66,7.13-9.67,15.59-5.42,15.25-.85,20.64-6.65,26.71-5,5.22-11.35,4.41-15,11.62a21.36,21.36,0,0,0-1.75,6.26c-2.81,14.55,2.06,34.77,4.26,34.52,2-.22-3.78-16.07,4.65-32.07,6.67-12.68,19.23-19.71,30.25-25.88,8.41-4.71,13.27-7.44,20.58-9,21.83-4.8,29.82,8.17,52.53,3.79a48.57,48.57,0,0,0,22-10c2.42-2,12.22-10.36,13.44-22.56.32-3.15.23-8.2-1.25-8.58-1.27-.33-3,3-4.71,5.72a72.06,72.06,0,0,1-16.53,17,55.74,55.74,0,0,1-20,9c-24.3,5.31-36.87-12.78-52.78-4.73C672.07,1023.07,669.14,1030.88,664.22,1029.35Z" transform="translate(-10.31 -1.61)"/><path class="cls-5" d="M852.79,935.16c5.2-19.09,13.69-29.59,12.65-30.56s-12.31,9.18-19.67,25.37c-2.83,6.21-13.22,29.09-6.67,51.35,6.14,20.86,21.21,20.85,25.82,43.66,1.62,8,1,14.49,0,25-2.19,22.93-8,25.07-10,43.66-.39,3.57-3.56,35.83,11.59,50.52,5,4.89,11.43,6.84,12.13,5.62.92-1.64-9.44-7-13.3-20-2-6.66-1.79-13.81-1.46-27.39.09-3.49-.14-6.36.41-9,2.21-10.52,10.21-15.4,13.29-34,4.29-25.84-7-39.49,1.06-49.27,3.46-4.22,10.91-5.1,25.81-6.86a179,179,0,0,1,22.13-1.25c29.56.2,44.67.39,60.41,4.57,13.39,3.57,21.24,7.71,26.7,15.8,1.13,1.68,7.31,10.85,4.84,17.89-2,5.8-8.71,6.75-8.35,8.73s7.56,3.77,11.94,0c5.78-5,4.72-18,2.46-25.78-4-13.81-14.66-20.47-19.67-23.7-2.25-1.46-9.46-5.86-29.86-8.32-4.44-.54-12-1.28-37.94-.83-22.33.38-33.49.58-37.93.83-15.3.85-19.15,1.69-26-.83C869.62,989,856,984,850.69,969.46,846.53,958.17,849.58,947,852.79,935.16Z" transform="translate(-10.31 -1.61)"/><path class="cls-5" d="M731.79,479.21c2.32-.83-7.89-18.4-.84-34.09,5.22-11.59,17.25-16.35,29.53-21.2,7.49-3,38.86-15.37,63.2-1.67,6.5,3.65,12.05,8.91,14.56,7.07,2.94-2.16-3.13-10.48-3.12-20.59,0-22,28.74-38.74,36.81-43.45,14.93-8.72,28.05-11.64,44-15.18,30.17-6.71,40.74-2.78,56.25-13.93,9.76-7,7-19.95,17-23.7,8.2-3.07,16.54,1.3,16.72.63s-11.71-8.11-23.37-5.2C972,310.52,971.44,322.18,961.74,327c-22,11-35.71,5.6-62.79,12.48-18.79,4.77-51.78,13.16-62.89,37.43-3.78,8.23-5,18.22-13.41,21.83-6.64,2.83-12-.75-20-2.5-27.27-6-53.77,16.41-59.67,21.41-9.24,7.82-22.44,19-22.88,35.35C719.76,467.66,729.78,479.94,731.79,479.21Z" transform="translate(-10.31 -1.61)"/><path class="cls-5" d="M1165.91,300.83c2,1,2.51,3.8,2.58,4.25,1.21,7.86-12.69,10.39-20.48,24.88-4.46,8.31-6.32,19.48-2.07,26.59a12.08,12.08,0,0,0,1,1.5c2,2.37,5.86,4.28,17.69,8.48,17,6,25.44,9.05,34.72,10.4,16.34,2.38,26.65.33,26.82,1.65.19,1.54-13.18,7-29.11,6.66s-20.69-5.91-44.49-8.73c-7.48-.89-13-1.05-19.55-1.24a282.21,282.21,0,0,0-41.16,1.66c-45.73,5.74-76.51,29.1-76.51,29.1C993,423,966.9,453.63,966.1,478.6c-.14,4.42-.12,28.62-1,39.71a68,68,0,0,0-.41,10.39c.3,6.1,1.36,7.74.41,9.57-1.77,3.41-10,3-19.12,2.49-15.1-.83-22.65-1.24-28-1.09-8.26.21-14.87,2.17-27.72,6.08-23.88,7.25-47.46,14.72-69.87,36.19-1.57,1.5-2.62,2.58-3.73,3.73-27.66,28.45-38.1,57.46-40.27,63.77-6.82,19.8-8.06,36.43-8.73,46.16-1,14.6-1.83,23.64,0,36.17,1.71,11.75,5.41,25,4.16,44.5-.45,6.82-1.16,9.27-2.19,9.42-2.85.43-7.8-17.7-10.77-28.7-6.56-24.31-9.84-36.46-10.75-48.5-2.12-28.22,7.79-50.18,17.23-71.07,10-22.07,29.71-65.58,75-91.25,22.16-12.57,45.28-17.95,57-20,14.06-2.41,21.1-3.63,28.35-2.71,9.4,1.19,15.94,4.28,20.73.63,3.18-2.42,4.08-6.49,4.43-12.47,1.37-24.4-1.2-34.59,1.38-47.4,1.45-7.16,3.83-11.8,7.7-19.34,14-27.19,35.77-42.7,41.79-46.78,24-16.2,58.22-27.42,84.2-30.56,13.64-1.65,18.81-3.7,21.67-5.49a45.09,45.09,0,0,0,4.32-3c11.55-9.29,17.82-23.71,27.73-36.91C1146.61,312.78,1160,298,1165.91,300.83Z" transform="translate(-10.31 -1.61)"/><path class="cls-5" d="M897.28,621c.57,1,6.42-1.6,7.14-1.92,7.05-3.07,10-6.88,12.82-8.89,13.81-9.76,42.94,10.79,45.33,12.48,5,3.55,9.23,7.53,11.23,13.3a24,24,0,0,1,.83,11.64c-1.06,7.07-4.73,34,0,54.48,2.57,11.13,7.36,19,11.23,25.36s9.47,15.4,19.95,22.87c8,5.66,18.3,9,19.55,7.07,1.39-2.13-9.55-9.17-18.22-20.63-13-17.2-14.79-36.17-15.88-48-.61-6.62-2.87-33.27,17.46-75.68,13.82-28.8,36-75.06,88.16-104.37,33.18-18.64,63.12-21.8,96.89-25.37,21.5-2.26,56.18-5.61,98.55,5.41,18.62,4.84,40.92,10.64,64.45,28.28,11.59,8.68,38.41,29.41,49.48,66.52,8.94,30,7.21,69.29-8.24,80-1.83,1.26-7.31,4.53-6.73,6.08.66,1.73,9,1.56,15.8-1.66,19.13-9.07,18.41-47.52,18.3-53.22-.76-40.54-23.56-70-32.43-81.09-23.28-29.21-50.69-42.23-62.79-47.82-20.72-9.56-37.84-12.8-52.82-15.38-14.58-2.53-48.42-7.22-93.55-1.25-37.24,4.93-76.65,10.13-116,38.67-1.29.94-30.43,22.52-51,54.19-11,16.89-16.45,25.33-18.86,36.46-1.59,7.38-1.39,12.19-5,14.13-7.43,4-16.31-12.77-36.6-15.8-14.79-2.2-27.18,2.85-32.44,5C908.49,608.17,896.38,619.5,897.28,621Z" transform="translate(-10.31 -1.61)"/><path class="cls-5" d="M1280.18,575.16c1.77,1.25-24.82,31.16-36.91,80a211.59,211.59,0,0,0-4.23,79.2c3,21.61,11.59,81.95,56.59,111.85,24.63,16.37,56,20.82,70,22.8.5.08,10.7.77,31.08,2.15,18.27,1.23,22.37,1.77,25.76-1.6,6.7-6.68,6-23.72-.94-31.5-1.71-1.92-4.23-3.76-6.67-8.12-2.21-3.93-4.37-9.92-3.16-10.78,2.29-1.64,21.09,12.08,27.11,33.9,5.6,20.28-1.2,42.35-14.42,55.21-12.72,12.36-30.87,14.42-31.73,12.59-.66-1.44,8.32-8,11.61-10.39,4.71-3.43,5.71-3.56,7.8-5.79.74-.8,7.94-8.65,6.12-13.91-1.44-4.16-7.92-5-44.93-8.42-9.11-.83-8.37-.79-10.33-.93a346.13,346.13,0,0,1-44.28-6.26A118.36,118.36,0,0,1,1259.29,841c-19.27-20.64-25.7-43.21-29.87-57.85-7.65-26.89-6.53-48.44-5.76-67.6.68-17,2.17-47.57,16.73-81.8C1255.74,597.64,1278.59,574,1280.18,575.16Z" transform="translate(-10.31 -1.61)"/><polygon class="cls-5" points="979.35 925.02 1297.56 1245.31 1373.26 1159.94 1416.62 1250.43 1613.55 1620.85 1723.58 1474.36 1980.76 1854.66 1990.52 1842.62 1795.73 1243.78 1640.04 1438.19 1479.58 910.01 1351.53 1055.05 1206.48 806.65 979.35 925.02"/></g><path class="cls-5" d="M233,208c6.87-1.26,14.12,9,15.83,11.34,15.62,21.57,60.08,62.56,82.25,83,36.51,33.67,69.1,47,65,60.65-.86,2.85-2.56,3.18-11.35,11.5,0,0-5.2,9-23.75,26-15.78,14.46-48.19,60.2-72.12,112a468.4,468.4,0,0,0-37.19,120.07c-3.81,23.43-6.46,39.71-4.92,62.72.66,10,4.43,55.67,34.49,104.83a257.57,257.57,0,0,0,38.08,47.49c13.54,13.36,25.08,24.75,43.9,34,11.84,5.85,20.47,5.81,35.84,13.89a98.25,98.25,0,0,0,18.37,7.77,120.52,120.52,0,0,0,14.94,3.28c10.35,1.82,17.25,3,26.73,3.74a187.11,187.11,0,0,0,33.15-.45c8.59-.92,15.07-1.66,23.29-4.63,6.7-2.42,6.15-3.29,16.58-8.22a205.77,205.77,0,0,1,30.76-11.49c5.1-1.45,5-1.19,14-3.44,24.75-6.13,29.45-9,47.49-12.54A127,127,0,0,1,646,866.81a136.86,136.86,0,0,1,16.28.6,267.59,267.59,0,0,1,31.06,4.33c10.63,2,15.95,3,19.56,4.48a124.24,124.24,0,0,0,13.14,4.63,25.89,25.89,0,0,0,8.07,1.34,24.6,24.6,0,0,0,8.51-1.79c8.15-3.17,13.92-9.66,16.57-12.69,0,0,10.35-11.84,12.38-24.15.26-1.57.41-3.16.41-3.16s.18-1.86.21-3.61c.06-4.65-2.45-11.37-2.54-11.35s.34,1.25,1,3.74c2.09,7.4,2.59,7.45,2.84,10,.3,3.05-.31,3.84.6,5.53A7.76,7.76,0,0,0,778,848c5.87,2.57,14.41-2,15.68-2.68,8.75-4.68-123.47,66.63,35.39-16.43,18.81-9.84,28.25-14.77,29.88-15.81a77.91,77.91,0,0,1,10.44-5.69,53.86,53.86,0,0,1,16.43-5.08c3.45-.42,7.07-.28,14.33,0,.77,0,4.6.18,9.86.3h.06c2.76.06,10.54.17,13.38,0,6.56-.4,11.89-3.85,17-7.17,3.84-2.49,4-3.31,9.56-6.87a71.55,71.55,0,0,0,7.29-5c2.52-2,4.61-4.05,4.66-4a28.47,28.47,0,0,0-4.93,5.52,23.56,23.56,0,0,0-3.14,7.32,8.72,8.72,0,0,0-.44,3.29,8.29,8.29,0,0,0,1.94,4.48c2.42,3,7.06,3.86,13.29,4.48a112,112,0,0,0,13.88.74c19.68-.85,29.52-1.27,42.12-4a131.68,131.68,0,0,0,14.63-3.88c14.56-4.84,24.09-11,35.84-18.82,3.62-2.39,18.09-12.1,25.39-22.1a61.34,61.34,0,0,0,3.78-6,50.78,50.78,0,0,0,5.18-13.76c1.4-7,.76-12.54.59-12.54s3.35,16.94-5.37,31.06a61.25,61.25,0,0,1-12.25,14c-3.22,2.58-6.77,4.75-11,9.71-3.67,4.25-4.46,6.6-4.78,8.21-.25,1.3-.37,3,1.8,10.16s3.92,12.78,7.76,17.92a43.52,43.52,0,0,0,4,4.6,41.06,41.06,0,0,0,8.29,6.25c2.93,1.65,4.76,2.16,4.72,2.29s-2.92-.87-8.67-2.84a9,9,0,0,1-4-2.24,8.23,8.23,0,0,1-1.79-3.13c-1-2.85-2.84-5.35-4.18-8.07s-4.87-9.82-11.2-13.29c-4.44-2.43-8.68-2.23-14.78-1.94-2.7.13-6.63.51-17.18,3.44-9.63,2.67-12.72,4.12-25.38,7.91-6.94,2.08-10.46,3.12-13.15,3.44-6.9.8-11.19-.24-20.31-1.5-6.88-1-13.83-1.38-20.75-2.09-15.54-1.6-23.31-2.4-33.3-3-15.32-.9-22.12-.54-29.27.75a101.76,101.76,0,0,0-11.5,2.84c-11.56,3.53-15.7,6.85-42,21.2-11.14,6.09-19,10.16-21.81,11.65l-9.25,4.78c-13.95,7.18-16.26,8.27-21.06,11a123.11,123.11,0,0,0-11.8,7.47,118.54,118.54,0,0,0-9.85,8.06c-7.15,6.45-17.72,16-22.4,27.18-1.28,3-2.39,6.57-2.39,6.57a90.68,90.68,0,0,0-2.69,11c-2.19,10.52-7.78,19.39-8.51,19.12-.47-.18,1.1-4,2.54-12.25a73.48,73.48,0,0,0,1.49-15.53c-.13-5.23-.29-10-3-15.23a20.17,20.17,0,0,0-4.48-6.27c-3.23-3-6.57-3.75-19.41-6.28-8.21-1.61-9.26-1.79-9.26-1.79-26-4.47-25.22-4.37-26-4.48-17.4-2.52-35.83-.35-43.91.6a219.21,219.21,0,0,0-57.34,14.93c-17.34,7.15-27.06,13.83-32,17.47a90.88,90.88,0,0,0-28.67,33.6A102.3,102.3,0,0,0,508,962.38c-4.5,17.35-2.16,31.89-.3,42.71a138.26,138.26,0,0,0,16.72,45.4c5.18,8.85,5,6.17,17,24.49,10.2,15.49,12.27,20.33,20,30.46a198.2,198.2,0,0,0,17.92,20.31,236.32,236.32,0,0,0,40.91,33.15c41.55,26,82.69,30.73,100.36,32.56,2.8.29.08,0,21.8,1.49,43.39,3.07,49.75,4.07,69.29,4.78,14.8.54,25.48.9,40.32,0,18.74-1.14,28.64-1.74,41.51-6,10.57-3.48,10.28-5.17,35.54-16.13,12.31-5.34,18.46-8,24.79-9.86a146.27,146.27,0,0,1,37.63-5.37c10.66-.2,19.65,1.06,37.64,3.58,19.68,2.76,29.53,4.14,42.41,6.87,7.33,1.56,14.74,3.34,25.38,3.29,9.07-.05,15.44-1.41,15.53-.9.13.71-12.19,4.69-26.88,6.27a138.63,138.63,0,0,1-42.41-2.09c-15-3.27-16.12-3.58-16.12-3.58-8-2.28-11-3.94-16.43-3.29-2,.25-7.81,1-11.05,5.38-.83,1.13-1.73,2.84-2.39,9.26a65,65,0,0,0-.3,14.33c1.44,13.78,8.4,28.51,11.65,35,4.57,9.06,9.37,18.58,18.52,29.56a137.38,137.38,0,0,0,37.33,30.77c14.25,8.1,26.19,11.63,35.54,14.33,22,6.36,39.06,7.3,60.93,8.36,19.95,1,40.12,2,66.9-2.09,23.27-3.51,40.32-9.14,52.26-13.14a352.78,352.78,0,0,0,64.52-29s19.43-11.3,57.34-39.42c9.76-7.24,8.81-8,13-9.79,1.5-.63,3.82-1.45,4.34-3.35.58-2.11-1.42-4.18-3.28-6.57-2.83-3.62-4.52-8-6.87-12-4.57-7.65-3.31-8-9-19.11-6.22-12.26-7-10.31-10.16-18.22-2.09-5.2-3.59-10.55-5.67-10.46-1.07,0-1.42,1.48-4.18,4.48a42,42,0,0,1-4.18,3.89c-5.57,4.83-16.9,19.77-18.22,21.5-7.2,9.45-5.7,5.37-20,22.1-5.86,6.85-15.14,18.08-20.91,23.45a32.09,32.09,0,0,0-3.49,3.51c-3.54,4.27-4.16,7.62-5.77,7.54-.85-.05-1-1-3-3.29a33.13,33.13,0,0,0-3.89-3.73c-5-4.46-30-31.24-49.58-50.63-8.2-8.12-6.3-5.89-17.17-16.57-14.22-14-23.94-24.15-30.61-31.06-5.53-5.74-5.34-5.47-43.76-44.06q-27.55-27.67-55.1-55.4c-68.23-68.59-74.83-75.22-80-80.79-7.6-8.11-9-10.53-13.89-14.18-1.89-1.42-9.18-6.69-10.3-9.71a5,5,0,0,0-2.25-3c-.57-.27-1-.24-1-.46-.24-.83,4.92-3,6-3.44,5.19-2.2,9.9-5.4,14.94-7.91,28.15-14.05,55.82-29,83.77-43.46,70.94-36.59,106.41-54.89,107.7-56.21.24-.24,3.93-4,5.8-3.07,1,.53.51,2,2.16,4.48,1,1.45,1.54,1.5,2.76,3.28a16.21,16.21,0,0,1,1.72,3.21c1.29,3.08,5.92,10.82,10.53,18.59,7.34,12.38,14.49,24.88,22,37.19,13.19,21.77,26.9,45.65,46.29,79.44,0,0,38.16,66.48,51.79,89l3.2,5.27c3.63,6,3.1,5,3.73,6.11,1.71,2.91,1.67,3,1.91,3.12,3.59,1.83,16.46-16.78,23.75-26.58.8-1.08,11.18-12.82,31.95-36.29,21.22-24,26.6-29.61,40.17-45.25,13.09-15.07,19.63-22.61,21.06-24.49,2.09-2.75,4.64-5.14,6.72-7.91,1.63-2.17,2.55-3.62,3.43-3.44,1.46.31,1.54,4.73,1.8,7.47.72,7.8,3.7,11.85,7.16,19.56,3.89,8.64,4.66,13.56,9.41,30.17,3.12,10.87,8.9,28.15,20.46,62.72,15.28,45.66,15.36,43.38,15.47,45.41,0,.88.19,4.46,1.7,4.91,2.21.67,5.71-5.78,11.35-14.78,7.94-12.65,7-9.46,13.14-19.56,3.53-5.8,7.63-14,15.83-30.32,1.23-2.45,3.94-7.87,6.87-15.23,2.45-6.15,3.69-9.31,4.33-13.59.54-3.6,1.47-9.76-.89-16.28-4.07-11.23-15.14-15.91-17.77-17,0,0-10.66-4.5-25.58-.88a23.51,23.51,0,0,0-8,3.27c-3.88,2.57-5.83,5.74-6.13,5.52s1.16-3.57,4-6.57c3.25-3.39,6.85-4.77,11.94-6.72a82.32,82.32,0,0,1,10.75-3.13,43.72,43.72,0,0,1,7.92-1.5c1.8-.12,2.81,0,5.82-.29a37.39,37.39,0,0,0,4.93-.6,24.28,24.28,0,0,0,6.12-2.24,39.43,39.43,0,0,0,10.31-7.92,86.41,86.41,0,0,0,11.35-14.63,117.22,117.22,0,0,0,9.41-18.67,264.81,264.81,0,0,0,13.14-46.14c7.35-42.31,5.41-77.22,3.58-106.92a223.63,223.63,0,0,0-9.56-47.79c-2.27-7.24-6.24-18.47-16.5-27a27.75,27.75,0,0,0-7.39-4.93c-11.72-5-24.31,1.57-39.42,9.41-7.19,3.73-17.92,9.42-28.9,20.61-5.16,5.26-11.16,11.38-15.75,21.5a69.06,69.06,0,0,0-6,25.09c-.33,9.21,1.64,10.69.45,20.16a88.76,88.76,0,0,1-4.18,17c-2,6.06-4.53,12.42-5.08,12.25s1-4.8,1.94-12.4a108.66,108.66,0,0,0,.6-14.18c0-7.21-.46-9.1-.51-19.13a45.35,45.35,0,0,1,.66-9.84,46.41,46.41,0,0,1,3-9.26,84.32,84.32,0,0,1,6-11.35c13.19-22.26,10.39-21.53,14.34-26.58a13.06,13.06,0,0,0,2.83-6.57,7.67,7.67,0,0,0-.74-4.78c-1.69-3-5.28-3.53-5.68-3.58-2.84-.41-4.4.94-9.85,3.28-2.49,1.07-5.09,1.86-7.62,2.84,0,0-9.16,3.53-19.26,6.57-5,1.5-12.27,2.47-26.59,4.33-5.07.66-4.87.59-35.09,3.88-7.87.86-10.79,1.18-15.38,1.2-4.79,0-6.49-.31-10.9.15a40.94,40.94,0,0,0-11.95,2.83,29.12,29.12,0,0,0-6.42,3.59c-2.71,2-4.18,4-8.06,9.26-4.08,5.56-6.12,8.35-6.72,9.25-5.27,8-6,10.91-11.2,17.78-1.8,2.37-4.55,5.77-4.93,5.52s1.35-2.8,3.28-7a65,65,0,0,0,4.78-14c.38-1.79,0-.48,1.35-10.45.71-5.33.88-6.19.74-7.91a19,19,0,0,0-3.58-9.86c-2.56-3.39-6.09-4.95-13.14-8.06a62.24,62.24,0,0,0-6.87-2.69c-11.31-3.58-21.2-2.31-21.21-2.54s5.22-.3,11.95-.59c6-.27,6.29-.35,8.21-.31a42.65,42.65,0,0,1,11.65,1.5c3.34,1,3.2,1.55,11.35,5.52,5.18,2.52,7.77,3.78,9.86,4.33a44.33,44.33,0,0,0,13.59,1c2.56-.11,4.67-.36,6.72-.6,5.82-.69,6.48-1.21,10.3-1.34,2.62-.09,3,.14,6.72,0,1.35,0,1.89-.1,5.38-.3l5.52-.3c4.29-.21,7.86-.13,12.7,0,9,.24,8.06.55,11.76.41,2.89-.11,2.67-.28,10.93-1,5.85-.51,6.25-.46,8.89-.78s5.4-.78,10.19-1.79c5.1-1.09,11-2.34,17.81-4.37a145,145,0,0,0,25.42-10A167.48,167.48,0,0,0,1548.47,662c.8-.71,3.86-3.5,10-9.07,7.21-6.57,8.65-7.91,10.53-9.74,5.55-5.42,8.32-8.12,10.3-10.87a52.37,52.37,0,0,0,8.07-17.47,61.77,61.77,0,0,0,2-15.12,80.87,80.87,0,0,0-1-14.56,121.88,121.88,0,0,0-5.82-24.19,97.75,97.75,0,0,0-9.63-20.12c-1.19-1.86-1.91-2.83-3.81-5.86-4-6.42-6.36-11-8.06-14.23-3.31-6.19-6-10.37-11.32-18.7-1.32-2.07-6-9.3-13.66-19.94-2-2.75-13.88-19.15-27.33-34.94-28-32.95-59.94-59.83-64.06-63.28,0,0-48.94-40.95-107.82-70.78-22.6-11.45-46.89-22.11-46.89-22.11-12.9-5.65-13-5.33-23.59-10.15-10.17-4.64-15.22-7.31-24.2-10.15a92.11,92.11,0,0,0-15.53-3.89s-16-2.37-36.13,3.59c-5.56,1.64-8.8,3.32-11.06,6.27-1.35,1.77-2.62,4.35-3,4.18s.35-1.64.6-4.18a27,27,0,0,0,0-3.88c-.2-3-3.1-13-8.07-19.42-11.37-14.77-40.32-23.59-40.32-23.59-39.55-13.19-72-16.13-72-16.13-25.93-3.92-46.16-6-86.61-10.15-22.26-2.29-32-3.08-43.6-3.59-13.79-.61-26.42-.45-51.67-.15-17.22.21-30.89.6-47.19,2.24-5,.5-11.3,1.23-19.12,2.69a148.71,148.71,0,0,0-27.77,7.47c-8.37,3.22-12.53,4.85-17.32,8.66-3.22,2.55-11.17,9-13.74,20a30.64,30.64,0,0,0-.3,14.33c.76,3.22,1.78,4.79,2.69,9.56a60.6,60.6,0,0,1,.89,9c.42,8,.62,11.95.6,15.53-.07,10.15-.12,17.29-2.69,26.28a76.34,76.34,0,0,1-7.76,17.63c-4.31,7.63-7.3,10.51-9,11.94-4.23,3.66-8.93,5.84-9.26,5.38s3.68-3,7.46-7.77c1-1.21,3.75-4.87,6.87-13.44a83.7,83.7,0,0,0,5.68-29.86c0-7.82-1.15-13.69-2.39-20a144.13,144.13,0,0,0-4.78-17.92c-2.84-8.75-4.26-13.13-6.87-17a40.2,40.2,0,0,0-14.34-12.84c-10.76-5.83-21.82-4.93-34-3.29a399.51,399.51,0,0,0-60.33,12.85c-15.43,4.77-31.33,10.3-48.39,17-23,9.07-41.42,16.32-64.21,29-25.54,14.19-52,31.06-52,31.06-7,4.46-6.87,4.51-7.76,4.78-39.7,11.9-104.38-135.74-128.21-162.23-1-1.08-9.26-10.16-6.79-14.58.55-1,1.58-1.65,3.58-3a33.33,33.33,0,0,1,7.17-3.59c4.58-1.65,7-3.9,12.25-7.47s7.75-4.67,29.86-17c22.91-12.79,20.11-11.53,26-14.63,6.86-3.63,16.29-8.32,45.1-20,22.14-9,33.21-13.49,47.48-18.52a762.77,762.77,0,0,1,79.15-22.7c24.1-5.62,43.27-8.8,80.64-14.93C693.13,16.55,716.68,12.68,750.85,9c22-2.33,57.37-5.55,101.25-6.86C866.86,1.73,906,.8,956,3.07c7.24.33,55.38,2.58,84.53,6.87,2.8.41,12.17,1.84,25.38,3.58,12.77,1.69,16.62,2,25.69,3.29,12.48,1.74,21.51,3.38,29.27,4.78,47.12,8.48,47.2,7.88,64.51,11.35,33.87,6.77,59,14.15,83,21.2,17.54,5.15,38.93,11.47,66.9,21.81,5.54,2,29.07,10.8,59.73,24.49,14.55,6.49,30.48,13.6,51.07,24.49a756.74,756.74,0,0,1,66.31,39.72c8.41,5.55,23.21,15.51,41.16,28.82,6.78,5,17.21,12.78,29.92,23.15,24.56,20,41.91,37,52.86,47.78,17.75,17.46,32.12,33.09,42.71,45.1a905.75,905.75,0,0,1,129.62,192.94c9.4,19,19.38,39.24,29.87,68.09A591.56,591.56,0,0,1,1866.36,679a619.69,619.69,0,0,1,7.47,86c1.18,47.82-2.84,84.67-5.38,107.23-3.06,27.2-6.63,47.5-9,60.62A1013.84,1013.84,0,0,1,1833.81,1043c-7.3,24.42-15.51,51.55-30.76,86.32a585,585,0,0,1-86.91,141.86c-9.9,12.22-40.69,49.51-89.31,93.48-23.85,21.59-54.35,49.18-99.75,78.55a665,665,0,0,1-162.47,76.46c-65.77,20.46-118.29,25.33-133.8,26.58-17.12,1.39-91.76,6.67-166.06-10.75a525.21,525.21,0,0,1-63-19.41c-19.07-7.36-30.11-11.61-44.5-20-9.28-5.42-37.43-21.86-62.72-50.48-5.1-5.77-11.19-13.29-22.1-21.5-7.57-5.7-17-12.65-30.76-15.83-8.48-2-17.41-2.21-23.9-2.39-7.26-.2-7.9.26-15.23,0-10.06-.35-14.52-1.42-23.89-2.39-10.8-1.12-14.82-.73-25.39-1.19-9.77-.43-18.13-1.28-40.92-4.48-34.58-4.88-71.77-10.11-104.83-17.63-17.47-4-34.6-8.58-34.6-8.58s-7.28-2-13.18-3.66c-34.83-10-73.47-28.67-73.48-28.67-23.21-11.21-40.59-19.6-59.73-33.45-70.06-50.74-98.13-127.36-102.74-144-3.72-13.41-8.13-26.63-11.95-40-2.45-8.62-3.08-11.1-5.07-15.23-7.47-15.51-19.57-24.21-25.09-28.08-1.87-1.3-5.81-4-22.7-11.65-26.7-12.14-34.47-13.5-50.47-22.1A215,215,0,0,1,184,1029.28c-43.68-30.93-77.38-79.2-87.21-93.48a500.91,500.91,0,0,1-47.49-85.42,484.13,484.13,0,0,1-35.54-132.6C4.55,641.33,16,582.47,22.41,551.12,35.35,487.56,56.35,441.06,69.3,412.84c14.64-31.92,26.82-51.91,30.16-57.34,19.82-32.15,38.83-54.37,56.45-75,14.53-17,22.33-26,34.05-36.14,9.4-8.11,17.37-13.49,24.79-21.5,2.37-2.56,5.56-5.29,11.94-10.75C230.34,209,231.42,208.24,233,208Z" transform="translate(-10.31 -1.61)"/><path class="cls-5" d="M230.13,208.25C231,206.49,245.31,196,274,175.1c8.08-5.88-.21.22,35.59-25.25,5.18-3.68,5.24-3.73,5.63-3.87,22.07-7.73,42.24,67.88,108.89,130.4,9.21,8.64,32.06,29,26.85,42.53-.74,1.93-3.79,4.45-9.85,9.41-13.88,11.34-20.15,14.13-30.86,23.35-7.35,6.34-8.58,8.63-10.81,10.25C369.89,383.49,208.5,254.57,230.13,208.25Z" transform="translate(-10.31 -1.61)"/></svg>