<svg id="Layer_1" data-name="Layer 1" xmlns="http://www.w3.org/2000/svg" xmlns:xlink="http://www.w3.org/1999/xlink" viewBox="0 0 1990.52 1854.66"><defs><style>.cls-1{fill:none;}.cls-2{clip-path:url(#clip-path);}.cls-3,.cls-4{fill:#fff;}.cls-3{fill-opacity:0;stroke:#fff;stroke-miterlimit:10;stroke-width:8.21px;}</style><clipPath id="clip-path" transform="translate(-9.66 -7.93)"><rect class="cls-1" x="-35.55" y="-99.42" width="2069.75" height="2069.75"/></clipPath></defs><title>Q_White With Transparent Fill and Transparent Background</title><g class="cls-2"><path class="cls-3" d="M420.31,355.18C375,391.12,290.7,479.57,261.26,611.54c-9.08,40.69-18.06,84.68-2.49,137.22,13.47,45.45,42.05,78,56.5,94.86,18.68,21.86,31.7,30.5,38.34,34.49,10.35,6.22,21.44,10.51,43.62,19.09,15.59,6,23.38,9,32.85,11.23,18.16,4.21,32.59,4.22,43.24,4.16,14.75-.09,23.5-.13,34.94-3.54,11-3.26,13.54-6.39,27.44-12.47,2.81-1.22,12.47-5.37,34.93-11.43,43.39-11.72,65.09-17.57,87.32-16,32.29,2.26,54.89,9.35,54.89,9.35,13.29,4.21,17.81,7.21,24.94,5,17.7-5.51,33.53-30.79,28.57-46.18A40.07,40.07,0,0,1,763.56,823c.05-5.17,1.28-9.19,3.86-12.15,1.63-1.89,3.65-3.15,4.05-2.81s-1.76,2.82-2.22,6.81a13.79,13.79,0,0,0,.21,4.16c1.47,8.4,5.35,14.49,6.9,23.48.93,5.41-.05,5.72.94,6.81,4.05,4.51,18.77-1.8,55.91-21.3,37.45-19.66,34.88-19.74,41.39-21.49,29.54-7.93,40.48,5,60.29-6.58,8.57-5,25.44-18.53,28.69-21.21a66.62,66.62,0,0,0,6.69-5.89c3.06-3.33,4.41-5.85,5.46-5.49s1,3.13.79,4.84a12.51,12.51,0,0,1-2.33,5.61c-7.26,9.63-18.43,19.48-17.45,24,1.23,5.7,22.84,7,43.08,4.93,15.71-1.57,35.69-3.56,58.56-16.14,19.68-10.83,43.16-30.39,46.17-47.41.65-3.73,2.74-21.27,0-27.24-.22-.44-1.32-2.72-.63-3.31s3.26,1,3.53,1.24c4.28,2.94,5.59,8.78,6,11.44a64,64,0,0,1-4.78,36c-11.43,22.66-29.58,24.71-28.27,35.34a13.3,13.3,0,0,0,.41,1.63c2,7.54,5.79,21.59,17.37,29.56a34,34,0,0,0,12.86,5.62c5.15,1,9.35.44,9.62,1.61.15.59-.78,1.72-6.11,4.11a30.33,30.33,0,0,1-18.37-1.3,30,30,0,0,1-10.45-7.23c-6-12.58-12.41-20.58-14.57-21.34-1.51-.53-3.13-.91-3.14-.91a23.46,23.46,0,0,0-2.79-.49c-11-1.33-22.16,2.36-22.16,2.36-3.48,1.18-29.06,9.82-39.93,12.35-3.58.83-22.29-1.37-59.55-5.79,0,0-24.91-2.67-45.29.33a73.4,73.4,0,0,0-9.59,2.15c-9.23,2.7-13.52,5.34-31.2,15-60.56,33-67.17,33-82.33,48s-23.53,23.33-26,36.18a71.89,71.89,0,0,1-8.1,23.91c-.73,1.3-6.44,11.3-9,10.4-.43-.17-2.59-1.14,0-16.22,2.8-16.25,4.63-28,0-35.55-1.9-3.11-5.17-5.49-22.45-9.36-17.59-3.93-26.37-5.9-41.17-6.24-20.29-.45-49-1.1-82.33,12.48-20.77,8.47-55.8,23-70.48,58.63-6.68,16.23-6.46,30.48-6.24,39.29.89,34.83,17.83,59.85,37.92,88.73,15.25,21.93,30.85,44.35,56.89,64.71,53.28,41.65,112.45,44.59,175.27,48.65,48.89,3.16,99.73,6.46,138.47-15,6.19-3.43,21.48-12.69,44.28-17.46,19.3-4,34-2.94,53.64-1.25,55.55,4.79,78,19.9,106.87,7.06,5.07-2.25,13-6.67,13.52-5.81.71,1.14-11.12,11.78-25.17,18.3-4.86,2.25-20.13,8.72-51.55,6.65-37.19-2.45-47.68-13.6-54.89-7.49-12.17,10.29,0,56.86,28.69,88.58,41.1,45.42,105,47.44,141.59,48.64,70.46,2.32,123-21.82,144.14-31.85,32.42-15.36,54.65-32.51,86-56.72,40.26-31.07,63.71-56.39,74.56-68.69,6.41-7.26,12.11-14.15,17.12-20.5,62.06-65.64,70.9-85.13,88.57-124.12,3.56-7.84,9.55-22.65,3.13-33.68-3.51-6-9.74-9.25-11.23-10a33.73,33.73,0,0,0-21.83-2.5c-2.84.61-9.46,2-14.91,7.38-5.18,5.11-6,10.53-7.22,10.25-1.63-.39-3.2-10.43,1.54-18.25,5.92-9.73,19.63-12.5,27.45-14.35,11.87-2.81,14.27-1.35,20-3.12,5-1.53,19.13-7.25,33.07-39.92,10.33-24.22,12.94-45.38,15-71.1,6-76.71.52-114-13.1-138.47-5.11-9.21-11.39-16.65-20.36-18.91-3-.77-10.88-2.09-28.91,8.31-16.14,9.32-43.26,25.24-50,53.9-2.75,11.58,1.15,11.29-2,36,0,0-2.87,22.15-15.43,36.71-1.14,1.31-2.7,2.94-3.62,2.55-2.23-1,2.92-12.6,4.37-26,3-27.11-3.15-34.32,3-51.91,1.1-3.17,4.1-8.78,10.08-20,10.75-20.18,15.85-26.56,13.73-29.11-2.35-2.8-10.53,2.63-26.2,7.91-17.13,5.76-31.11,7.26-54.47,9.77-22.12,2.37-33.18,3.56-36,3.53-8.35-.06-16.29-.77-24.12,4.17-2.82,1.78-4.86,3.81-10.34,11.37-14.11,19.5-13.75,24.25-22,31.35-2.68,2.31-12.51,10.46-22.77,8.26-4.48-1-8.57-3.81-8.4-4.23s3.89,1.83,8.89,1.53c7.4-.44,12.5-6.09,13.41-7.18,1.06-1.25,2.53-3.25,5-9,2.56-6,5.69-13.55,6.55-24,.53-6.4.76-9.67-1.12-13-2.21-4-5.82-5.73-11.64-8.31a58.11,58.11,0,0,0-21.62-5,41.53,41.53,0,0,0-16.63,2.49c-11.37,4.29-16.45,12.59-17.15,12s4.81-13.49,17.15-19.56c6-3,11.64-3.46,22.45-4,7.57-.41,11.79-.64,17.15.31,10,1.77,13.78,6,20.9,9,9.42,4,16.25,2.44,32.64,1,35.65-3,33.06,1.74,59.68-2,10.6-1.47,24-3.44,40.53-9.67A140.58,140.58,0,0,0,1529,678c2.67-1.79,7.76-5.38,18.72-15.29,17.83-16.12,26.75-24.18,30.25-30.56,10.82-19.67,5.6-41.83,2.81-53.64-2.34-9.94-5.91-18.5-19.33-41.17-13.61-23-22.08-37.27-37.12-57.07-45.43-59.84-96.27-98.08-105.72-105.1a545.92,545.92,0,0,0-88.88-53.64s-19.1-11.34-83.27-38c-6.08-2.54-18.62-7.59-34.62-6.24-5.17.43-27.69,1.09-32.12,12.16-1.51,3.77-1,8.94-4.63,10.78-1.57.79-4,1-5.35-.18-2.78-2.6,2.81-9.4,2.81-17.77,0,0-.37-9.41-8.11-20-21.26-29-121-40.24-121-40.24a769.86,769.86,0,0,0-108.35-11.46c-7.48-.25-.78.09-59.58,0-16,0-35.57-.08-61.09,3-4.68.57-7,.76-9.25,1.27-11.38,2.62-43.11,9.9-51.15,31.5-5.18,14,4.49,18.48,2.91,54.16-.46,10.41-1.7,19.11-4.92,28.43-2.72,7.9-6.54,18.52-16.63,26.62a41.4,41.4,0,0,1-16.91,8.05c-4.74,1-10.28,1.26-10.6.11s5.7-2.74,12.33-8.26a45.8,45.8,0,0,0,8.74-10,65.88,65.88,0,0,0,9.31-21.23c4-16.1,1.14-29.81-.45-37-3.16-14.48-7.73-35.25-23.69-44.91-10.4-6.27-21.74-5.37-38.67-2.48-54.63,9.3-98.49,27.57-121,37.42-19.64,8.59-32.9,14.39-51.14,24.11C503.26,301.34,457.48,325.74,420.31,355.18Z" transform="translate(-9.66 -7.93)"/><path class="cls-4" d="M546.51,423.59c-.11,2-17.56-.7-40.75,5.82-12.6,3.54-36,10.41-46.57,29.94-4.34,8-4.91,15.5-5.83,25.78-1.35,15.18-2.44,27.37,4.17,35.34,9.63,11.63,23.6-.3,46.57,10.4,15.64,7.28,14.71,15.41,39.91,29.93,14.66,8.46,20.74,9,23.29,9.15,18.39.91,33.89-12.73,34.51-13.3,4.53-4.08,7.1-8,7.9-7.48,1.22.77-2.08,11.61-9.14,19.13-15.14,16.11-38.27,14.35-40.75,14.13-11.24-1-20.52-6.5-39.09-17.47s-17.19-13-26.61-16.63c-2.71-1-25.53-9.33-49.91.84-6.57,2.74-21.75,9.07-25.77,22.44-2,6.74.39,9.93,1.66,21.63.72,6.64,2.82,25.83-3.33,39.09-10.81,23.33-48,28-48.22,27.44-.14-.29,8.53-2.86,19.53-11.22,5.39-4.09,10.18-7.74,13.72-13.73,3.38-5.68,4.95-12.35,4.58-24.11-.9-28.68-11.66-32.39-7.9-44.08,5.42-16.86,29.11-13.23,37.42-34.1,1.59-4,1.31-5.54,1.66-24.95.54-28.55.8-42.84,1.67-45.74,8.12-27,44.51-42,70.69-44.08C529.36,416.24,546.63,421.64,546.51,423.59Z" transform="translate(-9.66 -7.93)"/><path class="cls-4" d="M347.35,708.24c1.71-.28,1.73,15.17,12.2,27.29,1.54,1.77,12.17,14.08,25.84,13.42,10.58-.51,12.41-6.41,37.68-25.71,2.75-2.11,8.3-5.4,15.44-11,6.69-5.21,10-7.82,12.32-10.4,9.56-10.84,9.56-20.88,18-28a40.58,40.58,0,0,1,6.24-4.08c17.07-8.94,23.42-1.05,70.09-2.87,23.29-.92,41.84-1.77,64.66-9.17,20.14-6.54,42.59-14.19,57.58-36.69,3.36-5,12.55-19.22,13-39,.67-26.66-14.9-46.38-21.73-55-19-24.08-32.8-21.1-42.37-43-7.42-16.95-5.5-33.24-4.9-37.84.54-4.13,2.89-19.48,16.85-38.42,26.09-35.39,67.25-48.65,68.46-46.43.45.83-6.49,4.26-19.57,15.48-21.77,18.69-47.36,40.65-47.81,69.37-.22,14.23,5.81,25.27,7.61,28.47,8.18,14.57,19.59,19.14,28.25,25.61,22.46,16.76,32.4,50.51,32.06,73.77-.71,47.58-45,82.16-75.88,95.16-15.78,6.63-29.45,8.22-42.57,9.74-49.76,5.8-71.88-10.56-96.16,5.74-7.7,5.16-7.49,8.83-11.81,16-2.69,4.49-5.25,7.85-11.37,14-17.84,17.92-42.61,19-49.92,37.59-2.73,6.91.8,6.24-2.61,25.46-3,16.79-6.23,20.1-4,25.57,5.31,13,30.75,11,30.69,15.19,0,2.55-9.59,5.89-18.74,4.3-10.28-1.8-21.07-10-24.18-21.22-4.43-16,9.1-29.66,3.2-36.45-2.73-3.13-6-.72-13.77-2.29-15.45-3.14-27.31-17.92-31.87-31.34C344.32,720,345.9,708.49,347.35,708.24Z" transform="translate(-9.66 -7.93)"/><path class="cls-4" d="M663.57,1035.67c-3.93-1.21-7-7.72-6.38-12.83.35-2.8,1.78-4.82,2.8-11.24.54-3.37.27-3.63.14-3.69-1.1-.47-6.65,7.13-9.66,15.6-5.43,15.24-.86,20.64-6.66,26.71-5,5.22-11.34,4.4-15,11.61a21.72,21.72,0,0,0-1.75,6.27c-2.81,14.55,2.07,34.77,4.27,34.51,2-.21-3.78-16.06,4.65-32.06,6.66-12.68,19.22-19.71,30.24-25.88,8.42-4.72,13.28-7.44,20.59-9.05,21.83-4.81,29.82,8.17,52.53,3.79a48.39,48.39,0,0,0,22-10c2.43-2,12.22-10.35,13.45-22.55.32-3.15.23-8.21-1.25-8.58-1.27-.33-3,3-4.72,5.72a72.21,72.21,0,0,1-16.52,17,55.48,55.48,0,0,1-20,9c-24.29,5.31-36.87-12.78-52.78-4.73C671.42,1029.4,668.49,1037.21,663.57,1035.67Z" transform="translate(-9.66 -7.93)"/><path class="cls-4" d="M852.14,941.49c5.2-19.09,13.68-29.59,12.65-30.56s-12.32,9.17-19.67,25.36c-2.83,6.22-13.23,29.1-6.67,51.36,6.13,20.86,21.2,20.85,25.81,43.65,1.63,8.06,1,14.5,0,25-2.18,22.93-8,25.07-10,43.66-.4,3.57-3.57,35.82,11.59,50.52,5,4.88,11.42,6.84,12.12,5.62.93-1.65-9.44-7-13.3-20-2-6.66-1.79-13.82-1.46-27.39.09-3.49-.14-6.37.42-9.05,2.2-10.52,10.2-15.4,13.28-34,4.3-25.84-7-39.49,1.06-49.27,3.47-4.22,10.92-5.1,25.81-6.86a182,182,0,0,1,22.13-1.26c29.57.21,44.67.4,60.42,4.58,13.39,3.56,21.24,7.71,26.7,15.8,1.12,1.68,7.31,10.84,4.84,17.89-2,5.8-8.72,6.75-8.36,8.72s7.57,3.77,12,0c5.78-5,4.71-18,2.45-25.77-4-13.82-14.66-20.48-19.66-23.7-2.25-1.46-9.46-5.86-29.86-8.32-4.45-.54-12-1.29-37.94-.83-22.33.38-33.49.58-37.93.83-15.31.85-19.15,1.69-26-.83-3.55-1.31-17.16-6.31-22.48-20.8C845.88,964.5,848.93,953.29,852.14,941.49Z" transform="translate(-9.66 -7.93)"/><path class="cls-4" d="M731.14,485.54c2.31-.84-7.9-18.4-.84-34.09,5.21-11.59,17.25-16.35,29.53-21.21,7.49-3,38.85-15.36,63.2-1.66,6.49,3.65,12.05,8.91,14.55,7.07,2.94-2.16-3.12-10.48-3.11-20.59,0-22,28.74-38.75,36.8-43.45,14.93-8.72,28.06-11.64,44-15.18,30.16-6.71,40.74-2.78,56.24-13.93,9.77-7,7-19.95,17-23.7,8.2-3.08,16.55,1.29,16.73.63.2-.81-11.72-8.12-23.38-5.2-10.5,2.62-11.09,14.27-20.79,19.12-22,11-35.71,5.59-62.79,12.48-18.78,4.77-51.77,13.16-62.89,37.42-3.77,8.23-5,18.23-13.41,21.84-6.63,2.83-12-.75-20-2.5-27.26-6-53.76,16.41-59.67,21.41-9.24,7.82-22.43,19-22.87,35.35C719.1,474,729.12,486.27,731.14,485.54Z" transform="translate(-9.66 -7.93)"/><path class="cls-4" d="M1165.25,307.16c2,1,2.52,3.8,2.58,4.24,1.22,7.87-12.69,10.39-20.47,24.89-4.46,8.31-6.33,19.47-2.07,26.59a12.26,12.26,0,0,0,1,1.5c2,2.37,5.87,4.28,17.69,8.47,17,6,25.45,9.06,34.72,10.4,16.35,2.38,26.65.34,26.83,1.66.19,1.54-13.19,7-29.11,6.65s-20.7-5.9-44.49-8.73c-7.49-.88-13-1.05-19.55-1.24a283.82,283.82,0,0,0-41.17,1.66c-45.73,5.75-76.5,29.11-76.5,29.11-22.36,17-48.48,47.6-49.28,72.56-.14,4.42-.12,28.63-1,39.72A67.8,67.8,0,0,0,964,535c.31,6.1,1.37,7.73.42,9.56-1.77,3.41-10.06,3-19.13,2.49-15.1-.82-22.65-1.23-28-1.08-8.27.2-14.87,2.17-27.72,6.08-23.88,7.25-47.47,14.71-69.87,36.18-1.57,1.51-2.62,2.59-3.73,3.73-27.67,28.46-38.1,57.47-40.27,63.78A171.24,171.24,0,0,0,767,701.93c-1,14.6-1.84,23.64,0,36.17,1.7,11.74,5.41,25,4.15,44.5-.44,6.82-1.16,9.27-2.18,9.42-2.85.43-7.81-17.7-10.78-28.71-6.55-24.3-9.84-36.46-10.74-48.5-2.12-28.22,7.78-50.17,17.22-71.07,10-22.06,29.72-65.57,75-91.24,22.17-12.57,45.28-18,57-20,14.06-2.42,21.09-3.63,28.34-2.71,9.41,1.19,15.95,4.28,20.73.63,3.18-2.42,4.09-6.5,4.43-12.48,1.38-24.39-1.2-34.58,1.39-47.39,1.44-7.17,3.83-11.81,7.69-19.35,13.95-27.18,35.77-42.7,41.79-46.77,24-16.21,58.23-27.42,84.21-30.56,13.64-1.65,18.8-3.7,21.66-5.5a42.3,42.3,0,0,0,4.32-3c11.55-9.3,17.83-23.72,27.74-36.91C1146,319.11,1159.39,304.3,1165.25,307.16Z" transform="translate(-9.66 -7.93)"/><path class="cls-4" d="M896.63,627.34c.57.94,6.41-1.6,7.14-1.92,7-3.08,10-6.89,12.82-8.89,13.8-9.77,42.94,10.79,45.33,12.48,5.05,3.55,9.23,7.53,11.22,13.3A23.78,23.78,0,0,1,974,654c-1.06,7.07-4.73,34,0,54.48,2.57,11.13,7.36,19,11.23,25.36s9.48,15.4,20,22.87c7.94,5.65,18.3,9,19.55,7.07,1.39-2.13-9.55-9.18-18.23-20.63-13-17.2-14.78-36.18-15.87-48-.61-6.62-2.88-33.26,17.46-75.67,13.81-28.81,36-75.06,88.16-104.37,33.17-18.64,63.12-21.81,96.88-25.37,21.5-2.27,56.18-5.61,98.55,5.4,18.62,4.85,40.93,10.65,64.45,28.28,11.59,8.69,38.42,29.41,49.49,66.53,8.93,30,7.2,69.29-8.25,80-1.82,1.25-7.31,4.53-6.73,6.08.66,1.73,9,1.56,15.81-1.66,19.13-9.07,18.4-47.52,18.3-53.23-.77-40.54-23.57-70-32.44-81.09-23.27-29.2-50.68-42.22-62.79-47.81-20.71-9.56-37.84-12.8-52.81-15.39-14.59-2.52-48.43-7.22-93.56-1.25-37.24,4.93-76.64,10.14-116,38.67-1.3.95-30.43,22.53-51,54.2-11,16.89-16.46,25.33-18.86,36.45-1.6,7.39-1.4,12.2-5,14.14-7.42,4-16.3-12.77-36.6-15.8-14.79-2.21-27.17,2.85-32.43,5C907.83,614.49,895.73,625.83,896.63,627.34Z" transform="translate(-9.66 -7.93)"/><path class="cls-4" d="M1279.52,581.49c1.77,1.24-24.82,31.16-36.91,80a211.82,211.82,0,0,0-4.23,79.2c3.06,21.61,11.59,82,56.59,111.86,24.64,16.37,56,20.81,70,22.8.51.07,10.7.76,31.09,2.14,18.26,1.24,22.36,1.78,25.76-1.6,6.7-6.67,6-23.71-.94-31.49-1.72-1.93-4.24-3.77-6.68-8.12-2.21-3.93-4.36-9.92-3.15-10.78,2.29-1.65,21.08,12.08,27.11,33.9,5.59,20.28-1.2,42.35-14.42,55.2C1411,927,1392.84,929,1392,927.19c-.67-1.44,8.31-8,11.6-10.4,4.71-3.42,5.71-3.55,7.81-5.79.74-.79,7.93-8.65,6.12-13.9-1.44-4.16-7.92-5-44.94-8.42-9.11-.83-8.36-.8-10.32-.94a343.59,343.59,0,0,1-44.28-6.26,118.22,118.22,0,0,1-59.34-34.14c-19.27-20.64-25.7-43.21-29.87-57.85-7.65-26.89-6.53-48.44-5.77-67.61.68-17,2.18-47.57,16.73-81.79C1255.09,604,1277.94,580.35,1279.52,581.49Z" transform="translate(-9.66 -7.93)"/><polygon class="cls-4" points="979.35 925.02 1297.56 1245.31 1373.26 1159.94 1416.62 1250.43 1613.55 1620.85 1723.58 1474.36 1980.76 1854.66 1990.52 1842.62 1795.73 1243.78 1640.04 1438.19 1479.58 910.01 1351.53 1055.05 1206.48 806.65 979.35 925.02"/></g><path class="cls-4" d="M232.31,214.28c6.88-1.25,14.12,9,15.83,11.35,15.62,21.56,60.08,62.56,82.26,83,36.51,33.66,69.1,47,65,60.65-.86,2.85-2.55,3.18-11.35,11.5,0,0-5.2,9-23.74,26-15.78,14.46-48.19,60.2-72.13,112A468.21,468.21,0,0,0,251,638.83c-3.82,23.43-6.47,39.72-4.93,62.72.67,10,4.43,55.67,34.5,104.84a256.82,256.82,0,0,0,38.08,47.48c13.54,13.37,25.08,24.76,43.9,34,11.84,5.84,20.47,5.81,35.84,13.89a98.11,98.11,0,0,0,18.37,7.76,118,118,0,0,0,14.93,3.29c10.35,1.82,17.26,3,26.73,3.73a186.05,186.05,0,0,0,33.15-.45c8.6-.92,15.08-1.65,23.3-4.62,6.69-2.42,6.15-3.29,16.57-8.22a206.38,206.38,0,0,1,30.77-11.5c5.09-1.45,5-1.19,14-3.43,24.76-6.13,29.46-9,47.49-12.55a127.94,127.94,0,0,1,21.66-2.68,138.73,138.73,0,0,1,16.27.59,269.46,269.46,0,0,1,31.06,4.33c10.64,2,15.95,3,19.57,4.48a120.93,120.93,0,0,0,13.14,4.63,25.85,25.85,0,0,0,8.06,1.35,24.57,24.57,0,0,0,8.51-1.79c8.15-3.18,13.92-9.66,16.58-12.7,0,0,10.34-11.83,12.38-24.14.26-1.57.41-3.17.41-3.17s.18-1.85.2-3.6c.07-4.65-2.44-11.38-2.54-11.35s.35,1.25,1,3.74c2.09,7.4,2.58,7.45,2.84,10,.3,3-.32,3.84.59,5.53a7.82,7.82,0,0,0,3.89,3.28c5.87,2.57,14.41-2,15.68-2.69,8.75-4.67-123.48,66.64,35.39-16.42,18.81-9.84,28.25-14.78,29.87-15.81a78.43,78.43,0,0,1,10.45-5.7,54.09,54.09,0,0,1,16.42-5.07c3.45-.42,7.08-.28,14.34,0,.77,0,4.6.18,9.85.29h.07c2.76.05,10.54.17,13.37,0,6.56-.39,11.89-3.84,17-7.16,3.84-2.49,4-3.31,9.56-6.87a72.31,72.31,0,0,0,7.29-5c2.51-2,4.6-4,4.65-4a28.47,28.47,0,0,0-4.93,5.52,23.49,23.49,0,0,0-3.13,7.32,8.74,8.74,0,0,0-.45,3.28,8.28,8.28,0,0,0,1.94,4.48c2.43,3,7.07,3.87,13.29,4.48a111.29,111.29,0,0,0,13.89.75c19.68-.85,29.52-1.27,42.11-4a134,134,0,0,0,14.64-3.88c14.55-4.84,24.08-11.05,35.84-18.82,3.61-2.39,18.09-12.11,25.38-22.1a61.69,61.69,0,0,0,3.79-5.95,50.22,50.22,0,0,0,5.17-13.76c1.4-7,.76-12.54.6-12.55s3.35,17-5.38,31.06a61,61,0,0,1-12.24,14c-3.22,2.58-6.77,4.75-11,9.71-3.67,4.25-4.46,6.59-4.78,8.21-.25,1.3-.38,3,1.79,10.16s3.92,12.78,7.77,17.92a44.66,44.66,0,0,0,4,4.59,39.57,39.57,0,0,0,4.78,4,40.34,40.34,0,0,0,3.51,2.24c2.93,1.65,4.76,2.17,4.72,2.3s-2.91-.87-8.66-2.84a9,9,0,0,1-4-2.24,8,8,0,0,1-1.79-3.14c-1-2.85-2.84-5.35-4.19-8.06s-4.86-9.82-11.2-13.29c-4.44-2.43-8.67-2.23-14.78-1.94-2.7.13-6.62.51-17.17,3.43-9.64,2.68-12.72,4.13-25.39,7.92-6.93,2.07-10.45,3.12-13.14,3.43-6.9.81-11.19-.24-20.31-1.49-6.89-1-13.84-1.38-20.76-2.09-15.54-1.6-23.31-2.4-33.3-3-15.32-.9-22.12-.54-29.27.75a102.31,102.31,0,0,0-11.5,2.84c-11.55,3.53-15.69,6.85-42,21.2-11.14,6.09-18.94,10.16-21.8,11.65l-9.26,4.78c-13.94,7.17-16.25,8.27-21.05,11a121.72,121.72,0,0,0-11.8,7.46,119,119,0,0,0-9.86,8.07c-7.15,6.44-17.72,16-22.4,27.18-1.27,3-2.39,6.57-2.39,6.57a94.23,94.23,0,0,0-2.69,11.05c-2.18,10.52-7.77,19.39-8.51,19.11-.47-.17,1.1-4,2.54-12.24a73,73,0,0,0,1.49-15.53c-.12-5.23-.29-10-3-15.23A20.25,20.25,0,0,0,732,894c-3.23-2.95-6.57-3.75-19.41-6.27-8.22-1.61-9.26-1.79-9.26-1.79-26-4.47-25.22-4.37-26-4.48-17.4-2.52-35.82-.35-43.9.6A219,219,0,0,0,576.08,897c-17.34,7.15-27.07,13.83-32,17.47a90.88,90.88,0,0,0-28.67,33.6,102.63,102.63,0,0,0-8.07,20.61c-4.49,17.34-2.15,31.89-.3,42.71a138.13,138.13,0,0,0,16.73,45.4c5.17,8.85,5,6.17,17,24.49,10.2,15.48,12.28,20.33,20,30.46a199.43,199.43,0,0,0,17.92,20.31,236.22,236.22,0,0,0,40.92,33.15c41.55,26,82.69,30.73,100.35,32.56,2.81.28.09,0,21.8,1.49,43.39,3.06,49.76,4.06,69.29,4.78,14.81.54,25.48.9,40.32,0,18.75-1.14,28.65-1.74,41.52-6,10.57-3.47,10.27-5.16,35.54-16.12,12.3-5.34,18.45-8,24.79-9.86a146.56,146.56,0,0,1,37.63-5.38c10.66-.19,19.65,1.07,37.63,3.59,19.69,2.76,29.53,4.13,42.41,6.87,7.34,1.55,14.74,3.34,25.39,3.28,9.07,0,15.44-1.4,15.53-.89.13.71-12.2,4.68-26.88,6.27a139,139,0,0,1-42.41-2.09c-15-3.27-16.13-3.59-16.13-3.59-8-2.28-11-3.94-16.43-3.28-2,.24-7.81.95-11,5.37-.83,1.14-1.73,2.85-2.39,9.26a65.21,65.21,0,0,0-.29,14.34c1.43,13.77,8.4,28.5,11.64,34.94,4.58,9.07,9.38,18.58,18.52,29.57a137.79,137.79,0,0,0,37.33,30.76c14.25,8.11,26.2,11.64,35.55,14.34,22,6.36,39.05,7.3,60.92,8.36,20,1,40.13,2,66.9-2.09a293.52,293.52,0,0,0,52.27-13.14,352.57,352.57,0,0,0,64.51-29s19.43-11.3,57.35-39.42c9.76-7.24,8.81-8,13-9.8,1.49-.62,3.81-1.44,4.34-3.35.58-2.1-1.42-4.18-3.29-6.57-2.82-3.62-4.51-8-6.87-11.94-4.56-7.66-3.31-8-9-19.12-6.22-12.25-7-10.3-10.15-18.22-2.1-5.19-3.59-10.54-5.68-10.45-1.06,0-1.42,1.47-4.18,4.48a38.45,38.45,0,0,1-4.18,3.88c-5.57,4.84-16.9,19.78-18.22,21.51-7.2,9.44-5.7,5.36-20,22.1-5.85,6.84-15.13,18.08-20.9,23.44a33.2,33.2,0,0,0-3.5,3.52c-3.54,4.27-4.15,7.61-5.76,7.53-.86,0-1-1-3-3.28a31.64,31.64,0,0,0-3.88-3.73c-5-4.47-30-31.24-49.58-50.63-8.2-8.12-6.31-5.9-17.17-16.57-14.22-14-23.94-24.15-30.62-31.06-5.53-5.74-5.34-5.47-43.75-44.06q-27.57-27.69-55.1-55.4c-68.24-68.59-74.84-75.22-80-80.79-7.59-8.12-9-10.53-13.88-14.19-1.89-1.41-9.18-6.68-10.31-9.7a4.94,4.94,0,0,0-2.24-3c-.57-.27-1-.25-1-.47-.24-.82,4.91-3,6-3.43,5.19-2.2,9.89-5.4,14.93-7.92,28.15-14,55.82-29,83.78-43.45,70.93-36.6,106.4-54.89,107.7-56.21.24-.24,3.93-4,5.79-3.08,1,.53.52,2,2.17,4.48,1,1.46,1.53,1.51,2.76,3.29a17.43,17.43,0,0,1,1.72,3.21c1.29,3.08,5.91,10.81,10.52,18.59,7.35,12.38,14.5,24.87,22,37.18,13.19,21.78,26.9,45.66,46.29,79.45,0,0,38.15,66.47,51.78,89l3.21,5.28c3.63,6,3.1,5,3.73,6.11,1.71,2.9,1.67,3,1.91,3.12,3.59,1.83,16.45-16.78,23.74-26.58.8-1.08,11.19-12.82,32-36.29,21.22-24,26.6-29.61,40.17-45.25,13.09-15.07,19.63-22.61,21-24.49,2.1-2.76,4.65-5.15,6.72-7.91,1.63-2.18,2.55-3.63,3.44-3.44,1.45.31,1.54,4.73,1.79,7.47.72,7.8,3.7,11.85,7.17,19.56,3.89,8.64,4.65,13.55,9.41,30.16,3.11,10.88,8.89,28.16,20.46,62.72,15.27,45.67,15.36,43.39,15.46,45.42,0,.88.2,4.45,1.71,4.91,2.2.66,5.7-5.78,11.35-14.78,7.93-12.65,7-9.46,13.14-19.57,3.52-5.79,7.62-14,15.83-30.31,1.23-2.45,3.93-7.87,6.87-15.23,2.45-6.15,3.68-9.31,4.33-13.59.54-3.6,1.47-9.76-.9-16.28-4.07-11.24-15.13-15.91-17.77-17,0,0-10.66-4.51-25.58-.88a23.51,23.51,0,0,0-8,3.27c-3.88,2.57-5.83,5.74-6.12,5.52s1.16-3.57,4-6.57c3.25-3.39,6.85-4.77,12-6.72a83.85,83.85,0,0,1,10.75-3.14,44.3,44.3,0,0,1,7.92-1.49c1.79-.13,2.81-.05,5.82-.3a35.76,35.76,0,0,0,4.93-.6,23.52,23.52,0,0,0,6.12-2.24,39.35,39.35,0,0,0,10.3-7.91,85.87,85.87,0,0,0,11.35-14.63,117.65,117.65,0,0,0,9.41-18.67A264.81,264.81,0,0,0,1632.45,869c7.36-42.31,5.41-77.22,3.59-106.93a224.36,224.36,0,0,0-9.56-47.78c-2.27-7.25-6.25-18.47-16.5-27a27.91,27.91,0,0,0-7.39-4.93c-11.73-5-24.32,1.56-39.43,9.41-7.18,3.73-17.92,9.41-28.89,20.61-5.16,5.25-11.17,11.38-15.76,21.5a68.91,68.91,0,0,0-6,25.09c-.34,9.21,1.64,10.68.45,20.16a89.45,89.45,0,0,1-4.19,17c-2,6-4.53,12.41-5.07,12.25s1-4.8,1.94-12.4a108.66,108.66,0,0,0,.6-14.18c0-7.22-.46-9.11-.52-19.13a40.35,40.35,0,0,1,3.65-19.1,84.21,84.21,0,0,1,6-11.35c13.18-22.26,10.38-21.53,14.33-26.58a13,13,0,0,0,2.84-6.57,7.69,7.69,0,0,0-.75-4.78c-1.68-3-5.27-3.53-5.67-3.59-2.85-.4-4.4,1-9.86,3.29-2.49,1.06-5.09,1.86-7.61,2.84,0,0-9.16,3.53-19.27,6.57-5,1.5-12.26,2.46-26.58,4.33-5.07.66-4.87.59-35.09,3.88-7.87.86-10.79,1.18-15.38,1.19-4.79,0-6.5-.31-10.91.15a40.8,40.8,0,0,0-11.94,2.84,28.78,28.78,0,0,0-6.42,3.58c-2.71,2-4.18,4-8.07,9.26-4.08,5.57-6.12,8.35-6.72,9.26-5.27,8-6,10.91-11.2,17.77-1.79,2.38-4.55,5.78-4.92,5.53s1.35-2.8,3.28-7a65,65,0,0,0,4.78-14c.37-1.79,0-.48,1.34-10.45.72-5.33.89-6.19.75-7.92a19.09,19.09,0,0,0-3.58-9.85c-2.57-3.4-6.09-5-13.15-8.07a63.36,63.36,0,0,0-6.86-2.68c-11.31-3.58-21.21-2.32-21.21-2.54s5.21-.3,12-.59c6-.27,6.28-.36,8.21-.31a43,43,0,0,1,11.65,1.49c3.33,1,3.19,1.56,11.35,5.53,5.18,2.52,7.76,3.78,9.85,4.33a44.37,44.37,0,0,0,13.59,1.05c2.56-.11,4.67-.36,6.72-.6,5.82-.69,6.48-1.22,10.31-1.35,2.61-.08,2.95.14,6.72,0,1.34,0,1.88-.1,5.37-.29l5.53-.3c4.29-.22,7.86-.13,12.69,0,9,.23,8.07.55,11.76.41,2.9-.11,2.68-.28,10.94-1,5.84-.52,6.25-.46,8.88-.78s5.41-.78,10.2-1.8c5.09-1.08,11-2.33,17.8-4.36a145,145,0,0,0,25.43-10,168.05,168.05,0,0,0,31.36-21.73c.8-.71,3.85-3.5,10-9.07,7.21-6.58,8.64-7.91,10.52-9.75,5.55-5.41,8.32-8.11,10.31-10.86a52.08,52.08,0,0,0,8.06-17.47,61.44,61.44,0,0,0,2-15.12,80.87,80.87,0,0,0-1-14.56,123.44,123.44,0,0,0-5.82-24.19,98,98,0,0,0-9.63-20.12c-1.19-1.86-1.92-2.83-3.81-5.87-4-6.41-6.37-11-8.07-14.22-3.31-6.19-6-10.37-11.31-18.7-1.32-2.07-6-9.3-13.66-19.94-2-2.75-13.89-19.15-27.33-34.94-28.06-33-60-59.84-64.07-63.28,0,0-48.93-41-107.81-70.79-22.6-11.45-46.89-22.1-46.89-22.1-12.9-5.65-13-5.33-23.6-10.15-10.16-4.65-15.21-7.31-24.19-10.16a91.68,91.68,0,0,0-15.53-3.88s-16-2.37-36.14,3.58c-5.56,1.65-8.79,3.33-11,6.28-1.36,1.77-2.62,4.34-3,4.18s.36-1.64.6-4.18a27.17,27.17,0,0,0,0-3.89c-.2-2.95-3.09-12.95-8.06-19.41C1157,244.91,1128,236.09,1128,236.09c-39.55-13.19-72-16.13-72-16.13-25.93-3.92-46.16-6-86.61-10.16-22.27-2.29-32-3.07-43.61-3.58-13.78-.61-26.41-.46-51.67-.15-17.22.21-30.88.6-47.19,2.24-5,.5-11.29,1.23-19.11,2.69a147.64,147.64,0,0,0-27.78,7.46c-8.36,3.23-12.53,4.86-17.32,8.67-3.21,2.55-11.17,9.05-13.74,20a30.64,30.64,0,0,0-.3,14.33c.77,3.21,1.79,4.79,2.69,9.56a60.29,60.29,0,0,1,.9,9c.41,8,.62,11.94.59,15.53-.07,10.14-.11,17.29-2.68,26.28a76,76,0,0,1-7.77,17.62c-4.3,7.63-7.3,10.51-9,11.95-4.23,3.65-8.93,5.83-9.26,5.38s3.68-3,7.47-7.77c1-1.21,3.75-4.87,6.87-13.44a83.76,83.76,0,0,0,5.67-29.87c0-7.81-1.15-13.68-2.39-20a145.42,145.42,0,0,0-4.77-17.92c-2.84-8.75-4.26-13.12-6.87-17a40.28,40.28,0,0,0-14.34-12.84c-10.76-5.83-21.83-4.93-34.05-3.29a398.76,398.76,0,0,0-60.33,12.84c-15.42,4.78-31.32,10.31-48.38,17-23,9.06-41.42,16.31-64.21,29-25.55,14.18-52,31.06-52,31.06-7,4.46-6.87,4.51-7.77,4.78C409.45,341.17,344.77,193.53,320.93,167c-1-1.08-9.25-10.16-6.78-14.58.54-1,1.57-1.66,3.58-3a33.13,33.13,0,0,1,7.17-3.58c4.58-1.66,7-3.9,12.24-7.47s7.76-4.68,29.87-17c22.9-12.79,20.11-11.53,26-14.64,6.86-3.62,16.3-8.31,45.1-20,22.14-9,33.21-13.48,47.49-18.51a761.93,761.93,0,0,1,79.15-22.7c24.09-5.62,43.27-8.81,80.64-14.94C692.47,22.88,716,19,750.2,15.37,772.15,13,807.57,9.82,851.44,8.5c14.77-.44,53.92-1.37,103.94.9,7.24.33,55.38,2.58,84.52,6.87,2.81.41,12.18,1.84,25.39,3.58,12.76,1.69,16.61,2,25.68,3.29,12.48,1.74,21.51,3.38,29.27,4.78,47.12,8.48,47.2,7.88,64.51,11.35,33.87,6.77,59,14.15,83,21.2,17.54,5.15,38.94,11.47,66.9,21.8,5.55,2,29.08,10.81,59.74,24.49,14.54,6.5,30.47,13.61,51.07,24.49a754.3,754.3,0,0,1,66.3,39.73c8.42,5.55,23.21,15.51,41.17,28.82,6.77,5,17.2,12.77,29.91,23.14,24.56,20,41.91,37,52.87,47.79,17.75,17.46,32.12,33.09,42.71,45.1a905.75,905.75,0,0,1,129.62,192.94c9.39,19,19.38,39.24,29.86,68.09a591.08,591.08,0,0,1,27.78,108.42,621.17,621.17,0,0,1,7.47,86c1.18,47.82-2.84,84.66-5.38,107.22-3.06,27.2-6.63,47.51-9,60.63a1010.15,1010.15,0,0,1-25.69,110.21c-7.29,24.41-15.51,51.55-30.76,86.31a584.86,584.86,0,0,1-86.91,141.87c-9.89,12.22-40.69,49.5-89.3,93.48-23.86,21.58-54.36,49.18-99.75,78.55A665.58,665.58,0,0,1,1364,1526c-65.76,20.46-118.29,25.32-133.8,26.58-17.11,1.38-91.76,6.67-166.06-10.75a524.37,524.37,0,0,1-63-19.42c-19.07-7.35-30.11-11.61-44.5-20-9.27-5.41-37.42-21.85-62.72-50.47-5.1-5.77-11.18-13.29-22.1-21.51-7.57-5.69-17-12.65-30.76-15.82-8.48-2-17.41-2.21-23.89-2.39-7.26-.21-7.91.25-15.23,0-10.07-.36-14.52-1.42-23.9-2.39-10.79-1.12-14.81-.74-25.38-1.2-9.77-.42-18.14-1.27-40.92-4.48-34.59-4.87-71.78-10.11-104.83-17.62-17.47-4-34.61-8.58-34.61-8.58s-7.28-2-13.18-3.66c-34.83-10-73.47-28.68-73.47-28.68-23.22-11.2-40.6-19.59-59.73-33.45-70.06-50.73-98.14-127.35-102.74-144-3.73-13.42-8.13-26.64-11.95-40-2.46-8.62-3.09-11.1-5.08-15.24-7.46-15.51-19.56-24.2-25.09-28.07-1.86-1.31-5.81-4-22.69-11.65-26.71-12.14-34.48-13.5-50.48-22.1a215.85,215.85,0,0,1-24.49-15.53c-43.67-30.94-77.37-79.2-87.21-93.48a501.66,501.66,0,0,1-47.49-85.42A484.11,484.11,0,0,1,13.09,724.1c-9.2-76.44,2.28-135.3,8.66-166.65,12.94-63.56,34-110.07,46.89-138.28,14.65-31.92,26.82-51.92,30.17-57.35,19.81-32.14,38.82-54.36,56.45-75,14.53-17,22.33-26,34-36.14,9.41-8.11,17.37-13.5,24.79-21.5,2.37-2.56,5.57-5.29,11.95-10.76C229.68,215.35,230.77,214.56,232.31,214.28Z" transform="translate(-9.66 -7.93)"/><path class="cls-4" d="M229.48,214.58c.82-1.76,15.18-12.22,43.9-33.15,8.07-5.88-.21.22,35.59-25.25,5.17-3.69,5.23-3.73,5.62-3.87,22.08-7.73,42.24,67.87,108.89,130.39,9.21,8.64,32.07,29,26.86,42.54-.75,1.93-3.79,4.45-9.86,9.4C426.61,346,420.33,348.78,409.63,358c-7.36,6.33-8.59,8.62-10.81,10.24C369.23,389.82,207.84,260.9,229.48,214.58Z" transform="translate(-9.66 -7.93)"/></svg>