<svg id="Layer_1" data-name="Layer 1" xmlns="http://www.w3.org/2000/svg" xmlns:xlink="http://www.w3.org/1999/xlink" viewBox="0 0 2436.71 578.2"><defs><style>.cls-1,.cls-5{fill:none;}.cls-2{clip-path:url(#clip-path);}.cls-3{clip-path:url(#clip-path-2);}.cls-4{fill:#fff;}.cls-5{stroke:#fff;}.cls-5,.cls-6,.cls-7{stroke-miterlimit:10;}.cls-5,.cls-6{stroke-width:0.33px;}.cls-6{fill:#983333;stroke:#983333;}.cls-7{fill:#8b1d40;stroke:#8b1d40;stroke-width:1.31px;}.cls-8{clip-path:url(#clip-path-3);}.cls-9{opacity:0;}.cls-10{clip-path:url(#clip-path-4);}.cls-11{fill:#221f1f;}</style><clipPath id="clip-path" transform="translate(-4.58 -3.24)"><rect class="cls-1" x="0.48" y="0.26" width="2612.74" height="588.29"/></clipPath><clipPath id="clip-path-2" transform="translate(-4.58 -3.24)"><rect class="cls-1" x="0.48" y="0.26" width="2612.74" height="588.29"/></clipPath><clipPath id="clip-path-3" transform="translate(-4.58 -3.24)"><rect class="cls-1" x="1408.96" y="110.02" width="483.08" height="478.53"/></clipPath><clipPath id="clip-path-4" transform="translate(-4.58 -3.24)"><rect class="cls-1" x="1475.69" y="184.48" width="325.29" height="266.65"/></clipPath></defs><title>ThinQ_Logo Section_White With Maroon Fill and Transparent Background</title><g class="cls-2"><g class="cls-3"><path class="cls-4" d="M806.42,498.29c-16.52.09-33.3-.09-49.82,0,1.86-37.16,2.79-73.51,2.64-99C759.05,367,758,345.88,752,320.64a191.75,191.75,0,0,0-14.07-40.37s-9.65-19.91-24-36.59c-23-26.71-55.58-40.33-58.17-41.39-49.35-20.11-92.23-6.34-110.37-.51a133.44,133.44,0,0,0-34.3,16.4,130.2,130.2,0,0,0-30.27,28.22c-4.79,6.26-12.15,16-17.33,30.76-5.71,16.24-6.42,31.8-6.87,41.68a83.65,83.65,0,0,0-.21,8.43c0,4.58-.9,30.81-1.07,35.47-.62,16.63-.28,30.55,0,76.26.08,12.84.17,31.75.21,55l-45.88-.09c.35-14.69.71-38,.19-66.85-.66-36.38-2.2-51.08-2-85.76.19-36.49.38-55.11,5.39-73.37a176.23,176.23,0,0,1,27.59-56.36s24.45-33.1,66.16-52.49a189.43,189.43,0,0,1,23.14-8.75c5.69-1.67,11-2.91,15.93-3.83a184.08,184.08,0,0,1,26.16-2.81h.27c15.54-.77,30.62-.36,32.88-.28,49.52,1.91,85.27,19.2,85.36,19.24,24.66,12.27,72,40.84,96.07,95.38,11,25.05,15.77,52.41,17.35,61.57.69,4,1.11,7.08,1.44,9.41,4.1,29.21,4.07,53.21,3.88,71.4-.37,35.9-1.79,72.35-3,97.9" transform="translate(-4.58 -3.24)"/><path class="cls-4" d="M361.38,106.23s-357,.52-356.8.11,0-51.05,0-51.05l356.8,0Z" transform="translate(-4.58 -3.24)"/><path class="cls-5" d="M1550.48,242.51c0,.45-3.88-.15-9,1.33-2.78.8-7.94,2.36-10.28,6.8-1,1.82-1.08,3.53-1.28,5.86-.3,3.45-.54,6.22.92,8,2.12,2.64,5.21-.07,10.28,2.36,3.45,1.66,3.24,3.5,8.81,6.8,3.24,1.92,4.58,2.06,5.14,2.08,4.06.21,7.49-2.89,7.62-3,1-.93,1.57-1.82,1.75-1.71s-.46,2.64-2,4.36c-3.34,3.66-8.45,3.26-9,3.21-2.48-.24-4.53-1.48-8.63-4s-3.79-3-5.87-3.78a15.25,15.25,0,0,0-11,.18c-1.46.63-4.81,2.07-5.7,5.11-.45,1.53.09,2.26.37,4.92.16,1.5.62,5.87-.73,8.88-2.39,5.3-10.6,6.37-10.66,6.24a20.24,20.24,0,0,0,4.33-2.56,10.79,10.79,0,0,0,3-3.11c.75-1.29,1.09-2.81,1-5.48-.2-6.52-2.57-7.37-1.74-10,1.19-3.83,6.42-3,8.26-7.75.35-.91.29-1.26.36-5.67.13-6.49.19-9.74.37-10.4,1.8-6.13,9.83-9.55,15.61-10C1546.7,240.85,1550.51,242.07,1550.48,242.51Z" transform="translate(-4.58 -3.24)"/><path class="cls-5" d="M1506.51,307.21c.38-.06.38,3.45,2.69,6.2.34.4,2.69,3.2,5.71,3.06,2.33-.12,2.74-1.46,8.32-5.85.61-.47,1.83-1.22,3.41-2.49a22.33,22.33,0,0,0,2.72-2.36c2.11-2.46,2.11-4.74,4-6.36a9,9,0,0,1,1.38-.92c3.77-2,5.17-.24,15.47-.66,5.15-.21,9.25-.4,14.28-2.08,4.45-1.49,9.4-3.23,12.71-8.34a16.87,16.87,0,0,0,2.88-8.86c.15-6.06-3.29-10.54-4.79-12.51-4.2-5.47-7.25-4.8-9.36-9.77a16.93,16.93,0,0,1-1.08-8.61,19.29,19.29,0,0,1,3.72-8.72c5.76-8.05,14.85-11.06,15.11-10.56.1.19-1.43,1-4.31,3.52-4.82,4.25-10.47,9.24-10.56,15.76a13.45,13.45,0,0,0,1.67,6.48c1.81,3.31,4.33,4.35,6.25,5.81,5,3.82,7.15,11.49,7.07,16.77-.16,10.82-9.92,18.68-16.75,21.63a31.29,31.29,0,0,1-9.4,2.22c-11,1.31-15.87-2.4-21.23,1.3-1.7,1.17-1.66,2-2.61,3.64a14.91,14.91,0,0,1-2.51,3.18c-3.94,4.07-9.41,4.33-11,8.55-.6,1.57.18,1.42-.58,5.78-.65,3.82-1.37,4.58-.88,5.82,1.17,3,6.79,2.5,6.77,3.45,0,.57-2.11,1.34-4.13,1a7,7,0,0,1-5.34-4.82c-1-3.63,2-6.74.7-8.28-.6-.71-1.32-.17-3-.52-3.42-.72-6-4.07-7-7.13C1505.84,309.87,1506.19,307.27,1506.51,307.21Z" transform="translate(-4.58 -3.24)"/><path class="cls-5" d="M1576.32,381.64a3,3,0,0,1-1.4-2.92c.08-.64.39-1.1.62-2.55.12-.77.06-.83,0-.85-.24-.1-1.47,1.62-2.14,3.55-1.2,3.47-.19,4.69-1.47,6.07-1.1,1.19-2.5,1-3.3,2.64a4.89,4.89,0,0,0-.39,1.43c-.62,3.3.45,7.9.94,7.84s-.84-3.65,1-7.29c1.47-2.88,4.24-4.48,6.68-5.88a15,15,0,0,1,4.54-2.06c4.82-1.09,6.59,1.86,11.6.86a10.74,10.74,0,0,0,4.86-2.27,8.33,8.33,0,0,0,3-5.13c.06-.72,0-1.87-.28-1.95s-.65.67-1,1.29a16.38,16.38,0,0,1-3.65,3.87,12.24,12.24,0,0,1-4.41,2.06c-5.36,1.2-8.14-2.91-11.65-1.08C1578.06,380.21,1577.41,382,1576.32,381.64Z" transform="translate(-4.58 -3.24)"/><path class="cls-5" d="M1618,360.23c1.14-4.34,3-6.73,2.79-7s-2.71,2.09-4.34,5.77c-.62,1.41-2.92,6.61-1.47,11.67,1.35,4.74,4.68,4.73,5.7,9.92a18.49,18.49,0,0,1,0,5.67c-.49,5.21-1.77,5.7-2.21,9.93-.09.81-.79,8.14,2.56,11.48,1.11,1.11,2.52,1.55,2.67,1.27s-2.08-1.58-2.94-4.54c-.43-1.51-.39-3.14-.31-6.23a11.07,11.07,0,0,1,.09-2.06c.48-2.39,2.25-3.5,2.93-7.72.94-5.87-1.54-9,.23-11.2.77-1,2.41-1.16,5.7-1.56a39.93,39.93,0,0,1,4.89-.29c6.52.05,9.86.1,13.34,1,3,.82,4.69,1.75,5.89,3.6.25.38,1.61,2.46,1.07,4.06-.45,1.32-1.93,1.54-1.85,2s1.68.86,2.64,0c1.28-1.12,1-4.09.54-5.86a9.49,9.49,0,0,0-4.34-5.38c-.49-.33-2.09-1.33-6.59-1.89a58.79,58.79,0,0,0-8.38-.19c-4.93.09-7.39.13-8.37.19-3.38.19-4.23.38-5.74-.19a8.13,8.13,0,0,1-5-4.72C1616.58,365.46,1617.25,362.91,1618,360.23Z" transform="translate(-4.58 -3.24)"/><path class="cls-5" d="M1591.25,256.6c.5-.19-1.75-4.18-.19-7.75,1.15-2.64,3.81-3.72,6.52-4.82,1.66-.68,8.58-3.5,14-.38,1.43.83,2.66,2,3.21,1.6s-.68-2.37-.68-4.67c0-5,6.34-8.81,8.12-9.88,3.3-2,6.2-2.64,9.71-3.45,6.66-1.52,9-.63,12.42-3.16,2.16-1.6,1.55-4.54,3.76-5.39,1.81-.7,3.65.29,3.69.14a6.22,6.22,0,0,0-5.16-1.18c-2.31.59-2.44,3.24-4.58,4.34-4.86,2.5-7.89,1.28-13.87,2.84-4.14,1.09-11.43,3-13.88,8.51-.84,1.87-1.11,4.14-3,5-1.46.64-2.65-.17-4.4-.57-6-1.36-11.87,3.73-13.18,4.87-2,1.78-5,4.32-5,8C1588.59,254,1590.8,256.76,1591.25,256.6Z" transform="translate(-4.58 -3.24)"/><path class="cls-5" d="M1684.89,219.34a1.35,1.35,0,0,1,.58,1c.27,1.8-2.82,2.37-4.55,5.69-1,1.9-1.4,4.45-.46,6.07a3.15,3.15,0,0,0,.23.34c.44.55,1.3,1,3.92,2a39.89,39.89,0,0,0,7.71,2.37c3.63.55,5.92.08,6,.38s-2.92,1.61-6.46,1.52-4.59-1.35-9.87-2a43.27,43.27,0,0,0-4.34-.29,61.76,61.76,0,0,0-9.14.38,38,38,0,0,0-17,6.66c-5,3.88-10.77,10.88-10.94,16.58,0,1,0,6.55-.23,9.08a15.31,15.31,0,0,0-.09,2.38c.07,1.39.3,1.77.09,2.18-.4.79-2.23.69-4.25.57-3.35-.18-5-.27-6.21-.25a22.39,22.39,0,0,0-6.16,1.39c-5.29,1.67-10.53,3.37-15.5,8.28-.35.35-.59.59-.83.85a40.76,40.76,0,0,0-8.94,14.58,40.16,40.16,0,0,0-1.94,10.55,36.24,36.24,0,0,0,0,8.27c.38,2.69,1.2,5.72.92,10.18-.09,1.55-.26,2.12-.48,2.15-.63.1-1.73-4.05-2.39-6.56-1.46-5.56-2.18-8.34-2.39-11.09-.47-6.45,1.73-11.47,3.83-16.24,2.21-5.05,6.59-15,16.65-20.87a39.83,39.83,0,0,1,12.64-4.56c3.12-.55,4.68-.83,6.3-.62,2.08.27,3.53,1,4.59.14.71-.55.91-1.48,1-2.85.31-5.57-.27-7.91.31-10.84a16.35,16.35,0,0,1,1.7-4.42,29.47,29.47,0,0,1,9.28-10.69,45.59,45.59,0,0,1,18.69-7c3-.37,4.18-.84,4.81-1.25a9.51,9.51,0,0,0,1-.69c2.56-2.13,4-5.43,6.16-8.44C1680.61,222.07,1683.59,218.68,1684.89,219.34Z" transform="translate(-4.58 -3.24)"/><path class="cls-5" d="M1627.79,288.83c.12.21,1.41-.37,1.57-.44a11.58,11.58,0,0,0,2.83-2c3-2.22,9.49,2.45,10,2.83a6.22,6.22,0,0,1,2.48,3,5.54,5.54,0,0,1,.18,2.64c-.24,1.61-1,7.74,0,12.38a19.15,19.15,0,0,0,2.48,5.77,16.09,16.09,0,0,0,4.41,5.19c1.75,1.29,4,2.05,4.31,1.62s-2.11-2.09-4-4.7c-2.88-3.91-3.26-8.22-3.51-10.9-.13-1.5-.63-7.57,3.86-17.2,3-6.55,7.95-17.06,19.46-23.72,7.33-4.24,13.93-5,21.39-5.76a56.42,56.42,0,0,1,21.76,1.22c4.11,1.1,9,2.42,14.23,6.43,2.56,2,8.48,6.68,10.93,15.12,2,6.81,1.59,15.74-1.82,18.18-.4.28-1.61,1-1.49,1.38s2,.35,3.49-.37c4.22-2.06,4.06-10.81,4-12.11-.17-9.21-5.2-15.89-7.16-18.42a36.93,36.93,0,0,0-13.86-10.87,42.54,42.54,0,0,0-11.66-3.5,66.64,66.64,0,0,0-20.66-.28c-8.22,1.12-16.92,2.3-25.61,8.79a51.48,51.48,0,0,0-11.27,12.32c-2.42,3.84-3.63,5.75-4.16,8.28-.35,1.68-.31,2.78-1.1,3.21-1.64.92-3.6-2.9-8.08-3.59a13.13,13.13,0,0,0-7.16,1.14C1630.26,285.91,1627.59,288.48,1627.79,288.83Z" transform="translate(-4.58 -3.24)"/><path class="cls-5" d="M1712.32,278.4c.39.29-5.48,7.08-8.15,18.19a49.39,49.39,0,0,0-.93,18c.68,4.92,2.56,18.63,12.49,25.43,5.44,3.72,12.36,4.73,15.45,5.18.12,0,2.37.18,6.86.49,4,.28,4.94.4,5.69-.36,1.48-1.52,1.33-5.39-.21-7.16a8.69,8.69,0,0,1-1.47-1.85c-.48-.89-1-2.25-.69-2.45.51-.37,4.65,2.74,6,7.7a13.38,13.38,0,0,1-3.18,12.55c-2.81,2.82-6.82,3.28-7,2.87s1.83-1.82,2.56-2.37a10.31,10.31,0,0,0,1.72-1.31c.16-.18,1.75-2,1.35-3.16-.31-.95-1.75-1.14-9.92-1.91-2-.19-1.85-.19-2.28-.22a73.44,73.44,0,0,1-9.78-1.42,25.92,25.92,0,0,1-13.1-7.76c-4.25-4.69-5.67-9.82-6.59-13.15-1.7-6.11-1.45-11-1.28-15.36a52.49,52.49,0,0,1,3.69-18.6C1706.93,283.51,1712,278.15,1712.32,278.4Z" transform="translate(-4.58 -3.24)"/><path class="cls-4" d="M211.27,102s.51,396.49.11,396.28-49.59,0-49.59,0l0-396.28Z" transform="translate(-4.58 -3.24)"/><path class="cls-4" d="M457.72,57.41s.57,442.9.11,442.66-56.68,0-56.68,0l-.06-442.66Z" transform="translate(-4.58 -3.24)"/><path class="cls-4" d="M916,150.26s.5,348.22.1,348-49.59,0-49.59,0l0-348Z" transform="translate(-4.58 -3.24)"/><path class="cls-4" d="M1044.15,152s.5,349.69.1,349.5-49.58,0-49.58,0l0-349.5Z" transform="translate(-4.58 -3.24)"/><path class="cls-4" d="M1393.54,500.21l-49.56.25c1.85-37.16,2.24-69.16,2.09-94.61-.19-32.29-1.25-53.44-7.27-78.68a191.56,191.56,0,0,0-14.06-40.38s-9.65-19.9-24-36.58c-23-26.71-55.58-40.34-58.17-41.4-49.35-20.1-92.22-6.33-110.36-.5a133,133,0,0,0-34.31,16.4,130.43,130.43,0,0,0-30.27,28.22c-4.79,6.26-12.15,16-17.33,30.76-5.71,16.24-6.42,31.8-6.87,41.68a83.65,83.65,0,0,0-.21,8.43c0,4.58-.9,30.81-1.07,35.47-.62,16.63-.28,30.55,0,76.26.08,12.83.17,31.75.21,55l-45.88-.09c.35-14.69.71-38,.19-66.85-.66-36.38-2.2-51.08-2-85.76.19-36.49.38-55.11,5.4-73.37a176.12,176.12,0,0,1,27.57-56.37s24.46-33.09,66.17-52.48a189.43,189.43,0,0,1,23.14-8.75c5.7-1.67,11-2.91,15.93-3.83a184.26,184.26,0,0,1,26.16-2.81h.27c15.54-.78,30.62-.36,32.88-.28,49.53,1.91,85.27,19.2,85.36,19.24,24.67,12.27,72,40.84,96.07,95.38,11,25,15.77,52.41,17.35,61.57.7,4,1.11,7.07,1.44,9.41,4.1,29.2,4.07,53.21,3.88,71.39-.37,35.91-1.49,67.75-2.71,93.3" transform="translate(-4.58 -3.24)"/><polygon class="cls-4" points="2387.5 499.46 2436.71 499.46 2412.11 474.9 2387.5 499.46"/><path class="cls-4" d="M847.21,24.19A41.54,41.54,0,0,1,857,14a47.05,47.05,0,0,1,9.67-5.79c5.17-2.31,9.35-3,14-3.81A80.1,80.1,0,0,1,893,3.24a76.43,76.43,0,0,1,13.29,1c6.08,1,18.81,3.12,29.95,13.12a52.76,52.76,0,0,1,9.06,10.76,44.05,44.05,0,0,1,6.31,14.11c3.29,14.5-3.27,30.17-3.27,30.17a53.11,53.11,0,0,1-8.83,12.87,46.29,46.29,0,0,1-9.72,7.55,37.36,37.36,0,0,1-9.22,4.08,33.83,33.83,0,0,1-11.7,1.23c-6.75-.57-11.61-3.16-12.85-4.4-.8-.79-1.68-1.49-2.43-2.34a5.43,5.43,0,0,0-1.46-1.3,4.87,4.87,0,0,0-2.41-.64c-18-.52-23.9-6.53-23.9-6.53-1.5-1.52-5.43-6.3-6.25-10.11a5.56,5.56,0,0,0-1.39-3c-.71-.72-1.33-.87-3.37-1.84-.85-.4-1.65-.89-2.48-1.33-1.8-1-7.28-6.11-9.72-14.4-4.15-14.1,3.64-26.61,4.57-28" transform="translate(-4.58 -3.24)"/><path class="cls-6" d="M927.46,43.23c-.43.1-.14,1.65-.78,4.57a7.37,7.37,0,0,1-.88,2.66c-1,1.4-2.84,2.53-3.94,2-.47-.21-1.1-.87-1.34-.68l0,.06a4.36,4.36,0,0,0,.06,2.55c.76,2.56-1.41,5.68-1.6,6a13.59,13.59,0,0,1-2.59,2.48,18.31,18.31,0,0,0-3,2.79,8.18,8.18,0,0,0-.72,1c-.27.46-1.36,2.35-.63,3.43,0,0,.36.53.67.45.5-.12.11-1.63,1.08-2.9,1.42-1.87,2.69-1.45,4.65-2.89,1.36-1,3.74-2.76,3.88-6.14.05-1.14-.17-2.46.4-3.1s1-.14,1.68-.08c2.37.23,3.8-3.22,4.12-4a8,8,0,0,0,.74-5C928.84,44.73,927.92,43.12,927.46,43.23Z" transform="translate(-4.58 -3.24)"/><path class="cls-7" d="M864.12,37.33c.94-.57,1.09-1,1.77-1.3a7.71,7.71,0,0,1,2.51-.57c.86-.1,4.46-.5,5.06,2.85.16.89.1,2,.47,1.83s.74-1.8,1.69-3.39c2.07-3.44,5.87-4.66,6.94-5a9.41,9.41,0,0,1,4.84-.21c3,.43,3.42,1.57,5.67.58.85-.37,3.15-1.11,3.55-2.87,0-.08.2-.88-.09-1.05-.45-.28-1.4,1.5-3.4,2-2.74.63-3.3-.89-6-1.14a9.3,9.3,0,0,0-8.4,2.77c-1.06,1.11-2.1,2.62-3.09,2.77-.78.12-.86-.71-1.32-1.38-1.55-2.29-5.71-.07-6.64.42-3.16,1.68-5.3,4.17-5.09,4.42S864,37.4,864.12,37.33Z" transform="translate(-4.58 -3.24)"/><path class="cls-7" d="M903.52,64.51c-.81-1.41-.55-2.38-.6-3.55-.09-1.71-.9-4.24-2.63-5.08a2.72,2.72,0,0,0-.84-.27c-1.4-.25-2.72.48-7.58,1.4-.64.12-1.84.21-3.49.53a19,19,0,0,0-2.9.7c-2.47,1-3.22,2.67-5.2,3.15h0a3,3,0,0,1-1.37.16,1.25,1.25,0,0,1-.79-1.19c.06-.61.82-.82,1.79-1.51a8.53,8.53,0,0,0,2-2.08c.16-.1.4-.26.76-.45A14.89,14.89,0,0,1,885,55.4c4.42-1.49,8.77.38,11.43-2.08,1-.93.33-1.11,2.36-4,1.78-2.53,2.59-2.81,2.61-3.9.07-2.6-4.47-4.37-4.14-5.06.2-.42,2.09-.18,3.55.85a6.08,6.08,0,0,1,2.57,5.51c-.43,3-3.8,4.16-3.29,5.77a1.13,1.13,0,0,0,.2.36,5.06,5.06,0,0,0,2,1.16c2.49,1,2.81,11.27,1.75,11.12C903.86,65.1,903.75,64.9,903.52,64.51Z" transform="translate(-4.58 -3.24)"/><path class="cls-4" d="M1961.63,436.67c-.44.1-.15,1.66-.78,4.57a6.9,6.9,0,0,1-.9,2.66c-.94,1.4-2.83,2.54-3.93,2-.46-.21-1.1-.86-1.34-.67l0,.06a4.46,4.46,0,0,0,.06,2.55c.77,2.55-1.41,5.68-1.6,6a13.59,13.59,0,0,1-2.59,2.48,18.72,18.72,0,0,0-3,2.79,10.44,10.44,0,0,0-.72,1c-.26.45-1.36,2.34-.63,3.42,0,0,.37.53.68.45.49-.11.1-1.63,1.07-2.9,1.43-1.87,2.69-1.45,4.65-2.89,1.36-1,3.74-2.76,3.88-6.13,0-1.14-.16-2.47.4-3.11s1-.14,1.68-.08c2.38.23,3.8-3.22,4.12-4a8,8,0,0,0,.74-5c-.37-1.66-1.28-3.27-1.74-3.16" transform="translate(-4.58 -3.24)"/><path class="cls-4" d="M1898.28,430.77c.93-.56,1.1-1,1.77-1.3a8.27,8.27,0,0,1,2.51-.57c.87-.09,4.46-.49,5.07,2.85.16.9.1,2,.47,1.83s.74-1.8,1.68-3.38a12.26,12.26,0,0,1,6.94-5,9.32,9.32,0,0,1,4.84-.22c3,.43,3.43,1.57,5.67.58.85-.37,3.16-1.11,3.56-2.87,0-.08.19-.87-.09-1.05-.46-.28-1.41,1.5-3.41,2-2.74.63-3.3-.89-6-1.14a9.33,9.33,0,0,0-8.4,2.77c-1.06,1.11-2.1,2.62-3.09,2.77-.78.12-.86-.71-1.31-1.37-1.55-2.29-5.72-.08-6.65.41-3.16,1.68-5.3,4.17-5.09,4.43s1.48-.65,1.58-.72" transform="translate(-4.58 -3.24)"/><path class="cls-4" d="M1888.11,425.26a41.45,41.45,0,0,1,9.76-10.21,46.94,46.94,0,0,1,9.67-5.8c5.17-2.3,9.34-3,14-3.81a79.86,79.86,0,0,1,12.35-1.12,78,78,0,0,1,13.3.95c6.07,1,18.8,3.13,30,13.13a52.79,52.79,0,0,1,9.06,10.76,44.5,44.5,0,0,1,6.31,14.11c3.28,14.49-3.27,30.17-3.27,30.17a53.16,53.16,0,0,1-8.83,12.86,46.51,46.51,0,0,1-9.72,7.56,37.74,37.74,0,0,1-9.22,4.08,33.86,33.86,0,0,1-11.71,1.23c-6.74-.57-11.61-3.17-12.84-4.4-.8-.8-1.69-1.49-2.43-2.34a5.85,5.85,0,0,0-1.47-1.31,4.93,4.93,0,0,0-2.4-.63c-18-.52-23.9-6.54-23.9-6.54-1.5-1.51-5.43-6.3-6.25-10.11a5.52,5.52,0,0,0-1.39-3c-.71-.72-1.34-.86-3.38-1.83-.84-.41-1.64-.89-2.47-1.33-1.81-1-7.29-6.11-9.72-14.4-4.15-14.1,3.64-26.62,4.56-28.06" transform="translate(-4.58 -3.24)"/><path class="cls-7" d="M1968.37,444.3c-.44.11-.14,1.66-.78,4.57a7.22,7.22,0,0,1-.89,2.67c-1,1.4-2.83,2.53-3.93,2-.47-.22-1.1-.87-1.35-.68,0,0,0,0,0,.06a4.39,4.39,0,0,0,0,2.55c.77,2.56-1.4,5.68-1.6,6a13,13,0,0,1-2.59,2.47,18.73,18.73,0,0,0-3,2.79,9.55,9.55,0,0,0-.73,1c-.26.46-1.36,2.35-.63,3.42,0,0,.37.54.68.45.49-.11.11-1.63,1.07-2.89,1.43-1.87,2.69-1.46,4.66-2.9,1.35-1,3.73-2.76,3.88-6.13,0-1.14-.17-2.46.4-3.1s1-.15,1.67-.08c2.38.23,3.81-3.22,4.13-4a8,8,0,0,0,.73-5.05C1969.75,445.81,1968.83,444.19,1968.37,444.3Z" transform="translate(-4.58 -3.24)"/><path class="cls-7" d="M1905,438.41c.94-.57,1.1-1,1.77-1.3a7.71,7.71,0,0,1,2.52-.57c.86-.1,4.45-.5,5.06,2.85.16.89.1,2,.47,1.82s.74-1.79,1.69-3.38c2.06-3.45,5.86-4.66,6.93-5a9.54,9.54,0,0,1,4.84-.22c3,.44,3.43,1.57,5.68.59.84-.37,3.15-1.12,3.55-2.88,0-.08.2-.87-.09-1.05-.45-.28-1.4,1.51-3.41,2-2.73.64-3.3-.88-6-1.13a9.29,9.29,0,0,0-8.4,2.77c-1.07,1.1-2.1,2.61-3.09,2.76-.78.12-.87-.7-1.32-1.37-1.55-2.29-5.71-.08-6.64.42-3.16,1.68-5.3,4.17-5.1,4.42S1904.92,438.48,1905,438.41Z" transform="translate(-4.58 -3.24)"/><path class="cls-7" d="M1944.43,465.59c-.82-1.42-.55-2.38-.61-3.55-.09-1.72-.89-4.24-2.62-5.09a3.17,3.17,0,0,0-.84-.26c-1.4-.25-2.72.47-7.59,1.4-.63.12-1.83.2-3.48.53a18,18,0,0,0-2.91.7c-2.46,1-3.21,2.67-5.2,3.14a2.88,2.88,0,0,1-1.38.16,1.22,1.22,0,0,1-.79-1.18c.07-.61.82-.82,1.8-1.52a8.45,8.45,0,0,0,2-2.07,7.21,7.21,0,0,1,.76-.45,14.7,14.7,0,0,1,2.25-.92c4.43-1.49,8.78.38,11.43-2.09,1-.92.33-1.1,2.37-4,1.77-2.54,2.58-2.81,2.61-3.9.06-2.6-4.47-4.38-4.15-5.06.2-.42,2.1-.19,3.56.84a6.11,6.11,0,0,1,2.57,5.52c-.45,3-3.8,4.15-3.3,5.77a1.13,1.13,0,0,0,.2.36,5.26,5.26,0,0,0,2,1.16c2.5,1,2.81,11.27,1.76,11.12C1944.77,466.17,1944.65,466,1944.43,465.59Z" transform="translate(-4.58 -3.24)"/></g><g class="cls-8"><g class="cls-9"><g class="cls-10"><path class="cls-11" d="M1515.36,219.25c-10.59,8.64-30.25,29.89-37.12,61.6-2.12,9.77-4.22,20.34-.58,33,3.14,10.92,9.81,18.73,13.18,22.79,4.36,5.25,7.4,7.33,9,8.29,2.42,1.49,5,2.52,10.18,4.58a54.86,54.86,0,0,0,7.67,2.7,39.66,39.66,0,0,0,10.09,1c3.44,0,5.49,0,8.16-.85s3.16-1.53,6.4-3a57,57,0,0,1,8.15-2.74c10.13-2.82,15.2-4.23,20.38-3.85a59.66,59.66,0,0,1,12.82,2.25c3.1,1,4.15,1.73,5.82,1.2,4.13-1.33,7.82-7.4,6.67-11.1a9.9,9.9,0,0,1-.66-3.44,4.47,4.47,0,0,1,.9-2.92c.39-.46.86-.76,1-.68s-.41.68-.52,1.64a3.63,3.63,0,0,0,0,1c.35,2,1.25,3.48,1.61,5.64.22,1.3,0,1.37.22,1.64,1,1.08,4.38-.44,13-5.12s8.14-4.75,9.66-5.17c6.89-1.9,9.45,1.21,14.07-1.58a76.55,76.55,0,0,0,6.7-5.09,15.11,15.11,0,0,0,1.56-1.42c.72-.8,1-1.4,1.28-1.32s.23.76.18,1.16a2.92,2.92,0,0,1-.55,1.35c-1.69,2.32-4.29,4.68-4.07,5.77.29,1.37,5.33,1.67,10.06,1.19a32.25,32.25,0,0,0,13.67-3.88c4.59-2.6,10.07-7.31,10.77-11.39.15-.9.64-5.11,0-6.55,0-.1-.31-.65-.15-.8s.77.26.83.31a4.17,4.17,0,0,1,1.4,2.74,15.7,15.7,0,0,1-1.11,8.64c-2.67,5.45-6.9,5.94-6.6,8.5,0,.08,0,.18.1.38.47,1.82,1.35,5.19,4,7.11a7.82,7.82,0,0,0,3,1.35c1.21.24,2.18.1,2.25.38s-.18.42-1.43,1a6.75,6.75,0,0,1-6.72-2c-1.4-3-2.9-4.94-3.4-5.12s-.74-.22-.74-.22a6.25,6.25,0,0,0-.65-.12,13.24,13.24,0,0,0-5.17.57c-.81.28-6.78,2.36-9.32,3-.84.2-5.2-.32-13.9-1.39a48.39,48.39,0,0,0-10.57.08,16.45,16.45,0,0,0-2.24.52c-2.15.65-3.16,1.28-7.28,3.6-14.14,7.93-15.68,7.93-19.22,11.54s-5.49,5.6-6.06,8.69a17.73,17.73,0,0,1-1.89,5.74c-.17.31-1.51,2.72-2.09,2.5-.1,0-.61-.27,0-3.9.65-3.9,1.08-6.73,0-8.54-.45-.74-1.21-1.32-5.24-2.25a42.09,42.09,0,0,0-9.61-1.49c-4.74-.11-11.45-.27-19.21,3-4.85,2-13,5.52-16.46,14.09a22.71,22.71,0,0,0-1.45,9.44c.21,8.37,4.16,14.38,8.85,21.32,3.56,5.27,7.2,10.66,13.27,15.55,12.44,10,26.25,10.71,40.91,11.69,11.42.76,23.28,1.55,32.32-3.6a33.88,33.88,0,0,1,10.34-4.19c4.5-1,7.94-.71,12.52-.3,13,1.14,18.21,4.78,24.94,1.69,1.18-.54,3-1.6,3.16-1.39s-2.6,2.83-5.88,4.39c-1.13.54-4.7,2.1-12,1.6-8.68-.59-11.13-3.27-12.81-1.8-2.84,2.47,0,13.66,6.69,21.28,9.6,10.92,24.5,11.4,33,11.69a70.11,70.11,0,0,0,33.64-7.65c7.57-3.69,12.76-7.81,20.08-13.63a122.92,122.92,0,0,0,17.4-16.51c1.5-1.74,2.83-3.4,4-4.92,14.48-15.77,16.55-20.46,20.67-29.82.83-1.89,2.23-5.45.73-8.1a6.44,6.44,0,0,0-2.62-2.39,7.61,7.61,0,0,0-5.1-.6,6.74,6.74,0,0,0-3.48,1.77c-1.2,1.23-1.39,2.53-1.68,2.46s-.75-2.5.36-4.38c1.38-2.34,4.58-3,6.41-3.45,2.77-.67,3.33-.32,4.65-.75,3.59-1.15,7.72-9.59,7.72-9.59,3.58-8.25,5.38-12.38,6.19-17.12,0,0,3-17.29-5.75-33.24-1-1.77-2.4-3.93-4.76-4.54-.7-.18-2.54-.5-6.75,2-3.76,2.24-10.09,6.06-11.67,12.95-.64,2.78.26,2.71-.48,8.64,0,0-.67,5.32-3.6,8.82-.26.31-.63.7-.84.61-.52-.23.68-3,1-6.24.69-6.52-.74-8.25.7-12.48a51.1,51.1,0,0,1,2.36-4.81c2.5-4.85,3.69-6.38,3.2-7s-2.46.63-6.11,1.9c-4,1.38-7.27,1.74-12.72,2.34-5.16.57-7.74.86-8.39.85-2,0-3.81-.18-5.63,1a9,9,0,0,0-2.42,2.74c-3.29,4.68-3.21,5.82-5.13,7.53-.63.55-2.92,2.51-5.31,2a3.7,3.7,0,0,1-2-1,6.53,6.53,0,0,0,2.07.37,4.72,4.72,0,0,0,3.13-1.72,7.77,7.77,0,0,0,1.16-2.17,17.93,17.93,0,0,0,1.53-5.77c.13-1.54.18-2.33-.26-3.14s-1.36-1.37-2.71-2a13.11,13.11,0,0,0-5.05-1.2,9.27,9.27,0,0,0-3.88.6c-2.66,1-3.84,3-4,2.87s1.13-3.24,4-4.7c1.4-.71,2.72-.83,5.24-1a15.67,15.67,0,0,1,4,.07c2.33.43,3.22,1.45,4.88,2.18,2.2.95,3.79.58,7.62.25,8.32-.74,7.71.41,13.93-.48a40.38,40.38,0,0,0,9.46-2.32,33.71,33.71,0,0,0,6.77-3.52,38.34,38.34,0,0,0,4.36-3.68c4.17-3.87,6.25-5.81,7.06-7.34,2.53-4.73,1.31-10.05.66-12.89-.55-2.38-1.38-4.44-4.51-9.89A126.54,126.54,0,0,0,1773,249.3a130.92,130.92,0,0,0-24.67-25.25,126.88,126.88,0,0,0-20.74-12.89s-4.46-2.73-19.44-9.14a16.38,16.38,0,0,0-8.08-1.5c-1.21.1-6.46.26-7.5,2.92-.35.91-.23,2.15-1.08,2.59a1.17,1.17,0,0,1-1.25,0c-.65-.63.66-2.26.66-4.27a9.82,9.82,0,0,0-1.89-4.8c-5-7-28.25-9.66-28.25-9.66a173.7,173.7,0,0,0-25.28-2.76c-1.75-.06-.19,0-13.91,0a104,104,0,0,0-14.26.73c-1.09.13-1.64.18-2.16.3-2.65.63-10.06,2.38-11.94,7.57-1.21,3.35,1,4.44.68,13a23.05,23.05,0,0,1-1.15,6.83,13,13,0,0,1-3.88,6.4,9.48,9.48,0,0,1-3.94,1.93c-1.11.25-2.4.31-2.48,0s1.33-.66,2.88-2a10.62,10.62,0,0,0,2-2.4,16.1,16.1,0,0,0,2.17-5.1,19.53,19.53,0,0,0-.1-8.89c-.74-3.48-1.81-8.48-5.53-10.79-2.43-1.51-5.08-1.3-9-.6a118.11,118.11,0,0,0-28.24,9c-4.59,2.06-7.68,3.46-11.94,5.79a149.58,149.58,0,0,0-19.36,12.94" transform="translate(-4.58 -3.24)"/></g></g><path class="cls-7" d="M1515.36,219.25c-10.59,8.64-30.25,29.89-37.12,61.6-2.12,9.77-4.22,20.34-.58,33,3.14,10.92,9.81,18.73,13.18,22.79,4.36,5.25,7.4,7.33,9,8.29,2.42,1.49,5,2.52,10.18,4.58a54.86,54.86,0,0,0,7.67,2.7,39.66,39.66,0,0,0,10.09,1c3.44,0,5.49,0,8.16-.85s3.16-1.53,6.4-3a57,57,0,0,1,8.15-2.74c10.13-2.82,15.2-4.23,20.38-3.85a59.66,59.66,0,0,1,12.82,2.25c3.1,1,4.15,1.73,5.82,1.2,4.13-1.33,7.82-7.4,6.67-11.1a9.9,9.9,0,0,1-.66-3.44,4.47,4.47,0,0,1,.9-2.92c.39-.46.86-.76,1-.68s-.41.68-.52,1.64a3.63,3.63,0,0,0,0,1c.35,2,1.25,3.48,1.61,5.64.22,1.3,0,1.37.22,1.64,1,1.08,4.38-.44,13-5.12s8.14-4.75,9.66-5.17c6.89-1.9,9.45,1.21,14.07-1.58a76.55,76.55,0,0,0,6.7-5.09,15.11,15.11,0,0,0,1.56-1.42c.72-.8,1-1.4,1.28-1.32s.23.76.18,1.16a2.92,2.92,0,0,1-.55,1.35c-1.69,2.32-4.29,4.68-4.07,5.77.29,1.37,5.33,1.67,10.06,1.19a32.25,32.25,0,0,0,13.67-3.88c4.59-2.6,10.07-7.31,10.77-11.39.15-.9.64-5.11,0-6.55,0-.1-.31-.65-.15-.8s.77.26.83.31a4.17,4.17,0,0,1,1.4,2.74,15.7,15.7,0,0,1-1.11,8.64c-2.67,5.45-6.9,5.94-6.6,8.5,0,.08,0,.18.1.38.47,1.82,1.35,5.19,4,7.11a7.82,7.82,0,0,0,3,1.35c1.21.24,2.18.1,2.25.38s-.18.42-1.43,1a6.75,6.75,0,0,1-6.72-2c-1.4-3-2.9-4.94-3.4-5.12s-.74-.22-.74-.22a6.25,6.25,0,0,0-.65-.12,13.24,13.24,0,0,0-5.17.57c-.81.28-6.78,2.36-9.32,3-.84.2-5.2-.32-13.9-1.39a48.39,48.39,0,0,0-10.57.08,16.45,16.45,0,0,0-2.24.52c-2.15.65-3.16,1.28-7.28,3.6-14.14,7.93-15.68,7.93-19.22,11.54s-5.49,5.6-6.06,8.69a17.73,17.73,0,0,1-1.89,5.74c-.17.31-1.51,2.72-2.09,2.5-.1,0-.61-.27,0-3.9.65-3.9,1.08-6.73,0-8.54-.45-.74-1.21-1.32-5.24-2.25a42.09,42.09,0,0,0-9.61-1.49c-4.74-.11-11.45-.27-19.21,3-4.85,2-13,5.52-16.46,14.09a22.71,22.71,0,0,0-1.45,9.44c.21,8.37,4.16,14.38,8.85,21.32,3.56,5.27,7.2,10.66,13.27,15.55,12.44,10,26.25,10.71,40.91,11.69,11.42.76,23.28,1.55,32.32-3.6a33.88,33.88,0,0,1,10.34-4.19c4.5-1,7.94-.71,12.52-.3,13,1.14,18.21,4.78,24.94,1.69,1.18-.54,3-1.6,3.16-1.39s-2.6,2.83-5.88,4.39c-1.13.54-4.7,2.1-12,1.6-8.68-.59-11.13-3.27-12.81-1.8-2.84,2.47,0,13.66,6.69,21.28,9.6,10.92,24.5,11.4,33,11.69a70.11,70.11,0,0,0,33.64-7.65c7.57-3.69,12.76-7.81,20.08-13.63a122.92,122.92,0,0,0,17.4-16.51c1.5-1.74,2.83-3.4,4-4.92,14.48-15.77,16.55-20.46,20.67-29.82.83-1.89,2.23-5.45.73-8.1a6.44,6.44,0,0,0-2.62-2.39,7.61,7.61,0,0,0-5.1-.6,6.74,6.74,0,0,0-3.48,1.77c-1.2,1.23-1.39,2.53-1.68,2.46s-.75-2.5.36-4.38c1.38-2.34,4.58-3,6.41-3.45,2.77-.67,3.33-.32,4.65-.75,3.59-1.15,7.72-9.59,7.72-9.59,3.58-8.25,5.38-12.38,6.19-17.12,0,0,3-17.29-5.75-33.24-1-1.77-2.4-3.93-4.76-4.54-.7-.18-2.54-.5-6.75,2-3.76,2.24-10.09,6.06-11.67,12.95-.64,2.78.26,2.71-.48,8.64,0,0-.67,5.32-3.6,8.82-.26.31-.63.7-.84.61-.52-.23.68-3,1-6.24.69-6.52-.74-8.25.7-12.48a51.1,51.1,0,0,1,2.36-4.81c2.5-4.85,3.69-6.38,3.2-7s-2.46.63-6.11,1.9c-4,1.38-7.27,1.74-12.72,2.34-5.16.57-7.74.86-8.39.85-2,0-3.81-.18-5.63,1a9,9,0,0,0-2.42,2.74c-3.29,4.68-3.21,5.82-5.13,7.53-.63.55-2.92,2.51-5.31,2a3.7,3.7,0,0,1-2-1,6.53,6.53,0,0,0,2.07.37,4.72,4.72,0,0,0,3.13-1.72,7.77,7.77,0,0,0,1.16-2.17,17.93,17.93,0,0,0,1.53-5.77c.13-1.54.18-2.33-.26-3.14s-1.36-1.37-2.71-2a13.11,13.11,0,0,0-5.05-1.2,9.27,9.27,0,0,0-3.88.6c-2.66,1-3.84,3-4,2.87s1.13-3.24,4-4.7c1.4-.71,2.72-.83,5.24-1a15.67,15.67,0,0,1,4,.07c2.33.43,3.22,1.45,4.88,2.18,2.2.95,3.79.58,7.62.25,8.32-.74,7.71.41,13.93-.48a40.38,40.38,0,0,0,9.46-2.32,33.71,33.71,0,0,0,6.77-3.52,37.4,37.4,0,0,0,4.36-3.68c4.17-3.87,6.25-5.81,7.06-7.34,2.53-4.73,1.31-10.05.66-12.89-.55-2.38-1.38-4.44-4.51-9.89A126.54,126.54,0,0,0,1773,249.3a130.92,130.92,0,0,0-24.67-25.25,126.88,126.88,0,0,0-20.74-12.89s-4.46-2.73-19.44-9.14a16.38,16.38,0,0,0-8.08-1.5c-1.21.1-6.46.26-7.5,2.92-.35.91-.23,2.15-1.08,2.59a1.17,1.17,0,0,1-1.25,0c-.65-.63.66-2.26.66-4.27a9.82,9.82,0,0,0-1.89-4.8c-5-7-28.25-9.66-28.25-9.66a173.7,173.7,0,0,0-25.28-2.76c-1.75-.06-.19,0-13.91,0a104,104,0,0,0-14.26.73c-1.09.13-1.64.18-2.16.3-2.65.63-10.06,2.38-11.94,7.57-1.21,3.35,1,4.44.68,13a23.05,23.05,0,0,1-1.15,6.83,13,13,0,0,1-3.88,6.4,9.48,9.48,0,0,1-3.94,1.93c-1.11.25-2.4.31-2.48,0s1.33-.66,2.88-2a10.62,10.62,0,0,0,2-2.4,16.1,16.1,0,0,0,2.17-5.1,19.53,19.53,0,0,0-.1-8.89c-.74-3.48-1.81-8.48-5.53-10.79-2.43-1.51-5.08-1.3-9-.6a118.11,118.11,0,0,0-28.24,9c-4.59,2.06-7.68,3.46-11.94,5.79A149.58,149.58,0,0,0,1515.36,219.25Z" transform="translate(-4.58 -3.24)"/><path class="cls-4" d="M1544.81,235.69c0,.47-4.09-.17-9.51,1.4-2.94.85-8.39,2.5-10.87,7.19-1,1.92-1.14,3.72-1.36,6.19-.31,3.65-.57,6.58,1,8.49,2.24,2.8,5.51-.07,10.87,2.5,3.65,1.75,3.43,3.7,9.31,7.2,3.42,2,4.84,2.16,5.44,2.19,4.29.22,7.91-3.06,8-3.19,1.06-1,1.66-1.92,1.85-1.8s-.49,2.79-2.14,4.6c-3.53,3.87-8.93,3.45-9.51,3.39-2.62-.24-4.79-1.56-9.12-4.2s-4-3.13-6.21-4a16.12,16.12,0,0,0-11.65.2c-1.54.66-5.08,2.18-6,5.39-.47,1.62.09,2.39.39,5.2.17,1.6.66,6.21-.78,9.39-2.52,5.61-11.2,6.74-11.25,6.6a22.17,22.17,0,0,0,4.56-2.7,11.44,11.44,0,0,0,3.2-3.3c.79-1.36,1.15-3,1.07-5.79-.21-6.89-2.72-7.79-1.84-10.59,1.26-4.06,6.79-3.18,8.73-8.2.37-.95.3-1.33.39-6,.12-6.86.18-10.3.38-11,1.9-6.48,10.4-10.1,16.51-10.59,4.53-.37,8.56.93,8.53,1.4" transform="translate(-4.58 -3.24)"/><path class="cls-4" d="M1498.33,304.08c.4-.07.4,3.65,2.85,6.56.36.42,2.84,3.38,6,3.22,2.47-.12,2.9-1.54,8.79-6.18.65-.5,1.94-1.29,3.61-2.63a22.87,22.87,0,0,0,2.87-2.49c2.23-2.61,2.24-5,4.19-6.73a10.16,10.16,0,0,1,1.46-1c4-2.14,5.47-.25,16.36-.68,5.44-.23,9.77-.43,15.09-2.21,4.7-1.57,9.94-3.41,13.44-8.81a18.09,18.09,0,0,0,3-9.37c.15-6.41-3.48-11.15-5.08-13.23-4.43-5.78-7.65-5.07-9.89-10.33a17.86,17.86,0,0,1-1.14-9.09,20.38,20.38,0,0,1,3.93-9.23c6.09-8.5,15.7-11.69,16-11.15.11.2-1.51,1-4.57,3.71-5.08,4.5-11,9.77-11.15,16.67a14,14,0,0,0,1.77,6.84c1.91,3.5,4.57,4.6,6.59,6.16,5.25,4,7.57,12.13,7.49,17.72-.17,11.43-10.5,19.74-17.71,22.87a33.38,33.38,0,0,1-9.94,2.34c-11.61,1.39-16.78-2.54-22.44,1.37-1.8,1.25-1.75,2.13-2.76,3.85a15.88,15.88,0,0,1-2.65,3.36c-4.17,4.31-10,4.58-11.66,9-.63,1.66.19,1.5-.6,6.11-.69,4-1.46,4.83-.94,6.15,1.24,3.13,7.18,2.64,7.17,3.65,0,.61-2.24,1.41-4.38,1a7.38,7.38,0,0,1-5.64-5.1c-1-3.84,2.12-7.13.74-8.75-.63-.76-1.4-.18-3.21-.56-3.6-.75-6.37-4.3-7.44-7.53-.92-2.78-.55-5.54-.21-5.6" transform="translate(-4.58 -3.24)"/><path class="cls-4" d="M1572.14,382.75c-.92-.29-1.65-1.85-1.49-3.08.08-.67.41-1.16.65-2.7.13-.81.06-.87,0-.89-.25-.11-1.55,1.72-2.25,3.75-1.27,3.66-.2,5-1.56,6.42-1.16,1.25-2.64,1.06-3.49,2.79a5.14,5.14,0,0,0-.41,1.5c-.66,3.5.48,8.36,1,8.3s-.88-3.86,1.09-7.71c1.56-3,4.49-4.73,7.06-6.22a16.32,16.32,0,0,1,4.8-2.17c5.1-1.15,7,2,12.26.91a11.21,11.21,0,0,0,5.14-2.41,8.75,8.75,0,0,0,3.14-5.42c.07-.75.05-2-.29-2.06s-.7.71-1.1,1.38a17.45,17.45,0,0,1-3.86,4.08,12.88,12.88,0,0,1-4.66,2.17c-5.67,1.28-8.6-3.07-12.32-1.13-1.9,1-2.59,2.86-3.73,2.49" transform="translate(-4.58 -3.24)"/><path class="cls-4" d="M1616.15,360.12c1.21-4.58,3.19-7.11,2.95-7.34s-2.87,2.2-4.59,6.1c-.66,1.49-3.09,7-1.56,12.33,1.43,5,5,5,6,10.49a19.69,19.69,0,0,1,0,6c-.51,5.51-1.87,6-2.34,10.49-.09.86-.83,8.61,2.71,12.14,1.17,1.17,2.66,1.64,2.82,1.35s-2.2-1.67-3.1-4.81c-.46-1.6-.42-3.32-.34-6.58a13.35,13.35,0,0,1,.1-2.18c.51-2.52,2.38-3.7,3.1-8.16,1-6.21-1.63-9.49.24-11.84.81-1,2.55-1.23,6-1.65a41,41,0,0,1,5.17-.3c6.9,0,10.42.09,14.1,1.1,3.12.85,5,1.85,6.23,3.79.26.41,1.7,2.61,1.13,4.3-.48,1.4-2,1.63-1.95,2.1s1.76.9,2.78,0c1.35-1.2,1.11-4.33.58-6.19a10.07,10.07,0,0,0-4.59-5.7c-.53-.35-2.21-1.41-7-2a61,61,0,0,0-8.86-.2c-5.21.09-7.81.14-8.85.2-3.57.21-4.47.41-6.07-.2a8.55,8.55,0,0,1-5.24-5c-1-2.72-.26-5.41.49-8.25" transform="translate(-4.58 -3.24)"/><path class="cls-4" d="M1587.91,250.57c.54-.2-1.84-4.42-.2-8.19,1.22-2.78,4-3.93,6.89-5.09,1.75-.72,9.07-3.7,14.75-.41,1.52.88,2.82,2.15,3.4,1.7s-.73-2.51-.73-4.94c0-5.28,6.71-9.31,8.59-10.44,3.49-2.1,6.55-2.8,10.27-3.65,7-1.61,9.5-.67,13.12-3.35,2.28-1.68,1.65-4.79,4-5.69,1.91-.74,3.86.31,3.91.15a6.61,6.61,0,0,0-5.46-1.25c-2.45.63-2.59,3.43-4.85,4.6-5.13,2.63-8.34,1.34-14.66,3-4.38,1.15-12.08,3.17-14.68,9-.88,2-1.16,4.38-3.13,5.24-1.55.68-2.8-.18-4.66-.6-6.36-1.44-12.54,3.94-13.92,5.15-2.16,1.87-5.24,4.56-5.34,8.49-.09,3.52,2.25,6.47,2.72,6.29" transform="translate(-4.58 -3.24)"/><path class="cls-4" d="M1689.23,207.71a1.39,1.39,0,0,1,.6,1c.29,1.89-3,2.5-4.78,6-1,2-1.47,4.68-.48,6.39a2,2,0,0,0,.24.36c.47.57,1.37,1,4.13,2,4,1.45,5.94,2.17,8.1,2.5,3.82.57,6.22.08,6.26.39s-3.07,1.69-6.79,1.6-4.83-1.42-10.39-2.1a44.66,44.66,0,0,0-4.56-.29,63.35,63.35,0,0,0-9.61.4,39.85,39.85,0,0,0-17.85,7c-5.22,4.07-11.32,11.44-11.51,17.43,0,1.07,0,6.88-.24,9.55a15.47,15.47,0,0,0-.09,2.49c.07,1.47.31,1.86.09,2.3-.41.82-2.35.72-4.46.6-3.53-.2-5.29-.3-6.54-.26-1.92,0-3.47.52-6.47,1.46-5.57,1.74-11.07,3.54-16.3,8.69-.37.37-.62.63-.87.9a42.7,42.7,0,0,0-9.4,15.32,42.24,42.24,0,0,0-2,11.09,37.63,37.63,0,0,0,0,8.69c.4,2.83,1.26,6,1,10.7-.1,1.64-.27,2.22-.51,2.26-.67.1-1.82-4.25-2.52-6.9-1.52-5.84-2.29-8.76-2.5-11.65-.5-6.78,1.81-12.05,4-17.08,2.32-5.3,6.93-15.75,17.51-21.92a42.11,42.11,0,0,1,13.29-4.8c3.28-.58,4.93-.87,6.62-.65,2.19.29,3.72,1,4.84.15.74-.58,1-1.56,1-3,.32-5.87-.28-8.31.32-11.39a17,17,0,0,1,1.8-4.65,31.09,31.09,0,0,1,9.75-11.24,47.82,47.82,0,0,1,19.66-7.34c3.18-.4,4.39-.89,5-1.32a10.2,10.2,0,0,0,1-.73c2.61-2.16,5.68-7.47,6.48-8.87" transform="translate(-4.58 -3.24)"/><path class="cls-4" d="M1626.53,284.64c.14.23,1.5-.38,1.67-.46a12.19,12.19,0,0,0,3-2.13c3.22-2.35,10,2.59,10.58,3a6.61,6.61,0,0,1,2.62,3.2,5.84,5.84,0,0,1,.19,2.8c-.24,1.7-1.1,8.17,0,13.09a20.08,20.08,0,0,0,2.63,6.09,17,17,0,0,0,4.65,5.49c1.86,1.36,4.28,2.16,4.57,1.7s-2.23-2.2-4.26-5c-3-4.14-3.45-8.7-3.7-11.53-.14-1.59-.67-8,4.07-18.19,3.23-6.92,8.4-18,20.58-25.07,7.74-4.48,14.73-5.24,22.61-6.1a59.72,59.72,0,0,1,23,1.3c4.35,1.16,9.56,2.56,15,6.79,2.7,2.09,9,7.07,11.55,16,2.08,7.2,1.68,16.65-1.93,19.22-.42.3-1.7,1.09-1.57,1.46s2.1.38,3.69-.4c4.46-2.18,4.3-11.41,4.27-12.78-.18-9.75-5.5-16.81-7.57-19.49a39.09,39.09,0,0,0-14.65-11.49,44.92,44.92,0,0,0-12.33-3.69,70.09,70.09,0,0,0-21.84-.3c-8.69,1.18-17.89,2.43-27.07,9.29a54.32,54.32,0,0,0-11.91,13c-2.56,4.06-3.84,6.09-4.4,8.76-.37,1.77-.33,2.93-1.16,3.39-1.74,1-3.81-3.06-8.55-3.79a13.87,13.87,0,0,0-7.57,1.2c-3.59,1.51-6.42,4.23-6.21,4.59" transform="translate(-4.58 -3.24)"/><path class="cls-4" d="M1715.9,273.63c.41.29-5.79,7.48-8.61,19.22a52.24,52.24,0,0,0-1,19c.71,5.19,2.7,19.69,13.21,26.87,5.75,3.93,13.06,5,16.33,5.48.12,0,2.5.18,7.26.51,4.26.3,5.21.43,6-.38,1.56-1.6,1.4-5.7-.22-7.57a8.61,8.61,0,0,1-1.56-2c-.52-.94-1-2.38-.74-2.59.54-.39,4.92,2.9,6.33,8.15a14.16,14.16,0,0,1-3.36,13.26c-3,3-7.21,3.47-7.41,3s1.94-1.92,2.71-2.5a11.32,11.32,0,0,0,1.82-1.39c.17-.19,1.85-2.08,1.43-3.34-.34-1-1.85-1.21-10.49-2-2.13-.2-1.95-.2-2.41-.23a79.59,79.59,0,0,1-10.33-1.5A27.4,27.4,0,0,1,1711,337.5c-4.5-5-6-10.38-7-13.9-1.78-6.46-1.52-11.64-1.34-16.24a55.32,55.32,0,0,1,3.9-19.65c3.59-8.68,8.92-14.36,9.29-14.08" transform="translate(-4.58 -3.24)"/><polygon class="cls-4" points="1643.52 354.84 1717.79 431.79 1735.45 411.28 1745.58 433.02 1791.54 522.02 1817.22 486.83 1877.25 578.2 1879.52 575.31 1834.06 431.43 1797.72 478.14 1760.27 351.23 1730.38 386.08 1696.53 326.4 1643.52 354.84"/></g><g class="cls-2"><path class="cls-4" d="M1471.48,185.4c1.61-.3,3.3,2.16,3.7,2.72,3.64,5.18,14,15,19.19,19.95,8.53,8.09,16.13,11.29,15.17,14.57-.2.69-.59.76-2.65,2.76,0,0-1.21,2.17-5.54,6.25-3.68,3.47-11.25,14.46-16.83,26.91a114.54,114.54,0,0,0-8.68,28.85c-.89,5.62-1.51,9.54-1.15,15.06a57.93,57.93,0,0,0,8,25.19,61.05,61.05,0,0,0,8.89,11.41c3.16,3.21,5.85,5.95,10.24,8.18,2.77,1.41,4.78,1.4,8.37,3.34a22.1,22.1,0,0,0,4.29,1.87,27.66,27.66,0,0,0,3.48.78,55.84,55.84,0,0,0,6.24.9A41.61,41.61,0,0,0,1532,354a20.41,20.41,0,0,0,5.44-1.11c1.56-.58,1.43-.79,3.86-2a46.27,46.27,0,0,1,7.18-2.76c1.19-.35,1.16-.29,3.28-.83,5.78-1.47,6.87-2.17,11.08-3a29.29,29.29,0,0,1,5.06-.65,32.34,32.34,0,0,1,3.8.14,62.61,62.61,0,0,1,7.25,1,26.19,26.19,0,0,1,4.56,1.08,26.81,26.81,0,0,0,3.07,1.11,5.78,5.78,0,0,0,1.88.33,5.9,5.9,0,0,0,2-.43,10.63,10.63,0,0,0,3.87-3.05,14.27,14.27,0,0,0,2.89-5.81c.06-.37.09-.76.09-.76s0-.44,0-.86a8.92,8.92,0,0,0-.59-2.73l.24.9a17,17,0,0,1,.66,2.4c.07.73-.07.93.14,1.33a1.83,1.83,0,0,0,.91.79c1.37.62,3.36-.48,3.66-.65,2-1.12-28.82,16,8.26-3.94,4.39-2.37,6.59-3.55,7-3.8a19.17,19.17,0,0,1,2.44-1.37,12.33,12.33,0,0,1,3.83-1.22,21.17,21.17,0,0,1,3.35,0l2.3.07h0c.65,0,2.47,0,3.13,0a8.12,8.12,0,0,0,4-1.72c.9-.6.94-.8,2.23-1.65a16.07,16.07,0,0,0,1.7-1.19c.59-.49,1.08-1,1.09-1a6.46,6.46,0,0,0-1.15,1.32,5.92,5.92,0,0,0-.73,1.76,2.32,2.32,0,0,0-.11.79,2,2,0,0,0,.46,1.08c.56.72,1.65.93,3.1,1.07a24.19,24.19,0,0,0,3.24.18,51,51,0,0,0,9.83-1,28,28,0,0,0,3.41-.93,32.31,32.31,0,0,0,8.37-4.52,26.08,26.08,0,0,0,5.92-5.31,13.54,13.54,0,0,0,.89-1.43,12.62,12.62,0,0,0,1.21-3.31,8.75,8.75,0,0,0,.13-3c-.06,0,.79,4.07-1.25,7.46a14.59,14.59,0,0,1-2.86,3.38,15.58,15.58,0,0,0-2.58,2.33,4.25,4.25,0,0,0-1.11,2,5.2,5.2,0,0,0,.41,2.44,13.37,13.37,0,0,0,1.82,4.31,10,10,0,0,0,.94,1.1,9.16,9.16,0,0,0,1.11,1,8.44,8.44,0,0,0,.82.53c.68.4,1.11.52,1.1.55a19.24,19.24,0,0,1-2-.68,2.07,2.07,0,0,1-.94-.53,2.11,2.11,0,0,1-.42-.76,19.59,19.59,0,0,0-1-1.94,7.14,7.14,0,0,0-2.61-3.19,6,6,0,0,0-3.45-.47,17.23,17.23,0,0,0-4,.83c-2.25.64-3,1-5.92,1.9a21.51,21.51,0,0,1-3.07.83,16.72,16.72,0,0,1-4.74-.36c-1.61-.23-3.23-.33-4.84-.51-3.63-.38-5.45-.57-7.78-.71a25.8,25.8,0,0,0-6.83.18,20.8,20.8,0,0,0-2.68.68c-2.7.85-3.67,1.65-9.8,5.09-2.6,1.47-4.42,2.44-5.09,2.8s-1.19.64-2.16,1.15c-3.25,1.73-3.79,2-4.91,2.66a25.14,25.14,0,0,0-5.06,3.73c-1.66,1.55-4.13,3.84-5.22,6.53-.3.73-.56,1.58-.56,1.58a23.53,23.53,0,0,0-.63,2.65c-.51,2.53-1.81,4.66-2,4.59s.25-1,.59-2.94a19,19,0,0,0,.35-3.73,8,8,0,0,0-.7-3.66,4.88,4.88,0,0,0-1.05-1.51c-.75-.71-1.53-.9-4.53-1.5l-2.16-.43-6.06-1.08a39.42,39.42,0,0,0-10.25.14,50.05,50.05,0,0,0-13.38,3.59,32.93,32.93,0,0,0-7.46,4.2,23.4,23.4,0,0,0-3.66,3.41,24.1,24.1,0,0,0-3,4.66,26,26,0,0,0-1.88,5,23.89,23.89,0,0,0-.07,10.27,34,34,0,0,0,3.91,10.9c1.2,2.13,1.16,1.49,4,5.89,2.38,3.72,2.86,4.88,4.67,7.32a49.44,49.44,0,0,0,4.18,4.88,55.86,55.86,0,0,0,9.55,8,52.24,52.24,0,0,0,23.43,7.82c.65.07,0,0,5.08.36,10.13.74,11.62,1,16.18,1.15a84.4,84.4,0,0,0,9.41,0c4.37-.27,6.68-.42,9.69-1.43,2.46-.84,2.39-1.25,8.29-3.88a52.07,52.07,0,0,1,5.79-2.37,33.35,33.35,0,0,1,8.78-1.29,52.81,52.81,0,0,1,8.78.86c4.6.66,6.9,1,9.9,1.65a23.78,23.78,0,0,0,5.93.79c2.11,0,3.6-.34,3.62-.21s-2.84,1.12-6.27,1.5a31.14,31.14,0,0,1-9.9-.5c-3.51-.78-3.76-.86-3.76-.86-1.87-.55-2.58-1-3.84-.79a3.66,3.66,0,0,0-2.58,1.29,4.44,4.44,0,0,0-.55,2.23,15.87,15.87,0,0,0-.08,3.44,27.57,27.57,0,0,0,2.72,8.4,34.34,34.34,0,0,0,4.33,7.1,32.24,32.24,0,0,0,8.71,7.39,35,35,0,0,0,8.29,3.45c5.14,1.52,9.12,1.75,14.22,2a70.13,70.13,0,0,0,15.62-.51,66.79,66.79,0,0,0,12.2-3.15,81.73,81.73,0,0,0,15.06-7s4.53-2.72,13.38-9.48c2.28-1.74,2.06-1.93,3-2.35.35-.15.89-.35,1-.8s-.33-1-.76-1.58a26.75,26.75,0,0,1-1.61-2.87c-1.06-1.84-.77-1.92-2.09-4.59-1.45-2.95-1.62-2.48-2.37-4.38-.49-1.25-.84-2.53-1.32-2.51-.25,0-.33.35-1,1.07a12.3,12.3,0,0,1-1,.94A51.29,51.29,0,0,0,1734,420c-1.68,2.27-1.33,1.29-4.67,5.31-1.36,1.65-3.53,4.35-4.88,5.64a7.37,7.37,0,0,0-.81.84c-.83,1-1,1.83-1.35,1.81-.2,0-.24-.24-.69-.79a8.17,8.17,0,0,0-.91-.9c-1.17-1.07-7-7.5-11.57-12.16-1.92-2-1.48-1.42-4-4-3.32-3.36-5.59-5.8-7.15-7.47-1.29-1.37-1.24-1.31-10.21-10.58q-6.43-6.65-12.86-13.31c-15.92-16.48-17.47-18.08-18.68-19.41a26,26,0,0,0-3.24-3.41c-.44-.34-2.15-1.61-2.41-2.33a1.24,1.24,0,0,0-.52-.72c-.14-.06-.23-.06-.25-.11,0-.2,1.15-.72,1.4-.82,1.21-.53,2.31-1.3,3.48-1.9,6.58-3.38,13-7,19.56-10.45,16.55-8.79,24.83-13.18,25.13-13.5.06-.06.92-1,1.36-.74.24.13.12.48.5,1.08.23.35.36.36.65.79a4,4,0,0,1,.4.77c.3.74,1.38,2.59,2.46,4.46,1.71,3,3.38,6,5.12,8.94,3.08,5.23,6.28,11,10.8,19.09,0,0,8.91,16,12.09,21.38l.75,1.26.87,1.47c.4.7.39.72.44.75.84.44,3.84-4,5.55-6.39.18-.25,2.61-3.08,7.46-8.72s6.2-7.11,9.37-10.87,4.58-5.43,4.92-5.88c.48-.66,1.08-1.24,1.56-1.9s.6-.87.81-.83.36,1.14.41,1.8c.17,1.87.87,2.84,1.68,4.7.9,2.07,1.08,3.25,2.19,7.24.73,2.62,2.08,6.77,4.78,15.07,3.56,11,3.58,10.43,3.61,10.91,0,.22,0,1.08.4,1.19.51.16,1.33-1.39,2.65-3.56,1.85-3,1.63-2.27,3.06-4.7.82-1.39,1.78-3.35,3.7-7.28.28-.59.92-1.89,1.6-3.66a14.47,14.47,0,0,0,1-3.26,8,8,0,0,0-.21-3.92,7.4,7.4,0,0,0-4.15-4.09,10,10,0,0,0-6-.21,5.62,5.62,0,0,0-1.87.79,16.56,16.56,0,0,0-1.43,1.32,3.43,3.43,0,0,1,.94-1.57,6.77,6.77,0,0,1,2.79-1.62,19.75,19.75,0,0,1,2.51-.75,9.84,9.84,0,0,1,1.85-.36c.42,0,.66,0,1.36-.07a8.36,8.36,0,0,0,1.15-.15,5.72,5.72,0,0,0,1.43-.53,9.37,9.37,0,0,0,2.4-1.91,20.69,20.69,0,0,0,2.65-3.51,29.34,29.34,0,0,0,2.2-4.49,65,65,0,0,0,3.06-11.08c1.72-10.17,1.27-18.56.84-25.69a55.26,55.26,0,0,0-2.23-11.49A13.3,13.3,0,0,0,1793,299a6.24,6.24,0,0,0-1.73-1.18c-2.73-1.2-5.67.37-9.2,2.26a24.77,24.77,0,0,0-6.74,4.95,16,16,0,0,0-5.07,11.19c-.08,2.21.38,2.57.1,4.85a22.85,22.85,0,0,1-1,4.09,11.63,11.63,0,0,1-1.19,2.94c-.11,0,.25-1.16.45-3a26.36,26.36,0,0,0,.14-3.41c0-1.73-.11-2.19-.12-4.59a10.07,10.07,0,0,1,.85-4.59,20.8,20.8,0,0,1,1.4-2.73c3.08-5.35,2.42-5.17,3.35-6.39a3.19,3.19,0,0,0,.66-1.58,1.7,1.7,0,0,0-1.5-2c-.67-.09-1,.23-2.3.8-.58.25-1.19.44-1.78.68,0,0-2.14.84-4.5,1.58a45.28,45.28,0,0,1-6.2,1c-1.18.15-1.14.14-8.19.93a33.07,33.07,0,0,1-3.59.29,19.35,19.35,0,0,0-2.54,0,9.45,9.45,0,0,0-2.79.68,6.49,6.49,0,0,0-1.5.86,9.05,9.05,0,0,0-1.88,2.23c-1,1.34-1.43,2-1.57,2.22-1.23,1.92-1.4,2.62-2.62,4.27-.42.57-1.06,1.39-1.15,1.33a13,13,0,0,1,.77-1.69,16.05,16.05,0,0,0,1.12-3.37c.08-.43,0-.12.31-2.51a8.13,8.13,0,0,0,.17-1.9,4.61,4.61,0,0,0-.83-2.37c-.6-.82-1.43-1.19-3.07-1.94a15.62,15.62,0,0,0-1.6-.64,14.48,14.48,0,0,0-5-.61s1.21-.07,2.79-.15c1.4-.06,1.46-.08,1.91-.07a9.6,9.6,0,0,1,2.72.36,18.47,18.47,0,0,1,2.65,1.33,15.14,15.14,0,0,0,2.3,1,10.27,10.27,0,0,0,3.17.25c.6,0,1.09-.09,1.57-.14,1.36-.17,1.51-.3,2.4-.33.62,0,.69,0,1.57,0l1.26-.07,1.29-.07c1-.05,1.83,0,3,0,2.1.06,1.88.13,2.75.1.67,0,.62-.07,2.55-.25,1.36-.12,1.46-.1,2.07-.18s1.26-.19,2.38-.43,2.57-.56,4.16-1a34,34,0,0,0,5.93-2.4,38.77,38.77,0,0,0,7.32-5.22l2.33-2.18c1.68-1.58,2-1.9,2.45-2.34a21.92,21.92,0,0,0,2.41-2.61,12.72,12.72,0,0,0,1.88-4.2,14.75,14.75,0,0,0,.47-3.63,19.9,19.9,0,0,0-.23-3.5,31.1,31.1,0,0,0-1.36-5.81,24.23,24.23,0,0,0-2.25-4.84c-.28-.44-.45-.67-.89-1.4-.93-1.55-1.48-2.66-1.88-3.42-.77-1.49-1.4-2.49-2.64-4.5-.31-.49-1.4-2.23-3.19-4.79-.46-.66-3.24-4.6-6.38-8.39a139.05,139.05,0,0,0-15-15.21,149.68,149.68,0,0,0-25.17-17c-5.27-2.75-10.94-5.31-10.94-5.31-3-1.36-3-1.28-5.51-2.44a43,43,0,0,0-5.64-2.44,20.59,20.59,0,0,0-3.63-.94,21,21,0,0,0-8.43.86,4.56,4.56,0,0,0-2.58,1.51c-.32.43-.61,1-.7,1a7.18,7.18,0,0,1,.14-1,5.8,5.8,0,0,0,0-.93,11.54,11.54,0,0,0-1.88-4.66c-2.66-3.56-9.41-5.67-9.41-5.67a80.76,80.76,0,0,0-16.8-3.88c-6.06-.94-10.78-1.44-20.22-2.44-5.2-.55-7.47-.74-10.18-.86-3.21-.15-6.16-.11-12.06,0-4,.05-7.21.15-11,.54-1.16.12-2.64.3-4.46.65a33.72,33.72,0,0,0-6.48,1.79,13.75,13.75,0,0,0-4,2.08,8.85,8.85,0,0,0-3.2,4.81,7.5,7.5,0,0,0-.07,3.45c.17.77.41,1.15.62,2.29a14.17,14.17,0,0,1,.21,2.15c.1,1.92.15,2.87.14,3.74a22.3,22.3,0,0,1-.62,6.31,18,18,0,0,1-1.82,4.23,9.68,9.68,0,0,1-2.09,2.87,4.86,4.86,0,0,1-2.16,1.3c-.07-.11.86-.73,1.74-1.87a11,11,0,0,0,1.61-3.23,20.8,20.8,0,0,0,1.32-7.17,23.71,23.71,0,0,0-.56-4.81,34.93,34.93,0,0,0-1.11-4.31,16.11,16.11,0,0,0-1.61-4.09,9.44,9.44,0,0,0-3.34-3.08c-2.51-1.4-5.1-1.19-7.95-.79a90.32,90.32,0,0,0-14.08,3.08c-3.6,1.15-7.31,2.48-11.29,4.09a113.78,113.78,0,0,0-15,7c-6,3.41-12.13,7.47-12.13,7.47-1.63,1.07-1.6,1.08-1.81,1.14-9.27,2.86-24.36-32.61-29.93-39-.22-.26-2.16-2.45-1.58-3.51a2.58,2.58,0,0,1,.84-.71,8,8,0,0,1,1.67-.87,12.07,12.07,0,0,0,2.86-1.79c1.21-.85,1.81-1.12,7-4.09,5.34-3.07,4.69-2.77,6.06-3.52a109,109,0,0,1,10.53-4.8c5.17-2.16,7.75-3.24,11.08-4.45a173.16,173.16,0,0,1,18.48-5.46c5.62-1.35,10.1-2.11,18.82-3.59,11-1.85,16.49-2.78,24.47-3.65,5.12-.57,13.39-1.34,23.63-1.66,3.44-.1,12.58-.33,24.26.22,1.68.08,12.92.62,19.72,1.65.66.1,2.84.44,5.93.86s3.88.49,6,.79c2.92.42,5,.81,6.83,1.15,11,2,11,1.89,15.06,2.73,7.91,1.62,13.77,3.4,19.38,5.09,4.09,1.24,9.09,2.76,15.62,5.24,1.29.49,6.78,2.6,13.94,5.88,3.39,1.56,7.11,3.27,11.92,5.89a173.47,173.47,0,0,1,15.47,9.54c2,1.34,5.42,3.73,9.61,6.93,1.58,1.2,4,3.07,7,5.56,5.74,4.81,9.78,8.89,12.34,11.48,4.14,4.19,7.5,7.95,10,10.84a217.23,217.23,0,0,1,30.25,46.35,147.88,147.88,0,0,1,7,16.37,144.67,144.67,0,0,1,6.49,26,154.71,154.71,0,0,1,1.74,20.67A183.07,183.07,0,0,1,1853.2,345c-.71,6.54-1.54,11.41-2.09,14.57a250,250,0,0,1-6,26.48,168.7,168.7,0,0,1-7.18,20.74,147.51,147.51,0,0,1-11,21,144.16,144.16,0,0,1-9.34,13.06,199.17,199.17,0,0,1-20.84,22.46,172.67,172.67,0,0,1-23.28,18.88,153.64,153.64,0,0,1-37.92,18.37,143.31,143.31,0,0,1-31.23,6.38c-4,.34-21.42,1.61-38.76-2.58a120.48,120.48,0,0,1-14.71-4.66,63.72,63.72,0,0,1-10.39-4.81,59.59,59.59,0,0,1-14.64-12.13,31.93,31.93,0,0,0-5.15-5.16,18.35,18.35,0,0,0-7.18-3.81,27.54,27.54,0,0,0-5.58-.57c-1.69-.05-1.85.06-3.55,0-2.35-.09-3.39-.34-5.58-.58-2.52-.26-3.46-.17-5.93-.28a92.34,92.34,0,0,1-9.55-1.08c-8.07-1.17-16.75-2.43-24.46-4.23-4.08-1-8.08-2.07-8.08-2.07s-1.7-.47-3.08-.88a125.84,125.84,0,0,1-17.15-6.88c-5.41-2.7-9.47-4.71-13.94-8-16.35-12.19-22.9-30.6-24-34.59-.87-3.22-1.89-6.4-2.79-9.62a21.16,21.16,0,0,0-1.18-3.66,17.41,17.41,0,0,0-5.86-6.74,31.87,31.87,0,0,0-5.29-2.8c-6.24-2.92-8-3.25-11.79-5.31a50.86,50.86,0,0,1-5.71-3.73c-10.2-7.43-18.06-19-20.36-22.46a121.44,121.44,0,0,1-11.08-20.53,119.33,119.33,0,0,1-8.3-31.86,124.14,124.14,0,0,1,2-40,149.48,149.48,0,0,1,10.94-33.22,129.83,129.83,0,0,1,7-13.78,135.28,135.28,0,0,1,13.17-18,73.72,73.72,0,0,1,8-8.68,69,69,0,0,0,5.79-5.16,34.24,34.24,0,0,1,2.79-2.59c.85-.75,1.1-.93,1.46-1" transform="translate(-4.58 -3.24)"/><path class="cls-4" d="M1470.82,185.47c.19-.42,3.54-2.94,10.25-8,1.88-1.41,0,.05,8.3-6.06a9.23,9.23,0,0,1,1.31-.93c5.16-1.86,9.86,16.31,25.42,31.33,2.15,2.07,7.48,7,6.27,10.22-.18.46-.89,1.07-2.3,2.26-3.24,2.72-4.71,3.39-7.2,5.61-1.72,1.52-2,2.07-2.53,2.46-6.9,5.18-44.57-25.79-39.52-36.92" transform="translate(-4.58 -3.24)"/></g></g></svg>