<svg id="Layer_1" data-name="Layer 1" xmlns="http://www.w3.org/2000/svg" viewBox="0 0 1988.28 420.07"><defs><style>.cls-1{fill:#891940;}.cls-2{fill:#8b1d40;}.cls-3{fill:#ffc628;}.cls-4{fill:#fff;}</style></defs><path class="cls-1" d="M352.72,278" transform="translate(-6.69 -3.77)"/><path class="cls-1" d="M399,284" transform="translate(-6.69 -3.77)"/><path class="cls-2" d="M1112.93,168.79c9.42-14.21,21.48-23.46,27.58-28a133.71,133.71,0,0,1,27.33-15.93c14.63-6.32,26.42-8.27,39.7-10.46a232.85,232.85,0,0,1,34.94-3.09,225.46,225.46,0,0,1,37.56,2.61c17.2,2.78,53.18,8.59,84.68,36.07a145.05,145.05,0,0,1,25.62,29.54c4.71,7.17,13.66,20.89,17.83,38.75,9.3,39.79-9.24,82.85-9.24,82.85s-9.58,20-25,35.33a130.35,130.35,0,0,1-27.47,20.75,107.81,107.81,0,0,1-26.08,11.21,98.18,98.18,0,0,1-33.09,3.37c-19.08-1.57-32.81-8.7-36.31-12.08-2.25-2.18-4.77-4.1-6.87-6.43a15.69,15.69,0,0,0-4.14-3.58,14,14,0,0,0-6.8-1.74c-50.78-1.44-67.57-18-67.57-18-4.24-4.17-15.35-17.3-17.67-27.76a15.08,15.08,0,0,0-3.93-8.13c-2-2-3.77-2.38-9.53-5.05-2.39-1.11-4.67-2.43-7-3.64-5.11-2.65-20.58-16.78-27.48-39.54C1088.29,207.1,1110.31,172.74,1112.93,168.79Z" transform="translate(-6.69 -3.77)"/><path class="cls-3" d="M1165.8,169.72A79.21,79.21,0,0,0,1139,212.94c-1.53,6.85-3,14.27-.42,23.13a39.41,39.41,0,0,0,9.52,16,32.7,32.7,0,0,0,7.86,6.3,46.77,46.77,0,0,0,6,2.73,34.8,34.8,0,0,0,5.54,1.9,29.55,29.55,0,0,0,7.29.7,19.11,19.11,0,0,0,5.89-.6c1.85-.55,2.28-1.08,4.62-2.1a40.85,40.85,0,0,1,5.89-1.93c7.32-2,11-3,14.72-2.7a44.17,44.17,0,0,1,9.25,1.58c2.25.71,3,1.22,4.21.84,3-.93,5.65-5.19,4.82-7.78a6.46,6.46,0,0,1-.47-2.42,3,3,0,0,1,.65-2.05c.27-.32.61-.53.68-.47s-.3.47-.37,1.15a2.31,2.31,0,0,0,0,.7c.25,1.41.9,2.44,1.16,4,.16.91,0,1,.16,1.14.69.76,3.17-.3,9.43-3.59s5.88-3.33,7-3.62c5-1.34,6.82.85,10.16-1.11a57.63,57.63,0,0,0,4.84-3.57,11.59,11.59,0,0,0,1.12-1c.52-.56.75-1,.92-.92s.18.52.14.81a2,2,0,0,1-.4,1c-1.22,1.62-3.1,3.28-2.94,4,.21,1,3.85,1.18,7.27.84a23.9,23.9,0,0,0,9.87-2.73c3.32-1.82,7.27-5.12,7.78-8,.11-.63.46-3.58,0-4.59,0-.08-.22-.46-.11-.56s.56.18.6.21a3,3,0,0,1,1,1.93,10.83,10.83,0,0,1-.81,6.06c-1.93,3.82-5,4.17-4.77,6a2.74,2.74,0,0,0,.07.27c.34,1.28,1,3.64,2.93,5a5.69,5.69,0,0,0,2.17.94c.87.17,1.58.08,1.62.28s-.13.29-1,.69a5.14,5.14,0,0,1-3.09-.22,4.85,4.85,0,0,1-1.76-1.22c-1-2.12-2.1-3.47-2.46-3.6s-.53-.15-.53-.15l-.47-.08a9.74,9.74,0,0,0-3.74.4c-.58.19-4.9,1.65-6.73,2.08-.6.14-3.76-.23-10-1a35.72,35.72,0,0,0-7.63.06,11.74,11.74,0,0,0-1.62.36c-1.56.45-2.28.9-5.26,2.52-10.21,5.57-11.33,5.57-13.88,8.1s-4,3.93-4.38,6.1a12,12,0,0,1-1.37,4c-.12.22-1.08,1.91-1.51,1.75-.07,0-.43-.19,0-2.73.48-2.74.78-4.72,0-6-.32-.53-.87-.93-3.78-1.58a30.33,30.33,0,0,0-6.94-1,32.39,32.39,0,0,0-13.88,2.1c-3.5,1.43-9.41,3.87-11.88,9.88a15.44,15.44,0,0,0-1.05,6.63c.15,5.87,3,10.09,6.39,15,2.57,3.69,5.2,7.47,9.59,10.91,9,7,19,7.51,29.55,8.2,8.24.53,16.81,1.08,23.34-2.53a24.85,24.85,0,0,1,7.47-2.94,28.25,28.25,0,0,1,9-.21c9.36.81,13.16,3.35,18,1.19.86-.38,2.19-1.13,2.28-1s-1.87,2-4.24,3.08c-.82.38-3.39,1.47-8.69,1.13-6.27-.42-8-2.3-9.25-1.27-2,1.74,0,9.59,4.83,14.93,6.93,7.66,17.7,8,23.87,8.21a51.9,51.9,0,0,0,24.3-5.37c5.47-2.59,9.22-5.49,14.5-9.56a88,88,0,0,0,12.57-11.59c1.08-1.22,2-2.38,2.89-3.45,10.46-11.07,12-14.35,14.93-20.93.6-1.32,1.61-3.82.53-5.67a4.63,4.63,0,0,0-1.9-1.69,5.76,5.76,0,0,0-3.68-.42,4.9,4.9,0,0,0-2.51,1.25c-.87.86-1,1.77-1.22,1.72s-.54-1.76.26-3.07c1-1.64,3.31-2.11,4.63-2.42,2-.47,2.41-.23,3.37-.53s3.22-1.22,5.57-6.73c1.74-4.08,2.18-7.65,2.52-12,1-12.94.09-19.22-2.21-23.35a5.89,5.89,0,0,0-3.43-3.19c-.51-.13-1.83-.35-4.87,1.4-2.73,1.58-7.3,4.26-8.44,9.09-.46,1.95.2,1.9-.34,6.06a13.41,13.41,0,0,1-2.6,6.19c-.19.22-.46.5-.61.43-.38-.16.49-2.12.74-4.38.49-4.57-.54-5.79.5-8.75.19-.53.7-1.48,1.7-3.38,1.81-3.4,2.68-4.47,2.32-4.9s-1.78.44-4.42,1.33a39.83,39.83,0,0,1-9.18,1.64c-3.73.4-5.59.6-6.07.6a6.88,6.88,0,0,0-4.06.7,6.48,6.48,0,0,0-1.75,1.92c-2.37,3.29-2.31,4.09-3.7,5.28-.45.39-2.11,1.77-3.84,1.4a2.66,2.66,0,0,1-1.42-.72,5.53,5.53,0,0,0,1.5.26,3.43,3.43,0,0,0,2.26-1.21,5.4,5.4,0,0,0,.84-1.52,12.55,12.55,0,0,0,1.11-4,3.67,3.67,0,0,0-.19-2.2c-.37-.68-1-1-2-1.4a9.69,9.69,0,0,0-3.65-.84,6.76,6.76,0,0,0-2.8.42,9.66,9.66,0,0,0-2.89,2c-.14-.13.81-2.28,2.89-3.3a9.09,9.09,0,0,1,3.78-.69,12.26,12.26,0,0,1,2.9.06c1.68.3,2.32,1,3.52,1.52,1.59.67,2.74.41,5.5.18,6-.52,5.57.29,10.06-.34a29.29,29.29,0,0,0,6.84-1.63,23.78,23.78,0,0,0,4.89-2.47,28.19,28.19,0,0,0,3.15-2.57c3-2.72,4.51-4.08,5.1-5.15,1.82-3.32.94-7.06.47-9-.39-1.67-1-3.12-3.26-6.94a89.58,89.58,0,0,0-6.25-9.62,93.07,93.07,0,0,0-17.83-17.72,91.77,91.77,0,0,0-15-9s-3.22-1.91-14-6.41a12.2,12.2,0,0,0-5.83-1.06c-.87.08-4.67.19-5.42,2.05-.25.64-.17,1.51-.78,1.82a.84.84,0,0,1-.9,0c-.47-.44.47-1.58.47-3a6.66,6.66,0,0,0-1.37-3.37c-3.58-4.89-20.39-6.78-20.4-6.78-9-.64-13.37-1.76-19.5-1.79-6.69,0-7.23.6-13.79.3a22.56,22.56,0,0,0-6.87.28c-1.92.44-7.27,1.67-8.63,5.31-.87,2.35.76,3.11.5,9.13a16.31,16.31,0,0,1-.83,4.79,9.19,9.19,0,0,1-2.81,4.49,6.93,6.93,0,0,1-2.85,1.36c-.8.17-1.73.21-1.79,0s1-.47,2.08-1.4a7.73,7.73,0,0,0,1.48-1.68,11.16,11.16,0,0,0,1.57-3.58,13.29,13.29,0,0,0-.08-6.24c-.53-2.45-1.3-5.95-4-7.57-1.76-1.06-3.67-.91-6.52-.42a87.55,87.55,0,0,0-20.4,6.3c-3.31,1.45-5.55,2.43-8.63,4.07A107.43,107.43,0,0,0,1165.8,169.72Z" transform="translate(-6.69 -3.77)"/><path class="cls-2" d="M1187.07,181.25c0,.33-3-.12-6.87,1-2.12.6-6.06,1.76-7.85,5.05a10.38,10.38,0,0,0-1,4.34c-.23,2.56-.41,4.62.7,6,1.63,2,4-.05,7.85,1.76,2.64,1.22,2.48,2.59,6.73,5,2.48,1.43,3.5,1.52,3.93,1.54a9.11,9.11,0,0,0,5.82-2.24c.76-.69,1.2-1.35,1.33-1.26s-.35,2-1.54,3.22c-2.55,2.72-6.45,2.43-6.87,2.39-1.9-.17-3.46-1.1-6.59-2.95s-2.9-2.19-4.49-2.8a11.92,11.92,0,0,0-8.41.14c-1.11.46-3.67,1.53-4.35,3.79-.34,1.13.07,1.67.28,3.64.13,1.12.48,4.35-.56,6.59-1.82,3.93-8.09,4.73-8.13,4.63a16,16,0,0,0,3.3-1.9,8.2,8.2,0,0,0,2.31-2.31,7,7,0,0,0,.77-4.07c-.15-4.83-2-5.45-1.33-7.43.91-2.84,4.91-2.23,6.31-5.74.26-.67.22-.94.28-4.21a75.29,75.29,0,0,1,.28-7.71c1.37-4.55,7.5-7.09,11.92-7.43C1184.18,180,1187.09,180.92,1187.07,181.25Z" transform="translate(-6.69 -3.77)"/><path class="cls-2" d="M1153.5,229.24c.29-.05.29,2.56,2.06,4.6.25.3,2,2.37,4.35,2.26,1.79-.09,2.09-1.08,6.35-4.33.47-.36,1.4-.91,2.61-1.85a16.46,16.46,0,0,0,2.07-1.75c1.62-1.83,1.62-3.52,3-4.72a7.51,7.51,0,0,1,1-.69c2.88-1.5,4-.17,11.82-.48a36.93,36.93,0,0,0,10.9-1.55c3.4-1.1,7.18-2.39,9.71-6.18a12.5,12.5,0,0,0,2.2-6.57c.11-4.5-2.51-7.82-3.67-9.28-3.2-4.06-5.53-3.56-7.14-7.25a12.24,12.24,0,0,1-.83-6.38,14.1,14.1,0,0,1,2.84-6.48c4.4-6,11.34-8.2,11.54-7.82.08.14-1.09.71-3.29,2.61-3.67,3.15-8,6.85-8.06,11.69a9.68,9.68,0,0,0,1.28,4.8c1.38,2.46,3.3,3.23,4.76,4.32,3.79,2.82,5.46,8.51,5.41,12.43-.12,8-7.58,13.85-12.8,16a24.73,24.73,0,0,1-7.17,1.64c-8.39,1-12.12-1.78-16.21,1-1.3.87-1.27,1.48-2,2.7a11.43,11.43,0,0,1-1.92,2.35c-3,3-7.18,3.21-8.42,6.34-.46,1.17.14,1.06-.43,4.3-.51,2.83-1.06,3.38-.68,4.3.89,2.2,5.18,1.86,5.17,2.57,0,.43-1.61,1-3.16.72a5.29,5.29,0,0,1-4.07-3.58c-.75-2.69,1.53-5,.54-6.14-.46-.53-1-.12-2.32-.39-2.61-.53-4.61-3-5.38-5.28C1153,231.21,1153.26,229.28,1153.5,229.24Z" transform="translate(-6.69 -3.77)"/><path class="cls-2" d="M1206.81,284.44a2.17,2.17,0,0,1-1.08-2.17c.06-.47.3-.81.48-1.89.09-.57,0-.61,0-.62-.19-.08-1.12,1.2-1.63,2.63-.91,2.57-.14,3.48-1.12,4.5s-1.91.74-2.53,2a3.77,3.77,0,0,0-.29,1.06c-.48,2.45.34,5.85.72,5.81s-.64-2.7.78-5.4c1.12-2.14,3.24-3.33,5.1-4.37a12,12,0,0,1,3.47-1.52c3.68-.81,5,1.38,8.85.64a8.1,8.1,0,0,0,3.71-1.69,6.11,6.11,0,0,0,2.27-3.8c0-.54,0-1.39-.21-1.45s-.5.5-.79,1a12.43,12.43,0,0,1-2.79,2.87,9.27,9.27,0,0,1-3.37,1.52c-4.09.9-6.21-2.15-8.89-.79C1208.13,283.38,1207.64,284.7,1206.81,284.44Z" transform="translate(-6.69 -3.77)"/><path class="cls-2" d="M1238.6,268.56c.88-3.22,2.3-5,2.13-5.15s-2.07,1.54-3.32,4.27c-.47,1.05-2.22,4.91-1.12,8.66,1,3.52,3.57,3.52,4.35,7.36a13.14,13.14,0,0,1,0,4.21c-.37,3.86-1.34,4.22-1.69,7.36-.06.6-.6,6,2,8.52.85.82,1.92,1.15,2,.94s-1.59-1.17-2.24-3.37a15.65,15.65,0,0,1-.25-4.62,10.28,10.28,0,0,1,.07-1.53c.38-1.77,1.72-2.59,2.24-5.73.73-4.35-1.18-6.65.18-8.3.59-.71,1.84-.86,4.35-1.16a30,30,0,0,1,3.73-.21c5,0,7.53.07,10.19.77,2.26.6,3.58,1.3,4.5,2.67.19.28,1.23,1.82.82,3-.35,1-1.47,1.14-1.41,1.47s1.27.64,2,0c1-.84.8-3,.42-4.34a7.16,7.16,0,0,0-3.32-4c-.38-.24-1.6-1-5-1.4a45.06,45.06,0,0,0-6.4-.14c-3.76.06-5.65.1-6.39.14-2.58.14-3.23.28-4.39-.14a6.17,6.17,0,0,1-3.79-3.51C1237.54,272.44,1238.06,270.55,1238.6,268.56Z" transform="translate(-6.69 -3.77)"/><path class="cls-2" d="M1218.2,191.69c.39-.14-1.33-3.1-.14-5.74.88-2,2.91-2.76,5-3.58,1.26-.5,6.55-2.59,10.65-.28,1.1.62,2,1.5,2.46,1.19s-.53-1.76-.53-3.47c0-3.7,4.84-6.53,6.2-7.32a23.31,23.31,0,0,1,7.42-2.56c5.08-1.13,6.86-.47,9.48-2.35,1.64-1.18,1.18-3.36,2.87-4a5.24,5.24,0,0,1,2.82.11,4.81,4.81,0,0,0-3.94-.88c-1.77.45-1.87,2.41-3.5,3.23-3.71,1.85-6,.94-10.59,2.1-3.17.81-8.73,2.22-10.6,6.31-.64,1.39-.85,3.07-2.26,3.68-1.12.48-2-.13-3.37-.42-4.6-1-9.06,2.77-10.06,3.61-1.55,1.32-3.78,3.2-3.85,6C1216.17,189.75,1217.86,191.82,1218.2,191.69Z" transform="translate(-6.69 -3.77)"/><path class="cls-2" d="M1291.38,161.62a1,1,0,0,1,.44.72c.2,1.32-2.14,1.75-3.45,4.19-.75,1.4-1.07,3.29-.35,4.48a2.36,2.36,0,0,0,.17.26c.34.4,1,.72,3,1.43a32,32,0,0,0,5.86,1.75c2.75.4,4.49.06,4.52.28s-2.22,1.18-4.91,1.12-3.49-1-7.5-1.47c-1.26-.15-2.19-.18-3.29-.21a48,48,0,0,0-6.94.28,29.25,29.25,0,0,0-12.9,4.91c-3.77,2.86-8.17,8-8.31,12.23,0,.74,0,4.83-.17,6.69a10.31,10.31,0,0,0-.07,1.76c0,1,.23,1.3.07,1.61-.3.57-1.7.5-3.23.42-2.54-.14-3.82-.21-4.72-.18a16.71,16.71,0,0,0-4.67,1c-4,1.22-8,2.48-11.78,6.1-.27.26-.44.44-.63.63a30,30,0,0,0-6.79,10.75,28.8,28.8,0,0,0-1.47,7.78,25.88,25.88,0,0,0,0,6.1,30.22,30.22,0,0,1,.7,7.5c-.07,1.15-.19,1.57-.37,1.59-.48.07-1.31-3-1.81-4.84a45.88,45.88,0,0,1-1.81-8.17c-.36-4.76,1.31-8.46,2.9-12,1.68-3.73,5-11.06,12.65-15.39a30.74,30.74,0,0,1,9.6-3.36,16.29,16.29,0,0,1,4.78-.46c1.58.2,2.68.72,3.49.11.54-.41.69-1.1.75-2.11.23-4.11-.2-5.83.23-8a11.8,11.8,0,0,1,1.3-3.26,22.09,22.09,0,0,1,7-7.89,35.22,35.22,0,0,1,14.2-5.15,9,9,0,0,0,3.65-.92,7.35,7.35,0,0,0,.73-.51c2-1.57,3-4,4.68-6.23C1288.13,163.64,1290.4,161.14,1291.38,161.62Z" transform="translate(-6.69 -3.77)"/><path class="cls-2" d="M1246.1,215.6c.09.16,1.08-.27,1.2-.33a8.51,8.51,0,0,0,2.16-1.49c2.33-1.65,7.24,1.82,7.65,2.1a4.67,4.67,0,0,1,1.89,2.24,4.07,4.07,0,0,1,.14,2,27.88,27.88,0,0,0,0,9.18,13.8,13.8,0,0,0,1.89,4.27,12.14,12.14,0,0,0,3.37,3.86c1.33.95,3.08,1.51,3.29,1.19s-1.61-1.55-3.07-3.48a15,15,0,0,1-2.68-8.08c-.1-1.12-.48-5.61,3-12.76,2.32-4.86,6.06-12.66,14.86-17.6,5.59-3.14,10.64-3.67,16.33-4.27a44.16,44.16,0,0,1,16.62.91,28.5,28.5,0,0,1,10.86,4.76,21.91,21.91,0,0,1,8.34,11.22c1.51,5.05,1.22,11.68-1.39,13.49-.3.21-1.23.76-1.13,1s1.52.26,2.66-.28c3.23-1.53,3.11-8,3.09-9-.13-6.84-4-11.8-5.47-13.67a27.93,27.93,0,0,0-10.59-8.06,33.11,33.11,0,0,0-8.9-2.6,52.7,52.7,0,0,0-15.77-.21c-6.28.83-12.92,1.71-19.56,6.52a39,39,0,0,0-8.6,9.14c-1.85,2.84-2.77,4.27-3.18,6.14-.27,1.25-.23,2.06-.84,2.39-1.25.67-2.75-2.16-6.17-2.67a10.3,10.3,0,0,0-5.46.84C1248,213.43,1246,215.34,1246.1,215.6Z" transform="translate(-6.69 -3.77)"/><path class="cls-2" d="M1310.65,207.87c.3.21-4.19,5.25-6.22,13.49a35.88,35.88,0,0,0-.72,13.35c.52,3.64,2,13.81,9.54,18.85,4.16,2.76,9.44,3.51,11.8,3.85l5.24.36c3.08.21,3.77.3,4.34-.27,1.13-1.13,1-4-.15-5.31a5.88,5.88,0,0,1-1.13-1.37c-.37-.66-.73-1.67-.53-1.82.39-.27,3.55,2,4.57,5.72A9.75,9.75,0,0,1,1335,264c-2.15,2.08-5.21,2.43-5.35,2.12s1.4-1.35,2-1.75a8.24,8.24,0,0,0,1.31-1c.12-.13,1.34-1.46,1-2.34-.24-.7-1.33-.85-7.57-1.42-1.54-.14-1.41-.14-1.74-.16a57.53,57.53,0,0,1-7.47-1.06,19.88,19.88,0,0,1-10-5.75,22.33,22.33,0,0,1-5-9.76,33.35,33.35,0,0,1-1-11.39,37.94,37.94,0,0,1,2.82-13.79C1306.53,211.66,1310.38,207.68,1310.65,207.87Z" transform="translate(-6.69 -3.77)"/><polygon class="cls-2" points="1254.98 263.35 1308.63 317.35 1321.39 302.95 1328.7 318.21 1361.9 380.66 1380.45 355.96 1423.8 420.07 1425.45 418.04 1392.61 317.09 1366.36 349.86 1339.31 260.82 1317.73 285.27 1293.27 243.4 1254.98 263.35"/><path class="cls-2" d="M279.13,80.17s-272.58.38-272.44.07,0-37.86,0-37.86l272.44,0Z" transform="translate(-6.69 -3.77)"/><path class="cls-2" d="M164.51,77.05s.39,294.09.08,293.93-37.86,0-37.86,0l0-293.93Z" transform="translate(-6.69 -3.77)"/><path class="cls-2" d="M353.39,118.06" transform="translate(-6.69 -3.77)"/><path class="cls-2" d="M328.56,102.53" transform="translate(-6.69 -3.77)"/><path class="cls-2" d="M618.94,371c-12.61.07-25.42-.06-38,0,1.42-27.56,2.13-54.52,2-73.4-.15-23.95-1-39.64-5.55-58.36a139.8,139.8,0,0,0-10.74-29.95,142.67,142.67,0,0,0-18.34-27.13c-17.57-19.82-42.44-29.92-44.41-30.71-37.69-14.91-70.42-4.7-84.28-.37a102.35,102.35,0,0,0-26.19,12.17,98.19,98.19,0,0,0-23.11,20.92A78.63,78.63,0,0,0,357.06,207c-4.36,12.05-4.9,23.58-5.24,30.91,0,.75-.11.06-.16,6.25,0,3.4-.69,22.86-.82,26.31-.47,12.33-.21,22.66,0,56.57.06,9.52.13,23.55.16,40.78l-35-.06c.27-10.9.54-28.21.14-49.59-.5-27-1.68-37.88-1.54-63.61.15-27.06.29-40.87,4.12-54.41a128.93,128.93,0,0,1,21.06-41.81,143.58,143.58,0,0,1,50.52-38.93,147.2,147.2,0,0,1,17.67-6.5c4.35-1.24,8.42-2.15,12.17-2.83a144.14,144.14,0,0,1,20-2.08h.21c11.86-.58,23.37-.28,25.1-.21C503.2,109.14,530.5,122,530.57,122h0c18.83,9.1,55,30.29,73.35,70.74,8.43,18.58,12,38.88,13.25,45.67.53,3,.85,5.25,1.1,7,3.13,21.66,3.1,39.47,3,53C621,325,619.87,352,618.94,371Z" transform="translate(-6.69 -3.77)"/><path class="cls-2" d="M352.69,44s.44,328.51.09,328.33-43.29,0-43.29,0l0-328.33Z" transform="translate(-6.69 -3.77)"/><path class="cls-2" d="M1598.43,82.78s.38,289,.08,288.9-37.75,0-37.75,0l0-288.9Z" transform="translate(-6.69 -3.77)"/><path class="cls-2" d="M1685,150.54s-204.78.33-204.67.07,0-32.88,0-32.88l204.67,0Z" transform="translate(-6.69 -3.77)"/><path class="cls-2" d="M800.46,114.11s.38,259.38.08,259.24-37.86,0-37.86,0l0-259.24Z" transform="translate(-6.69 -3.77)"/><path class="cls-2" d="M1067.24,372.38l-37.84.2c1.41-27.57,1.71-51.3,1.6-70.18-.15-23.95-1-39.64-5.55-58.36a139.8,139.8,0,0,0-10.74-29.95A142.67,142.67,0,0,0,996.37,187C978.8,167.14,953.93,157,952,156.26c-37.68-14.92-70.42-4.7-84.27-.38a102.7,102.7,0,0,0-26.19,12.17A98.19,98.19,0,0,0,818.38,189a78.77,78.77,0,0,0-13.24,22.82c-4.36,12.05-4.9,23.58-5.24,30.92,0,.75-.11.06-.16,6.24,0,3.4-.69,22.86-.82,26.32-.48,12.33-.21,22.65,0,56.56.06,9.52.13,23.55.16,40.79l-35-.07c.27-10.89.54-28.2.14-49.59-.5-27-1.68-37.88-1.54-63.6.15-27.07.29-40.88,4.12-54.42a129,129,0,0,1,21.06-41.81,143.58,143.58,0,0,1,50.52-38.93A146.14,146.14,0,0,1,856,117.71c4.35-1.24,8.42-2.16,12.16-2.84a144.51,144.51,0,0,1,20-2.08h.2c11.87-.58,23.38-.27,25.11-.21,37.81,1.41,65.11,14.24,65.18,14.27h0c18.83,9.1,55,30.29,73.35,70.74,8.43,18.58,12,38.88,13.25,45.67.53,3,.85,5.25,1.1,7,3.13,21.67,3.1,39.47,3,53C1069,329.82,1068.17,353.43,1067.24,372.38Z" transform="translate(-6.69 -3.77)"/><path class="cls-2" d="M1751.41,117.69S1864.34,357.13,1864,357.14s-34.15,17.09-34.15,17.09L1709.94,117.69Z" transform="translate(-6.69 -3.77)"/><polygon class="cls-2" points="1822.99 370.46 1860.57 370.46 1841.78 352.25 1822.99 370.46"/><path class="cls-2" d="M1953.6,117.69s-120.28,239.44-119.94,239.45,34.14,17.09,34.14,17.09L1995,117.69Z" transform="translate(-6.69 -3.77)"/><path class="cls-1" d="M711.19,83.59" transform="translate(-6.69 -3.77)"/><path class="cls-1" d="M680.81,59.28" transform="translate(-6.69 -3.77)"/><path class="cls-2" d="M702.59,112.82S703,371.1,702.67,371s-37.86,0-37.86,0l0-258.14Z" transform="translate(-6.69 -3.77)"/><path class="cls-2" d="M650.09,19.31a31.25,31.25,0,0,1,7.44-7.57,36.68,36.68,0,0,1,7.39-4.31,41.82,41.82,0,0,1,10.72-2.82,62.64,62.64,0,0,1,9.44-.84,61,61,0,0,1,10.14.71c4.64.75,14.36,2.32,22.87,9.74a39.16,39.16,0,0,1,6.92,8,32.49,32.49,0,0,1,4.82,10.47c2.51,10.74-2.5,22.37-2.5,22.37a39.24,39.24,0,0,1-6.74,9.54,35.15,35.15,0,0,1-7.42,5.61,29.41,29.41,0,0,1-7,3,26.74,26.74,0,0,1-8.93.91c-5.16-.43-8.86-2.35-9.81-3.27-.61-.58-1.29-1.1-1.85-1.73a4.27,4.27,0,0,0-1.12-1,3.81,3.81,0,0,0-1.84-.47c-13.71-.39-18.25-4.85-18.25-4.85-1.14-1.12-4.14-4.67-4.77-7.5a4.11,4.11,0,0,0-1.06-2.19,8.83,8.83,0,0,0-2.58-1.36c-.64-.3-1.26-.66-1.89-1-1.38-.71-5.56-4.53-7.42-10.68C643.43,29.66,649.38,20.38,650.09,19.31Z" transform="translate(-6.69 -3.77)"/><path class="cls-3" d="M711.36,33.43c-.32.08-.11,1.23-.59,3.39a5.29,5.29,0,0,1-.68,2c-.72,1-2.16,1.88-3,1.5-.36-.16-.84-.65-1-.5a.05.05,0,0,0,0,0,3.17,3.17,0,0,0,0,1.89c.59,1.9-1.08,4.21-1.23,4.43a10.14,10.14,0,0,1-2,1.83,13.93,13.93,0,0,0-2.29,2.07,7,7,0,0,0-.55.75c-.2.34-1,1.74-.48,2.54,0,0,.28.39.51.34.38-.09.09-1.22.82-2.16,1.09-1.38,2.06-1.07,3.56-2.14a5.93,5.93,0,0,0,3-4.55c0-.85-.12-1.83.31-2.3s.75-.11,1.28-.06c1.81.16,2.9-2.39,3.14-3a5.75,5.75,0,0,0,.57-3.74C712.42,34.55,711.72,33.35,711.36,33.43Z" transform="translate(-6.69 -3.77)"/><path class="cls-3" d="M663,29.06c.71-.42.83-.73,1.35-1a6.11,6.11,0,0,1,1.92-.43c.66-.07,3.4-.37,3.87,2.12.12.66.07,1.47.35,1.35s.57-1.33,1.29-2.51a9.44,9.44,0,0,1,5.3-3.71,7.35,7.35,0,0,1,3.69-.16c2.27.32,2.62,1.17,4.34.44.65-.28,2.4-.83,2.71-2.14,0-.06.15-.64-.07-.77s-1.07,1.11-2.6,1.46c-2.09.48-2.52-.65-4.62-.84A7.24,7.24,0,0,0,674.12,25c-.82.82-1.61,1.93-2.36,2.05s-.66-.53-1-1c-1.18-1.7-4.36-.06-5.07.31-2.41,1.24-4,3.09-3.89,3.27S662.91,29.11,663,29.06Z" transform="translate(-6.69 -3.77)"/><path class="cls-3" d="M693.09,49.22a4.5,4.5,0,0,1-.47-2.63c-.06-1.28-.68-3.15-2-3.77a1.84,1.84,0,0,0-.64-.2c-1.07-.19-2.08.35-5.79,1-.49.09-1.41.15-2.67.39a13.42,13.42,0,0,0-2.21.52c-1.88.74-2.46,2-4,2.33h0a2.34,2.34,0,0,1-1.06.12.91.91,0,0,1-.6-.88c.05-.45.62-.6,1.37-1.12a6.67,6.67,0,0,0,1.56-1.54c.12-.07.3-.19.58-.33a10.59,10.59,0,0,1,1.72-.69c3.37-1.1,6.7.28,8.73-1.55.75-.68.25-.81,1.8-3,1.36-1.88,2-2.09,2-2.9,0-1.93-3.42-3.24-3.17-3.75.15-.31,1.6-.13,2.71.62a4.51,4.51,0,0,1,2,4.1c-.34,2.23-2.9,3.08-2.52,4.28a.68.68,0,0,0,.16.26,4,4,0,0,0,1.52.87c1.91.72,2.15,8.36,1.34,8.24C693.34,49.66,693.26,49.51,693.09,49.22Z" transform="translate(-6.69 -3.77)"/><path class="cls-1" d="M1500.83,375.41" transform="translate(-6.69 -3.77)"/><path class="cls-1" d="M1470.45,351.11" transform="translate(-6.69 -3.77)"/><path class="cls-4" d="M1501,325.26c-.33.08-.11,1.23-.6,3.39a5.23,5.23,0,0,1-.68,2c-.72,1-2.16,1.88-3,1.5-.36-.16-.84-.64-1-.5,0,0,0,0,0,0a3.16,3.16,0,0,0,0,1.89c.59,1.9-1.07,4.22-1.23,4.43a9.82,9.82,0,0,1-2,1.84,13.88,13.88,0,0,0-2.29,2.07,5.33,5.33,0,0,0-.55.75c-.2.33-1,1.73-.48,2.53,0,0,.28.4.52.34s.08-1.21.82-2.15c1.08-1.39,2-1.08,3.55-2.15a5.86,5.86,0,0,0,3-4.54c0-.85-.12-1.83.31-2.3s.75-.11,1.28-.07c1.81.17,2.9-2.38,3.15-2.95a5.85,5.85,0,0,0,.56-3.75C1502.06,326.38,1501.36,325.18,1501,325.26Z" transform="translate(-6.69 -3.77)"/><path class="cls-4" d="M1452.64,320.89c.71-.43.83-.74,1.35-1a6.38,6.38,0,0,1,1.92-.42c.66-.07,3.41-.37,3.87,2.11.12.67.07,1.48.35,1.36s.57-1.34,1.29-2.51a9.39,9.39,0,0,1,5.3-3.71,7.39,7.39,0,0,1,3.7-.16c2.26.32,2.61,1.16,4.33.43.65-.27,2.4-.82,2.71-2.13,0-.06.15-.65-.07-.78s-1.07,1.12-2.6,1.47c-2.09.47-2.52-.66-4.62-.84a7.26,7.26,0,0,0-6.41,2.05c-.81.82-1.6,1.94-2.36,2-.6.09-.66-.52-1-1-1.18-1.69-4.36-.05-5.07.31-2.41,1.25-4,3.1-3.89,3.28S1452.56,320.94,1452.64,320.89Z" transform="translate(-6.69 -3.77)"/><path class="cls-1" d="M1506,381.07" transform="translate(-6.69 -3.77)"/><path class="cls-1" d="M1475.6,356.77" transform="translate(-6.69 -3.77)"/><path class="cls-2" d="M1444.88,316.8a31.15,31.15,0,0,1,7.44-7.58,37,37,0,0,1,7.39-4.3,41.42,41.42,0,0,1,10.72-2.82,62.64,62.64,0,0,1,9.44-.84A61,61,0,0,1,1490,302c4.64.75,14.36,2.32,22.87,9.74a39.16,39.16,0,0,1,6.92,8,32.53,32.53,0,0,1,4.82,10.46c2.51,10.75-2.5,22.38-2.5,22.38a39.45,39.45,0,0,1-6.74,9.54,35.5,35.5,0,0,1-7.42,5.61,29.41,29.41,0,0,1-7,3,26.33,26.33,0,0,1-8.93.9c-5.16-.42-8.86-2.34-9.81-3.26-.61-.59-1.29-1.11-1.85-1.73a4.27,4.27,0,0,0-1.12-1,3.7,3.7,0,0,0-1.84-.47c-13.71-.39-18.25-4.85-18.25-4.85-1.14-1.13-4.14-4.67-4.77-7.5a4,4,0,0,0-1.06-2.19,9,9,0,0,0-2.58-1.37c-.64-.3-1.26-.65-1.89-1-1.38-.71-5.56-4.53-7.42-10.68C1438.22,327.15,1444.17,317.87,1444.88,316.8Z" transform="translate(-6.69 -3.77)"/><path class="cls-3" d="M1506.15,330.92c-.32.08-.11,1.23-.59,3.39a5.36,5.36,0,0,1-.68,2c-.72,1-2.16,1.88-3,1.5-.36-.17-.84-.65-1-.51,0,0,0,0,0,.05a3.17,3.17,0,0,0,0,1.89c.59,1.89-1.08,4.21-1.23,4.42a9.82,9.82,0,0,1-2,1.84,13.93,13.93,0,0,0-2.29,2.07,6,6,0,0,0-.55.75c-.2.34-1,1.74-.48,2.53,0,0,.28.4.51.34.38-.09.09-1.21.82-2.15,1.09-1.38,2.06-1.07,3.56-2.14a5.93,5.93,0,0,0,3-4.55c0-.85-.12-1.83.31-2.3s.75-.11,1.28-.06c1.81.16,2.9-2.39,3.14-3a5.76,5.76,0,0,0,.57-3.75C1507.21,332,1506.51,330.84,1506.15,330.92Z" transform="translate(-6.69 -3.77)"/><path class="cls-3" d="M1457.79,326.55c.71-.42.83-.73,1.35-1a6.11,6.11,0,0,1,1.92-.43c.66-.07,3.4-.37,3.87,2.12.12.66.07,1.47.35,1.35s.57-1.33,1.29-2.51a9.39,9.39,0,0,1,5.3-3.71,7.35,7.35,0,0,1,3.69-.16c2.27.32,2.62,1.17,4.34.43.65-.27,2.4-.82,2.71-2.13,0-.06.15-.65-.07-.78s-1.07,1.12-2.6,1.47c-2.09.47-2.52-.65-4.62-.84a7.26,7.26,0,0,0-6.41,2.05c-.82.82-1.61,1.94-2.36,2.05-.6.09-.66-.52-1-1-1.18-1.69-4.36-.05-5.07.32-2.41,1.24-4,3.09-3.89,3.27S1457.7,326.6,1457.79,326.55Z" transform="translate(-6.69 -3.77)"/><path class="cls-3" d="M1487.88,346.71a4.5,4.5,0,0,1-.47-2.63c-.06-1.28-.68-3.15-2-3.78a2.29,2.29,0,0,0-.64-.19c-1.07-.19-2.08.35-5.79,1-.49.09-1.41.16-2.67.4a13.42,13.42,0,0,0-2.21.52c-1.88.74-2.46,2-4,2.33h0a2.34,2.34,0,0,1-1.06.12.92.92,0,0,1-.6-.88c0-.45.62-.61,1.37-1.12a6.88,6.88,0,0,0,1.56-1.54c.12-.07.3-.19.58-.34a11.76,11.76,0,0,1,1.72-.68c3.37-1.1,6.7.28,8.73-1.55.75-.68.25-.81,1.8-3,1.36-1.87,2-2.08,2-2.89,0-1.93-3.42-3.24-3.17-3.75.15-.31,1.6-.14,2.71.62a4.51,4.51,0,0,1,2,4.1c-.34,2.23-2.9,3.08-2.52,4.28a.68.68,0,0,0,.16.26,4,4,0,0,0,1.52.86c1.91.73,2.15,8.36,1.34,8.25C1488.13,347.14,1488.05,347,1487.88,346.71Z" transform="translate(-6.69 -3.77)"/></svg>