<svg id="Layer_1" data-name="Layer 1" xmlns="http://www.w3.org/2000/svg" xmlns:xlink="http://www.w3.org/1999/xlink" viewBox="0 0 1990.94 578.8"><defs><style>.cls-1,.cls-12,.cls-5{fill:none;}.cls-2{clip-path:url(#clip-path);}.cls-3{clip-path:url(#clip-path-2);}.cls-4{fill:#fff;}.cls-12,.cls-5{stroke:#fff;}.cls-12,.cls-5,.cls-6,.cls-7{stroke-miterlimit:10;}.cls-5,.cls-6{stroke-width:0.33px;}.cls-6{fill:#983333;stroke:#983333;}.cls-7{fill:#8b1d40;stroke:#8b1d40;stroke-width:1.31px;}.cls-8{clip-path:url(#clip-path-3);}.cls-9{opacity:0;}.cls-10{clip-path:url(#clip-path-4);}.cls-11{fill:#221f1f;}.cls-12{stroke-width:0.51px;}</style><clipPath id="clip-path" transform="translate(-3.64 -2.36)"><rect class="cls-1" x="-0.45" y="-0.62" width="2615.42" height="588.9"/></clipPath><clipPath id="clip-path-2" transform="translate(-3.64 -2.36)"><rect class="cls-1" x="-0.45" y="-0.62" width="2615.42" height="588.9"/></clipPath><clipPath id="clip-path-3" transform="translate(-3.64 -2.36)"><rect class="cls-1" x="1409.47" y="109.26" width="483.58" height="479.02"/></clipPath><clipPath id="clip-path-4" transform="translate(-3.64 -2.36)"><rect class="cls-1" x="1476.26" y="183.79" width="325.62" height="266.92"/></clipPath></defs><title>ThinQ_Logo Section_White With Transparent Fill and Transparent Background</title><g class="cls-2"><g class="cls-3"><path class="cls-4" d="M806.31,497.92c-16.54.09-33.33-.09-49.87,0,1.86-37.2,2.79-73.58,2.64-99.07-.19-32.32-1.25-53.5-7.27-78.76a192.07,192.07,0,0,0-14.08-40.42s-9.66-19.92-24-36.62c-23-26.74-55.64-40.38-58.23-41.43-49.4-20.13-92.33-6.35-110.48-.52a133.45,133.45,0,0,0-34.35,16.43,130.16,130.16,0,0,0-30.29,28.24c-4.8,6.27-12.17,16-17.36,30.79-5.71,16.26-6.42,31.83-6.87,41.73a83.65,83.65,0,0,0-.21,8.43c0,4.59-.9,30.85-1.07,35.51-.62,16.65-.28,30.58,0,76.34.08,12.85.17,31.78.21,55.05l-45.93-.09c.35-14.71.71-38.07.19-66.92-.66-36.42-2.2-51.14-2-85.85.19-36.53.38-55.17,5.4-73.44a176.4,176.4,0,0,1,27.61-56.42s24.48-33.14,66.23-52.55a191.23,191.23,0,0,1,23.17-8.76c5.7-1.67,11-2.91,15.94-3.83A184.63,184.63,0,0,1,571.82,143h.27c15.55-.78,30.65-.37,32.91-.28,49.58,1.91,85.36,19.21,85.45,19.26,24.69,12.28,72.1,40.88,96.17,95.48,11,25.07,15.78,52.45,17.36,61.63.7,4,1.12,7.08,1.45,9.41,4.1,29.25,4.07,53.27,3.88,71.48-.36,35.94-1.79,72.42-3,98" transform="translate(-3.64 -2.36)"/><path class="cls-4" d="M360.82,105.46S3.45,106,3.64,105.57s0-51.1,0-51.1l357.18,0Z" transform="translate(-3.64 -2.36)"/><path class="cls-5" d="M1551.14,241.88c0,.44-3.89-.15-9,1.33-2.79.8-8,2.36-10.29,6.81-1,1.81-1.09,3.53-1.29,5.86-.3,3.46-.54,6.23.92,8.05,2.13,2.64,5.22-.07,10.29,2.36,3.46,1.66,3.25,3.51,8.83,6.81,3.24,1.92,4.58,2.06,5.14,2.08,4.06.21,7.5-2.89,7.63-3,1-.93,1.57-1.81,1.74-1.7s-.45,2.64-2,4.36c-3.34,3.66-8.45,3.26-9,3.21-2.48-.23-4.54-1.48-8.64-4s-3.8-3-5.88-3.79a15.3,15.3,0,0,0-11,.19c-1.46.63-4.81,2.07-5.7,5.12-.45,1.52.09,2.25.36,4.91.17,1.51.63,5.88-.73,8.9-2.38,5.3-10.6,6.38-10.66,6.24a20.34,20.34,0,0,0,4.32-2.56,10.73,10.73,0,0,0,3-3.12c.75-1.29,1.1-2.81,1-5.48-.2-6.53-2.57-7.37-1.74-10,1.2-3.84,6.43-3,8.27-7.76.35-.91.29-1.26.36-5.68.13-6.49.18-9.74.37-10.4,1.8-6.14,9.84-9.57,15.63-10C1547.35,240.21,1551.16,241.44,1551.14,241.88Z" transform="translate(-3.64 -2.36)"/><path class="cls-5" d="M1507.12,306.65c.38-.07.38,3.45,2.69,6.2.34.41,2.7,3.21,5.71,3.06,2.34-.12,2.75-1.45,8.34-5.85.6-.48,1.83-1.23,3.41-2.49a22.22,22.22,0,0,0,2.72-2.37c2.11-2.46,2.11-4.75,4-6.36a9.53,9.53,0,0,1,1.38-.93c3.77-2,5.18-.24,15.49-.65,5.15-.21,9.25-.4,14.29-2.09,4.45-1.49,9.41-3.23,12.72-8.35a17,17,0,0,0,2.89-8.87c.14-6.06-3.3-10.55-4.8-12.52-4.21-5.48-7.26-4.8-9.37-9.78a16.94,16.94,0,0,1-1.08-8.61,19.16,19.16,0,0,1,3.72-8.74c5.76-8.05,14.87-11.07,15.13-10.57.1.2-1.44,1-4.32,3.53-4.82,4.25-10.47,9.24-10.57,15.78a13.3,13.3,0,0,0,1.68,6.48c1.81,3.31,4.33,4.35,6.25,5.82,5,3.82,7.15,11.49,7.08,16.78-.16,10.83-9.94,18.7-16.77,21.66a31.72,31.72,0,0,1-9.41,2.22c-11,1.31-15.88-2.41-21.25,1.3-1.7,1.17-1.66,2-2.61,3.64a15.26,15.26,0,0,1-2.51,3.19c-3.94,4.07-9.42,4.32-11,8.55-.6,1.57.18,1.42-.57,5.79-.66,3.82-1.38,4.58-.88,5.82,1.17,3,6.79,2.51,6.77,3.46,0,.57-2.12,1.34-4.14,1a7,7,0,0,1-5.34-4.83c-1-3.63,2-6.74.7-8.29-.6-.7-1.32-.16-3-.51-3.41-.72-6-4.08-7-7.14C1506.45,309.31,1506.8,306.7,1507.12,306.65Z" transform="translate(-3.64 -2.36)"/><path class="cls-5" d="M1577,381.15a3,3,0,0,1-1.41-2.93c.08-.63.39-1.09.62-2.55.12-.77.06-.83,0-.84-.25-.11-1.47,1.62-2.14,3.55-1.2,3.47-.19,4.7-1.47,6.08-1.1,1.18-2.51,1-3.31,2.64a4.81,4.81,0,0,0-.39,1.43c-.62,3.3.45,7.9,1,7.84s-.84-3.65,1-7.29c1.48-2.89,4.25-4.48,6.69-5.89a15.26,15.26,0,0,1,4.54-2.06c4.83-1.09,6.6,1.86,11.62.86a10.62,10.62,0,0,0,4.86-2.28,8.22,8.22,0,0,0,3-5.13c.07-.71.05-1.86-.28-1.95s-.65.67-1,1.3a16.24,16.24,0,0,1-3.65,3.86,12,12,0,0,1-4.41,2.07c-5.37,1.2-8.15-2.91-11.66-1.08C1578.74,379.72,1578.09,381.49,1577,381.15Z" transform="translate(-3.64 -2.36)"/><path class="cls-5" d="M1618.68,359.72c1.15-4.35,3-6.74,2.8-7s-2.72,2.09-4.35,5.78c-.62,1.41-2.92,6.61-1.47,11.68,1.35,4.74,4.69,4.74,5.7,9.93a18.24,18.24,0,0,1,0,5.68c-.48,5.21-1.77,5.7-2.21,9.93-.09.82-.78,8.15,2.56,11.5,1.11,1.11,2.53,1.55,2.68,1.27s-2.09-1.59-2.94-4.55c-.43-1.51-.4-3.14-.32-6.23a13.06,13.06,0,0,1,.09-2.06c.49-2.39,2.25-3.51,2.94-7.73.94-5.88-1.54-9,.23-11.21.77-1,2.41-1.17,5.71-1.57a37.21,37.21,0,0,1,4.89-.28c6.53,0,9.87.09,13.35,1,3,.81,4.69,1.75,5.9,3.6.25.38,1.61,2.46,1.07,4.06-.45,1.33-1.93,1.54-1.85,2s1.68.86,2.64,0c1.28-1.13,1.05-4.1.54-5.87a9.52,9.52,0,0,0-4.34-5.39c-.5-.33-2.09-1.33-6.6-1.89a58.89,58.89,0,0,0-8.39-.19c-4.93.09-7.39.13-8.37.19-3.39.19-4.24.38-5.75-.19a8.13,8.13,0,0,1-5-4.73C1617.3,365,1618,362.4,1618.68,359.72Z" transform="translate(-3.64 -2.36)"/><path class="cls-5" d="M1591.94,256c.51-.19-1.74-4.19-.19-7.76,1.16-2.64,3.82-3.72,6.53-4.82,1.66-.68,8.59-3.5,14-.38,1.43.83,2.66,2,3.21,1.6s-.68-2.38-.68-4.68c0-5,6.34-8.81,8.13-9.88,3.3-2,6.2-2.65,9.72-3.46,6.67-1.52,9-.63,12.43-3.17,2.16-1.59,1.55-4.53,3.76-5.39,1.81-.7,3.66.3,3.7.15a6.19,6.19,0,0,0-5.17-1.19c-2.31.6-2.44,3.25-4.59,4.35-4.85,2.5-7.89,1.28-13.88,2.84-4.14,1.09-11.44,3-13.9,8.51-.83,1.88-1.1,4.15-3,5-1.47.64-2.66-.17-4.41-.57-6-1.36-11.88,3.74-13.19,4.88-2,1.77-5,4.32-5.05,8C1589.28,253.35,1591.5,256.14,1591.94,256Z" transform="translate(-3.64 -2.36)"/><path class="cls-5" d="M1685.68,218.68a1.33,1.33,0,0,1,.58,1c.27,1.8-2.82,2.38-4.55,5.7-1,1.9-1.41,4.45-.46,6.08a2.14,2.14,0,0,0,.23.34c.44.55,1.3,1,3.93,1.95a39.89,39.89,0,0,0,7.71,2.37c3.64.55,5.93.08,6,.38s-2.92,1.61-6.47,1.53-4.59-1.35-9.88-2a43.1,43.1,0,0,0-4.34-.28,60.77,60.77,0,0,0-9.15.37,38,38,0,0,0-17,6.66c-5,3.89-10.78,10.9-11,16.61,0,1,0,6.55-.23,9.09a16.67,16.67,0,0,0-.09,2.38c.08,1.39.3,1.77.09,2.18-.39.79-2.23.69-4.25.57-3.35-.18-5-.28-6.22-.25a22.46,22.46,0,0,0-6.16,1.39c-5.3,1.67-10.54,3.38-15.52,8.29-.35.35-.59.59-.83.85A38.17,38.17,0,0,0,1597.18,309a36.33,36.33,0,0,0,0,8.28c.38,2.69,1.2,5.72.92,10.18-.09,1.56-.25,2.13-.48,2.16-.63.09-1.73-4.05-2.4-6.57-1.45-5.57-2.18-8.35-2.38-11.1-.47-6.46,1.73-11.48,3.83-16.26,2.21-5,6.6-15,16.67-20.89a40.2,40.2,0,0,1,12.65-4.57c3.13-.55,4.69-.82,6.31-.61,2.08.27,3.53,1,4.6.14.7-.56.91-1.49,1-2.86.31-5.58-.27-7.91.32-10.84a15.65,15.65,0,0,1,1.7-4.43,29.43,29.43,0,0,1,9.29-10.7,45.5,45.5,0,0,1,18.71-7c3-.37,4.18-.84,4.81-1.25a8.43,8.43,0,0,0,1-.7c2.56-2.12,4-5.43,6.17-8.44C1681.4,221.41,1684.38,218,1685.68,218.68Z" transform="translate(-3.64 -2.36)"/><path class="cls-5" d="M1628.52,288.24c.12.21,1.41-.37,1.58-.44a11,11,0,0,0,2.82-2c3.06-2.22,9.5,2.46,10,2.84a6.19,6.19,0,0,1,2.49,3,5.54,5.54,0,0,1,.18,2.64c-.23,1.61-1,7.75,0,12.4a19.15,19.15,0,0,0,2.48,5.77,16.16,16.16,0,0,0,4.42,5.2c1.75,1.28,4,2,4.31,1.61s-2.11-2.09-4-4.69c-2.88-3.92-3.27-8.23-3.51-10.92-.14-1.5-.64-7.57,3.86-17.22,3-6.55,7.95-17.07,19.48-23.74,7.34-4.25,13.95-5,21.41-5.77a56.52,56.52,0,0,1,21.78,1.22c4.12,1.1,9,2.43,14.25,6.44,2.56,2,8.49,6.69,10.94,15.14,2,6.81,1.59,15.75-1.82,18.2-.4.28-1.62,1-1.49,1.38s2,.35,3.49-.38c4.23-2.06,4.07-10.81,4-12.11-.16-9.22-5.2-15.92-7.17-18.45a37.1,37.1,0,0,0-13.87-10.88,42.54,42.54,0,0,0-11.68-3.5,66.69,66.69,0,0,0-20.67-.28c-8.23,1.12-16.94,2.3-25.64,8.79a52,52,0,0,0-11.28,12.34c-2.42,3.84-3.63,5.76-4.16,8.29-.36,1.68-.31,2.78-1.11,3.22-1.64.91-3.6-2.91-8.08-3.6a13.15,13.15,0,0,0-7.17,1.14C1631,285.32,1628.32,287.9,1628.52,288.24Z" transform="translate(-3.64 -2.36)"/><path class="cls-5" d="M1713.14,277.81c.39.28-5.48,7.09-8.16,18.2a49.55,49.55,0,0,0-.93,18c.68,4.91,2.56,18.64,12.51,25.45,5.44,3.72,12.37,4.73,15.46,5.18.12,0,2.37.18,6.87.5,4,.27,4.95.4,5.7-.37,1.48-1.52,1.33-5.4-.21-7.17a8.3,8.3,0,0,1-1.48-1.84c-.48-.9-1-2.26-.69-2.46.51-.37,4.66,2.75,6,7.71a13.37,13.37,0,0,1-3.19,12.56c-2.81,2.82-6.82,3.29-7,2.88s1.84-1.83,2.57-2.38a10.31,10.31,0,0,0,1.72-1.31c.16-.18,1.75-2,1.35-3.17-.31-.94-1.75-1.14-9.93-1.91l-2.28-.21a73,73,0,0,1-9.79-1.43,25.91,25.91,0,0,1-13.11-7.76c-4.26-4.7-5.68-9.84-6.61-13.17-1.69-6.11-1.44-11-1.27-15.38a52.18,52.18,0,0,1,3.7-18.61C1707.75,282.92,1712.79,277.55,1713.14,277.81Z" transform="translate(-3.64 -2.36)"/><path class="cls-4" d="M210.55,101.26s.5,396.89.11,396.68-49.64,0-49.64,0L161,101.26Z" transform="translate(-3.64 -2.36)"/><path class="cls-4" d="M457.25,56.59s.57,443.35.11,443.11-56.74,0-56.74,0l-.06-443.11Z" transform="translate(-3.64 -2.36)"/><path class="cls-4" d="M916,149.54s.5,348.57.1,348.38-49.63,0-49.63,0l-.05-348.38Z" transform="translate(-3.64 -2.36)"/><path class="cls-4" d="M1044.28,151.27s.51,350,.1,349.87-49.63,0-49.63,0l0-349.87Z" transform="translate(-3.64 -2.36)"/><path class="cls-4" d="M1394,499.84l-49.61.25c1.86-37.2,2.25-69.22,2.1-94.71-.19-32.32-1.25-53.49-7.28-78.76a191.59,191.59,0,0,0-14.08-40.41s-9.66-19.93-24-36.62c-23-26.74-55.64-40.38-58.23-41.44-49.4-20.13-92.32-6.34-110.48-.51a133.58,133.58,0,0,0-34.34,16.42,130.47,130.47,0,0,0-30.3,28.25c-4.8,6.26-12.16,16-17.35,30.79-5.72,16.26-6.42,31.83-6.87,41.73,0,1-.15.07-.22,8.43,0,4.58-.9,30.84-1.07,35.5-.62,16.65-.28,30.59,0,76.35.08,12.84.17,31.78.21,55l-45.93-.09c.36-14.7.71-38.06.19-66.92-.66-36.41-2.2-51.13-2-85.84.2-36.54.38-55.17,5.4-73.45a176.49,176.49,0,0,1,27.61-56.42s24.48-33.13,66.23-52.54a189.28,189.28,0,0,1,23.17-8.76,161.75,161.75,0,0,1,16-3.84,186,186,0,0,1,26.18-2.81h.27c15.56-.78,30.66-.37,32.92-.29,49.57,1.91,85.35,19.22,85.45,19.26,24.69,12.28,72.1,40.88,96.16,95.48,11.06,25.07,15.79,52.46,17.37,61.63.7,4,1.11,7.08,1.44,9.42,4.11,29.24,4.07,53.27,3.89,71.47-.37,35.94-1.5,67.81-2.72,93.39" transform="translate(-3.64 -2.36)"/><path class="cls-4" d="M847.14,23.33A41.62,41.62,0,0,1,856.9,13.1a47.68,47.68,0,0,1,9.68-5.8c5.18-2.3,9.36-3,14.06-3.81A80.21,80.21,0,0,1,893,2.36a76.48,76.48,0,0,1,13.3,1c6.09,1,18.83,3.12,30,13.14a52.22,52.22,0,0,1,9.08,10.77,44.57,44.57,0,0,1,6.31,14.12c3.29,14.51-3.27,30.21-3.27,30.21a53,53,0,0,1-8.84,12.87A46,46,0,0,1,929.84,92a37.42,37.42,0,0,1-9.23,4.09,33.94,33.94,0,0,1-11.72,1.23c-6.76-.57-11.62-3.17-12.86-4.4-.8-.8-1.68-1.5-2.43-2.34a5.51,5.51,0,0,0-1.47-1.31,4.84,4.84,0,0,0-2.4-.64c-18-.52-23.93-6.54-23.93-6.54-1.5-1.52-5.44-6.3-6.26-10.12a5.48,5.48,0,0,0-1.39-3c-.71-.72-1.33-.87-3.37-1.84-.85-.41-1.65-.89-2.48-1.33-1.81-1-7.29-6.12-9.73-14.41-4.16-14.13,3.64-26.64,4.57-28.09" transform="translate(-3.64 -2.36)"/><path class="cls-6" d="M927.48,42.39c-.43.11-.15,1.66-.78,4.58a7.16,7.16,0,0,1-.89,2.66c-.95,1.4-2.84,2.54-3.94,2-.47-.21-1.1-.87-1.34-.68l0,.06a4.36,4.36,0,0,0,.06,2.55c.76,2.57-1.41,5.69-1.61,6A13.28,13.28,0,0,1,916.34,62a18.31,18.31,0,0,0-3,2.79,8.78,8.78,0,0,0-.72,1c-.27.46-1.36,2.35-.63,3.43,0,0,.36.53.67.45.5-.12.11-1.63,1.08-2.9,1.42-1.87,2.69-1.46,4.65-2.9,1.36-1,3.75-2.76,3.89-6.14.05-1.14-.17-2.46.4-3.1s1-.15,1.68-.08c2.37.22,3.81-3.23,4.13-4a8,8,0,0,0,.73-5.05C928.86,43.9,927.94,42.28,927.48,42.39Z" transform="translate(-3.64 -2.36)"/><path class="cls-7" d="M864.07,36.49c.94-.57,1.09-1,1.77-1.3a8,8,0,0,1,2.52-.58c.86-.09,4.46-.49,5.06,2.86.16.89.1,2,.47,1.83s.74-1.8,1.69-3.39c2.07-3.45,5.87-4.67,6.95-5a9.41,9.41,0,0,1,4.84-.21c3,.43,3.43,1.57,5.68.58.85-.37,3.15-1.11,3.55-2.88,0-.08.2-.87-.08-1.05-.46-.28-1.4,1.51-3.41,2-2.74.64-3.31-.88-6.06-1.13A9.32,9.32,0,0,0,878.64,31c-1.06,1.11-2.09,2.62-3.08,2.77-.79.12-.87-.71-1.33-1.38-1.55-2.29-5.72-.07-6.64.43-3.17,1.67-5.31,4.17-5.1,4.42S864,36.56,864.07,36.49Z" transform="translate(-3.64 -2.36)"/><path class="cls-7" d="M903.51,63.7c-.82-1.42-.55-2.39-.61-3.56-.08-1.71-.89-4.24-2.62-5.08a2.55,2.55,0,0,0-.84-.27c-1.4-.26-2.72.47-7.59,1.4-.64.12-1.84.2-3.49.53a18.9,18.9,0,0,0-2.91.7c-2.47,1-3.22,2.67-5.2,3.15h0a3,3,0,0,1-1.38.16,1.25,1.25,0,0,1-.79-1.19c.06-.61.82-.82,1.8-1.52a8.45,8.45,0,0,0,2-2.07c.16-.1.4-.26.76-.45a14.75,14.75,0,0,1,2.26-.93c4.42-1.48,8.78.39,11.44-2.08,1-.93.33-1.11,2.37-4,1.77-2.54,2.58-2.81,2.61-3.9.07-2.61-4.48-4.38-4.15-5.07.2-.42,2.1-.18,3.56.85a6.08,6.08,0,0,1,2.57,5.52c-.44,3-3.8,4.16-3.3,5.77a.84.84,0,0,0,.21.36,5.18,5.18,0,0,0,2,1.17c2.49,1,2.81,11.28,1.75,11.12C903.85,64.28,903.74,64.09,903.51,63.7Z" transform="translate(-3.64 -2.36)"/><path class="cls-4" d="M1962.7,436.24c-.43.1-.14,1.65-.78,4.57a7.16,7.16,0,0,1-.89,2.67c-1,1.4-2.84,2.53-3.94,2-.46-.22-1.1-.86-1.34-.68a.22.22,0,0,0,0,.06,4.45,4.45,0,0,0,.06,2.55c.77,2.56-1.41,5.69-1.61,6a13.28,13.28,0,0,1-2.59,2.48,18.28,18.28,0,0,0-3,2.79,9.55,9.55,0,0,0-.73,1c-.26.45-1.36,2.34-.63,3.42,0,0,.37.54.68.46.49-.12.1-1.64,1.08-2.91,1.42-1.87,2.69-1.45,4.65-2.89,1.36-1,3.74-2.76,3.88-6.14,0-1.14-.16-2.47.41-3.11.44-.49,1-.14,1.67-.08,2.38.23,3.81-3.22,4.13-4a8,8,0,0,0,.74-5.05c-.37-1.66-1.29-3.28-1.75-3.16" transform="translate(-3.64 -2.36)"/><path class="cls-4" d="M1899.29,430.33c.94-.56,1.1-1,1.77-1.3a8.26,8.26,0,0,1,2.52-.57c.86-.1,4.46-.5,5.07,2.85.16.9.1,2,.47,1.84s.74-1.81,1.69-3.39c2.07-3.45,5.87-4.67,6.94-5a9.45,9.45,0,0,1,4.85-.21c3,.43,3.43,1.56,5.67.58.86-.37,3.16-1.11,3.56-2.88,0-.08.19-.87-.09-1-.45-.29-1.4,1.5-3.41,2-2.74.64-3.3-.88-6.06-1.14a9.35,9.35,0,0,0-8.4,2.78c-1.06,1.11-2.1,2.61-3.09,2.77-.79.12-.87-.71-1.32-1.38-1.55-2.29-5.72-.07-6.65.42-3.16,1.68-5.31,4.18-5.1,4.43s1.48-.65,1.58-.72" transform="translate(-3.64 -2.36)"/><path class="cls-4" d="M1889.11,424.82a41.35,41.35,0,0,1,9.77-10.22,46.64,46.64,0,0,1,9.68-5.81,53.19,53.19,0,0,1,14-3.81,80.31,80.31,0,0,1,12.37-1.13,78.16,78.16,0,0,1,13.31.95c6.08,1,18.82,3.13,30,13.15a52.27,52.27,0,0,1,9.07,10.77,44.22,44.22,0,0,1,6.32,14.12c3.29,14.51-3.28,30.2-3.28,30.2a52.93,52.93,0,0,1-8.84,12.88,46.09,46.09,0,0,1-9.73,7.56,37.32,37.32,0,0,1-9.22,4.09,33.71,33.71,0,0,1-11.73,1.23c-6.75-.57-11.62-3.17-12.85-4.4-.8-.8-1.69-1.5-2.43-2.35a5.61,5.61,0,0,0-1.47-1.3,4.87,4.87,0,0,0-2.41-.64c-18-.52-23.92-6.54-23.92-6.54-1.5-1.52-5.44-6.31-6.26-10.12a5.48,5.48,0,0,0-1.39-3c-.71-.72-1.34-.87-3.38-1.84-.84-.41-1.65-.89-2.48-1.33-1.8-1-7.29-6.12-9.73-14.41-4.15-14.12,3.65-26.65,4.57-28.09" transform="translate(-3.64 -2.36)"/><path class="cls-7" d="M1969.45,443.88c-.43.1-.14,1.66-.77,4.57a7.32,7.32,0,0,1-.9,2.67c-1,1.4-2.83,2.54-3.94,2-.46-.21-1.09-.87-1.34-.68a.22.22,0,0,0,0,.06,4.36,4.36,0,0,0,.06,2.55c.77,2.56-1.41,5.69-1.61,6a13,13,0,0,1-2.59,2.48,17.85,17.85,0,0,0-3,2.79,8.55,8.55,0,0,0-.73,1c-.26.46-1.36,2.35-.63,3.43,0,0,.37.53.68.45.49-.12.11-1.64,1.07-2.9,1.43-1.87,2.69-1.46,4.66-2.9,1.36-1,3.74-2.76,3.89-6.14,0-1.14-.17-2.46.39-3.1s1-.15,1.68-.08c2.38.22,3.81-3.23,4.13-4a8,8,0,0,0,.74-5C1970.83,445.39,1969.91,443.77,1969.45,443.88Z" transform="translate(-3.64 -2.36)"/><path class="cls-7" d="M1906,438c.93-.57,1.1-1,1.77-1.3a8,8,0,0,1,2.52-.58c.86-.1,4.46-.5,5.07,2.86.16.89.1,2,.47,1.83s.74-1.8,1.69-3.39c2.06-3.45,5.87-4.67,6.94-5a9.45,9.45,0,0,1,4.85-.21c3,.43,3.43,1.57,5.68.58.84-.37,3.15-1.11,3.55-2.88,0-.08.2-.87-.09-1.05-.45-.28-1.4,1.51-3.41,2-2.74.64-3.3-.88-6-1.13a9.32,9.32,0,0,0-8.41,2.77c-1.06,1.11-2.1,2.62-3.09,2.76-.78.13-.87-.7-1.32-1.37-1.55-2.29-5.72-.07-6.65.42-3.16,1.68-5.31,4.18-5.1,4.42S1905.94,438.05,1906,438Z" transform="translate(-3.64 -2.36)"/><path class="cls-7" d="M1945.49,465.19c-.82-1.42-.55-2.39-.61-3.56-.09-1.72-.89-4.24-2.62-5.09a2.8,2.8,0,0,0-.85-.26c-1.4-.26-2.72.47-7.59,1.4-.63.12-1.84.2-3.49.53a18,18,0,0,0-2.91.7c-2.46,1-3.22,2.67-5.21,3.15a2.84,2.84,0,0,1-1.38.15A1.22,1.22,0,0,1,1920,461c.07-.61.82-.82,1.8-1.52a8.28,8.28,0,0,0,2-2.07c.16-.1.4-.26.77-.45a14.56,14.56,0,0,1,2.25-.93c4.43-1.48,8.79.38,11.44-2.08,1-.93.34-1.11,2.37-4,1.78-2.54,2.59-2.81,2.62-3.9.06-2.61-4.48-4.39-4.16-5.07.2-.42,2.1-.19,3.56.85a6.1,6.1,0,0,1,2.58,5.52c-.45,3-3.81,4.16-3.3,5.77a1,1,0,0,0,.2.36,5.25,5.25,0,0,0,2,1.17c2.5,1,2.81,11.28,1.76,11.12C1945.83,465.77,1945.71,465.57,1945.49,465.19Z" transform="translate(-3.64 -2.36)"/></g><g class="cls-8"><g class="cls-9"><g class="cls-10"><path class="cls-11" d="M1516,218.6c-10.6,8.64-30.28,29.91-37.16,61.65-2.12,9.79-4.22,20.37-.58,33,3.14,10.93,9.82,18.75,13.2,22.81,4.36,5.26,7.4,7.34,9,8.3,2.42,1.49,5,2.53,10.19,4.59a55.34,55.34,0,0,0,7.68,2.7,39.73,39.73,0,0,0,10.1,1c3.45,0,5.49,0,8.17-.85s3.16-1.54,6.41-3a57,57,0,0,1,8.16-2.75c10.14-2.82,15.21-4.23,20.4-3.85a59.66,59.66,0,0,1,12.82,2.25c3.11,1,4.16,1.73,5.83,1.2,4.14-1.33,7.84-7.41,6.68-11.11a9.9,9.9,0,0,1-.66-3.44,4.46,4.46,0,0,1,.91-2.93c.38-.45.85-.75.94-.67s-.41.68-.52,1.63a3.68,3.68,0,0,0,0,1c.35,2,1.25,3.48,1.62,5.64.21,1.3,0,1.38.21,1.64.95,1.09,4.39-.43,13.07-5.12s8.15-4.75,9.67-5.17c6.9-1.91,9.46,1.21,14.08-1.58a77.2,77.2,0,0,0,6.71-5.1,16.38,16.38,0,0,0,1.56-1.42c.72-.8,1-1.41,1.28-1.32s.24.75.18,1.16a3.14,3.14,0,0,1-.54,1.35c-1.7,2.32-4.31,4.69-4.08,5.77.29,1.38,5.34,1.68,10.06,1.19a32.29,32.29,0,0,0,13.69-3.88c4.6-2.61,10.08-7.31,10.78-11.4.16-.9.64-5.12,0-6.56,0-.1-.31-.65-.14-.79s.76.25.82.3a4.21,4.21,0,0,1,1.41,2.75,15.81,15.81,0,0,1-1.12,8.65c-2.67,5.45-6.91,5.94-6.6,8.5,0,.09,0,.18.09.39.47,1.81,1.36,5.19,4.06,7.11a7.89,7.89,0,0,0,3,1.35c1.2.24,2.18.11,2.25.39s-.19.41-1.43,1a6.86,6.86,0,0,1-4.29-.32,7,7,0,0,1-2.45-1.74c-1.4-3-2.9-4.95-3.4-5.13a7.15,7.15,0,0,0-.73-.22,6.45,6.45,0,0,0-.66-.12,13.24,13.24,0,0,0-5.17.57c-.82.28-6.79,2.36-9.33,3-.84.2-5.21-.33-13.92-1.39a48.49,48.49,0,0,0-10.58.08,16.45,16.45,0,0,0-2.24.52c-2.15.65-3.16,1.28-7.29,3.6-14.15,7.94-15.69,7.94-19.23,11.55s-5.5,5.61-6.07,8.7a17.87,17.87,0,0,1-1.9,5.75c-.17.31-1.5,2.72-2.09,2.5-.1,0-.6-.27,0-3.9.65-3.91,1.08-6.74,0-8.55-.44-.75-1.21-1.32-5.25-2.25a41.52,41.52,0,0,0-9.61-1.5c-4.74-.11-11.46-.26-19.24,3-4.85,2-13,5.53-16.47,14.1a22.6,22.6,0,0,0-1.45,9.45c.2,8.38,4.16,14.4,8.86,21.34,3.56,5.28,7.2,10.67,13.29,15.57,12.45,10,26.27,10.72,41,11.7,11.42.76,23.3,1.55,32.35-3.6a33.8,33.8,0,0,1,10.35-4.2c4.5-1,7.94-.71,12.53-.3,13,1.15,18.23,4.78,25,1.7,1.18-.54,3-1.61,3.16-1.4s-2.6,2.83-5.88,4.4c-1.14.54-4.71,2.1-12.05,1.6-8.69-.59-11.14-3.27-12.82-1.8-2.85,2.47,0,13.67,6.7,21.3,9.6,10.93,24.52,11.41,33.08,11.7A70.28,70.28,0,0,0,1726,443c7.57-3.69,12.77-7.82,20.09-13.64a123.34,123.34,0,0,0,17.42-16.52c1.5-1.75,2.83-3.41,4-4.93,14.5-15.79,16.57-20.48,20.7-29.86.83-1.88,2.23-5.44.73-8.1a6.58,6.58,0,0,0-2.63-2.4,7.68,7.68,0,0,0-5.1-.6,6.77,6.77,0,0,0-3.48,1.78c-1.21,1.23-1.4,2.53-1.69,2.46s-.74-2.51.36-4.39c1.39-2.34,4.59-3,6.42-3.45,2.77-.67,3.33-.32,4.66-.75,3.59-1.15,7.73-9.6,7.73-9.6,3.58-8.26,5.38-12.39,6.19-17.14,0,0,3-17.3-5.76-33.27-1-1.77-2.4-3.93-4.76-4.54-.71-.19-2.54-.51-6.75,2-3.77,2.25-10.11,6.08-11.69,13-.64,2.78.27,2.71-.48,8.65,0,0-.67,5.32-3.6,8.82-.27.32-.63.71-.85.62-.52-.23.68-3,1-6.25.69-6.52-.73-8.26.71-12.49a52,52,0,0,1,2.36-4.82c2.51-4.85,3.7-6.38,3.2-7s-2.46.64-6.12,1.9c-4,1.39-7.27,1.75-12.73,2.35-5.16.57-7.75.86-8.4.85-2,0-3.81-.18-5.63,1a8.92,8.92,0,0,0-2.42,2.73c-3.3,4.69-3.21,5.84-5.14,7.54-.62.56-2.92,2.52-5.32,2a3.83,3.83,0,0,1-2-1,7.49,7.49,0,0,0,2.08.37,4.79,4.79,0,0,0,3.13-1.73,8,8,0,0,0,1.17-2.17,18.45,18.45,0,0,0,1.53-5.78c.12-1.54.17-2.32-.27-3.14s-1.36-1.37-2.71-2a13.4,13.4,0,0,0-5.06-1.21,9.5,9.5,0,0,0-3.88.61c-2.66,1-3.85,3-4,2.87s1.12-3.24,4-4.7c1.41-.71,2.72-.83,5.24-1a16.15,16.15,0,0,1,4,.08c2.34.43,3.22,1.45,4.88,2.17,2.2,1,3.8.59,7.63.26,8.33-.74,7.72.41,13.94-.48a39.81,39.81,0,0,0,9.47-2.33,32,32,0,0,0,6.78-3.52,38,38,0,0,0,4.37-3.68c4.17-3.87,6.25-5.81,7.07-7.35,2.53-4.73,1.31-10.06.66-12.9-.55-2.39-1.39-4.45-4.52-9.9a129.43,129.43,0,0,0-8.67-13.73,131.88,131.88,0,0,0-24.7-25.28,127,127,0,0,0-20.77-12.9s-4.46-2.72-19.45-9.15a16.55,16.55,0,0,0-8.09-1.5c-1.21.11-6.47.26-7.51,2.93-.35.9-.23,2.15-1.08,2.59a1.17,1.17,0,0,1-1.25,0c-.65-.63.66-2.26.66-4.28a9.78,9.78,0,0,0-1.9-4.8c-5-7-28.27-9.67-28.27-9.67a174.18,174.18,0,0,0-25.31-2.76c-1.75-.06-.18,0-13.92,0a105.56,105.56,0,0,0-14.28.72c-1.09.14-1.64.19-2.16.31-2.66.63-10.07,2.38-12,7.58-1.21,3.35,1,4.44.68,13a23.84,23.84,0,0,1-1.15,6.84,13.08,13.08,0,0,1-3.88,6.4,9.59,9.59,0,0,1-3.95,1.94c-1.11.24-2.41.3-2.48,0s1.33-.66,2.88-2a11.07,11.07,0,0,0,2-2.4,16,16,0,0,0,2.18-5.11,19.59,19.59,0,0,0-.11-8.91c-.74-3.48-1.81-8.48-5.53-10.8-2.43-1.51-5.08-1.29-9-.6a118.83,118.83,0,0,0-28.27,9c-4.59,2.07-7.69,3.47-12,5.8a148,148,0,0,0-19.38,13" transform="translate(-3.64 -2.36)"/></g></g><path class="cls-12" d="M1516,218.6c-10.6,8.64-30.28,29.91-37.16,61.65-2.12,9.79-4.22,20.37-.58,33,3.14,10.93,9.82,18.75,13.2,22.81,4.36,5.26,7.4,7.34,9,8.3,2.42,1.49,5,2.53,10.19,4.59a55.34,55.34,0,0,0,7.68,2.7,39.73,39.73,0,0,0,10.1,1c3.45,0,5.49,0,8.17-.85s3.16-1.54,6.41-3a57,57,0,0,1,8.16-2.75c10.14-2.82,15.21-4.23,20.4-3.85a59.66,59.66,0,0,1,12.82,2.25c3.11,1,4.16,1.73,5.83,1.2,4.14-1.33,7.84-7.41,6.68-11.11a9.9,9.9,0,0,1-.66-3.44,4.46,4.46,0,0,1,.91-2.93c.38-.45.85-.75.94-.67s-.41.68-.52,1.63a3.68,3.68,0,0,0,0,1c.35,2,1.25,3.48,1.62,5.64.21,1.3,0,1.38.21,1.64.95,1.09,4.39-.43,13.07-5.12s8.15-4.75,9.67-5.17c6.9-1.91,9.46,1.21,14.08-1.58a77.2,77.2,0,0,0,6.71-5.1,16.38,16.38,0,0,0,1.56-1.42c.72-.8,1-1.41,1.28-1.32s.24.75.18,1.16a3.14,3.14,0,0,1-.54,1.35c-1.7,2.32-4.31,4.69-4.08,5.77.29,1.38,5.34,1.68,10.06,1.19a32.29,32.29,0,0,0,13.69-3.88c4.6-2.61,10.08-7.31,10.78-11.4.16-.9.64-5.12,0-6.56,0-.1-.31-.65-.14-.79s.76.25.82.3a4.21,4.21,0,0,1,1.41,2.75,15.81,15.81,0,0,1-1.12,8.65c-2.67,5.45-6.91,5.94-6.6,8.5,0,.09,0,.18.09.39.47,1.81,1.36,5.19,4.06,7.11a7.89,7.89,0,0,0,3,1.35c1.2.24,2.18.11,2.25.39s-.19.41-1.43,1a6.86,6.86,0,0,1-4.29-.32,7,7,0,0,1-2.45-1.74c-1.4-3-2.9-4.95-3.4-5.13a7.15,7.15,0,0,0-.73-.22,6.45,6.45,0,0,0-.66-.12,13.24,13.24,0,0,0-5.17.57c-.82.28-6.79,2.36-9.33,3-.84.2-5.21-.33-13.92-1.39a48.49,48.49,0,0,0-10.58.08,16.45,16.45,0,0,0-2.24.52c-2.15.65-3.16,1.28-7.29,3.6-14.15,7.94-15.69,7.94-19.23,11.55s-5.5,5.61-6.07,8.7a17.87,17.87,0,0,1-1.9,5.75c-.17.31-1.5,2.72-2.09,2.5-.1,0-.6-.27,0-3.9.65-3.91,1.08-6.74,0-8.55-.44-.75-1.21-1.32-5.25-2.25a41.52,41.52,0,0,0-9.61-1.5c-4.74-.11-11.46-.26-19.24,3-4.85,2-13,5.53-16.47,14.1a22.6,22.6,0,0,0-1.45,9.45c.2,8.38,4.16,14.4,8.86,21.34,3.56,5.28,7.2,10.67,13.29,15.57,12.45,10,26.27,10.72,41,11.7,11.42.76,23.3,1.55,32.35-3.6a33.8,33.8,0,0,1,10.35-4.2c4.5-1,7.94-.71,12.53-.3,13,1.15,18.23,4.78,25,1.7,1.18-.54,3-1.61,3.16-1.4s-2.6,2.83-5.88,4.4c-1.14.54-4.71,2.1-12.05,1.6-8.69-.59-11.14-3.27-12.82-1.8-2.85,2.47,0,13.67,6.7,21.3,9.6,10.93,24.52,11.41,33.08,11.7A70.28,70.28,0,0,0,1726,443c7.57-3.69,12.77-7.82,20.09-13.64a123.34,123.34,0,0,0,17.42-16.52c1.5-1.75,2.83-3.41,4-4.93,14.5-15.79,16.57-20.48,20.7-29.86.83-1.88,2.23-5.44.73-8.1a6.58,6.58,0,0,0-2.63-2.4,7.68,7.68,0,0,0-5.1-.6,6.77,6.77,0,0,0-3.48,1.78c-1.21,1.23-1.4,2.53-1.69,2.46s-.74-2.51.36-4.39c1.39-2.34,4.59-3,6.42-3.45,2.77-.67,3.33-.32,4.66-.75,3.59-1.15,7.73-9.6,7.73-9.6,3.58-8.26,5.38-12.39,6.19-17.14,0,0,3-17.3-5.76-33.27-1-1.77-2.4-3.93-4.76-4.54-.71-.19-2.54-.51-6.75,2-3.77,2.25-10.11,6.08-11.69,13-.64,2.78.27,2.71-.48,8.65,0,0-.67,5.32-3.6,8.82-.27.32-.63.71-.85.62-.52-.23.68-3,1-6.25.69-6.52-.73-8.26.71-12.49a52,52,0,0,1,2.36-4.82c2.51-4.85,3.7-6.38,3.2-7s-2.46.64-6.12,1.9c-4,1.39-7.27,1.75-12.73,2.35-5.16.57-7.75.86-8.4.85-2,0-3.81-.18-5.63,1a8.92,8.92,0,0,0-2.42,2.73c-3.3,4.69-3.21,5.84-5.14,7.54-.62.56-2.92,2.52-5.32,2a3.83,3.83,0,0,1-2-1,7.49,7.49,0,0,0,2.08.37,4.79,4.79,0,0,0,3.13-1.73,8,8,0,0,0,1.17-2.17,18.45,18.45,0,0,0,1.53-5.78c.12-1.54.17-2.32-.27-3.14s-1.36-1.37-2.71-2a13.4,13.4,0,0,0-5.06-1.21,9.5,9.5,0,0,0-3.88.61c-2.66,1-3.85,3-4,2.87s1.12-3.24,4-4.7c1.41-.71,2.72-.83,5.24-1a16.15,16.15,0,0,1,4,.08c2.34.43,3.22,1.45,4.88,2.17,2.2,1,3.8.59,7.63.26,8.33-.74,7.72.41,13.94-.48a39.81,39.81,0,0,0,9.47-2.33,32,32,0,0,0,6.78-3.52,38,38,0,0,0,4.37-3.68c4.17-3.87,6.25-5.81,7.07-7.35,2.53-4.73,1.31-10.06.66-12.9-.55-2.39-1.39-4.45-4.52-9.9a129.43,129.43,0,0,0-8.67-13.73,131.88,131.88,0,0,0-24.7-25.28,127,127,0,0,0-20.77-12.9s-4.46-2.72-19.45-9.15a16.55,16.55,0,0,0-8.09-1.5c-1.21.11-6.47.26-7.51,2.93-.35.9-.23,2.15-1.08,2.59a1.17,1.17,0,0,1-1.25,0c-.65-.63.66-2.26.66-4.28a9.78,9.78,0,0,0-1.9-4.8c-5-7-28.27-9.67-28.27-9.67a174.18,174.18,0,0,0-25.31-2.76c-1.75-.06-.18,0-13.92,0a105.56,105.56,0,0,0-14.28.72c-1.09.14-1.64.19-2.16.31-2.66.63-10.07,2.38-12,7.58-1.21,3.35,1,4.44.68,13a23.84,23.84,0,0,1-1.15,6.84,13.08,13.08,0,0,1-3.88,6.4,9.59,9.59,0,0,1-3.95,1.94c-1.11.24-2.41.3-2.48,0s1.33-.66,2.88-2a11.07,11.07,0,0,0,2-2.4,16,16,0,0,0,2.18-5.11,19.59,19.59,0,0,0-.11-8.91c-.74-3.48-1.81-8.48-5.53-10.8-2.43-1.51-5.08-1.29-9-.6a118.83,118.83,0,0,0-28.27,9c-4.59,2.07-7.69,3.47-12,5.8A148,148,0,0,0,1516,218.6Z" transform="translate(-3.64 -2.36)"/><path class="cls-4" d="M1545.46,235.05c0,.47-4.1-.17-9.52,1.4-2.94.85-8.4,2.5-10.88,7.2-1,1.92-1.15,3.73-1.36,6.2-.32,3.65-.57,6.58,1,8.5,2.25,2.8,5.52-.07,10.88,2.5,3.66,1.75,3.44,3.71,9.33,7.2,3.42,2,4.84,2.17,5.44,2.2,4.3.22,7.92-3.06,8.06-3.2,1.06-1,1.66-1.92,1.85-1.8s-.49,2.79-2.14,4.6c-3.53,3.88-8.94,3.46-9.52,3.4-2.62-.25-4.79-1.56-9.13-4.2s-4-3.13-6.22-4a16.13,16.13,0,0,0-11.66.2c-1.53.66-5.08,2.18-6,5.4-.47,1.62.09,2.39.39,5.2.17,1.6.66,6.21-.78,9.4-2.52,5.61-11.21,6.75-11.27,6.6a21,21,0,0,0,4.57-2.7,11.19,11.19,0,0,0,3.2-3.3c.79-1.36,1.16-3,1.07-5.8-.21-6.89-2.72-7.79-1.84-10.6,1.26-4.05,6.8-3.18,8.74-8.2.37-.95.31-1.33.39-6,.12-6.87.18-10.3.39-11,1.9-6.49,10.4-10.11,16.51-10.6,4.55-.37,8.58.93,8.55,1.4" transform="translate(-3.64 -2.36)"/><path class="cls-4" d="M1498.93,303.51c.4-.07.41,3.65,2.85,6.56.36.43,2.85,3.39,6,3.23,2.47-.12,2.9-1.54,8.8-6.18.65-.51,1.94-1.3,3.61-2.63a22.83,22.83,0,0,0,2.88-2.51c2.23-2.6,2.23-5,4.19-6.72a9.29,9.29,0,0,1,1.46-1c4-2.15,5.47-.26,16.38-.69,5.44-.23,9.77-.43,15.11-2.21,4.7-1.57,10-3.41,13.45-8.83a18.06,18.06,0,0,0,3-9.37c.15-6.42-3.49-11.16-5.08-13.24-4.44-5.79-7.67-5.08-9.9-10.34a18,18,0,0,1-1.15-9.1,20.47,20.47,0,0,1,3.94-9.24c6.1-8.51,15.71-11.7,16-11.17.11.2-1.51,1-4.57,3.72-5.08,4.5-11.06,9.78-11.17,16.69a14.13,14.13,0,0,0,1.78,6.85c1.91,3.5,4.58,4.6,6.6,6.16,5.25,4,7.57,12.14,7.49,17.74-.16,11.44-10.5,19.76-17.73,22.89a33.31,33.31,0,0,1-9.94,2.34c-11.63,1.39-16.8-2.54-22.47,1.38-1.8,1.24-1.75,2.12-2.76,3.85a15.91,15.91,0,0,1-2.66,3.37c-4.16,4.31-9.95,4.57-11.66,9-.64,1.66.19,1.5-.61,6.12-.69,4-1.46,4.84-.93,6.15,1.24,3.14,7.18,2.65,7.17,3.65,0,.62-2.24,1.42-4.38,1a7.43,7.43,0,0,1-5.65-5.1c-1-3.85,2.13-7.14.75-8.77-.64-.75-1.41-.17-3.22-.55-3.61-.76-6.38-4.31-7.45-7.54-.92-2.79-.55-5.55-.21-5.61" transform="translate(-3.64 -2.36)"/><path class="cls-4" d="M1572.81,382.26c-.92-.29-1.64-1.85-1.49-3.08.09-.67.42-1.16.66-2.71.12-.81.06-.87,0-.88-.26-.12-1.56,1.71-2.26,3.75-1.27,3.66-.2,5-1.55,6.42-1.17,1.26-2.65,1.06-3.51,2.8a5.09,5.09,0,0,0-.4,1.5c-.66,3.5.48,8.37,1,8.31s-.88-3.87,1.09-7.72c1.56-3,4.49-4.74,7.07-6.22a16.11,16.11,0,0,1,4.8-2.18c5.1-1.15,7,2,12.28.91a11.21,11.21,0,0,0,5.14-2.41,8.75,8.75,0,0,0,3.14-5.42c.08-.76,0-2-.29-2.07s-.7.71-1.1,1.38a17.37,17.37,0,0,1-3.86,4.09,13,13,0,0,1-4.67,2.17c-5.67,1.28-8.61-3.07-12.33-1.14-1.9,1-2.59,2.87-3.74,2.5" transform="translate(-3.64 -2.36)"/><path class="cls-4" d="M1616.87,359.61c1.21-4.59,3.2-7.11,3-7.35s-2.88,2.21-4.6,6.1c-.66,1.5-3.09,7-1.56,12.35,1.43,5,5,5,6,10.5a19.37,19.37,0,0,1,0,6c-.51,5.52-1.87,6-2.34,10.51-.09.86-.83,8.61,2.71,12.15,1.18,1.17,2.67,1.64,2.83,1.35s-2.2-1.68-3.1-4.82c-.46-1.6-.42-3.32-.34-6.58a13.44,13.44,0,0,1,.09-2.18c.52-2.53,2.39-3.7,3.11-8.18,1-6.21-1.64-9.49.24-11.84.81-1,2.55-1.23,6-1.65a41.94,41.94,0,0,1,5.17-.31c6.91,0,10.44.1,14.12,1.1,3.13.86,5,1.86,6.24,3.8.26.41,1.71,2.61,1.13,4.31-.47,1.39-2,1.62-1.95,2.09s1.77.91,2.79,0c1.35-1.19,1.1-4.33.57-6.19a10.07,10.07,0,0,0-4.59-5.71c-.53-.35-2.21-1.4-7-2a62.73,62.73,0,0,0-8.86-.2c-5.22.1-7.83.14-8.87.2-3.57.21-4.47.41-6.07-.2a8.53,8.53,0,0,1-5.25-5c-1-2.71-.26-5.41.49-8.25" transform="translate(-3.64 -2.36)"/><path class="cls-4" d="M1588.6,250c.54-.2-1.84-4.43-.2-8.2,1.22-2.79,4-3.93,6.9-5.1,1.75-.71,9.08-3.7,14.77-.4,1.52.88,2.81,2.14,3.4,1.7s-.73-2.52-.73-4.95c0-5.29,6.72-9.32,8.6-10.45,3.49-2.1,6.56-2.8,10.27-3.66,7.05-1.61,9.52-.67,13.14-3.35,2.29-1.68,1.65-4.79,4-5.7,1.92-.74,3.87.31,3.91.16a6.51,6.51,0,0,0-5.46-1.25c-2.45.63-2.59,3.43-4.86,4.59-5.13,2.64-8.34,1.35-14.67,3-4.38,1.15-12.09,3.17-14.69,9-.88,2-1.17,4.38-3.13,5.25-1.55.68-2.81-.18-4.67-.6-6.37-1.45-12.56,3.94-13.94,5.15-2.16,1.88-5.24,4.57-5.34,8.5-.09,3.52,2.25,6.47,2.72,6.3" transform="translate(-3.64 -2.36)"/><path class="cls-4" d="M1690,207a1.47,1.47,0,0,1,.6,1c.28,1.9-3,2.5-4.78,6-1,2-1.48,4.68-.49,6.4.1.15.18.29.24.36.47.57,1.37,1,4.13,2,4,1.45,6,2.18,8.11,2.51,3.82.57,6.23.08,6.27.4s-3.08,1.68-6.8,1.59-4.83-1.42-10.39-2.1a45,45,0,0,0-4.57-.29,63.5,63.5,0,0,0-9.62.4,39.88,39.88,0,0,0-17.87,7c-5.23,4.08-11.33,11.44-11.52,17.45,0,1.06,0,6.88-.24,9.55a16.75,16.75,0,0,0-.1,2.5c.08,1.47.32,1.86.1,2.3-.41.82-2.35.72-4.47.6-3.53-.2-5.29-.3-6.54-.26-1.93.05-3.47.52-6.47,1.46-5.58,1.75-11.09,3.54-16.33,8.7-.37.37-.61.63-.87.9A40,40,0,0,0,1597,302a38.28,38.28,0,0,0,0,8.7c.4,2.83,1.27,6,1,10.71-.1,1.64-.27,2.23-.51,2.26-.66.1-1.82-4.26-2.52-6.9-1.53-5.85-2.3-8.77-2.51-11.67-.49-6.79,1.82-12.06,4-17.09,2.32-5.31,6.94-15.77,17.53-21.95a42,42,0,0,1,13.31-4.8c3.28-.58,4.92-.87,6.62-.65,2.19.28,3.72,1,4.84.15.74-.58,1-1.56,1-3,.33-5.87-.27-8.32.33-11.4a16.67,16.67,0,0,1,1.8-4.65,31,31,0,0,1,9.76-11.25,47.79,47.79,0,0,1,19.67-7.35c3.19-.4,4.4-.89,5.07-1.32.25-.17.59-.39,1-.73,2.61-2.16,5.68-7.48,6.48-8.88" transform="translate(-3.64 -2.36)"/><path class="cls-4" d="M1627.27,284.05c.13.23,1.49-.38,1.66-.46a12.06,12.06,0,0,0,3-2.14c3.22-2.35,10,2.6,10.59,3a6.65,6.65,0,0,1,2.62,3.2,6,6,0,0,1,.2,2.8c-.25,1.7-1.11,8.19,0,13.11a20.28,20.28,0,0,0,2.62,6.1,17.24,17.24,0,0,0,4.66,5.5c1.86,1.36,4.28,2.16,4.57,1.7s-2.23-2.21-4.26-5c-3-4.14-3.45-8.71-3.71-11.55-.14-1.59-.67-8,4.08-18.2,3.23-6.93,8.41-18,20.6-25.1,7.75-4.48,14.75-5.24,22.64-6.1a59.63,59.63,0,0,1,23,1.3c4.35,1.16,9.56,2.56,15.06,6.8,2.71,2.09,9,7.07,11.56,16,2.09,7.21,1.68,16.67-1.93,19.24-.42.3-1.7,1.09-1.57,1.46s2.11.38,3.69-.4c4.47-2.18,4.31-11.42,4.28-12.8-.18-9.75-5.51-16.82-7.58-19.5a39,39,0,0,0-14.67-11.5,44.94,44.94,0,0,0-12.34-3.7,70.22,70.22,0,0,0-21.86-.3c-8.7,1.18-17.9,2.44-27.1,9.3a55,55,0,0,0-11.92,13c-2.56,4.06-3.84,6.09-4.4,8.76-.38,1.78-.33,2.94-1.17,3.4-1.73,1-3.81-3.07-8.55-3.8a14,14,0,0,0-7.58,1.2c-3.6,1.51-6.43,4.24-6.21,4.6" transform="translate(-3.64 -2.36)"/><path class="cls-4" d="M1716.72,273c.42.3-5.8,7.5-8.62,19.25a52.53,52.53,0,0,0-1,19c.72,5.2,2.71,19.72,13.23,26.91,5.75,3.93,13.07,5,16.34,5.48.12,0,2.5.19,7.27.52,4.27.29,5.22.42,6-.39,1.56-1.6,1.4-5.7-.22-7.57a9,9,0,0,1-1.56-2c-.52-.94-1-2.38-.74-2.59.53-.39,4.93,2.91,6.33,8.15a14.17,14.17,0,0,1-3.37,13.28c-3,3-7.21,3.47-7.41,3s1.94-1.92,2.71-2.5a11.54,11.54,0,0,0,1.83-1.39c.17-.19,1.85-2.08,1.42-3.35-.33-1-1.84-1.2-10.49-2l-2.42-.23a77.72,77.72,0,0,1-10.34-1.5,27.46,27.46,0,0,1-13.86-8.21c-4.51-5-6-10.4-7-13.92-1.79-6.46-1.53-11.65-1.35-16.26a55.28,55.28,0,0,1,3.91-19.67c3.59-8.69,8.92-14.37,9.29-14.1" transform="translate(-3.64 -2.36)"/><polygon class="cls-4" points="1645.2 355.2 1719.55 432.23 1737.24 411.7 1747.37 433.47 1793.38 522.56 1819.09 487.33 1879.17 578.8 1881.45 575.9 1835.94 431.87 1799.57 478.63 1762.08 351.59 1732.16 386.48 1698.27 326.73 1645.2 355.2"/></g><g class="cls-2"><path class="cls-4" d="M1472.05,184.71c1.61-.3,3.3,2.16,3.7,2.73,3.65,5.18,14,15,19.22,20,8.53,8.1,16.14,11.31,15.18,14.59-.2.68-.59.76-2.65,2.76,0,0-1.21,2.17-5.55,6.25-3.68,3.48-11.25,14.48-16.85,26.94a114.88,114.88,0,0,0-8.68,28.88c-.9,5.63-1.52,9.55-1.16,15.08a58.31,58.31,0,0,0,8.06,25.22,62.4,62.4,0,0,0,8.9,11.42c3.16,3.21,5.86,5.95,10.26,8.19,2.76,1.4,4.78,1.39,8.37,3.34a23.4,23.4,0,0,0,4.29,1.87,29.26,29.26,0,0,0,3.49.79,55.56,55.56,0,0,0,6.25.89,42.82,42.82,0,0,0,7.74-.1,20.89,20.89,0,0,0,5.45-1.12c1.56-.58,1.43-.79,3.87-2a46.84,46.84,0,0,1,7.19-2.77c1.19-.35,1.16-.28,3.27-.82,5.79-1.48,6.89-2.17,11.1-3a29.17,29.17,0,0,1,5.06-.65,30.26,30.26,0,0,1,3.8.15,58.43,58.43,0,0,1,7.26,1,26.7,26.7,0,0,1,4.57,1.07,28.14,28.14,0,0,0,3.07,1.12,6.08,6.08,0,0,0,1.88.32,5.6,5.6,0,0,0,2-.43,10.39,10.39,0,0,0,3.88-3.05,14.27,14.27,0,0,0,2.89-5.81c.06-.38.1-.76.1-.76s0-.45,0-.87a8.61,8.61,0,0,0-.59-2.73l.24.9a17.41,17.41,0,0,1,.67,2.41c.07.73-.08.92.14,1.33a1.87,1.87,0,0,0,.9.79c1.38.61,3.37-.49,3.67-.65,2-1.13-28.85,16,8.27-3.95,4.39-2.37,6.6-3.56,7-3.8a17.51,17.51,0,0,1,2.44-1.37,12.49,12.49,0,0,1,3.84-1.22,20,20,0,0,1,3.35,0l2.31.07h0c.65,0,2.46,0,3.12,0a8.22,8.22,0,0,0,4-1.73c.9-.59.94-.79,2.24-1.65a17.17,17.17,0,0,0,1.7-1.19c.59-.49,1.08-1,1.09-1a6.46,6.46,0,0,0-1.15,1.32,5.73,5.73,0,0,0-.74,1.76,2.27,2.27,0,0,0-.1.8,2.07,2.07,0,0,0,.45,1.07c.57.73,1.65.93,3.11,1.08a24.19,24.19,0,0,0,3.24.18,52.69,52.69,0,0,0,9.84-1,28.43,28.43,0,0,0,11.79-5.46,26.18,26.18,0,0,0,5.94-5.32,14.49,14.49,0,0,0,.88-1.43,12.62,12.62,0,0,0,1.21-3.31,8.62,8.62,0,0,0,.14-3c-.07,0,.78,4.07-1.26,7.47a14.4,14.4,0,0,1-2.86,3.37,15.72,15.72,0,0,0-2.58,2.34,4.31,4.31,0,0,0-1.12,2,5.33,5.33,0,0,0,.42,2.45,13.37,13.37,0,0,0,1.82,4.31,10.46,10.46,0,0,0,.93,1.1,10.35,10.35,0,0,0,1.12,1c.38.28.7.46.82.54.69.39,1.11.52,1.1.55s-.68-.21-2-.69a2.07,2.07,0,0,1-.94-.53,2,2,0,0,1-.42-.76,19.57,19.57,0,0,0-1-1.94,7.13,7.13,0,0,0-2.62-3.19,5.82,5.82,0,0,0-3.45-.47,16.94,16.94,0,0,0-4,.82c-2.25.65-3,1-5.93,1.91a19.74,19.74,0,0,1-3.07.82,16.06,16.06,0,0,1-4.75-.36c-1.61-.22-3.23-.33-4.85-.5-3.63-.38-5.44-.58-7.78-.72a26.31,26.31,0,0,0-6.84.18,23.86,23.86,0,0,0-2.68.69c-2.7.85-3.67,1.64-9.81,5.1-2.6,1.46-4.42,2.44-5.09,2.8l-2.16,1.15c-3.26,1.72-3.8,2-4.92,2.66a25.14,25.14,0,0,0-5.06,3.73c-1.67,1.55-4.14,3.84-5.24,6.54-.29.73-.55,1.58-.55,1.58a21.89,21.89,0,0,0-.63,2.65c-.51,2.54-1.82,4.67-2,4.6s.25-1,.59-2.94a18.3,18.3,0,0,0,.35-3.74,8,8,0,0,0-.7-3.66,4.88,4.88,0,0,0-1-1.51c-.76-.71-1.54-.9-4.54-1.51l-2.16-.43-6.07-1.08a39.87,39.87,0,0,0-10.26.15,49.75,49.75,0,0,0-13.4,3.59,33.32,33.32,0,0,0-7.47,4.2,23.4,23.4,0,0,0-3.66,3.41,24,24,0,0,0-3,4.67,24.85,24.85,0,0,0-1.89,5,23.89,23.89,0,0,0-.07,10.27,33.86,33.86,0,0,0,3.91,10.92c1.21,2.13,1.16,1.49,4,5.89,2.38,3.72,2.86,4.89,4.67,7.33a46.84,46.84,0,0,0,4.19,4.88,55.11,55.11,0,0,0,9.56,8,52.43,52.43,0,0,0,23.45,7.84c.65.06,0,0,5.09.35,10.14.74,11.62,1,16.19,1.15a84.58,84.58,0,0,0,9.42,0c4.38-.27,6.69-.41,9.7-1.43,2.47-.84,2.4-1.25,8.3-3.88a49,49,0,0,1,5.79-2.37,33,33,0,0,1,8.8-1.29,52,52,0,0,1,8.79.86c4.6.66,6.9,1,9.91,1.65a24.76,24.76,0,0,0,5.93.79c2.12,0,3.6-.34,3.63-.22s-2.85,1.13-6.28,1.51a31.52,31.52,0,0,1-9.91-.5c-3.51-.79-3.77-.86-3.77-.86-1.86-.55-2.58-.95-3.84-.79a3.66,3.66,0,0,0-2.58,1.29,4.31,4.31,0,0,0-.56,2.23,15.93,15.93,0,0,0-.07,3.44,27.28,27.28,0,0,0,2.72,8.41,34.12,34.12,0,0,0,4.33,7.11,32.51,32.51,0,0,0,8.72,7.4,35,35,0,0,0,8.3,3.45c5.15,1.53,9.13,1.75,14.24,2a70.76,70.76,0,0,0,15.63-.5,67.41,67.41,0,0,0,12.21-3.16,81.6,81.6,0,0,0,15.08-7s4.53-2.72,13.39-9.48c2.28-1.75,2.06-1.94,3-2.36.34-.15.89-.35,1-.81s-.33-1-.77-1.58a26.68,26.68,0,0,1-1.6-2.87c-1.07-1.84-.77-1.92-2.1-4.6-1.45-2.94-1.62-2.47-2.37-4.38-.49-1.25-.84-2.53-1.32-2.51-.25,0-.34.35-1,1.07a8.38,8.38,0,0,1-1,.94,49.53,49.53,0,0,0-4.25,5.17c-1.69,2.27-1.34,1.29-4.68,5.32-1.37,1.64-3.54,4.35-4.88,5.64a7.36,7.36,0,0,0-.82.84c-.83,1-1,1.83-1.35,1.81-.2,0-.24-.24-.69-.79a8.81,8.81,0,0,0-.91-.89c-1.17-1.08-7-7.52-11.59-12.18-1.91-1.95-1.47-1.42-4-4-3.32-3.36-5.59-5.8-7.15-7.47-1.29-1.38-1.25-1.31-10.22-10.59q-6.45-6.66-12.88-13.33c-15.94-16.5-17.48-18.09-18.7-19.43a26,26,0,0,0-3.24-3.41c-.44-.34-2.15-1.61-2.41-2.34a1.2,1.2,0,0,0-.52-.71c-.14-.07-.23-.06-.25-.11s1.15-.72,1.4-.83c1.21-.53,2.31-1.3,3.49-1.9,6.57-3.38,13-7,19.57-10.45,16.57-8.8,24.86-13.21,25.16-13.52.06-.06.92-1,1.36-.74.24.12.12.48.5,1.07.23.35.36.37.65.8a4,4,0,0,1,.4.77c.3.74,1.38,2.6,2.46,4.47,1.71,3,3.38,6,5.13,8.94,3.08,5.24,6.28,11,10.81,19.11,0,0,8.92,16,12.1,21.4l.75,1.27.87,1.47c.4.7.39.72.45.75.84.44,3.84-4,5.55-6.39.18-.26,2.61-3.09,7.46-8.73s6.22-7.12,9.39-10.88,4.58-5.44,4.92-5.89c.49-.67,1.08-1.24,1.57-1.91.38-.52.59-.87.8-.82s.36,1.13.42,1.79c.17,1.88.86,2.85,1.67,4.71.91,2.08,1.09,3.26,2.2,7.25.73,2.62,2.08,6.77,4.78,15.09,3.57,11,3.59,10.43,3.62,10.92,0,.21,0,1.07.39,1.18.52.16,1.34-1.39,2.66-3.55,1.85-3,1.63-2.28,3.07-4.71.82-1.39,1.78-3.36,3.69-7.29.29-.59.92-1.89,1.61-3.66a14.38,14.38,0,0,0,1-3.27,8,8,0,0,0-.21-3.92,7.42,7.42,0,0,0-4.15-4.09,10,10,0,0,0-6-.21,5.29,5.29,0,0,0-1.87.78,13,13,0,0,0-1.43,1.33,3.33,3.33,0,0,1,.94-1.58,7,7,0,0,1,2.79-1.62,19.75,19.75,0,0,1,2.51-.75,10,10,0,0,1,1.85-.36c.42,0,.66,0,1.36-.07a8.17,8.17,0,0,0,1.15-.14,6.18,6.18,0,0,0,1.44-.54,9.37,9.37,0,0,0,2.4-1.91,21,21,0,0,0,2.66-3.52,27.63,27.63,0,0,0,2.19-4.49,64.77,64.77,0,0,0,3.07-11.09c1.72-10.18,1.27-18.58.84-25.72a55.38,55.38,0,0,0-2.23-11.49,13.25,13.25,0,0,0-3.86-6.51,6.47,6.47,0,0,0-1.73-1.18c-2.73-1.2-5.67.37-9.21,2.26a25.24,25.24,0,0,0-6.75,5,16.09,16.09,0,0,0-5.07,11.21c-.08,2.21.38,2.57.1,4.84a21.89,21.89,0,0,1-1,4.1,11.8,11.8,0,0,1-1.18,2.94c-.11,0,.24-1.15.45-3a26.36,26.36,0,0,0,.14-3.41c0-1.73-.11-2.19-.12-4.6a10.07,10.07,0,0,1,.85-4.59,20.19,20.19,0,0,1,1.4-2.73c3.08-5.36,2.43-5.18,3.35-6.4a3.19,3.19,0,0,0,.66-1.58,1.88,1.88,0,0,0-.17-1.15,1.94,1.94,0,0,0-1.33-.86c-.66-.1-1,.23-2.3.79-.58.26-1.19.45-1.78.68,0,0-2.14.85-4.5,1.58a43.73,43.73,0,0,1-6.21,1.05c-1.19.15-1.14.14-8.2.93a30.65,30.65,0,0,1-3.6.29,19.4,19.4,0,0,0-2.54,0,9,9,0,0,0-2.79.69,6.14,6.14,0,0,0-1.5.86,9.13,9.13,0,0,0-1.89,2.22c-1,1.34-1.43,2-1.57,2.23-1.23,1.92-1.4,2.62-2.61,4.28-.42.57-1.07,1.38-1.16,1.32a12.61,12.61,0,0,1,.77-1.68,16.41,16.41,0,0,0,1.12-3.38c.09-.43,0-.12.31-2.52a9.1,9.1,0,0,0,.18-1.9,4.78,4.78,0,0,0-.84-2.37c-.6-.81-1.42-1.19-3.07-1.94a13.15,13.15,0,0,0-1.61-.64,15,15,0,0,0-5-.62s1.22-.07,2.79-.14c1.41-.06,1.47-.08,1.92-.07a9.65,9.65,0,0,1,2.72.36,18.47,18.47,0,0,1,2.65,1.33,15.1,15.1,0,0,0,2.31,1,10.27,10.27,0,0,0,3.17.25c.6,0,1.09-.09,1.57-.14,1.36-.17,1.52-.29,2.41-.33.61,0,.69,0,1.57,0l1.25-.07,1.3-.07c1,0,1.83,0,3,0,2.1.06,1.89.13,2.75.1.68,0,.62-.07,2.55-.25,1.37-.12,1.46-.1,2.08-.18s1.26-.19,2.38-.43,2.57-.56,4.16-1.05a34,34,0,0,0,5.94-2.4,39.35,39.35,0,0,0,7.33-5.23l2.33-2.18c1.68-1.58,2-1.9,2.46-2.34a22.34,22.34,0,0,0,2.4-2.62,12.58,12.58,0,0,0,1.89-4.2,15.32,15.32,0,0,0,.47-3.63,19.85,19.85,0,0,0-.24-3.51,29.24,29.24,0,0,0-1.36-5.81,23.19,23.19,0,0,0-2.25-4.84c-.27-.45-.44-.68-.89-1.41-.93-1.55-1.48-2.66-1.88-3.43-.77-1.48-1.4-2.49-2.64-4.5-.31-.49-1.4-2.23-3.2-4.79-.46-.66-3.24-4.61-6.38-8.4a137.93,137.93,0,0,0-15-15.22A150.34,150.34,0,0,0,1730,210c-5.28-2.75-11-5.31-11-5.31-3-1.37-3-1.29-5.52-2.45a45.26,45.26,0,0,0-5.65-2.44,21.53,21.53,0,0,0-3.63-.93,21,21,0,0,0-8.44.86,4.5,4.5,0,0,0-2.58,1.51c-.32.42-.62,1-.7,1a7.15,7.15,0,0,1,.14-1,7.94,7.94,0,0,0,0-.94,11.44,11.44,0,0,0-1.89-4.66c-2.65-3.56-9.42-5.68-9.42-5.68a80.92,80.92,0,0,0-16.81-3.88c-6.06-.94-10.79-1.44-20.24-2.44-5.2-.55-7.48-.74-10.19-.86-3.22-.15-6.17-.11-12.07,0-4,.05-7.22.15-11,.54-1.17.12-2.64.29-4.47.65a33.78,33.78,0,0,0-6.49,1.79,13.88,13.88,0,0,0-4,2.08,8.85,8.85,0,0,0-3.21,4.82,7.64,7.64,0,0,0-.07,3.45c.18.77.42,1.15.63,2.29a14.46,14.46,0,0,1,.21,2.16c.1,1.91.15,2.87.14,3.73a22.44,22.44,0,0,1-.63,6.33,18.69,18.69,0,0,1-1.81,4.23,10.1,10.1,0,0,1-2.1,2.88A4.74,4.74,0,0,1,1587,219c-.07-.11.86-.72,1.75-1.87a11.39,11.39,0,0,0,1.6-3.23,20.53,20.53,0,0,0,1.33-7.18,23.9,23.9,0,0,0-.56-4.82,35.12,35.12,0,0,0-1.12-4.31,16.57,16.57,0,0,0-1.6-4.09,9.59,9.59,0,0,0-3.35-3.09c-2.52-1.4-5.1-1.18-8-.79a91.32,91.32,0,0,0-14.09,3.09c-3.61,1.15-7.32,2.48-11.31,4.09a114.58,114.58,0,0,0-15,7c-6,3.41-12.14,7.47-12.14,7.47-1.63,1.07-1.61,1.09-1.82,1.15-9.27,2.86-24.38-32.65-30-39-.23-.26-2.16-2.44-1.59-3.5.13-.24.37-.4.84-.72a7,7,0,0,1,1.68-.86,12.49,12.49,0,0,0,2.86-1.8c1.21-.85,1.81-1.13,7-4.09,5.36-3.08,4.7-2.78,6.08-3.52a105.41,105.41,0,0,1,10.53-4.82c5.18-2.16,7.76-3.24,11.1-4.45a174.65,174.65,0,0,1,18.49-5.46c5.63-1.35,10.11-2.12,18.84-3.59,11-1.86,16.51-2.79,24.49-3.67,5.13-.56,13.41-1.33,23.66-1.65,3.45-.1,12.6-.33,24.28.22,1.69.08,12.94.62,19.75,1.65.65.1,2.84.44,5.93.86s3.88.49,6,.79c2.92.42,5,.82,6.84,1.15,11,2,11,1.9,15.07,2.73,7.92,1.63,13.79,3.4,19.4,5.1,4.1,1.24,9.1,2.76,15.63,5.24,1.3.5,6.79,2.6,14,5.9,3.4,1.56,7.12,3.27,11.93,5.89a172.54,172.54,0,0,1,15.49,9.55c2,1.34,5.43,3.73,9.62,6.93,1.58,1.21,4,3.08,7,5.57,5.74,4.82,9.79,8.9,12.35,11.49,4.15,4.2,7.51,8,10,10.85a218.56,218.56,0,0,1,30.28,46.4,150.76,150.76,0,0,1,7,16.38,145.15,145.15,0,0,1,6.49,26.08,153.57,153.57,0,0,1,1.75,20.69,186.46,186.46,0,0,1-1.26,25.78c-.72,6.55-1.55,11.43-2.09,14.59a251.88,251.88,0,0,1-6,26.5,170.24,170.24,0,0,1-7.19,20.76,148.66,148.66,0,0,1-11,21.05,146.76,146.76,0,0,1-9.35,13.08,201.35,201.35,0,0,1-20.86,22.48,172.56,172.56,0,0,1-23.31,18.89,153.62,153.62,0,0,1-38,18.39,143.18,143.18,0,0,1-31.26,6.39c-4,.34-21.44,1.61-38.8-2.58a121.4,121.4,0,0,1-14.72-4.67,63.46,63.46,0,0,1-10.4-4.81,59.75,59.75,0,0,1-14.65-12.14,32.59,32.59,0,0,0-5.17-5.18,18.15,18.15,0,0,0-7.18-3.8,28.45,28.45,0,0,0-5.59-.58c-1.69-.05-1.84.06-3.55,0-2.36-.08-3.4-.34-5.59-.57-2.52-.27-3.46-.18-5.93-.29a89.61,89.61,0,0,1-9.56-1.08c-8.08-1.17-16.77-2.43-24.49-4.24-4.08-.95-8.09-2.06-8.09-2.06s-1.7-.47-3.08-.88a126.48,126.48,0,0,1-17.16-6.9c-5.43-2.69-9.49-4.71-14-8-16.37-12.2-22.93-30.63-24-34.63-.87-3.22-1.9-6.4-2.79-9.62a21.73,21.73,0,0,0-1.19-3.67,17.38,17.38,0,0,0-5.86-6.75,33.93,33.93,0,0,0-5.3-2.8c-6.24-2.92-8.06-3.25-11.8-5.32a50.19,50.19,0,0,1-5.72-3.73c-10.21-7.44-18.08-19.05-20.38-22.48a122.07,122.07,0,0,1-11.09-20.55,119.16,119.16,0,0,1-8.31-31.89,124.43,124.43,0,0,1,2-40.09,149.88,149.88,0,0,1,11-33.26,130.75,130.75,0,0,1,7-13.79,135.17,135.17,0,0,1,13.19-18,73.93,73.93,0,0,1,8-8.69,70.9,70.9,0,0,0,5.8-5.17,36.2,36.2,0,0,1,2.79-2.59c.85-.75,1.1-.94,1.46-1" transform="translate(-3.64 -2.36)"/><path class="cls-4" d="M1471.39,184.78c.19-.43,3.55-2.94,10.26-8,1.88-1.41-.05.06,8.31-6.07a8.58,8.58,0,0,1,1.32-.93c5.15-1.86,9.87,16.33,25.44,31.36,2.15,2.08,7.49,7,6.27,10.23-.17.47-.88,1.07-2.3,2.27-3.24,2.72-4.71,3.4-7.21,5.61-1.72,1.53-2,2.08-2.52,2.47-6.92,5.18-44.62-25.82-39.57-37" transform="translate(-3.64 -2.36)"/></g></g></svg>