<svg id="Layer_1" data-name="Layer 1" xmlns="http://www.w3.org/2000/svg" xmlns:xlink="http://www.w3.org/1999/xlink" viewBox="0 0 2000 417.94"><defs><style>.cls-1,.cls-4{fill:none;}.cls-2{fill:#891940;}.cls-3{fill:#891c40;}.cls-4{stroke:#fff;stroke-miterlimit:10;stroke-width:0.25px;}.cls-5{fill:#fff;}.cls-6{clip-path:url(#clip-path);}</style><clipPath id="clip-path" transform="translate(0 -8.39)"><rect class="cls-1" x="1080.75" y="92.91" width="357.24" height="351.72"/></clipPath></defs><path class="cls-2" d="M348.74,121.58" transform="translate(0 -8.39)"/><path class="cls-2" d="M323.77,106.2" transform="translate(0 -8.39)"/><path class="cls-2" d="M348.07,280" transform="translate(0 -8.39)"/><path class="cls-2" d="M394.65,285.94" transform="translate(0 -8.39)"/><path class="cls-3" d="M615.86,372c-12.69.06-25.57-.06-38.26,0,1.42-27.3,2.14-54,2-72.7-.15-23.72-1-39.26-5.59-57.8a136.52,136.52,0,0,0-10.8-29.65A140.84,140.84,0,0,0,544.79,185c-17.67-19.63-42.69-29.64-44.67-30.41-37.91-14.77-70.84-4.66-84.77-.37a103.87,103.87,0,0,0-26.35,12A98.1,98.1,0,0,0,365.75,187a77.59,77.59,0,0,0-13.31,22.6c-4.39,11.93-4.93,23.35-5.27,30.61a53.5,53.5,0,0,0-.17,6.19c0,3.37-.69,22.64-.82,26.06-.48,12.21-.22,22.44,0,56,.06,9.43.13,23.32.16,40.39l-35.24-.06c.27-10.79.55-27.94.15-49.11-.51-26.72-1.69-37.52-1.55-63,.15-26.8.29-40.48,4.14-53.89A126.85,126.85,0,0,1,335,161.42a144.08,144.08,0,0,1,50.81-38.56,149.72,149.72,0,0,1,17.78-6.43c4.37-1.23,8.47-2.13,12.23-2.81a148.45,148.45,0,0,1,20.1-2.06h.2c11.93-.57,23.52-.27,25.26-.2,38,1.39,65.49,14.1,65.56,14.13h0c18.94,9,55.32,30,73.78,70.06,8.48,18.4,12.11,38.5,13.33,45.22.53,3,.85,5.2,1.1,6.91,3.15,21.46,3.13,39.1,3,52.45C617.88,326.5,616.79,353.27,615.86,372Z" transform="translate(0 -8.39)"/><path class="cls-3" d="M274.05,84.05s-274.2.38-274,.07S0,46.63,0,46.63l274.05,0Z" transform="translate(0 -8.39)"/><path class="cls-3" d="M158.75,81s.39,291.25.08,291.1-38.08,0-38.08,0l0-291.1Z" transform="translate(0 -8.39)"/><path class="cls-3" d="M348,48.19s.44,325.33.09,325.15-43.54,0-43.54,0l0-325.16Z" transform="translate(0 -8.39)"/><path class="cls-3" d="M700,116.39s.38,255.79.07,255.65S662,372,662,372l0-255.65Z" transform="translate(0 -8.39)"/><path class="cls-3" d="M1601.12,86.64s.39,286.26.08,286.11-38,0-38,0l0-286.11Z" transform="translate(0 -8.39)"/><path class="cls-3" d="M1688.19,153.74s-206,.33-205.87.07,0-32.57,0-32.57l205.87,0Z" transform="translate(0 -8.39)"/><path class="cls-3" d="M798.45,117.66s.38,256.88.08,256.74-38.08,0-38.08,0l0-256.74Z" transform="translate(0 -8.39)"/><path class="cls-3" d="M1066.8,373.45l-38.06.19c1.42-27.3,1.72-50.8,1.61-69.5-.15-23.72-1-39.26-5.59-57.8a136.84,136.84,0,0,0-10.8-29.66,140.84,140.84,0,0,0-18.45-26.87c-17.67-19.62-42.69-29.63-44.67-30.41-37.91-14.77-70.84-4.65-84.77-.37a104.23,104.23,0,0,0-26.35,12.05,98.06,98.06,0,0,0-23.25,20.73,77.51,77.51,0,0,0-13.31,22.59c-4.39,11.93-4.93,23.36-5.27,30.62a53.25,53.25,0,0,0-.17,6.19c0,3.36-.69,22.63-.82,26-.48,12.22-.22,22.45,0,56,.06,9.42.13,23.32.16,40.39l-35.24-.07c.27-10.79.55-27.93.15-49.11-.51-26.72-1.69-37.52-1.55-63,.15-26.81.29-40.48,4.14-53.89a126.86,126.86,0,0,1,21.19-41.41,144,144,0,0,1,50.81-38.55,149.72,149.72,0,0,1,17.78-6.43c4.37-1.23,8.47-2.14,12.23-2.82a150.32,150.32,0,0,1,20.1-2.06h.2c11.93-.57,23.52-.26,25.26-.2,38,1.4,65.49,14.1,65.56,14.13h0c18.94,9,55.32,30,73.78,70.06,8.48,18.4,12.11,38.5,13.33,45.23.53,3,.85,5.2,1.1,6.91,3.15,21.46,3.13,39.09,3,52.45C1068.6,331.29,1067.74,354.68,1066.8,373.45Z" transform="translate(0 -8.39)"/><path class="cls-3" d="M1755,121.21s113.61,237.13,113.27,237.14-34.35,16.93-34.35,16.93L1713.29,121.21Z" transform="translate(0 -8.39)"/><polygon class="cls-2" points="1833.74 366.89 1871.53 366.89 1852.63 348.85 1833.74 366.89"/><path class="cls-3" d="M1958.39,121.21s-121,237.13-120.65,237.14,34.35,16.93,34.35,16.93L2000,121.21Z" transform="translate(0 -8.39)"/><path class="cls-2" d="M708.65,87.43" transform="translate(0 -8.39)"/><path class="cls-2" d="M678.09,63.37" transform="translate(0 -8.39)"/><path class="cls-3" d="M647.19,23.78a31,31,0,0,1,7.49-7.5A36,36,0,0,1,662.11,12a42.55,42.55,0,0,1,10.78-2.8,64.66,64.66,0,0,1,9.5-.83,62.08,62.08,0,0,1,10.2.7c4.67.75,14.45,2.3,23,9.65a39.28,39.28,0,0,1,7,7.9A32,32,0,0,1,727.4,37c2.52,10.64-2.51,22.16-2.51,22.16a38.86,38.86,0,0,1-6.78,9.45,35.8,35.8,0,0,1-7.47,5.55,29.51,29.51,0,0,1-7.08,3,27.25,27.25,0,0,1-9,.9c-5.18-.42-8.92-2.33-9.87-3.23-.61-.59-1.29-1.1-1.86-1.72a4.1,4.1,0,0,0-1.13-1,3.84,3.84,0,0,0-1.84-.47c-13.8-.38-18.36-4.8-18.36-4.8-1.15-1.11-4.17-4.63-4.8-7.42a4.06,4.06,0,0,0-1.07-2.18,9.1,9.1,0,0,0-2.59-1.35c-.65-.3-1.27-.65-1.9-1-1.39-.71-5.6-4.49-7.47-10.58C640.49,34,646.48,24.84,647.19,23.78Z" transform="translate(0 -8.39)"/><path class="cls-4" d="M708.83,37.77c-.33.07-.11,1.21-.6,3.35a5.17,5.17,0,0,1-.68,2c-.73,1-2.18,1.86-3,1.48-.35-.16-.84-.63-1-.49,0,0,0,0,0,0a3.1,3.1,0,0,0,0,1.87c.59,1.88-1.08,4.18-1.23,4.39a10.11,10.11,0,0,1-2,1.82,13.65,13.65,0,0,0-2.3,2,6,6,0,0,0-.55.75c-.2.33-1,1.72-.49,2.51,0,0,.29.39.52.33s.09-1.2.83-2.13c1.09-1.37,2.06-1.06,3.57-2.12,1-.74,2.88-2,3-4.51,0-.84-.12-1.81.31-2.28s.76-.1,1.29-.06c1.82.17,2.92-2.36,3.16-2.93a5.62,5.62,0,0,0,.57-3.7C709.89,38.87,709.18,37.68,708.83,37.77Z" transform="translate(0 -8.39)"/><path class="cls-4" d="M660.18,33.44c.72-.42.84-.73,1.36-1a6.37,6.37,0,0,1,1.93-.42c.66-.07,3.42-.36,3.89,2.1.12.65.07,1.46.36,1.34s.56-1.32,1.29-2.49a9.5,9.5,0,0,1,5.33-3.67,7.47,7.47,0,0,1,3.72-.16c2.28.32,2.63,1.15,4.36.43.65-.27,2.42-.82,2.72-2.12,0-.06.15-.63-.06-.76s-1.08,1.1-2.62,1.45c-2.11.47-2.54-.65-4.65-.84a7.39,7.39,0,0,0-6.45,2c-.82.81-1.61,1.92-2.37,2-.6.09-.66-.52-1-1-1.19-1.68-4.39,0-5.1.31-2.43,1.23-4.08,3.06-3.92,3.24S660.09,33.48,660.18,33.44Z" transform="translate(0 -8.39)"/><path class="cls-4" d="M690.44,53.4a4.34,4.34,0,0,1-.46-2.61c-.07-1.26-.69-3.11-2-3.73a2.29,2.29,0,0,0-.64-.19c-1.08-.19-2.09.34-5.83,1-.49.09-1.41.15-2.68.39a14.12,14.12,0,0,0-2.23.52c-1.89.73-2.47,2-4,2.3h0a2.3,2.3,0,0,1-1.06.11.91.91,0,0,1-.61-.87c.05-.45.63-.6,1.38-1.11a6.53,6.53,0,0,0,1.57-1.52,5.31,5.31,0,0,1,.58-.33,9.69,9.69,0,0,1,1.73-.68c3.4-1.1,6.74.28,8.78-1.53.76-.68.26-.81,1.82-2.94,1.36-1.86,2-2.07,2-2.87.05-1.91-3.43-3.21-3.18-3.72.15-.31,1.61-.13,2.73.62a4.42,4.42,0,0,1,2,4.06c-.33,2.21-2.92,3.05-2.53,4.23a.72.72,0,0,0,.16.27,4.07,4.07,0,0,0,1.53.85c1.92.72,2.16,8.28,1.35,8.17C690.7,53.83,690.62,53.69,690.44,53.4Z" transform="translate(0 -8.39)"/><path class="cls-2" d="M1503,376.44" transform="translate(0 -8.39)"/><path class="cls-2" d="M1472.39,352.38" transform="translate(0 -8.39)"/><path class="cls-5" d="M1503.13,326.78c-.34.08-.12,1.21-.6,3.35a5,5,0,0,1-.69,2c-.73,1-2.17,1.86-3,1.48-.36-.16-.84-.63-1-.49a.05.05,0,0,0,0,0c-.36.61,0,1.87,0,1.87.59,1.88-1.08,4.18-1.23,4.39a10.41,10.41,0,0,1-2,1.82,13.65,13.65,0,0,0-2.3,2,5.06,5.06,0,0,0-.55.75c-.21.33-1,1.72-.49,2.51,0,0,.28.39.52.33s.08-1.2.82-2.13c1.1-1.37,2.07-1.06,3.57-2.12a5.84,5.84,0,0,0,3-4.51c0-.84-.13-1.81.3-2.28s.76-.1,1.29-.06c1.83.17,2.92-2.36,3.17-2.93a5.69,5.69,0,0,0,.57-3.7C1504.18,327.88,1503.48,326.69,1503.13,326.78Z" transform="translate(0 -8.39)"/><path class="cls-5" d="M1454.47,322.45c.72-.42.84-.73,1.36-1a6.44,6.44,0,0,1,1.93-.42c.66-.07,3.43-.36,3.89,2.1.13.65.08,1.46.36,1.34s.57-1.32,1.3-2.49a9.5,9.5,0,0,1,5.33-3.67,7.43,7.43,0,0,1,3.71-.16c2.29.32,2.63,1.15,4.36.43.66-.27,2.42-.82,2.73-2.12,0-.05.15-.63-.07-.76s-1.07,1.1-2.62,1.45c-2.1.47-2.53-.65-4.64-.84a7.38,7.38,0,0,0-6.45,2c-.82.81-1.61,1.92-2.37,2-.61.09-.67-.52-1-1-1.19-1.68-4.38-.05-5.1.31-2.42,1.23-4.07,3.06-3.91,3.25S1454.39,322.5,1454.47,322.45Z" transform="translate(0 -8.39)"/><path class="cls-2" d="M1508.12,382.05" transform="translate(0 -8.39)"/><path class="cls-2" d="M1477.57,358" transform="translate(0 -8.39)"/><path class="cls-3" d="M1446.66,318.4a30.85,30.85,0,0,1,7.5-7.5,36.2,36.2,0,0,1,7.42-4.26,41.9,41.9,0,0,1,10.79-2.8,64.44,64.44,0,0,1,9.49-.83,62.25,62.25,0,0,1,10.21.7c4.67.74,14.44,2.3,23,9.65a38.72,38.72,0,0,1,7,7.9,31.85,31.85,0,0,1,4.84,10.36c2.53,10.65-2.51,22.16-2.51,22.16a38.66,38.66,0,0,1-6.78,9.45,35,35,0,0,1-7.46,5.55,29.4,29.4,0,0,1-7.09,3,26.94,26.94,0,0,1-9,.9c-5.18-.41-8.91-2.32-9.86-3.23-.61-.58-1.3-1.09-1.87-1.72a4.2,4.2,0,0,0-1.12-1,3.87,3.87,0,0,0-1.85-.47c-13.79-.38-18.36-4.8-18.36-4.8-1.15-1.12-4.17-4.63-4.8-7.43a4,4,0,0,0-1.06-2.17,8.74,8.74,0,0,0-2.59-1.35c-.65-.3-1.27-.65-1.91-1-1.39-.7-5.59-4.48-7.46-10.57C1440,328.65,1446,319.46,1446.66,318.4Z" transform="translate(0 -8.39)"/><path class="cls-4" d="M1508.3,332.38c-.33.08-.11,1.22-.59,3.36a5,5,0,0,1-.69,2c-.73,1-2.17,1.86-3,1.48-.36-.16-.84-.64-1-.5l0,.05c-.35.6,0,1.87,0,1.87.59,1.88-1.08,4.17-1.23,4.38a10.09,10.09,0,0,1-2,1.82,14.21,14.21,0,0,0-2.3,2.05,7,7,0,0,0-.56.74c-.2.34-1,1.72-.48,2.51,0,0,.28.4.52.34s.08-1.2.82-2.13c1.1-1.37,2.07-1.07,3.57-2.13a5.8,5.8,0,0,0,3-4.5c0-.84-.13-1.81.3-2.28s.76-.11,1.29-.06c1.83.17,2.92-2.36,3.17-2.93a5.7,5.7,0,0,0,.57-3.71C1509.36,333.49,1508.66,332.3,1508.3,332.38Z" transform="translate(0 -8.39)"/><path class="cls-4" d="M1459.65,328.05c.72-.42.84-.72,1.36-.95a6.15,6.15,0,0,1,1.93-.42c.66-.07,3.43-.37,3.89,2.09.13.66.08,1.47.36,1.34s.57-1.32,1.3-2.48a9.5,9.5,0,0,1,5.33-3.68,7.53,7.53,0,0,1,3.71-.15c2.29.31,2.63,1.15,4.36.43.65-.28,2.42-.82,2.73-2.12,0-.06.15-.64-.07-.77s-1.08,1.11-2.62,1.46c-2.1.47-2.53-.65-4.64-.84a7.35,7.35,0,0,0-6.45,2c-.82.81-1.61,1.92-2.38,2-.6.09-.66-.52-1-1-1.19-1.68-4.39-.06-5.1.31-2.42,1.23-4.07,3.06-3.91,3.24S1459.57,328.1,1459.65,328.05Z" transform="translate(0 -8.39)"/><path class="cls-4" d="M1489.92,348a4.43,4.43,0,0,1-.47-2.61c-.06-1.26-.68-3.11-2-3.73a2,2,0,0,0-.65-.2c-1.07-.19-2.09.35-5.83,1-.48.09-1.4.15-2.67.39a15.45,15.45,0,0,0-2.23.51c-1.89.74-2.48,2-4,2.31h0a2.34,2.34,0,0,1-1.06.12.9.9,0,0,1-.6-.87c0-.45.63-.6,1.38-1.11a6.41,6.41,0,0,0,1.56-1.53c.12-.07.31-.19.58-.33a11.23,11.23,0,0,1,1.74-.67c3.39-1.1,6.74.27,8.78-1.54.76-.67.25-.81,1.81-2.94,1.36-1.86,2-2.06,2-2.86,0-1.91-3.44-3.22-3.19-3.72.15-.31,1.61-.13,2.73.62a4.41,4.41,0,0,1,2,4.05c-.34,2.22-2.92,3.06-2.53,4.24a.71.71,0,0,0,.15.26,4,4,0,0,0,1.54.86c1.92.72,2.16,8.28,1.35,8.16C1490.18,348.45,1490.09,348.3,1489.92,348Z" transform="translate(0 -8.39)"/><g class="cls-6"><path class="cls-3" d="M1181.22,181.79c0,.33-3-.12-7,1-2.17.6-6.21,1.77-8,5.09a10.24,10.24,0,0,0-1,4.38c-.24,2.58-.42,4.65.72,6,1.66,2,4.07-.05,8,1.77,2.71,1.24,2.54,2.62,6.89,5.09,2.53,1.43,3.58,1.53,4,1.55a9.39,9.39,0,0,0,6-2.26c.78-.69,1.23-1.36,1.36-1.27s-.36,2-1.57,3.25c-2.62,2.74-6.61,2.44-7,2.4-1.94-.17-3.54-1.1-6.74-3s-3-2.21-4.6-2.82a12.35,12.35,0,0,0-8.61.14c-1.14.47-3.76,1.54-4.45,3.81-.35,1.15.07,1.69.29,3.68.12,1.13.48,4.39-.58,6.64-1.86,4-8.28,4.77-8.32,4.67a16.26,16.26,0,0,0,3.37-1.91,8.35,8.35,0,0,0,2.37-2.33,7,7,0,0,0,.79-4.1c-.16-4.88-2-5.51-1.36-7.49.93-2.87,5-2.25,6.45-5.8.28-.67.23-.94.29-4.24a74.63,74.63,0,0,1,.29-7.77c1.4-4.58,7.68-7.14,12.2-7.49C1178.26,180.54,1181.24,181.46,1181.22,181.79Z" transform="translate(0 -8.39)"/><path class="cls-3" d="M1146.84,230.16c.3,0,.3,2.58,2.11,4.64.26.3,2.1,2.39,4.46,2.28,1.82-.09,2.14-1.09,6.5-4.37.47-.36,1.43-.92,2.66-1.86a16.55,16.55,0,0,0,2.13-1.77c1.65-1.84,1.65-3.55,3.1-4.75a7.5,7.5,0,0,1,1.08-.69c2.94-1.52,4-.18,12.1-.49a38.55,38.55,0,0,0,11.15-1.56c3.48-1.11,7.36-2.41,9.94-6.23a12.35,12.35,0,0,0,2.25-6.63c.12-4.53-2.57-7.88-3.75-9.35-3.28-4.09-5.66-3.59-7.31-7.31a12,12,0,0,1-.84-6.43,14,14,0,0,1,2.9-6.53c4.51-6,11.61-8.26,11.82-7.89.08.14-1.12.73-3.38,2.63-3.76,3.18-8.17,6.91-8.25,11.79a9.61,9.61,0,0,0,1.31,4.84c1.41,2.48,3.38,3.25,4.88,4.35,3.88,2.85,5.59,8.58,5.53,12.54-.12,8.08-7.76,14-13.09,16.17a25.73,25.73,0,0,1-7.35,1.65c-8.59,1-12.41-1.79-16.6,1-1.33.88-1.29,1.5-2,2.72a11.17,11.17,0,0,1-2,2.38c-3.08,3-7.35,3.23-8.62,6.39-.47,1.17.14,1.06-.45,4.32-.51,2.86-1.07,3.42-.69,4.35.92,2.21,5.31,1.87,5.3,2.58,0,.43-1.66,1-3.23.73a5.41,5.41,0,0,1-4.18-3.61c-.76-2.71,1.57-5,.55-6.19-.47-.53-1-.12-2.37-.39-2.67-.53-4.71-3-5.5-5.33C1146.32,232.15,1146.59,230.2,1146.84,230.16Z" transform="translate(0 -8.39)"/><path class="cls-3" d="M1201.42,285.8a2.15,2.15,0,0,1-1.1-2.18c.06-.47.31-.82.48-1.91.1-.57,0-.61,0-.62-.19-.08-1.15,1.21-1.67,2.65-.94,2.59-.15,3.5-1.15,4.54-.86.88-2,.74-2.59,2a3.5,3.5,0,0,0-.3,1.06c-.48,2.48.36,5.91.74,5.87s-.66-2.73.8-5.45c1.15-2.16,3.32-3.35,5.22-4.4a12.44,12.44,0,0,1,3.55-1.54c3.77-.81,5.15,1.39,9.07.65a8.45,8.45,0,0,0,3.8-1.71,6.11,6.11,0,0,0,2.32-3.83c.05-.53,0-1.39-.22-1.46s-.51.5-.81,1a12.2,12.2,0,0,1-2.85,2.88,9.76,9.76,0,0,1-3.45,1.54c-4.19.9-6.36-2.17-9.11-.8C1202.77,284.74,1202.27,286.06,1201.42,285.8Z" transform="translate(0 -8.39)"/><path class="cls-3" d="M1234,269.8c.89-3.25,2.36-5,2.18-5.19s-2.13,1.55-3.4,4.31c-.48,1.05-2.28,4.94-1.15,8.72,1.06,3.55,3.66,3.54,4.46,7.42a13.33,13.33,0,0,1,0,4.24c-.38,3.9-1.38,4.26-1.73,7.42-.07.61-.61,6.09,2,8.59.87.83,2,1.16,2.09.95s-1.63-1.18-2.29-3.4a15.24,15.24,0,0,1-.25-4.66,8.1,8.1,0,0,1,.07-1.53c.38-1.79,1.76-2.62,2.29-5.78.74-4.39-1.21-6.71.18-8.37.6-.72,1.89-.87,4.46-1.17a31.33,31.33,0,0,1,3.82-.21c5.1,0,7.71.07,10.43.78,2.31.6,3.66,1.31,4.6,2.68.2.29,1.27,1.84.84,3-.35,1-1.5,1.15-1.44,1.48s1.3.64,2.06,0c1-.84.81-3.06.42-4.38a7.17,7.17,0,0,0-3.39-4c-.39-.25-1.63-1-5.16-1.42a46.94,46.94,0,0,0-6.54-.14c-3.86.07-5.78.1-6.55.14-2.64.15-3.31.29-4.49-.14a6.25,6.25,0,0,1-3.88-3.53C1232.89,273.71,1233.41,271.8,1234,269.8Z" transform="translate(0 -8.39)"/><path class="cls-3" d="M1213.08,192.32c.4-.14-1.36-3.13-.14-5.8.9-2,3-2.77,5.09-3.6,1.3-.5,6.71-2.61,10.91-.28,1.12.62,2.08,1.51,2.51,1.2s-.53-1.78-.53-3.5c0-3.73,5-6.58,6.35-7.38a24,24,0,0,1,7.59-2.58c5.2-1.14,7-.48,9.71-2.37,1.68-1.19,1.21-3.39,2.94-4a5.35,5.35,0,0,1,2.88.11,5,5,0,0,0-4-.88c-1.81.44-1.92,2.42-3.59,3.25-3.79,1.86-6.16.95-10.84,2.12-3.24.81-8.93,2.23-10.85,6.36-.65,1.39-.87,3.09-2.32,3.71-1.14.48-2.07-.13-3.44-.43-4.71-1-9.28,2.79-10.3,3.64-1.6,1.33-3.87,3.23-4,6C1211,190.35,1212.73,192.44,1213.08,192.32Z" transform="translate(0 -8.39)"/><path class="cls-3" d="M1288,162a1,1,0,0,1,.45.73c.2,1.33-2.2,1.76-3.54,4.23-.77,1.41-1.09,3.3-.36,4.51a2.13,2.13,0,0,0,.18.26c.35.4,1,.73,3,1.44a33.17,33.17,0,0,0,6,1.77c2.82.4,4.6.05,4.63.28s-2.28,1.19-5,1.13-3.57-1-7.68-1.49c-1.29-.15-2.24-.17-3.37-.21a48.58,48.58,0,0,0-7.11.29,30.11,30.11,0,0,0-13.2,4.94c-3.86,2.88-8.37,8.09-8.51,12.33,0,.75,0,4.87-.18,6.75a11.6,11.6,0,0,0-.07,1.77c.06,1,.24,1.31.07,1.62-.3.58-1.73.51-3.3.43-2.6-.14-3.91-.21-4.83-.19a17.86,17.86,0,0,0-4.78,1c-4.12,1.24-8.2,2.51-12.06,6.15-.27.26-.46.44-.65.64a30,30,0,0,0-7,10.84,28.73,28.73,0,0,0-1.5,7.84,25.26,25.26,0,0,0,0,6.15,30.09,30.09,0,0,1,.71,7.56c-.07,1.16-.2,1.57-.37,1.6-.5.07-1.35-3-1.86-4.88a46,46,0,0,1-1.86-8.24c-.36-4.8,1.35-8.53,3-12.08,1.72-3.75,5.13-11.14,13-15.5a32.14,32.14,0,0,1,9.84-3.4,17.42,17.42,0,0,1,4.89-.46c1.62.2,2.75.73,3.58.11a2.65,2.65,0,0,0,.76-2.12c.24-4.15-.21-5.88.24-8.05a11.49,11.49,0,0,1,1.33-3.29,22.19,22.19,0,0,1,7.21-8,36.39,36.39,0,0,1,14.53-5.19,9.08,9.08,0,0,0,3.74-.94,6.72,6.72,0,0,0,.75-.51c2-1.58,3.08-4,4.79-6.27C1284.68,164,1287,161.52,1288,162Z" transform="translate(0 -8.39)"/><path class="cls-3" d="M1241.65,216.41c.09.16,1.1-.27,1.23-.32a9,9,0,0,0,2.21-1.51c2.38-1.66,7.41,1.83,7.82,2.12a4.62,4.62,0,0,1,1.94,2.26,4,4,0,0,1,.15,2c-.19,1.2-.82,5.78,0,9.25a13.93,13.93,0,0,0,1.93,4.31,12.23,12.23,0,0,0,3.45,3.89c1.37,1,3.16,1.53,3.37,1.2s-1.65-1.56-3.14-3.51a14.8,14.8,0,0,1-2.74-8.15c-.11-1.12-.5-5.65,3-12.86,2.38-4.89,6.21-12.75,15.22-17.73,5.72-3.17,10.89-3.71,16.72-4.32a46.28,46.28,0,0,1,17,.92,29.59,29.59,0,0,1,11.12,4.81c2,1.48,6.63,5,8.54,11.3,1.55,5.1,1.25,11.78-1.42,13.6-.31.21-1.26.77-1.16,1s1.55.27,2.73-.28c3.3-1.54,3.17-8.08,3.16-9.05-.14-6.88-4.07-11.88-5.6-13.78a28.79,28.79,0,0,0-10.84-8.12,34.3,34.3,0,0,0-9.12-2.62,54.81,54.81,0,0,0-16.14-.21c-6.43.84-13.23,1.73-20,6.57a39.65,39.65,0,0,0-8.8,9.21c-1.89,2.87-2.84,4.31-3.26,6.2-.27,1.25-.24,2.07-.86,2.4-1.28.68-2.81-2.17-6.31-2.69a10.78,10.78,0,0,0-5.6.85C1243.58,214.23,1241.49,216.16,1241.65,216.41Z" transform="translate(0 -8.39)"/><path class="cls-3" d="M1307.73,208.62c.31.21-4.28,5.3-6.37,13.6a35.43,35.43,0,0,0-.73,13.46c.53,3.67,2,13.92,9.77,19,4.25,2.78,9.66,3.54,12.08,3.88l5.36.36c3.16.21,3.86.3,4.45-.27,1.16-1.13,1-4-.16-5.35a6.45,6.45,0,0,1-1.16-1.38c-.38-.67-.75-1.69-.54-1.83.4-.28,3.64,2,4.68,5.76a9.71,9.71,0,0,1-2.49,9.38c-2.2,2.1-5.33,2.45-5.48,2.14s1.44-1.36,2-1.77a8.42,8.42,0,0,0,1.34-1c.13-.14,1.37-1.47,1.06-2.37-.25-.7-1.37-.85-7.76-1.43l-1.78-.15a59.29,59.29,0,0,1-7.64-1.07,20.48,20.48,0,0,1-10.24-5.8A22.27,22.27,0,0,1,1299,244a33.24,33.24,0,0,1-1-11.49,37.26,37.26,0,0,1,2.89-13.9C1303.52,212.44,1307.46,208.43,1307.73,208.62Z" transform="translate(0 -8.39)"/><polygon class="cls-3" points="1257.59 259.96 1312.51 314.39 1325.58 299.88 1333.06 315.26 1367.05 378.2 1386.04 353.31 1430.43 417.94 1432.12 415.89 1398.5 314.13 1371.62 347.16 1343.93 257.41 1321.83 282.06 1296.79 239.84 1257.59 259.96"/></g><path class="cls-3" d="M1127,146.22c1.45.12,2.74,1.93,2.74,1.93,2.69,3.67,10.37,10.63,14.19,14.11,6.31,5.72,11.93,8,11.22,10.3-.15.49-.44.54-2,2a22.7,22.7,0,0,1-4.1,4.41c-2.72,2.46-8.31,10.23-12.45,19a78.34,78.34,0,0,0-6.41,20.41,41.54,41.54,0,0,0-.85,10.66,39.67,39.67,0,0,0,6,17.81,43.57,43.57,0,0,0,6.57,8.07,27.74,27.74,0,0,0,7.58,5.79c2,1,3.53,1,6.19,2.36a17.32,17.32,0,0,0,3.17,1.31,19.35,19.35,0,0,0,2.57.56,43.26,43.26,0,0,0,4.62.64,33.06,33.06,0,0,0,5.72-.08,15.4,15.4,0,0,0,4-.79,30.5,30.5,0,0,0,2.86-1.39,35.43,35.43,0,0,1,5.31-1.95c.88-.25.86-.21,2.42-.59,4.28-1,5.09-1.53,8.2-2.13a22.62,22.62,0,0,1,3.74-.46,26.48,26.48,0,0,1,2.81.1,46.6,46.6,0,0,1,5.36.74,20.82,20.82,0,0,1,3.37.76,21,21,0,0,0,2.27.79,5,5,0,0,0,1.39.23,4.44,4.44,0,0,0,1.47-.31,7.62,7.62,0,0,0,2.86-2.15,9.92,9.92,0,0,0,2.14-4.11,5.31,5.31,0,0,0,.07-.54s0-.31,0-.61a5.89,5.89,0,0,0-.44-1.93l.18.64a11.21,11.21,0,0,1,.49,1.7c0,.52,0,.65.1.94a1.45,1.45,0,0,0,.67.56,2.49,2.49,0,0,0,2.26-.25c.15-.11.32-.27.45-.21s.16.47.15.59c-.05,1.23-6.88,4.75-7.08,4.36s9.89-6.13,13-7.74c1.88-1,3.28-1.52,5.15-2.69a14,14,0,0,1,1.81-1,9.39,9.39,0,0,1,2.83-.86,16.43,16.43,0,0,1,2.48,0l1.7.05h0c.47,0,1.82,0,2.31,0a6.2,6.2,0,0,0,2.94-1.22c.66-.42.69-.56,1.64-1.16A10.74,10.74,0,0,0,1252,244c.44-.34.8-.69.81-.68a5.23,5.23,0,0,0-.85.94,3.65,3.65,0,0,0-.54,1.25,1.47,1.47,0,0,0-.08.55,1.38,1.38,0,0,0,.33.77,3.37,3.37,0,0,0,2.3.76,18,18,0,0,0,2.39.12,39.59,39.59,0,0,0,7.27-.68,21.9,21.9,0,0,0,2.53-.66,24.23,24.23,0,0,0,6.18-3.2,19.24,19.24,0,0,0,4.39-3.75,12,12,0,0,0,.65-1,8.63,8.63,0,0,0,.89-2.33,6.4,6.4,0,0,0,.11-2.14,8.45,8.45,0,0,1-.93,5.28,10.52,10.52,0,0,1-2.12,2.39,11.27,11.27,0,0,0-1.9,1.65,3,3,0,0,0-.83,1.39c0,.22-.06.51.31,1.73a9.13,9.13,0,0,0,1.34,3,8.33,8.33,0,0,0,.69.79,9.27,9.27,0,0,0,.83.68,6,6,0,0,0,.61.38c.5.28.82.36.81.39s-.5-.15-1.5-.49a1.48,1.48,0,0,1-.69-.38,1.26,1.26,0,0,1-.31-.53,14.92,14.92,0,0,0-.72-1.37,5.12,5.12,0,0,0-1.94-2.26,4.53,4.53,0,0,0-2.55-.33,13,13,0,0,0-3,.59c-1.66.45-2.2.7-4.38,1.34a16,16,0,0,1-2.27.58,12.8,12.8,0,0,1-3.51-.25c-1.19-.16-2.38-.23-3.58-.35-2.68-.28-4-.41-5.75-.51a20.79,20.79,0,0,0-5,.12,19.87,19.87,0,0,0-2,.49c-2,.6-2.71,1.16-7.25,3.6-1.92,1-3.27,1.73-3.76,2l-1.6.81c-2.4,1.22-2.8,1.41-3.63,1.88a22.38,22.38,0,0,0-2,1.27c-.26.19-.86.63-1.7,1.37a14.25,14.25,0,0,0-3.86,4.62c-.22.52-.42,1.11-.42,1.11a16.35,16.35,0,0,0-.46,1.88,7,7,0,0,1-1.47,3.25c-.08,0,.19-.69.44-2.08a13,13,0,0,0,.26-2.64,5.49,5.49,0,0,0-.52-2.59,3.53,3.53,0,0,0-.77-1.06c-.56-.51-1.14-.64-3.35-1.07l-1.6-.3-4.49-.77a30.49,30.49,0,0,0-7.57.11,38.23,38.23,0,0,0-9.9,2.53,25.26,25.26,0,0,0-5.52,3,17.47,17.47,0,0,0-2.7,2.41,17.28,17.28,0,0,0-2.25,3.3,17.7,17.7,0,0,0-1.39,3.5,16.23,16.23,0,0,0,0,7.26,23.15,23.15,0,0,0,2.89,7.72c.89,1.5.85,1.05,2.94,4.16,1.76,2.63,2.11,3.45,3.45,5.17a36.25,36.25,0,0,0,3.09,3.46,41.64,41.64,0,0,0,7.06,5.63,40.13,40.13,0,0,0,17.32,5.53c.49,0,0,0,3.77.26,7.49.52,8.59.69,12,.81a67.32,67.32,0,0,0,7,0,26.41,26.41,0,0,0,7.16-1c1.83-.59,1.78-.88,6.14-2.74a36.06,36.06,0,0,1,4.28-1.67,25.36,25.36,0,0,1,6.49-.92,41,41,0,0,1,6.5.61c3.39.47,5.09.7,7.32,1.17a18.94,18.94,0,0,0,4.38.56c1.56,0,2.66-.24,2.68-.15a15.19,15.19,0,0,1-4.64,1.06,24.37,24.37,0,0,1-7.32-.35l-2.79-.61a6.8,6.8,0,0,0-2.83-.56,2.74,2.74,0,0,0-1.91.91,3,3,0,0,0-.41,1.58,10.61,10.61,0,0,0-.05,2.43,18.7,18.7,0,0,0,2,5.94,24.14,24.14,0,0,0,3.19,5,23.49,23.49,0,0,0,6.45,5.23,26.51,26.51,0,0,0,6.13,2.44,42.4,42.4,0,0,0,10.52,1.42,54.59,54.59,0,0,0,11.55-.36,50.74,50.74,0,0,0,9-2.23,61.53,61.53,0,0,0,11.13-4.92s3.36-1.92,9.9-6.7c1.68-1.23,1.52-1.37,2.24-1.67.26-.1.66-.24.75-.56s-.25-.72-.57-1.12a17.87,17.87,0,0,1-1.18-2c-.79-1.3-.57-1.36-1.55-3.25-1.07-2.08-1.2-1.75-1.75-3.1-.36-.88-.62-1.79-1-1.77-.19,0-.25.25-.72.76a6.53,6.53,0,0,1-.73.66,36.54,36.54,0,0,0-3.14,3.65c-1.24,1.61-1,.92-3.45,3.76-1,1.16-2.62,3.07-3.61,4a5.61,5.61,0,0,0-.61.6c-.61.73-.71,1.29-1,1.28s-.18-.17-.52-.56a5,5,0,0,0-.67-.63c-.86-.76-5.18-5.31-8.55-8.6-1.42-1.38-1.09-1-3-2.82-2.45-2.38-4.13-4.1-5.28-5.28-1-1-.92-.93-7.55-7.49l-9.51-9.41c-11.78-11.66-12.92-12.78-13.82-13.73a18.31,18.31,0,0,0-2.4-2.41c-.32-.24-1.58-1.14-1.77-1.65a.85.85,0,0,0-.39-.5c-.1-.05-.17-.05-.18-.08s.85-.51,1-.59c.89-.37,1.71-.91,2.58-1.34,4.85-2.39,9.63-4.93,14.46-7.39,12.24-6.21,18.36-9.32,18.58-9.55,0,0,.68-.68,1-.52s.09.34.38.76c.17.25.26.26.48.56a2.71,2.71,0,0,1,.29.55c.23.52,1,1.83,1.82,3.15,1.27,2.11,2.5,4.23,3.79,6.32,2.27,3.7,4.64,7.76,8,13.5,0,0,6.58,11.3,8.94,15.12l.55.9c.63,1,.53.86.64,1,.3.49.29.51.33.53.62.31,2.84-2.85,4.1-4.52.14-.18,1.93-2.18,5.52-6.16s4.59-5,6.93-7.69,3.39-3.85,3.63-4.17.81-.87,1.16-1.34.44-.62.6-.58.26.8.31,1.27a9.29,9.29,0,0,0,1.23,3.32,34.72,34.72,0,0,1,1.63,5.13c.53,1.84,1.53,4.78,3.53,10.65,2.64,7.76,2.65,7.38,2.67,7.72,0,.15,0,.76.29.84s1-1,2-2.52c1.37-2.15,1.21-1.6,2.27-3.32.61-1,1.32-2.37,2.73-5.15.21-.42.68-1.34,1.19-2.59a9.81,9.81,0,0,0,.74-2.31,5.31,5.31,0,0,0-.15-2.77,5.36,5.36,0,0,0-3.07-2.89,7.76,7.76,0,0,0-4.41-.15,4.1,4.1,0,0,0-1.39.56,7.8,7.8,0,0,0-1,.94,2.35,2.35,0,0,1,.69-1.12,5.07,5.07,0,0,1,2.06-1.14,15.34,15.34,0,0,1,1.86-.54,8.44,8.44,0,0,1,1.37-.25c.31,0,.48,0,1-.05a6.65,6.65,0,0,0,.85-.1,4.2,4.2,0,0,0,1.06-.38,7.09,7.09,0,0,0,1.78-1.35,14.9,14.9,0,0,0,2-2.48,19.43,19.43,0,0,0,1.62-3.18,44.55,44.55,0,0,0,2.27-7.84,72.84,72.84,0,0,0,.62-18.17,37.64,37.64,0,0,0-1.65-8.12,9.27,9.27,0,0,0-2.85-4.59,4.81,4.81,0,0,0-1.28-.84c-2-.84-4.19.27-6.8,1.6a18.41,18.41,0,0,0-5,3.5,12.16,12.16,0,0,0-2.72,3.66,11.69,11.69,0,0,0-1,4.26c-.06,1.57.28,1.82.08,3.43a15.59,15.59,0,0,1-.72,2.89,8.16,8.16,0,0,1-.88,2.08c-.08,0,.18-.82.34-2.11a19.67,19.67,0,0,0,.1-2.41c0-1.22-.08-1.54-.09-3.25a6.57,6.57,0,0,1,.63-3.24,14.15,14.15,0,0,1,1-1.93c2.28-3.78,1.79-3.66,2.48-4.52a2.24,2.24,0,0,0,.49-1.12,1.28,1.28,0,0,0-.13-.81,1.42,1.42,0,0,0-1-.61c-.49-.07-.76.16-1.7.56-.43.18-.88.32-1.32.48,0,0-1.58.6-3.32,1.12a34.49,34.49,0,0,1-4.59.74c-.88.11-.84.1-6.06.66a23.71,23.71,0,0,1-2.65.2,16.86,16.86,0,0,0-1.89,0,7,7,0,0,0-2.06.49,4.94,4.94,0,0,0-1.11.61,6.62,6.62,0,0,0-1.39,1.57l-1.16,1.57c-.91,1.35-1,1.86-1.93,3-.31.41-.79,1-.85.94a7,7,0,0,1,.57-1.19,11,11,0,0,0,.82-2.39c.07-.3,0-.08.23-1.77a5.41,5.41,0,0,0,.13-1.35,3.18,3.18,0,0,0-.62-1.67,5.19,5.19,0,0,0-2.26-1.37A9.62,9.62,0,0,0,1318,229a11.24,11.24,0,0,0-3.66-.43s.9-.05,2.06-.1,1.09-.06,1.42,0a7.47,7.47,0,0,1,2,.25,13.88,13.88,0,0,1,2,.94,10.37,10.37,0,0,0,1.7.73,7.49,7.49,0,0,0,2.35.18c.44,0,.8-.06,1.15-.1,1-.12,1.12-.21,1.78-.23.46,0,.51,0,1.16,0l.93,0,1-.05c.75,0,1.36,0,2.2,0,1.54,0,1.39.09,2,.07s.46-.05,1.88-.17c1-.09,1.08-.08,1.54-.13s.93-.14,1.76-.31,1.89-.39,3.07-.74a26,26,0,0,0,4.39-1.69,29,29,0,0,0,5.41-3.7l1.72-1.54c1.25-1.12,1.49-1.34,1.82-1.65a16.43,16.43,0,0,0,1.78-1.85,8.92,8.92,0,0,0,1.39-3,10.41,10.41,0,0,0,.35-2.57,13.49,13.49,0,0,0-.18-2.47,20.37,20.37,0,0,0-1-4.11,17.05,17.05,0,0,0-1.66-3.42c-.21-.32-.34-.48-.66-1-.69-1.09-1.1-1.88-1.39-2.42-.58-1.05-1-1.76-2-3.17-.22-.36-1-1.58-2.36-3.39-.34-.47-2.39-3.26-4.71-5.94a99.26,99.26,0,0,0-11.06-10.75,111.47,111.47,0,0,0-18.61-12c-3.9-2-8.09-3.76-8.09-3.76-2.23-1-2.25-.9-4.07-1.72a33,33,0,0,0-4.18-1.73,17.22,17.22,0,0,0-2.68-.66,16.27,16.27,0,0,0-6.24.61,3.37,3.37,0,0,0-1.91,1.07c-.23.3-.45.73-.51.71s.06-.28.1-.71a4,4,0,0,0,0-.66,7.77,7.77,0,0,0-1.39-3.3c-2-2.51-7-4-7-4a62,62,0,0,0-12.42-2.74c-4.48-.67-8-1-15-1.73-3.84-.39-5.53-.52-7.53-.61-2.38-.1-4.56-.08-8.92,0-3,0-5.33.1-8.14.38-.86.08-1.95.21-3.3.45a26.59,26.59,0,0,0-4.79,1.27,10.24,10.24,0,0,0-3,1.47,6.22,6.22,0,0,0-2.37,3.41,5,5,0,0,0-.06,2.43c.14.55.31.82.47,1.63a9.47,9.47,0,0,1,.15,1.52c.07,1.35.11,2,.11,2.64a15.36,15.36,0,0,1-.47,4.46,12.82,12.82,0,0,1-1.34,3,7.19,7.19,0,0,1-1.55,2,3.6,3.6,0,0,1-1.59.91c-.06-.07.63-.51,1.29-1.32a8,8,0,0,0,1.18-2.28,14.1,14.1,0,0,0,1-5.08,16.4,16.4,0,0,0-.41-3.4,24.65,24.65,0,0,0-.83-3,11.65,11.65,0,0,0-1.18-2.9,7,7,0,0,0-2.48-2.18c-1.85-1-3.76-.84-5.87-.56a69.58,69.58,0,0,0-10.42,2.19c-2.66.81-5.4,1.75-8.35,2.89a85.48,85.48,0,0,0-11.08,4.92c-4.41,2.41-9,5.28-9,5.28-1.2.76-1.19.77-1.34.81-6.85,2-18-23.06-22.13-27.57-.17-.18-1.6-1.72-1.17-2.47.09-.17.27-.28.62-.51a5.68,5.68,0,0,1,1.24-.61,9.13,9.13,0,0,0,2.11-1.27c.9-.6,1.34-.79,5.15-2.89,4-2.17,3.47-2,4.49-2.49a83,83,0,0,1,7.78-3.4c3.82-1.53,5.73-2.29,8.2-3.15a135.92,135.92,0,0,1,13.66-3.85c4.16-1,7.47-1.5,13.92-2.54,8.13-1.31,12.19-2,18.09-2.59,3.79-.4,9.9-.94,17.48-1.17,2.55-.07,9.3-.23,17.94.16,1.25,0,9.55.43,14.58,1.16.49.07,2.11.32,4.39.61s2.86.35,4.43.56c2.15.3,3.71.58,5,.81,8.13,1.44,8.15,1.34,11.14,1.93,5.84,1.15,10.18,2.41,14.33,3.6,3,.88,6.72,2,11.54,3.71,1,.35,5,1.84,10.31,4.16,2.51,1.11,5.26,2.31,8.82,4.16a129.68,129.68,0,0,1,11.44,6.75c1.46.95,4,2.64,7.11,4.9,1.17.85,3,2.17,5.16,3.93,4.24,3.41,7.23,6.29,9.13,8.12,3.06,3,5.54,5.63,7.37,7.67a151.6,151.6,0,0,1,11.13,14.06A150,150,0,0,1,1399,196.26a105.16,105.16,0,0,1,5.15,11.58,98.36,98.36,0,0,1,4.8,18.42,104.85,104.85,0,0,1,1.29,14.62,125.64,125.64,0,0,1-.93,18.22c-.53,4.62-1.15,8.07-1.55,10.3a170.46,170.46,0,0,1-4.43,18.73,116,116,0,0,1-5.31,14.66,104.36,104.36,0,0,1-8.09,14.88,105.41,105.41,0,0,1-6.91,9.23,144.72,144.72,0,0,1-15.41,15.89,127.58,127.58,0,0,1-17.22,13.35,116.06,116.06,0,0,1-28,13,110.62,110.62,0,0,1-23.1,4.52c-3,.23-15.84,1.13-28.66-1.83a90.07,90.07,0,0,1-10.88-3.3,48.07,48.07,0,0,1-7.68-3.4,43.45,43.45,0,0,1-10.82-8.58,22.79,22.79,0,0,0-3.82-3.65,13.59,13.59,0,0,0-5.31-2.69,21.53,21.53,0,0,0-4.12-.41c-1.25,0-1.37,0-2.63,0-1.74-.06-2.51-.24-4.12-.4-1.87-.19-2.56-.13-4.39-.21a67,67,0,0,1-7.06-.76c-6-.83-12.39-1.72-18.09-3-3-.68-6-1.46-6-1.46l-2.27-.62a96.57,96.57,0,0,1-12.68-4.88,62.79,62.79,0,0,1-10.31-5.68,50,50,0,0,1-17.73-24.46c-.65-2.28-1.41-4.53-2.07-6.8a14.1,14.1,0,0,0-.87-2.59,12.46,12.46,0,0,0-4.33-4.77,23.41,23.41,0,0,0-3.92-2c-4.61-2.07-6-2.3-8.71-3.76a37.14,37.14,0,0,1-4.23-2.64c-7.54-5.25-13.35-13.46-15-15.88a85.13,85.13,0,0,1-8.2-14.52,81.17,81.17,0,0,1-6.13-22.53,84,84,0,0,1,1.49-28.32,102.46,102.46,0,0,1,8.1-23.5,90.44,90.44,0,0,1,5.2-9.75,95.81,95.81,0,0,1,9.74-12.73,52.62,52.62,0,0,1,5.88-6.15,49.49,49.49,0,0,0,4.28-3.65c.41-.43,1-.9,2.06-1.83.07-.05.09-.36.34-.54A1.06,1.06,0,0,1,1127,146.22Z" transform="translate(0 -8.39)"/><path class="cls-3" d="M1126.49,146.27c.15-.3,2.63-2.07,7.58-5.63,1.4-1,0,0,6.15-4.29a6.14,6.14,0,0,1,1-.66c3.81-1.31,7.29,11.54,18.79,22.16,1.59,1.47,5.54,4.93,4.64,7.23-.13.33-.66.75-1.71,1.6-2.39,1.92-3.47,2.4-5.32,4-1.27,1.08-1.48,1.47-1.87,1.75C1150.62,176.05,1122.76,154.14,1126.49,146.27Z" transform="translate(0 -8.39)"/></svg>