<svg id="Layer_1" data-name="Layer 1" xmlns="http://www.w3.org/2000/svg" xmlns:xlink="http://www.w3.org/1999/xlink" viewBox="0 0 1993.29 442.6"><defs><style>.cls-1,.cls-5{fill:none;}.cls-2{clip-path:url(#clip-path);}.cls-3{clip-path:url(#clip-path-2);}.cls-4{fill:#fff;}.cls-5{stroke:#fff;}.cls-5,.cls-6,.cls-7{stroke-miterlimit:10;}.cls-5,.cls-6{stroke-width:0.25px;}.cls-6{fill:#983333;stroke:#983333;}.cls-7{fill:#8b1d40;stroke:#8b1d40;}.cls-8{clip-path:url(#clip-path-3);}.cls-9{opacity:0;}.cls-10{clip-path:url(#clip-path-4);}.cls-11{fill:#221f1f;}</style><clipPath id="clip-path" transform="translate(-3.62 -2.54)"><rect class="cls-1" x="0.48" y="0.26" width="2000" height="450.33"/></clipPath><clipPath id="clip-path-2" transform="translate(-3.62 -2.54)"><rect class="cls-1" x="0.48" y="0.26" width="2000" height="450.33"/></clipPath><clipPath id="clip-path-3" transform="translate(-3.62 -2.54)"><rect class="cls-1" x="1078.65" y="84.28" width="369.79" height="366.31"/></clipPath><clipPath id="clip-path-4" transform="translate(-3.62 -2.54)"><rect class="cls-1" x="1129.72" y="141.28" width="249" height="204.11"/></clipPath></defs><title>ThinQ.tv Logo_White With Maroon Fill and Transparent Background</title><g class="cls-2"><g class="cls-3"><path class="cls-4" d="M617.41,381.49c-12.65.07-25.49-.06-38.13,0,1.42-28.44,2.13-56.27,2-75.76-.15-24.71-1-40.9-5.56-60.22A146.69,146.69,0,0,0,565,214.6a147.5,147.5,0,0,0-18.39-28C529,166.15,504,155.72,502.06,154.91c-37.78-15.39-70.6-4.85-84.49-.39a102.09,102.09,0,0,0-26.26,12.56,99.46,99.46,0,0,0-23.17,21.6,81.62,81.62,0,0,0-13.27,23.54c-4.37,12.44-4.91,24.34-5.25,31.91a62.19,62.19,0,0,0-.17,6.45c0,3.5-.68,23.59-.81,27.15-.48,12.73-.22,23.39,0,58.38.06,9.82.13,24.3.16,42.09l-35.13-.06c.28-11.25.55-29.11.15-51.18-.5-27.84-1.68-39.1-1.55-65.65.15-27.93.3-42.18,4.14-56.16A134.6,134.6,0,0,1,337.52,162s18.72-25.34,50.64-40.18a145.56,145.56,0,0,1,17.72-6.7,124.33,124.33,0,0,1,12.2-2.93,139.29,139.29,0,0,1,20-2.15h.21c11.89-.59,23.44-.28,25.16-.21,37.91,1.46,65.28,14.69,65.35,14.73,18.88,9.38,55.13,31.25,73.54,73,8.45,19.17,12.07,40.11,13.27,47.12.54,3.09.86,5.42,1.11,7.2,3.14,22.37,3.11,40.74,3,54.66-.28,27.48-1.37,55.38-2.3,74.94" transform="translate(-3.62 -2.54)"/><path class="cls-4" d="M276.75,81.38s-273.28.4-273.13.08,0-39.07,0-39.07l273.13,0Z" transform="translate(-3.62 -2.54)"/><path class="cls-5" d="M1187,185.7c0,.34-3-.12-6.89,1-2.13.61-6.08,1.81-7.87,5.2a10.9,10.9,0,0,0-1,4.49c-.23,2.64-.42,4.76.7,6.15,1.63,2,4-.05,7.87,1.81,2.64,1.27,2.49,2.68,6.75,5.21,2.48,1.46,3.5,1.57,3.93,1.59a9,9,0,0,0,5.83-2.32c.77-.71,1.21-1.39,1.34-1.3s-.35,2-1.54,3.33c-2.56,2.8-6.47,2.5-6.89,2.46-1.9-.18-3.47-1.14-6.61-3s-2.9-2.27-4.5-2.89a11.62,11.62,0,0,0-8.43.14c-1.11.48-3.68,1.58-4.36,3.91-.34,1.17.07,1.72.28,3.76.13,1.15.48,4.5-.56,6.8-1.82,4.06-8.11,4.88-8.15,4.78a16,16,0,0,0,3.3-2,8.14,8.14,0,0,0,2.32-2.39,7.33,7.33,0,0,0,.77-4.19c-.15-5-2-5.64-1.33-7.67.92-2.93,4.92-2.3,6.32-5.93.27-.7.23-1,.28-4.34.1-5,.14-7.46.29-8,1.37-4.7,7.52-7.32,12-7.67C1184.08,184.43,1187,185.36,1187,185.7Z" transform="translate(-3.62 -2.54)"/><path class="cls-5" d="M1153.32,235.23c.29,0,.29,2.64,2.06,4.74.26.31,2.06,2.45,4.37,2.34,1.78-.09,2.09-1.11,6.37-4.47.46-.37,1.4-.94,2.6-1.91a16,16,0,0,0,2.09-1.81c1.61-1.88,1.61-3.63,3-4.87a7.83,7.83,0,0,1,1.06-.7c2.88-1.56,4-.19,11.84-.5,3.94-.16,7.08-.31,10.93-1.6,3.41-1.14,7.2-2.47,9.73-6.38a13,13,0,0,0,2.21-6.78c.11-4.64-2.52-8.07-3.67-9.58-3.22-4.19-5.55-3.67-7.17-7.48a12.87,12.87,0,0,1-.82-6.59,14.71,14.71,0,0,1,2.84-6.68c4.41-6.15,11.37-8.46,11.57-8.08.08.15-1.1.75-3.3,2.7-3.69,3.25-8,7.07-8.08,12.06a10.26,10.26,0,0,0,1.28,5c1.38,2.54,3.31,3.33,4.78,4.45,3.79,2.92,5.47,8.79,5.41,12.84-.12,8.28-7.59,14.3-12.82,16.55a24,24,0,0,1-7.2,1.7c-8.4,1-12.14-1.84-16.24,1-1.31.9-1.27,1.53-2,2.78a11.78,11.78,0,0,1-1.92,2.44c-3,3.11-7.21,3.31-8.45,6.54-.45,1.2.15,1.09-.43,4.43-.51,2.92-1.05,3.5-.68,4.45.9,2.27,5.2,1.92,5.19,2.64,0,.44-1.62,1-3.17.75a5.34,5.34,0,0,1-4.08-3.69c-.75-2.78,1.53-5.16.53-6.34-.46-.55-1-.13-2.32-.4-2.61-.55-4.62-3.12-5.39-5.45C1152.81,237.26,1153.07,235.27,1153.32,235.23Z" transform="translate(-3.62 -2.54)"/><path class="cls-5" d="M1206.76,292.2a2.27,2.27,0,0,1-1.08-2.24c.07-.48.3-.84.48-1.95.09-.59,0-.63,0-.65-.18-.08-1.12,1.24-1.63,2.72-.92,2.65-.15,3.59-1.13,4.65-.84.9-1.91.76-2.53,2a3.55,3.55,0,0,0-.29,1.09c-.48,2.53.34,6.05.72,6s-.65-2.79.78-5.58c1.13-2.2,3.25-3.42,5.11-4.5a11.94,11.94,0,0,1,3.48-1.58c3.69-.83,5,1.43,8.88.67a8.14,8.14,0,0,0,3.72-1.75,6.31,6.31,0,0,0,2.27-3.92c0-.55,0-1.43-.21-1.5s-.5.52-.8,1a12.39,12.39,0,0,1-2.79,2.95,9.09,9.09,0,0,1-3.37,1.58c-4.11.92-6.24-2.23-8.92-.82C1208.09,291.11,1207.59,292.46,1206.76,292.2Z" transform="translate(-3.62 -2.54)"/><path class="cls-5" d="M1238.63,275.81c.88-3.32,2.31-5.15,2.14-5.32s-2.08,1.6-3.32,4.42c-.48,1.08-2.24,5.06-1.13,8.93,1,3.63,3.58,3.63,4.36,7.59a14,14,0,0,1,0,4.35c-.37,4-1.35,4.36-1.69,7.59-.07.63-.6,6.24,2,8.79.85.85,1.93,1.19,2,1s-1.6-1.21-2.25-3.48a16.3,16.3,0,0,1-.25-4.77,10.85,10.85,0,0,1,.07-1.57c.37-1.83,1.73-2.68,2.25-5.92.72-4.49-1.18-6.86.18-8.57.58-.73,1.84-.89,4.36-1.19a30.89,30.89,0,0,1,3.74-.22c5,0,7.55.07,10.21.79,2.26.63,3.59,1.35,4.51,2.76.19.29,1.24,1.88.82,3.11-.35,1-1.48,1.17-1.41,1.51s1.28.66,2,0c1-.86.79-3.13.41-4.48a7.29,7.29,0,0,0-3.32-4.12c-.38-.25-1.6-1-5-1.45a45.16,45.16,0,0,0-6.41-.14c-3.77.06-5.66.1-6.41.14-2.59.15-3.24.29-4.4-.14a6.23,6.23,0,0,1-3.79-3.62C1237.57,279.81,1238.09,277.86,1238.63,275.81Z" transform="translate(-3.62 -2.54)"/><path class="cls-5" d="M1218.18,196.48c.39-.14-1.33-3.2-.14-5.93.88-2,2.91-2.85,5-3.69,1.27-.52,6.57-2.68,10.68-.29,1.1.63,2,1.55,2.46,1.23s-.53-1.82-.52-3.58c0-3.82,4.85-6.74,6.21-7.56a23,23,0,0,1,7.44-2.64c5.1-1.17,6.88-.48,9.5-2.42,1.65-1.23,1.19-3.47,2.88-4.13a5.18,5.18,0,0,1,2.83.11,4.77,4.77,0,0,0-4-.91c-1.78.46-1.87,2.49-3.51,3.33-3.72,1.91-6,1-10.62,2.17-3.17.84-8.75,2.3-10.63,6.51-.63,1.44-.84,3.18-2.26,3.8-1.12.49-2-.13-3.38-.43-4.6-1.05-9.08,2.85-10.08,3.72-1.56,1.36-3.79,3.31-3.86,6.15C1216.15,194.47,1217.84,196.61,1218.18,196.48Z" transform="translate(-3.62 -2.54)"/><path class="cls-5" d="M1289.87,168a1.06,1.06,0,0,1,.44.74c.2,1.38-2.16,1.82-3.48,4.36-.76,1.45-1.08,3.41-.35,4.65a1.15,1.15,0,0,0,.17.26c.34.42,1,.75,3,1.49a31.22,31.22,0,0,0,5.9,1.82c2.78.41,4.53.05,4.56.29s-2.24,1.23-4.94,1.16-3.52-1-7.56-1.53c-1.27-.15-2.21-.18-3.32-.21a45.71,45.71,0,0,0-7,.29,29,29,0,0,0-13,5.09c-3.8,3-8.24,8.33-8.38,12.7,0,.77,0,5-.17,7a12.18,12.18,0,0,0-.07,1.82c0,1.06.23,1.35.07,1.67-.3.6-1.71.52-3.25.44-2.57-.15-3.85-.22-4.76-.2a17,17,0,0,0-4.71,1.07c-4.06,1.27-8.06,2.58-11.87,6.33-.27.27-.45.45-.64.66a31.11,31.11,0,0,0-6.83,11.15,30.36,30.36,0,0,0-1.49,8.08,27.86,27.86,0,0,0,0,6.33,32,32,0,0,1,.7,7.79c-.07,1.19-.19,1.62-.36,1.65-.49.07-1.33-3.1-1.84-5a49.56,49.56,0,0,1-1.82-8.49c-.36-4.94,1.32-8.78,2.92-12.44,1.7-3.86,5-11.47,12.75-16a30.4,30.4,0,0,1,9.68-3.49,16.3,16.3,0,0,1,4.82-.47c1.6.2,2.71.74,3.52.1.54-.42.69-1.13.75-2.18.24-4.27-.2-6,.24-8.29a12.33,12.33,0,0,1,1.3-3.39A22.48,22.48,0,0,1,1262,185a34.73,34.73,0,0,1,14.3-5.35,8.93,8.93,0,0,0,3.69-1,7.66,7.66,0,0,0,.73-.53c2-1.63,3-4.15,4.72-6.46C1286.59,170.05,1288.87,167.46,1289.87,168Z" transform="translate(-3.62 -2.54)"/><path class="cls-5" d="M1246.15,221.15c.1.16,1.08-.28,1.21-.33a8.59,8.59,0,0,0,2.16-1.55c2.34-1.7,7.27,1.88,7.66,2.17a4.73,4.73,0,0,1,1.9,2.32,4.14,4.14,0,0,1,.14,2,29.73,29.73,0,0,0,0,9.48,14.68,14.68,0,0,0,1.9,4.41,12.46,12.46,0,0,0,3.37,4c1.34,1,3.09,1.57,3.31,1.23s-1.62-1.6-3.08-3.59a15.7,15.7,0,0,1-2.68-8.35c-.11-1.15-.49-5.79,3-13.16,2.33-5,6.08-13.06,14.89-18.16,5.61-3.24,10.67-3.79,16.38-4.41a43.07,43.07,0,0,1,16.66.94,28.23,28.23,0,0,1,10.89,4.92,22.47,22.47,0,0,1,8.36,11.57c1.51,5.21,1.22,12.05-1.39,13.92-.31.21-1.24.79-1.14,1.06s1.52.26,2.67-.29c3.24-1.58,3.11-8.27,3.09-9.26-.12-7.06-4-12.17-5.48-14.11a28.19,28.19,0,0,0-10.61-8.32,32.3,32.3,0,0,0-8.93-2.68,50.93,50.93,0,0,0-15.81-.21c-6.29.85-13,1.76-19.6,6.72a39.78,39.78,0,0,0-8.63,9.43c-1.85,2.94-2.77,4.41-3.18,6.35-.27,1.28-.24,2.12-.84,2.45-1.26.7-2.76-2.22-6.19-2.74a9.92,9.92,0,0,0-5.48.87C1248.05,218.92,1246,220.89,1246.15,221.15Z" transform="translate(-3.62 -2.54)"/><path class="cls-5" d="M1310.87,213.17c.29.22-4.2,5.42-6.24,13.92a38,38,0,0,0-.72,13.78c.52,3.76,2,14.26,9.56,19.46,4.17,2.85,9.46,3.62,11.83,4l5.25.38c3.09.21,3.78.3,4.36-.28,1.13-1.17,1-4.13-.16-5.49a6.34,6.34,0,0,1-1.13-1.41c-.37-.68-.74-1.73-.53-1.87.39-.29,3.56,2.1,4.58,5.89a10.24,10.24,0,0,1-2.44,9.61c-2.15,2.15-5.21,2.51-5.35,2.19s1.4-1.39,1.95-1.81a7.2,7.2,0,0,0,1.32-1c.12-.13,1.34-1.5,1-2.42-.23-.72-1.33-.87-7.59-1.46-1.54-.14-1.41-.14-1.74-.16a57.5,57.5,0,0,1-7.49-1.09,19.86,19.86,0,0,1-10-5.94,23.13,23.13,0,0,1-5-10.07,35.28,35.28,0,0,1-1-11.76,40,40,0,0,1,2.83-14.23C1306.74,217.09,1310.6,213,1310.87,213.17Z" transform="translate(-3.62 -2.54)"/><path class="cls-4" d="M161.84,78.17s.38,303.5.08,303.34-38,0-38,0l0-303.34Z" transform="translate(-3.62 -2.54)"/><path class="cls-4" d="M350.49,44s.44,339,.08,338.85-43.38,0-43.38,0L307.14,44Z" transform="translate(-3.62 -2.54)"/><path class="cls-4" d="M701.28,115.09s.38,266.55.07,266.4-38,0-38,0l0-266.4Z" transform="translate(-3.62 -2.54)"/><path class="cls-4" d="M1599.37,84.08s.38,298.31.08,298.15-37.84,0-37.84,0l0-298.15Z" transform="translate(-3.62 -2.54)"/><path class="cls-4" d="M1686.14,154s-205.29.34-205.18.07,0-33.94,0-33.94l205.18,0Z" transform="translate(-3.62 -2.54)"/><path class="cls-4" d="M799.39,116.41s.38,267.69.08,267.54-38,0-38,0l0-267.54Z" transform="translate(-3.62 -2.54)"/><path class="cls-4" d="M1066.84,383l-37.93.2c1.41-28.45,1.71-52.94,1.6-72.43-.15-24.71-1-40.91-5.57-60.23a146.28,146.28,0,0,0-10.76-30.9,147.5,147.5,0,0,0-18.39-28c-17.61-20.45-42.54-30.88-44.53-31.69-37.78-15.4-70.59-4.85-84.48-.39a101.58,101.58,0,0,0-26.26,12.56,99.72,99.72,0,0,0-23.17,21.59,81.7,81.7,0,0,0-13.27,23.55c-4.37,12.43-4.91,24.34-5.25,31.91a57.7,57.7,0,0,0-.17,6.45c0,3.5-.68,23.58-.82,27.15-.47,12.73-.21,23.38,0,58.38.07,9.82.14,24.3.17,42.09l-35.13-.07c.28-11.24.55-29.11.15-51.17-.51-27.85-1.68-39.1-1.55-65.65.15-27.93.29-42.18,4.13-56.16A135.06,135.06,0,0,1,786.73,167s18.72-25.33,50.64-40.17a143,143,0,0,1,17.72-6.7c4.36-1.28,8.44-2.23,12.19-2.94a141.5,141.5,0,0,1,20-2.14h.2c11.9-.6,23.44-.28,25.17-.22,37.91,1.46,65.27,14.7,65.35,14.73,18.88,9.39,55.13,31.26,73.53,73,8.46,19.18,12.07,40.12,13.28,47.13.54,3.09.85,5.42,1.11,7.2,3.14,22.36,3.11,40.74,3,54.66-.29,27.48-1.15,51.85-2.08,71.41" transform="translate(-3.62 -2.54)"/><path class="cls-4" d="M1752.73,120.11S1866,367.22,1865.62,367.23s-34.24,17.64-34.24,17.64L1711.16,120.11Z" transform="translate(-3.62 -2.54)"/><polygon class="cls-4" points="1827.59 382.33 1865.26 382.33 1846.42 363.53 1827.59 382.33"/><path class="cls-4" d="M1955.44,120.11s-120.59,247.11-120.25,247.12,34.23,17.64,34.23,17.64l127.49-264.76Z" transform="translate(-3.62 -2.54)"/><path class="cls-4" d="M648.64,18.58a31.7,31.7,0,0,1,7.46-7.82,36.29,36.29,0,0,1,7.4-4.44A41,41,0,0,1,674.25,3.4a62.12,62.12,0,0,1,9.46-.86,59.2,59.2,0,0,1,10.17.73c4.66.78,14.4,2.39,22.93,10.05a40.21,40.21,0,0,1,6.94,8.24,33.79,33.79,0,0,1,4.82,10.8c2.52,11.09-2.5,23.09-2.5,23.09a40.59,40.59,0,0,1-6.75,9.85,35.24,35.24,0,0,1-7.45,5.78,28.31,28.31,0,0,1-7.06,3.13,25.83,25.83,0,0,1-8.95.94c-5.17-.44-8.89-2.42-9.84-3.37-.61-.61-1.29-1.14-1.85-1.79A4.3,4.3,0,0,0,683,69a3.79,3.79,0,0,0-1.84-.49c-13.75-.4-18.29-5-18.29-5-1.15-1.16-4.16-4.82-4.79-7.73a4.18,4.18,0,0,0-1.06-2.27,8.58,8.58,0,0,0-2.58-1.41c-.65-.31-1.27-.68-1.9-1-1.38-.74-5.58-4.68-7.44-11-3.18-10.8,2.79-20.37,3.5-21.47" transform="translate(-3.62 -2.54)"/><path class="cls-6" d="M710.07,33.15c-.33.08-.11,1.27-.6,3.5a5.41,5.41,0,0,1-.68,2c-.73,1.07-2.17,1.94-3,1.55-.36-.17-.84-.67-1-.52l0,0a3.36,3.36,0,0,0,0,2c.59,2-1.08,4.35-1.23,4.57a10.13,10.13,0,0,1-2,1.9,14.53,14.53,0,0,0-2.29,2.13,6,6,0,0,0-.55.77c-.21.35-1.05,1.8-.49,2.62,0,0,.28.41.52.35s.08-1.25.82-2.22c1.09-1.43,2.06-1.11,3.56-2.21a6.11,6.11,0,0,0,3-4.7c0-.87-.13-1.88.3-2.37s.76-.11,1.28-.06c1.82.17,2.92-2.47,3.16-3.06a6.09,6.09,0,0,0,.56-3.86C711.12,34.3,710.42,33.07,710.07,33.15Z" transform="translate(-3.62 -2.54)"/><path class="cls-7" d="M661.58,28.64c.72-.44.84-.76,1.35-1a6.17,6.17,0,0,1,1.93-.43c.66-.08,3.41-.38,3.87,2.18.13.68.08,1.52.36,1.4s.57-1.38,1.3-2.59a9.42,9.42,0,0,1,5.31-3.83,7.18,7.18,0,0,1,3.7-.17c2.28.34,2.62,1.2,4.34.45.66-.28,2.41-.85,2.72-2.2,0-.06.15-.67-.07-.8s-1.07,1.15-2.61,1.51c-2.09.49-2.52-.68-4.63-.87a7.14,7.14,0,0,0-6.42,2.12c-.82.85-1.61,2-2.37,2.12-.6.09-.66-.54-1-1.05-1.18-1.76-4.37-.06-5.08.32-2.42,1.28-4.06,3.19-3.9,3.38S661.5,28.69,661.58,28.64Z" transform="translate(-3.62 -2.54)"/><path class="cls-7" d="M691.74,49.44a4.76,4.76,0,0,1-.46-2.72c-.07-1.31-.68-3.24-2-3.88a2,2,0,0,0-.64-.21c-1.07-.19-2.08.36-5.81,1.07-.48.09-1.41.16-2.67.41a14.4,14.4,0,0,0-2.22.54c-1.89.76-2.46,2-4,2.4h0a2.2,2.2,0,0,1-1.06.12.94.94,0,0,1-.6-.9c.05-.47.63-.63,1.37-1.16a6.51,6.51,0,0,0,1.56-1.59c.12-.08.31-.2.59-.35a11.44,11.44,0,0,1,1.72-.7c3.38-1.14,6.72.29,8.75-1.6.76-.7.26-.84,1.81-3.06,1.36-1.94,2-2.15,2-3,0-2-3.42-3.35-3.17-3.87.15-.32,1.6-.14,2.72.65a4.65,4.65,0,0,1,2,4.22c-.33,2.31-2.9,3.18-2.52,4.42a.72.72,0,0,0,.16.27,4,4,0,0,0,1.53.89c1.91.75,2.15,8.63,1.34,8.51C692,49.89,691.92,49.74,691.74,49.44Z" transform="translate(-3.62 -2.54)"/><path class="cls-4" d="M1501.7,334.32c-.33.08-.11,1.27-.6,3.5a5.28,5.28,0,0,1-.68,2c-.72,1.07-2.17,1.94-3,1.55-.35-.17-.84-.66-1-.52l0,0a3.4,3.4,0,0,0,0,2c.59,1.95-1.08,4.35-1.23,4.56a9.84,9.84,0,0,1-2,1.9,14.18,14.18,0,0,0-2.29,2.14,6.34,6.34,0,0,0-.55.77c-.2.35-1,1.79-.49,2.62,0,0,.29.4.52.35.38-.1.08-1.26.83-2.23,1.09-1.43,2-1.11,3.55-2.21a6.09,6.09,0,0,0,3-4.7c0-.87-.13-1.88.3-2.37s.76-.11,1.29-.06c1.81.17,2.91-2.47,3.15-3.06a6.14,6.14,0,0,0,.57-3.86c-.29-1.26-1-2.5-1.34-2.42" transform="translate(-3.62 -2.54)"/><path class="cls-4" d="M1453.21,329.81c.72-.43.84-.75,1.36-1a5.81,5.81,0,0,1,1.92-.44c.66-.08,3.41-.38,3.88,2.18.12.68.07,1.53.36,1.4s.56-1.38,1.29-2.59a9.42,9.42,0,0,1,5.31-3.83,7.17,7.17,0,0,1,3.7-.16c2.28.33,2.63,1.2,4.34.44.66-.28,2.42-.85,2.72-2.2,0-.06.15-.66-.06-.8s-1.08,1.15-2.62,1.51c-2.09.49-2.52-.67-4.62-.87a7.15,7.15,0,0,0-6.43,2.12c-.81.85-1.61,2-2.37,2.12-.6.09-.66-.54-1-1.05-1.19-1.75-4.38,0-5.09.32-2.42,1.29-4.06,3.19-3.9,3.39s1.13-.5,1.21-.55" transform="translate(-3.62 -2.54)"/><path class="cls-4" d="M1445.43,325.59a31.61,31.61,0,0,1,7.47-7.81,35.37,35.37,0,0,1,7.4-4.44,40.89,40.89,0,0,1,10.74-2.92,61.06,61.06,0,0,1,9.46-.86,59.25,59.25,0,0,1,10.18.73c4.65.77,14.4,2.39,22.93,10a40.45,40.45,0,0,1,6.93,8.23,33.94,33.94,0,0,1,4.83,10.81c2.52,11.09-2.5,23.09-2.5,23.09a40.46,40.46,0,0,1-6.76,9.85,35.78,35.78,0,0,1-7.44,5.78,28.52,28.52,0,0,1-7.06,3.12,25.73,25.73,0,0,1-9,.95c-5.16-.44-8.89-2.43-9.83-3.37-.61-.61-1.29-1.14-1.86-1.79a4.44,4.44,0,0,0-1.12-1,3.72,3.72,0,0,0-1.84-.49c-13.75-.4-18.3-5-18.3-5-1.15-1.16-4.15-4.82-4.78-7.74a4.27,4.27,0,0,0-1.07-2.27c-.54-.55-1-.66-2.58-1.4-.64-.31-1.26-.68-1.9-1-1.38-.73-5.57-4.68-7.44-11-3.17-10.8,2.79-20.37,3.5-21.48" transform="translate(-3.62 -2.54)"/><path class="cls-7" d="M1506.86,340.17c-.33.08-.11,1.27-.59,3.49a5.26,5.26,0,0,1-.69,2c-.72,1.08-2.16,1.95-3,1.55-.35-.16-.84-.66-1-.52l0,0a3.37,3.37,0,0,0,0,2c.59,2-1.07,4.35-1.23,4.57a9.74,9.74,0,0,1-2,1.89,14.24,14.24,0,0,0-2.3,2.14,7.32,7.32,0,0,0-.55.77c-.2.35-1,1.8-.48,2.62,0,0,.28.41.51.35.38-.09.09-1.26.83-2.22,1.09-1.43,2.05-1.11,3.56-2.22a6.09,6.09,0,0,0,3-4.69c0-.88-.13-1.89.3-2.38s.76-.11,1.29-.06c1.82.18,2.91-2.46,3.15-3.05a6.1,6.1,0,0,0,.57-3.86C1507.92,341.32,1507.22,340.08,1506.86,340.17Z" transform="translate(-3.62 -2.54)"/><path class="cls-7" d="M1458.37,335.66c.72-.44.84-.76,1.36-1a6.13,6.13,0,0,1,1.92-.44c.66-.07,3.41-.38,3.88,2.18.12.69.07,1.53.36,1.4s.56-1.37,1.29-2.59a9.42,9.42,0,0,1,5.31-3.83,7.28,7.28,0,0,1,3.7-.16c2.28.33,2.63,1.2,4.35.45.65-.29,2.41-.86,2.71-2.2,0-.07.16-.67-.06-.81s-1.07,1.16-2.61,1.52c-2.1.49-2.53-.68-4.63-.87a7.13,7.13,0,0,0-6.43,2.12c-.81.84-1.6,2-2.36,2.11-.6.1-.67-.54-1-1.05-1.19-1.75-4.38-.05-5.09.33-2.41,1.28-4.06,3.19-3.9,3.38S1458.29,335.71,1458.37,335.66Z" transform="translate(-3.62 -2.54)"/><path class="cls-7" d="M1488.54,356.46a4.77,4.77,0,0,1-.47-2.72c-.07-1.31-.68-3.24-2-3.89a2,2,0,0,0-.65-.2c-1.07-.2-2.08.36-5.81,1.07-.48.09-1.4.16-2.66.41a13.51,13.51,0,0,0-2.23.53c-1.88.77-2.46,2-4,2.41a2.2,2.2,0,0,1-1.06.12,1,1,0,0,1-.6-.91c.05-.46.63-.62,1.38-1.16a6.8,6.8,0,0,0,1.56-1.58,5.27,5.27,0,0,1,.58-.35,10.47,10.47,0,0,1,1.72-.7c3.39-1.14,6.72.29,8.75-1.6.76-.71.26-.84,1.82-3.06,1.35-1.94,2-2.16,2-3,0-2-3.43-3.35-3.18-3.87.15-.32,1.6-.14,2.72.64a4.69,4.69,0,0,1,2,4.23c-.34,2.3-2.91,3.18-2.52,4.41a.75.75,0,0,0,.15.28,4,4,0,0,0,1.53.89c1.91.75,2.15,8.62,1.34,8.51C1488.8,356.91,1488.71,356.76,1488.54,356.46Z" transform="translate(-3.62 -2.54)"/></g><g class="cls-8"><g class="cls-9"><g class="cls-10"><path class="cls-11" d="M1160.09,167.9A86.69,86.69,0,0,0,1131.68,215c-1.63,7.49-3.23,15.58-.45,25.24,2.41,8.36,7.51,14.34,10.1,17.45a27.61,27.61,0,0,0,6.85,6.34,48.69,48.69,0,0,0,7.79,3.51,41.14,41.14,0,0,0,5.87,2.07,30.74,30.74,0,0,0,7.72.77,19.74,19.74,0,0,0,6.25-.66c2-.6,2.42-1.17,4.9-2.29a43.56,43.56,0,0,1,6.24-2.1c7.75-2.16,11.63-3.23,15.6-2.95a46.24,46.24,0,0,1,9.81,1.72c2.37.78,3.18,1.33,4.45.92,3.17-1,6-5.66,5.11-8.49a7.61,7.61,0,0,1-.5-2.64,3.38,3.38,0,0,1,.69-2.23c.29-.35.65-.58.72-.52s-.31.52-.39,1.25a2.78,2.78,0,0,0,0,.77c.27,1.54,1,2.66,1.24,4.32.16,1,0,1.05.16,1.25.73.83,3.36-.33,10-3.92s6.23-3.63,7.4-3.95c5.27-1.46,7.23.92,10.77-1.21a60.29,60.29,0,0,0,5.13-3.9,11.37,11.37,0,0,0,1.19-1.09c.55-.61.79-1.07,1-1s.18.58.14.89a2.33,2.33,0,0,1-.42,1c-1.3,1.77-3.29,3.58-3.12,4.41.22,1.05,4.08,1.28,7.7.91a24.63,24.63,0,0,0,10.46-3c3.52-2,7.71-5.59,8.25-8.72.12-.69.49-3.91,0-5,0-.08-.23-.5-.11-.61s.58.19.63.23a3.27,3.27,0,0,1,1.08,2.1,12.06,12.06,0,0,1-.86,6.62c-2,4.16-5.28,4.54-5,6.5,0,.06,0,.14.08.3.36,1.38,1,4,3.1,5.43a6,6,0,0,0,2.3,1c.92.18,1.67.08,1.72.29s-.14.32-1.1.76a5.16,5.16,0,0,1-5.14-1.57c-1.08-2.31-2.22-3.79-2.61-3.93s-.56-.16-.56-.16a3.71,3.71,0,0,0-.5-.09,10.1,10.1,0,0,0-4,.43c-.62.22-5.19,1.81-7.13,2.27-.64.16-4-.25-10.64-1.06a37.08,37.08,0,0,0-8.09.06,12.29,12.29,0,0,0-1.72.4c-1.64.49-2.41,1-5.57,2.75-10.82,6.07-12,6.07-14.71,8.83s-4.2,4.29-4.64,6.66a13.48,13.48,0,0,1-1.45,4.39c-.13.24-1.15,2.08-1.6,1.91-.08,0-.46-.2,0-3,.5-3,.83-5.15,0-6.54-.34-.57-.92-1-4-1.72a32,32,0,0,0-7.35-1.14,33.34,33.34,0,0,0-14.71,2.29c-3.72,1.56-10,4.23-12.6,10.78a17.45,17.45,0,0,0-1.11,7.23c.16,6.41,3.18,11,6.77,16.32,2.73,4,5.51,8.16,10.17,11.9,9.52,7.66,20.09,8.2,31.31,8.95,8.74.58,17.82,1.19,24.74-2.75a26,26,0,0,1,7.91-3.22,29.38,29.38,0,0,1,9.59-.23c9.92.88,13.94,3.66,19.09,1.3.9-.41,2.32-1.23,2.42-1.07s-2,2.17-4.5,3.37c-.87.41-3.6,1.6-9.21,1.22-6.65-.45-8.52-2.5-9.81-1.37-2.17,1.89,0,10.45,5.13,16.29,7.34,8.35,18.75,8.72,25.29,8.94a53.66,53.66,0,0,0,25.76-5.86c5.79-2.82,9.76-6,15.36-10.43a93.87,93.87,0,0,0,13.32-12.63q1.73-2,3.06-3.77c11.09-12.07,12.67-15.66,15.83-22.83.63-1.44,1.7-4.17.56-6.19a4.93,4.93,0,0,0-2-1.84,5.84,5.84,0,0,0-3.9-.46,5.16,5.16,0,0,0-2.66,1.36c-.93.94-1.07,1.94-1.29,1.88s-.58-1.92.27-3.35c1.06-1.79,3.51-2.3,4.91-2.64,2.12-.52,2.55-.25,3.56-.58,2.75-.87,5.91-7.34,5.91-7.34,2.74-6.31,4.11-9.47,4.74-13.1,0,0,2.27-13.24-4.41-25.44-.74-1.36-1.83-3-3.64-3.48-.54-.14-1.94-.39-5.16,1.53-2.89,1.71-7.73,4.64-8.94,9.91-.49,2.13.2,2.08-.36,6.61a15,15,0,0,1-2.76,6.75c-.2.25-.48.55-.65.47-.4-.17.52-2.31.78-4.78.53-5-.56-6.31.54-9.54a39.32,39.32,0,0,1,1.81-3.69c1.91-3.71,2.83-4.88,2.45-5.35s-1.88.48-4.68,1.45c-3.06,1.06-5.56,1.34-9.74,1.8-3.95.44-5.92.65-6.42.65-1.49,0-2.91-.14-4.31.77a6.83,6.83,0,0,0-1.85,2.09c-2.52,3.58-2.45,4.46-3.93,5.76-.48.43-2.23,1.93-4.06,1.52a2.92,2.92,0,0,1-1.51-.78,5.5,5.5,0,0,0,1.59.29,3.69,3.69,0,0,0,2.4-1.32,6.27,6.27,0,0,0,.89-1.67,13.52,13.52,0,0,0,1.17-4.41,4.06,4.06,0,0,0-.2-2.4c-.39-.74-1-1.06-2.08-1.53a10.24,10.24,0,0,0-3.86-.92,7.19,7.19,0,0,0-3,.46,10.46,10.46,0,0,0-3.07,2.2c-.15-.13.86-2.48,3.07-3.6a9.5,9.5,0,0,1,4-.74,12.12,12.12,0,0,1,3.06.05c1.79.33,2.46,1.11,3.73,1.67,1.69.73,2.91.45,5.84.19,6.37-.56,5.9.32,10.66-.36A31.58,31.58,0,0,0,1353,230a24.53,24.53,0,0,0,5.18-2.7,29.2,29.2,0,0,0,3.35-2.81c3.18-3,4.78-4.45,5.4-5.62,1.93-3.62,1-7.69.5-9.87-.41-1.82-1.05-3.4-3.45-7.57a97,97,0,0,0-6.63-10.49,100.25,100.25,0,0,0-18.89-19.33,97.19,97.19,0,0,0-15.88-9.87s-3.41-2.09-14.88-7a12.61,12.61,0,0,0-6.18-1.14c-.93.08-5,.2-5.74,2.23-.27.7-.18,1.65-.83,2a.86.86,0,0,1-1,0c-.5-.48.5-1.73.5-3.27a7.5,7.5,0,0,0-1.45-3.67c-3.8-5.33-21.62-7.4-21.62-7.4a135.23,135.23,0,0,0-19.36-2.11c-1.33,0-.14,0-10.64,0a81.58,81.58,0,0,0-10.92.56c-.83.1-1.25.14-1.65.23-2,.48-7.7,1.82-9.14,5.8-.92,2.56.8,3.4.52,10a18,18,0,0,1-.88,5.23,10,10,0,0,1-3,4.89,7.33,7.33,0,0,1-3,1.48c-.85.19-1.84.23-1.89,0s1-.5,2.2-1.52a8.35,8.35,0,0,0,1.56-1.83,12.55,12.55,0,0,0,1.66-3.91,14.75,14.75,0,0,0-.08-6.81c-.56-2.66-1.38-6.48-4.23-8.26-1.86-1.15-3.88-1-6.91-.46a90.26,90.26,0,0,0-21.62,6.89c-3.51,1.58-5.88,2.64-9.14,4.43a113.51,113.51,0,0,0-14.82,9.91" transform="translate(-3.62 -2.54)"/></g></g><path class="cls-7" d="M1160.09,167.9A86.69,86.69,0,0,0,1131.68,215c-1.63,7.49-3.23,15.58-.45,25.24,2.41,8.36,7.51,14.34,10.1,17.45a27.61,27.61,0,0,0,6.85,6.34,48.69,48.69,0,0,0,7.79,3.51,41.14,41.14,0,0,0,5.87,2.07,30.74,30.74,0,0,0,7.72.77,19.74,19.74,0,0,0,6.25-.66c2-.6,2.42-1.17,4.9-2.29a43.56,43.56,0,0,1,6.24-2.1c7.75-2.16,11.63-3.23,15.6-2.95a46.24,46.24,0,0,1,9.81,1.72c2.37.78,3.18,1.33,4.45.92,3.17-1,6-5.66,5.11-8.49a7.61,7.61,0,0,1-.5-2.64,3.38,3.38,0,0,1,.69-2.23c.29-.35.65-.58.72-.52s-.31.52-.39,1.25a2.78,2.78,0,0,0,0,.77c.27,1.54,1,2.66,1.24,4.32.16,1,0,1.05.16,1.25.73.83,3.36-.33,10-3.92s6.23-3.63,7.4-3.95c5.27-1.46,7.23.92,10.77-1.21a60.29,60.29,0,0,0,5.13-3.9,11.37,11.37,0,0,0,1.19-1.09c.55-.61.79-1.07,1-1s.18.58.14.89a2.33,2.33,0,0,1-.42,1c-1.3,1.77-3.29,3.58-3.12,4.41.22,1.05,4.08,1.28,7.7.91a24.63,24.63,0,0,0,10.46-3c3.52-2,7.71-5.59,8.25-8.72.12-.69.49-3.91,0-5,0-.08-.23-.5-.11-.61s.58.19.63.23a3.27,3.27,0,0,1,1.08,2.1,12.06,12.06,0,0,1-.86,6.62c-2,4.16-5.28,4.54-5,6.5,0,.06,0,.14.08.3.36,1.38,1,4,3.1,5.43a6,6,0,0,0,2.3,1c.92.18,1.67.08,1.72.29s-.14.32-1.1.76a5.16,5.16,0,0,1-5.14-1.57c-1.08-2.31-2.22-3.79-2.61-3.93s-.56-.16-.56-.16a3.71,3.71,0,0,0-.5-.09,10.1,10.1,0,0,0-4,.43c-.62.22-5.19,1.81-7.13,2.27-.64.16-4-.25-10.64-1.06a37.08,37.08,0,0,0-8.09.06,12.29,12.29,0,0,0-1.72.4c-1.64.49-2.41,1-5.57,2.75-10.82,6.07-12,6.07-14.71,8.83s-4.2,4.29-4.64,6.66a13.48,13.48,0,0,1-1.45,4.39c-.13.24-1.15,2.08-1.6,1.91-.08,0-.46-.2,0-3,.5-3,.83-5.15,0-6.54-.34-.57-.92-1-4-1.72a32,32,0,0,0-7.35-1.14,33.34,33.34,0,0,0-14.71,2.29c-3.72,1.56-10,4.23-12.6,10.78a17.45,17.45,0,0,0-1.11,7.23c.16,6.41,3.18,11,6.77,16.32,2.73,4,5.51,8.16,10.17,11.9,9.52,7.66,20.09,8.2,31.31,8.95,8.74.58,17.82,1.19,24.74-2.75a26,26,0,0,1,7.91-3.22,29.38,29.38,0,0,1,9.59-.23c9.92.88,13.94,3.66,19.09,1.3.9-.41,2.32-1.23,2.42-1.07s-2,2.17-4.5,3.37c-.87.41-3.6,1.6-9.21,1.22-6.65-.45-8.52-2.5-9.81-1.37-2.17,1.89,0,10.45,5.13,16.29,7.34,8.35,18.75,8.72,25.29,8.94a53.66,53.66,0,0,0,25.76-5.86c5.79-2.82,9.76-6,15.36-10.43a93.87,93.87,0,0,0,13.32-12.63q1.73-2,3.06-3.77c11.09-12.07,12.67-15.66,15.83-22.83.63-1.44,1.7-4.17.56-6.19a4.93,4.93,0,0,0-2-1.84,5.84,5.84,0,0,0-3.9-.46,5.16,5.16,0,0,0-2.66,1.36c-.93.94-1.07,1.94-1.29,1.88s-.58-1.92.27-3.35c1.06-1.79,3.51-2.3,4.91-2.64,2.12-.52,2.55-.25,3.56-.58,2.75-.87,5.91-7.34,5.91-7.34,2.74-6.31,4.11-9.47,4.74-13.1,0,0,2.27-13.24-4.41-25.44-.74-1.36-1.83-3-3.64-3.48-.54-.14-1.94-.39-5.16,1.53-2.89,1.71-7.73,4.64-8.94,9.91-.49,2.13.2,2.08-.36,6.61a15,15,0,0,1-2.76,6.75c-.2.25-.48.55-.65.47-.4-.17.52-2.31.78-4.78.53-5-.56-6.31.54-9.54a39.32,39.32,0,0,1,1.81-3.69c1.91-3.71,2.83-4.88,2.45-5.35s-1.88.48-4.68,1.45c-3.06,1.06-5.56,1.34-9.74,1.8-3.95.44-5.92.65-6.42.65-1.49,0-2.91-.14-4.31.77a6.83,6.83,0,0,0-1.85,2.09c-2.52,3.58-2.45,4.46-3.93,5.76-.48.43-2.23,1.93-4.06,1.52a2.92,2.92,0,0,1-1.51-.78,5.5,5.5,0,0,0,1.59.29,3.69,3.69,0,0,0,2.4-1.32,6.27,6.27,0,0,0,.89-1.67,13.52,13.52,0,0,0,1.17-4.41,4.06,4.06,0,0,0-.2-2.4c-.39-.74-1-1.06-2.08-1.53a10.24,10.24,0,0,0-3.86-.92,7.19,7.19,0,0,0-3,.46,10.46,10.46,0,0,0-3.07,2.2c-.15-.13.86-2.48,3.07-3.6a9.5,9.5,0,0,1,4-.74,12.12,12.12,0,0,1,3.06.05c1.79.33,2.46,1.11,3.73,1.67,1.69.73,2.91.45,5.84.19,6.37-.56,5.9.32,10.66-.36A31.58,31.58,0,0,0,1353,230a24.53,24.53,0,0,0,5.18-2.7,29.2,29.2,0,0,0,3.35-2.81c3.18-3,4.78-4.45,5.4-5.62,1.93-3.62,1-7.69.5-9.87-.41-1.82-1.05-3.4-3.45-7.57a97,97,0,0,0-6.63-10.49,100.25,100.25,0,0,0-18.89-19.33,97.19,97.19,0,0,0-15.88-9.87s-3.41-2.09-14.88-7a12.61,12.61,0,0,0-6.18-1.14c-.93.08-5,.2-5.74,2.23-.27.7-.18,1.65-.83,2a.86.86,0,0,1-1,0c-.5-.48.5-1.73.5-3.27a7.5,7.5,0,0,0-1.45-3.67c-3.8-5.33-21.62-7.4-21.62-7.4a135.23,135.23,0,0,0-19.36-2.11c-1.33,0-.14,0-10.64,0a81.58,81.58,0,0,0-10.92.56c-.83.1-1.25.14-1.65.23-2,.48-7.7,1.82-9.14,5.8-.92,2.56.8,3.4.52,10a18,18,0,0,1-.88,5.23,10,10,0,0,1-3,4.89,7.33,7.33,0,0,1-3,1.48c-.85.19-1.84.23-1.89,0s1-.5,2.2-1.52a8.35,8.35,0,0,0,1.56-1.83,12.55,12.55,0,0,0,1.66-3.91,14.75,14.75,0,0,0-.08-6.81c-.56-2.66-1.38-6.48-4.23-8.26-1.86-1.15-3.88-1-6.91-.46a90.26,90.26,0,0,0-21.62,6.89c-3.51,1.58-5.88,2.64-9.14,4.43A113.51,113.51,0,0,0,1160.09,167.9Z" transform="translate(-3.62 -2.54)"/><path class="cls-4" d="M1182.64,180.48c0,.35-3.14-.13-7.28,1.07-2.25.65-6.43,1.91-8.32,5.5a11.39,11.39,0,0,0-1,4.74c-.24,2.8-.44,5,.74,6.5,1.72,2.14,4.22,0,8.32,1.92,2.8,1.34,2.63,2.83,7.13,5.5,2.62,1.56,3.71,1.66,4.16,1.69,3.29.16,6.06-2.35,6.17-2.45.81-.75,1.27-1.47,1.41-1.38s-.37,2.14-1.63,3.52c-2.71,3-6.84,2.64-7.28,2.6-2-.19-3.67-1.2-7-3.21s-3.07-2.4-4.75-3.06a12.32,12.32,0,0,0-8.92.15c-1.17.51-3.88,1.67-4.6,4.13-.36,1.24.07,1.83.3,4,.12,1.22.5,4.75-.6,7.19-1.93,4.29-8.57,5.15-8.62,5a16.83,16.83,0,0,0,3.5-2.07,8.79,8.79,0,0,0,2.45-2.52,7.87,7.87,0,0,0,.81-4.44c-.16-5.27-2.08-6-1.41-8.11,1-3.1,5.2-2.43,6.69-6.27.28-.73.23-1,.29-4.59.1-5.25.15-7.88.3-8.41,1.45-5,8-7.73,12.63-8.11,3.48-.28,6.56.72,6.54,1.08" transform="translate(-3.62 -2.54)"/><path class="cls-4" d="M1147.06,232.83c.3-.05.31,2.79,2.18,5,.27.33,2.17,2.59,4.61,2.47,1.89-.1,2.22-1.18,6.74-4.73.49-.39,1.48-1,2.75-2a15.8,15.8,0,0,0,2.2-1.91c1.71-2,1.71-3.84,3.21-5.14a7.28,7.28,0,0,1,1.12-.75c3.05-1.65,4.18-.2,12.52-.53,4.16-.17,7.48-.33,11.55-1.69,3.6-1.2,7.61-2.61,10.29-6.75a13.74,13.74,0,0,0,2.33-7.17c.12-4.9-2.66-8.53-3.88-10.12-3.4-4.43-5.86-3.88-7.57-7.91a13.73,13.73,0,0,1-.88-7,15.7,15.7,0,0,1,3-7.06c4.67-6.51,12-9,12.23-8.54.09.15-1.15.78-3.49,2.84-3.89,3.44-8.46,7.48-8.54,12.76a10.8,10.8,0,0,0,1.36,5.24c1.46,2.68,3.5,3.52,5,4.71,4,3.08,5.79,9.29,5.73,13.57-.12,8.75-8,15.11-13.56,17.5a25.22,25.22,0,0,1-7.6,1.79c-8.89,1.07-12.84-1.94-17.18,1.06-1.38,1-1.34,1.62-2.11,2.94a12.29,12.29,0,0,1-2,2.58c-3.19,3.29-7.61,3.5-8.92,6.91-.49,1.27.14,1.15-.47,4.68-.53,3.09-1.11,3.7-.71,4.71,1,2.39,5.49,2,5.48,2.79,0,.47-1.71,1.08-3.35.79a5.68,5.68,0,0,1-4.32-3.9c-.79-2.94,1.63-5.46.57-6.7-.48-.58-1.07-.14-2.46-.43-2.76-.57-4.87-3.29-5.69-5.76-.7-2.14-.42-4.24-.16-4.29" transform="translate(-3.62 -2.54)"/><path class="cls-4" d="M1203.55,293.05a2.38,2.38,0,0,1-1.14-2.36c.07-.51.32-.89.51-2.07.09-.62,0-.66,0-.67-.2-.09-1.19,1.31-1.73,2.87-1,2.8-.15,3.79-1.19,4.91-.88,1-2,.81-2.67,2.13A4.25,4.25,0,0,0,1197,299c-.5,2.67.37,6.39.77,6.34s-.68-2.95.83-5.89c1.19-2.34,3.43-3.63,5.4-4.76a12.37,12.37,0,0,1,3.68-1.67c3.9-.88,5.33,1.51,9.38.7a8.72,8.72,0,0,0,3.94-1.84,6.7,6.7,0,0,0,2.4-4.15c0-.58,0-1.51-.23-1.58s-.53.54-.84,1.05a13.09,13.09,0,0,1-2.95,3.13,10,10,0,0,1-3.57,1.66c-4.34,1-6.58-2.35-9.43-.87-1.45.76-2,2.2-2.86,1.91" transform="translate(-3.62 -2.54)"/><path class="cls-4" d="M1237.24,275.73c.93-3.51,2.45-5.44,2.26-5.62s-2.19,1.69-3.51,4.66c-.51,1.15-2.36,5.36-1.19,9.45,1.09,3.84,3.79,3.83,4.61,8a15,15,0,0,1,0,4.59c-.39,4.22-1.43,4.61-1.79,8-.07.66-.64,6.59,2.07,9.29.9.9,2,1.26,2.17,1s-1.69-1.28-2.38-3.68a17.33,17.33,0,0,1-.26-5,10.54,10.54,0,0,1,.08-1.66c.39-1.93,1.82-2.83,2.37-6.25.77-4.75-1.25-7.26.19-9.06.62-.78,2-.94,4.61-1.26a31.64,31.64,0,0,1,4-.24c5.29,0,8,.08,10.8.85,2.39.65,3.79,1.41,4.77,2.9.2.31,1.3,2,.86,3.29-.36,1.07-1.55,1.24-1.49,1.61s1.35.69,2.13,0c1-.92.85-3.32.44-4.74a7.66,7.66,0,0,0-3.51-4.36c-.4-.27-1.69-1.08-5.34-1.53a46.45,46.45,0,0,0-6.77-.16c-4,.07-6,.11-6.78.16-2.74.15-3.42.31-4.64-.16a6.55,6.55,0,0,1-4-3.82c-.74-2.08-.2-4.14.37-6.31" transform="translate(-3.62 -2.54)"/><path class="cls-4" d="M1215.63,191.87c.41-.15-1.41-3.38-.15-6.27.93-2.13,3.08-3,5.27-3.9,1.34-.55,6.94-2.83,11.29-.31,1.16.68,2.16,1.64,2.6,1.3s-.55-1.92-.55-3.78c0-4,5.13-7.13,6.57-8a24.31,24.31,0,0,1,7.86-2.8c5.39-1.23,7.28-.51,10-2.56,1.74-1.29,1.25-3.67,3-4.36a5.36,5.36,0,0,1,3,.12,5,5,0,0,0-4.18-1c-1.87.48-2,2.63-3.71,3.52-3.93,2-6.38,1-11.22,2.29-3.35.88-9.25,2.43-11.23,6.89-.68,1.51-.9,3.35-2.4,4-1.19.52-2.15-.14-3.57-.46-4.87-1.1-9.6,3-10.66,3.94-1.65,1.44-4,3.5-4.08,6.5-.07,2.7,1.72,4.95,2.08,4.82" transform="translate(-3.62 -2.54)"/><path class="cls-4" d="M1293.19,159.06a1.09,1.09,0,0,1,.46.78c.22,1.45-2.27,1.91-3.66,4.58-.8,1.53-1.13,3.58-.37,4.89a2.85,2.85,0,0,0,.18.28c.36.43,1,.78,3.16,1.55a33,33,0,0,0,6.21,1.92c2.92.44,4.76.06,4.79.3s-2.36,1.29-5.2,1.23-3.7-1.09-8-1.61c-1.34-.16-2.33-.19-3.49-.23a48.52,48.52,0,0,0-7.36.31,30.46,30.46,0,0,0-13.67,5.35c-4,3.12-8.66,8.75-8.8,13.35,0,.81,0,5.26-.19,7.3a13.55,13.55,0,0,0-.07,1.91c0,1.12.24,1.42.07,1.76-.31.63-1.79.55-3.41.46-2.7-.15-4.05-.23-5-.2a17.62,17.62,0,0,0-5,1.12c-4.26,1.33-8.48,2.7-12.48,6.65l-.67.69a32.75,32.75,0,0,0-7.19,11.73,32.35,32.35,0,0,0-1.56,8.49,29,29,0,0,0,0,6.65,33.92,33.92,0,0,1,.74,8.19c-.08,1.25-.21,1.7-.39,1.73-.51.08-1.39-3.26-1.92-5.28-1.18-4.47-1.76-6.71-1.92-8.92-.38-5.19,1.39-9.23,3.07-13.07,1.78-4.06,5.31-12.06,13.41-16.79a32.14,32.14,0,0,1,10.17-3.67,17.23,17.23,0,0,1,5.07-.5c1.68.22,2.85.79,3.7.12a2.9,2.9,0,0,0,.79-2.29c.25-4.49-.21-6.37.25-8.72a12.67,12.67,0,0,1,1.38-3.56,23.73,23.73,0,0,1,7.46-8.6,36.52,36.52,0,0,1,15.05-5.62,9.42,9.42,0,0,0,3.87-1c.19-.13.45-.3.77-.56,2-1.65,4.34-5.72,5-6.79" transform="translate(-3.62 -2.54)"/><path class="cls-4" d="M1245.19,218c.11.17,1.15-.29,1.28-.35a9.34,9.34,0,0,0,2.29-1.64c2.47-1.79,7.67,2,8.1,2.3a5,5,0,0,1,2,2.44,4.42,4.42,0,0,1,.15,2.14c-.19,1.31-.84,6.26,0,10a15.39,15.39,0,0,0,2,4.66,13,13,0,0,0,3.57,4.21c1.41,1,3.26,1.65,3.49,1.3s-1.71-1.69-3.26-3.8a16.66,16.66,0,0,1-2.84-8.82c-.1-1.22-.51-6.12,3.12-13.92,2.47-5.3,6.43-13.81,15.75-19.2,5.93-3.43,11.28-4,17.32-4.66a45.5,45.5,0,0,1,17.6,1,29.87,29.87,0,0,1,11.52,5.2,23.83,23.83,0,0,1,8.84,12.24c1.59,5.51,1.29,12.74-1.47,14.71-.33.23-1.31.83-1.21,1.12s1.61.28,2.83-.31c3.41-1.67,3.29-8.74,3.27-9.79-.14-7.45-4.21-12.86-5.8-14.91a29.74,29.74,0,0,0-11.22-8.79,34.2,34.2,0,0,0-9.43-2.83,53.64,53.64,0,0,0-16.72-.23c-6.65.9-13.69,1.86-20.72,7.11a41.61,41.61,0,0,0-9.12,10c-2,3.1-2.94,4.66-3.37,6.7-.28,1.36-.25,2.24-.89,2.6-1.32.74-2.91-2.35-6.54-2.91a10.72,10.72,0,0,0-5.79.92c-2.75,1.16-4.92,3.24-4.76,3.52" transform="translate(-3.62 -2.54)"/><path class="cls-4" d="M1313.6,209.52c.32.23-4.43,5.73-6.59,14.71a40,40,0,0,0-.76,14.57c.55,4,2.07,15.07,10.11,20.57,4.4,3,10,3.83,12.51,4.19.09,0,1.91.14,5.55.4,3.26.22,4,.32,4.6-.3,1.2-1.22,1.08-4.36-.16-5.79a6.58,6.58,0,0,1-1.2-1.49c-.39-.73-.78-1.83-.56-2,.41-.3,3.77,2.23,4.84,6.24a10.83,10.83,0,0,1-2.57,10.15c-2.28,2.28-5.52,2.66-5.67,2.32s1.48-1.47,2.07-1.91a9.48,9.48,0,0,0,1.4-1.07c.13-.14,1.41-1.59,1.09-2.55-.26-.77-1.42-.93-8-1.55l-1.85-.18a58,58,0,0,1-7.91-1.15,21,21,0,0,1-10.6-6.28,24.42,24.42,0,0,1-5.33-10.64,37.62,37.62,0,0,1-1-12.43,42.42,42.42,0,0,1,3-15c2.75-6.65,6.83-11,7.11-10.78" transform="translate(-3.62 -2.54)"/><polygon class="cls-4" points="1258.08 271.62 1314.93 330.53 1328.46 314.83 1336.21 331.47 1371.39 399.6 1391.05 372.66 1437 442.6 1438.74 440.39 1403.94 330.25 1376.12 366 1347.45 268.86 1324.58 295.54 1298.66 249.85 1258.08 271.62"/></g><g class="cls-2"><path class="cls-4" d="M1126.5,142c1.23-.23,2.53,1.65,2.83,2.09,2.79,4,10.74,11.5,14.7,15.26,6.52,6.2,12.34,8.65,11.61,11.16-.15.52-.46.58-2,2.11a24.19,24.19,0,0,1-4.24,4.78c-2.82,2.66-8.61,11.08-12.89,20.6a88.36,88.36,0,0,0-6.64,22.09,47,47,0,0,0-.88,11.53,44.47,44.47,0,0,0,6.16,19.28,47.3,47.3,0,0,0,6.81,8.74c2.41,2.45,4.48,4.55,7.84,6.26,2.11,1.07,3.66,1.07,6.4,2.55a17,17,0,0,0,3.28,1.43,20.29,20.29,0,0,0,2.67.6,42,42,0,0,0,4.78.69,32.24,32.24,0,0,0,5.92-.08,16,16,0,0,0,4.16-.85c1.2-.45,1.1-.61,3-1.51a35.79,35.79,0,0,1,5.5-2.12c.91-.26.89-.22,2.51-.63,4.42-1.13,5.26-1.66,8.48-2.31a22.65,22.65,0,0,1,3.87-.49,21.85,21.85,0,0,1,2.91.11,48.21,48.21,0,0,1,5.55.79,19.65,19.65,0,0,1,3.49.83,21.84,21.84,0,0,0,2.35.85,4.41,4.41,0,0,0,1.44.25,4.21,4.21,0,0,0,1.52-.33,8.09,8.09,0,0,0,3-2.34,10.88,10.88,0,0,0,2.21-4.44c0-.29.07-.58.07-.58s0-.34,0-.66a6.49,6.49,0,0,0-.46-2.09s.06.23.19.69a14.86,14.86,0,0,1,.51,1.84c.05.56-.06.7.1,1a1.39,1.39,0,0,0,.7.61c1,.47,2.57-.37,2.8-.5,1.56-.86-22.06,12.26,6.32-3,3.36-1.81,5-2.72,5.34-2.9a12.7,12.7,0,0,1,1.87-1.05,9.52,9.52,0,0,1,2.93-.94,17.51,17.51,0,0,1,2.56,0c.14,0,.82,0,1.76.06h0c.5,0,1.89,0,2.39,0a6.26,6.26,0,0,0,3.05-1.32c.68-.46.71-.61,1.7-1.26a13.22,13.22,0,0,0,1.31-.92c.45-.37.82-.74.83-.73a5.09,5.09,0,0,0-.88,1,4.39,4.39,0,0,0-.56,1.35,1.38,1.38,0,0,0-.08.61,1.55,1.55,0,0,0,.34.82,3.38,3.38,0,0,0,2.38.82,18,18,0,0,0,2.48.14,39.76,39.76,0,0,0,7.52-.74,23.12,23.12,0,0,0,2.62-.72A24.58,24.58,0,0,0,1277,247a20,20,0,0,0,4.54-4.06,11.8,11.8,0,0,0,.67-1.1,9.21,9.21,0,0,0,.93-2.53,6.55,6.55,0,0,0,.1-2.3,9.42,9.42,0,0,1-1,5.71,11.12,11.12,0,0,1-2.18,2.58,11.37,11.37,0,0,0-2,1.79,3.22,3.22,0,0,0-.85,1.51c0,.24-.07.55.32,1.86a10,10,0,0,0,1.39,3.3,9,9,0,0,0,.71.85,7.2,7.2,0,0,0,.86.73c.29.22.53.36.62.42.53.3.86.39.85.42s-.52-.16-1.55-.52a1.65,1.65,0,0,1-.72-.42,1.4,1.4,0,0,1-.32-.57,13.84,13.84,0,0,0-.75-1.49,5.46,5.46,0,0,0-2-2.44,4.5,4.5,0,0,0-2.64-.36,13.92,13.92,0,0,0-3.07.63c-1.72.5-2.27.76-4.53,1.46a16.48,16.48,0,0,1-2.35.63,12.59,12.59,0,0,1-3.63-.27c-1.23-.18-2.47-.26-3.71-.39-2.78-.29-4.16-.44-6-.55a16.62,16.62,0,0,0-7.28.66c-2.07.65-2.81,1.26-7.5,3.9-2,1.12-3.38,1.87-3.89,2.14l-1.66.88c-2.49,1.32-2.9,1.52-3.76,2a19.54,19.54,0,0,0-3.87,2.85,15.41,15.41,0,0,0-4,5c-.23.56-.43,1.21-.43,1.21a19.16,19.16,0,0,0-.48,2,7.77,7.77,0,0,1-1.52,3.52c-.08,0,.2-.74.45-2.25a13.76,13.76,0,0,0,.27-2.86,6.09,6.09,0,0,0-.53-2.8,4,4,0,0,0-.8-1.16c-.58-.54-1.18-.69-3.47-1.15l-1.66-.33-4.64-.82a29.8,29.8,0,0,0-7.84.11,38.24,38.24,0,0,0-10.25,2.74,25.62,25.62,0,0,0-5.71,3.22,17.81,17.81,0,0,0-2.8,2.61,18.35,18.35,0,0,0-2.32,3.57,19.18,19.18,0,0,0-1.44,3.79,18.12,18.12,0,0,0-.05,7.85,25.79,25.79,0,0,0,3,8.35c.93,1.63.89,1.14,3.05,4.51,1.82,2.84,2.19,3.73,3.57,5.6a36,36,0,0,0,3.2,3.73,42.66,42.66,0,0,0,7.31,6.1,40.22,40.22,0,0,0,17.93,6c.5.05,0,0,3.9.27,7.75.57,8.89.75,12.38.88a64.05,64.05,0,0,0,7.2,0c3.35-.21,5.12-.32,7.42-1.1,1.89-.64,1.83-.95,6.35-3a41,41,0,0,1,4.43-1.82,25.46,25.46,0,0,1,6.72-1,39.22,39.22,0,0,1,6.72.66c3.52.5,5.28.76,7.58,1.26a18.51,18.51,0,0,0,4.54.6c1.62,0,2.75-.26,2.77-.16a15,15,0,0,1-4.8,1.15,24.07,24.07,0,0,1-7.58-.38c-2.68-.6-2.88-.66-2.88-.66-1.42-.42-2-.73-2.93-.61a2.83,2.83,0,0,0-2,1,3.34,3.34,0,0,0-.43,1.7,13.25,13.25,0,0,0,0,2.64,21,21,0,0,0,2.08,6.43,26.41,26.41,0,0,0,3.31,5.44,24.85,24.85,0,0,0,6.67,5.66,26.9,26.9,0,0,0,6.35,2.63,42.28,42.28,0,0,0,10.89,1.54,54,54,0,0,0,12-.38,52,52,0,0,0,9.34-2.42,61.92,61.92,0,0,0,11.52-5.33s3.47-2.08,10.25-7.25c1.74-1.33,1.57-1.48,2.32-1.8.26-.12.68-.27.77-.62s-.25-.77-.58-1.21a19.52,19.52,0,0,1-1.23-2.19c-.82-1.41-.59-1.47-1.6-3.52-1.11-2.25-1.25-1.89-1.82-3.35-.37-1-.64-1.94-1-1.92-.19,0-.25.27-.75.82a7.49,7.49,0,0,1-.74.72,37.43,37.43,0,0,0-3.26,3.95c-1.29,1.74-1,1-3.57,4.07-1.05,1.25-2.71,3.32-3.74,4.31a5.5,5.5,0,0,0-.62.64c-.64.79-.75,1.4-1,1.39s-.19-.18-.54-.6a5.47,5.47,0,0,0-.69-.69c-.89-.82-5.36-5.75-8.86-9.31-1.46-1.5-1.13-1.09-3.07-3.05-2.54-2.57-4.27-4.44-5.47-5.71-1-1.06-.95-1-7.81-8.11q-4.93-5.08-9.85-10.19c-12.19-12.61-13.37-13.83-14.3-14.85a19.24,19.24,0,0,0-2.48-2.61c-.34-.26-1.64-1.23-1.84-1.79a.92.92,0,0,0-.4-.54c-.11-.05-.18-.05-.19-.09s.88-.55,1.07-.63c.92-.41,1.77-1,2.67-1.46,5-2.58,10-5.34,15-8,12.68-6.73,19-10.1,19.25-10.34,0,0,.7-.74,1-.56s.09.37.39.82c.17.27.27.28.49.6a4.44,4.44,0,0,1,.31.59c.23.57,1.06,2,1.88,3.42,1.31,2.28,2.59,4.58,3.92,6.84,2.36,4,4.81,8.4,8.27,14.61,0,0,6.82,12.23,9.25,16.37l.58,1c.64,1.1.55.93.66,1.12.31.54.3.56.34.58.65.34,2.94-3.09,4.25-4.89.14-.2,2-2.36,5.71-6.68s4.75-5.44,7.17-8.32,3.51-4.16,3.76-4.5c.38-.51.83-1,1.21-1.46s.45-.66.61-.63.27.87.32,1.37a10.47,10.47,0,0,0,1.28,3.6,40.14,40.14,0,0,1,1.68,5.55c.56,2,1.59,5.18,3.66,11.54,2.73,8.4,2.74,8,2.76,8.35,0,.16,0,.82.3.9s1-1.06,2-2.72c1.42-2.32,1.25-1.74,2.35-3.59.63-1.07,1.36-2.57,2.83-5.58.22-.45.7-1.45,1.23-2.8a11.5,11.5,0,0,0,.77-2.5,6.11,6.11,0,0,0-.16-3,5.72,5.72,0,0,0-3.18-3.13,7.72,7.72,0,0,0-4.57-.16,4.34,4.34,0,0,0-1.43.6,10.71,10.71,0,0,0-1.09,1,2.51,2.51,0,0,1,.72-1.21,5.24,5.24,0,0,1,2.13-1.24,15.73,15.73,0,0,1,1.92-.57,8.54,8.54,0,0,1,1.42-.28c.32,0,.5,0,1,0a7.21,7.21,0,0,0,.88-.11,4.31,4.31,0,0,0,1.09-.41,7,7,0,0,0,1.84-1.46,15.73,15.73,0,0,0,2-2.69,22.16,22.16,0,0,0,1.68-3.43,49.68,49.68,0,0,0,2.35-8.49,82.18,82.18,0,0,0,.64-19.67,42.37,42.37,0,0,0-1.71-8.78,10.07,10.07,0,0,0-2.95-5,4.82,4.82,0,0,0-1.32-.9c-2.09-.92-4.34.28-7,1.73a18.9,18.9,0,0,0-5.16,3.79,13,13,0,0,0-2.82,3.95,13.3,13.3,0,0,0-1.07,4.62c0,1.69.3,2,.09,3.71a17.8,17.8,0,0,1-.75,3.13,8.81,8.81,0,0,1-.91,2.25c-.08,0,.19-.88.35-2.28a19.29,19.29,0,0,0,.1-2.61c0-1.33-.08-1.67-.09-3.52a9,9,0,0,1,.12-1.81,9.17,9.17,0,0,1,.53-1.7,15.49,15.49,0,0,1,1.07-2.09c2.36-4.09,1.86-4,2.56-4.89a2.37,2.37,0,0,0,.51-1.21,1.5,1.5,0,0,0-.13-.88,1.45,1.45,0,0,0-1-.65c-.51-.08-.78.17-1.76.6-.44.2-.91.34-1.36.52,0,0-1.64.65-3.44,1.21a34.69,34.69,0,0,1-4.75.8c-.91.12-.87.11-6.27.71a22,22,0,0,1-2.75.22,14,14,0,0,0-1.95,0,7.18,7.18,0,0,0-2.13.52,5.23,5.23,0,0,0-1.15.66,7.26,7.26,0,0,0-1.44,1.7l-1.2,1.7c-.94,1.47-1.07,2-2,3.27-.32.44-.81,1.07-.88,1a7.82,7.82,0,0,1,.59-1.29,12.87,12.87,0,0,0,.85-2.58c.07-.33,0-.09.24-1.93a6.22,6.22,0,0,0,.13-1.45,3.52,3.52,0,0,0-.64-1.81,5.3,5.3,0,0,0-2.34-1.49,13.11,13.11,0,0,0-1.23-.49,11.14,11.14,0,0,0-3.79-.47s.93-.05,2.13-.11,1.13-.06,1.47-.05a7.28,7.28,0,0,1,2.08.27,14.52,14.52,0,0,1,2,1,11.72,11.72,0,0,0,1.76.79,7.78,7.78,0,0,0,2.43.2c.46,0,.83-.07,1.2-.11,1-.13,1.16-.23,1.84-.25.47,0,.53,0,1.2,0l1-.06,1-.05c.77,0,1.4,0,2.27,0,1.6,0,1.44.1,2.1.07s.48-.05,2-.18l1.59-.14c.48-.07,1-.15,1.82-.33s2-.43,3.18-.81a25.76,25.76,0,0,0,4.55-1.83,29.6,29.6,0,0,0,5.6-4l1.78-1.67c1.29-1.21,1.54-1.45,1.88-1.79a16.1,16.1,0,0,0,1.84-2,9.51,9.51,0,0,0,1.44-3.21,11.7,11.7,0,0,0,.36-2.78,15,15,0,0,0-.18-2.68,23.08,23.08,0,0,0-1-4.45,18.19,18.19,0,0,0-1.72-3.7c-.21-.34-.34-.52-.68-1.08-.72-1.18-1.14-2-1.44-2.61-.59-1.14-1.07-1.91-2-3.44-.24-.38-1.07-1.71-2.44-3.67-.36-.51-2.48-3.52-4.89-6.43A107.25,107.25,0,0,0,1343,174.33a114.64,114.64,0,0,0-19.26-13c-4-2.11-8.38-4.07-8.38-4.07-2.31-1-2.33-1-4.22-1.87a33.46,33.46,0,0,0-4.32-1.86,15.81,15.81,0,0,0-2.78-.72,16.15,16.15,0,0,0-6.45.66,3.51,3.51,0,0,0-2,1.15c-.24.33-.46.8-.53.77s.06-.3.11-.77a6.75,6.75,0,0,0,0-.71,9,9,0,0,0-1.44-3.57c-2-2.72-7.21-4.34-7.21-4.34a62.26,62.26,0,0,0-12.86-3c-4.63-.72-8.24-1.1-15.47-1.86-4-.42-5.72-.57-7.79-.66-2.47-.11-4.72-.09-9.23,0-3.08,0-5.52.11-8.43.41-.9.09-2,.23-3.42.5a25,25,0,0,0-5,1.37,10.32,10.32,0,0,0-3.1,1.59,6.79,6.79,0,0,0-2.45,3.68,5.7,5.7,0,0,0,0,2.64c.13.59.31.88.47,1.76a9.78,9.78,0,0,1,.16,1.65c.08,1.46.12,2.19.11,2.85a16.91,16.91,0,0,1-.48,4.84,14.33,14.33,0,0,1-1.39,3.24,7.33,7.33,0,0,1-1.6,2.19,3.52,3.52,0,0,1-1.65,1c-.06-.08.66-.55,1.33-1.43a8.25,8.25,0,0,0,1.23-2.47,15.63,15.63,0,0,0,1-5.49,18.27,18.27,0,0,0-.42-3.68,27.67,27.67,0,0,0-.86-3.3,12.75,12.75,0,0,0-1.22-3.13,7.37,7.37,0,0,0-2.56-2.36c-1.93-1.07-3.9-.91-6.09-.6a68.92,68.92,0,0,0-10.78,2.36c-2.75.88-5.59,1.89-8.64,3.13a86.75,86.75,0,0,0-11.47,5.33c-4.57,2.61-9.29,5.71-9.29,5.71a8.45,8.45,0,0,1-1.39.88c-7.09,2.19-18.64-25-22.9-29.84-.18-.2-1.66-1.87-1.22-2.68.1-.18.29-.3.65-.55a5.55,5.55,0,0,1,1.28-.66,9.48,9.48,0,0,0,2.18-1.37c.93-.65,1.39-.86,5.34-3.13s3.59-2.12,4.64-2.69a82.78,82.78,0,0,1,8.06-3.69c4-1.65,5.93-2.48,8.48-3.4a132.39,132.39,0,0,1,14.14-4.18c4.31-1,7.74-1.61,14.41-2.74,8.42-1.42,12.63-2.13,18.73-2.8,3.92-.43,10.25-1,18.09-1.27,2.64-.08,9.63-.25,18.57.17,1.29.06,9.89.47,15.1,1.26.5.08,2.18.34,4.54.66s3,.37,4.59.6c2.23.32,3.84.63,5.23.88,8.41,1.56,8.43,1.45,11.52,2.09,6,1.25,10.54,2.6,14.84,3.9,3.13,1,7,2.11,12,4,1,.38,5.19,2,10.67,4.51,2.6,1.19,5.45,2.5,9.13,4.5A131.78,131.78,0,0,1,1355.1,134c1.51,1,4.15,2.85,7.36,5.3,1.21.92,3.07,2.35,5.34,4.25,4.39,3.69,7.49,6.81,9.45,8.79,3.17,3.21,5.73,6.09,7.63,8.3A166.82,166.82,0,0,1,1408,196.14a114.66,114.66,0,0,1,5.34,12.53,111.19,111.19,0,0,1,5,19.94,118,118,0,0,1,1.34,15.82,142.53,142.53,0,0,1-1,19.72c-.55,5-1.19,8.73-1.6,11.15a194.53,194.53,0,0,1-4.59,20.27,129.5,129.5,0,0,1-5.5,15.87,108.2,108.2,0,0,1-15.53,26.1,154,154,0,0,1-16,17.19,132.38,132.38,0,0,1-17.82,14.45,117.7,117.7,0,0,1-29,14.06,109.82,109.82,0,0,1-23.91,4.89c-3.06.25-16.39,1.22-29.67-2a93.88,93.88,0,0,1-11.26-3.57,49,49,0,0,1-7.95-3.68,45.83,45.83,0,0,1-11.2-9.28,24.1,24.1,0,0,0-4-4,13.87,13.87,0,0,0-5.5-2.91,21,21,0,0,0-4.27-.44c-1.29,0-1.41.05-2.72,0-1.79-.07-2.59-.26-4.27-.44-1.92-.21-2.64-.13-4.53-.22a68.5,68.5,0,0,1-7.31-.82c-6.18-.9-12.83-1.86-18.73-3.25-3.12-.72-6.18-1.57-6.18-1.57s-1.3-.36-2.36-.68a96.82,96.82,0,0,1-13.13-5.27,64.59,64.59,0,0,1-10.67-6.15c-12.51-9.33-17.53-23.43-18.35-26.48-.67-2.47-1.46-4.9-2.14-7.36a15.36,15.36,0,0,0-.91-2.8,13.39,13.39,0,0,0-4.48-5.17,25.9,25.9,0,0,0-4-2.14c-4.77-2.23-6.16-2.48-9-4.06a38.08,38.08,0,0,1-4.38-2.86c-7.8-5.69-13.82-14.57-15.58-17.19a92.73,92.73,0,0,1-8.48-15.71,91.26,91.26,0,0,1-6.35-24.39,94.41,94.41,0,0,1,1.55-30.65,114.58,114.58,0,0,1,8.37-25.44,99.26,99.26,0,0,1,5.39-10.54,102.63,102.63,0,0,1,10.09-13.79,54.93,54.93,0,0,1,6.08-6.65,53.84,53.84,0,0,0,4.43-4,26.2,26.2,0,0,1,2.13-2c.65-.57.85-.72,1.12-.77" transform="translate(-3.62 -2.54)"/><path class="cls-4" d="M1126,142c.14-.32,2.71-2.24,7.84-6.09,1.44-1.09,0,0,6.36-4.65a11.94,11.94,0,0,1,1-.71c4-1.42,7.55,12.49,19.46,24,1.65,1.59,5.73,5.34,4.8,7.83-.14.35-.68.82-1.76,1.73-2.48,2.08-3.6,2.6-5.52,4.29-1.31,1.17-1.53,1.59-1.93,1.89-5.28,4-34.12-19.75-30.25-28.27" transform="translate(-3.62 -2.54)"/></g></g></svg>