<svg id="Layer_1" data-name="Layer 1" xmlns="http://www.w3.org/2000/svg" xmlns:xlink="http://www.w3.org/1999/xlink" viewBox="0 0 1996.47 427.65"><defs><style>.cls-1,.cls-5{fill:none;}.cls-2{fill:#221f1f;}.cls-3{clip-path:url(#clip-path);}.cls-4{clip-path:url(#clip-path-2);}.cls-5,.cls-6{stroke:#fff;stroke-width:0.93px;}.cls-12,.cls-5,.cls-6{stroke-miterlimit:10;}.cls-12,.cls-6,.cls-7{fill:#fff;}.cls-8{clip-path:url(#clip-path-3);}.cls-9{opacity:0;}.cls-10{clip-path:url(#clip-path-4);}.cls-11{fill:#231f20;}.cls-12{stroke:#231f20;stroke-width:1.47px;}</style><clipPath id="clip-path" transform="translate(-1.85 -1.62)"><rect class="cls-1" x="-0.87" y="-1.89" width="2001.55" height="432.89"/></clipPath><clipPath id="clip-path-2" transform="translate(-1.85 -1.62)"><rect class="cls-1" x="-0.87" y="-1.89" width="2001.54" height="432.89"/></clipPath><clipPath id="clip-path-3" transform="translate(-1.85 -1.62)"><rect class="cls-1" x="1078.22" y="79.82" width="370.53" height="351.18"/></clipPath><clipPath id="clip-path-4" transform="translate(-1.85 -1.62)"><rect class="cls-1" x="1129.39" y="135.01" width="249.5" height="197.66"/></clipPath></defs><title>ThinQ.tv Logo_Black With White Fill and Transparent Background_Digital</title><path class="cls-2" d="M645.53,17.15A31.25,31.25,0,0,1,653,9.58a36.33,36.33,0,0,1,7.41-4.3,42.37,42.37,0,0,1,10.77-2.82,63.41,63.41,0,0,1,9.48-.84,61.62,61.62,0,0,1,10.2.71c4.66.75,14.42,2.32,23,9.74a38.9,38.9,0,0,1,6.95,8,32.27,32.27,0,0,1,4.84,10.46c2.52,10.74-2.51,22.36-2.51,22.36a39.39,39.39,0,0,1-6.77,9.54,35.7,35.7,0,0,1-7.46,5.6,29.49,29.49,0,0,1-7.07,3,26.45,26.45,0,0,1-9,.91c-5.17-.42-8.9-2.34-9.84-3.25-.62-.6-1.3-1.11-1.87-1.74A4.15,4.15,0,0,0,680,66a3.81,3.81,0,0,0-1.84-.47c-13.78-.38-18.33-4.85-18.33-4.85-1.15-1.12-4.17-4.67-4.8-7.49A4,4,0,0,0,654,51a8.93,8.93,0,0,0-2.59-1.36c-.64-.3-1.26-.66-1.9-1-1.38-.71-5.59-4.53-7.46-10.67-3.18-10.46,2.8-19.73,3.51-20.8" transform="translate(-1.85 -1.62)"/><g class="cls-3"><g class="cls-4"><path class="cls-2" d="M616.06,367.63c-12.67.06-25.54-.07-38.21,0,1.42-27.55,2.14-54.49,2-73.37-.14-23.93-1-39.61-5.57-58.32A138.75,138.75,0,0,0,563.51,206a142.6,142.6,0,0,0-18.42-27.12c-17.65-19.8-42.63-29.9-44.62-30.68-37.85-14.91-70.74-4.7-84.65-.38A103.82,103.82,0,0,0,389.51,160a98.48,98.48,0,0,0-23.22,20.92,78.51,78.51,0,0,0-13.3,22.8c-4.37,12-4.92,23.57-5.26,30.9a57.82,57.82,0,0,0-.16,6.24c0,3.4-.69,22.85-.82,26.3-.48,12.32-.22,22.64,0,56.53.06,9.51.13,23.53.16,40.76l-35.2-.06c.28-10.89.55-28.19.15-49.56-.51-27-1.69-37.87-1.55-63.57.15-27.05.29-40.85,4.14-54.39a128.65,128.65,0,0,1,21.16-41.78,144.14,144.14,0,0,1,50.74-38.91,149.32,149.32,0,0,1,17.75-6.49c4.37-1.23,8.47-2.15,12.22-2.83a145.84,145.84,0,0,1,20.07-2.08h.2c11.92-.58,23.49-.27,25.22-.21,38,1.41,65.41,14.23,65.48,14.26,18.91,9.1,55.24,30.27,73.68,70.71,8.47,18.56,12.1,38.84,13.31,45.63.53,3,.85,5.25,1.11,7,3.14,21.65,3.11,39.45,3,52.92-.28,26.62-1.37,53.64-2.3,72.58" transform="translate(-1.85 -1.62)"/><path class="cls-2" d="M275.53,79.44S1.7,79.82,1.85,79.52s0-37.84,0-37.84l273.68,0Z" transform="translate(-1.85 -1.62)"/><path class="cls-5" d="M1186.77,178c0,.32-3-.12-6.9,1-2.14.59-6.1,1.75-7.89,5a10.46,10.46,0,0,0-1,4.34c-.23,2.56-.41,4.62.71,6,1.63,2,4,0,7.89,1.75,2.64,1.23,2.49,2.6,6.76,5.05,2.48,1.42,3.51,1.52,3.94,1.54a9.18,9.18,0,0,0,5.84-2.25c.77-.68,1.21-1.34,1.34-1.26s-.35,2-1.55,3.23c-2.56,2.71-6.48,2.42-6.9,2.38-1.9-.18-3.47-1.1-6.62-2.94s-2.91-2.2-4.5-2.8a12,12,0,0,0-8.46.13c-1.11.47-3.68,1.54-4.36,3.79-.35,1.13.06,1.67.28,3.64.12,1.12.48,4.36-.56,6.59-1.83,3.93-8.13,4.72-8.17,4.62a15.81,15.81,0,0,0,3.31-1.89,8.1,8.1,0,0,0,2.32-2.31,7,7,0,0,0,.78-4.06c-.16-4.84-2-5.46-1.34-7.43.92-2.84,4.93-2.23,6.34-5.75.26-.67.22-.93.28-4.2a75.49,75.49,0,0,1,.28-7.71c1.38-4.54,7.54-7.08,12-7.43C1183.86,176.79,1186.79,177.7,1186.77,178Z" transform="translate(-1.85 -1.62)"/><path class="cls-5" d="M1153,226c.29-.05.29,2.55,2.07,4.59.25.3,2.06,2.38,4.37,2.27,1.79-.09,2.1-1.08,6.38-4.34.47-.35,1.41-.9,2.62-1.84a16.8,16.8,0,0,0,2.08-1.75c1.62-1.83,1.62-3.52,3-4.72a7.75,7.75,0,0,1,1.06-.68c2.89-1.51,4-.18,11.87-.49a37.2,37.2,0,0,0,11-1.54c3.41-1.1,7.21-2.39,9.75-6.19a12.22,12.22,0,0,0,2.21-6.56c.11-4.49-2.52-7.81-3.68-9.28-3.22-4.05-5.55-3.55-7.17-7.24a12.13,12.13,0,0,1-.83-6.38,14,14,0,0,1,2.85-6.47c4.42-6,11.39-8.19,11.59-7.82.08.14-1.1.72-3.31,2.61-3.69,3.15-8,6.85-8.09,11.68a9.68,9.68,0,0,0,1.28,4.8c1.39,2.46,3.32,3.23,4.79,4.31,3.8,2.83,5.48,8.52,5.42,12.43-.12,8-7.61,13.85-12.85,16a25,25,0,0,1-7.21,1.64c-8.42,1-12.16-1.78-16.28,1-1.3.87-1.27,1.48-2,2.69a10.87,10.87,0,0,1-1.92,2.36c-3,3-7.22,3.21-8.46,6.34-.46,1.16.14,1.05-.44,4.29-.5,2.82-1.05,3.39-.68,4.3.9,2.2,5.21,1.86,5.2,2.56,0,.43-1.63,1-3.17.73a5.33,5.33,0,0,1-4.1-3.58c-.75-2.69,1.54-5,.54-6.14-.46-.52-1-.12-2.33-.38-2.62-.53-4.62-3-5.39-5.28C1152.53,228,1152.8,226,1153,226Z" transform="translate(-1.85 -1.62)"/><path class="cls-5" d="M1206.59,281.15a2.14,2.14,0,0,1-1.08-2.16c.06-.47.3-.81.48-1.89.09-.57,0-.61,0-.63-.19-.07-1.13,1.21-1.64,2.63-.92,2.58-.14,3.48-1.13,4.51-.84.88-1.91.73-2.53,1.95a3.5,3.5,0,0,0-.3,1.06c-.47,2.45.35,5.85.72,5.81s-.64-2.7.79-5.4c1.13-2.14,3.26-3.32,5.12-4.36a11.84,11.84,0,0,1,3.49-1.53c3.7-.81,5,1.38,8.9.64a8.16,8.16,0,0,0,3.72-1.69,6.05,6.05,0,0,0,2.28-3.8c0-.53,0-1.38-.21-1.44s-.51.49-.8,1a12.22,12.22,0,0,1-2.8,2.86,9.49,9.49,0,0,1-3.38,1.53c-4.11.89-6.25-2.16-8.94-.8C1207.92,280.1,1207.42,281.41,1206.59,281.15Z" transform="translate(-1.85 -1.62)"/><path class="cls-5" d="M1238.52,265.29c.88-3.22,2.32-5,2.15-5.16s-2.09,1.55-3.33,4.28c-.48,1-2.24,4.9-1.13,8.65,1,3.52,3.59,3.51,4.37,7.36a13.38,13.38,0,0,1,0,4.2c-.37,3.86-1.36,4.23-1.7,7.36-.06.6-.6,6,2,8.51.85.82,1.93,1.15,2.05.94s-1.6-1.17-2.26-3.36a15.76,15.76,0,0,1-.24-4.62,8.15,8.15,0,0,1,.07-1.53c.37-1.77,1.73-2.59,2.25-5.72.72-4.36-1.18-6.65.18-8.3.59-.72,1.85-.87,4.37-1.16a28.21,28.21,0,0,1,3.75-.21c5,0,7.56.07,10.23.77,2.27.6,3.59,1.3,4.52,2.66.19.28,1.24,1.83.82,3-.35,1-1.48,1.14-1.42,1.46s1.29.64,2,0c1-.83.8-3,.41-4.34a7,7,0,0,0-3.33-4c-.38-.24-1.6-1-5.06-1.4a45.26,45.26,0,0,0-6.42-.14c-3.78.06-5.67.09-6.42.14-2.59.14-3.25.28-4.4-.14a6.18,6.18,0,0,1-3.81-3.5C1237.47,269.16,1238,267.27,1238.52,265.29Z" transform="translate(-1.85 -1.62)"/><path class="cls-5" d="M1218,188.47c.39-.15-1.33-3.1-.14-5.75.88-1.95,2.92-2.75,5-3.57,1.27-.5,6.58-2.59,10.7-.28,1.1.61,2.05,1.5,2.47,1.19s-.53-1.76-.53-3.47c0-3.7,4.86-6.53,6.23-7.32a23.81,23.81,0,0,1,7.45-2.56c5.11-1.13,6.9-.46,9.53-2.34,1.65-1.19,1.19-3.36,2.88-4a5.16,5.16,0,0,1,2.83.11,4.86,4.86,0,0,0-4-.88c-1.77.44-1.87,2.41-3.51,3.22-3.73,1.85-6,1-10.64,2.11-3.18.8-8.76,2.22-10.65,6.3-.64,1.39-.85,3.07-2.27,3.68-1.12.48-2-.13-3.38-.42-4.62-1-9.1,2.76-10.11,3.61-1.56,1.32-3.8,3.2-3.87,6C1216,186.52,1217.69,188.59,1218,188.47Z" transform="translate(-1.85 -1.62)"/><path class="cls-5" d="M1289.86,160.85a1,1,0,0,1,.44.71c.21,1.34-2.16,1.77-3.48,4.22-.76,1.41-1.09,3.3-.35,4.51a1.3,1.3,0,0,0,.17.25c.34.41,1,.73,3,1.44a32.3,32.3,0,0,0,5.91,1.76c2.79.41,4.54.06,4.57.28s-2.24,1.19-5,1.13-3.52-1-7.57-1.48c-1.27-.15-2.22-.18-3.33-.21a49,49,0,0,0-7,.28,29.77,29.77,0,0,0-13,4.93c-3.8,2.88-8.26,8.07-8.39,12.3,0,.75,0,4.85-.18,6.73a13.11,13.11,0,0,0-.06,1.76c.05,1,.23,1.31.06,1.62-.3.58-1.71.51-3.25.42-2.57-.13-3.86-.2-4.77-.18a17.52,17.52,0,0,0-4.72,1c-4.06,1.23-8.08,2.49-11.89,6.13-.27.26-.45.44-.64.64a30,30,0,0,0-6.85,10.8,29.31,29.31,0,0,0-1.49,7.82,26.13,26.13,0,0,0,0,6.13,30.5,30.5,0,0,1,.71,7.54c-.08,1.16-.2,1.58-.37,1.6-.49.07-1.33-3-1.84-4.86a46.9,46.9,0,0,1-1.83-8.22c-.36-4.78,1.33-8.5,2.93-12,1.7-3.74,5.06-11.12,12.78-15.47a31.1,31.1,0,0,1,9.7-3.38,16.58,16.58,0,0,1,4.82-.46c1.61.2,2.72.72,3.53.1a2.64,2.64,0,0,0,.76-2.11c.23-4.13-.21-5.86.24-8a11.42,11.42,0,0,1,1.3-3.28,22.2,22.2,0,0,1,7.12-7.93,35.65,35.65,0,0,1,14.33-5.17,9.08,9.08,0,0,0,3.69-.93,7.68,7.68,0,0,0,.74-.52c2-1.57,3-4,4.72-6.25C1286.58,162.87,1288.86,160.36,1289.86,160.85Z" transform="translate(-1.85 -1.62)"/><path class="cls-5" d="M1246.06,212.36c.09.15,1.09-.28,1.21-.33a8.58,8.58,0,0,0,2.17-1.5c2.34-1.64,7.27,1.82,7.67,2.11a4.62,4.62,0,0,1,1.91,2.24,4,4,0,0,1,.14,2,27.88,27.88,0,0,0,0,9.18,13.56,13.56,0,0,0,1.9,4.27,11.94,11.94,0,0,0,3.38,3.85c1.34,1,3.1,1.52,3.31,1.2s-1.62-1.55-3.09-3.48a14.9,14.9,0,0,1-2.68-8.09c-.11-1.11-.49-5.6,3-12.75,2.34-4.85,6.1-12.64,14.93-17.58,5.62-3.14,10.69-3.67,16.41-4.27a44.74,44.74,0,0,1,16.69.91,28.68,28.68,0,0,1,10.91,4.76,21.89,21.89,0,0,1,8.38,11.21c1.52,5,1.22,11.67-1.39,13.48-.31.21-1.24.76-1.14,1s1.52.26,2.67-.28c3.24-1.52,3.12-8,3.1-9-.13-6.83-4-11.78-5.49-13.66a28.29,28.29,0,0,0-10.63-8,33.05,33.05,0,0,0-8.95-2.59,52.71,52.71,0,0,0-15.84-.22c-6.31.83-13,1.71-19.65,6.52a39,39,0,0,0-8.64,9.13c-1.85,2.85-2.78,4.27-3.19,6.14-.27,1.25-.23,2.06-.84,2.38-1.26.68-2.76-2.15-6.2-2.66a10.38,10.38,0,0,0-5.49.84C1248,210.19,1245.91,212.1,1246.06,212.36Z" transform="translate(-1.85 -1.62)"/><path class="cls-5" d="M1310.9,204.63c.3.21-4.2,5.25-6.25,13.48a35.31,35.31,0,0,0-.71,13.34c.51,3.64,2,13.81,9.58,18.85,4.17,2.76,9.48,3.5,11.85,3.84l5.26.36c3.1.21,3.79.3,4.37-.27,1.13-1.12,1-4-.17-5.31a6.3,6.3,0,0,1-1.12-1.36c-.38-.66-.74-1.68-.54-1.82.39-.28,3.57,2,4.59,5.71a9.69,9.69,0,0,1-2.44,9.3c-2.15,2.09-5.23,2.43-5.37,2.13s1.41-1.35,2-1.76a7.54,7.54,0,0,0,1.32-1c.13-.14,1.35-1.46,1-2.35-.24-.7-1.34-.84-7.61-1.41-1.54-.14-1.42-.14-1.75-.16a58,58,0,0,1-7.5-1.06,19.91,19.91,0,0,1-10-5.74,22.16,22.16,0,0,1-5.06-9.75,33.15,33.15,0,0,1-1-11.39,37.75,37.75,0,0,1,2.83-13.79C1306.77,208.42,1310.63,204.44,1310.9,204.63Z" transform="translate(-1.85 -1.62)"/><path class="cls-2" d="M348.6,40.82s.44,328.3.09,328.13-43.48,0-43.48,0l0-328.13Z" transform="translate(-1.85 -1.62)"/><path class="cls-2" d="M700.09,109.65s.39,258.12.08,258-38,0-38,0l0-258Z" transform="translate(-1.85 -1.62)"/><path class="cls-2" d="M1600,79.62s.38,288.87.08,288.72-37.92,0-37.92,0l0-288.72Z" transform="translate(-1.85 -1.62)"/><path class="cls-2" d="M1686.93,147.34s-205.7.33-205.59.06,0-32.86,0-32.86l205.59,0Z" transform="translate(-1.85 -1.62)"/><path class="cls-2" d="M798.4,110.93s.39,259.22.08,259.08-38,0-38,0l0-259.08Z" transform="translate(-1.85 -1.62)"/><path class="cls-2" d="M1066.39,369.05l-38,.19c1.42-27.55,1.72-51.27,1.6-70.14-.14-23.93-1-39.61-5.58-58.32a138.27,138.27,0,0,0-10.78-29.93,142.6,142.6,0,0,0-18.42-27.12c-17.65-19.8-42.63-29.9-44.62-30.68-37.85-14.91-70.74-4.7-84.65-.38a104.11,104.11,0,0,0-26.32,12.16,98.35,98.35,0,0,0-23.21,20.92,78.51,78.51,0,0,0-13.3,22.8c-4.38,12-4.92,23.57-5.26,30.9a58.42,58.42,0,0,0-.17,6.24c0,3.4-.68,22.84-.82,26.29-.47,12.33-.21,22.65,0,56.54.07,9.51.14,23.53.17,40.76l-35.2-.07c.28-10.88.55-28.18.15-49.55-.51-27-1.69-37.87-1.55-63.57.15-27.06.29-40.85,4.14-54.39a128.77,128.77,0,0,1,21.15-41.78A144.23,144.23,0,0,1,836.46,121a149.32,149.32,0,0,1,17.75-6.49c4.37-1.23,8.47-2.15,12.22-2.83a145.84,145.84,0,0,1,20.07-2.08h.2c11.92-.58,23.49-.27,25.22-.21,38,1.41,65.41,14.23,65.48,14.26,18.91,9.1,55.24,30.27,73.68,70.7,8.47,18.57,12.1,38.85,13.31,45.64.53,3,.85,5.25,1.1,7,3.15,21.65,3.12,39.44,3,52.92-.29,26.62-1.15,50.22-2.08,69.16" transform="translate(-1.85 -1.62)"/><path class="cls-2" d="M1753.66,114.51s113.45,239.29,113.11,239.31-34.31,17.07-34.31,17.07L1712,114.51Z" transform="translate(-1.85 -1.62)"/><polygon class="cls-2" points="1830.43 369.28 1868.18 369.28 1849.31 351.07 1830.43 369.28"/><path class="cls-2" d="M1956.77,114.51S1835.94,353.8,1836.28,353.82s34.3,17.07,34.3,17.07l127.74-256.38Z" transform="translate(-1.85 -1.62)"/><path class="cls-6" d="M708.9,30.3c-.33.08-.11,1.23-.6,3.39a5.06,5.06,0,0,1-.68,2c-.73,1-2.17,1.88-3,1.5-.36-.16-.85-.64-1-.5,0,0,0,0,0,0a3.16,3.16,0,0,0,0,1.89c.59,1.9-1.08,4.21-1.23,4.42a9.94,9.94,0,0,1-2,1.84,14,14,0,0,0-2.3,2.07,5.33,5.33,0,0,0-.55.75c-.21.33-1,1.73-.49,2.53,0,0,.28.4.52.34s.09-1.21.83-2.15c1.09-1.39,2.06-1.08,3.56-2.14a5.92,5.92,0,0,0,3-4.55c0-.85-.13-1.83.31-2.3s.76-.11,1.28-.06c1.82.17,2.92-2.39,3.17-3a5.8,5.8,0,0,0,.56-3.74C710,31.42,709.26,30.22,708.9,30.3Z" transform="translate(-1.85 -1.62)"/><path class="cls-6" d="M664,25.77c.71-.42.83-.73,1.35-1a6.17,6.17,0,0,1,1.93-.43c.66-.07,3.42-.37,3.88,2.12.13.66.08,1.47.36,1.35s.57-1.33,1.3-2.51a9.53,9.53,0,0,1,5.32-3.71,7.55,7.55,0,0,1,3.71-.16c2.28.33,2.63,1.17,4.35.44.66-.28,2.42-.82,2.73-2.13,0-.06.15-.65-.07-.78s-1.07,1.12-2.62,1.47c-2.09.47-2.53-.66-4.64-.85a7.28,7.28,0,0,0-6.43,2.06c-.82.82-1.61,1.94-2.37,2.05-.6.09-.67-.53-1-1-1.18-1.7-4.38-.06-5.09.31-2.42,1.24-4.07,3.09-3.91,3.27S663.94,25.82,664,25.77Z" transform="translate(-1.85 -1.62)"/><path class="cls-6" d="M690.54,46.08a4.52,4.52,0,0,1-.47-2.64c-.06-1.26-.68-3.14-2-3.76a2.12,2.12,0,0,0-.64-.2c-1.07-.19-2.09.35-5.82,1-.49.09-1.41.15-2.67.39a15,15,0,0,0-2.23.52c-1.89.75-2.47,2-4,2.33h0a2.34,2.34,0,0,1-1.06.12A.94.94,0,0,1,671,43c.05-.45.64-.6,1.38-1.12A6.69,6.69,0,0,0,674,40.34c.12-.07.3-.19.58-.33a10.77,10.77,0,0,1,1.73-.69c3.39-1.1,6.73.29,8.77-1.54.76-.69.25-.82,1.81-3,1.36-1.88,2-2.08,2-2.89,0-1.93-3.43-3.24-3.18-3.75.16-.31,1.61-.13,2.73.62a4.5,4.5,0,0,1,2,4.09c-.33,2.24-2.91,3.08-2.52,4.28a.65.65,0,0,0,.15.27,4,4,0,0,0,1.53.86c1.92.73,2.16,8.35,1.35,8.24C690.8,46.51,690.71,46.37,690.54,46.08Z" transform="translate(-1.85 -1.62)"/><path class="cls-7" d="M1502.12,322c-.33.08-.11,1.23-.6,3.39a5.06,5.06,0,0,1-.68,2c-.73,1-2.17,1.88-3,1.5-.35-.16-.84-.64-1-.5,0,0,0,0,0,0a3.16,3.16,0,0,0,0,1.89c.59,1.89-1.08,4.21-1.23,4.42a9.93,9.93,0,0,1-2,1.84,14,14,0,0,0-2.3,2.07,7,7,0,0,0-.55.75c-.21.33-1,1.73-.49,2.53,0,0,.28.4.52.34s.08-1.21.83-2.15c1.09-1.39,2.06-1.08,3.56-2.15a5.88,5.88,0,0,0,3-4.54c0-.85-.13-1.83.31-2.3s.76-.11,1.28-.06c1.82.17,2.92-2.39,3.16-3a5.73,5.73,0,0,0,.57-3.74c-.28-1.22-1-2.42-1.34-2.34" transform="translate(-1.85 -1.62)"/><path class="cls-7" d="M1453.54,317.58c.71-.42.84-.73,1.35-1a6.17,6.17,0,0,1,1.93-.43c.66-.07,3.42-.37,3.89,2.11.12.67.07,1.48.35,1.36s.57-1.33,1.3-2.51a9.39,9.39,0,0,1,5.32-3.7,7.31,7.31,0,0,1,3.71-.16c2.28.32,2.63,1.16,4.35.43.66-.28,2.42-.83,2.73-2.13,0-.06.15-.65-.07-.78s-1.08,1.11-2.62,1.46c-2.1.48-2.53-.65-4.63-.84a7.32,7.32,0,0,0-6.45,2.06c-.81.82-1.6,1.93-2.36,2.05-.61.09-.67-.53-1-1-1.19-1.7-4.39-.06-5.1.31-2.42,1.25-4.06,3.09-3.91,3.28s1.14-.48,1.22-.53" transform="translate(-1.85 -1.62)"/><path class="cls-2" d="M1445.74,313.5a31,31,0,0,1,7.48-7.58,35.91,35.91,0,0,1,7.41-4.29,42,42,0,0,1,10.77-2.83,63.17,63.17,0,0,1,9.48-.83,62.08,62.08,0,0,1,10.2.7c4.66.75,14.42,2.32,23,9.74a39.48,39.48,0,0,1,7,8,32.27,32.27,0,0,1,4.84,10.46c2.52,10.74-2.51,22.37-2.51,22.37a39.23,39.23,0,0,1-6.77,9.53,35,35,0,0,1-7.46,5.6,29,29,0,0,1-7.07,3,26.73,26.73,0,0,1-9,.91c-5.17-.43-8.9-2.35-9.85-3.26-.61-.59-1.29-1.11-1.86-1.74a4.1,4.1,0,0,0-1.13-1,3.86,3.86,0,0,0-1.84-.48C1464.59,361.46,1460,357,1460,357c-1.15-1.12-4.17-4.67-4.8-7.49a4,4,0,0,0-1.06-2.2,8.93,8.93,0,0,0-2.59-1.36c-.64-.3-1.26-.66-1.9-1-1.38-.71-5.59-4.52-7.46-10.67-3.18-10.45,2.8-19.73,3.51-20.79" transform="translate(-1.85 -1.62)"/><path class="cls-6" d="M1507.29,327.61c-.33.08-.11,1.23-.59,3.38a5.2,5.2,0,0,1-.69,2c-.72,1-2.17,1.88-3,1.5-.36-.16-.84-.64-1-.5l0,0a3.14,3.14,0,0,0,0,1.89c.58,1.9-1.08,4.21-1.24,4.42a9.66,9.66,0,0,1-2,1.84,13.52,13.52,0,0,0-2.3,2.07,5.33,5.33,0,0,0-.55.75c-.2.33-1.05,1.73-.49,2.53,0,0,.29.4.52.34s.09-1.22.83-2.15c1.09-1.39,2.06-1.08,3.56-2.15a5.88,5.88,0,0,0,3-4.54c0-.85-.13-1.83.31-2.3s.76-.11,1.28-.06c1.83.17,2.92-2.39,3.17-3a5.8,5.8,0,0,0,.56-3.74C1508.35,328.73,1507.65,327.53,1507.29,327.61Z" transform="translate(-1.85 -1.62)"/><path class="cls-6" d="M1488.93,343.39a4.43,4.43,0,0,1-.46-2.64c-.07-1.27-.69-3.14-2-3.77a2.44,2.44,0,0,0-.65-.19c-1.07-.19-2.09.35-5.82,1-.48.09-1.41.15-2.67.39a13.83,13.83,0,0,0-2.23.52c-1.89.74-2.47,2-4,2.33a2.34,2.34,0,0,1-1.06.12.91.91,0,0,1-.6-.88c0-.45.62-.61,1.38-1.12a6.88,6.88,0,0,0,1.56-1.54,6.13,6.13,0,0,1,.58-.33,11.17,11.17,0,0,1,1.73-.69c3.4-1.1,6.73.28,8.77-1.54.76-.69.25-.82,1.81-3,1.36-1.88,2-2.08,2-2.89,0-1.93-3.44-3.25-3.19-3.75.15-.31,1.61-.14,2.73.62a4.44,4.44,0,0,1,2,4.09c-.34,2.24-2.91,3.08-2.52,4.28a.66.66,0,0,0,.15.26,4,4,0,0,0,1.53.87c1.92.73,2.15,8.35,1.35,8.24C1489.19,343.82,1489.1,343.67,1488.93,343.39Z" transform="translate(-1.85 -1.62)"/></g><g class="cls-8"><g class="cls-9"><g class="cls-10"><path class="cls-11" d="M1159.83,160.78c-8.12,6.4-23.21,22.16-28.47,45.66-1.63,7.25-3.24,15.08-.45,24.44,2.41,8.1,7.53,13.89,10.12,16.9a27.63,27.63,0,0,0,6.86,6.14,50.73,50.73,0,0,0,7.81,3.4,43,43,0,0,0,5.88,2,31.57,31.57,0,0,0,7.74.74,20.09,20.09,0,0,0,6.25-.63c2-.58,2.43-1.14,4.91-2.22a44.59,44.59,0,0,1,6.26-2c7.77-2.08,11.65-3.13,15.63-2.85a47.06,47.06,0,0,1,9.83,1.67c2.38.75,3.19,1.28,4.46.89,3.17-1,6-5.49,5.12-8.23a7.14,7.14,0,0,1-.5-2.55,3.24,3.24,0,0,1,.69-2.17c.29-.33.65-.56.72-.49s-.31.49-.39,1.21a2.26,2.26,0,0,0,0,.74c.26,1.49,1,2.58,1.23,4.18.17,1,0,1,.17,1.21.72.81,3.36-.32,10-3.79s6.24-3.52,7.41-3.83c5.28-1.41,7.24.9,10.79-1.17a57.58,57.58,0,0,0,5.14-3.78,11,11,0,0,0,1.19-1.05c.55-.59.79-1,1-1s.19.55.14.86a2.3,2.3,0,0,1-.41,1c-1.3,1.71-3.3,3.47-3.13,4.27.22,1,4.09,1.24,7.71.88a25.32,25.32,0,0,0,10.49-2.87c3.52-1.93,7.72-5.42,8.26-8.45.12-.66.5-3.79,0-4.85,0-.08-.24-.48-.11-.59s.58.19.63.22a3.1,3.1,0,0,1,1.08,2,11.32,11.32,0,0,1-.86,6.4c-2,4-5.29,4.4-5.06,6.3,0,.06,0,.14.08.29.36,1.34,1,3.84,3.11,5.26a5.92,5.92,0,0,0,2.3,1c.92.18,1.67.08,1.72.29s-.14.31-1.09.73a5.41,5.41,0,0,1-3.29-.23,5.28,5.28,0,0,1-1.87-1.29c-1.08-2.24-2.22-3.66-2.61-3.8s-.56-.16-.56-.16a3.71,3.71,0,0,0-.5-.09,10.45,10.45,0,0,0-4,.42c-.62.21-5.2,1.75-7.15,2.2-.64.15-4-.24-10.66-1a38,38,0,0,0-8.11.06,13.45,13.45,0,0,0-1.71.38c-1.65.48-2.42,1-5.58,2.67-10.85,5.88-12,5.88-14.75,8.55s-4.21,4.16-4.65,6.45a12.7,12.7,0,0,1-1.45,4.25c-.13.24-1.15,2-1.6,1.86-.08,0-.47-.2,0-2.89.5-2.9.82-5,0-6.33-.34-.56-.93-1-4-1.67a33.15,33.15,0,0,0-7.37-1.11,34.63,34.63,0,0,0-14.74,2.22c-3.72,1.51-10,4.09-12.62,10.45a16.33,16.33,0,0,0-1.11,7c.15,6.2,3.19,10.66,6.78,15.81,2.73,3.9,5.52,7.89,10.19,11.52,9.54,7.42,20.13,7.94,31.38,8.67,8.75.56,17.85,1.15,24.78-2.67a26.63,26.63,0,0,1,7.93-3.11,30.3,30.3,0,0,1,9.6-.23c10,.86,14,3.55,19.14,1.26a11.12,11.12,0,0,1,2.42-1c.12.2-2,2.1-4.51,3.26-.87.4-3.6,1.55-9.23,1.18-6.66-.43-8.53-2.42-9.83-1.33-2.17,1.83,0,10.13,5.14,15.78,7.36,8.09,18.79,8.45,25.35,8.66a55.41,55.41,0,0,0,25.8-5.67c5.81-2.74,9.79-5.8,15.4-10.1a93.86,93.86,0,0,0,13.35-12.24c1.15-1.29,2.17-2.52,3.06-3.65,11.12-11.69,12.7-15.17,15.86-22.11.64-1.39,1.71-4,.56-6a4.85,4.85,0,0,0-2-1.79,6.16,6.16,0,0,0-3.91-.44,5.36,5.36,0,0,0-2.67,1.32c-.92.91-1.06,1.87-1.29,1.82s-.57-1.86.28-3.25c1.06-1.73,3.51-2.23,4.91-2.56,2.12-.5,2.55-.23,3.58-.55,2.75-.85,5.91-7.11,5.91-7.11,2.75-6.12,4.13-9.18,4.75-12.69,0,0,2.28-12.82-4.41-24.63-.75-1.33-1.84-2.92-3.65-3.38-.54-.13-2-.37-5.18,1.49-2.88,1.65-7.74,4.49-9,9.6-.49,2.06.2,2-.37,6.4a14.18,14.18,0,0,1-2.76,6.54c-.2.23-.48.52-.65.45-.39-.17.53-2.24.79-4.63.53-4.83-.57-6.11.54-9.24a34.93,34.93,0,0,1,1.8-3.57c1.93-3.59,2.84-4.73,2.46-5.19s-1.89.47-4.69,1.41a42,42,0,0,1-9.75,1.74c-4,.42-5.94.64-6.44.63-1.5,0-2.92-.13-4.32.74a6.84,6.84,0,0,0-1.85,2c-2.53,3.47-2.46,4.32-3.94,5.58-.48.41-2.24,1.87-4.07,1.47a2.9,2.9,0,0,1-1.51-.75,5.94,5.94,0,0,0,1.6.27,3.62,3.62,0,0,0,2.39-1.28,5.55,5.55,0,0,0,.9-1.61,12.8,12.8,0,0,0,1.17-4.27,3.76,3.76,0,0,0-.2-2.33c-.39-.71-1-1-2.08-1.48a10.53,10.53,0,0,0-3.88-.89,7.54,7.54,0,0,0-3,.45,10.4,10.4,0,0,0-3.07,2.13c-.15-.13.86-2.4,3.07-3.48a9.59,9.59,0,0,1,4-.72,12.2,12.2,0,0,1,3.07,0c1.79.31,2.46,1.08,3.74,1.61,1.69.71,2.91.43,5.85.19,6.38-.55,5.91.31,10.68-.36a31.41,31.41,0,0,0,7.25-1.72,24.85,24.85,0,0,0,5.2-2.61,31.37,31.37,0,0,0,3.35-2.72c3.19-2.87,4.79-4.31,5.41-5.44,1.94-3.51,1-7.45.51-9.56-.42-1.77-1.06-3.29-3.46-7.33a95.87,95.87,0,0,0-6.65-10.16,98.88,98.88,0,0,0-18.93-18.72,96.27,96.27,0,0,0-15.91-9.55s-3.42-2-14.91-6.78a13,13,0,0,0-6.19-1.11c-.93.07-5,.19-5.76,2.16-.27.67-.17,1.59-.82,1.92a.9.9,0,0,1-1,0c-.5-.46.5-1.67.5-3.17a7,7,0,0,0-1.45-3.55c-3.81-5.16-21.66-7.16-21.66-7.16a138.73,138.73,0,0,0-19.4-2c-1.34,0-.14,0-10.67,0a84.81,84.81,0,0,0-10.93.54c-.84.1-1.26.14-1.66.23-2,.46-7.71,1.76-9.15,5.61-.93,2.48.8,3.29.52,9.64a17.17,17.17,0,0,1-.88,5.07,9.65,9.65,0,0,1-3,4.74,7.45,7.45,0,0,1-3,1.43c-.85.18-1.84.23-1.89,0s1-.49,2.2-1.47a7.87,7.87,0,0,0,1.57-1.78,11.79,11.79,0,0,0,1.66-3.78,14,14,0,0,0-.08-6.6c-.56-2.58-1.38-6.28-4.24-8-1.86-1.12-3.89-1-6.92-.45a93,93,0,0,0-21.66,6.67c-3.52,1.53-5.89,2.56-9.16,4.29a114.57,114.57,0,0,0-14.85,9.59" transform="translate(-1.85 -1.62)"/></g></g><path class="cls-12" d="M1159.83,160.78c-8.12,6.4-23.21,22.16-28.47,45.66-1.63,7.25-3.24,15.08-.45,24.44,2.41,8.1,7.53,13.89,10.12,16.9a27.63,27.63,0,0,0,6.86,6.14,50.73,50.73,0,0,0,7.81,3.4,43,43,0,0,0,5.88,2,31.57,31.57,0,0,0,7.74.74,20.09,20.09,0,0,0,6.25-.63c2-.58,2.43-1.14,4.91-2.22a44.59,44.59,0,0,1,6.26-2c7.77-2.08,11.65-3.13,15.63-2.85a47.06,47.06,0,0,1,9.83,1.67c2.38.75,3.19,1.28,4.46.89,3.17-1,6-5.49,5.12-8.23a7.14,7.14,0,0,1-.5-2.55,3.24,3.24,0,0,1,.69-2.17c.29-.33.65-.56.72-.49s-.31.49-.39,1.21a2.26,2.26,0,0,0,0,.74c.26,1.49,1,2.58,1.23,4.18.17,1,0,1,.17,1.21.72.81,3.36-.32,10-3.79s6.24-3.52,7.41-3.83c5.28-1.41,7.24.9,10.79-1.17a57.58,57.58,0,0,0,5.14-3.78,11,11,0,0,0,1.19-1.05c.55-.59.79-1,1-1s.19.55.14.86a2.3,2.3,0,0,1-.41,1c-1.3,1.71-3.3,3.47-3.13,4.27.22,1,4.09,1.24,7.71.88a25.32,25.32,0,0,0,10.49-2.87c3.52-1.93,7.72-5.42,8.26-8.45.12-.66.5-3.79,0-4.85,0-.08-.24-.48-.11-.59s.58.19.63.22a3.1,3.1,0,0,1,1.08,2,11.32,11.32,0,0,1-.86,6.4c-2,4-5.29,4.4-5.06,6.3,0,.06,0,.14.08.29.36,1.34,1,3.84,3.11,5.26a5.92,5.92,0,0,0,2.3,1c.92.18,1.67.08,1.72.29s-.14.31-1.09.73a5.41,5.41,0,0,1-3.29-.23,5.28,5.28,0,0,1-1.87-1.29c-1.08-2.24-2.22-3.66-2.61-3.8s-.56-.16-.56-.16a3.71,3.71,0,0,0-.5-.09,10.45,10.45,0,0,0-4,.42c-.62.21-5.2,1.75-7.15,2.2-.64.15-4-.24-10.66-1a38,38,0,0,0-8.11.06,13.45,13.45,0,0,0-1.71.38c-1.65.48-2.42,1-5.58,2.67-10.85,5.88-12,5.88-14.75,8.55s-4.21,4.16-4.65,6.45a12.7,12.7,0,0,1-1.45,4.25c-.13.24-1.15,2-1.6,1.86-.08,0-.47-.2,0-2.89.5-2.9.82-5,0-6.33-.34-.56-.93-1-4-1.67a33.15,33.15,0,0,0-7.37-1.11,34.63,34.63,0,0,0-14.74,2.22c-3.72,1.51-10,4.09-12.62,10.45a16.33,16.33,0,0,0-1.11,7c.15,6.2,3.19,10.66,6.78,15.81,2.73,3.9,5.52,7.89,10.19,11.52,9.54,7.42,20.13,7.94,31.38,8.67,8.75.56,17.85,1.15,24.78-2.67a26.63,26.63,0,0,1,7.93-3.11,30.3,30.3,0,0,1,9.6-.23c10,.86,14,3.55,19.14,1.26a11.12,11.12,0,0,1,2.42-1c.12.2-2,2.1-4.51,3.26-.87.4-3.6,1.55-9.23,1.18-6.66-.43-8.53-2.42-9.83-1.33-2.17,1.83,0,10.13,5.14,15.78,7.36,8.09,18.79,8.45,25.35,8.66a55.41,55.41,0,0,0,25.8-5.67c5.81-2.74,9.79-5.8,15.4-10.1a93.86,93.86,0,0,0,13.35-12.24c1.15-1.29,2.17-2.52,3.06-3.65,11.12-11.69,12.7-15.17,15.86-22.11.64-1.39,1.71-4,.56-6a4.85,4.85,0,0,0-2-1.79,6.16,6.16,0,0,0-3.91-.44,5.36,5.36,0,0,0-2.67,1.32c-.92.91-1.06,1.87-1.29,1.82s-.57-1.86.28-3.25c1.06-1.73,3.51-2.23,4.91-2.56,2.12-.5,2.55-.23,3.58-.55,2.75-.85,5.91-7.11,5.91-7.11,2.75-6.12,4.13-9.18,4.75-12.69,0,0,2.28-12.82-4.41-24.63-.75-1.33-1.84-2.92-3.65-3.38-.54-.13-2-.37-5.18,1.49-2.88,1.65-7.74,4.49-9,9.6-.49,2.06.2,2-.37,6.4a14.18,14.18,0,0,1-2.76,6.54c-.2.23-.48.52-.65.45-.39-.17.53-2.24.79-4.63.53-4.83-.57-6.11.54-9.24a34.93,34.93,0,0,1,1.8-3.57c1.93-3.59,2.84-4.73,2.46-5.19s-1.89.47-4.69,1.41a42,42,0,0,1-9.75,1.74c-4,.42-5.94.64-6.44.63-1.5,0-2.92-.13-4.32.74a6.84,6.84,0,0,0-1.85,2c-2.53,3.47-2.46,4.32-3.94,5.58-.48.41-2.24,1.87-4.07,1.47a2.9,2.9,0,0,1-1.51-.75,5.94,5.94,0,0,0,1.6.27,3.62,3.62,0,0,0,2.39-1.28,5.55,5.55,0,0,0,.9-1.61,12.8,12.8,0,0,0,1.17-4.27,3.76,3.76,0,0,0-.2-2.33c-.39-.71-1-1-2.08-1.48a10.53,10.53,0,0,0-3.88-.89,7.54,7.54,0,0,0-3,.45,10.4,10.4,0,0,0-3.07,2.13c-.15-.13.86-2.4,3.07-3.48a9.59,9.59,0,0,1,4-.72,12.2,12.2,0,0,1,3.07,0c1.79.31,2.46,1.08,3.74,1.61,1.69.71,2.91.43,5.85.19,6.38-.55,5.91.31,10.68-.36a31.41,31.41,0,0,0,7.25-1.72,24.85,24.85,0,0,0,5.2-2.61,31.37,31.37,0,0,0,3.35-2.72c3.19-2.87,4.79-4.31,5.41-5.44,1.94-3.51,1-7.45.51-9.56-.42-1.77-1.06-3.29-3.46-7.33a95.87,95.87,0,0,0-6.65-10.16,98.88,98.88,0,0,0-18.93-18.72,96.27,96.27,0,0,0-15.91-9.55s-3.42-2-14.91-6.78a13,13,0,0,0-6.19-1.11c-.93.07-5,.19-5.76,2.16-.27.67-.17,1.59-.82,1.92a.9.9,0,0,1-1,0c-.5-.46.5-1.67.5-3.17a7,7,0,0,0-1.45-3.55c-3.81-5.16-21.66-7.16-21.66-7.16a138.73,138.73,0,0,0-19.4-2c-1.34,0-.14,0-10.67,0a84.81,84.81,0,0,0-10.93.54c-.84.1-1.26.14-1.66.23-2,.46-7.71,1.76-9.15,5.61-.93,2.48.8,3.29.52,9.64a17.17,17.17,0,0,1-.88,5.07,9.65,9.65,0,0,1-3,4.74,7.45,7.45,0,0,1-3,1.43c-.85.18-1.84.23-1.89,0s1-.49,2.2-1.47a7.87,7.87,0,0,0,1.57-1.78,11.79,11.79,0,0,0,1.66-3.78,14,14,0,0,0-.08-6.6c-.56-2.58-1.38-6.28-4.24-8-1.86-1.12-3.89-1-6.92-.45a93,93,0,0,0-21.66,6.67c-3.52,1.53-5.89,2.56-9.16,4.29A114.57,114.57,0,0,0,1159.83,160.78Z" transform="translate(-1.85 -1.62)"/><path class="cls-11" d="M1182.42,173c0,.35-3.14-.13-7.29,1-2.26.63-6.44,1.86-8.34,5.34a10.73,10.73,0,0,0-1,4.59c-.25,2.7-.44,4.87.74,6.29,1.72,2.07,4.23-.05,8.34,1.85,2.8,1.3,2.63,2.75,7.14,5.33,2.63,1.51,3.72,1.61,4.17,1.63,3.29.17,6.07-2.27,6.18-2.36.81-.73,1.27-1.43,1.41-1.34s-.37,2.07-1.63,3.41c-2.71,2.87-6.85,2.56-7.29,2.52-2-.18-3.68-1.16-7-3.11s-3.08-2.32-4.77-3a12.77,12.77,0,0,0-8.93.15c-1.18.49-3.89,1.62-4.62,4-.36,1.2.08,1.77.3,3.85.13,1.18.5,4.6-.59,7-1.94,4.15-8.6,5-8.64,4.88a16.42,16.42,0,0,0,3.5-2,8.26,8.26,0,0,0,2.45-2.44,7.3,7.3,0,0,0,.82-4.3c-.16-5.11-2.08-5.76-1.41-7.85,1-3,5.21-2.35,6.7-6.07.28-.71.24-1,.3-4.44.09-5.09.14-7.64.29-8.15,1.46-4.8,8-7.49,12.66-7.85,3.48-.27,6.57.69,6.55,1" transform="translate(-1.85 -1.62)"/><path class="cls-11" d="M1146.77,223.67c.31-.06.31,2.7,2.18,4.85.28.32,2.18,2.51,4.62,2.39,1.9-.09,2.23-1.14,6.75-4.57.5-.38,1.49-1,2.76-2a16.57,16.57,0,0,0,2.21-1.84c1.71-1.94,1.72-3.72,3.22-5a7.66,7.66,0,0,1,1.11-.73c3.06-1.59,4.19-.18,12.55-.51,4.17-.16,7.49-.31,11.58-1.63,3.6-1.17,7.62-2.53,10.3-6.53a13,13,0,0,0,2.34-7c.12-4.75-2.67-8.26-3.89-9.8-3.4-4.29-5.87-3.76-7.58-7.66A12.8,12.8,0,0,1,1194,177a14.68,14.68,0,0,1,3-6.84c4.68-6.3,12-8.67,12.26-8.27.08.15-1.16.76-3.5,2.76-3.9,3.33-8.48,7.24-8.56,12.35a10,10,0,0,0,1.36,5.07c1.47,2.6,3.51,3.41,5.06,4.57,4,3,5.8,9,5.74,13.13-.13,8.48-8.05,14.64-13.59,16.95a26.39,26.39,0,0,1-7.62,1.74c-8.91,1-12.86-1.88-17.21,1-1.38.92-1.34,1.57-2.12,2.85a12,12,0,0,1-2,2.5c-3.2,3.19-7.63,3.39-8.94,6.69-.49,1.23.15,1.11-.46,4.53-.54,3-1.12,3.58-.72,4.56,1,2.32,5.5,2,5.49,2.7,0,.46-1.71,1.05-3.36.77a5.59,5.59,0,0,1-4.32-3.78c-.8-2.85,1.63-5.28.57-6.49-.49-.56-1.08-.13-2.46-.41-2.77-.56-4.89-3.19-5.71-5.58-.71-2.07-.42-4.11-.16-4.15" transform="translate(-1.85 -1.62)"/><path class="cls-11" d="M1203.38,282a2.26,2.26,0,0,1-1.14-2.28c.06-.5.31-.86.5-2,.09-.61,0-.65,0-.66-.19-.09-1.19,1.27-1.73,2.78-1,2.71-.15,3.67-1.19,4.75-.89.93-2,.79-2.68,2.07a3.92,3.92,0,0,0-.32,1.12c-.5,2.59.37,6.19.77,6.15s-.68-2.86.83-5.71c1.19-2.27,3.44-3.52,5.42-4.61a12.64,12.64,0,0,1,3.68-1.62c3.91-.85,5.34,1.46,9.4.68a8.71,8.71,0,0,0,3.94-1.79,6.36,6.36,0,0,0,2.41-4c.06-.57,0-1.46-.22-1.53s-.54.52-.85,1a12.94,12.94,0,0,1-3,3,10.08,10.08,0,0,1-3.58,1.61c-4.35.95-6.6-2.27-9.45-.84-1.46.73-2,2.12-2.86,1.85" transform="translate(-1.85 -1.62)"/><path class="cls-11" d="M1237.14,265.21c.93-3.4,2.45-5.27,2.26-5.45s-2.2,1.64-3.52,4.52c-.51,1.11-2.37,5.19-1.19,9.15,1.09,3.71,3.79,3.71,4.62,7.78a14.29,14.29,0,0,1,0,4.44c-.39,4.08-1.44,4.46-1.8,7.78-.07.63-.64,6.38,2.08,9,.9.87,2,1.22,2.17,1s-1.69-1.24-2.38-3.56a16.55,16.55,0,0,1-.27-4.88,10,10,0,0,1,.08-1.61c.4-1.88,1.83-2.74,2.38-6.06.77-4.6-1.25-7,.19-8.77.62-.75,2-.91,4.62-1.22a33.13,33.13,0,0,1,4-.23c5.29,0,8,.08,10.82.82,2.39.63,3.8,1.37,4.78,2.81.2.3,1.31,1.93.86,3.19-.36,1-1.56,1.2-1.49,1.55s1.35.68,2.13,0c1-.88.85-3.2.44-4.59a7.51,7.51,0,0,0-3.51-4.22c-.41-.26-1.7-1-5.35-1.48a47.73,47.73,0,0,0-6.79-.15c-4,.07-6,.1-6.79.15-2.74.15-3.43.3-4.65-.15a6.47,6.47,0,0,1-4-3.7c-.75-2-.2-4,.38-6.11" transform="translate(-1.85 -1.62)"/><path class="cls-11" d="M1215.47,184c.42-.15-1.41-3.28-.15-6.07.94-2.06,3.09-2.91,5.29-3.78,1.34-.53,7-2.73,11.31-.3,1.17.66,2.16,1.59,2.61,1.26s-.56-1.86-.56-3.66c0-3.92,5.14-6.9,6.59-7.74a25.13,25.13,0,0,1,7.87-2.71c5.4-1.19,7.29-.49,10.07-2.47,1.75-1.26,1.26-3.56,3-4.23a5.68,5.68,0,0,1,3,.11,5.2,5.2,0,0,0-4.19-.92c-1.88.47-2,2.54-3.72,3.4-3.94,2-6.39,1-11.24,2.23-3.36.85-9.27,2.34-11.26,6.66-.68,1.47-.9,3.25-2.4,3.89-1.19.51-2.16-.13-3.57-.45-4.88-1.07-9.63,2.93-10.69,3.82-1.65,1.39-4,3.38-4.09,6.3-.07,2.6,1.72,4.79,2.08,4.66" transform="translate(-1.85 -1.62)"/><path class="cls-11" d="M1293.19,152.23a1,1,0,0,1,.46.75c.22,1.41-2.27,1.86-3.66,4.44-.8,1.48-1.13,3.47-.38,4.73l.19.27c.35.42,1,.76,3.16,1.51a33.85,33.85,0,0,0,6.22,1.85c2.93.43,4.77.06,4.8.3s-2.36,1.25-5.21,1.18-3.7-1-8-1.55a34.58,34.58,0,0,0-3.5-.22,50.62,50.62,0,0,0-7.37.29,31.05,31.05,0,0,0-13.7,5.19c-4,3-8.68,8.47-8.82,12.92,0,.79,0,5.1-.18,7.07a11.38,11.38,0,0,0-.08,1.86c0,1.08.24,1.37.08,1.7-.32.61-1.81.53-3.43.44-2.7-.15-4-.22-5-.19a18.38,18.38,0,0,0-5,1.08c-4.28,1.29-8.5,2.62-12.51,6.44-.28.27-.47.47-.67.67a31.6,31.6,0,0,0-7.21,11.36,30.49,30.49,0,0,0-1.56,8.22,27.15,27.15,0,0,0,0,6.44,31.86,31.86,0,0,1,.74,7.93c-.08,1.21-.21,1.65-.39,1.68-.51.07-1.4-3.16-1.93-5.12-1.17-4.33-1.76-6.49-1.92-8.63-.38-5,1.39-8.94,3.08-12.66,1.79-3.93,5.32-11.68,13.43-16.25a33,33,0,0,1,10.2-3.56,17.37,17.37,0,0,1,5.07-.48c1.69.21,2.86.76,3.72.11.57-.43.73-1.16.79-2.22.24-4.35-.22-6.16.25-8.44a12.22,12.22,0,0,1,1.37-3.45,23.31,23.31,0,0,1,7.49-8.33,37.51,37.51,0,0,1,15.07-5.45,9.53,9.53,0,0,0,3.88-1c.19-.13.45-.29.77-.54,2.07-1.66,3.2-4.23,5-6.58,1.25-1.66,3.66-4.3,4.71-3.79" transform="translate(-1.85 -1.62)"/><path class="cls-11" d="M1245.1,209.26c.1.16,1.15-.29,1.28-.35a8.81,8.81,0,0,0,2.29-1.58c2.47-1.74,7.69,1.92,8.12,2.22a5,5,0,0,1,2,2.37A4.3,4.3,0,0,1,1259,214c-.19,1.26-.85,6.06,0,9.7a14.56,14.56,0,0,0,2,4.51,12.55,12.55,0,0,0,3.57,4.08c1.42,1,3.28,1.6,3.5,1.26s-1.71-1.64-3.26-3.68a15.8,15.8,0,0,1-2.85-8.54c-.1-1.18-.51-5.93,3.13-13.48,2.47-5.13,6.45-13.37,15.78-18.59,6-3.32,11.3-3.88,17.35-4.52a47.44,47.44,0,0,1,17.64,1,30.6,30.6,0,0,1,11.54,5c2.07,1.55,6.87,5.24,8.86,11.85,1.6,5.34,1.29,12.34-1.48,14.25-.33.22-1.31.8-1.2,1.08s1.61.28,2.83-.29c3.42-1.62,3.29-8.47,3.27-9.48-.14-7.22-4.22-12.46-5.81-14.45a29.7,29.7,0,0,0-11.24-8.51,35.57,35.57,0,0,0-9.45-2.75,56.3,56.3,0,0,0-16.75-.22c-6.66.88-13.72,1.81-20.77,6.89a41.46,41.46,0,0,0-9.13,9.65c-2,3-2.94,4.52-3.38,6.5-.28,1.31-.24,2.17-.89,2.52-1.32.71-2.91-2.28-6.55-2.82a10.94,10.94,0,0,0-5.81.89c-2.76,1.12-4.92,3.14-4.76,3.41" transform="translate(-1.85 -1.62)"/><path class="cls-11" d="M1313.65,201.09c.31.22-4.44,5.55-6.61,14.25a37.48,37.48,0,0,0-.76,14.1c.55,3.85,2.08,14.6,10.13,19.93,4.41,2.91,10,3.7,12.53,4.06l5.56.38c3.28.22,4,.31,4.62-.29,1.2-1.19,1.08-4.22-.17-5.61a6.29,6.29,0,0,1-1.2-1.44c-.39-.71-.78-1.77-.56-1.92.41-.3,3.78,2.15,4.85,6a10.24,10.24,0,0,1-2.58,9.83c-2.28,2.2-5.52,2.57-5.68,2.24s1.49-1.42,2.08-1.85a8.58,8.58,0,0,0,1.39-1c.14-.14,1.42-1.54,1.1-2.48-.26-.74-1.42-.89-8-1.49-1.62-.16-1.49-.15-1.84-.17a64.1,64.1,0,0,1-7.93-1.12,21.21,21.21,0,0,1-10.62-6.08,23.47,23.47,0,0,1-5.35-10.31,35,35,0,0,1-1-12,39.71,39.71,0,0,1,3-14.57c2.75-6.44,6.85-10.64,7.13-10.44" transform="translate(-1.85 -1.62)"/><polygon class="cls-11" points="1259.79 262.07 1316.75 319.11 1330.3 303.91 1338.07 320.02 1373.32 386 1393.02 359.91 1439.06 427.65 1440.81 425.5 1405.94 318.84 1378.07 353.47 1349.34 259.39 1326.41 285.23 1300.45 240.99 1259.79 262.07"/></g><g class="cls-3"><path class="cls-11" d="M1126.17,135.69c1.23-.23,2.53,1.6,2.84,2,2.79,3.84,10.75,11.14,14.72,14.78,6.54,6,12.37,8.38,11.64,10.81-.16.5-.46.56-2,2a24.44,24.44,0,0,1-4.26,4.62c-2.82,2.58-8.63,10.72-12.91,19.95a82.84,82.84,0,0,0-6.65,21.38,44.28,44.28,0,0,0-.89,11.18,42.07,42.07,0,0,0,6.18,18.66,45.37,45.37,0,0,0,6.81,8.46,28.85,28.85,0,0,0,7.86,6.06c2.12,1,3.67,1,6.42,2.48a17.38,17.38,0,0,0,3.29,1.38,20.54,20.54,0,0,0,2.67.59,44.2,44.2,0,0,0,4.79.66,33.31,33.31,0,0,0,5.93-.08,16.06,16.06,0,0,0,4.17-.82c1.2-.43,1.1-.59,3-1.46a36,36,0,0,1,5.51-2.05c.91-.26.89-.22,2.51-.61,4.43-1.09,5.27-1.61,8.5-2.24a23.54,23.54,0,0,1,3.88-.48,25.82,25.82,0,0,1,2.91.11,48.76,48.76,0,0,1,5.56.77,21,21,0,0,1,3.51.8,20.55,20.55,0,0,0,2.35.82,4.64,4.64,0,0,0,1.44.25,4.91,4.91,0,0,0,1.52-.32,7.87,7.87,0,0,0,3-2.27,10.46,10.46,0,0,0,2.22-4.3c.05-.28.07-.56.07-.56s0-.33,0-.64a6.11,6.11,0,0,0-.46-2s.06.22.19.66a12.67,12.67,0,0,1,.51,1.78c.06.55-.06.69.1,1a1.42,1.42,0,0,0,.7.58c1,.46,2.58-.36,2.81-.48,1.57-.83-22.1,11.87,6.33-2.92,3.37-1.75,5.06-2.63,5.35-2.82a14.52,14.52,0,0,1,1.87-1,9.46,9.46,0,0,1,2.94-.9,15.14,15.14,0,0,1,2.57,0l1.76,0h0c.5,0,1.89,0,2.4,0a6.4,6.4,0,0,0,3-1.28c.69-.44.71-.59,1.71-1.23a12.52,12.52,0,0,0,1.31-.88c.44-.36.81-.72.83-.71a5.27,5.27,0,0,0-.89,1,4.33,4.33,0,0,0-.55,1.31,1.51,1.51,0,0,0-.09.58,1.53,1.53,0,0,0,.35.8,3.43,3.43,0,0,0,2.38.8,18.84,18.84,0,0,0,2.49.13,42.26,42.26,0,0,0,7.54-.71,22.38,22.38,0,0,0,2.61-.7,24.89,24.89,0,0,0,6.42-3.35,19.92,19.92,0,0,0,4.55-3.93c.37-.52.67-1.06.67-1.06a8.88,8.88,0,0,0,.93-2.46,6.32,6.32,0,0,0,.11-2.23,8.82,8.82,0,0,1-1,5.53,10.6,10.6,0,0,1-2.19,2.5,12.33,12.33,0,0,0-2,1.73,3.12,3.12,0,0,0-.85,1.47c0,.22-.07.53.32,1.8a9.63,9.63,0,0,0,1.39,3.19,6.67,6.67,0,0,0,.72.82,6.93,6.93,0,0,0,.85.72c.3.21.54.34.63.4.53.29.86.38.85.41s-.52-.16-1.55-.51a1.61,1.61,0,0,1-.72-.4,1.42,1.42,0,0,1-.33-.56,12.9,12.9,0,0,0-.74-1.43,5.4,5.4,0,0,0-2-2.37,4.61,4.61,0,0,0-2.65-.34,12.18,12.18,0,0,0-3.07.61c-1.73.47-2.28.73-4.55,1.41a18.54,18.54,0,0,1-2.35.61,13.37,13.37,0,0,1-3.63-.27c-1.23-.17-2.48-.24-3.72-.37-2.78-.29-4.17-.43-6-.54a20.5,20.5,0,0,0-5.24.14,18,18,0,0,0-2.06.5c-2.07.63-2.81,1.22-7.51,3.78-2,1.09-3.39,1.81-3.91,2.08l-1.65.85c-2.5,1.28-2.91,1.47-3.77,2a19.25,19.25,0,0,0-2.11,1.33,18.49,18.49,0,0,0-1.77,1.43,15.19,15.19,0,0,0-4,4.84c-.23.55-.43,1.17-.43,1.17a18.45,18.45,0,0,0-.48,2,7.48,7.48,0,0,1-1.52,3.41c-.09,0,.2-.72.45-2.19a12.85,12.85,0,0,0,.27-2.76,5.77,5.77,0,0,0-.53-2.72,3.59,3.59,0,0,0-.81-1.11c-.57-.53-1.17-.67-3.47-1.12l-1.66-.32c-4.65-.79-4.51-.78-4.65-.79a31,31,0,0,0-7.86.1,39.37,39.37,0,0,0-10.27,2.66,25.67,25.67,0,0,0-5.72,3.11,17,17,0,0,0-2.8,2.53,18.4,18.4,0,0,0-3.77,7.13,17,17,0,0,0-.06,7.6,24.4,24.4,0,0,0,3,8.09c.92,1.57.89,1.1,3.05,4.36,1.82,2.76,2.19,3.62,3.58,5.43a34.91,34.91,0,0,0,3.21,3.61,42.11,42.11,0,0,0,7.32,5.91,41.22,41.22,0,0,0,18,5.8c.5.05,0,0,3.9.26,7.77.55,8.9.73,12.4.85a66.88,66.88,0,0,0,7.22,0,26.92,26.92,0,0,0,7.43-1.06c1.9-.62,1.84-.92,6.36-2.87a40.21,40.21,0,0,1,4.45-1.76,26.34,26.34,0,0,1,6.73-1,42.26,42.26,0,0,1,6.74.64c3.52.49,5.28.74,7.59,1.22a19.13,19.13,0,0,0,4.54.59c1.63,0,2.77-.25,2.79-.16a15.28,15.28,0,0,1-4.82,1.12,25,25,0,0,1-7.59-.37l-2.88-.64c-1.43-.41-2-.71-2.95-.59a2.86,2.86,0,0,0-2,1c-.15.2-.31.5-.42,1.65a11.62,11.62,0,0,0-.06,2.55,19.88,19.88,0,0,0,2.09,6.23,25.1,25.1,0,0,0,3.32,5.26,24.33,24.33,0,0,0,6.68,5.48,27.42,27.42,0,0,0,6.36,2.55,43.23,43.23,0,0,0,10.91,1.49,55.29,55.29,0,0,0,12-.37,51.56,51.56,0,0,0,9.36-2.34,63.08,63.08,0,0,0,11.55-5.16s3.48-2,10.27-7c1.74-1.29,1.58-1.43,2.32-1.74.26-.11.68-.26.78-.6s-.26-.74-.59-1.17a18.7,18.7,0,0,1-1.23-2.13c-.82-1.36-.59-1.42-1.6-3.4-1.12-2.19-1.25-1.84-1.82-3.25-.38-.92-.65-1.87-1-1.86-.19,0-.25.26-.75.8a8.87,8.87,0,0,1-.74.69,37.61,37.61,0,0,0-3.27,3.83c-1.29,1.68-1,1-3.58,3.94-1,1.21-2.71,3.22-3.74,4.17a7.18,7.18,0,0,0-.63.62c-.63.77-.74,1.37-1,1.35s-.19-.18-.54-.59a5.54,5.54,0,0,0-.69-.66c-.89-.79-5.37-5.56-8.88-9-1.46-1.44-1.13-1.05-3.07-2.95-2.55-2.49-4.29-4.3-5.48-5.53-1-1-1-1-7.83-7.85l-9.87-9.86c-12.21-12.22-13.39-13.4-14.33-14.39a19.21,19.21,0,0,0-2.48-2.53c-.34-.25-1.65-1.19-1.85-1.73a.9.9,0,0,0-.4-.53c-.1,0-.18,0-.19-.08s.88-.53,1.07-.61c.93-.39,1.77-1,2.68-1.41,5-2.51,10-5.17,15-7.74,12.7-6.52,19.06-9.78,19.28-10,0,0,.71-.72,1-.55s.09.36.39.8c.17.25.27.26.5.58a3.63,3.63,0,0,1,.3.57c.23.55,1.06,1.93,1.89,3.32,1.31,2.2,2.59,4.43,3.93,6.62,2.36,3.87,4.81,8.13,8.28,14.15,0,0,6.83,11.84,9.27,15.85l.58.93.66,1.09c.31.52.3.54.35.56.64.33,2.94-3,4.25-4.73.14-.2,2-2.29,5.72-6.47s4.76-5.27,7.19-8.06,3.51-4,3.77-4.36c.37-.49.83-.92,1.2-1.41s.46-.64.62-.61.27.84.32,1.33a9.9,9.9,0,0,0,1.28,3.48,37.74,37.74,0,0,1,1.69,5.37c.55,1.94,1.59,5,3.66,11.18,2.73,8.13,2.75,7.72,2.77,8.08,0,.16,0,.8.3.88s1-1,2-2.64c1.42-2.25,1.26-1.68,2.36-3.48.63-1,1.36-2.48,2.83-5.4.22-.43.7-1.4,1.23-2.71a9.92,9.92,0,0,0,.77-2.42,5,5,0,0,0-3.34-5.93,7.94,7.94,0,0,0-4.58-.16,4.23,4.23,0,0,0-1.43.58,9.54,9.54,0,0,0-1.1,1,2.48,2.48,0,0,1,.72-1.17,5.3,5.3,0,0,1,2.14-1.2,16,16,0,0,1,1.93-.56,8,8,0,0,1,1.41-.26c.32,0,.51,0,1-.05s.62-.06.88-.11a4.49,4.49,0,0,0,1.1-.4,7,7,0,0,0,1.84-1.41,15.11,15.11,0,0,0,2-2.61,20,20,0,0,0,1.68-3.32,46.27,46.27,0,0,0,2.36-8.22,76.54,76.54,0,0,0,.64-19,40.06,40.06,0,0,0-1.71-8.52,9.76,9.76,0,0,0-3-4.81,5.21,5.21,0,0,0-1.33-.88c-2.1-.88-4.35.28-7,1.68a18.92,18.92,0,0,0-5.18,3.67,12.76,12.76,0,0,0-2.82,3.83,12.27,12.27,0,0,0-1.07,4.47c-.06,1.64.29,1.9.08,3.59a15.22,15.22,0,0,1-.75,3,7.94,7.94,0,0,1-.91,2.18c-.08,0,.19-.86.35-2.21a19.78,19.78,0,0,0,.11-2.53c0-1.28-.08-1.61-.09-3.4a7.25,7.25,0,0,1,.12-1.75,7.77,7.77,0,0,1,.53-1.65,14.91,14.91,0,0,1,1.07-2c2.36-4,1.86-3.84,2.57-4.74a2.29,2.29,0,0,0,.5-1.17,1.33,1.33,0,0,0-.13-.85,1.44,1.44,0,0,0-1-.64c-.5-.07-.79.17-1.76.58-.44.2-.91.34-1.37.51,0,0-1.63.63-3.44,1.18a38.94,38.94,0,0,1-4.76.77c-.91.11-.87.1-6.29.68a21.71,21.71,0,0,1-2.75.22,14,14,0,0,0-2,0,7.21,7.21,0,0,0-2.14.5,5.15,5.15,0,0,0-1.14.64,6.71,6.71,0,0,0-1.45,1.65c-.73,1-1.1,1.48-1.2,1.65-1,1.42-1.08,1.94-2,3.16-.32.42-.81,1-.88,1a8.76,8.76,0,0,1,.59-1.25,11.22,11.22,0,0,0,.85-2.5c.07-.32,0-.09.24-1.87a6.87,6.87,0,0,0,.14-1.41,3.45,3.45,0,0,0-.64-1.75,5.4,5.4,0,0,0-2.36-1.44,10.16,10.16,0,0,0-5-.93s.93-.05,2.13-.1,1.13-.07,1.48-.06a7.32,7.32,0,0,1,2.08.27,14,14,0,0,1,2,1,10.9,10.9,0,0,0,1.77.77,7.75,7.75,0,0,0,2.43.19c.46,0,.84-.06,1.2-.1,1-.13,1.16-.22,1.85-.25.47,0,.53,0,1.2,0,.24,0,.34,0,1,0l1-.05c.77,0,1.41,0,2.28,0,1.6,0,1.44.1,2.1.07s.48-.05,2-.18c1-.09,1.12-.08,1.59-.14s1-.14,1.83-.32,2-.41,3.18-.78a25.11,25.11,0,0,0,4.55-1.77,30.09,30.09,0,0,0,5.61-3.87l1.79-1.62c1.3-1.17,1.55-1.4,1.89-1.73a17.92,17.92,0,0,0,1.84-1.94,9.38,9.38,0,0,0,1.45-3.11,11.08,11.08,0,0,0,.36-2.69,14.85,14.85,0,0,0-.18-2.59,21.2,21.2,0,0,0-1-4.31,17.22,17.22,0,0,0-1.72-3.59c-.21-.33-.34-.5-.68-1-.72-1.14-1.14-2-1.45-2.53-.59-1.11-1.07-1.85-2-3.34-.24-.36-1.07-1.65-2.45-3.54-.35-.5-2.48-3.42-4.89-6.23A103.43,103.43,0,0,0,1343.09,167a115,115,0,0,0-19.3-12.61c-4-2-8.39-3.93-8.39-3.93-2.31-1-2.34-.95-4.23-1.81a34.22,34.22,0,0,0-4.33-1.81,16.13,16.13,0,0,0-2.78-.69,16.53,16.53,0,0,0-6.47.63,3.65,3.65,0,0,0-2,1.12c-.24.32-.47.78-.53.75s.06-.29.1-.75a4.25,4.25,0,0,0,0-.69,8.26,8.26,0,0,0-1.44-3.46c-2-2.63-7.22-4.2-7.22-4.2a63.49,63.49,0,0,0-12.88-2.87c-4.65-.7-8.26-1.07-15.51-1.81-4-.41-5.73-.55-7.8-.64-2.47-.11-4.73-.08-9.25,0-3.09,0-5.54.1-8.45.39-.9.09-2,.22-3.42.48a27,27,0,0,0-5,1.33,10.35,10.35,0,0,0-3.1,1.55,6.54,6.54,0,0,0-2.46,3.56,5.44,5.44,0,0,0-.05,2.55c.13.57.32.85.48,1.71a10.19,10.19,0,0,1,.16,1.59c.07,1.42.11,2.13.11,2.77a16.18,16.18,0,0,1-.48,4.68,13.46,13.46,0,0,1-1.4,3.14,7.37,7.37,0,0,1-1.6,2.12,3.74,3.74,0,0,1-1.66,1c0-.08.67-.54,1.34-1.38a8.39,8.39,0,0,0,1.23-2.4,14.7,14.7,0,0,0,1-5.32,17.18,17.18,0,0,0-.43-3.56,25.93,25.93,0,0,0-.86-3.19,11.55,11.55,0,0,0-1.23-3,7.15,7.15,0,0,0-2.57-2.29c-1.92-1-3.9-.88-6.09-.59a73.67,73.67,0,0,0-10.8,2.29c-2.76.85-5.6,1.84-8.66,3a89.68,89.68,0,0,0-11.5,5.16c-4.57,2.53-9.3,5.54-9.3,5.54a9,9,0,0,1-1.39.85c-7.11,2.12-18.68-24.18-23-28.9-.18-.19-1.66-1.81-1.22-2.59a1.86,1.86,0,0,1,.64-.54,5.54,5.54,0,0,1,1.29-.63,10.17,10.17,0,0,0,2.19-1.33c.93-.63,1.39-.84,5.34-3,4.11-2.27,3.61-2,4.66-2.6A82.91,82.91,0,0,1,1163,113c4-1.61,5.94-2.41,8.5-3.3a135.9,135.9,0,0,1,14.17-4.05c4.32-1,7.75-1.56,14.44-2.66,8.43-1.37,12.65-2.06,18.77-2.71,3.93-.42,10.27-1,18.12-1.22,2.65-.08,9.65-.25,18.61.16,1.29.06,9.91.45,15.13,1.22.5.07,2.18.33,4.54.64s3,.36,4.6.58c2.23.31,3.85.61,5.24.86,8.44,1.5,8.45,1.4,11.55,2,6.07,1.2,10.56,2.52,14.87,3.77,3.14.92,7,2,12,3.89,1,.36,5.21,1.92,10.7,4.36,2.6,1.15,5.45,2.42,9.14,4.36a135.38,135.38,0,0,1,11.87,7.08c1.5,1,4.15,2.76,7.37,5.13,1.21.89,3.08,2.27,5.35,4.12,4.4,3.57,7.51,6.59,9.47,8.51,3.18,3.11,5.75,5.9,7.64,8a161.62,161.62,0,0,1,23.21,34.37,108.5,108.5,0,0,1,5.34,12.13,104.58,104.58,0,0,1,5,19.3,110.81,110.81,0,0,1,1.34,15.32,133.36,133.36,0,0,1-1,19.1c-.55,4.85-1.19,8.46-1.6,10.8a182,182,0,0,1-4.6,19.63,123,123,0,0,1-5.51,15.37,103.53,103.53,0,0,1-15.56,25.27,149.37,149.37,0,0,1-16,16.65,131.25,131.25,0,0,1-17.85,14,118.94,118.94,0,0,1-29.09,13.61,112.64,112.64,0,0,1-24,4.74c-3.07.25-16.43,1.19-29.73-1.92a90.62,90.62,0,0,1-11.28-3.46,48.29,48.29,0,0,1-8-3.56,45.22,45.22,0,0,1-11.23-9,24.44,24.44,0,0,0-4-3.83,14.08,14.08,0,0,0-5.5-2.81,21.72,21.72,0,0,0-4.28-.43c-1.3,0-1.41.05-2.72,0-1.81-.07-2.61-.25-4.28-.43-1.93-.19-2.66-.13-4.55-.21a69.84,69.84,0,0,1-7.32-.8c-6.19-.87-12.85-1.8-18.77-3.13-3.12-.71-6.2-1.54-6.2-1.54s-1.3-.34-2.35-.64a99.45,99.45,0,0,1-13.16-5.11,65.71,65.71,0,0,1-10.69-6c-12.54-9-17.57-22.68-18.39-25.64-.67-2.39-1.46-4.75-2.14-7.13a14.36,14.36,0,0,0-.91-2.71,13,13,0,0,0-4.49-5,25.44,25.44,0,0,0-4.06-2.07c-4.78-2.17-6.17-2.41-9-3.94a39.27,39.27,0,0,1-4.39-2.77c-7.82-5.51-13.85-14.1-15.61-16.65a89.66,89.66,0,0,1-8.5-15.21,86.08,86.08,0,0,1-6.36-23.62,88.62,88.62,0,0,1,1.55-29.68,108.21,108.21,0,0,1,8.39-24.63,94.66,94.66,0,0,1,5.4-10.22,99.52,99.52,0,0,1,10.11-13.34,54.66,54.66,0,0,1,6.09-6.44,53.92,53.92,0,0,0,4.44-3.83c.43-.46,1-.94,2.14-1.92.65-.55.85-.69,1.12-.74" transform="translate(-1.85 -1.62)"/><path class="cls-11" d="M1125.67,135.74c.14-.31,2.71-2.18,7.86-5.9,1.44-1.05,0,0,6.37-4.5a7.24,7.24,0,0,1,1-.69c4-1.38,7.57,12.09,19.5,23.22,1.65,1.54,5.74,5.17,4.8,7.58-.13.35-.67.79-1.76,1.67-2.48,2-3.61,2.52-5.52,4.16-1.32,1.13-1.54,1.54-1.94,1.83-5.3,3.84-34.19-19.12-30.31-27.37" transform="translate(-1.85 -1.62)"/></g></g><path class="cls-2" d="M159.85,79s.38,291.14.08,291-38,0-38,0l0-291Z" transform="translate(-1.85 -1.62)"/><path class="cls-6" d="M1465.06,322.16c.72-.42.84-.73,1.36-1a6.09,6.09,0,0,1,1.93-.42c.66-.07,3.42-.37,3.88,2.11.12.66.07,1.48.36,1.35s.57-1.33,1.3-2.5a9.39,9.39,0,0,1,5.32-3.71,7.43,7.43,0,0,1,3.71-.16c2.28.32,2.63,1.16,4.35.43.65-.27,2.41-.82,2.72-2.13,0-.06.15-.65-.07-.78s-1.07,1.12-2.61,1.47c-2.1.47-2.53-.66-4.64-.84a7.32,7.32,0,0,0-6.44,2.05c-.81.82-1.61,1.94-2.37,2.05-.6.09-.66-.52-1-1-1.19-1.69-4.38-.05-5.09.31-2.43,1.25-4.07,3.09-3.91,3.28S1465,322.22,1465.06,322.16Z" transform="translate(-1.85 -1.62)"/><path class="cls-6" d="M1488.93,343.39a4.52,4.52,0,0,1-.47-2.64c-.06-1.27-.68-3.14-2-3.76a2.26,2.26,0,0,0-.64-.2c-1.08-.19-2.09.35-5.82,1-.49.09-1.41.15-2.68.39a14.81,14.81,0,0,0-2.22.52c-1.89.74-2.47,2-4,2.33h0a2.34,2.34,0,0,1-1.06.12.93.93,0,0,1-.61-.88c0-.45.63-.61,1.38-1.12a6.69,6.69,0,0,0,1.57-1.54,6.13,6.13,0,0,1,.58-.33,10.39,10.39,0,0,1,1.73-.69c3.39-1.1,6.73.28,8.76-1.54.76-.69.26-.82,1.82-3,1.36-1.88,2-2.08,2-2.89,0-1.93-3.43-3.25-3.18-3.75.15-.31,1.61-.14,2.73.62a4.5,4.5,0,0,1,2,4.09c-.34,2.24-2.92,3.08-2.53,4.28a.68.68,0,0,0,.16.26,4,4,0,0,0,1.53.87c1.91.73,2.15,8.35,1.35,8.24C1489.19,343.82,1489.1,343.68,1488.93,343.39Z" transform="translate(-1.85 -1.62)"/></svg>