<svg id="Layer_1" data-name="Layer 1" xmlns="http://www.w3.org/2000/svg" xmlns:xlink="http://www.w3.org/1999/xlink" viewBox="0 0 1988.02 428.81"><defs><style>.cls-1,.cls-4,.cls-8{fill:none;}.cls-2{clip-path:url(#clip-path);}.cls-3{fill:#ffc627;}.cls-4,.cls-8{stroke:#fff;stroke-miterlimit:10;}.cls-4{stroke-width:0.25px;}.cls-5{fill:#fff;}.cls-6{clip-path:url(#clip-path-3);}.cls-7{opacity:0;}.cls-8{stroke-width:0.39px;}</style><clipPath id="clip-path" transform="translate(-6.61 -1.3)"><rect class="cls-1" x="5.22" width="1989.55" height="432.02"/></clipPath><clipPath id="clip-path-3" transform="translate(-6.61 -1.3)"><rect class="cls-1" x="1078.8" y="80.51" width="368.81" height="351.51"/></clipPath></defs><g class="cls-2"><g class="cls-2"><path class="cls-3" d="M618.78,368.45c-12.62.07-25.42-.06-38,0,1.41-27.55,2.13-54.51,2-73.4-.15-23.94-1-39.63-5.55-58.35a139.49,139.49,0,0,0-10.74-29.94,142.35,142.35,0,0,0-18.33-27.13c-17.57-19.81-42.44-29.92-44.41-30.7-37.68-14.91-70.41-4.7-84.26-.38a102.7,102.7,0,0,0-26.19,12.17,98.19,98.19,0,0,0-23.11,20.92,78.69,78.69,0,0,0-13.24,22.81c-4.35,12.05-4.89,23.58-5.24,30.92,0,.75-.11.06-.16,6.25,0,3.39-.69,22.85-.82,26.3-.47,12.34-.21,22.66,0,56.57.06,9.51.13,23.54.16,40.78l-35-.07c.28-10.9.55-28.2.15-49.58-.5-27-1.68-37.88-1.54-63.6.15-27.07.29-40.88,4.12-54.41a128.82,128.82,0,0,1,21.06-41.8,143.6,143.6,0,0,1,50.51-38.93,148.16,148.16,0,0,1,17.67-6.49c4.34-1.24,8.42-2.16,12.16-2.85a146.32,146.32,0,0,1,20-2.07h.21c11.86-.58,23.37-.27,25.1-.21,37.81,1.42,65.1,14.23,65.17,14.27,18.83,9.1,55,30.28,73.34,70.74,8.43,18.57,12,38.86,13.25,45.66.53,3,.84,5.25,1.1,7,3.13,21.67,3.1,39.47,3,52.95-.28,26.63-1.37,53.66-2.29,72.61" transform="translate(-6.61 -1.3)"/><path class="cls-3" d="M279,77.69s-272.55.38-272.4.08,0-37.86,0-37.86l272.4,0Z" transform="translate(-6.61 -1.3)"/><path class="cls-4" d="M1186.84,178.76c0,.33-3-.11-6.87,1-2.12.6-6.07,1.76-7.85,5a10.23,10.23,0,0,0-1,4.34c-.23,2.56-.41,4.62.7,6,1.62,2,4-.05,7.85,1.76,2.64,1.22,2.48,2.59,6.73,5,2.47,1.42,3.49,1.52,3.92,1.54a9.08,9.08,0,0,0,5.82-2.24c.77-.69,1.2-1.34,1.33-1.26s-.35,2-1.54,3.22c-2.55,2.72-6.45,2.42-6.86,2.39-1.9-.18-3.46-1.1-6.59-2.95s-2.9-2.19-4.49-2.8a11.93,11.93,0,0,0-8.41.14c-1.11.46-3.67,1.53-4.35,3.79-.34,1.13.07,1.67.28,3.64.13,1.12.47,4.35-.56,6.59-1.82,3.93-8.09,4.72-8.13,4.62a15.44,15.44,0,0,0,3.29-1.89,8.1,8.1,0,0,0,2.32-2.31,7.05,7.05,0,0,0,.77-4.07c-.16-4.83-2-5.46-1.33-7.42.91-2.85,4.9-2.24,6.3-5.76.27-.67.23-.93.28-4.2a77.06,77.06,0,0,1,.29-7.71c1.37-4.55,7.5-7.09,11.92-7.43C1184,177.53,1186.86,178.43,1186.84,178.76Z" transform="translate(-6.61 -1.3)"/><path class="cls-4" d="M1153.27,226.75c.29-.06.29,2.55,2.06,4.59.25.3,2.05,2.38,4.35,2.27,1.78-.09,2.09-1.08,6.35-4.34.47-.35,1.4-.9,2.61-1.84a16.17,16.17,0,0,0,2.07-1.76c1.62-1.82,1.62-3.51,3-4.72a7.27,7.27,0,0,1,1-.68c2.88-1.51,4-.18,11.82-.48a37.31,37.31,0,0,0,10.9-1.55c3.39-1.1,7.17-2.39,9.7-6.18a12.32,12.32,0,0,0,2.2-6.57c.11-4.5-2.52-7.82-3.66-9.29-3.21-4-5.54-3.55-7.14-7.24a12.24,12.24,0,0,1-.83-6.38,14,14,0,0,1,2.84-6.47c4.39-6,11.34-8.21,11.53-7.83.09.14-1.09.72-3.29,2.61-3.67,3.15-8,6.85-8,11.69a9.6,9.6,0,0,0,1.27,4.8c1.38,2.46,3.31,3.23,4.77,4.32,3.78,2.83,5.45,8.51,5.4,12.43-.12,8-7.58,13.85-12.79,16a24.83,24.83,0,0,1-7.18,1.65c-8.38,1-12.11-1.79-16.2,1-1.31.86-1.27,1.48-2,2.69a11.44,11.44,0,0,1-1.92,2.36c-3,3-7.19,3.2-8.42,6.34-.46,1.16.14,1-.44,4.29-.5,2.83-1,3.39-.67,4.31.89,2.19,5.18,1.86,5.17,2.56,0,.43-1.62,1-3.16.72a5.29,5.29,0,0,1-4.07-3.57c-.75-2.69,1.53-5,.53-6.15-.46-.52-1-.12-2.32-.38-2.6-.53-4.6-3-5.37-5.28C1152.75,228.71,1153,226.79,1153.27,226.75Z" transform="translate(-6.61 -1.3)"/><path class="cls-4" d="M1206.57,281.94a2.17,2.17,0,0,1-1.07-2.17c.06-.47.3-.81.47-1.89.09-.57,0-.62,0-.63-.18-.07-1.12,1.21-1.63,2.63-.91,2.58-.14,3.49-1.12,4.51s-1.91.74-2.52,2a3.43,3.43,0,0,0-.3,1.06c-.47,2.45.34,5.86.72,5.81s-.64-2.71.78-5.4c1.13-2.14,3.24-3.32,5.1-4.37a11.7,11.7,0,0,1,3.47-1.52c3.68-.82,5,1.37,8.86.64a8.45,8.45,0,0,0,3.71-1.69,6.16,6.16,0,0,0,2.26-3.81c.06-.52,0-1.38-.21-1.44s-.5.5-.79,1a12.43,12.43,0,0,1-2.79,2.87,9.46,9.46,0,0,1-3.37,1.52c-4.08.89-6.21-2.15-8.89-.8C1207.89,280.88,1207.4,282.19,1206.57,281.94Z" transform="translate(-6.61 -1.3)"/><path class="cls-4" d="M1238.36,266.06c.87-3.22,2.3-5,2.13-5.16s-2.07,1.55-3.31,4.29c-.48,1-2.24,4.9-1.13,8.65,1,3.52,3.58,3.51,4.35,7.36a13.09,13.09,0,0,1,0,4.2c-.37,3.87-1.35,4.23-1.69,7.37-.07.6-.59,6,2,8.51.85.83,1.92,1.15,2,1s-1.59-1.18-2.25-3.37a15.51,15.51,0,0,1-.23-4.63,8,8,0,0,1,.07-1.52c.36-1.77,1.71-2.59,2.23-5.73.72-4.35-1.17-6.65.18-8.3.58-.72,1.84-.87,4.35-1.16a32.21,32.21,0,0,1,3.73-.21c5,0,7.53.07,10.18.77,2.26.6,3.59,1.3,4.5,2.66.2.29,1.23,1.83.82,3-.34,1-1.47,1.14-1.41,1.47s1.28.63,2,0c1-.84.79-3,.41-4.35a7.09,7.09,0,0,0-3.31-4c-.38-.24-1.6-1-5-1.4a45.06,45.06,0,0,0-6.4-.14c-3.76.07-5.63.1-6.38.14-2.59.14-3.24.28-4.39-.14a6.18,6.18,0,0,1-3.79-3.5C1237.3,269.94,1237.81,268.05,1238.36,266.06Z" transform="translate(-6.61 -1.3)"/><path class="cls-4" d="M1218,189.2c.39-.14-1.33-3.1-.14-5.74.88-2,2.9-2.76,5-3.57,1.26-.51,6.55-2.6,10.65-.29,1.09.62,2,1.51,2.45,1.19s-.52-1.76-.52-3.47c0-3.7,4.84-6.53,6.2-7.32a23.47,23.47,0,0,1,7.42-2.56c5.08-1.13,6.86-.47,9.48-2.35,1.64-1.18,1.18-3.36,2.86-4a5.35,5.35,0,0,1,2.83.1,4.87,4.87,0,0,0-4-.87c-1.76.44-1.86,2.4-3.5,3.22-3.7,1.85-6,.94-10.59,2.1-3.16.81-8.72,2.22-10.59,6.31-.64,1.39-.85,3.08-2.27,3.68-1.12.48-2-.12-3.36-.42-4.59-1-9.06,2.77-10.06,3.61-1.55,1.32-3.78,3.2-3.85,6C1215.93,187.26,1217.62,189.33,1218,189.2Z" transform="translate(-6.61 -1.3)"/><path class="cls-4" d="M1289.46,161.57a1,1,0,0,1,.43.72c.21,1.34-2.14,1.76-3.46,4.22-.76,1.41-1.08,3.3-.35,4.51a1.3,1.3,0,0,0,.17.25c.34.41,1,.73,3,1.44a30.46,30.46,0,0,0,5.89,1.76c2.77.41,4.52.06,4.54.29s-2.22,1.19-4.93,1.12-3.5-1-7.53-1.48c-1.27-.15-2.21-.18-3.32-.21a48.59,48.59,0,0,0-7,.28,29.46,29.46,0,0,0-13,4.94c-3.79,2.87-8.22,8.07-8.36,12.3,0,.75,0,4.85-.17,6.73a11.54,11.54,0,0,0-.07,1.77c.06,1,.23,1.31.07,1.61-.3.59-1.71.51-3.24.43-2.56-.14-3.84-.21-4.75-.19a17.73,17.73,0,0,0-4.7,1c-4,1.24-8,2.5-11.83,6.14l-.64.63a30,30,0,0,0-6.82,10.81,29.26,29.26,0,0,0-1.48,7.83,25.61,25.61,0,0,0,0,6.13,31.16,31.16,0,0,1,.7,7.55c-.07,1.15-.19,1.57-.36,1.6-.49.07-1.33-3-1.83-4.87a45.71,45.71,0,0,1-1.82-8.22c-.36-4.79,1.32-8.51,2.92-12.05,1.69-3.74,5-11.12,12.71-15.48a31.26,31.26,0,0,1,9.65-3.38,16.86,16.86,0,0,1,4.81-.46c1.59.2,2.69.73,3.51.11.54-.41.69-1.1.75-2.12.24-4.13-.21-5.86.24-8a11.56,11.56,0,0,1,1.29-3.28,22.22,22.22,0,0,1,7.09-7.93,35.27,35.27,0,0,1,14.27-5.18,9.12,9.12,0,0,0,3.68-.93c.18-.12.43-.28.73-.52,2-1.57,3-4,4.7-6.25C1286.19,163.6,1288.46,161.09,1289.46,161.57Z" transform="translate(-6.61 -1.3)"/><path class="cls-4" d="M1245.86,213.11c.09.15,1.08-.27,1.2-.33a8.67,8.67,0,0,0,2.16-1.5c2.33-1.64,7.24,1.82,7.64,2.11a4.64,4.64,0,0,1,1.9,2.24,4.16,4.16,0,0,1,.14,2,27.61,27.61,0,0,0,0,9.18,13.87,13.87,0,0,0,1.89,4.28,11.84,11.84,0,0,0,3.36,3.85c1.34,1,3.08,1.52,3.3,1.2s-1.62-1.55-3.07-3.48a15,15,0,0,1-2.68-8.09c-.1-1.11-.48-5.61,2.94-12.76,2.33-4.85,6.07-12.65,14.86-17.59,5.6-3.14,10.64-3.67,16.33-4.27a44.16,44.16,0,0,1,16.62.91,28.5,28.5,0,0,1,10.86,4.76,21.91,21.91,0,0,1,8.34,11.22c1.51,5,1.21,11.67-1.39,13.48-.3.21-1.23.77-1.13,1s1.51.26,2.66-.28c3.23-1.53,3.1-8,3.08-9-.12-6.83-4-11.79-5.47-13.66a28.19,28.19,0,0,0-10.58-8.07,33.31,33.31,0,0,0-8.9-2.59,52.68,52.68,0,0,0-15.77-.21c-6.28.83-12.92,1.71-19.55,6.52a39,39,0,0,0-8.6,9.14c-1.85,2.84-2.77,4.27-3.18,6.14-.28,1.24-.23,2.06-.84,2.38-1.25.68-2.75-2.15-6.17-2.66a10.34,10.34,0,0,0-5.47.84C1247.75,210.94,1245.71,212.85,1245.86,213.11Z" transform="translate(-6.61 -1.3)"/><path class="cls-4" d="M1310.4,205.38c.3.21-4.18,5.25-6.22,13.48a35.36,35.36,0,0,0-.71,13.35c.51,3.64,2,13.81,9.53,18.86,4.15,2.76,9.43,3.5,11.8,3.84.09,0,1.81.13,5.23.36,3.09.21,3.78.3,4.35-.27,1.13-1.12,1-4-.16-5.31a6,6,0,0,1-1.12-1.36c-.37-.67-.74-1.68-.53-1.82.39-.28,3.55,2,4.57,5.71a9.7,9.7,0,0,1-2.44,9.3c-2.14,2.09-5.2,2.44-5.34,2.13s1.4-1.35,2-1.75a8.24,8.24,0,0,0,1.31-1c.12-.13,1.34-1.46,1-2.34-.24-.7-1.33-.85-7.57-1.42-1.54-.14-1.41-.14-1.74-.16a57.23,57.23,0,0,1-7.47-1.06,19.88,19.88,0,0,1-10-5.75,22.3,22.3,0,0,1-5-9.75,33.35,33.35,0,0,1-1-11.39,37.87,37.87,0,0,1,2.82-13.79C1306.28,209.17,1310.13,205.19,1310.4,205.38Z" transform="translate(-6.61 -1.3)"/><path class="cls-3" d="M164.41,74.58s.38,294.05.08,293.89-37.86,0-37.86,0l0-293.89Z" transform="translate(-6.61 -1.3)"/><path class="cls-3" d="M352.56,41.48s.44,328.47.09,328.29-43.28,0-43.28,0l0-328.29Z" transform="translate(-6.61 -1.3)"/><path class="cls-3" d="M702.42,110.35s.38,258.24.08,258.1-37.86,0-37.86,0l0-258.1Z" transform="translate(-6.61 -1.3)"/><path class="cls-3" d="M1598.14,80.31s.39,289,.08,288.86-37.74,0-37.74,0q0-65.46,0-130.91,0-79,0-157.95Z" transform="translate(-6.61 -1.3)"/><path class="cls-3" d="M1684.69,148.05s-204.76.34-204.64.07,0-32.87,0-32.87l204.64,0Z" transform="translate(-6.61 -1.3)"/><path class="cls-3" d="M800.28,111.63s.38,259.34.07,259.21-37.85,0-37.85,0l0-259.21Z" transform="translate(-6.61 -1.3)"/><path class="cls-3" d="M1067,369.87l-37.83.19c1.41-27.56,1.71-51.28,1.59-70.17-.14-23.94-1-39.63-5.55-58.35a139.75,139.75,0,0,0-10.73-29.94,142.67,142.67,0,0,0-18.34-27.13c-17.57-19.81-42.43-29.92-44.41-30.7-37.68-14.91-70.41-4.7-84.26-.38a103,103,0,0,0-26.19,12.17,97.93,97.93,0,0,0-23.11,20.93A78.4,78.4,0,0,0,805,209.29c-4.36,12.06-4.9,23.59-5.24,30.92a54.34,54.34,0,0,0-.17,6.25c0,3.4-.68,22.85-.82,26.3-.47,12.34-.21,22.66,0,56.56.07,9.52.14,23.55.16,40.78l-35-.06c.27-10.9.54-28.2.14-49.58-.5-27-1.68-37.88-1.54-63.6.15-27.07.29-40.87,4.12-54.41a128.91,128.91,0,0,1,21-41.81,143.73,143.73,0,0,1,50.52-38.92,146.14,146.14,0,0,1,17.67-6.49c4.35-1.24,8.42-2.16,12.16-2.84a144.51,144.51,0,0,1,20-2.08h.21c11.86-.58,23.38-.27,25.1-.21,37.81,1.42,65.1,14.24,65.17,14.27,18.83,9.1,55,30.29,73.34,70.73,8.44,18.58,12,38.87,13.25,45.67.53,3,.84,5.24,1.1,7,3.13,21.67,3.1,39.47,3,53-.28,26.63-1.14,50.24-2.07,69.19" transform="translate(-6.61 -1.3)"/><path class="cls-3" d="M1751.1,115.21S1864,354.62,1863.69,354.63s-34.15,17.09-34.15,17.09l-119.9-256.51Z" transform="translate(-6.61 -1.3)"/><polygon class="cls-3" points="1822.76 370.42 1860.33 370.42 1841.55 352.2 1822.76 370.42"/><path class="cls-3" d="M1953.27,115.21S1833,354.62,1833.33,354.63s34.15,17.09,34.15,17.09l127.15-256.51Z" transform="translate(-6.61 -1.3)"/><path class="cls-3" d="M649.92,16.84a31.43,31.43,0,0,1,7.44-7.57A36,36,0,0,1,664.75,5a41.46,41.46,0,0,1,10.72-2.83,63.75,63.75,0,0,1,9.44-.83A59.81,59.81,0,0,1,695.05,2c4.64.74,14.36,2.31,22.87,9.73a39.48,39.48,0,0,1,6.92,8,32.84,32.84,0,0,1,4.81,10.47c2.51,10.74-2.5,22.37-2.5,22.37a39.12,39.12,0,0,1-6.74,9.54,34.66,34.66,0,0,1-7.42,5.6,28.73,28.73,0,0,1-7,3,26.45,26.45,0,0,1-8.93.91c-5.16-.42-8.86-2.34-9.81-3.26-.61-.59-1.29-1.11-1.85-1.73a4.27,4.27,0,0,0-1.12-1,3.86,3.86,0,0,0-1.84-.48c-13.71-.38-18.25-4.84-18.25-4.84-1.14-1.13-4.14-4.67-4.77-7.5a4,4,0,0,0-1.06-2.19c-.54-.54-1-.65-2.58-1.37-.64-.3-1.25-.65-1.89-1-1.37-.71-5.56-4.53-7.42-10.68-3.17-10.46,2.78-19.74,3.49-20.81" transform="translate(-6.61 -1.3)"/><path class="cls-4" d="M711.19,31c-.33.08-.11,1.23-.6,3.39a5.31,5.31,0,0,1-.67,2c-.73,1-2.17,1.88-3,1.5-.35-.16-.83-.65-1-.51l0,0a3.15,3.15,0,0,0,0,1.89c.58,1.89-1.08,4.21-1.23,4.42a10.11,10.11,0,0,1-2,1.84,13.93,13.93,0,0,0-2.29,2.07,6,6,0,0,0-.55.75c-.2.34-1,1.74-.48,2.54,0,0,.28.39.51.33s.09-1.21.82-2.15c1.09-1.38,2.06-1.08,3.55-2.14a5.91,5.91,0,0,0,3-4.55c0-.85-.13-1.83.3-2.3s.76-.11,1.28-.06c1.81.17,2.91-2.39,3.15-3a5.83,5.83,0,0,0,.56-3.75C712.24,32.08,711.54,30.88,711.19,31Z" transform="translate(-6.61 -1.3)"/><path class="cls-4" d="M662.83,26.59c.71-.42.83-.73,1.35-1a6.11,6.11,0,0,1,1.92-.43c.66-.07,3.4-.37,3.86,2.12.13.66.08,1.47.36,1.35s.57-1.33,1.29-2.51a9.5,9.5,0,0,1,5.3-3.71,7.35,7.35,0,0,1,3.69-.16c2.27.33,2.62,1.17,4.33.44.66-.28,2.41-.82,2.71-2.13,0-.06.16-.65-.06-.78s-1.07,1.11-2.6,1.46c-2.09.48-2.52-.65-4.62-.84A7.24,7.24,0,0,0,674,22.5c-.81.82-1.6,1.94-2.36,2.05-.6.09-.66-.53-1-1-1.18-1.7-4.36-.06-5.07.31-2.41,1.24-4,3.09-3.89,3.28S662.75,26.64,662.83,26.59Z" transform="translate(-6.61 -1.3)"/><path class="cls-4" d="M692.91,46.75a4.5,4.5,0,0,1-.46-2.64c-.06-1.27-.68-3.14-2-3.76a1.94,1.94,0,0,0-.64-.2c-1.07-.19-2.08.35-5.79,1-.49.09-1.41.16-2.67.4a14.58,14.58,0,0,0-2.21.52c-1.88.74-2.46,2-4,2.33h0a2.29,2.29,0,0,1-1,.12.92.92,0,0,1-.6-.88c0-.45.63-.61,1.37-1.12A6.5,6.5,0,0,0,676.44,41c.12-.07.3-.19.58-.33a10.59,10.59,0,0,1,1.72-.69c3.37-1.1,6.7.28,8.73-1.54.75-.69.25-.82,1.8-3,1.36-1.88,2-2.09,2-2.9,0-1.92-3.42-3.24-3.17-3.75.15-.31,1.6-.13,2.71.63a4.45,4.45,0,0,1,2,4.09c-.33,2.23-2.9,3.08-2.51,4.28a.68.68,0,0,0,.16.26,4.09,4.09,0,0,0,1.52.87c1.91.72,2.14,8.35,1.34,8.24C693.17,47.18,693.09,47,692.91,46.75Z" transform="translate(-6.61 -1.3)"/><path class="cls-5" d="M1500.73,322.75c-.33.08-.11,1.23-.59,3.39a5.08,5.08,0,0,1-.69,2c-.72,1.05-2.16,1.88-3,1.51-.35-.16-.83-.64-1-.51l0,.05a3.23,3.23,0,0,0,0,1.89c.58,1.89-1.08,4.21-1.23,4.43a10.13,10.13,0,0,1-2,1.83,13.93,13.93,0,0,0-2.29,2.07,7,7,0,0,0-.55.75c-.2.34-1,1.74-.49,2.54,0,0,.29.39.52.33s.08-1.21.83-2.15c1.08-1.39,2-1.08,3.54-2.15a5.85,5.85,0,0,0,3-4.55c0-.84-.13-1.82.3-2.3s.76-.1,1.28-.05c1.82.17,2.91-2.4,3.15-3a5.74,5.74,0,0,0,.56-3.74c-.28-1.23-1-2.43-1.33-2.35" transform="translate(-6.61 -1.3)"/><path class="cls-5" d="M1452.37,318.38c.71-.42.84-.73,1.35-1a6.38,6.38,0,0,1,1.92-.42c.66-.07,3.41-.37,3.87,2.11.12.67.07,1.49.36,1.37s.56-1.34,1.28-2.51a9.39,9.39,0,0,1,5.3-3.71,7.24,7.24,0,0,1,3.69-.16c2.28.32,2.62,1.15,4.33.43.65-.28,2.41-.83,2.72-2.13,0-.06.15-.65-.07-.78s-1.07,1.11-2.61,1.46c-2.08.47-2.51-.65-4.61-.84a7.28,7.28,0,0,0-6.42,2c-.8.83-1.59,2-2.35,2.05-.6.1-.66-.52-1-1-1.19-1.7-4.37-.05-5.08.31-2.41,1.25-4,3.09-3.89,3.28s1.13-.48,1.21-.53" transform="translate(-6.61 -1.3)"/><path class="cls-3" d="M1444.61,314.3a31.15,31.15,0,0,1,7.45-7.58,36,36,0,0,1,7.37-4.3,41.62,41.62,0,0,1,10.72-2.82,62.85,62.85,0,0,1,9.44-.84,61,61,0,0,1,10.15.71c4.64.75,14.35,2.32,22.87,9.74a39.65,39.65,0,0,1,6.92,8,32.84,32.84,0,0,1,4.81,10.47c2.51,10.75-2.5,22.37-2.5,22.37a38.92,38.92,0,0,1-6.74,9.54,34.93,34.93,0,0,1-7.42,5.61,29.17,29.17,0,0,1-7,3,26.61,26.61,0,0,1-8.94.92c-5.14-.43-8.86-2.35-9.8-3.27-.61-.59-1.29-1.1-1.85-1.73a4.1,4.1,0,0,0-1.12-1,3.86,3.86,0,0,0-1.84-.48c-13.71-.38-18.25-4.84-18.25-4.84-1.14-1.12-4.14-4.67-4.77-7.5a4,4,0,0,0-1.06-2.19,8.59,8.59,0,0,0-2.58-1.36c-.64-.3-1.25-.66-1.89-1-1.37-.71-5.56-4.53-7.42-10.67-3.17-10.47,2.78-19.75,3.49-20.81" transform="translate(-6.61 -1.3)"/><path class="cls-4" d="M1505.88,328.42c-.33.07-.11,1.22-.59,3.38a5.2,5.2,0,0,1-.69,2c-.72,1-2.15,1.88-3,1.5-.35-.16-.83-.64-1-.5a.05.05,0,0,0,0,0,3.14,3.14,0,0,0,0,1.89c.58,1.89-1.08,4.21-1.23,4.43a9.84,9.84,0,0,1-2,1.83,13.54,13.54,0,0,0-2.29,2.07,6,6,0,0,0-.55.75c-.21.34-1,1.74-.48,2.54,0,0,.27.39.51.33s.08-1.21.82-2.15c1.09-1.39,2-1.08,3.55-2.15a5.89,5.89,0,0,0,3-4.54c0-.85-.13-1.83.3-2.3s.76-.11,1.28-.06c1.82.17,2.91-2.39,3.15-3a5.8,5.8,0,0,0,.56-3.74C1506.93,329.53,1506.23,328.33,1505.88,328.42Z" transform="translate(-6.61 -1.3)"/><path class="cls-4" d="M1457.52,324c.71-.42.84-.73,1.35-1a6.09,6.09,0,0,1,1.92-.42c.66-.08,3.4-.38,3.87,2.11.11.66.07,1.48.35,1.35s.57-1.33,1.29-2.5a9.38,9.38,0,0,1,5.29-3.71,7.39,7.39,0,0,1,3.7-.16c2.27.32,2.62,1.16,4.33.43.65-.27,2.41-.83,2.71-2.13,0-.07.16-.65-.07-.78s-1.06,1.11-2.6,1.46c-2.08.48-2.52-.65-4.61-.83a7.23,7.23,0,0,0-6.42,2.05c-.8.81-1.59,1.94-2.35,2-.6.1-.66-.51-1-1-1.18-1.7-4.36-.06-5.07.31-2.41,1.25-4,3.09-3.89,3.28S1457.44,324.1,1457.52,324Z" transform="translate(-6.61 -1.3)"/><path class="cls-4" d="M1487.6,344.2a4.49,4.49,0,0,1-.46-2.63c-.07-1.28-.69-3.15-2-3.78a2.44,2.44,0,0,0-.64-.19c-1.07-.19-2.08.35-5.8,1-.48.08-1.4.15-2.66.39a13.42,13.42,0,0,0-2.21.52c-1.88.74-2.46,2-4,2.33a2.19,2.19,0,0,1-1.06.12.92.92,0,0,1-.6-.88c.06-.45.63-.6,1.38-1.12a6.14,6.14,0,0,0,1.55-1.54c.12-.07.31-.19.59-.34a12,12,0,0,1,1.71-.68c3.39-1.1,6.7.29,8.73-1.54.76-.69.26-.82,1.81-3,1.36-1.88,2-2.09,2-2.9,0-1.92-3.42-3.24-3.17-3.75.15-.31,1.6-.14,2.71.63a4.5,4.5,0,0,1,2,4.09c-.34,2.24-2.91,3.08-2.52,4.28a1,1,0,0,0,.15.27,3.93,3.93,0,0,0,1.53.85c1.91.74,2.14,8.36,1.34,8.25C1487.86,344.63,1487.78,344.49,1487.6,344.2Z" transform="translate(-6.61 -1.3)"/><path class="cls-5" d="M1165.73,140.08c57.8-41.74,127.88-15.73,130.74-14.62C1367,152.94,1418.14,242.25,1389.86,296c-27.38,52-117.07,47.64-125.87,47.1-54.32-3.32-90.66-32.77-103.94-43.85-20.46-17.06-40.8-34-45.48-61.72C1105.64,184.68,1162.21,142.62,1165.73,140.08Z" transform="translate(-6.61 -1.3)"/></g><g class="cls-6"><g class="cls-7"><path class="cls-5" d="M1160,161.51a83.65,83.65,0,0,0-28.34,45.68c-1.62,7.25-3.22,15.09-.45,24.45,2.4,8.1,7.49,13.9,10.07,16.9a27.62,27.62,0,0,0,6.83,6.15,50.52,50.52,0,0,0,7.78,3.4,42.72,42.72,0,0,0,5.85,2,31.74,31.74,0,0,0,7.7.74,20.24,20.24,0,0,0,6.23-.64c2-.58,2.41-1.14,4.89-2.22a44.22,44.22,0,0,1,6.22-2c7.73-2.09,11.6-3.13,15.56-2.86a46.61,46.61,0,0,1,9.78,1.67c2.37.75,3.17,1.28,4.45.88,3.15-1,6-5.48,5.09-8.22a7.19,7.19,0,0,1-.5-2.55,3.23,3.23,0,0,1,.69-2.17c.29-.34.65-.56.72-.5s-.31.5-.4,1.21a2.53,2.53,0,0,0,0,.74c.26,1.5,1,2.59,1.23,4.19.17,1,0,1,.17,1.21.72.81,3.34-.32,10-3.8s6.21-3.51,7.38-3.83c5.26-1.41,7.21.9,10.74-1.16a58.23,58.23,0,0,0,5.11-3.79,12.55,12.55,0,0,0,1.19-1c.55-.6.79-1.05,1-1s.18.55.14.86a2.21,2.21,0,0,1-.42,1c-1.29,1.72-3.28,3.47-3.1,4.27.21,1,4.06,1.24,7.67.89a25.09,25.09,0,0,0,10.43-2.88c3.51-1.93,7.69-5.42,8.23-8.45.12-.67.49-3.79,0-4.85,0-.08-.24-.49-.11-.6s.58.19.63.22a3.15,3.15,0,0,1,1.07,2,11.39,11.39,0,0,1-.85,6.41c-2,4-5.27,4.41-5,6.3a2.73,2.73,0,0,0,.07.29c.37,1.34,1,3.85,3.1,5.27a6.17,6.17,0,0,0,2.29,1c.92.18,1.67.08,1.72.29s-.14.3-1.09.73a5.24,5.24,0,0,1-5.14-1.52c-1.06-2.24-2.21-3.67-2.59-3.8a4.45,4.45,0,0,0-.56-.16l-.5-.1a10.47,10.47,0,0,0-4,.43c-.62.21-5.17,1.75-7.11,2.2-.64.15-4-.24-10.61-1a37.61,37.61,0,0,0-8.07.06,10.47,10.47,0,0,0-1.71.38c-1.65.48-2.41,1-5.56,2.67-10.8,5.88-12,5.88-14.67,8.55s-4.2,4.16-4.63,6.45a13,13,0,0,1-1.45,4.26c-.13.23-1.15,2-1.59,1.86-.08,0-.46-.21,0-2.9.49-2.89.82-5,0-6.33-.34-.56-.92-1-4-1.67a32.74,32.74,0,0,0-7.33-1.11,34.46,34.46,0,0,0-14.67,2.22c-3.7,1.51-9.95,4.1-12.56,10.45a16.41,16.41,0,0,0-1.11,7c.15,6.21,3.18,10.67,6.76,15.81,2.71,3.91,5.49,7.91,10.14,11.53,9.49,7.42,20,7.95,31.22,8.67,8.72.57,17.78,1.15,24.68-2.67a26.3,26.3,0,0,1,7.89-3.1,29.75,29.75,0,0,1,9.56-.23c9.9.85,13.91,3.55,19,1.26.9-.4,2.31-1.19,2.41-1s-2,2.09-4.48,3.26c-.87.4-3.59,1.55-9.19,1.18-6.63-.43-8.5-2.43-9.78-1.34-2.17,1.84,0,10.14,5.11,15.79,7.32,8.09,18.7,8.45,25.23,8.67a54.9,54.9,0,0,0,25.69-5.68c5.77-2.73,9.73-5.79,15.32-10.1a93.38,93.38,0,0,0,13.29-12.24q1.71-1.95,3-3.66c11.06-11.7,12.63-15.17,15.78-22.12.64-1.39,1.7-4,.56-6a5,5,0,0,0-2-1.77,6,6,0,0,0-3.89-.45,5.23,5.23,0,0,0-2.66,1.31c-.92.91-1.06,1.88-1.29,1.83s-.56-1.86.28-3.25c1-1.73,3.49-2.23,4.89-2.56,2.11-.5,2.54-.24,3.56-.55s3.4-1.3,5.89-7.12c1.84-4.31,2.3-8.08,2.67-12.67,1.07-13.67.09-20.3-2.34-24.67-.91-1.64-2-3-3.63-3.37-.54-.14-1.94-.37-5.15,1.48-2.88,1.66-7.71,4.5-8.92,9.6-.48,2.07.21,2-.36,6.41a14.19,14.19,0,0,1-2.75,6.54c-.2.24-.48.53-.64.46-.4-.18.52-2.25.78-4.63.53-4.84-.56-6.12.54-9.25a35.09,35.09,0,0,1,1.79-3.57c1.92-3.6,2.83-4.74,2.45-5.19s-1.88.47-4.67,1.41a42.65,42.65,0,0,1-9.71,1.74c-3.94.42-5.91.63-6.41.63-1.48,0-2.9-.14-4.29.74a6.71,6.71,0,0,0-1.85,2c-2.51,3.47-2.44,4.32-3.91,5.59-.48.4-2.24,1.86-4.06,1.47a3,3,0,0,1-1.5-.76,5.38,5.38,0,0,0,1.58.27,3.62,3.62,0,0,0,2.39-1.27,6.13,6.13,0,0,0,.89-1.62,12.8,12.8,0,0,0,1.17-4.27,3.82,3.82,0,0,0-.2-2.33c-.39-.71-1-1-2.07-1.48a10.41,10.41,0,0,0-3.86-.89,7.3,7.3,0,0,0-3,.45,10.44,10.44,0,0,0-3.06,2.13c-.15-.13.86-2.41,3.06-3.48a9.5,9.5,0,0,1,4-.73,12.06,12.06,0,0,1,3.06.06c1.78.31,2.45,1.07,3.72,1.61,1.68.71,2.9.43,5.82.18,6.35-.54,5.89.31,10.63-.35a31.1,31.1,0,0,0,7.22-1.72,25.64,25.64,0,0,0,5.17-2.61,29.09,29.09,0,0,0,3.34-2.73c3.18-2.87,4.77-4.31,5.39-5.44,1.93-3.51,1-7.46.5-9.56-.42-1.77-1.06-3.3-3.45-7.34a93.8,93.8,0,0,0-6.61-10.17,98.63,98.63,0,0,0-18.84-18.72,96.9,96.9,0,0,0-15.83-9.56s-3.41-2-14.84-6.78a12.93,12.93,0,0,0-6.17-1.11c-.92.07-4.94.19-5.73,2.16-.27.67-.17,1.59-.82,1.92a.88.88,0,0,1-1,0c-.5-.46.5-1.67.5-3.17a7.11,7.11,0,0,0-1.45-3.55c-3.79-5.17-21.56-7.17-21.56-7.17a135.63,135.63,0,0,0-19.31-2c-1.33-.05-.14,0-10.62,0a82,82,0,0,0-10.88.53c-.83.11-1.25.14-1.65.23-2,.47-7.68,1.76-9.11,5.61-.93,2.49.79,3.3.51,9.65a17.16,17.16,0,0,1-.87,5.07,9.65,9.65,0,0,1-3,4.75,7.53,7.53,0,0,1-3,1.43c-.84.18-1.83.22-1.88,0s1-.49,2.19-1.47a8.52,8.52,0,0,0,1.56-1.78,11.9,11.9,0,0,0,1.66-3.79,14.28,14.28,0,0,0-.08-6.6c-.57-2.58-1.38-6.28-4.23-8-1.85-1.12-3.87-1-6.88-.44a91.78,91.78,0,0,0-21.57,6.67c-3.5,1.53-5.86,2.56-9.11,4.29a113.48,113.48,0,0,0-14.78,9.6" transform="translate(-6.61 -1.3)"/></g><path class="cls-3" d="M1182.51,173.7c0,.35-3.13-.13-7.26,1-2.25.62-6.41,1.85-8.3,5.33a10.88,10.88,0,0,0-1,4.59c-.24,2.71-.44,4.88.74,6.3,1.71,2.07,4.2-.05,8.3,1.85,2.79,1.3,2.62,2.75,7.11,5.34,2.61,1.5,3.69,1.6,4.15,1.63a9.68,9.68,0,0,0,6.15-2.37c.8-.73,1.26-1.43,1.4-1.34s-.37,2.07-1.62,3.41c-2.7,2.88-6.82,2.56-7.27,2.52-2-.18-3.65-1.16-7-3.11s-3.07-2.32-4.74-3a12.66,12.66,0,0,0-8.89.15c-1.18.5-3.88,1.62-4.6,4-.36,1.21.07,1.77.3,3.86.12,1.18.5,4.6-.59,7-1.93,4.16-8.56,5-8.6,4.9a17.52,17.52,0,0,0,3.48-2,8.54,8.54,0,0,0,2.45-2.45,7.39,7.39,0,0,0,.81-4.3c-.16-5.11-2.07-5.77-1.4-7.85,1-3,5.18-2.36,6.67-6.08.27-.71.23-1,.29-4.45a79.83,79.83,0,0,1,.3-8.14c1.45-4.81,7.93-7.5,12.59-7.86,3.47-.27,6.55.69,6.52,1" transform="translate(-6.61 -1.3)"/><path class="cls-3" d="M1147,224.42c.31,0,.31,2.71,2.18,4.86.27.32,2.17,2.51,4.6,2.39,1.89-.09,2.22-1.14,6.72-4.57.49-.38,1.47-1,2.75-2a17.18,17.18,0,0,0,2.19-1.85c1.71-1.93,1.71-3.72,3.2-5a7.59,7.59,0,0,1,1.12-.72c3-1.59,4.17-.19,12.49-.51,4.15-.17,7.45-.32,11.52-1.64,3.58-1.16,7.59-2.53,10.26-6.53a13.17,13.17,0,0,0,2.32-7c.12-4.75-2.65-8.27-3.87-9.81-3.39-4.29-5.85-3.76-7.55-7.66a12.87,12.87,0,0,1-.87-6.74,14.71,14.71,0,0,1,3-6.85c4.65-6.3,12-8.67,12.2-8.27.08.15-1.16.76-3.49,2.75-3.88,3.34-8.44,7.25-8.52,12.37a10.21,10.21,0,0,0,1.36,5.07c1.45,2.6,3.49,3.41,5,4.56,4,3,5.78,9,5.71,13.15-.12,8.48-8,14.64-13.52,16.95a25.9,25.9,0,0,1-7.58,1.74c-8.87,1-12.81-1.88-17.13,1-1.38.92-1.34,1.58-2.11,2.86a12,12,0,0,1-2,2.49c-3.17,3.19-7.59,3.39-8.89,6.7-.49,1.23.14,1.11-.47,4.53-.53,3-1.11,3.59-.71,4.56.94,2.33,5.48,2,5.47,2.71,0,.45-1.71,1-3.34.76a5.61,5.61,0,0,1-4.31-3.78c-.79-2.85,1.62-5.28.57-6.49-.48-.56-1.08-.13-2.46-.41-2.75-.56-4.86-3.19-5.67-5.59-.71-2.06-.42-4.11-.17-4.15" transform="translate(-6.61 -1.3)"/><path class="cls-3" d="M1203.37,282.77a2.3,2.3,0,0,1-1.14-2.29c.07-.5.32-.86.51-2,.09-.6,0-.65,0-.66-.2-.09-1.18,1.27-1.72,2.78-1,2.72-.15,3.68-1.19,4.76-.89.93-2,.78-2.67,2.07a3.91,3.91,0,0,0-.31,1.11c-.5,2.6.37,6.2.76,6.15s-.68-2.86.83-5.71c1.19-2.26,3.42-3.51,5.39-4.61a12.28,12.28,0,0,1,3.67-1.61c3.89-.86,5.31,1.46,9.36.67a8.6,8.6,0,0,0,3.92-1.79,6.36,6.36,0,0,0,2.39-4c.06-.56,0-1.46-.22-1.53s-.53.52-.84,1a12.74,12.74,0,0,1-3,3,9.89,9.89,0,0,1-3.55,1.61c-4.33.94-6.57-2.28-9.41-.85-1.45.74-2,2.13-2.85,1.86" transform="translate(-6.61 -1.3)"/><path class="cls-3" d="M1237,266c.93-3.4,2.44-5.27,2.26-5.44s-2.19,1.64-3.51,4.52c-.5,1.11-2.35,5.18-1.19,9.15,1.1,3.72,3.78,3.71,4.6,7.78a14.06,14.06,0,0,1,0,4.45c-.38,4.08-1.42,4.46-1.78,7.77-.07.64-.63,6.39,2.06,9,.9.86,2,1.21,2.16,1s-1.68-1.23-2.36-3.56a16.28,16.28,0,0,1-.26-4.88,9.12,9.12,0,0,1,.07-1.62c.39-1.87,1.82-2.74,2.37-6,.76-4.6-1.25-7,.18-8.78.62-.75,2-.91,4.61-1.22a32.77,32.77,0,0,1,3.94-.23c5.27,0,8,.08,10.77.82,2.38.64,3.78,1.37,4.75,2.82.2.29,1.31,1.93.87,3.18-.37,1-1.56,1.21-1.5,1.56s1.35.67,2.13,0c1-.89.84-3.21.44-4.59a7.53,7.53,0,0,0-3.5-4.23c-.4-.26-1.69-1-5.32-1.48a47.53,47.53,0,0,0-6.77-.15c-4,.07-6,.11-6.75.15-2.73.15-3.41.3-4.63-.15a6.45,6.45,0,0,1-4-3.7c-.74-2-.2-4,.37-6.12" transform="translate(-6.61 -1.3)"/><path class="cls-3" d="M1217.26,182.21c.41-.15-1.41-3.28-.15-6.07.93-2.07,3.07-2.92,5.26-3.78,1.33-.53,6.92-2.74,11.26-.3,1.16.65,2.15,1.59,2.6,1.26s-.56-1.87-.56-3.67c0-3.91,5.12-6.9,6.56-7.74a24.91,24.91,0,0,1,7.83-2.71c5.38-1.19,7.26-.49,10-2.47,1.74-1.26,1.25-3.56,3-4.23a5.47,5.47,0,0,1,3,.11,5.12,5.12,0,0,0-4.16-.92c-1.87.46-2,2.54-3.71,3.41-3.91,2-6.36,1-11.19,2.22-3.34.85-9.22,2.34-11.2,6.67-.67,1.46-.89,3.25-2.39,3.89-1.19.5-2.15-.14-3.56-.45-4.86-1.07-9.58,2.93-10.63,3.82-1.65,1.39-4,3.38-4.08,6.3-.07,2.61,1.72,4.79,2.08,4.66" transform="translate(-6.61 -1.3)"/><path class="cls-3" d="M1292.77,153a1.06,1.06,0,0,1,.46.76c.22,1.4-2.26,1.85-3.65,4.43-.79,1.48-1.13,3.47-.37,4.74a2.46,2.46,0,0,0,.18.27c.36.42,1,.76,3.16,1.51a33.27,33.27,0,0,0,6.19,1.85c2.91.42,4.74.06,4.77.3s-2.35,1.25-5.18,1.18-3.69-1.05-7.93-1.55a34,34,0,0,0-3.49-.22,50.15,50.15,0,0,0-7.33.29A30.8,30.8,0,0,0,1266,171.7c-4,3-8.64,8.48-8.78,12.93,0,.79,0,5.1-.19,7.07a12.63,12.63,0,0,0-.08,1.86c.06,1.08.25,1.37.08,1.7-.31.61-1.8.53-3.41.44-2.69-.14-4-.22-5-.19a18.26,18.26,0,0,0-4.94,1.08c-4.25,1.3-8.46,2.63-12.45,6.45-.28.27-.47.46-.66.67a31.64,31.64,0,0,0-7.18,11.36,30.77,30.77,0,0,0-1.55,8.23,27.15,27.15,0,0,0,0,6.44,32.35,32.35,0,0,1,.74,7.93c-.08,1.22-.21,1.65-.39,1.68-.51.07-1.39-3.15-1.92-5.12-1.17-4.32-1.75-6.49-1.91-8.63-.38-5,1.38-8.95,3.06-12.67,1.78-3.93,5.3-11.69,13.37-16.26a32.69,32.69,0,0,1,10.15-3.56,17.27,17.27,0,0,1,5-.48c1.68.21,2.85.76,3.69.11a2.76,2.76,0,0,0,.8-2.22c.24-4.35-.22-6.16.25-8.45a11.75,11.75,0,0,1,1.37-3.45,23.24,23.24,0,0,1,7.44-8.33,37.17,37.17,0,0,1,15-5.45c2.42-.29,3.35-.65,3.86-1a7.22,7.22,0,0,0,.77-.54c2.06-1.65,3.17-4.22,4.94-6.57,1.25-1.67,3.64-4.31,4.69-3.8" transform="translate(-6.61 -1.3)"/><path class="cls-3" d="M1244.9,210c.1.17,1.15-.28,1.28-.34a8.89,8.89,0,0,0,2.28-1.58c2.46-1.74,7.65,1.92,8.07,2.22a4.92,4.92,0,0,1,2,2.37,4.26,4.26,0,0,1,.14,2.08c-.19,1.26-.84,6.06,0,9.7a15,15,0,0,0,2,4.53,13,13,0,0,0,3.56,4.07c1.42,1,3.26,1.6,3.49,1.26s-1.71-1.63-3.25-3.68a15.75,15.75,0,0,1-2.83-8.55c-.11-1.18-.51-5.93,3.11-13.48,2.46-5.13,6.41-13.38,15.71-18.6,5.91-3.32,11.24-3.89,17.26-4.52a47,47,0,0,1,17.56,1,30.2,30.2,0,0,1,11.49,5,23.22,23.22,0,0,1,8.82,11.85c1.59,5.35,1.28,12.35-1.47,14.26-.33.23-1.31.81-1.2,1.08s1.6.28,2.81-.29c3.41-1.62,3.28-8.47,3.27-9.48-.14-7.23-4.21-12.47-5.79-14.46a29.72,29.72,0,0,0-11.18-8.52,35.23,35.23,0,0,0-9.42-2.74A55.39,55.39,0,0,0,1296,183c-6.63.88-13.65,1.81-20.67,6.89a41.41,41.41,0,0,0-9.09,9.66c-2,3-2.93,4.51-3.36,6.49-.28,1.32-.25,2.18-.88,2.52-1.32.71-2.91-2.27-6.53-2.81a10.76,10.76,0,0,0-5.78.89c-2.74,1.12-4.9,3.14-4.74,3.4" transform="translate(-6.61 -1.3)"/><path class="cls-3" d="M1313.13,201.83c.32.23-4.42,5.56-6.58,14.26a37.68,37.68,0,0,0-.75,14.11c.55,3.85,2.06,14.6,10.08,19.94,4.39,2.91,10,3.7,12.47,4.05.09,0,1.91.14,5.54.39,3.26.22,4,.31,4.59-.29,1.2-1.19,1.08-4.22-.16-5.61a6.16,6.16,0,0,1-1.19-1.45c-.4-.7-.78-1.76-.57-1.92.41-.29,3.76,2.16,4.84,6a10.3,10.3,0,0,1-2.58,9.84c-2.26,2.2-5.5,2.57-5.65,2.25s1.48-1.43,2.07-1.85a8.46,8.46,0,0,0,1.39-1c.13-.14,1.41-1.54,1.09-2.48-.25-.74-1.41-.89-8-1.5-1.62-.14-1.49-.14-1.84-.16a61.61,61.61,0,0,1-7.89-1.12,21.09,21.09,0,0,1-10.57-6.08,23.41,23.41,0,0,1-5.32-10.31,35.34,35.34,0,0,1-1-12.05,39.9,39.9,0,0,1,3-14.57c2.74-6.44,6.81-10.65,7.09-10.45" transform="translate(-6.61 -1.3)"/><polygon class="cls-3" points="1254.76 263.16 1311.46 320.23 1324.95 305.02 1332.67 321.14 1367.77 387.15 1387.37 361.05 1433.2 428.81 1434.94 426.67 1400.23 319.96 1372.48 354.6 1343.89 260.48 1321.07 286.33 1295.23 242.07 1254.76 263.16"/><polyline class="cls-8" points="1353.62 290.29 1343.89 260.48 1321.08 286.33 1295.23 242.07 1254.75 263.16 1311.46 320.23 1324.95 305.02 1330.54 316"/></g><g class="cls-2"><path class="cls-3" d="M1126.53,136.4c1.22-.22,2.51,1.61,2.82,2,2.78,3.85,10.7,11.15,14.65,14.79,6.51,6,12.32,8.38,11.59,10.81-.16.51-.46.57-2,2a23.55,23.55,0,0,1-4.23,4.63c-2.81,2.58-8.59,10.73-12.85,20a83.24,83.24,0,0,0-6.62,21.39,44.28,44.28,0,0,0-.89,11.18,42.19,42.19,0,0,0,6.15,18.68,45.36,45.36,0,0,0,6.79,8.46,28.53,28.53,0,0,0,7.82,6.07c2.11,1,3.65,1,6.38,2.47a18,18,0,0,0,3.28,1.39,21.38,21.38,0,0,0,2.66.58,41.49,41.49,0,0,0,4.76.67,33.1,33.1,0,0,0,5.91-.08,15.93,15.93,0,0,0,4.15-.83,31.5,31.5,0,0,0,3-1.46,35.13,35.13,0,0,1,5.48-2.05c.9-.26.88-.21,2.5-.61,4.41-1.09,5.25-1.61,8.46-2.24a23.33,23.33,0,0,1,3.86-.48,25.65,25.65,0,0,1,2.9.11,48.42,48.42,0,0,1,5.53.77,20.58,20.58,0,0,1,3.49.8,20.85,20.85,0,0,0,2.34.82,4.35,4.35,0,0,0,1.44.24,4.27,4.27,0,0,0,1.51-.32,7.81,7.81,0,0,0,3-2.26,10.42,10.42,0,0,0,2.21-4.3c0-.28.07-.57.07-.57s0-.33,0-.64a6.08,6.08,0,0,0-.45-2l.19.67a14.47,14.47,0,0,1,.51,1.78c.05.54-.06.68.1,1a1.37,1.37,0,0,0,.69.58c1,.46,2.57-.36,2.8-.48,1.56-.83-22,11.88,6.3-2.92,3.35-1.76,5-2.64,5.33-2.82a13.85,13.85,0,0,1,1.86-1,9.33,9.33,0,0,1,2.92-.9,17.53,17.53,0,0,1,2.56,0l1.75.05h0c.49,0,1.88,0,2.38,0a6.31,6.31,0,0,0,3-1.27c.69-.45.72-.59,1.71-1.23a13.59,13.59,0,0,0,1.3-.88c.45-.36.81-.73.83-.72a4.94,4.94,0,0,0-.88,1,4,4,0,0,0-.56,1.3,1.68,1.68,0,0,0-.08.59,1.35,1.35,0,0,0,.35.79c.42.54,1.25.7,2.36.8a18.67,18.67,0,0,0,2.48.13,40,40,0,0,0,7.5-.71,24.22,24.22,0,0,0,2.61-.69,25.13,25.13,0,0,0,6.38-3.36,19.46,19.46,0,0,0,4.53-3.93,8.88,8.88,0,0,0,.67-1.07,9.12,9.12,0,0,0,.93-2.45,6.16,6.16,0,0,0,.1-2.23,8.86,8.86,0,0,1-1,5.53,10.87,10.87,0,0,1-2.18,2.51,11,11,0,0,0-2,1.73,3.19,3.19,0,0,0-.85,1.45,4,4,0,0,0,.32,1.82,9.43,9.43,0,0,0,1.39,3.19,8.15,8.15,0,0,0,.71.82,7,7,0,0,0,.85.71c.29.21.54.35.63.41.52.29.84.38.84.4s-.52-.15-1.54-.5a1.61,1.61,0,0,1-.72-.4,1.38,1.38,0,0,1-.32-.56,13.11,13.11,0,0,0-.75-1.44,5.22,5.22,0,0,0-2-2.36,4.47,4.47,0,0,0-2.63-.35,13.16,13.16,0,0,0-3.06.61c-1.72.48-2.26.73-4.52,1.41a17.25,17.25,0,0,1-2.34.61,12.82,12.82,0,0,1-3.62-.26c-1.23-.17-2.47-.25-3.7-.38-2.77-.28-4.15-.42-5.93-.53a20.33,20.33,0,0,0-5.22.14,17.09,17.09,0,0,0-2,.5c-2.06.63-2.79,1.22-7.48,3.78-2,1.08-3.37,1.81-3.88,2.07l-1.65.86c-2.48,1.27-2.9,1.47-3.75,2a22.83,22.83,0,0,0-2.11,1.33c-.27.21-.89.67-1.75,1.44a15.1,15.1,0,0,0-4,4.85c-.22.54-.42,1.16-.42,1.16a19.06,19.06,0,0,0-.48,2,7.3,7.3,0,0,1-1.52,3.41c-.08,0,.2-.72.46-2.18a12.91,12.91,0,0,0,.26-2.77,5.73,5.73,0,0,0-.53-2.71,3.51,3.51,0,0,0-.8-1.12c-.57-.53-1.17-.67-3.46-1.12l-1.65-.32-4.63-.8a31.51,31.51,0,0,0-7.82.11,39.05,39.05,0,0,0-10.22,2.66,25.63,25.63,0,0,0-5.69,3.11,16.08,16.08,0,0,0-5.11,6,18.68,18.68,0,0,0-1.44,3.67,17.23,17.23,0,0,0,0,7.62,24.73,24.73,0,0,0,3,8.08c.92,1.58.88,1.11,3,4.37,1.82,2.76,2.19,3.62,3.57,5.43a34.15,34.15,0,0,0,3.19,3.61,42.41,42.41,0,0,0,7.29,5.91,40.76,40.76,0,0,0,17.89,5.8c.49.06,0,0,3.88.27,7.73.55,8.86.73,12.35.85a66.14,66.14,0,0,0,7.18,0,26.75,26.75,0,0,0,7.4-1.06c1.88-.62,1.83-.92,6.33-2.88a39,39,0,0,1,4.42-1.75,25.7,25.7,0,0,1,6.7-1,42,42,0,0,1,6.71.64c3.51.49,5.26.74,7.55,1.22a19,19,0,0,0,4.53.59c1.62,0,2.75-.26,2.77-.16a15.63,15.63,0,0,1-4.79,1.11,24.47,24.47,0,0,1-7.56-.37c-2.68-.58-2.87-.64-2.87-.64-1.42-.4-2-.7-2.93-.58a2.8,2.8,0,0,0-2,1,3.1,3.1,0,0,0-.43,1.65,12.35,12.35,0,0,0,0,2.55,19.82,19.82,0,0,0,2.08,6.23,25.21,25.21,0,0,0,3.3,5.27,24.53,24.53,0,0,0,6.65,5.48,27.29,27.29,0,0,0,6.33,2.55,43.37,43.37,0,0,0,10.86,1.49,54.84,54.84,0,0,0,11.92-.37,52.53,52.53,0,0,0,9.31-2.34,63.1,63.1,0,0,0,11.5-5.16s3.46-2,10.22-7c1.74-1.29,1.57-1.43,2.31-1.75.27-.11.68-.25.78-.59s-.26-.75-.59-1.17a19.53,19.53,0,0,1-1.22-2.13c-.82-1.37-.59-1.42-1.6-3.41-1.11-2.18-1.24-1.83-1.81-3.24-.37-.93-.64-1.88-1-1.87-.19,0-.25.27-.74.8a9.15,9.15,0,0,1-.75.7,38.27,38.27,0,0,0-3.25,3.83c-1.28,1.68-1,.95-3.56,3.93-1.05,1.23-2.7,3.23-3.73,4.18a6.22,6.22,0,0,0-.62.63c-.63.76-.75,1.35-1,1.34s-.18-.18-.53-.58a5.73,5.73,0,0,0-.69-.67c-.89-.79-5.35-5.57-8.84-9-1.46-1.45-1.12-1.05-3.06-2.95-2.53-2.49-4.27-4.31-5.45-5.54-1-1-1-1-7.8-7.85l-9.82-9.87c-12.16-12.22-13.33-13.4-14.26-14.4a19.71,19.71,0,0,0-2.47-2.52c-.34-.26-1.64-1.2-1.84-1.73a.85.85,0,0,0-.4-.53c-.1-.05-.18-.05-.19-.08s.88-.54,1.07-.62c.92-.39,1.76-1,2.66-1.41,5-2.5,9.94-5.17,14.93-7.74,12.63-6.52,19-9.78,19.19-10,0,0,.7-.71,1-.54s.09.35.39.79c.17.26.27.27.49.59a3.55,3.55,0,0,1,.31.57c.22.55,1,1.93,1.87,3.31,1.31,2.21,2.58,4.44,3.91,6.63,2.35,3.88,4.8,8.13,8.25,14.16,0,0,6.8,11.84,9.23,15.85l.57.94.66,1.09c.31.52.3.53.35.56.64.32,2.92-3,4.22-4.74.15-.19,2-2.28,5.7-6.47s4.74-5.28,7.16-8.06,3.49-4,3.75-4.37c.37-.49.83-.91,1.2-1.41s.45-.64.61-.61.27.85.32,1.34a10.14,10.14,0,0,0,1.27,3.48,36.55,36.55,0,0,1,1.68,5.38c.56,1.93,1.58,5,3.65,11.17,2.72,8.14,2.73,7.74,2.75,8.09,0,.16,0,.8.3.88s1-1,2-2.63c1.41-2.26,1.25-1.69,2.34-3.49.63-1,1.36-2.49,2.82-5.4.22-.44.7-1.41,1.23-2.72a10.88,10.88,0,0,0,.77-2.42,5.83,5.83,0,0,0-.16-2.9,5.61,5.61,0,0,0-3.17-3,7.79,7.79,0,0,0-4.56-.16,4.45,4.45,0,0,0-1.43.58,12.94,12.94,0,0,0-1.09,1,2.48,2.48,0,0,1,.72-1.17,5.08,5.08,0,0,1,2.13-1.2,14.46,14.46,0,0,1,1.91-.56,7.35,7.35,0,0,1,1.42-.26c.32,0,.5,0,1-.06a7,7,0,0,0,.88-.1,3.83,3.83,0,0,0,1.09-.41,6.82,6.82,0,0,0,1.84-1.41,15.48,15.48,0,0,0,2-2.6,20.8,20.8,0,0,0,1.68-3.33,47.21,47.21,0,0,0,2.34-8.22,77.61,77.61,0,0,0,.64-19.05,40.06,40.06,0,0,0-1.71-8.52,9.69,9.69,0,0,0-2.94-4.81,4.71,4.71,0,0,0-1.31-.88c-2.09-.89-4.34.27-7,1.67a19.1,19.1,0,0,0-5.15,3.68,12.79,12.79,0,0,0-2.81,3.83,12.39,12.39,0,0,0-1.06,4.47c-.06,1.64.29,1.9.08,3.59a15,15,0,0,1-.75,3,8.08,8.08,0,0,1-.9,2.18c-.08,0,.19-.85.35-2.2a18.14,18.14,0,0,0,.1-2.53c0-1.29-.08-1.62-.09-3.41a8.43,8.43,0,0,1,.12-1.75,8.25,8.25,0,0,1,.54-1.65,14.59,14.59,0,0,1,1.06-2c2.35-4,1.85-3.83,2.55-4.73a2.32,2.32,0,0,0,.51-1.17,1.38,1.38,0,0,0-.13-.85,1.48,1.48,0,0,0-1-.64c-.5-.08-.78.17-1.75.58-.45.19-.91.33-1.36.51,0,0-1.63.63-3.43,1.17a34.43,34.43,0,0,1-4.74.77c-.9.12-.87.11-6.25.69a24,24,0,0,1-2.74.22,15.52,15.52,0,0,0-1.94,0,7,7,0,0,0-2.14.51,5,5,0,0,0-1.14.64,7,7,0,0,0-1.44,1.65c-.72,1-1.09,1.48-1.19,1.64-.94,1.42-1.07,1.95-2,3.17-.32.42-.81,1-.88,1a8.76,8.76,0,0,1,.59-1.25,12.52,12.52,0,0,0,.85-2.51c.07-.32,0-.08.24-1.86a7.77,7.77,0,0,0,.14-1.41,3.55,3.55,0,0,0-.64-1.75,5.32,5.32,0,0,0-2.35-1.44,12,12,0,0,0-1.22-.48,11.34,11.34,0,0,0-3.78-.45s.93-.06,2.13-.11,1.12-.06,1.46-.05a7.6,7.6,0,0,1,2.08.26,15.39,15.39,0,0,1,2,1,12,12,0,0,0,1.75.77,8.07,8.07,0,0,0,2.43.19c.46,0,.83-.07,1.2-.11,1-.12,1.15-.22,1.83-.24.47,0,.53,0,1.2,0l1-.05,1-.06c.77,0,1.4,0,2.26,0,1.6.05,1.44.1,2.1.08s.48-.05,2-.18l1.58-.14c.48-.06,1-.14,1.82-.32s2-.42,3.17-.78a26.11,26.11,0,0,0,4.53-1.78,29.75,29.75,0,0,0,5.59-3.87l1.78-1.61c1.28-1.18,1.54-1.41,1.87-1.74a17.92,17.92,0,0,0,1.84-1.94,9.22,9.22,0,0,0,1.43-3.11,10.15,10.15,0,0,0,.36-2.69,15.08,15.08,0,0,0-.17-2.6,21.41,21.41,0,0,0-1-4.31,17.06,17.06,0,0,0-1.71-3.59c-.21-.33-.34-.5-.68-1-.71-1.14-1.13-2-1.44-2.53-.58-1.11-1.06-1.85-2-3.34-.23-.37-1.06-1.65-2.43-3.55-.36-.49-2.48-3.41-4.88-6.22a102.87,102.87,0,0,0-11.41-11.28,114.91,114.91,0,0,0-19.21-12.62c-4-2-8.36-3.93-8.36-3.93-2.3-1-2.32-.95-4.2-1.81a32.72,32.72,0,0,0-4.32-1.81,15.66,15.66,0,0,0-2.76-.69,16.38,16.38,0,0,0-6.44.63,3.52,3.52,0,0,0-2,1.12c-.24.32-.47.78-.53.75s.06-.29.1-.75a4.25,4.25,0,0,0,0-.69,8.35,8.35,0,0,0-1.43-3.46c-2-2.63-7.19-4.2-7.19-4.2a63.47,63.47,0,0,0-12.82-2.88c-4.63-.7-8.23-1.06-15.44-1.81-4-.4-5.7-.54-7.77-.64-2.45-.1-4.7-.08-9.2,0-3.07,0-5.51.11-8.41.4-.9.09-2,.22-3.41.48a25.84,25.84,0,0,0-4.95,1.33,10.22,10.22,0,0,0-3.08,1.54,6.48,6.48,0,0,0-2.46,3.57,5.48,5.48,0,0,0,0,2.55c.13.57.31.86.47,1.7a10.47,10.47,0,0,1,.16,1.6c.08,1.42.11,2.13.11,2.77a15.81,15.81,0,0,1-.48,4.68,14,14,0,0,1-1.38,3.14,7.68,7.68,0,0,1-1.6,2.13,3.74,3.74,0,0,1-1.65,1c-.06-.08.65-.54,1.33-1.39a7.93,7.93,0,0,0,1.22-2.39,15,15,0,0,0,1-5.32,17.19,17.19,0,0,0-.43-3.57,26.24,26.24,0,0,0-.85-3.19,11.91,11.91,0,0,0-1.23-3,7.32,7.32,0,0,0-2.55-2.3c-1.92-1-3.89-.87-6.07-.58a70,70,0,0,0-10.75,2.29c-2.75.85-5.58,1.84-8.62,3a89,89,0,0,0-11.44,5.16c-4.55,2.53-9.26,5.54-9.26,5.54a8.84,8.84,0,0,1-1.38.85c-7.08,2.12-18.6-24.19-22.85-28.91-.18-.19-1.65-1.81-1.21-2.6.09-.17.28-.29.64-.53a5.36,5.36,0,0,1,1.28-.63,9.82,9.82,0,0,0,2.18-1.34c.93-.63,1.38-.83,5.32-3s3.58-2,4.63-2.61a83.33,83.33,0,0,1,8-3.56c3.94-1.61,5.91-2.41,8.46-3.3a136.54,136.54,0,0,1,14.1-4c4.29-1,7.71-1.57,14.37-2.66,8.39-1.38,12.59-2.07,18.68-2.71,3.91-.42,10.22-1,18-1.23,2.63-.08,9.61-.24,18.52.16,1.29.06,9.87.46,15.06,1.23.5.07,2.17.32,4.53.63s3,.36,4.57.59c2.23.31,3.84.6,5.22.85,8.39,1.52,8.41,1.41,11.5,2,6,1.2,10.51,2.51,14.79,3.77,3.12.92,6.94,2.05,11.92,3.89,1,.36,5.18,1.92,10.65,4.36,2.59,1.16,5.43,2.43,9.09,4.37a134.46,134.46,0,0,1,11.82,7.08c1.5,1,4.13,2.76,7.34,5.13,1.2.9,3.06,2.28,5.33,4.13,4.37,3.57,7.46,6.59,9.41,8.51,3.17,3.11,5.73,5.9,7.61,8a155.8,155.8,0,0,1,11.5,14.74,158.19,158.19,0,0,1,11.6,19.64,107,107,0,0,1,5.32,12.13,104.56,104.56,0,0,1,4.95,19.32,110.7,110.7,0,0,1,1.34,15.32,133.86,133.86,0,0,1-1,19.11c-.55,4.85-1.19,8.47-1.6,10.8a185.17,185.17,0,0,1-4.57,19.64,124.17,124.17,0,0,1-5.49,15.38,103.71,103.71,0,0,1-15.48,25.28,150.75,150.75,0,0,1-15.92,16.66,130.86,130.86,0,0,1-17.77,14,118.73,118.73,0,0,1-29,13.62,111.72,111.72,0,0,1-23.85,4.74c-3,.25-16.35,1.19-29.59-1.91a93.49,93.49,0,0,1-11.23-3.47,50.29,50.29,0,0,1-7.93-3.56,45.24,45.24,0,0,1-11.17-9,24.58,24.58,0,0,0-3.94-3.83,14.2,14.2,0,0,0-5.48-2.82,21.53,21.53,0,0,0-4.26-.42c-1.29,0-1.41,0-2.71,0-1.8-.07-2.59-.26-4.26-.43-1.93-.2-2.64-.13-4.53-.21a72.2,72.2,0,0,1-7.29-.8c-6.16-.87-12.79-1.81-18.67-3.14-3.12-.71-6.17-1.53-6.17-1.53l-2.35-.65a98.4,98.4,0,0,1-13.09-5.11,64.35,64.35,0,0,1-10.64-6c-12.49-9-17.49-22.69-18.31-25.65-.67-2.4-1.45-4.75-2.14-7.13a14.22,14.22,0,0,0-.9-2.72,12.87,12.87,0,0,0-4.47-5,23.86,23.86,0,0,0-4-2.08c-4.75-2.16-6.14-2.4-9-3.94a38.63,38.63,0,0,1-4.36-2.76c-7.79-5.52-13.79-14.12-15.54-16.66a89.07,89.07,0,0,1-8.46-15.22,86.41,86.41,0,0,1-6.34-23.63,89.3,89.3,0,0,1,1.55-29.7,108.18,108.18,0,0,1,8.35-24.64,94.28,94.28,0,0,1,5.38-10.22,100.46,100.46,0,0,1,10.06-13.35,53.93,53.93,0,0,1,6.06-6.44,51.68,51.68,0,0,0,4.42-3.84,27.62,27.62,0,0,1,2.13-1.91c.65-.56.84-.7,1.12-.75" transform="translate(-6.61 -1.3)"/><path class="cls-3" d="M1126,136.45c.15-.31,2.71-2.17,7.83-5.9,1.43-1.05,0,0,6.33-4.5a6.57,6.57,0,0,1,1-.69c3.93-1.38,7.53,12.1,19.4,23.24,1.64,1.53,5.72,5.16,4.78,7.57-.13.35-.67.8-1.75,1.68-2.47,2-3.59,2.52-5.5,4.16-1.31,1.13-1.53,1.54-1.93,1.83-5.27,3.84-34-19.13-30.17-27.39" transform="translate(-6.61 -1.3)"/></g></g></svg>