<svg id="Layer_1" data-name="Layer 1" xmlns="http://www.w3.org/2000/svg" xmlns:xlink="http://www.w3.org/1999/xlink" viewBox="0 0 1993.29 442.6"><defs><style>.cls-1,.cls-4{fill:none;}.cls-2{clip-path:url(#clip-path);}.cls-3{fill:#221f1f;}.cls-4{stroke:#fff;stroke-width:0.25px;}.cls-4,.cls-7{stroke-miterlimit:10;}.cls-5{fill:#fff;}.cls-6{clip-path:url(#clip-path-2);}.cls-7,.cls-8{fill:#231f20;}.cls-7{fill-opacity:0;stroke:#231f20;stroke-width:0.39px;}</style><clipPath id="clip-path" transform="translate(-3.13 -2.28)"><rect class="cls-1" x="-74.76" y="-56.24" width="2149.53" height="553.2"/></clipPath><clipPath id="clip-path-2" transform="translate(-3.13 -2.28)"><rect class="cls-1" x="1078.16" y="84.02" width="369.79" height="380.67"/></clipPath></defs><g class="cls-2"><path class="cls-3" d="M616.93,381.23c-12.65.07-25.49-.07-38.13,0,1.41-28.44,2.13-56.27,2-75.76-.14-24.72-.95-40.91-5.56-60.23a146.21,146.21,0,0,0-10.77-30.9,147.41,147.41,0,0,0-18.38-28c-17.61-20.44-42.55-30.87-44.53-31.68-37.77-15.4-70.6-4.85-84.48-.39a102,102,0,0,0-26.26,12.55,99.68,99.68,0,0,0-23.17,21.6A81.7,81.7,0,0,0,354.39,212c-4.37,12.43-4.91,24.34-5.25,31.91a57.7,57.7,0,0,0-.17,6.45c0,3.5-.69,23.58-.82,27.15-.47,12.73-.21,23.38,0,58.38.06,9.82.13,24.3.16,42.09l-35.12-.07c.27-11.24.55-29.11.15-51.17-.51-27.85-1.69-39.1-1.55-65.65.15-27.94.29-42.18,4.13-56.16A135,135,0,0,1,337,161.74s18.72-25.33,50.64-40.18a145.56,145.56,0,0,1,17.72-6.7c4.36-1.28,8.44-2.22,12.19-2.93a141.5,141.5,0,0,1,20-2.14h.2c11.9-.6,23.44-.28,25.17-.22,37.91,1.46,65.27,14.7,65.34,14.73,18.88,9.39,55.14,31.26,73.54,73,8.46,19.18,12.07,40.12,13.28,47.13.53,3.09.85,5.42,1.11,7.2,3.13,22.36,3.11,40.74,3,54.66-.28,27.48-1.37,55.38-2.3,74.94" transform="translate(-3.13 -2.28)"/><path class="cls-3" d="M276.26,81.12S3,81.51,3.13,81.2s0-39.08,0-39.08l273.13,0Z" transform="translate(-3.13 -2.28)"/><path class="cls-4" d="M1186.5,185.44c0,.34-3-.12-6.89,1-2.13.62-6.08,1.81-7.87,5.21a11.05,11.05,0,0,0-1,4.48c-.23,2.65-.41,4.77.71,6.16,1.62,2,4-.05,7.87,1.8,2.64,1.27,2.48,2.69,6.74,5.21,2.48,1.47,3.51,1.58,3.94,1.59a9,9,0,0,0,5.83-2.31c.77-.71,1.2-1.39,1.34-1.3s-.35,2-1.55,3.33c-2.55,2.8-6.47,2.49-6.88,2.45-1.9-.18-3.47-1.13-6.61-3s-2.91-2.27-4.5-2.9a11.65,11.65,0,0,0-8.43.15c-1.12.48-3.68,1.58-4.36,3.91-.35,1.16.06,1.72.28,3.76.12,1.15.48,4.49-.56,6.8-1.83,4.05-8.11,4.88-8.16,4.77a15.28,15.28,0,0,0,3.31-1.95,8.26,8.26,0,0,0,2.32-2.39,7.44,7.44,0,0,0,.77-4.19c-.15-5-2-5.64-1.33-7.67.91-2.94,4.92-2.31,6.32-5.94.27-.69.22-1,.28-4.34.09-5,.14-7.45.28-8,1.38-4.7,7.53-7.32,12-7.68C1183.6,184.16,1186.51,185.1,1186.5,185.44Z" transform="translate(-3.13 -2.28)"/><path class="cls-4" d="M1152.84,235c.28,0,.29,2.64,2.06,4.75.25.31,2.06,2.45,4.36,2.34,1.79-.09,2.1-1.12,6.37-4.48.47-.36,1.41-.93,2.61-1.9a16.5,16.5,0,0,0,2.08-1.81c1.62-1.88,1.62-3.63,3-4.87a6.93,6.93,0,0,1,1.05-.71c2.89-1.56,4-.18,11.85-.5,3.94-.16,7.07-.3,10.93-1.59,3.4-1.14,7.19-2.47,9.73-6.39a12.93,12.93,0,0,0,2.2-6.78c.12-4.64-2.51-8.07-3.67-9.58-3.21-4.18-5.54-3.66-7.16-7.48a13,13,0,0,1-.83-6.58,14.74,14.74,0,0,1,2.85-6.68c4.41-6.16,11.37-8.47,11.57-8.08.08.15-1.1.74-3.3,2.69-3.69,3.25-8,7.08-8.08,12.07a10,10,0,0,0,1.28,5c1.38,2.53,3.31,3.33,4.78,4.45,3.79,2.92,5.47,8.79,5.41,12.83-.12,8.29-7.6,14.3-12.82,16.56a24.27,24.27,0,0,1-7.2,1.7c-8.41,1-12.14-1.84-16.25,1-1.3.89-1.27,1.53-2,2.78a11.29,11.29,0,0,1-1.93,2.43c-3,3.12-7.2,3.32-8.44,6.55-.46,1.2.14,1.08-.43,4.43-.51,2.92-1.06,3.5-.68,4.44.9,2.27,5.19,1.92,5.18,2.65,0,.44-1.62,1-3.16.74a5.36,5.36,0,0,1-4.09-3.69c-.75-2.78,1.54-5.15.54-6.34-.46-.54-1-.12-2.33-.39-2.61-.55-4.61-3.12-5.38-5.46C1152.32,237,1152.59,235,1152.84,235Z" transform="translate(-3.13 -2.28)"/><path class="cls-4" d="M1206.28,291.93a2.23,2.23,0,0,1-1.08-2.23c.06-.49.3-.84.48-1.95.09-.59,0-.64,0-.65-.19-.08-1.13,1.24-1.64,2.72-.91,2.65-.14,3.59-1.12,4.64s-1.92.77-2.53,2a3.59,3.59,0,0,0-.3,1.09c-.47,2.52.35,6,.72,6s-.64-2.8.79-5.58c1.13-2.21,3.25-3.43,5.11-4.5a11.43,11.43,0,0,1,3.48-1.58c3.69-.84,5,1.42,8.88.66a8.22,8.22,0,0,0,3.72-1.74,6.36,6.36,0,0,0,2.27-3.93c.05-.54,0-1.42-.21-1.49s-.5.51-.8,1a12.58,12.58,0,0,1-2.79,3,9.36,9.36,0,0,1-3.38,1.58c-4.1.92-6.23-2.23-8.91-.83C1207.6,290.84,1207.11,292.2,1206.28,291.93Z" transform="translate(-3.13 -2.28)"/><path class="cls-4" d="M1238.15,275.55c.87-3.33,2.31-5.15,2.14-5.32s-2.08,1.59-3.33,4.41c-.47,1.08-2.23,5.06-1.13,8.94,1,3.63,3.59,3.62,4.37,7.59a14.28,14.28,0,0,1,0,4.34c-.37,4-1.35,4.37-1.69,7.6-.07.62-.61,6.23,2,8.79.86.85,1.93,1.19,2,1s-1.59-1.22-2.25-3.48a16.41,16.41,0,0,1-.24-4.77,8.66,8.66,0,0,1,.07-1.58c.37-1.83,1.72-2.68,2.24-5.91.73-4.49-1.17-6.87.18-8.57.59-.74,1.85-.89,4.37-1.2a28.09,28.09,0,0,1,3.74-.21c5,0,7.54.06,10.21.79,2.26.62,3.59,1.34,4.51,2.75.19.29,1.23,1.89.82,3.11-.35,1-1.48,1.18-1.42,1.52s1.28.66,2,0c1-.86.8-3.13.42-4.49a7.33,7.33,0,0,0-3.32-4.12c-.38-.25-1.61-1-5-1.44a44.26,44.26,0,0,0-6.41-.15c-3.78.07-5.66.1-6.41.15-2.59.14-3.24.29-4.4-.15a6.22,6.22,0,0,1-3.8-3.61C1237.09,279.55,1237.61,277.6,1238.15,275.55Z" transform="translate(-3.13 -2.28)"/><path class="cls-4" d="M1217.7,196.22c.39-.15-1.33-3.2-.14-5.93.88-2,2.91-2.85,5-3.69,1.27-.52,6.56-2.68,10.68-.29,1.09.63,2,1.55,2.46,1.23s-.53-1.83-.53-3.58c0-3.83,4.86-6.75,6.22-7.56a22.83,22.83,0,0,1,7.43-2.64c5.1-1.17,6.89-.49,9.51-2.43,1.65-1.22,1.19-3.47,2.88-4.12a5,5,0,0,1,2.83.11,4.76,4.76,0,0,0-4-.91c-1.77.46-1.87,2.49-3.51,3.33-3.71,1.91-6,1-10.61,2.17-3.17.83-8.75,2.29-10.63,6.51-.64,1.43-.85,3.17-2.27,3.8-1.12.49-2-.13-3.37-.44-4.61-1-9.09,2.86-10.09,3.73-1.56,1.36-3.79,3.31-3.86,6.15C1215.67,194.21,1217.36,196.34,1217.7,196.22Z" transform="translate(-3.13 -2.28)"/><path class="cls-4" d="M1289.38,167.7a1,1,0,0,1,.44.74c.21,1.38-2.15,1.82-3.47,4.35-.77,1.46-1.08,3.41-.36,4.66l.18.26c.34.42,1,.75,3,1.48a30.48,30.48,0,0,0,5.9,1.82c2.78.42,4.53.06,4.56.29s-2.24,1.23-5,1.17-3.51-1-7.55-1.53a31.3,31.3,0,0,0-3.33-.22,46.9,46.9,0,0,0-7,.29,29,29,0,0,0-13,5.1c-3.8,3-8.24,8.32-8.38,12.69,0,.78,0,5-.17,6.95a11.06,11.06,0,0,0-.07,1.82c0,1.07.23,1.36.07,1.67-.31.6-1.71.53-3.25.44-2.57-.14-3.85-.21-4.76-.19a16.82,16.82,0,0,0-4.71,1.06c-4.06,1.28-8.07,2.58-11.87,6.34-.27.26-.45.45-.64.65a31.2,31.2,0,0,0-6.84,11.16,30.67,30.67,0,0,0-1.48,8.08,27.3,27.3,0,0,0,0,6.33,33.09,33.09,0,0,1,.7,7.79c-.07,1.19-.2,1.62-.37,1.64-.48.08-1.32-3.09-1.83-5a48.52,48.52,0,0,1-1.82-8.48c-.37-4.94,1.32-8.79,2.92-12.44,1.7-3.86,5-11.48,12.75-16a30.73,30.73,0,0,1,9.68-3.5,16.3,16.3,0,0,1,4.82-.47c1.59.21,2.7.75,3.52.11.54-.42.69-1.14.75-2.18.24-4.27-.2-6.06.24-8.3a12,12,0,0,1,1.3-3.38,22.65,22.65,0,0,1,7.1-8.19,34.75,34.75,0,0,1,14.31-5.34,8.63,8.63,0,0,0,3.68-1,6.52,6.52,0,0,0,.74-.53c2-1.62,3-4.15,4.71-6.45C1286.11,169.79,1288.39,167.2,1289.38,167.7Z" transform="translate(-3.13 -2.28)"/><path class="cls-4" d="M1245.67,220.89c.09.16,1.08-.28,1.21-.34A8.56,8.56,0,0,0,1249,219c2.34-1.7,7.26,1.87,7.66,2.17a4.76,4.76,0,0,1,1.9,2.31,4.32,4.32,0,0,1,.14,2,29.73,29.73,0,0,0,0,9.48,14.54,14.54,0,0,0,1.9,4.41,12.33,12.33,0,0,0,3.37,4c1.34,1,3.09,1.56,3.3,1.23s-1.61-1.6-3.07-3.59a15.77,15.77,0,0,1-2.69-8.35c-.1-1.15-.48-5.79,3-13.17,2.34-5,6.09-13,14.9-18.16,5.61-3.24,10.67-3.79,16.38-4.41a43.22,43.22,0,0,1,16.65.94,28.2,28.2,0,0,1,10.9,4.92,22.61,22.61,0,0,1,8.36,11.58c1.51,5.21,1.21,12.05-1.39,13.92-.31.21-1.24.78-1.14,1s1.52.27,2.67-.29c3.23-1.57,3.11-8.26,3.09-9.26-.13-7.05-4-12.17-5.48-14.1a28.43,28.43,0,0,0-10.61-8.33,32.78,32.78,0,0,0-8.93-2.67,50.83,50.83,0,0,0-15.81-.22c-6.3.86-12.95,1.76-19.61,6.73a39.62,39.62,0,0,0-8.62,9.43c-1.85,2.94-2.78,4.41-3.18,6.34-.28,1.28-.24,2.13-.85,2.46-1.25.7-2.75-2.22-6.18-2.75a10.1,10.1,0,0,0-5.48.87C1247.56,218.65,1245.52,220.63,1245.67,220.89Z" transform="translate(-3.13 -2.28)"/><path class="cls-4" d="M1310.38,212.91c.3.22-4.19,5.42-6.24,13.92a37.88,37.88,0,0,0-.71,13.78c.52,3.76,2,14.26,9.56,19.46,4.16,2.85,9.46,3.62,11.83,4l5.25.37c3.09.21,3.78.31,4.36-.28,1.13-1.16,1-4.12-.16-5.48a6.06,6.06,0,0,1-1.13-1.41c-.37-.68-.74-1.73-.53-1.88.39-.28,3.56,2.1,4.58,5.9a10.21,10.21,0,0,1-2.44,9.6c-2.15,2.16-5.22,2.52-5.36,2.2s1.41-1.39,2-1.81a8.12,8.12,0,0,0,1.32-1c.12-.14,1.34-1.5,1-2.42-.24-.72-1.33-.87-7.59-1.46l-1.74-.17a54,54,0,0,1-7.49-1.09,19.78,19.78,0,0,1-10-5.93,23.29,23.29,0,0,1-5-10.07,35.53,35.53,0,0,1-1-11.76,39.75,39.75,0,0,1,2.82-14.23C1306.25,216.82,1310.11,212.72,1310.38,212.91Z" transform="translate(-3.13 -2.28)"/><path class="cls-3" d="M161.36,77.9s.38,303.51.07,303.35-37.95,0-37.95,0l0-303.35Z" transform="translate(-3.13 -2.28)"/><path class="cls-3" d="M350,43.75s.43,339,.08,338.84-43.39,0-43.39,0l0-338.84Z" transform="translate(-3.13 -2.28)"/><path class="cls-3" d="M700.79,114.82s.39,266.55.08,266.41-38,0-38,0l0-266.41Z" transform="translate(-3.13 -2.28)"/><path class="cls-3" d="M1598.89,83.82s.38,298.3.08,298.15-37.84,0-37.84,0l-.05-298.15Z" transform="translate(-3.13 -2.28)"/><path class="cls-3" d="M1685.66,153.74s-205.29.35-205.18.07,0-33.93,0-33.93l205.18,0Z" transform="translate(-3.13 -2.28)"/><path class="cls-3" d="M798.91,116.15s.38,267.68.07,267.54-38,0-38,0l0-267.54Z" transform="translate(-3.13 -2.28)"/><path class="cls-3" d="M1066.36,382.7l-37.94.19c1.42-28.45,1.72-52.94,1.6-72.42-.14-24.72-1-40.91-5.56-60.23a147.11,147.11,0,0,0-10.77-30.91,147.51,147.51,0,0,0-18.38-28c-17.61-20.45-42.55-30.88-44.53-31.69-37.78-15.39-70.6-4.85-84.48-.39A102.25,102.25,0,0,0,840,171.81a99.68,99.68,0,0,0-23.17,21.6A81.7,81.7,0,0,0,803.6,217c-4.37,12.43-4.91,24.34-5.26,31.9,0,.78-.11.07-.16,6.45,0,3.51-.69,23.59-.82,27.15-.47,12.73-.21,23.39,0,58.39.06,9.81.13,24.3.16,42.08l-35.12-.06c.27-11.25.54-29.11.15-51.18-.51-27.84-1.69-39.1-1.55-65.64.15-27.94.29-42.19,4.13-56.16a134.75,134.75,0,0,1,21.11-43.15s18.72-25.33,50.65-40.18a144.21,144.21,0,0,1,17.72-6.7,123.5,123.5,0,0,1,12.19-2.93,142.66,142.66,0,0,1,20-2.15h.2c11.89-.6,23.44-.29,25.17-.22,37.91,1.46,65.27,14.69,65.34,14.73,18.88,9.39,55.14,31.26,73.54,73,8.45,19.17,12.07,40.11,13.28,47.13.53,3.08.85,5.41,1.1,7.2,3.14,22.36,3.12,40.74,3,54.65-.28,27.49-1.14,51.86-2.07,71.42" transform="translate(-3.13 -2.28)"/><path class="cls-3" d="M1752.25,119.84S1865.47,367,1865.13,367s-34.23,17.63-34.23,17.63L1710.68,119.84Z" transform="translate(-3.13 -2.28)"/><polygon class="cls-3" points="1827.59 382.33 1865.26 382.33 1846.42 363.53 1827.59 382.33"/><path class="cls-3" d="M1955,119.84S1834.37,367,1834.71,367s34.23,17.63,34.23,17.63l127.48-264.76Z" transform="translate(-3.13 -2.28)"/><path class="cls-3" d="M648.15,18.31a31.88,31.88,0,0,1,7.47-7.82A35.68,35.68,0,0,1,663,6.06a40.47,40.47,0,0,1,10.75-2.92,60.86,60.86,0,0,1,9.46-.86A58.12,58.12,0,0,1,693.4,3c4.66.77,14.4,2.39,22.93,10.05a40.28,40.28,0,0,1,6.94,8.24,33.93,33.93,0,0,1,4.82,10.79c2.52,11.1-2.5,23.1-2.5,23.1A40.46,40.46,0,0,1,718.83,65a35.43,35.43,0,0,1-7.44,5.78A28.48,28.48,0,0,1,704.33,74a25.87,25.87,0,0,1-9,.94c-5.16-.44-8.88-2.43-9.83-3.37-.61-.61-1.29-1.15-1.86-1.79a4.27,4.27,0,0,0-1.12-1,3.68,3.68,0,0,0-1.84-.49c-13.75-.4-18.3-5-18.3-5-1.15-1.16-4.15-4.82-4.78-7.74a4.22,4.22,0,0,0-1.07-2.26c-.54-.55-1-.67-2.58-1.41-.64-.31-1.26-.68-1.89-1-1.38-.73-5.58-4.67-7.44-11-3.18-10.8,2.78-20.37,3.49-21.48" transform="translate(-3.13 -2.28)"/><path class="cls-4" d="M709.59,32.89c-.33.08-.12,1.27-.6,3.5a5.46,5.46,0,0,1-.68,2c-.73,1.08-2.17,1.94-3,1.55-.36-.16-.84-.66-1-.52l0,0a3.34,3.34,0,0,0,0,2c.58,2-1.08,4.35-1.23,4.56a10.41,10.41,0,0,1-2,1.91,13.3,13.3,0,0,0-2.29,2.13,4.54,4.54,0,0,0-.55.77c-.21.35-1.05,1.79-.49,2.62,0,0,.28.41.52.35s.08-1.25.82-2.22c1.09-1.43,2.06-1.11,3.56-2.22a6.06,6.06,0,0,0,3-4.69c0-.88-.13-1.89.31-2.38s.75-.11,1.28-.06c1.82.18,2.91-2.46,3.16-3a6.19,6.19,0,0,0,.56-3.87C710.64,34,709.94,32.8,709.59,32.89Z" transform="translate(-3.13 -2.28)"/><path class="cls-4" d="M661.1,28.37c.71-.43.83-.75,1.35-1a5.92,5.92,0,0,1,1.93-.44c.65-.07,3.41-.38,3.87,2.18.12.69.08,1.53.36,1.4s.57-1.37,1.29-2.59a9.47,9.47,0,0,1,5.31-3.83,7.21,7.21,0,0,1,3.71-.16c2.27.33,2.62,1.2,4.34.45.65-.29,2.41-.85,2.72-2.2,0-.07.15-.67-.07-.81s-1.07,1.16-2.61,1.52c-2.09.48-2.53-.68-4.63-.87a7.13,7.13,0,0,0-6.43,2.12c-.81.85-1.6,2-2.36,2.12-.6.09-.66-.55-1-1.06-1.19-1.75-4.37-.05-5.08.33-2.42,1.28-4.06,3.18-3.9,3.38S661,28.43,661.1,28.37Z" transform="translate(-3.13 -2.28)"/><path class="cls-4" d="M691.26,49.18a4.77,4.77,0,0,1-.47-2.72c-.06-1.31-.68-3.24-2-3.89a2.7,2.7,0,0,0-.64-.2c-1.08-.2-2.09.36-5.81,1.07-.49.09-1.41.16-2.67.4a14.08,14.08,0,0,0-2.22.54c-1.89.77-2.47,2-4,2.41h0a2.16,2.16,0,0,1-1.05.12,1,1,0,0,1-.61-.91c.05-.46.63-.62,1.38-1.16a6.43,6.43,0,0,0,1.56-1.58c.12-.08.31-.2.58-.35a12,12,0,0,1,1.73-.71c3.38-1.13,6.71.3,8.75-1.59.76-.71.25-.84,1.81-3.07,1.36-1.94,2-2.14,2-3,0-2-3.43-3.35-3.18-3.87.16-.33,1.61-.14,2.72.64a4.67,4.67,0,0,1,2,4.22c-.33,2.31-2.91,3.19-2.52,4.42a.76.76,0,0,0,.16.28,4.06,4.06,0,0,0,1.52.89c1.91.75,2.15,8.62,1.35,8.51C691.52,49.63,691.43,49.48,691.26,49.18Z" transform="translate(-3.13 -2.28)"/><path class="cls-5" d="M1501.22,334.06c-.33.08-.11,1.27-.6,3.5a5.41,5.41,0,0,1-.68,2c-.73,1.07-2.17,1.94-3,1.54-.36-.16-.84-.66-1-.51l0,0a3.43,3.43,0,0,0,.05,1.95c.59,2-1.08,4.35-1.23,4.57a10.43,10.43,0,0,1-2,1.9,14.53,14.53,0,0,0-2.29,2.13,6.09,6.09,0,0,0-.55.78c-.21.34-1,1.79-.49,2.61,0,0,.28.41.52.35s.08-1.25.82-2.22c1.09-1.43,2.06-1.11,3.56-2.21a6.08,6.08,0,0,0,3-4.7c0-.87-.12-1.89.31-2.37s.76-.11,1.28-.06c1.82.17,2.92-2.47,3.16-3.06a6.09,6.09,0,0,0,.56-3.86c-.28-1.27-1-2.5-1.33-2.42" transform="translate(-3.13 -2.28)"/><path class="cls-5" d="M1452.73,329.55c.71-.44.84-.76,1.35-1a6.48,6.48,0,0,1,1.93-.44c.66-.07,3.41-.38,3.87,2.19.13.68.08,1.53.36,1.4s.57-1.38,1.29-2.59a9.48,9.48,0,0,1,5.31-3.83,7.22,7.22,0,0,1,3.71-.17c2.28.33,2.62,1.2,4.34.45.65-.28,2.41-.85,2.72-2.2,0-.06.15-.67-.07-.8s-1.07,1.15-2.61,1.51c-2.09.49-2.52-.68-4.63-.87a7.16,7.16,0,0,0-6.43,2.12c-.81.85-1.6,2-2.36,2.12-.6.09-.66-.54-1-1.05-1.18-1.75-4.37-.06-5.08.32-2.42,1.28-4.06,3.19-3.9,3.38s1.13-.49,1.21-.54" transform="translate(-3.13 -2.28)"/><path class="cls-3" d="M1445,325.33a31.7,31.7,0,0,1,7.46-7.82,35.68,35.68,0,0,1,7.4-4.43,40.57,40.57,0,0,1,10.75-2.92,62.46,62.46,0,0,1,9.46-.87,60.21,60.21,0,0,1,10.17.73c4.66.78,14.4,2.4,22.93,10.06a40.1,40.1,0,0,1,6.94,8.23,34.09,34.09,0,0,1,4.83,10.8c2.51,11.09-2.5,23.1-2.5,23.1a40.84,40.84,0,0,1-6.76,9.84,35.36,35.36,0,0,1-7.44,5.79,29.08,29.08,0,0,1-7.06,3.12,25.62,25.62,0,0,1-9,.94c-5.17-.44-8.89-2.42-9.83-3.36-.62-.61-1.3-1.15-1.86-1.8a4.3,4.3,0,0,0-1.13-1,3.63,3.63,0,0,0-1.84-.48c-13.74-.4-18.29-5-18.29-5-1.15-1.16-4.16-4.82-4.79-7.73a4.21,4.21,0,0,0-1.06-2.27,8.81,8.81,0,0,0-2.58-1.41c-.65-.3-1.26-.68-1.9-1-1.38-.74-5.57-4.68-7.44-11-3.18-10.8,2.79-20.38,3.5-21.48" transform="translate(-3.13 -2.28)"/><path class="cls-4" d="M1506.38,339.91c-.33.08-.11,1.26-.59,3.49a5.5,5.5,0,0,1-.69,2c-.72,1.07-2.17,1.94-3,1.55-.36-.17-.84-.67-1-.52l0,0a3.36,3.36,0,0,0,0,1.95c.59,2-1.08,4.36-1.23,4.58a10.14,10.14,0,0,1-2,1.89,14.18,14.18,0,0,0-2.29,2.14,5.6,5.6,0,0,0-.55.77c-.21.35-1,1.79-.49,2.62,0,0,.28.41.52.34s.09-1.25.82-2.22c1.09-1.43,2.06-1.11,3.56-2.21a6.09,6.09,0,0,0,3-4.69c0-.88-.13-1.89.3-2.38s.76-.11,1.28-.06c1.83.17,2.92-2.47,3.16-3.05a6.12,6.12,0,0,0,.57-3.87C1507.44,341.06,1506.73,339.82,1506.38,339.91Z" transform="translate(-3.13 -2.28)"/><path class="cls-4" d="M1457.89,335.39c.71-.43.84-.75,1.36-1a5.87,5.87,0,0,1,1.92-.44c.66-.08,3.41-.39,3.87,2.18.13.68.08,1.53.36,1.4s.57-1.38,1.29-2.59a9.48,9.48,0,0,1,5.31-3.83,7.33,7.33,0,0,1,3.71-.17c2.28.34,2.62,1.21,4.34.45.65-.28,2.42-.85,2.72-2.2,0-.06.15-.67-.07-.8s-1.07,1.15-2.6,1.51c-2.1.49-2.53-.67-4.63-.86a7.1,7.1,0,0,0-6.43,2.12c-.82.84-1.61,2-2.36,2.11s-.67-.54-1-1c-1.18-1.75-4.37-.06-5.08.32-2.42,1.29-4.06,3.19-3.9,3.38S1457.81,335.45,1457.89,335.39Z" transform="translate(-3.13 -2.28)"/><path class="cls-4" d="M1488.06,356.2a4.7,4.7,0,0,1-.47-2.72c-.07-1.32-.68-3.24-2-3.89a1.84,1.84,0,0,0-.64-.2c-1.07-.2-2.08.36-5.81,1.07-.48.09-1.4.15-2.67.4a14.4,14.4,0,0,0-2.22.54c-1.88.76-2.46,2-4,2.41a2.16,2.16,0,0,1-1.06.11.93.93,0,0,1-.6-.9c.05-.47.62-.62,1.37-1.16a6.33,6.33,0,0,0,1.56-1.59c.12-.07.31-.2.59-.34a11.29,11.29,0,0,1,1.72-.71c3.39-1.14,6.72.29,8.75-1.59.76-.71.26-.85,1.81-3.07,1.36-1.94,2-2.15,2-3,0-2-3.42-3.35-3.17-3.88.15-.32,1.6-.14,2.72.65a4.68,4.68,0,0,1,2,4.22c-.34,2.31-2.91,3.18-2.53,4.42a.65.65,0,0,0,.16.27,3.82,3.82,0,0,0,1.53.89c1.91.76,2.15,8.63,1.34,8.51C1488.31,356.64,1488.23,356.49,1488.06,356.2Z" transform="translate(-3.13 -2.28)"/></g><g class="cls-6"><path class="cls-7" d="M1159.61,167.63a86.71,86.71,0,0,0-28.42,47.15c-1.62,7.48-3.22,15.57-.44,25.24,2.41,8.36,7.51,14.34,10.09,17.45a28,28,0,0,0,6.85,6.34,50.33,50.33,0,0,0,7.8,3.51,42,42,0,0,0,5.87,2.07,30.65,30.65,0,0,0,7.72.76,19.38,19.38,0,0,0,6.24-.65c2-.6,2.42-1.17,4.91-2.29a42.29,42.29,0,0,1,6.24-2.11c7.75-2.15,11.63-3.23,15.6-2.94a45.3,45.3,0,0,1,9.8,1.72c2.38.77,3.19,1.33,4.46.92,3.16-1,6-5.67,5.1-8.5a7.6,7.6,0,0,1-.49-2.63,3.37,3.37,0,0,1,.69-2.24c.29-.34.65-.58.72-.51s-.32.52-.4,1.25a2.69,2.69,0,0,0,0,.76c.26,1.55,1,2.67,1.23,4.32.17,1,0,1.05.17,1.25.72.83,3.35-.33,10-3.91s6.23-3.63,7.4-4c5.27-1.45,7.23.93,10.77-1.21a56.42,56.42,0,0,0,5.12-3.9,13.26,13.26,0,0,0,1.2-1.08c.54-.61.79-1.08,1-1s.19.58.14.89a2.37,2.37,0,0,1-.41,1c-1.3,1.77-3.29,3.59-3.12,4.42.22,1,4.08,1.28,7.7.9a24.41,24.41,0,0,0,10.46-3c3.52-2,7.71-5.59,8.25-8.72.12-.68.49-3.91,0-5,0-.09-.24-.5-.11-.61s.58.19.63.23a3.18,3.18,0,0,1,1.07,2.1,12.07,12.07,0,0,1-.85,6.61c-2,4.17-5.28,4.55-5,6.5a2.75,2.75,0,0,0,.07.3c.36,1.39,1,4,3.11,5.44a5.85,5.85,0,0,0,2.29,1c.92.19,1.67.08,1.72.3s-.14.32-1.09.75a5.18,5.18,0,0,1-3.28-.24,5.28,5.28,0,0,1-1.87-1.32c-1.07-2.32-2.22-3.79-2.6-3.93a5.72,5.72,0,0,0-.56-.17c-.16,0-.32-.07-.5-.09a10.22,10.22,0,0,0-4,.44c-.62.21-5.19,1.8-7.13,2.27-.64.15-4-.25-10.64-1.07a37.16,37.16,0,0,0-8.1.06,13.76,13.76,0,0,0-1.71.4c-1.65.5-2.41,1-5.57,2.75-10.82,6.08-12,6.08-14.71,8.84s-4.21,4.29-4.65,6.65a13.4,13.4,0,0,1-1.44,4.4c-.13.24-1.15,2.08-1.6,1.91-.08,0-.47-.21,0-3,.5-3,.82-5.15,0-6.54-.34-.57-.93-1-4-1.72a32.25,32.25,0,0,0-7.36-1.15,33.56,33.56,0,0,0-14.71,2.3c-3.71,1.55-10,4.22-12.59,10.78a17.43,17.43,0,0,0-1.11,7.23c.15,6.4,3.18,11,6.77,16.32,2.72,4,5.51,8.15,10.16,11.9,9.52,7.66,20.09,8.2,31.32,8.95,8.73.58,17.82,1.18,24.74-2.76a25.91,25.91,0,0,1,7.91-3.21,29.32,29.32,0,0,1,9.58-.23c9.93.88,14,3.66,19.1,1.3.9-.41,2.31-1.23,2.41-1.07s-2,2.17-4.49,3.37c-.87.41-3.6,1.6-9.22,1.22-6.64-.45-8.51-2.5-9.8-1.38-2.18,1.89,0,10.46,5.12,16.29,7.35,8.36,18.75,8.73,25.3,9a53.58,53.58,0,0,0,25.75-5.86c5.8-2.82,9.77-6,15.37-10.43a95.06,95.06,0,0,0,13.32-12.63c1.15-1.34,2.17-2.61,3.06-3.78,11.09-12.07,12.67-15.65,15.83-22.82.63-1.44,1.7-4.17.55-6.2a5,5,0,0,0-2-1.83,5.84,5.84,0,0,0-3.9-.46,5.14,5.14,0,0,0-2.67,1.36c-.92.93-1.06,1.93-1.29,1.88s-.57-1.92.28-3.36c1.06-1.79,3.51-2.3,4.9-2.64,2.12-.51,2.55-.24,3.57-.57,2.75-.88,5.91-7.34,5.91-7.34,2.74-6.32,4.11-9.48,4.73-13.11,0,0,2.28-13.23-4.4-25.44-.74-1.36-1.84-3-3.64-3.48-.54-.14-1.94-.38-5.17,1.53-2.88,1.72-7.72,4.65-8.93,9.92-.49,2.13.2,2.07-.37,6.61a15,15,0,0,1-2.75,6.75c-.21.24-.48.54-.65.47-.4-.18.52-2.32.78-4.78.53-5-.56-6.31.54-9.55a39.76,39.76,0,0,1,1.8-3.68c1.92-3.71,2.83-4.89,2.45-5.36s-1.88.49-4.68,1.46c-3.06,1.06-5.55,1.34-9.73,1.8-3.95.43-5.93.65-6.42.65-1.5,0-2.92-.15-4.31.76a6.83,6.83,0,0,0-1.85,2.09c-2.52,3.59-2.46,4.46-3.93,5.77-.48.42-2.23,1.92-4.07,1.52a2.92,2.92,0,0,1-1.5-.78,5.3,5.3,0,0,0,1.59.28,3.68,3.68,0,0,0,2.4-1.32,6.45,6.45,0,0,0,.89-1.66,14.11,14.11,0,0,0,1.17-4.42,4.14,4.14,0,0,0-.2-2.4c-.4-.74-1-1.05-2.08-1.53a10,10,0,0,0-3.87-.91,7.19,7.19,0,0,0-3,.45,10.24,10.24,0,0,0-3.06,2.21c-.15-.14.86-2.49,3.06-3.6a9.36,9.36,0,0,1,4-.75,12.13,12.13,0,0,1,3.07.06c1.78.33,2.46,1.11,3.73,1.66,1.68.74,2.91.45,5.83.2,6.37-.57,5.91.31,10.67-.37a30.56,30.56,0,0,0,7.24-1.78,25.51,25.51,0,0,0,5.18-2.69,28.61,28.61,0,0,0,3.34-2.81c3.19-3,4.78-4.45,5.41-5.62,1.93-3.62,1-7.7.5-9.87-.42-1.83-1.06-3.4-3.45-7.57A93.86,93.86,0,0,0,1338,171.3a96.8,96.8,0,0,0-15.88-9.86s-3.42-2.09-14.88-7a12.55,12.55,0,0,0-6.19-1.15c-.92.08-4.94.2-5.73,2.24-.27.69-.19,1.64-.83,2a.9.9,0,0,1-1,0c-.49-.48.5-1.73.5-3.27a7.42,7.42,0,0,0-1.44-3.67c-3.8-5.33-21.62-7.4-21.62-7.4a132.52,132.52,0,0,0-19.36-2.11c-1.34-.05-.14,0-10.65,0a81.52,81.52,0,0,0-10.91.56c-.84.1-1.26.14-1.65.23-2,.48-7.71,1.82-9.14,5.79-.93,2.57.8,3.4.52,10a18.19,18.19,0,0,1-.88,5.23,10,10,0,0,1-3,4.9,7.33,7.33,0,0,1-3,1.48c-.85.19-1.84.23-1.9,0s1-.51,2.21-1.52a8.37,8.37,0,0,0,1.56-1.84,12.32,12.32,0,0,0,1.66-3.9,15,15,0,0,0-.08-6.81c-.56-2.67-1.38-6.49-4.23-8.26-1.86-1.16-3.89-1-6.91-.46a90.81,90.81,0,0,0-21.62,6.88c-3.51,1.58-5.88,2.65-9.14,4.44A114.05,114.05,0,0,0,1159.61,167.63Z" transform="translate(-3.13 -2.28)"/><path class="cls-8" d="M1182.16,180.21c0,.36-3.14-.13-7.28,1.07-2.26.65-6.43,1.92-8.32,5.51a11.39,11.39,0,0,0-1,4.74c-.25,2.79-.44,5,.74,6.5,1.72,2.14,4.22-.05,8.32,1.91,2.79,1.34,2.63,2.84,7.13,5.51,2.62,1.55,3.71,1.66,4.16,1.68,3.29.17,6.06-2.34,6.17-2.44.81-.76,1.27-1.47,1.41-1.38s-.37,2.14-1.63,3.52c-2.71,3-6.84,2.64-7.29,2.6-2-.19-3.66-1.2-7-3.22s-3.07-2.39-4.75-3.06a12.35,12.35,0,0,0-8.92.16c-1.17.5-3.89,1.67-4.6,4.13-.37,1.24.06,1.82.29,4,.13,1.23.51,4.76-.59,7.19-1.93,4.3-8.58,5.16-8.62,5.05a15.76,15.76,0,0,0,3.49-2.06,8.69,8.69,0,0,0,2.45-2.53,7.72,7.72,0,0,0,.82-4.43c-.16-5.28-2.08-6-1.41-8.11,1-3.1,5.2-2.43,6.69-6.27.28-.73.23-1,.29-4.59.1-5.25.14-7.88.3-8.41,1.45-5,8-7.73,12.63-8.11C1179.09,178.86,1182.18,179.85,1182.16,180.21Z" transform="translate(-3.13 -2.28)"/><path class="cls-8" d="M1146.58,232.57c.3,0,.3,2.79,2.17,5,.28.32,2.18,2.59,4.62,2.46,1.89-.09,2.22-1.17,6.73-4.72.49-.39,1.49-1,2.76-2a17.31,17.31,0,0,0,2.2-1.91c1.71-2,1.71-3.84,3.21-5.15a7.52,7.52,0,0,1,1.12-.75c3-1.64,4.18-.19,12.52-.52,4.16-.17,7.47-.33,11.55-1.69,3.6-1.2,7.61-2.61,10.29-6.75a13.77,13.77,0,0,0,2.33-7.17c.12-4.9-2.66-8.53-3.88-10.12-3.4-4.43-5.86-3.88-7.57-7.91a13.62,13.62,0,0,1-.88-7,15.72,15.72,0,0,1,3-7.07c4.66-6.5,12-8.94,12.23-8.53.08.15-1.16.78-3.49,2.84-3.89,3.44-8.46,7.48-8.55,12.76a10.8,10.8,0,0,0,1.36,5.24c1.46,2.68,3.5,3.52,5,4.71,4,3.08,5.79,9.29,5.73,13.56-.13,8.76-8,15.12-13.56,17.51a25.29,25.29,0,0,1-7.6,1.79c-8.89,1.07-12.85-1.94-17.18,1.05-1.38.95-1.34,1.63-2.11,2.95a12.39,12.39,0,0,1-2,2.57c-3.18,3.3-7.61,3.5-8.92,6.92-.48,1.27.15,1.15-.46,4.68-.53,3.09-1.11,3.7-.72,4.7,1,2.4,5.5,2,5.49,2.8,0,.47-1.72,1.08-3.35.79a5.65,5.65,0,0,1-4.32-3.9c-.79-2.95,1.63-5.46.57-6.71-.49-.57-1.07-.13-2.46-.42-2.76-.58-4.88-3.3-5.69-5.76C1146,234.72,1146.32,232.61,1146.58,232.57Z" transform="translate(-3.13 -2.28)"/><path class="cls-8" d="M1203.07,292.79a2.36,2.36,0,0,1-1.14-2.36c.07-.52.32-.89.5-2.07.1-.62,0-.67,0-.68-.2-.08-1.19,1.31-1.73,2.87-1,2.81-.15,3.8-1.19,4.91-.89,1-2,.81-2.68,2.14a4.51,4.51,0,0,0-.31,1.15c-.5,2.68.37,6.4.76,6.35s-.67-3,.83-5.9c1.19-2.33,3.44-3.62,5.41-4.76a12.39,12.39,0,0,1,3.67-1.66c3.91-.89,5.33,1.5,9.39.7a8.59,8.59,0,0,0,3.93-1.85,6.62,6.62,0,0,0,2.4-4.15c.06-.58,0-1.51-.22-1.57s-.53.54-.84,1a13.22,13.22,0,0,1-3,3.12,9.89,9.89,0,0,1-3.57,1.67c-4.34,1-6.59-2.35-9.43-.87C1204.47,291.63,1204,293.07,1203.07,292.79Z" transform="translate(-3.13 -2.28)"/><path class="cls-8" d="M1236.76,275.47c.93-3.52,2.45-5.45,2.26-5.62s-2.2,1.68-3.51,4.66c-.51,1.14-2.37,5.35-1.19,9.45,1.09,3.83,3.78,3.83,4.61,8a15,15,0,0,1,0,4.59c-.39,4.22-1.43,4.62-1.79,8-.07.66-.64,6.59,2.07,9.3.9.9,2,1.25,2.17,1s-1.69-1.28-2.38-3.68a17.36,17.36,0,0,1-.26-5,9.54,9.54,0,0,1,.07-1.66c.4-1.94,1.83-2.84,2.38-6.26.76-4.75-1.25-7.26.19-9.06.61-.77,1.95-.94,4.61-1.26a30.82,30.82,0,0,1,4-.23c5.28,0,8,.07,10.8.84,2.39.66,3.79,1.42,4.77,2.91.2.31,1.3,2,.86,3.29-.36,1.06-1.56,1.24-1.49,1.6s1.35.7,2.13,0c1-.91.84-3.31.44-4.74a7.74,7.74,0,0,0-3.51-4.36c-.41-.26-1.69-1.07-5.34-1.53a47.53,47.53,0,0,0-6.78-.15c-4,.07-6,.11-6.77.15-2.74.16-3.43.31-4.65-.15a6.55,6.55,0,0,1-4-3.83C1235.64,279.7,1236.19,277.64,1236.76,275.47Z" transform="translate(-3.13 -2.28)"/><path class="cls-8" d="M1215.14,191.61c.42-.16-1.41-3.39-.15-6.27.94-2.13,3.09-3,5.28-3.9,1.34-.55,6.94-2.83,11.29-.31,1.16.67,2.15,1.64,2.6,1.3s-.56-1.93-.56-3.79c0-4,5.14-7.12,6.58-8a24.44,24.44,0,0,1,7.86-2.79c5.39-1.23,7.27-.51,10-2.56,1.75-1.29,1.26-3.67,3.05-4.36,1.46-.57,2.95.24,3,.12a5,5,0,0,0-4.18-1c-1.88.48-2,2.62-3.71,3.52-3.93,2-6.38,1-11.22,2.29-3.36.88-9.25,2.42-11.24,6.88-.67,1.52-.89,3.36-2.39,4-1.19.52-2.15-.14-3.57-.46-4.87-1.11-9.61,3-10.66,3.94-1.65,1.44-4,3.49-4.09,6.5C1213,189.48,1214.78,191.74,1215.14,191.61Z" transform="translate(-3.13 -2.28)"/><path class="cls-8" d="M1292.7,158.8a1.06,1.06,0,0,1,.46.78c.22,1.45-2.26,1.91-3.65,4.58-.8,1.52-1.13,3.58-.37,4.89a2.46,2.46,0,0,0,.18.27c.36.44,1,.79,3.16,1.56a32,32,0,0,0,6.2,1.91c2.92.44,4.77.07,4.8.31s-2.36,1.29-5.2,1.22-3.7-1.08-8-1.6a31.88,31.88,0,0,0-3.5-.23,50.13,50.13,0,0,0-7.35.3,30.53,30.53,0,0,0-13.67,5.36c-4,3.12-8.66,8.75-8.8,13.34,0,.82,0,5.27-.19,7.31a13.42,13.42,0,0,0-.07,1.91c0,1.12.24,1.42.07,1.76-.32.62-1.8.55-3.42.46-2.69-.16-4-.23-5-.2a17.54,17.54,0,0,0-5,1.11c-4.27,1.34-8.48,2.71-12.48,6.66l-.67.69a30.56,30.56,0,0,0-8.76,20.22,30.12,30.12,0,0,0,0,6.65,33.81,33.81,0,0,1,.75,8.18c-.08,1.26-.21,1.71-.39,1.74-.51.07-1.4-3.26-1.93-5.28-1.17-4.47-1.76-6.71-1.92-8.92-.38-5.2,1.39-9.23,3.08-13.08,1.78-4,5.31-12.06,13.4-16.78a32.09,32.09,0,0,1,10.18-3.67,16.83,16.83,0,0,1,5.06-.5c1.69.22,2.85.79,3.71.12a2.92,2.92,0,0,0,.79-2.3c.25-4.48-.21-6.36.25-8.72a12.88,12.88,0,0,1,1.37-3.55,23.69,23.69,0,0,1,7.47-8.61,36.62,36.62,0,0,1,15-5.62,9.19,9.19,0,0,0,3.87-1,6.58,6.58,0,0,0,.78-.55c2.06-1.71,3.18-4.37,5-6.79C1289.26,161,1291.66,158.27,1292.7,158.8Z" transform="translate(-3.13 -2.28)"/><path class="cls-8" d="M1244.71,217.69c.1.17,1.15-.3,1.28-.36a9.11,9.11,0,0,0,2.29-1.63c2.46-1.8,7.67,2,8.1,2.29a5.09,5.09,0,0,1,2,2.45,4.55,4.55,0,0,1,.15,2.14c-.19,1.3-.85,6.26,0,10a15.21,15.21,0,0,0,2,4.67,13.05,13.05,0,0,0,3.56,4.2c1.42,1,3.27,1.65,3.49,1.3s-1.7-1.69-3.25-3.79a16.71,16.71,0,0,1-2.84-8.83c-.11-1.22-.51-6.12,3.12-13.92,2.47-5.29,6.43-13.8,15.75-19.19,5.93-3.43,11.28-4,17.31-4.67a45.6,45.6,0,0,1,17.61,1,29.68,29.68,0,0,1,11.51,5.2,23.8,23.8,0,0,1,8.85,12.23c1.59,5.51,1.28,12.75-1.48,14.72-.32.23-1.3.83-1.2,1.11s1.61.29,2.82-.3c3.42-1.67,3.29-8.74,3.27-9.79-.13-7.46-4.21-12.87-5.79-14.91a29.87,29.87,0,0,0-11.22-8.8,34.51,34.51,0,0,0-9.44-2.83,53.89,53.89,0,0,0-16.71-.23c-6.65.91-13.7,1.87-20.73,7.11a42.14,42.14,0,0,0-9.11,10c-2,3.11-2.94,4.66-3.37,6.71-.29,1.35-.25,2.24-.89,2.6-1.33.73-2.91-2.35-6.54-2.91a10.61,10.61,0,0,0-5.79.92C1246.71,215.32,1244.55,217.41,1244.71,217.69Z" transform="translate(-3.13 -2.28)"/><path class="cls-8" d="M1313.12,209.25c.32.23-4.43,5.73-6.59,14.72a39.94,39.94,0,0,0-.76,14.56c.55,4,2.07,15.08,10.11,20.58,4.4,3,10,3.82,12.5,4.19l5.56.39c3.26.23,4,.33,4.6-.29,1.2-1.23,1.08-4.36-.17-5.79a7,7,0,0,1-1.19-1.5c-.4-.72-.78-1.82-.56-2,.4-.3,3.76,2.22,4.84,6.24a10.81,10.81,0,0,1-2.58,10.15c-2.27,2.27-5.51,2.65-5.67,2.32s1.49-1.47,2.08-1.92a8.84,8.84,0,0,0,1.39-1.06c.13-.15,1.42-1.59,1.09-2.56-.25-.76-1.41-.92-8-1.55l-1.85-.17a59.71,59.71,0,0,1-7.91-1.15,21,21,0,0,1-10.6-6.28,24.68,24.68,0,0,1-5.34-10.64,37.87,37.87,0,0,1-1-12.43,42.24,42.24,0,0,1,3-15.05C1308.75,213.39,1312.84,209,1313.12,209.25Z" transform="translate(-3.13 -2.28)"/><polygon class="cls-8" points="1258.08 271.62 1314.93 330.53 1328.46 314.83 1336.2 331.47 1371.39 399.6 1391.05 372.66 1437 442.6 1438.74 440.39 1403.94 330.25 1376.12 366 1347.45 268.86 1324.58 295.54 1298.66 249.85 1258.08 271.62"/></g><path class="cls-8" d="M1126,141.72c1.23-.23,2.52,1.65,2.83,2.08,2.79,4,10.73,11.51,14.7,15.27,6.52,6.19,12.34,8.65,11.61,11.16-.16.52-.46.58-2,2.11a24.19,24.19,0,0,1-4.24,4.78c-2.82,2.66-8.61,11.07-12.89,20.6a87.33,87.33,0,0,0-6.64,22.08,46.63,46.63,0,0,0-.88,11.54,44.47,44.47,0,0,0,6.16,19.28,47.12,47.12,0,0,0,6.8,8.73c2.42,2.46,4.48,4.55,7.85,6.26,2.11,1.08,3.65,1.07,6.4,2.56a17,17,0,0,0,3.28,1.43,21.71,21.71,0,0,0,2.67.6,41.71,41.71,0,0,0,4.78.69,32,32,0,0,0,5.92-.09,15.32,15.32,0,0,0,4.16-.85,30,30,0,0,0,3-1.51,36.83,36.83,0,0,1,5.5-2.11c.91-.27.89-.22,2.51-.63,4.42-1.13,5.26-1.66,8.48-2.31a22.54,22.54,0,0,1,3.87-.5,25.82,25.82,0,0,1,2.91.11,47.9,47.9,0,0,1,5.55.8,21,21,0,0,1,3.49.82,21.47,21.47,0,0,0,2.35.86,4.62,4.62,0,0,0,1.44.24,4.21,4.21,0,0,0,1.52-.33,7.85,7.85,0,0,0,3-2.33,10.83,10.83,0,0,0,2.21-4.44c0-.29.08-.58.08-.58s0-.35,0-.67a6.29,6.29,0,0,0-.45-2.08s.06.23.19.68a12.65,12.65,0,0,1,.5,1.84c.06.56,0,.71.11,1a1.39,1.39,0,0,0,.69.6c1,.48,2.58-.37,2.81-.49,1.56-.86-22.06,12.26,6.32-3,3.36-1.81,5-2.72,5.34-2.91a15.38,15.38,0,0,1,1.86-1,9.42,9.42,0,0,1,2.94-.93,16.14,16.14,0,0,1,2.56,0l1.76.05h0c.49,0,1.88,0,2.39,0a6.21,6.21,0,0,0,3-1.31c.69-.46.72-.61,1.71-1.27a13,13,0,0,0,1.3-.91c.45-.37.83-.75.83-.74a6.31,6.31,0,0,0-.88,1,4.45,4.45,0,0,0-.56,1.35,1.75,1.75,0,0,0-.08.6,1.53,1.53,0,0,0,.35.82c.43.56,1.26.72,2.38.83a20.39,20.39,0,0,0,2.48.14,39.72,39.72,0,0,0,7.52-.75,20.9,20.9,0,0,0,2.62-.71,24.88,24.88,0,0,0,6.4-3.46,20.08,20.08,0,0,0,4.53-4.07,11.25,11.25,0,0,0,.68-1.09,9.25,9.25,0,0,0,.92-2.53,6.48,6.48,0,0,0,.11-2.31,9.45,9.45,0,0,1-1,5.72,11.29,11.29,0,0,1-2.19,2.58,11.66,11.66,0,0,0-2,1.78,3.16,3.16,0,0,0-.85,1.51c0,.24-.07.56.32,1.87a10.25,10.25,0,0,0,1.38,3.3,9.23,9.23,0,0,0,.72.84,7.65,7.65,0,0,0,.85.74c.3.21.54.36.63.41.52.3.85.4.84.42s-.52-.16-1.54-.52a1.54,1.54,0,0,1-.72-.41,1.36,1.36,0,0,1-.32-.58c-.19-.52-.51-1-.75-1.48a5.48,5.48,0,0,0-2-2.44,4.43,4.43,0,0,0-2.64-.36,12.54,12.54,0,0,0-3.07.63c-1.72.49-2.27.76-4.54,1.46a16.48,16.48,0,0,1-2.35.63,12.59,12.59,0,0,1-3.62-.28c-1.23-.17-2.48-.25-3.71-.38-2.78-.3-4.17-.44-6-.55a19.54,19.54,0,0,0-5.23.14,15.38,15.38,0,0,0-2.06.52c-2.06.65-2.8,1.26-7.49,3.9-2,1.12-3.39,1.87-3.9,2.14l-1.65.88c-2.49,1.32-2.91,1.52-3.76,2a21.5,21.5,0,0,0-2.11,1.37,21.8,21.8,0,0,0-1.76,1.49,15.3,15.3,0,0,0-4,5c-.23.56-.43,1.21-.43,1.21a15.11,15.11,0,0,0-.48,2,7.77,7.77,0,0,1-1.52,3.51c-.09,0,.19-.74.45-2.25a14.33,14.33,0,0,0,.27-2.86,6,6,0,0,0-.54-2.8,3.59,3.59,0,0,0-.8-1.15c-.57-.54-1.17-.69-3.46-1.15l-1.66-.33-4.64-.83a30.8,30.8,0,0,0-7.85.11,38.42,38.42,0,0,0-10.24,2.75,25.07,25.07,0,0,0-5.71,3.21,17.81,17.81,0,0,0-2.8,2.61,18.06,18.06,0,0,0-2.32,3.57,19,19,0,0,0-1.44,3.79,18.19,18.19,0,0,0-.06,7.86,25.91,25.91,0,0,0,3,8.35c.93,1.63.89,1.13,3,4.5,1.82,2.85,2.2,3.74,3.58,5.6a36.31,36.31,0,0,0,3.2,3.74,42.78,42.78,0,0,0,7.31,6.1,40,40,0,0,0,17.93,6c.5.06,0,0,3.89.28,7.76.56,8.89.75,12.38.88a66.7,66.7,0,0,0,7.21,0c3.35-.21,5.12-.32,7.41-1.1,1.89-.64,1.84-1,6.35-3a39.18,39.18,0,0,1,4.43-1.81,25.85,25.85,0,0,1,6.73-1,41.38,41.38,0,0,1,6.72.66c3.52.51,5.28.76,7.58,1.26a18.44,18.44,0,0,0,4.53.61c1.62,0,2.76-.26,2.78-.17a14.88,14.88,0,0,1-4.8,1.16,24.18,24.18,0,0,1-7.58-.39c-2.69-.6-2.88-.66-2.88-.66-1.43-.42-2-.72-2.94-.6a2.73,2.73,0,0,0-2,1,3.3,3.3,0,0,0-.43,1.7,11.9,11.9,0,0,0,0,2.64,20.58,20.58,0,0,0,2.08,6.42,26,26,0,0,0,3.31,5.44,24.66,24.66,0,0,0,6.67,5.66,26.83,26.83,0,0,0,6.35,2.64,42.27,42.27,0,0,0,10.88,1.54,54.09,54.09,0,0,0,12-.39,51,51,0,0,0,9.33-2.42,62.66,62.66,0,0,0,11.53-5.32s3.47-2.08,10.24-7.26c1.75-1.33,1.58-1.47,2.32-1.8.27-.11.69-.26.78-.61s-.25-.77-.59-1.21a21.31,21.31,0,0,1-1.22-2.2c-.82-1.41-.6-1.47-1.61-3.51-1.11-2.26-1.24-1.9-1.81-3.35-.37-1-.64-1.94-1-1.93-.19,0-.26.27-.75.83a8.07,8.07,0,0,1-.75.71,38.07,38.07,0,0,0-3.25,4c-1.29,1.73-1,1-3.58,4.06-1,1.26-2.7,3.33-3.73,4.31a6.64,6.64,0,0,0-.63.65c-.63.78-.74,1.4-1,1.39s-.18-.19-.53-.61a6.26,6.26,0,0,0-.69-.69c-.9-.82-5.37-5.74-8.86-9.31-1.47-1.49-1.13-1.08-3.07-3-2.54-2.57-4.28-4.45-5.47-5.72-1-1.05-1-1-7.82-8.1L1281.73,294c-12.19-12.62-13.37-13.83-14.3-14.86a19.88,19.88,0,0,0-2.48-2.61c-.34-.26-1.64-1.23-1.85-1.78a.87.87,0,0,0-.4-.55c-.1-.05-.17,0-.18-.08s.88-.55,1.06-.64c.93-.4,1.77-1,2.67-1.45,5-2.59,10-5.34,15-8,12.67-6.73,19-10.1,19.24-10.34,0-.05.7-.74,1-.57.18.1.09.37.38.83.18.26.28.27.5.6a2.86,2.86,0,0,1,.3.59c.24.57,1.06,2,1.89,3.42,1.31,2.28,2.59,4.57,3.92,6.84,2.35,4,4.8,8.4,8.27,14.61,0,0,6.82,12.23,9.25,16.37.29.48.57,1,.57,1,.65,1.09.56.92.67,1.12.31.53.3.55.34.57.64.34,2.94-3.08,4.24-4.88.15-.2,2-2.36,5.71-6.68s4.75-5.45,7.18-8.32,3.51-4.16,3.76-4.51.83-.94,1.2-1.45.46-.67.62-.63.27.87.32,1.37a10.47,10.47,0,0,0,1.28,3.6,39.7,39.7,0,0,1,1.68,5.55c.55,2,1.59,5.18,3.65,11.53,2.73,8.4,2.75,8,2.77,8.35,0,.17,0,.82.3.91s1-1.07,2-2.72c1.42-2.33,1.25-1.74,2.35-3.6.63-1.07,1.36-2.57,2.82-5.57.22-.46.71-1.45,1.23-2.81a11.07,11.07,0,0,0,.78-2.5,6.19,6.19,0,0,0-.16-3,5.65,5.65,0,0,0-3.18-3.13,7.62,7.62,0,0,0-4.57-.16,4.06,4.06,0,0,0-1.43.6,10.23,10.23,0,0,0-1.1,1,2.61,2.61,0,0,1,.72-1.21,5.24,5.24,0,0,1,2.14-1.24,15.68,15.68,0,0,1,1.92-.58,7.4,7.4,0,0,1,1.41-.27c.32,0,.51,0,1-.06a5.35,5.35,0,0,0,.88-.11,3.92,3.92,0,0,0,1.1-.41,7.2,7.2,0,0,0,1.84-1.45,15.73,15.73,0,0,0,2-2.69,21.68,21.68,0,0,0,1.68-3.44,50.54,50.54,0,0,0,2.35-8.48,82.73,82.73,0,0,0,.64-19.67,42.52,42.52,0,0,0-1.71-8.79,10.2,10.2,0,0,0-2.95-5,5,5,0,0,0-1.32-.91c-2.09-.91-4.34.29-7,1.73a19.2,19.2,0,0,0-5.17,3.79,12.4,12.4,0,0,0-3.88,8.57c-.06,1.7.3,2,.08,3.71a16,16,0,0,1-.75,3.13,9,9,0,0,1-.9,2.25c-.08,0,.19-.88.34-2.28a21,21,0,0,0,.11-2.6c0-1.33-.08-1.68-.09-3.52a9,9,0,0,1,.12-1.81,8.61,8.61,0,0,1,.53-1.71,15.94,15.94,0,0,1,1.07-2.08c2.35-4.1,1.85-4,2.56-4.89a2.52,2.52,0,0,0,.51-1.21,1.43,1.43,0,0,0-.14-.88,1.46,1.46,0,0,0-1-.66c-.51-.07-.79.18-1.76.61-.45.19-.91.34-1.36.52,0,0-1.64.65-3.44,1.21a35.55,35.55,0,0,1-4.75.79c-.91.12-.87.11-6.27.72a26.72,26.72,0,0,1-2.75.22,15.71,15.71,0,0,0-1.95,0,6.74,6.74,0,0,0-2.13.53,5.11,5.11,0,0,0-1.15.65,7.13,7.13,0,0,0-1.44,1.71c-.73,1-1.09,1.53-1.2,1.7-.94,1.46-1.07,2-2,3.27a4.75,4.75,0,0,1-.88,1,8.54,8.54,0,0,1,.58-1.3,11.92,11.92,0,0,0,.86-2.58c.06-.33,0-.09.24-1.92a6.29,6.29,0,0,0,.13-1.46,3.52,3.52,0,0,0-.64-1.81,5.41,5.41,0,0,0-2.35-1.48,9.86,9.86,0,0,0-1.22-.5,11.27,11.27,0,0,0-3.79-.46s.93-.06,2.13-.11,1.12-.07,1.47-.06a7.71,7.71,0,0,1,2.08.28,13.93,13.93,0,0,1,2,1,10.69,10.69,0,0,0,1.76.8,7.73,7.73,0,0,0,2.43.19c.45,0,.83-.06,1.2-.11,1-.12,1.16-.22,1.84-.24.47,0,.53,0,1.2,0l1-.06,1-.05c.76,0,1.4,0,2.26,0,1.61,0,1.45.1,2.11.07s.47,0,2-.18c1-.1,1.12-.09,1.59-.15s1-.14,1.82-.33,2-.43,3.18-.8a25.5,25.5,0,0,0,4.54-1.84,29.82,29.82,0,0,0,5.6-4l1.79-1.67c1.28-1.21,1.54-1.45,1.88-1.79a18.76,18.76,0,0,0,1.84-2,10,10,0,0,0,1.44-3.21,11.82,11.82,0,0,0,.36-2.78,15.9,15.9,0,0,0-.18-2.68,23.93,23.93,0,0,0-1-4.45,17.71,17.71,0,0,0-1.72-3.7c-.22-.34-.34-.52-.68-1.08-.72-1.18-1.14-2-1.44-2.62-.6-1.14-1.07-1.9-2-3.44-.23-.38-1.06-1.71-2.44-3.66-.35-.51-2.48-3.53-4.88-6.43a107.25,107.25,0,0,0-11.44-11.64,115.37,115.37,0,0,0-19.27-13c-4-2.1-8.38-4.06-8.38-4.06-2.3-1-2.33-1-4.21-1.87a35.75,35.75,0,0,0-4.32-1.87,17,17,0,0,0-2.78-.71,15.93,15.93,0,0,0-6.45.66,3.47,3.47,0,0,0-2,1.15c-.24.33-.47.8-.53.77s.06-.3.1-.77a4.51,4.51,0,0,0,0-.71,8.63,8.63,0,0,0-1.44-3.57c-2-2.72-7.2-4.34-7.2-4.34a61.62,61.62,0,0,0-12.86-3c-4.63-.72-8.25-1.1-15.47-1.87-4-.42-5.72-.56-7.8-.66-2.46-.11-4.71-.08-9.23,0-3.07,0-5.51.11-8.43.41-.89.09-2,.22-3.41.49a26.16,26.16,0,0,0-5,1.38,10.37,10.37,0,0,0-3.09,1.59,6.7,6.7,0,0,0-2.45,3.68,5.78,5.78,0,0,0-.06,2.64c.14.59.32.88.48,1.75a11.23,11.23,0,0,1,.16,1.65c.08,1.47.11,2.2.11,2.86a16.84,16.84,0,0,1-.48,4.83,13.93,13.93,0,0,1-1.39,3.24,7.47,7.47,0,0,1-1.6,2.2,3.79,3.79,0,0,1-1.65,1c-.06-.08.65-.55,1.33-1.43a8.69,8.69,0,0,0,1.23-2.47,15.92,15.92,0,0,0,1-5.49,17.72,17.72,0,0,0-.43-3.69,26.37,26.37,0,0,0-.85-3.29,12.51,12.51,0,0,0-1.23-3.13,7.09,7.09,0,0,0-2.56-2.36c-1.92-1.08-3.9-.91-6.08-.61a69.91,69.91,0,0,0-10.78,2.36c-2.76.88-5.6,1.9-8.64,3.13a88.16,88.16,0,0,0-11.48,5.33c-4.56,2.61-9.28,5.72-9.28,5.72-1.25.82-1.23.83-1.39.87-7.09,2.19-18.65-25-22.91-29.83-.17-.2-1.65-1.87-1.21-2.68a1.86,1.86,0,0,1,.64-.55,5.76,5.76,0,0,1,1.28-.66,9.6,9.6,0,0,0,2.19-1.38c.93-.65,1.39-.86,5.34-3.13s3.59-2.12,4.64-2.69a80.07,80.07,0,0,1,8.06-3.68c4-1.65,5.93-2.48,8.48-3.4a131.58,131.58,0,0,1,14.14-4.18c4.31-1,7.73-1.62,14.41-2.75,8.42-1.42,12.62-2.13,18.73-2.8,3.92-.43,10.25-1,18.09-1.26,2.64-.08,9.63-.25,18.57.16,1.29.06,9.89.48,15.1,1.27.5.07,2.17.34,4.53.66s3,.37,4.59.6c2.23.32,3.85.62,5.23.88,8.42,1.56,8.44,1.45,11.53,2.09,6,1.24,10.54,2.6,14.83,3.9,3.14.94,7,2.11,12,4,1,.37,5.19,2,10.67,4.5,2.6,1.2,5.44,2.5,9.12,4.51a135.05,135.05,0,0,1,11.85,7.3c1.5,1,4.15,2.85,7.35,5.3,1.21.93,3.08,2.35,5.35,4.26a128.68,128.68,0,0,1,9.44,8.79c3.17,3.21,5.74,6.08,7.63,8.29a166.74,166.74,0,0,1,23.16,35.49,117.28,117.28,0,0,1,5.34,12.52,111.43,111.43,0,0,1,5,19.94,115.86,115.86,0,0,1,1.33,15.82,139.3,139.3,0,0,1-1,19.72c-.54,5-1.18,8.74-1.6,11.15A188.32,188.32,0,0,1,1412,295.3a129.86,129.86,0,0,1-5.49,15.88,114.47,114.47,0,0,1-8.38,16.09,109.17,109.17,0,0,1-7.15,10,153.16,153.16,0,0,1-16,17.19,132.44,132.44,0,0,1-17.83,14.45,117,117,0,0,1-29,14.06,109,109,0,0,1-23.9,4.89c-3.06.26-16.4,1.23-29.67-2a90.5,90.5,0,0,1-11.26-3.58,47.81,47.81,0,0,1-7.95-3.68,45,45,0,0,1-11.2-9.28,24.94,24.94,0,0,0-4-4,14.08,14.08,0,0,0-5.5-2.92,20.9,20.9,0,0,0-4.27-.43c-1.3,0-1.41,0-2.72,0-1.8-.07-2.59-.27-4.27-.44-1.93-.21-2.65-.14-4.53-.22a69.42,69.42,0,0,1-7.31-.83c-6.18-.89-12.83-1.86-18.73-3.24-3.13-.73-6.19-1.58-6.19-1.58s-1.3-.36-2.35-.67a96.82,96.82,0,0,1-13.13-5.27,64.92,64.92,0,0,1-10.67-6.16c-12.52-9.33-17.53-23.42-18.36-26.47-.66-2.47-1.45-4.9-2.13-7.36a15.54,15.54,0,0,0-.91-2.81,13.26,13.26,0,0,0-4.48-5.16,24.77,24.77,0,0,0-4.06-2.14c-4.77-2.23-6.16-2.49-9-4.07a39.57,39.57,0,0,1-4.38-2.85c-7.8-5.69-13.82-14.57-15.58-17.2a93.06,93.06,0,0,1-8.49-15.71,91.15,91.15,0,0,1-6.35-24.39,95,95,0,0,1,1.55-30.65,114.36,114.36,0,0,1,8.38-25.43,99.91,99.91,0,0,1,5.39-10.55,104.2,104.2,0,0,1,10.08-13.79,55.47,55.47,0,0,1,6.09-6.64,52.1,52.1,0,0,0,4.43-4,26.66,26.66,0,0,1,2.13-2C1125.55,141.91,1125.75,141.77,1126,141.72Z" transform="translate(-3.13 -2.28)"/><path class="cls-8" d="M1125.51,141.77c.15-.32,2.72-2.25,7.85-6.1,1.44-1.08,0,0,6.36-4.64a6.2,6.2,0,0,1,1-.71c4-1.42,7.55,12.48,19.46,24,1.64,1.59,5.73,5.33,4.79,7.82-.13.36-.67.82-1.76,1.73-2.48,2.09-3.6,2.6-5.51,4.3-1.31,1.16-1.53,1.59-1.93,1.88C1150.48,174,1121.65,150.29,1125.51,141.77Z" transform="translate(-3.13 -2.28)"/></svg>