<svg id="Layer_1" data-name="Layer 1" xmlns="http://www.w3.org/2000/svg" xmlns:xlink="http://www.w3.org/1999/xlink" viewBox="0 0 1997.32 423.93"><defs><style>.cls-1,.cls-4,.cls-6,.cls-7{fill:none;}.cls-2,.cls-3{fill:#821e5e;}.cls-3,.cls-4,.cls-7{stroke:#fff;}.cls-3,.cls-4,.cls-6,.cls-7{stroke-miterlimit:10;}.cls-3,.cls-4{stroke-width:0.25px;}.cls-5{clip-path:url(#clip-path);}.cls-6{stroke:#811f5e;}.cls-6,.cls-7{stroke-width:0.38px;}</style><clipPath id="clip-path" transform="translate(-1.34 -3.23)"><rect class="cls-1" x="1080.64" y="88.97" width="356.76" height="356.76"/></clipPath></defs><path class="cls-2" d="M349.61,118" transform="translate(-1.34 -3.23)"/><path class="cls-2" d="M324.67,102.44" transform="translate(-1.34 -3.23)"/><path class="cls-2" d="M349,278.75" transform="translate(-1.34 -3.23)"/><path class="cls-2" d="M395.46,284.76" transform="translate(-1.34 -3.23)"/><path class="cls-2" d="M616.37,372.09c-12.67.07-25.53-.06-38.2,0,1.41-27.68,2.14-54.77,2-73.74-.15-24.06-1-39.82-5.58-58.62a140.46,140.46,0,0,0-10.78-30.08,143.25,143.25,0,0,0-18.43-27.26c-17.64-19.91-42.63-30.06-44.61-30.84-37.86-15-70.74-4.73-84.66-.38a103,103,0,0,0-26.31,12.22,98.75,98.75,0,0,0-23.22,21,79.07,79.07,0,0,0-13.29,22.92c-4.38,12.1-4.92,23.69-5.27,31.06,0,.75-.11.06-.16,6.28,0,3.41-.69,23-.82,26.43-.48,12.38-.22,22.76,0,56.82.06,9.56.13,23.66.16,41L312,368.83c.27-10.95.54-28.34.14-49.82-.5-27.1-1.69-38.05-1.55-63.89.15-27.19.3-41.07,4.14-54.67a129.59,129.59,0,0,1,21.16-42,144.22,144.22,0,0,1,50.75-39.11,148.48,148.48,0,0,1,17.75-6.52c4.37-1.24,8.46-2.17,12.22-2.85a145.08,145.08,0,0,1,20.06-2.09h.21c11.91-.58,23.48-.27,25.22-.21,38,1.42,65.4,14.3,65.47,14.34h0c18.92,9.14,55.25,30.43,73.69,71.06,8.47,18.67,12.09,39.05,13.31,45.88.53,3,.85,5.27,1.1,7,3.15,21.76,3.12,39.65,3,53.2C618.4,325.9,617.31,353.06,616.37,372.09Z" transform="translate(-1.34 -3.23)"/><path class="cls-2" d="M275,80S1.2,80.36,1.34,80.05s0-38,0-38L275,42Z" transform="translate(-1.34 -3.23)"/><path class="cls-2" d="M159.88,76.85s.39,295.42.08,295.26-38,0-38,0l0-295.26Z" transform="translate(-1.34 -3.23)"/><path class="cls-2" d="M348.91,43.6s.44,330,.09,329.82-43.48,0-43.48,0l0-329.82Z" transform="translate(-1.34 -3.23)"/><path class="cls-2" d="M700.41,112.78s.38,259.45.08,259.31-38,0-38,0l0-259.31Z" transform="translate(-1.34 -3.23)"/><path class="cls-2" d="M1600.32,82.6s.38,290.37.07,290.21-37.91,0-37.91,0l0-290.21Z" transform="translate(-1.34 -3.23)"/><path class="cls-2" d="M1687.27,150.67s-205.71.33-205.6.06,0-33,0-33l205.6,0Z" transform="translate(-1.34 -3.23)"/><path class="cls-2" d="M798.72,114.07s.38,260.56.08,260.42-38,0-38,0l0-260.42Z" transform="translate(-1.34 -3.23)"/><path class="cls-2" d="M1066.71,373.52l-38,.19c1.42-27.69,1.72-51.53,1.61-70.49-.15-24.06-1-39.82-5.58-58.63a139.86,139.86,0,0,0-10.79-30.08,143.27,143.27,0,0,0-18.42-27.26c-17.65-19.9-42.63-30.06-44.62-30.84-37.85-15-70.74-4.72-84.65-.38a103.59,103.59,0,0,0-26.32,12.23,98.4,98.4,0,0,0-23.21,21,78.91,78.91,0,0,0-13.3,22.92c-4.38,12.1-4.92,23.69-5.26,31.05a55,55,0,0,0-.17,6.28c0,3.41-.68,23-.82,26.43-.47,12.39-.21,22.76,0,56.83.06,9.55.14,23.65.17,41l-35.2-.06c.27-10.95.54-28.34.15-49.82-.51-27.1-1.69-38.05-1.55-63.89.15-27.19.29-41.06,4.14-54.67a129.47,129.47,0,0,1,21.15-42,144.21,144.21,0,0,1,50.75-39.11,147.53,147.53,0,0,1,17.75-6.53c4.37-1.24,8.46-2.16,12.22-2.85a147.08,147.08,0,0,1,20.07-2.09h.2c11.92-.58,23.49-.27,25.22-.2,38,1.41,65.41,14.3,65.48,14.33h0c18.92,9.14,55.24,30.43,73.68,71.07,8.47,18.66,12.1,39,13.31,45.87.54,3,.85,5.27,1.11,7,3.14,21.77,3.11,39.65,3,53.2C1068.51,330.76,1067.64,354.48,1066.71,373.52Z" transform="translate(-1.34 -3.23)"/><path class="cls-2" d="M1754,117.67S1867.44,358.2,1867.1,358.21s-34.3,17.17-34.3,17.17L1712.34,117.67Z" transform="translate(-1.34 -3.23)"/><polygon class="cls-2" points="1831.28 372.15 1869.02 372.15 1850.15 353.85 1831.28 372.15"/><path class="cls-2" d="M1957.1,117.67S1836.27,358.2,1836.61,358.21s34.31,17.17,34.31,17.17l127.74-257.71Z" transform="translate(-1.34 -3.23)"/><path class="cls-2" d="M709,83.41" transform="translate(-1.34 -3.23)"/><path class="cls-2" d="M678.52,59" transform="translate(-1.34 -3.23)"/><path class="cls-2" d="M647.66,18.84a31.58,31.58,0,0,1,7.48-7.61,36.65,36.65,0,0,1,7.42-4.32,42.35,42.35,0,0,1,10.77-2.84,63.31,63.31,0,0,1,9.48-.84A61.45,61.45,0,0,1,693,3.94c4.67.76,14.43,2.33,23,9.79a39.65,39.65,0,0,1,6.95,8,32.75,32.75,0,0,1,4.84,10.51c2.52,10.79-2.51,22.48-2.51,22.48a39.62,39.62,0,0,1-6.77,9.58A35.4,35.4,0,0,1,711,70,29,29,0,0,1,704,73a26.58,26.58,0,0,1-9,.92c-5.18-.43-8.9-2.36-9.85-3.28-.61-.59-1.3-1.11-1.87-1.74a4.35,4.35,0,0,0-1.12-1,3.86,3.86,0,0,0-1.84-.47C666.52,67.05,662,62.57,662,62.57c-1.15-1.13-4.16-4.69-4.79-7.53a4.15,4.15,0,0,0-1.07-2.21,8.88,8.88,0,0,0-2.58-1.37c-.65-.3-1.27-.66-1.91-1-1.38-.72-5.58-4.56-7.45-10.73C641,29.24,647,19.92,647.66,18.84Z" transform="translate(-1.34 -3.23)"/><path class="cls-3" d="M709.22,33c-.33.08-.11,1.23-.6,3.4a5.35,5.35,0,0,1-.68,2c-.73,1-2.17,1.89-3,1.5-.36-.16-.84-.64-1-.5a.05.05,0,0,0,0,0,3.12,3.12,0,0,0,0,1.9c.59,1.91-1.08,4.24-1.23,4.45a10.35,10.35,0,0,1-2,1.85,13.88,13.88,0,0,0-2.29,2.07,6.38,6.38,0,0,0-.56.76c-.2.33-1,1.74-.48,2.54,0,0,.28.4.52.34s.08-1.21.82-2.16c1.09-1.39,2.07-1.08,3.57-2.16a5.9,5.9,0,0,0,3-4.56c0-.85-.13-1.84.3-2.31s.76-.11,1.29-.07c1.82.17,2.92-2.39,3.16-3a5.78,5.78,0,0,0,.57-3.76C710.28,34.15,709.57,33,709.22,33Z" transform="translate(-1.34 -3.23)"/><path class="cls-3" d="M660.63,28.64c.72-.43.84-.74,1.36-1a6.17,6.17,0,0,1,1.93-.43c.66-.07,3.42-.37,3.88,2.13.13.66.08,1.48.36,1.36s.57-1.34,1.3-2.52a9.43,9.43,0,0,1,5.32-3.73,7.43,7.43,0,0,1,3.71-.16c2.28.32,2.63,1.17,4.35.43.65-.27,2.42-.82,2.72-2.14,0-.06.16-.65-.06-.78s-1.08,1.12-2.62,1.47c-2.1.48-2.53-.65-4.64-.84a7.3,7.3,0,0,0-6.44,2.06c-.81.83-1.61,1.95-2.37,2.06-.6.09-.66-.53-1-1-1.19-1.71-4.38-.06-5.09.31-2.42,1.25-4.07,3.11-3.91,3.29S660.55,28.69,660.63,28.64Z" transform="translate(-1.34 -3.23)"/><path class="cls-3" d="M690.86,48.89a4.56,4.56,0,0,1-.47-2.65c-.06-1.28-.68-3.16-2-3.79a2.29,2.29,0,0,0-.64-.19c-1.08-.19-2.09.35-5.82,1-.49.09-1.41.15-2.68.4a12.85,12.85,0,0,0-2.22.52c-1.89.74-2.47,2-4,2.34h0a2.35,2.35,0,0,1-1.06.12.93.93,0,0,1-.61-.88c0-.46.63-.61,1.38-1.13a6.39,6.39,0,0,0,1.56-1.55c.12-.07.31-.19.59-.33a10.39,10.39,0,0,1,1.73-.69c3.39-1.11,6.73.28,8.76-1.56.76-.68.26-.82,1.82-3,1.36-1.89,2-2.09,2-2.9,0-1.94-3.43-3.26-3.18-3.77.15-.32,1.61-.14,2.72.62a4.51,4.51,0,0,1,2,4.11c-.34,2.25-2.92,3.1-2.53,4.3a.65.65,0,0,0,.16.27,4,4,0,0,0,1.53.87c1.91.73,2.15,8.4,1.34,8.28C691.12,49.32,691,49.18,690.86,48.89Z" transform="translate(-1.34 -3.23)"/><path class="cls-2" d="M1502.27,376.56" transform="translate(-1.34 -3.23)"/><path class="cls-2" d="M1471.75,352.15" transform="translate(-1.34 -3.23)"/><path class="cls-2" d="M1502.45,326.18c-.33.08-.11,1.24-.6,3.41a5.12,5.12,0,0,1-.68,2c-.73,1-2.17,1.89-3,1.51-.36-.16-.84-.65-1-.51l0,0a3.2,3.2,0,0,0,0,1.9c.59,1.91-1.08,4.24-1.23,4.45a10.22,10.22,0,0,1-2,1.85,13.62,13.62,0,0,0-2.3,2.08,4.55,4.55,0,0,0-.55.75c-.21.34-1,1.74-.49,2.55,0,0,.28.39.52.34s.08-1.22.82-2.17c1.09-1.39,2.07-1.08,3.57-2.15a5.94,5.94,0,0,0,3-4.57c0-.85-.13-1.84.3-2.31s.76-.11,1.29-.06c1.82.17,2.92-2.4,3.16-3a5.81,5.81,0,0,0,.57-3.76C1503.51,327.3,1502.8,326.1,1502.45,326.18Z" transform="translate(-1.34 -3.23)"/><path class="cls-2" d="M1453.86,321.79c.72-.43.84-.74,1.36-1a6.17,6.17,0,0,1,1.93-.43c.66-.07,3.42-.37,3.88,2.13.13.66.08,1.48.36,1.36s.57-1.34,1.3-2.52a9.48,9.48,0,0,1,5.32-3.73,7.43,7.43,0,0,1,3.71-.16c2.28.32,2.63,1.17,4.35.44.66-.28,2.42-.83,2.73-2.15,0-.06.15-.65-.07-.78s-1.08,1.13-2.62,1.48c-2.1.47-2.53-.66-4.63-.85a7.3,7.3,0,0,0-6.45,2.07c-.81.82-1.61,1.94-2.37,2.06-.6.08-.66-.53-1-1-1.19-1.7-4.38,0-5.09.31-2.42,1.25-4.07,3.11-3.91,3.3S1453.78,321.84,1453.86,321.79Z" transform="translate(-1.34 -3.23)"/><path class="cls-2" d="M1507.44,382.25" transform="translate(-1.34 -3.23)"/><path class="cls-2" d="M1476.93,357.84" transform="translate(-1.34 -3.23)"/><path class="cls-2" d="M1446.06,317.68a31.4,31.4,0,0,1,7.49-7.61,36.37,36.37,0,0,1,7.41-4.32,42.35,42.35,0,0,1,10.77-2.84,61.77,61.77,0,0,1,9.48-.83,59.44,59.44,0,0,1,10.2.71c4.66.75,14.42,2.32,23,9.78a39.33,39.33,0,0,1,6.95,8,32.32,32.32,0,0,1,4.84,10.51c2.52,10.79-2.51,22.48-2.51,22.48a39.62,39.62,0,0,1-6.77,9.58,35.12,35.12,0,0,1-7.46,5.63,29,29,0,0,1-7.07,3,26.58,26.58,0,0,1-9,.92c-5.18-.43-8.9-2.36-9.85-3.28-.61-.59-1.29-1.11-1.86-1.74a4.39,4.39,0,0,0-1.13-1,3.81,3.81,0,0,0-1.84-.47c-13.78-.39-18.34-4.87-18.34-4.87-1.15-1.13-4.16-4.69-4.79-7.53a4.08,4.08,0,0,0-1.06-2.21,9.13,9.13,0,0,0-2.59-1.37c-.65-.3-1.27-.66-1.9-1-1.39-.72-5.59-4.56-7.46-10.73C1439.38,328.08,1445.35,318.76,1446.06,317.68Z" transform="translate(-1.34 -3.23)"/><path class="cls-4" d="M1507.62,331.87c-.33.08-.11,1.23-.59,3.4a5.33,5.33,0,0,1-.69,2c-.73,1-2.17,1.89-3,1.5-.35-.16-.84-.64-1-.5l0,0a3.2,3.2,0,0,0,0,1.9c.59,1.91-1.08,4.24-1.23,4.45a10.54,10.54,0,0,1-2,1.85,14,14,0,0,0-2.3,2.07,4.9,4.9,0,0,0-.55.76c-.2.33-1,1.74-.49,2.54,0,0,.29.4.52.34.38-.09.09-1.21.83-2.16,1.09-1.39,2.06-1.08,3.56-2.15a5.94,5.94,0,0,0,3-4.57c0-.85-.13-1.84.31-2.31s.75-.11,1.28-.06c1.83.16,2.92-2.4,3.17-3a5.85,5.85,0,0,0,.56-3.76C1508.68,333,1508,331.79,1507.62,331.87Z" transform="translate(-1.34 -3.23)"/><path class="cls-3" d="M1459,327.48c.71-.43.84-.74,1.35-1a6.17,6.17,0,0,1,1.93-.43c.66-.07,3.42-.37,3.89,2.13.12.66.07,1.48.35,1.36s.57-1.34,1.3-2.52a9.43,9.43,0,0,1,5.32-3.73,7.43,7.43,0,0,1,3.71-.16c2.28.32,2.63,1.17,4.36.43.65-.27,2.41-.82,2.72-2.14,0-.06.15-.65-.07-.78s-1.07,1.12-2.61,1.47c-2.1.48-2.53-.65-4.64-.84a7.3,7.3,0,0,0-6.44,2.06c-.82.83-1.61,1.95-2.37,2.06-.6.09-.67-.53-1-1-1.19-1.71-4.39-.06-5.1.31-2.42,1.25-4.06,3.11-3.91,3.29S1459,327.53,1459,327.48Z" transform="translate(-1.34 -3.23)"/><path class="cls-3" d="M1489.26,347.73a4.56,4.56,0,0,1-.47-2.65c-.06-1.27-.68-3.15-2-3.78a1.84,1.84,0,0,0-.64-.2c-1.07-.19-2.09.35-5.82,1-.49.09-1.41.15-2.67.4a13.83,13.83,0,0,0-2.23.52c-1.89.74-2.47,2-4,2.34h0a2.34,2.34,0,0,1-1.06.12.94.94,0,0,1-.61-.88c0-.46.63-.61,1.38-1.13a6.57,6.57,0,0,0,1.57-1.55c.12-.07.3-.19.58-.33a10.39,10.39,0,0,1,1.73-.69c3.39-1.11,6.73.28,8.77-1.56.76-.68.25-.82,1.81-3,1.36-1.88,2-2.09,2-2.9.05-1.94-3.43-3.26-3.18-3.77.15-.32,1.61-.14,2.73.62a4.51,4.51,0,0,1,2,4.12c-.34,2.24-2.91,3.09-2.52,4.3a.56.56,0,0,0,.15.26,3.91,3.91,0,0,0,1.53.87c1.92.73,2.16,8.4,1.35,8.28C1489.52,348.17,1489.43,348,1489.26,347.73Z" transform="translate(-1.34 -3.23)"/><g class="cls-5"><path class="cls-6" d="M1159.22,167.33c-19,14.47-18.7,13.95-19.56,15-3.25,4.11-5.48,11.77-9.8,26.93-3.3,11.58-4.94,17.47-4.48,21.82.07.7,1.87,15.9,12.44,22.85a42,42,0,0,0,11.44,5.17c1.29.33,3.12.69,6,1.6,3.35,1.07,3.49,1.43,5.66,1.94a30.61,30.61,0,0,0,7.46.72,19.89,19.89,0,0,0,6-.61c1.89-.57,2.33-1.11,4.73-2.15a40.46,40.46,0,0,1,6-2c7.48-2,11.22-3,15-2.76a45.43,45.43,0,0,1,9.46,1.61c2.29.72,3.07,1.24,4.3.86,3-.95,5.78-5.31,4.93-8a6.8,6.8,0,0,1-.49-2.47,3.11,3.11,0,0,1,.67-2.1c.28-.32.63-.54.7-.48s-.31.49-.38,1.17a2.43,2.43,0,0,0,0,.72c.26,1.45.92,2.5,1.19,4,.16.93,0,1,.16,1.17.7.78,3.24-.31,9.64-3.67s6-3.4,7.13-3.7c5.1-1.37,7,.86,10.4-1.14a56.64,56.64,0,0,0,4.94-3.65,11.19,11.19,0,0,0,1.15-1c.53-.57.76-1,1-.95s.17.54.13.84a2.09,2.09,0,0,1-.4,1c-1.25,1.67-3.18,3.36-3,4.14.22,1,3.94,1.2,7.43.85a24.19,24.19,0,0,0,10.09-2.78c3.39-1.87,7.44-5.24,8-8.17.11-.65.47-3.67,0-4.7,0-.07-.23-.47-.11-.57s.56.18.61.22a3,3,0,0,1,1,2,11,11,0,0,1-.83,6.2c-2,3.9-5.09,4.25-4.87,6.09,0,.06,0,.13.07.28.35,1.3,1,3.72,3,5.09a5.72,5.72,0,0,0,2.21,1c.89.18,1.62.08,1.66.28s-.13.3-1,.71a5.26,5.26,0,0,1-3.17-.23,5.17,5.17,0,0,1-1.8-1.24c-1-2.17-2.14-3.55-2.51-3.68s-.54-.16-.54-.16l-.48-.08a10,10,0,0,0-3.82.41c-.6.2-5,1.69-6.88,2.12-.62.15-3.85-.23-10.27-1a37.05,37.05,0,0,0-7.81.05,14.43,14.43,0,0,0-1.65.37c-1.59.47-2.33.92-5.38,2.58-10.44,5.7-11.58,5.69-14.19,8.28s-4.05,4-4.48,6.24a12.16,12.16,0,0,1-1.39,4.12c-.13.22-1.11,2-1.55,1.79-.07,0-.44-.19,0-2.79.49-2.8.8-4.83,0-6.13-.32-.54-.89-.95-3.87-1.61a31.7,31.7,0,0,0-7.09-1.08,33.17,33.17,0,0,0-14.19,2.15c-3.58,1.46-9.62,4-12.15,10.11a16,16,0,0,0-1.08,6.77c.16,6,3.08,10.32,6.54,15.29,2.63,3.78,5.32,7.65,9.8,11.16,9.19,7.18,19.39,7.68,30.22,8.38,8.42.55,17.19,1.12,23.86-2.58a25.7,25.7,0,0,1,7.64-3,29.21,29.21,0,0,1,9.24-.21c9.58.82,13.46,3.43,18.42,1.22.88-.39,2.24-1.16,2.33-1s-1.91,2-4.33,3.16c-.84.39-3.47,1.5-8.89,1.14-6.41-.42-8.22-2.34-9.46-1.29-2.1,1.78,0,9.8,4.94,15.27,7.09,7.83,18.09,8.18,24.41,8.39a53.15,53.15,0,0,0,24.84-5.49c5.59-2.65,9.42-5.61,14.83-9.78a90.64,90.64,0,0,0,12.85-11.84c1.11-1.25,2.09-2.44,3-3.53,10.7-11.32,12.22-14.68,15.27-21.4.61-1.35,1.64-3.9.54-5.8a4.7,4.7,0,0,0-1.94-1.72,5.85,5.85,0,0,0-3.76-.44,5.14,5.14,0,0,0-2.57,1.28c-.89.88-1,1.81-1.24,1.76s-.56-1.8.26-3.14c1-1.68,3.38-2.16,4.73-2.48,2-.48,2.46-.23,3.44-.53,2.62-.82,5.7-6.88,5.7-6.88,2.6-5.75,3.9-8.62,4.52-11.93,0,0,2.35-12.57-4.2-24.2-.71-1.27-1.77-2.82-3.51-3.26-.52-.13-1.87-.36-5,1.43-2.78,1.61-7.46,4.36-8.62,9.3-.48,2,.19,1.94-.35,6.19a13.84,13.84,0,0,1-2.66,6.33c-.2.23-.47.51-.63.44-.38-.17.51-2.17.76-4.48.51-4.67-.55-5.92.52-8.95a36.26,36.26,0,0,1,1.73-3.45c1.86-3.48,2.73-4.58,2.37-5s-1.82.46-4.52,1.36a40.25,40.25,0,0,1-9.39,1.69c-3.81.41-5.71.61-6.19.61-1.44,0-2.81-.13-4.16.72a6.34,6.34,0,0,0-1.79,2c-2.43,3.36-2.37,4.18-3.79,5.4-.46.4-2.15,1.8-3.92,1.42a2.75,2.75,0,0,1-1.45-.73,5.48,5.48,0,0,0,1.53.27,3.56,3.56,0,0,0,2.32-1.24,5.79,5.79,0,0,0,.86-1.56,12.57,12.57,0,0,0,1.13-4.14,3.63,3.63,0,0,0-.2-2.24c-.38-.7-1-1-2-1.44a10.23,10.23,0,0,0-3.73-.86,7.29,7.29,0,0,0-2.87.43,10.1,10.1,0,0,0-3,2.06c-.15-.12.83-2.32,3-3.37a9.47,9.47,0,0,1,3.87-.7,11.74,11.74,0,0,1,3,.06c1.72.3,2.37,1,3.6,1.56,1.62.69,2.8.42,5.63.18,6.14-.53,5.7.3,10.28-.34a30.89,30.89,0,0,0,7-1.67,23.66,23.66,0,0,0,5-2.53,26.47,26.47,0,0,0,3.23-2.63c3.07-2.78,4.61-4.17,5.21-5.27,1.86-3.39,1-7.21.48-9.24-.4-1.72-1-3.19-3.33-7.1a89.7,89.7,0,0,0-6.4-9.84,95.54,95.54,0,0,0-18.22-18.11,93.65,93.65,0,0,0-15.32-9.25s-3.29-2-14.35-6.56a12.6,12.6,0,0,0-6-1.07c-.89.07-4.77.19-5.54,2.09-.26.65-.17,1.54-.79,1.86a.89.89,0,0,1-.93,0c-.47-.45.49-1.62.49-3.06a6.93,6.93,0,0,0-1.4-3.44c-3.66-5-20.86-6.94-20.86-6.94a132.41,132.41,0,0,0-18.67-2c-1.29-.05-.14,0-10.27,0a78.07,78.07,0,0,0-10.53.52,14.64,14.64,0,0,0-1.6.22c-2,.45-7.43,1.7-8.81,5.43-.9,2.4.77,3.18.5,9.33a16.35,16.35,0,0,1-.85,4.9,9.37,9.37,0,0,1-2.87,4.59,7.07,7.07,0,0,1-2.91,1.39c-.82.17-1.77.21-1.83,0s1-.48,2.13-1.43a7.7,7.7,0,0,0,1.5-1.72A11.2,11.2,0,0,0,1214,162a13.75,13.75,0,0,0-.08-6.38c-.54-2.5-1.33-6.08-4.08-7.74-1.8-1.09-3.75-.93-6.67-.43a89.1,89.1,0,0,0-20.86,6.45c-3.38,1.48-5.67,2.48-8.84,4.17A105.26,105.26,0,0,0,1159.22,167.33Z" transform="translate(-1.34 -3.23)"/><path class="cls-2" d="M1181,179.12c0,.33-3-.12-7,1-2.17.61-6.2,1.8-8,5.16a10.55,10.55,0,0,0-1,4.44c-.24,2.62-.42,4.72.71,6.1,1.66,2,4.07,0,8,1.79,2.7,1.25,2.54,2.65,6.88,5.16,2.53,1.46,3.58,1.55,4,1.58a9.32,9.32,0,0,0,5.94-2.3c.79-.7,1.23-1.37,1.37-1.29s-.36,2-1.58,3.3c-2.61,2.78-6.6,2.47-7,2.44-1.94-.18-3.54-1.12-6.74-3s-3-2.25-4.59-2.87a12.21,12.21,0,0,0-8.6.14c-1.13.48-3.75,1.57-4.44,3.87-.35,1.16.06,1.71.28,3.73.13,1.14.49,4.45-.57,6.74-1.86,4-8.27,4.83-8.31,4.73a16.38,16.38,0,0,0,3.36-1.94,8.2,8.2,0,0,0,2.37-2.36,7.22,7.22,0,0,0,.79-4.16c-.16-4.94-2-5.58-1.36-7.6.93-2.9,5-2.28,6.45-5.87.27-.69.22-1,.28-4.3a76.89,76.89,0,0,1,.29-7.89c1.4-4.65,7.67-7.24,12.19-7.6C1178,177.85,1181,178.78,1181,179.12Z" transform="translate(-1.34 -3.23)"/><path class="cls-2" d="M1146.64,228.18c.3-.05.3,2.62,2.11,4.71.26.3,2.09,2.42,4.45,2.31,1.82-.09,2.14-1.11,6.5-4.43.47-.37,1.43-.93,2.66-1.89a17.47,17.47,0,0,0,2.12-1.79c1.65-1.87,1.65-3.6,3.1-4.82a7.14,7.14,0,0,1,1.07-.71c2.94-1.54,4-.18,12.08-.49a38.28,38.28,0,0,0,11.15-1.58c3.47-1.13,7.34-2.45,9.92-6.33a12.6,12.6,0,0,0,2.25-6.72c.12-4.59-2.57-8-3.75-9.48-3.27-4.15-5.65-3.64-7.3-7.41a12.4,12.4,0,0,1-.84-6.53,14.37,14.37,0,0,1,2.9-6.62c4.5-6.1,11.59-8.38,11.8-8,.08.14-1.12.73-3.37,2.67-3.75,3.22-8.16,7-8.24,12a9.85,9.85,0,0,0,1.31,4.91c1.41,2.51,3.38,3.3,4.87,4.42,3.87,2.88,5.58,8.7,5.52,12.71-.12,8.2-7.75,14.16-13.08,16.4a24.62,24.62,0,0,1-7.33,1.68c-8.58,1-12.39-1.82-16.58,1-1.32.89-1.29,1.52-2,2.76a11.85,11.85,0,0,1-2,2.41c-3.08,3.09-7.35,3.28-8.61,6.48-.47,1.19.14,1.08-.45,4.39-.51,2.9-1.07,3.47-.69,4.41.92,2.25,5.3,1.9,5.29,2.62,0,.44-1.65,1-3.23.74a5.44,5.44,0,0,1-4.17-3.66c-.76-2.75,1.57-5.11.56-6.28-.47-.54-1-.13-2.38-.4-2.66-.54-4.7-3.08-5.49-5.4C1146.12,230.2,1146.39,228.23,1146.64,228.18Z" transform="translate(-1.34 -3.23)"/><path class="cls-2" d="M1201.15,284.62a2.2,2.2,0,0,1-1.1-2.21c.06-.48.31-.83.48-1.94.1-.58,0-.62,0-.63-.19-.09-1.15,1.23-1.67,2.68-.93,2.63-.15,3.56-1.15,4.61-.85.9-2,.76-2.58,2a3.69,3.69,0,0,0-.3,1.08c-.49,2.51.35,6,.73,6s-.65-2.77.8-5.53c1.15-2.18,3.32-3.4,5.22-4.46a12.27,12.27,0,0,1,3.55-1.56c3.76-.83,5.14,1.41,9,.66a8.4,8.4,0,0,0,3.79-1.73,6.24,6.24,0,0,0,2.32-3.89c.06-.54,0-1.41-.21-1.48s-.52.51-.82,1a12.51,12.51,0,0,1-2.84,2.93,9.7,9.7,0,0,1-3.44,1.55c-4.19.92-6.36-2.2-9.1-.81C1202.5,283.54,1202,284.89,1201.15,284.62Z" transform="translate(-1.34 -3.23)"/><path class="cls-2" d="M1233.65,268.39c.9-3.29,2.36-5.1,2.18-5.27s-2.12,1.58-3.39,4.37c-.48,1.07-2.28,5-1.15,8.85,1.06,3.6,3.66,3.6,4.45,7.53a13.71,13.71,0,0,1,0,4.3c-.37,3.95-1.38,4.32-1.72,7.52-.07.62-.62,6.18,2,8.71.87.85,2,1.18,2.09,1s-1.62-1.2-2.29-3.45a15.65,15.65,0,0,1-.25-4.72,10.63,10.63,0,0,1,.07-1.56c.38-1.81,1.76-2.65,2.29-5.86.74-4.45-1.2-6.81.18-8.49.6-.73,1.89-.88,4.45-1.18a30,30,0,0,1,3.82-.22c5.09,0,7.7.07,10.41.79,2.31.61,3.66,1.33,4.6,2.72.2.29,1.26,1.87.84,3.09-.35,1-1.5,1.16-1.44,1.5s1.3.65,2.06,0c1-.86.81-3.11.42-4.44a7.29,7.29,0,0,0-3.39-4.09c-.39-.25-1.63-1-5.15-1.43a45.91,45.91,0,0,0-6.54-.15c-3.85.07-5.77.1-6.53.15-2.64.14-3.31.29-4.49-.15a6.24,6.24,0,0,1-3.87-3.58C1232.57,272.35,1233.1,270.42,1233.65,268.39Z" transform="translate(-1.34 -3.23)"/><path class="cls-2" d="M1212.8,189.8c.4-.15-1.36-3.18-.15-5.88.9-2,3-2.82,5.09-3.66,1.29-.51,6.7-2.64,10.89-.28,1.12.63,2.08,1.53,2.51,1.22s-.53-1.81-.53-3.55c0-3.79,5-6.68,6.34-7.49a23.83,23.83,0,0,1,7.58-2.62c5.2-1.16,7-.48,9.69-2.4,1.69-1.21,1.22-3.44,2.94-4.09a5.46,5.46,0,0,1,2.88.11,4.92,4.92,0,0,0-4-.89c-1.81.45-1.91,2.46-3.58,3.29-3.79,1.9-6.15,1-10.82,2.15-3.24.83-8.93,2.27-10.84,6.45-.65,1.42-.86,3.15-2.31,3.77-1.15.49-2.08-.13-3.44-.43-4.7-1-9.27,2.83-10.29,3.69-1.59,1.35-3.87,3.27-3.94,6.09C1210.72,187.8,1212.45,189.92,1212.8,189.8Z" transform="translate(-1.34 -3.23)"/><path class="cls-2" d="M1287.62,159.05a1,1,0,0,1,.45.73c.21,1.36-2.19,1.79-3.53,4.29-.77,1.43-1.09,3.36-.36,4.58a2.13,2.13,0,0,0,.18.26c.34.41,1,.74,3.05,1.46a31.7,31.7,0,0,0,6,1.79c2.82.42,4.6.06,4.63.29s-2.28,1.21-5,1.15-3.57-1-7.67-1.51c-1.29-.15-2.25-.18-3.37-.21a50,50,0,0,0-7.09.28,30,30,0,0,0-13.19,5c-3.86,2.93-8.36,8.21-8.5,12.51,0,.76,0,4.93-.18,6.84a12,12,0,0,0-.07,1.8c.06,1,.24,1.33.07,1.64-.3.59-1.73.52-3.29.43-2.61-.14-3.91-.21-4.83-.18a17.26,17.26,0,0,0-4.78,1c-4.11,1.25-8.18,2.54-12,6.24-.27.26-.45.45-.64.64a30.43,30.43,0,0,0-6.94,11,29.65,29.65,0,0,0-1.51,8,27.08,27.08,0,0,0,0,6.24,30.88,30.88,0,0,1,.72,7.67c-.08,1.17-.2,1.6-.38,1.62-.49.08-1.34-3.05-1.86-4.94a48.08,48.08,0,0,1-1.85-8.36c-.36-4.87,1.34-8.65,3-12.25,1.72-3.81,5.12-11.31,12.93-15.73a31.31,31.31,0,0,1,9.82-3.44,16.8,16.8,0,0,1,4.89-.47c1.62.2,2.74.74,3.57.11.55-.42.7-1.12.76-2.15.24-4.21-.2-6,.24-8.17a11.75,11.75,0,0,1,1.33-3.34,22.42,22.42,0,0,1,7.2-8.06,36,36,0,0,1,14.52-5.27,9.06,9.06,0,0,0,3.73-.94,7.47,7.47,0,0,0,.75-.53c2-1.6,3.07-4.09,4.78-6.36C1284.3,161.11,1286.61,158.56,1287.62,159.05Z" transform="translate(-1.34 -3.23)"/><path class="cls-2" d="M1241.32,214.24c.1.16,1.11-.28,1.23-.33a8.68,8.68,0,0,0,2.21-1.54c2.38-1.68,7.4,1.86,7.81,2.15a4.71,4.71,0,0,1,1.94,2.3,3.94,3.94,0,0,1,.14,2c-.18,1.22-.81,5.87,0,9.39a14.29,14.29,0,0,0,1.94,4.38,12.37,12.37,0,0,0,3.44,3.94c1.37,1,3.15,1.55,3.37,1.22s-1.65-1.58-3.14-3.56a15.25,15.25,0,0,1-2.74-8.27c-.1-1.14-.5-5.73,3-13,2.38-5,6.2-12.94,15.2-18,5.71-3.22,10.88-3.76,16.7-4.38a45.51,45.51,0,0,1,17,.93,29.29,29.29,0,0,1,11.11,4.88,22.4,22.4,0,0,1,8.53,11.47c1.54,5.16,1.24,11.94-1.42,13.78-.31.22-1.26.79-1.16,1.05s1.55.27,2.72-.28c3.3-1.57,3.18-8.19,3.16-9.18-.13-7-4.06-12-5.59-14a28.77,28.77,0,0,0-10.83-8.25,34.4,34.4,0,0,0-9.1-2.65,53.64,53.64,0,0,0-16.12-.21c-6.42.85-13.22,1.74-20,6.66a39.63,39.63,0,0,0-8.79,9.34c-1.89,2.91-2.84,4.37-3.25,6.29-.28,1.27-.24,2.1-.86,2.43-1.28.69-2.81-2.2-6.31-2.72a10.51,10.51,0,0,0-5.59.86C1243.25,212,1241.17,214,1241.32,214.24Z" transform="translate(-1.34 -3.23)"/><path class="cls-2" d="M1307.32,206.33c.3.22-4.28,5.38-6.36,13.79a36.43,36.43,0,0,0-.73,13.65c.53,3.73,2,14.13,9.75,19.29,4.25,2.82,9.65,3.58,12.07,3.93l5.35.36c3.15.22,3.86.31,4.44-.27,1.16-1.15,1-4.09-.16-5.43a6.43,6.43,0,0,1-1.15-1.4c-.38-.68-.75-1.71-.54-1.86.39-.28,3.63,2.08,4.67,5.85a10,10,0,0,1-2.49,9.51c-2.19,2.13-5.32,2.49-5.46,2.17s1.43-1.38,2-1.79a8.19,8.19,0,0,0,1.34-1c.13-.14,1.37-1.49,1.06-2.39-.25-.72-1.37-.87-7.75-1.46l-1.78-.16A58.3,58.3,0,0,1,1314,258a20.33,20.33,0,0,1-10.23-5.88,22.8,22.8,0,0,1-5.15-10,34.22,34.22,0,0,1-1-11.66,38.63,38.63,0,0,1,2.88-14.1C1303.11,210.21,1307.05,206.14,1307.32,206.33Z" transform="translate(-1.34 -3.23)"/><polygon class="cls-2" points="1255.9 263.69 1310.75 318.89 1323.8 304.18 1331.27 319.78 1365.22 383.62 1384.18 358.37 1428.51 423.93 1430.2 421.85 1396.62 318.63 1369.78 352.14 1342.13 261.1 1320.06 286.1 1295.05 243.28 1255.9 263.69"/><polyline class="cls-7" points="1351.53 289.93 1342.13 261.1 1320.05 286.1 1295.05 243.28 1255.9 263.69 1310.75 318.89 1323.8 304.18 1329.21 314.8"/></g><path class="cls-2" d="M1126.81,143c1.19-.22,2.44,1.55,2.73,2,2.7,3.71,10.36,10.78,14.18,14.3,6.29,5.81,11.91,8.11,11.2,10.46-.15.49-.44.55-2,2a23.11,23.11,0,0,1-4.1,4.48c-2.72,2.49-8.3,10.37-12.43,19.3a80.77,80.77,0,0,0-6.41,20.7,43.16,43.16,0,0,0-.85,10.81,40.93,40.93,0,0,0,6,18.07,44,44,0,0,0,6.56,8.18,27.69,27.69,0,0,0,7.57,5.87c2,1,3.53,1,6.18,2.4a16.91,16.91,0,0,0,3.16,1.34,22.13,22.13,0,0,0,2.58.56,40.63,40.63,0,0,0,4.6.65,33.06,33.06,0,0,0,5.72-.08,15.68,15.68,0,0,0,4-.8c1.16-.42,1.06-.57,2.86-1.42a36.85,36.85,0,0,1,5.3-2c.88-.25.86-.2,2.42-.59,4.27-1.06,5.08-1.55,8.19-2.16a21.61,21.61,0,0,1,3.73-.46,22.06,22.06,0,0,1,2.81.1,46.7,46.7,0,0,1,5.35.74,20.12,20.12,0,0,1,3.37.78,23.73,23.73,0,0,0,2.27.79,4.62,4.62,0,0,0,1.39.24,4.53,4.53,0,0,0,1.47-.31,7.75,7.75,0,0,0,2.85-2.19,10,10,0,0,0,2.14-4.16c0-.27.07-.55.07-.55s0-.32,0-.62a5.91,5.91,0,0,0-.44-2l.18.64a10.23,10.23,0,0,1,.49,1.72c.06.53,0,.66.11,1a1.35,1.35,0,0,0,.67.56c1,.44,2.48-.34,2.7-.46,1.51-.81-21.28,11.48,6.1-2.83,3.24-1.7,4.87-2.55,5.15-2.73a14.57,14.57,0,0,1,1.8-1,9.1,9.1,0,0,1,2.83-.87,15,15,0,0,1,2.47,0l1.7,0h0c.48,0,1.82,0,2.31,0a6.15,6.15,0,0,0,2.93-1.24c.66-.43.69-.57,1.65-1.18a12.22,12.22,0,0,0,1.25-.86c.44-.35.8-.7.81-.69a5,5,0,0,0-.85,1,3.89,3.89,0,0,0-.54,1.26,1.54,1.54,0,0,0-.08.56,1.49,1.49,0,0,0,.34.78c.41.52,1.21.66,2.29.77a19.78,19.78,0,0,0,2.39.13,39.3,39.3,0,0,0,7.26-.7,22.13,22.13,0,0,0,2.52-.67,24.18,24.18,0,0,0,6.18-3.24,19.07,19.07,0,0,0,4.37-3.81,10.22,10.22,0,0,0,.66-1,8.67,8.67,0,0,0,.89-2.37,6,6,0,0,0,.1-2.16,8.62,8.62,0,0,1-.92,5.35,10.55,10.55,0,0,1-2.12,2.42,11.68,11.68,0,0,0-1.9,1.68,3,3,0,0,0-.82,1.41c0,.22-.07.52.31,1.75a9.4,9.4,0,0,0,1.33,3.09,7.88,7.88,0,0,0,.7.79,6.49,6.49,0,0,0,.82.69,6.31,6.31,0,0,0,.6.39c.51.28.83.37.82.4s-.5-.15-1.5-.49a1.6,1.6,0,0,1-.69-.39,1.41,1.41,0,0,1-.31-.54,13.09,13.09,0,0,0-.72-1.39,5.2,5.2,0,0,0-1.93-2.29,4.46,4.46,0,0,0-2.55-.34,13.32,13.32,0,0,0-3,.6c-1.66.46-2.19.71-4.37,1.36a15.09,15.09,0,0,1-2.27.59,12.71,12.71,0,0,1-3.5-.25c-1.19-.17-2.39-.24-3.58-.36-2.68-.28-4-.42-5.74-.52a20,20,0,0,0-5,.13,17.67,17.67,0,0,0-2,.49c-2,.61-2.7,1.18-7.23,3.65-1.92,1-3.26,1.75-3.76,2l-1.59.82c-2.41,1.24-2.8,1.43-3.63,1.91a19.48,19.48,0,0,0-2,1.29,18.88,18.88,0,0,0-1.7,1.39,14.38,14.38,0,0,0-3.86,4.68c-.22.53-.42,1.13-.42,1.13a16.43,16.43,0,0,0-.46,1.91,7.14,7.14,0,0,1-1.47,3.29c-.08,0,.19-.69.44-2.11a12.65,12.65,0,0,0,.26-2.67,5.51,5.51,0,0,0-.52-2.63,3.31,3.31,0,0,0-.77-1.08c-.56-.51-1.13-.65-3.35-1.08l-1.59-.31-4.48-.77a30.12,30.12,0,0,0-7.57.1,37.54,37.54,0,0,0-9.88,2.57,24.72,24.72,0,0,0-5.51,3,15.59,15.59,0,0,0-4.94,5.79,17.4,17.4,0,0,0-1.39,3.55,16.52,16.52,0,0,0,0,7.36,23.79,23.79,0,0,0,2.88,7.83c.89,1.52.85,1.06,2.93,4.22,1.76,2.67,2.12,3.5,3.45,5.25a35.29,35.29,0,0,0,3.09,3.5,40.9,40.9,0,0,0,7,5.71,39.47,39.47,0,0,0,17.3,5.61c.48.05,0,0,3.76.26,7.48.53,8.58.7,11.94.83a67.13,67.13,0,0,0,7,0,26,26,0,0,0,7.16-1c1.82-.6,1.77-.9,6.12-2.78a39.21,39.21,0,0,1,4.28-1.7,24.58,24.58,0,0,1,6.48-.93,39.87,39.87,0,0,1,6.49.62c3.39.47,5.09.71,7.31,1.18a18.43,18.43,0,0,0,4.38.57c1.56,0,2.66-.24,2.67-.16a14.51,14.51,0,0,1-4.63,1.09,24.21,24.21,0,0,1-7.31-.37l-2.78-.61a6.68,6.68,0,0,0-2.83-.57,2.69,2.69,0,0,0-1.91.93,3.12,3.12,0,0,0-.41,1.59,11.61,11.61,0,0,0,0,2.47,19.16,19.16,0,0,0,2,6,24.25,24.25,0,0,0,3.19,5.09,23.63,23.63,0,0,0,6.44,5.31,26.61,26.61,0,0,0,6.12,2.47,41.88,41.88,0,0,0,10.5,1.44,53.19,53.19,0,0,0,11.54-.36,50.48,50.48,0,0,0,9-2.27,59.9,59.9,0,0,0,11.12-5s3.35-1.95,9.89-6.8c1.68-1.24,1.52-1.38,2.24-1.68.25-.11.65-.25.74-.58s-.24-.72-.56-1.13a20,20,0,0,1-1.19-2.06c-.78-1.32-.57-1.38-1.54-3.3-1.07-2.11-1.2-1.77-1.75-3.14-.36-.89-.62-1.81-1-1.8-.18,0-.24.25-.72.77a6,6,0,0,1-.72.67,37.13,37.13,0,0,0-3.14,3.71c-1.24,1.63-1,.92-3.45,3.81-1,1.18-2.61,3.12-3.6,4a5,5,0,0,0-.61.61c-.61.73-.71,1.31-1,1.29s-.18-.17-.51-.56a6.24,6.24,0,0,0-.67-.65c-.86-.76-5.18-5.38-8.55-8.72-1.41-1.4-1.09-1-3-2.86-2.45-2.41-4.13-4.16-5.28-5.35-1-1-.92-.94-7.54-7.6l-9.5-9.55c-11.76-11.82-12.89-13-13.79-13.92a18.63,18.63,0,0,0-2.4-2.45c-.32-.24-1.58-1.15-1.77-1.67a.86.86,0,0,0-.39-.51c-.1-.05-.17,0-.18-.08s.85-.52,1-.59c.89-.38,1.71-.93,2.57-1.37,4.86-2.42,9.63-5,14.44-7.49,12.23-6.31,18.35-9.46,18.57-9.69,0,0,.68-.69,1-.53s.09.35.37.78c.17.25.27.25.48.56a3,3,0,0,1,.29.56c.23.53,1,1.86,1.82,3.2,1.26,2.13,2.5,4.29,3.78,6.41,2.27,3.75,4.64,7.87,8,13.69,0,0,6.58,11.46,8.93,15.34.27.46.55.91.55.91.62,1,.53.87.64,1.05.3.5.29.52.33.54.62.32,2.84-2.89,4.09-4.58.14-.19,1.93-2.21,5.51-6.26s4.59-5.1,6.93-7.8,3.38-3.89,3.63-4.22.8-.88,1.15-1.36.44-.63.6-.59.26.81.3,1.28a9.72,9.72,0,0,0,1.24,3.38,35.34,35.34,0,0,1,1.62,5.2c.54,1.87,1.54,4.85,3.53,10.81,2.63,7.87,2.65,7.47,2.66,7.82,0,.16,0,.77.3.85s1-1,2-2.55c1.37-2.18,1.21-1.63,2.27-3.37.61-1,1.31-2.41,2.73-5.22.21-.43.68-1.36,1.18-2.63a10.08,10.08,0,0,0,.75-2.34,5.59,5.59,0,0,0-.16-2.81,5.39,5.39,0,0,0-3.06-2.93,7.55,7.55,0,0,0-4.41-.15,4.14,4.14,0,0,0-1.38.56,11.35,11.35,0,0,0-1.06.95,2.42,2.42,0,0,1,.7-1.13,5,5,0,0,1,2.06-1.16,14.65,14.65,0,0,1,1.85-.54,7.61,7.61,0,0,1,1.37-.26c.31,0,.48,0,1-.05a6.65,6.65,0,0,0,.85-.1,4,4,0,0,0,1-.39,6.73,6.73,0,0,0,1.78-1.36,15.22,15.22,0,0,0,2-2.52,20.12,20.12,0,0,0,1.62-3.22,45.23,45.23,0,0,0,2.26-8,74.44,74.44,0,0,0,.62-18.43,38.61,38.61,0,0,0-1.65-8.23,9.39,9.39,0,0,0-2.84-4.66,4.79,4.79,0,0,0-1.27-.85c-2-.86-4.2.27-6.8,1.62a18.2,18.2,0,0,0-5,3.55,12.5,12.5,0,0,0-2.72,3.71,12,12,0,0,0-1,4.32c0,1.59.29,1.85.08,3.48a15.88,15.88,0,0,1-.72,2.93,8.42,8.42,0,0,1-.87,2.11c-.08,0,.18-.82.33-2.13a17,17,0,0,0,.1-2.45c0-1.24-.08-1.57-.09-3.29a7.94,7.94,0,0,1,.12-1.7,8.3,8.3,0,0,1,.51-1.6,15.73,15.73,0,0,1,1-1.95c2.28-3.84,1.79-3.71,2.47-4.59a2.08,2.08,0,0,0,.49-1.13,1.3,1.3,0,0,0-.13-.82,1.4,1.4,0,0,0-1-.62c-.49-.07-.76.16-1.7.57-.43.18-.88.32-1.31.49,0,0-1.58.6-3.33,1.13a35.1,35.1,0,0,1-4.58.75c-.87.11-.84.1-6.05.66a21.81,21.81,0,0,1-2.65.21,14.57,14.57,0,0,0-1.88,0,7,7,0,0,0-2.06.49,4.71,4.71,0,0,0-1.1.61,6.5,6.5,0,0,0-1.39,1.6c-.71,1-1.06,1.44-1.16,1.59-.91,1.38-1,1.88-1.93,3.07-.31.41-.79,1-.85,1a8.17,8.17,0,0,1,.57-1.21,11.23,11.23,0,0,0,.82-2.42c.06-.31,0-.08.23-1.8a6.91,6.91,0,0,0,.13-1.37,3.25,3.25,0,0,0-.62-1.69,5.09,5.09,0,0,0-2.26-1.39,9.53,9.53,0,0,0-1.19-.47,11.37,11.37,0,0,0-3.65-.44s.9,0,2.06-.1,1.08-.06,1.41,0a7.1,7.1,0,0,1,2,.26,14.52,14.52,0,0,1,2,.95,12.28,12.28,0,0,0,1.7.75,7.72,7.72,0,0,0,2.34.18c.44,0,.8-.06,1.16-.11,1-.11,1.11-.21,1.77-.23.45,0,.51,0,1.16,0l.93,0,1-.05c.74,0,1.35,0,2.19,0,1.54,0,1.39.09,2,.07s.47,0,1.89-.17c1-.09,1.08-.08,1.53-.14s.93-.13,1.76-.31,1.89-.4,3.07-.75a25,25,0,0,0,4.38-1.72,29.22,29.22,0,0,0,5.41-3.74c.13-.13.66-.61,1.71-1.57,1.25-1.13,1.49-1.36,1.82-1.68a16.61,16.61,0,0,0,1.77-1.87,8.69,8.69,0,0,0,1.39-3,10.74,10.74,0,0,0,.35-2.61,14.13,14.13,0,0,0-.17-2.51,20.75,20.75,0,0,0-1-4.17,16.32,16.32,0,0,0-1.66-3.46c-.2-.33-.33-.49-.65-1-.69-1.1-1.1-1.9-1.39-2.45-.57-1.07-1-1.78-2-3.22-.23-.36-1-1.6-2.36-3.44-.34-.47-2.39-3.3-4.71-6a101.06,101.06,0,0,0-11-10.91,111.24,111.24,0,0,0-18.58-12.2c-3.9-2-8.09-3.81-8.09-3.81-2.22-1-2.25-.92-4.06-1.75a33.9,33.9,0,0,0-4.17-1.75,16.13,16.13,0,0,0-2.68-.67,15.88,15.88,0,0,0-6.23.62,3.31,3.31,0,0,0-1.9,1.08c-.24.31-.46.75-.52.72s.06-.28.1-.72a4,4,0,0,0,0-.67,8.06,8.06,0,0,0-1.39-3.35c-2-2.54-7-4.06-7-4.06a61.23,61.23,0,0,0-12.4-2.78c-4.47-.68-8-1-14.93-1.75-3.84-.4-5.52-.53-7.52-.62-2.37-.11-4.55-.08-8.9,0-3,0-5.33.11-8.14.39-.86.09-2,.21-3.29.46a25.88,25.88,0,0,0-4.79,1.29,10.48,10.48,0,0,0-3,1.49,6.32,6.32,0,0,0-2.36,3.45,5.21,5.21,0,0,0-.06,2.47c.14.56.31.83.47,1.65a9.9,9.9,0,0,1,.15,1.55c.07,1.37.11,2,.1,2.67a15.5,15.5,0,0,1-.46,4.53,12.84,12.84,0,0,1-1.34,3,7.28,7.28,0,0,1-1.54,2.06,3.71,3.71,0,0,1-1.6.93c0-.08.64-.52,1.29-1.34a7.69,7.69,0,0,0,1.18-2.32,14.46,14.46,0,0,0,1-5.15,16.91,16.91,0,0,0-.41-3.45,26.23,26.23,0,0,0-.82-3.09,11.75,11.75,0,0,0-1.19-2.93,6.88,6.88,0,0,0-2.47-2.21c-1.85-1-3.76-.85-5.87-.57a69.78,69.78,0,0,0-10.4,2.21c-2.66.83-5.4,1.78-8.34,2.94a84.47,84.47,0,0,0-11.06,5c-4.41,2.45-9,5.36-9,5.36a9.92,9.92,0,0,1-1.34.82c-6.84,2-18-23.4-22.1-28-.17-.19-1.6-1.75-1.17-2.52a1.86,1.86,0,0,1,.62-.51,6,6,0,0,1,1.23-.62,8.75,8.75,0,0,0,2.11-1.29c.9-.61,1.34-.8,5.15-2.93s3.47-2,4.48-2.52a77.33,77.33,0,0,1,7.77-3.45c3.82-1.55,5.73-2.33,8.19-3.19a130.34,130.34,0,0,1,13.64-3.92c4.16-1,7.46-1.51,13.9-2.57,8.12-1.33,12.18-2,18.07-2.63,3.79-.4,9.89-1,17.45-1.18,2.55-.08,9.3-.24,17.92.15,1.25.06,9.54.45,14.57,1.19.48.07,2.1.32,4.37.62s2.87.34,4.43.56c2.15.3,3.71.59,5,.83,8.12,1.46,8.13,1.36,11.11,2,5.84,1.17,10.17,2.44,14.32,3.66,3,.88,6.71,2,11.53,3.76,1,.35,5,1.86,10.29,4.22,2.51,1.12,5.26,2.34,8.81,4.22a128.94,128.94,0,0,1,11.43,6.85c1.45.95,4,2.67,7.09,5,1.17.87,3,2.21,5.16,4,4.23,3.46,7.22,6.38,9.11,8.24,3.06,3,5.54,5.7,7.36,7.77a155.87,155.87,0,0,1,22.34,33.26,106.76,106.76,0,0,1,5.15,11.74,102.08,102.08,0,0,1,4.79,18.68,108,108,0,0,1,1.29,14.83,129.15,129.15,0,0,1-.93,18.48c-.53,4.69-1.14,8.19-1.54,10.45a174.32,174.32,0,0,1-4.43,19,119.42,119.42,0,0,1-5.3,14.88,101.56,101.56,0,0,1-15,24.45,146,146,0,0,1-15.4,16.11A126.54,126.54,0,0,1,1349.88,356a114.69,114.69,0,0,1-28,13.18,107.77,107.77,0,0,1-23.06,4.58c-3,.24-15.82,1.15-28.62-1.85a90.14,90.14,0,0,1-10.87-3.35,47,47,0,0,1-7.67-3.45,43.43,43.43,0,0,1-10.81-8.7,23.37,23.37,0,0,0-3.81-3.7,13.49,13.49,0,0,0-5.3-2.73,20.75,20.75,0,0,0-4.12-.41c-1.25,0-1.36,0-2.62,0-1.74-.06-2.51-.25-4.12-.41-1.86-.2-2.55-.13-4.38-.21a67.82,67.82,0,0,1-7-.77c-6-.84-12.37-1.75-18.07-3-3-.68-6-1.48-6-1.48l-2.28-.63a95.51,95.51,0,0,1-12.66-4.94,62.6,62.6,0,0,1-10.3-5.77c-12.07-8.74-16.91-21.95-17.71-24.81-.64-2.31-1.4-4.59-2-6.9a15.48,15.48,0,0,0-.88-2.63,12.72,12.72,0,0,0-4.32-4.84,25.94,25.94,0,0,0-3.92-2c-4.6-2.1-5.94-2.33-8.7-3.81a38.83,38.83,0,0,1-4.22-2.68c-7.53-5.33-13.34-13.65-15-16.11a86.81,86.81,0,0,1-8.19-14.73,83.4,83.4,0,0,1-6.12-22.85,86.39,86.39,0,0,1,1.49-28.73,104.94,104.94,0,0,1,8.08-23.83,94.52,94.52,0,0,1,5.2-9.89,97.06,97.06,0,0,1,9.73-12.92,52.66,52.66,0,0,1,5.87-6.23,49.71,49.71,0,0,0,4.27-3.71,27.21,27.21,0,0,1,2.06-1.85C1126.36,143.22,1126.55,143.09,1126.81,143Z" transform="translate(-1.34 -3.23)"/><path class="cls-2" d="M1126.33,143.09c.14-.3,2.61-2.11,7.56-5.71,1.39-1,0,0,6.14-4.36a6.14,6.14,0,0,1,1-.66c3.8-1.33,7.28,11.7,18.77,22.47,1.58,1.49,5.52,5,4.62,7.33-.12.34-.65.77-1.69,1.63-2.4,2-3.48,2.43-5.32,4-1.27,1.09-1.48,1.49-1.87,1.77C1150.41,173.3,1122.6,151.07,1126.33,143.09Z" transform="translate(-1.34 -3.23)"/></svg>