<svg id="Layer_1" data-name="Layer 1" xmlns="http://www.w3.org/2000/svg" viewBox="0 0 1987.64 424.39"><defs><style>.cls-1{fill:#891940;}.cls-2{fill:#891c40;}.cls-3{fill:#fff;}</style></defs><path class="cls-1" d="M353.84,120.83" transform="translate(-7.25 -5.36)"/><path class="cls-1" d="M329,105.14" transform="translate(-7.25 -5.36)"/><path class="cls-1" d="M353.18,282.45" transform="translate(-7.25 -5.36)"/><path class="cls-1" d="M399.46,288.49" transform="translate(-7.25 -5.36)"/><path class="cls-2" d="M619.31,376.33c-12.61.06-25.42-.07-38,0,1.41-27.85,2.13-55.09,2-74.16-.15-24.2-1-40.05-5.55-59A142.25,142.25,0,0,0,567,213a144,144,0,0,0-18.33-27.41c-17.56-20-42.43-30.23-44.4-31-37.67-15.07-70.4-4.75-84.24-.38a102.52,102.52,0,0,0-26.19,12.29,98.54,98.54,0,0,0-23.1,21.14,79.59,79.59,0,0,0-13.24,23.06c-4.36,12.17-4.89,23.82-5.23,31.23a55.44,55.44,0,0,0-.17,6.31c0,3.43-.68,23.09-.82,26.58-.47,12.46-.21,22.9,0,57.15.06,9.62.14,23.79.17,41.21l-35-.07c.27-11,.54-28.5.15-50.1-.51-27.25-1.68-38.27-1.54-64.26.15-27.34.29-41.3,4.12-55a130.57,130.57,0,0,1,21-42.24,143.85,143.85,0,0,1,50.5-39.33,146.89,146.89,0,0,1,17.67-6.56,124.44,124.44,0,0,1,12.16-2.86,143,143,0,0,1,20-2.11h.2c11.86-.58,23.37-.27,25.1-.2,37.8,1.42,65.08,14.38,65.15,14.41h0c18.83,9.19,55,30.61,73.33,71.47,8.43,18.77,12,39.28,13.25,46.14.53,3,.85,5.3,1.1,7.05,3.13,21.89,3.1,39.88,3,53.5C621.32,329.87,620.23,357.18,619.31,376.33Z" transform="translate(-7.25 -5.36)"/><path class="cls-2" d="M279.61,82.54s-272.5.38-272.36.08,0-38.25,0-38.25l272.36,0Z" transform="translate(-7.25 -5.36)"/><path class="cls-2" d="M1113.14,172.07c9.42-14.35,21.47-23.7,27.56-28.34A133.77,133.77,0,0,1,1168,127.64c14.63-6.39,26.41-8.35,39.69-10.57a230.69,230.69,0,0,1,34.93-3.12,222.89,222.89,0,0,1,37.55,2.64c17.19,2.81,53.15,8.67,84.65,36.44a145.8,145.8,0,0,1,25.61,29.85c4.7,7.24,13.65,21.1,17.82,39.14,9.3,40.21-9.24,83.7-9.23,83.7s-9.58,20.22-25,35.7a131.23,131.23,0,0,1-27.47,21,107.14,107.14,0,0,1-26.07,11.33,97.36,97.36,0,0,1-33.08,3.4c-19.07-1.58-32.8-8.78-36.3-12.2-2.25-2.21-4.76-4.15-6.87-6.5a15.74,15.74,0,0,0-4.14-3.62,14,14,0,0,0-6.79-1.76c-50.76-1.45-67.55-18.13-67.55-18.13-4.24-4.21-15.34-17.47-17.66-28-.36-1.61-1-5.31-3.93-8.22-2-2-3.77-2.4-9.53-5.1-2.39-1.12-4.67-2.46-7-3.68-5.1-2.67-20.57-16.95-27.47-39.94C1088.5,210.78,1110.52,176.07,1113.14,172.07Z" transform="translate(-7.25 -5.36)"/><path class="cls-3" d="M1166,173a80.18,80.18,0,0,0-26.81,43.66c-1.53,6.93-3,14.43-.42,23.37a39.89,39.89,0,0,0,9.53,16.16,33,33,0,0,0,7.85,6.37,49.46,49.46,0,0,0,6,2.76,34.93,34.93,0,0,0,5.54,1.91,29.13,29.13,0,0,0,7.28.71,19.07,19.07,0,0,0,5.89-.6c1.85-.56,2.28-1.09,4.63-2.13a41.87,41.87,0,0,1,5.88-2c7.32-2,11-3,14.72-2.72a43.73,43.73,0,0,1,9.25,1.59c2.24.72,3,1.23,4.2.85,3-.94,5.65-5.24,4.82-7.87a6.93,6.93,0,0,1-.47-2.44,3.09,3.09,0,0,1,.65-2.07c.27-.32.61-.53.68-.47s-.3.48-.37,1.16a2.29,2.29,0,0,0,0,.7c.25,1.44.9,2.47,1.16,4,.16.93,0,1,.16,1.16.69.77,3.17-.3,9.43-3.62s5.87-3.37,7-3.66c5-1.36,6.82.85,10.16-1.12a54.92,54.92,0,0,0,4.84-3.62,10.36,10.36,0,0,0,1.12-1c.52-.57.75-1,.92-.94s.18.54.14.83a2,2,0,0,1-.4.95c-1.22,1.64-3.1,3.32-2.94,4.09.21,1,3.85,1.19,7.26.84a23.44,23.44,0,0,0,9.87-2.75c3.32-1.84,7.28-5.17,7.78-8.07.11-.64.47-3.62,0-4.64,0-.08-.22-.46-.1-.57s.55.18.59.22a3,3,0,0,1,1,1.94,11,11,0,0,1-.81,6.13c-1.92,3.86-5,4.21-4.76,6,0,.06,0,.13.07.28.34,1.28,1,3.67,2.93,5a5.64,5.64,0,0,0,2.16,1c.87.17,1.58.07,1.63.27s-.14.3-1,.7a5,5,0,0,1-3.09-.22,5.07,5.07,0,0,1-1.76-1.23c-1-2.14-2.1-3.51-2.46-3.64a4.75,4.75,0,0,0-.53-.15c-.15,0-.3-.06-.47-.09a9.79,9.79,0,0,0-3.73.41c-.59.2-4.9,1.67-6.73,2.1-.6.14-3.76-.23-10-1a35.72,35.72,0,0,0-7.63.06,12.21,12.21,0,0,0-1.62.37c-1.55.46-2.28.91-5.25,2.55-10.21,5.62-11.33,5.62-13.88,8.18s-4,4-4.38,6.16a12.23,12.23,0,0,1-1.37,4.07c-.12.22-1.08,1.93-1.5,1.77-.08,0-.44-.19,0-2.76.47-2.77.78-4.77,0-6-.32-.53-.87-.94-3.79-1.6a30.79,30.79,0,0,0-6.93-1.06,32.15,32.15,0,0,0-13.88,2.12c-3.5,1.45-9.4,3.92-11.88,10a15.87,15.87,0,0,0-1,6.69c.15,5.93,3,10.2,6.39,15.11,2.57,3.74,5.2,7.56,9.59,11,9,7.09,19,7.59,29.54,8.28,8.24.54,16.81,1.1,23.33-2.55a24.89,24.89,0,0,1,7.47-3,28,28,0,0,1,9-.21c9.36.81,13.15,3.38,18,1.2.85-.39,2.18-1.14,2.27-1s-1.87,2-4.24,3.11c-.82.39-3.39,1.49-8.69,1.14-6.26-.42-8-2.32-9.25-1.28-2,1.76,0,9.69,4.84,15.09,6.93,7.73,17.69,8.08,23.86,8.28a51.33,51.33,0,0,0,24.29-5.42c5.47-2.62,9.21-5.54,14.5-9.66a88.91,88.91,0,0,0,12.57-11.7c1.08-1.24,2-2.41,2.88-3.49,10.46-11.18,11.95-14.5,14.93-21.14.6-1.34,1.61-3.86.52-5.74a4.74,4.74,0,0,0-1.89-1.7,5.63,5.63,0,0,0-3.68-.42,4.9,4.9,0,0,0-2.51,1.25c-.87.87-1,1.8-1.22,1.75s-.54-1.78.26-3.11c1-1.66,3.31-2.13,4.63-2.44,2-.48,2.4-.23,3.36-.54s3.23-1.23,5.57-6.79c1.75-4.13,2.19-7.73,2.53-12.11,1-13.07.08-19.41-2.21-23.59a5.88,5.88,0,0,0-3.43-3.22c-.51-.13-1.84-.36-4.88,1.42-2.72,1.58-7.29,4.29-8.43,9.18-.46,2,.2,1.92-.34,6.12a13.64,13.64,0,0,1-2.6,6.25c-.19.23-.45.5-.61.44-.38-.17.49-2.15.74-4.43.5-4.62-.53-5.85.5-8.84.19-.54.7-1.5,1.7-3.41,1.82-3.44,2.68-4.53,2.32-5s-1.78.45-4.42,1.35a39.66,39.66,0,0,1-9.18,1.66c-3.72.4-5.59.61-6.06.6-1.41,0-2.75-.13-4.06.71a6.38,6.38,0,0,0-1.75,1.94c-2.37,3.32-2.31,4.13-3.7,5.34-.45.39-2.11,1.78-3.84,1.4a2.66,2.66,0,0,1-1.41-.72,5.3,5.3,0,0,0,1.49.26,3.39,3.39,0,0,0,2.26-1.22,5.33,5.33,0,0,0,.84-1.54,12.67,12.67,0,0,0,1.11-4.09,3.72,3.72,0,0,0-.19-2.22,3.6,3.6,0,0,0-2-1.42,10,10,0,0,0-3.65-.85,7,7,0,0,0-2.8.43,9.88,9.88,0,0,0-2.89,2c-.14-.13.81-2.3,2.89-3.33a9,9,0,0,1,3.79-.69,11.74,11.74,0,0,1,2.89.05c1.68.3,2.32,1,3.52,1.54,1.58.68,2.74.42,5.5.18,6-.52,5.57.29,10-.34a29.5,29.5,0,0,0,6.84-1.65,23.48,23.48,0,0,0,4.88-2.49,28.34,28.34,0,0,0,3.16-2.61c3-2.74,4.51-4.11,5.1-5.2,1.82-3.35.94-7.13.47-9.14-.4-1.69-1-3.15-3.26-7a90.17,90.17,0,0,0-6.25-9.72,94.24,94.24,0,0,0-17.82-17.9,91.32,91.32,0,0,0-15-9.13s-3.22-1.94-14-6.48a12,12,0,0,0-5.84-1.07c-.87.08-4.66.19-5.41,2.07-.25.65-.17,1.53-.78,1.84a.83.83,0,0,1-.9,0c-.47-.44.47-1.6.47-3a6.8,6.8,0,0,0-1.37-3.4c-3.58-4.93-20.39-6.85-20.39-6.85-9-.65-13.37-1.77-19.5-1.8-6.69,0-7.23.6-13.79.3a22.18,22.18,0,0,0-6.86.28c-1.92.44-7.27,1.69-8.62,5.36-.88,2.38.75,3.15.49,9.23a16.7,16.7,0,0,1-.83,4.84,9.26,9.26,0,0,1-2.8,4.53,7,7,0,0,1-2.85,1.38c-.8.17-1.74.21-1.79,0s1-.46,2.08-1.4a7.9,7.9,0,0,0,1.47-1.7,11.34,11.34,0,0,0,1.57-3.62,13.59,13.59,0,0,0-.08-6.31c-.53-2.47-1.3-6-4-7.65-1.75-1.07-3.66-.91-6.52-.42a87,87,0,0,0-20.39,6.37c-3.31,1.47-5.55,2.45-8.62,4.11A107.66,107.66,0,0,0,1166,173Z" transform="translate(-7.25 -5.36)"/><path class="cls-2" d="M1187.26,184.66c0,.33-3-.12-6.87,1-2.12.61-6.06,1.78-7.85,5.1a10.62,10.62,0,0,0-1,4.39c-.23,2.59-.41,4.67.7,6,1.63,2,4,0,7.85,1.77,2.64,1.25,2.48,2.63,6.73,5.1,2.47,1.44,3.49,1.54,3.92,1.56a9.13,9.13,0,0,0,5.82-2.27c.76-.69,1.2-1.36,1.33-1.27s-.35,2-1.54,3.26c-2.55,2.74-6.45,2.44-6.87,2.41-1.89-.18-3.46-1.11-6.59-3s-2.89-2.22-4.48-2.83a11.81,11.81,0,0,0-8.41.14c-1.11.47-3.67,1.55-4.35,3.82-.34,1.15.07,1.69.28,3.69.13,1.13.48,4.4-.56,6.65-1.82,4-8.08,4.78-8.13,4.68a15.82,15.82,0,0,0,3.3-1.91,8.17,8.17,0,0,0,2.31-2.34,7.16,7.16,0,0,0,.77-4.11c-.15-4.88-2-5.51-1.33-7.51.91-2.87,4.91-2.25,6.31-5.8.26-.68.22-.95.28-4.25a76.75,76.75,0,0,1,.28-7.79c1.37-4.6,7.5-7.16,11.91-7.51C1184.37,183.41,1187.28,184.33,1187.26,184.66Z" transform="translate(-7.25 -5.36)"/><path class="cls-2" d="M1153.69,233.14c.29,0,.3,2.59,2.06,4.65.26.3,2,2.4,4.35,2.29,1.79-.09,2.1-1.09,6.35-4.38.47-.36,1.4-.92,2.61-1.87a16,16,0,0,0,2.07-1.77c1.61-1.84,1.61-3.55,3-4.76a6.49,6.49,0,0,1,1-.7c2.88-1.52,4-.17,11.81-.49a36.57,36.57,0,0,0,10.9-1.56c3.39-1.11,7.18-2.41,9.71-6.25a12.63,12.63,0,0,0,2.19-6.64c.12-4.54-2.51-7.9-3.66-9.37-3.2-4.1-5.53-3.6-7.14-7.32a12.51,12.51,0,0,1-.83-6.45A14.29,14.29,0,0,1,1201,182c4.4-6,11.34-8.29,11.54-7.91.08.14-1.09.73-3.3,2.64-3.67,3.18-8,6.92-8,11.81a9.7,9.7,0,0,0,1.28,4.85c1.38,2.48,3.3,3.26,4.76,4.36,3.78,2.86,5.46,8.6,5.4,12.57-.12,8.1-7.57,14-12.79,16.2a24.17,24.17,0,0,1-7.17,1.66c-8.39,1-12.11-1.79-16.21,1-1.29.88-1.26,1.5-2,2.73a11.27,11.27,0,0,1-1.91,2.38c-3,3.05-7.18,3.24-8.42,6.4-.46,1.18.14,1.07-.43,4.34-.5,2.86-1.06,3.42-.68,4.35.89,2.23,5.18,1.88,5.17,2.59,0,.44-1.61,1-3.16.73a5.29,5.29,0,0,1-4.07-3.61c-.75-2.72,1.53-5.05.54-6.21-.46-.53-1-.12-2.32-.39-2.61-.53-4.6-3-5.37-5.33C1153.18,235.14,1153.45,233.19,1153.69,233.14Z" transform="translate(-7.25 -5.36)"/><path class="cls-2" d="M1207,288.91a2.17,2.17,0,0,1-1.08-2.19c.06-.47.3-.82.47-1.91.09-.57,0-.62,0-.63-.19-.08-1.12,1.22-1.63,2.66-.92,2.6-.15,3.52-1.12,4.55s-1.91.75-2.53,2a3.44,3.44,0,0,0-.29,1.07c-.48,2.47.34,5.91.71,5.87s-.63-2.73.79-5.46c1.12-2.16,3.24-3.36,5.09-4.41a12.07,12.07,0,0,1,3.47-1.54c3.68-.82,5,1.39,8.86.65a8.29,8.29,0,0,0,3.71-1.71,6.19,6.19,0,0,0,2.26-3.84c0-.54,0-1.4-.21-1.46s-.5.5-.79,1a12.36,12.36,0,0,1-2.79,2.9,9.34,9.34,0,0,1-3.36,1.54c-4.1.9-6.22-2.18-8.9-.81C1208.31,287.84,1207.81,289.17,1207,288.91Z" transform="translate(-7.25 -5.36)"/><path class="cls-2" d="M1238.77,272.87c.87-3.25,2.3-5,2.13-5.21s-2.08,1.57-3.32,4.32c-.47,1.06-2.23,5-1.12,8.75,1,3.55,3.57,3.55,4.35,7.44a13.7,13.7,0,0,1,0,4.25c-.37,3.9-1.35,4.27-1.69,7.43-.06.61-.6,6.11,2,8.61.85.83,1.93,1.16,2,1s-1.59-1.18-2.24-3.4a15.67,15.67,0,0,1-.25-4.67,9.21,9.21,0,0,1,.07-1.54c.37-1.79,1.72-2.62,2.24-5.79.72-4.4-1.18-6.73.18-8.39.58-.72,1.84-.87,4.35-1.17a28,28,0,0,1,3.73-.21c5,0,7.53.06,10.18.78,2.25.6,3.58,1.31,4.5,2.69.19.28,1.23,1.84.81,3-.34,1-1.46,1.15-1.4,1.49s1.27.64,2,0c1-.85.79-3.07.41-4.39a7.16,7.16,0,0,0-3.31-4c-.38-.24-1.6-1-5-1.41a44.07,44.07,0,0,0-6.4-.15c-3.76.07-5.64.1-6.39.15-2.58.14-3.23.28-4.38-.15a6.13,6.13,0,0,1-3.79-3.54C1237.71,276.79,1238.22,274.88,1238.77,272.87Z" transform="translate(-7.25 -5.36)"/><path class="cls-2" d="M1218.37,195.21c.39-.14-1.33-3.13-.14-5.8.88-2,2.91-2.79,5-3.61,1.26-.51,6.55-2.62,10.65-.29,1.09.62,2,1.52,2.45,1.21s-.52-1.79-.52-3.51c0-3.74,4.84-6.6,6.2-7.4a23.41,23.41,0,0,1,7.41-2.59c5.08-1.14,6.87-.47,9.48-2.37,1.64-1.2,1.18-3.4,2.87-4a5.24,5.24,0,0,1,2.82.11,4.8,4.8,0,0,0-3.94-.88c-1.77.44-1.87,2.43-3.5,3.25-3.71,1.87-6,1-10.59,2.13-3.16.81-8.72,2.24-10.6,6.37-.63,1.4-.84,3.11-2.26,3.72-1.11.48-2-.13-3.36-.42-4.59-1-9.06,2.79-10.06,3.64-1.55,1.33-3.78,3.24-3.85,6C1216.35,193.25,1218,195.34,1218.37,195.21Z" transform="translate(-7.25 -5.36)"/><path class="cls-2" d="M1291.53,164.83a1,1,0,0,1,.44.72c.2,1.35-2.14,1.77-3.45,4.24-.75,1.42-1.07,3.32-.35,4.53a2.36,2.36,0,0,0,.17.26c.34.4,1,.73,3,1.44a30.85,30.85,0,0,0,5.86,1.77c2.75.41,4.49.06,4.52.29s-2.22,1.19-4.91,1.13-3.49-1-7.5-1.49c-1.26-.15-2.19-.18-3.29-.21a48,48,0,0,0-6.94.28,29,29,0,0,0-12.89,5c-3.77,2.89-8.17,8.11-8.31,12.36,0,.75,0,4.87-.17,6.76a10.48,10.48,0,0,0-.07,1.77c.05,1,.23,1.32.07,1.63-.3.58-1.7.51-3.23.43-2.54-.14-3.81-.21-4.72-.19a16.88,16.88,0,0,0-4.67,1c-4,1.23-8,2.5-11.77,6.16-.27.26-.44.44-.63.63a30.32,30.32,0,0,0-6.79,10.87,29.32,29.32,0,0,0-1.47,7.86,26.39,26.39,0,0,0,0,6.16,30.82,30.82,0,0,1,.7,7.58c-.07,1.16-.19,1.58-.37,1.6-.48.08-1.31-3-1.81-4.89a46.77,46.77,0,0,1-1.81-8.26c-.36-4.8,1.31-8.54,2.9-12.1,1.68-3.76,5-11.17,12.64-15.54a30.61,30.61,0,0,1,9.6-3.4,16,16,0,0,1,4.78-.46c1.59.2,2.69.72,3.49.1.54-.41.69-1.1.75-2.12.23-4.16-.2-5.89.23-8.08a12.09,12.09,0,0,1,1.3-3.29,22.22,22.22,0,0,1,7-8,34.89,34.89,0,0,1,14.19-5.2,8.72,8.72,0,0,0,3.65-.94,5.28,5.28,0,0,0,.73-.51c1.95-1.59,3-4,4.68-6.29C1288.28,166.87,1290.55,164.35,1291.53,164.83Z" transform="translate(-7.25 -5.36)"/><path class="cls-2" d="M1246.26,219.36c.1.17,1.08-.27,1.21-.32a9.09,9.09,0,0,0,2.16-1.52c2.32-1.66,7.23,1.84,7.64,2.13a4.67,4.67,0,0,1,1.89,2.26,4.15,4.15,0,0,1,.14,2,28.43,28.43,0,0,0,0,9.27,13.92,13.92,0,0,0,1.89,4.32,12.18,12.18,0,0,0,3.36,3.9c1.34,1,3.09,1.53,3.3,1.2s-1.61-1.56-3.07-3.51a15.24,15.24,0,0,1-2.68-8.17c-.1-1.13-.48-5.67,2.94-12.89,2.33-4.91,6.07-12.78,14.86-17.78,5.59-3.17,10.64-3.71,16.33-4.32a44.15,44.15,0,0,1,16.61.92,28.52,28.52,0,0,1,10.86,4.82A22.14,22.14,0,0,1,1332,213c1.51,5.1,1.21,11.8-1.39,13.62-.31.22-1.23.78-1.13,1s1.51.27,2.66-.28c3.22-1.55,3.1-8.1,3.08-9.07-.13-6.9-4-11.91-5.46-13.81a28.19,28.19,0,0,0-10.58-8.14,33,33,0,0,0-8.9-2.62,51.92,51.92,0,0,0-15.77-.22c-6.28.84-12.92,1.73-19.55,6.59a39.2,39.2,0,0,0-8.6,9.23c-1.85,2.88-2.77,4.32-3.18,6.21-.27,1.26-.23,2.08-.84,2.41-1.25.68-2.75-2.18-6.17-2.69a10.08,10.08,0,0,0-5.46.85C1248.15,217.18,1246.11,219.11,1246.26,219.36Z" transform="translate(-7.25 -5.36)"/><path class="cls-2" d="M1310.79,211.56c.3.21-4.18,5.3-6.22,13.62a36.32,36.32,0,0,0-.71,13.49c.51,3.68,2,14,9.54,19.05,4.15,2.79,9.43,3.55,11.79,3.88.09,0,1.8.13,5.24.37,3.08.21,3.77.3,4.34-.27,1.13-1.14,1-4-.16-5.37a6.23,6.23,0,0,1-1.12-1.38c-.38-.67-.74-1.69-.53-1.84.38-.28,3.55,2.06,4.56,5.78a9.89,9.89,0,0,1-2.43,9.4c-2.14,2.11-5.2,2.46-5.34,2.14s1.4-1.36,2-1.77a9,9,0,0,0,1.32-1c.12-.14,1.33-1.47,1-2.37-.24-.71-1.34-.86-7.57-1.43-1.54-.15-1.41-.14-1.74-.16a56.82,56.82,0,0,1-7.47-1.07,19.9,19.9,0,0,1-10-5.81,22.61,22.61,0,0,1-5-9.86,34.05,34.05,0,0,1-1-11.51,38.2,38.2,0,0,1,2.82-13.93C1306.68,215.38,1310.53,211.36,1310.79,211.56Z" transform="translate(-7.25 -5.36)"/><polygon class="cls-2" points="1254.58 266.06 1308.2 320.61 1320.96 306.07 1328.27 321.48 1361.46 384.57 1380 359.62 1423.34 424.39 1424.99 422.34 1392.16 320.35 1365.92 353.46 1338.88 263.5 1317.3 288.21 1292.86 245.9 1254.58 266.06"/><path class="cls-2" d="M165,79.39s.38,297.11.07,297-37.84,0-37.84,0l0-297Z" transform="translate(-7.25 -5.36)"/><path class="cls-2" d="M353.14,46s.44,331.88.09,331.71-43.27,0-43.27,0l0-331.71Z" transform="translate(-7.25 -5.36)"/><path class="cls-2" d="M702.93,115.53s.39,260.94.08,260.8-37.85,0-37.85,0l0-260.8Z" transform="translate(-7.25 -5.36)"/><path class="cls-2" d="M1598.48,85.18s.38,292,.08,291.87-37.74,0-37.74,0l0-291.87Z" transform="translate(-7.25 -5.36)"/><path class="cls-2" d="M1685,153.64s-204.71.33-204.6.06,0-33.22,0-33.22l204.6,0Z" transform="translate(-7.25 -5.36)"/><path class="cls-2" d="M800.77,116.83s.38,262.05.07,261.91-37.84,0-37.84,0l0-261.91Z" transform="translate(-7.25 -5.36)"/><path class="cls-2" d="M1067.46,377.76l-37.82.2c1.41-27.85,1.71-51.83,1.59-70.9-.15-24.2-1-40.05-5.55-59A142.22,142.22,0,0,0,1015,217.84a144.38,144.38,0,0,0-18.34-27.41c-17.56-20-42.42-30.23-44.4-31-37.67-15.07-70.39-4.75-84.24-.38a102.69,102.69,0,0,0-26.19,12.29,98.73,98.73,0,0,0-23.1,21.15,79.3,79.3,0,0,0-13.23,23.05c-4.36,12.17-4.9,23.82-5.24,31.23a59.15,59.15,0,0,0-.16,6.31c0,3.43-.69,23.1-.82,26.58-.48,12.46-.22,22.9,0,57.16.06,9.61.13,23.78.16,41.2l-35-.07c.27-11,.54-28.5.14-50.1-.5-27.25-1.68-38.27-1.54-64.26.15-27.34.29-41.29,4.12-55a131,131,0,0,1,21-42.23A144,144,0,0,1,838.65,127a147.09,147.09,0,0,1,17.66-6.56c4.35-1.25,8.42-2.17,12.16-2.86a142,142,0,0,1,20-2.1h.2c11.86-.59,23.37-.28,25.1-.21,37.8,1.42,65.09,14.38,65.16,14.41h0c18.83,9.2,55,30.61,73.33,71.47,8.43,18.78,12,39.28,13.24,46.14.53,3,.85,5.3,1.1,7,3.13,21.89,3.1,39.88,3,53.5C1069.25,334.76,1068.39,358.62,1067.46,377.76Z" transform="translate(-7.25 -5.36)"/><path class="cls-2" d="M1751.41,120.45s112.9,241.9,112.56,241.91-34.14,17.27-34.14,17.27L1710,120.45Z" transform="translate(-7.25 -5.36)"/><polygon class="cls-1" points="1822.4 374.27 1859.96 374.27 1841.18 355.87 1822.4 374.27"/><path class="cls-2" d="M1953.54,120.45s-120.25,241.9-119.91,241.91,34.14,17.27,34.14,17.27l127.12-259.18Z" transform="translate(-7.25 -5.36)"/><path class="cls-1" d="M711.52,86" transform="translate(-7.25 -5.36)"/><path class="cls-1" d="M681.15,61.44" transform="translate(-7.25 -5.36)"/><path class="cls-2" d="M650.44,21.06a31.45,31.45,0,0,1,7.45-7.66,35.9,35.9,0,0,1,7.38-4.34A41.18,41.18,0,0,1,676,6.2a62.63,62.63,0,0,1,9.43-.84,60.74,60.74,0,0,1,10.14.71c4.65.76,14.36,2.35,22.87,9.85A38.92,38.92,0,0,1,725.34,24a32.92,32.92,0,0,1,4.82,10.57c2.51,10.86-2.5,22.61-2.5,22.61a39.49,39.49,0,0,1-6.74,9.64,35.27,35.27,0,0,1-7.42,5.66,28.59,28.59,0,0,1-7,3.06,26.28,26.28,0,0,1-8.93.92c-5.15-.43-8.86-2.38-9.8-3.3-.61-.59-1.29-1.12-1.86-1.75a4.2,4.2,0,0,0-1.12-1,3.86,3.86,0,0,0-1.83-.48C669.21,69.54,664.67,65,664.67,65c-1.14-1.14-4.14-4.72-4.77-7.58a4.1,4.1,0,0,0-1.06-2.22,8.92,8.92,0,0,0-2.57-1.37c-.65-.31-1.26-.67-1.89-1-1.38-.72-5.56-4.58-7.42-10.79C643.79,31.51,649.73,22.14,650.44,21.06Z" transform="translate(-7.25 -5.36)"/><path class="cls-3" d="M711.7,35.33c-.33.08-.11,1.24-.59,3.42a5.41,5.41,0,0,1-.68,2c-.73,1-2.16,1.89-3,1.51-.35-.16-.83-.65-1-.51l0,0a3.14,3.14,0,0,0,0,1.91c.59,1.92-1.08,4.27-1.23,4.48a10.08,10.08,0,0,1-2,1.86,13.59,13.59,0,0,0-2.29,2.08,7.75,7.75,0,0,0-.55.76c-.2.34-1,1.76-.48,2.56,0,0,.28.4.52.35s.08-1.23.82-2.18c1.08-1.4,2-1.09,3.54-2.17a5.93,5.93,0,0,0,3-4.59c0-.86-.13-1.85.3-2.32s.76-.12,1.28-.07c1.82.17,2.91-2.41,3.15-3a5.91,5.91,0,0,0,.57-3.78C712.75,36.45,712.05,35.24,711.7,35.33Z" transform="translate(-7.25 -5.36)"/><path class="cls-3" d="M663.35,30.91c.71-.43.84-.74,1.35-1a6.11,6.11,0,0,1,1.92-.43c.66-.07,3.4-.37,3.87,2.14.12.67.07,1.49.35,1.37s.57-1.35,1.29-2.53a9.36,9.36,0,0,1,5.3-3.75,7.25,7.25,0,0,1,3.69-.17c2.27.33,2.61,1.18,4.33.44.65-.28,2.41-.83,2.71-2.15,0-.06.15-.66-.06-.79s-1.07,1.13-2.61,1.48c-2.09.48-2.52-.66-4.61-.85a7.2,7.2,0,0,0-6.41,2.08c-.82.83-1.61,2-2.36,2.07s-.66-.53-1-1c-1.18-1.71-4.36,0-5.07.32-2.41,1.25-4,3.12-3.89,3.31S663.27,31,663.35,30.91Z" transform="translate(-7.25 -5.36)"/><path class="cls-3" d="M693.43,51.28a4.53,4.53,0,0,1-.46-2.67c-.07-1.28-.69-3.17-2-3.8a1.84,1.84,0,0,0-.64-.2c-1.07-.19-2.07.35-5.79,1-.48.09-1.4.16-2.66.4a13.58,13.58,0,0,0-2.22.53c-1.88.75-2.45,2-4,2.35h0a2.16,2.16,0,0,1-1,.12.92.92,0,0,1-.6-.89c.05-.45.62-.61,1.37-1.13A7,7,0,0,0,677,45.48a4.66,4.66,0,0,1,.57-.34,10.77,10.77,0,0,1,1.73-.69c3.37-1.12,6.69.28,8.72-1.57.76-.68.25-.82,1.81-3,1.35-1.89,2-2.1,2-2.92.05-2-3.41-3.28-3.17-3.79.15-.31,1.6-.14,2.72.63a4.55,4.55,0,0,1,2,4.14c-.33,2.26-2.9,3.11-2.51,4.32a.59.59,0,0,0,.15.27,3.84,3.84,0,0,0,1.53.87c1.9.74,2.14,8.45,1.33,8.33C693.69,51.71,693.6,51.57,693.43,51.28Z" transform="translate(-7.25 -5.36)"/><path class="cls-1" d="M1500.91,380.82" transform="translate(-7.25 -5.36)"/><path class="cls-1" d="M1470.54,356.27" transform="translate(-7.25 -5.36)"/><path class="cls-3" d="M1501.09,330.15c-.33.08-.11,1.24-.6,3.43a5.11,5.11,0,0,1-.68,2c-.72,1.05-2.16,1.9-3,1.52-.36-.16-.84-.65-1-.51,0,0,0,0,0,0a3.23,3.23,0,0,0,0,1.91c.59,1.92-1.07,4.26-1.22,4.48a10.22,10.22,0,0,1-2,1.85,14.11,14.11,0,0,0-2.28,2.09,4.9,4.9,0,0,0-.55.76c-.2.34-1,1.75-.48,2.56,0,0,.28.4.51.34.38-.09.09-1.22.82-2.17,1.09-1.4,2.06-1.09,3.55-2.17a6,6,0,0,0,3-4.59c0-.86-.13-1.85.3-2.33s.75-.11,1.28-.06c1.81.17,2.9-2.41,3.15-3a5.93,5.93,0,0,0,.56-3.78C1502.14,331.28,1501.44,330.07,1501.09,330.15Z" transform="translate(-7.25 -5.36)"/><path class="cls-3" d="M1452.74,325.74c.71-.43.83-.75,1.35-1a6,6,0,0,1,1.92-.43c.65-.07,3.4-.37,3.86,2.14.12.67.08,1.49.36,1.37s.56-1.35,1.29-2.54a9.45,9.45,0,0,1,5.29-3.75,7.39,7.39,0,0,1,3.7-.16c2.27.33,2.61,1.18,4.33.44.65-.28,2.4-.83,2.71-2.16,0-.06.15-.65-.07-.78s-1.07,1.13-2.6,1.48c-2.09.48-2.52-.66-4.62-.85a7.22,7.22,0,0,0-6.41,2.08c-.81.83-1.6,2-2.36,2.07-.59.09-.66-.53-1-1-1.19-1.71-4.36-.06-5.07.31-2.41,1.26-4.05,3.13-3.89,3.32S1452.65,325.79,1452.74,325.74Z" transform="translate(-7.25 -5.36)"/><path class="cls-1" d="M1506.06,386.54" transform="translate(-7.25 -5.36)"/><path class="cls-1" d="M1475.69,362" transform="translate(-7.25 -5.36)"/><path class="cls-2" d="M1445,321.61a31.27,31.27,0,0,1,7.44-7.66,35.9,35.9,0,0,1,7.38-4.34,41.18,41.18,0,0,1,10.72-2.86,62.64,62.64,0,0,1,9.44-.84,61,61,0,0,1,10.14.71c4.64.76,14.35,2.34,22.86,9.84a39.62,39.62,0,0,1,6.92,8.07,32.84,32.84,0,0,1,4.81,10.57c2.51,10.86-2.49,22.6-2.49,22.6a39.82,39.82,0,0,1-6.74,9.64A35.42,35.42,0,0,1,1508,373a29.56,29.56,0,0,1-7,3.06,26.63,26.63,0,0,1-8.94.92c-5.15-.43-8.86-2.38-9.8-3.3-.61-.6-1.29-1.12-1.86-1.75a4,4,0,0,0-1.11-1,3.77,3.77,0,0,0-1.84-.48c-13.71-.39-18.24-4.9-18.24-4.9-1.15-1.13-4.15-4.72-4.77-7.57a4.25,4.25,0,0,0-1.06-2.22,8.72,8.72,0,0,0-2.58-1.38c-.64-.3-1.26-.66-1.89-1-1.38-.72-5.56-4.58-7.42-10.79C1438.32,332.06,1444.27,322.69,1445,321.61Z" transform="translate(-7.25 -5.36)"/><path class="cls-3" d="M1506.24,335.87c-.33.08-.12,1.24-.6,3.43a5.28,5.28,0,0,1-.68,2c-.72,1-2.16,1.9-3,1.52-.36-.16-.84-.65-1-.51l0,0a3.23,3.23,0,0,0,0,1.91c.59,1.92-1.07,4.26-1.22,4.48a10.22,10.22,0,0,1-2,1.85,14.11,14.11,0,0,0-2.28,2.09,4.24,4.24,0,0,0-.55.76c-.21.34-1,1.75-.49,2.56,0,0,.28.4.52.34s.08-1.22.82-2.17c1.08-1.4,2-1.09,3.55-2.17a6,6,0,0,0,3-4.59c0-.86-.12-1.85.31-2.33s.75-.11,1.28-.06c1.81.17,2.9-2.41,3.14-3a5.86,5.86,0,0,0,.57-3.78C1507.29,337,1506.59,335.79,1506.24,335.87Z" transform="translate(-7.25 -5.36)"/><path class="cls-3" d="M1457.88,331.46c.72-.43.84-.75,1.36-1a6,6,0,0,1,1.91-.43c.66-.07,3.41-.37,3.87,2.14.12.67.07,1.49.36,1.37s.56-1.35,1.29-2.54a9.45,9.45,0,0,1,5.29-3.75,7.35,7.35,0,0,1,3.69-.16c2.27.33,2.62,1.18,4.34.44.64-.28,2.4-.83,2.7-2.16,0-.06.15-.65-.06-.78s-1.07,1.13-2.6,1.48c-2.09.48-2.52-.66-4.62-.85a7.21,7.21,0,0,0-6.41,2.08c-.81.83-1.6,2-2.36,2.07-.6.09-.66-.53-1-1-1.19-1.71-4.37-.06-5.07.31-2.41,1.26-4,3.13-3.89,3.32S1457.8,331.51,1457.88,331.46Z" transform="translate(-7.25 -5.36)"/><path class="cls-3" d="M1488,351.82a4.57,4.57,0,0,1-.46-2.66c-.07-1.28-.68-3.17-2-3.81a2.44,2.44,0,0,0-.65-.19c-1.06-.2-2.07.35-5.79,1-.48.09-1.4.15-2.66.4a13.38,13.38,0,0,0-2.21.53c-1.88.75-2.46,2-4,2.35h0a2.34,2.34,0,0,1-1.06.12.94.94,0,0,1-.6-.89c0-.45.63-.61,1.37-1.13a6.46,6.46,0,0,0,1.56-1.56c.12-.07.3-.19.58-.33a11.44,11.44,0,0,1,1.72-.7c3.37-1.11,6.7.29,8.73-1.56.75-.69.25-.82,1.8-3,1.35-1.9,2-2.1,2-2.92,0-1.95-3.41-3.28-3.16-3.79.15-.32,1.6-.14,2.71.63a4.52,4.52,0,0,1,2,4.13c-.33,2.26-2.9,3.12-2.51,4.33a.87.87,0,0,0,.15.27,4.19,4.19,0,0,0,1.53.87c1.9.73,2.14,8.44,1.34,8.33C1488.22,352.26,1488.13,352.11,1488,351.82Z" transform="translate(-7.25 -5.36)"/></svg>