<svg id="Layer_1" data-name="Layer 1" xmlns="http://www.w3.org/2000/svg" xmlns:xlink="http://www.w3.org/1999/xlink" viewBox="0 0 1987.18 428.63"><defs><style>.cls-1,.cls-4,.cls-7{fill:none;}.cls-2{clip-path:url(#clip-path);}.cls-3{fill:#ffc627;}.cls-4,.cls-7{stroke:#fff;stroke-miterlimit:10;}.cls-4{stroke-width:0.25px;}.cls-5{fill:#fff;}.cls-6{clip-path:url(#clip-path-2);}.cls-7{stroke-width:0.39px;}</style><clipPath id="clip-path" transform="translate(-6.19 -3.67)"><rect class="cls-1" x="-71.47" y="-52.99" width="2142.94" height="535.73"/></clipPath><clipPath id="clip-path-2" transform="translate(-6.19 -3.67)"><rect class="cls-1" x="1077.92" y="82.84" width="368.66" height="368.66"/></clipPath></defs><g class="cls-2"><path class="cls-3" d="M618.1,370.66c-12.61.07-25.41-.06-38,0,1.41-27.54,2.13-54.49,2-73.36-.15-23.94-1-39.62-5.54-58.33A139.37,139.37,0,0,0,565.82,209a142.1,142.1,0,0,0-18.33-27.12c-17.56-19.8-42.41-29.9-44.39-30.69-37.66-14.9-70.38-4.69-84.22-.38A102.93,102.93,0,0,0,392.7,163a97.88,97.88,0,0,0-23.1,20.91,78.4,78.4,0,0,0-13.23,22.8c-4.36,12.05-4.9,23.58-5.24,30.91a62.36,62.36,0,0,0-.16,6.24c0,3.4-.69,22.85-.82,26.3-.47,12.32-.21,22.64,0,56.53.06,9.52.13,23.54.16,40.77l-35-.07c.27-10.89.54-28.19.14-49.56-.5-27-1.68-37.86-1.54-63.57.15-27.06.29-40.86,4.12-54.39a128.91,128.91,0,0,1,21.05-41.78,143.56,143.56,0,0,1,50.49-38.92,147.28,147.28,0,0,1,17.66-6.48c4.35-1.24,8.42-2.16,12.16-2.84a144.13,144.13,0,0,1,20-2.08h.21c11.85-.58,23.36-.27,25.09-.21,37.79,1.42,65.07,14.23,65.14,14.27,18.82,9.09,55,30.27,73.31,70.7,8.43,18.57,12,38.85,13.24,45.64.53,3,.85,5.25,1.1,7,3.13,21.65,3.11,39.45,3,52.92-.28,26.62-1.36,53.64-2.29,72.58" transform="translate(-6.19 -3.67)"/><path class="cls-3" d="M278.48,80S6.05,80.41,6.19,80.1s0-37.84,0-37.84l272.29,0Z" transform="translate(-6.19 -3.67)"/><path class="cls-4" d="M1185.92,181.05c0,.33-3-.11-6.86,1-2.13.6-6.06,1.76-7.85,5.05a10.23,10.23,0,0,0-1,4.34c-.23,2.56-.41,4.61.7,6,1.62,2,4,0,7.85,1.75,2.63,1.23,2.48,2.6,6.72,5,2.47,1.43,3.5,1.53,3.93,1.54a9.07,9.07,0,0,0,5.81-2.24c.76-.69,1.2-1.34,1.33-1.26s-.35,2-1.54,3.23c-2.55,2.71-6.45,2.41-6.86,2.38-1.9-.18-3.46-1.1-6.59-2.95s-2.9-2.19-4.48-2.8a12,12,0,0,0-8.41.14c-1.11.46-3.67,1.53-4.35,3.79-.34,1.13.07,1.67.28,3.64.13,1.12.48,4.35-.56,6.58-1.82,3.93-8.08,4.73-8.13,4.63a15.34,15.34,0,0,0,3.3-1.89,8.23,8.23,0,0,0,2.31-2.32,7,7,0,0,0,.77-4.06c-.15-4.83-2-5.46-1.33-7.42.91-2.85,4.91-2.24,6.31-5.75.26-.67.22-.93.27-4.21a76.75,76.75,0,0,1,.29-7.7c1.37-4.55,7.5-7.08,11.91-7.43C1183,179.82,1185.94,180.72,1185.92,181.05Z" transform="translate(-6.19 -3.67)"/><path class="cls-4" d="M1152.37,229c.28-.05.29,2.55,2.05,4.59.26.3,2.06,2.37,4.35,2.27,1.79-.09,2.1-1.08,6.36-4.34.46-.35,1.39-.91,2.6-1.84a16.17,16.17,0,0,0,2.07-1.76c1.61-1.82,1.61-3.51,3-4.71a6.41,6.41,0,0,1,1.05-.68c2.88-1.51,3.95-.18,11.81-.49a36.86,36.86,0,0,0,10.89-1.55c3.4-1.1,7.18-2.38,9.7-6.18a12.32,12.32,0,0,0,2.2-6.57c.11-4.49-2.51-7.81-3.66-9.27-3.2-4.06-5.53-3.55-7.14-7.24a12.2,12.2,0,0,1-.82-6.38,14,14,0,0,1,2.84-6.47c4.39-6,11.33-8.2,11.53-7.82.08.14-1.1.71-3.29,2.6-3.68,3.15-8,6.85-8.06,11.69a9.68,9.68,0,0,0,1.28,4.8c1.38,2.45,3.3,3.22,4.76,4.31,3.78,2.83,5.46,8.51,5.4,12.43-.12,8-7.57,13.85-12.79,16a24.65,24.65,0,0,1-7.17,1.64c-8.38,1-12.1-1.78-16.2,1-1.3.86-1.26,1.48-2,2.69a11,11,0,0,1-1.91,2.36c-3,3-7.18,3.21-8.42,6.33-.46,1.17.14,1.06-.43,4.29-.51,2.83-1.05,3.39-.68,4.31.9,2.2,5.18,1.86,5.17,2.56,0,.43-1.61,1-3.15.72a5.29,5.29,0,0,1-4.08-3.57c-.75-2.69,1.53-5,.54-6.14-.46-.52-1-.12-2.32-.38-2.6-.53-4.6-3-5.37-5.29C1151.85,231,1152.12,229.06,1152.37,229Z" transform="translate(-6.19 -3.67)"/><path class="cls-4" d="M1205.65,284.19a2.16,2.16,0,0,1-1.08-2.17c.06-.47.3-.81.48-1.89.09-.57,0-.61,0-.63-.19-.07-1.13,1.21-1.63,2.64-.92,2.57-.15,3.47-1.12,4.5-.84.87-1.91.73-2.53,1.95a3.77,3.77,0,0,0-.29,1.06c-.47,2.45.34,5.86.72,5.81s-.64-2.7.78-5.4c1.13-2.14,3.24-3.32,5.1-4.36a11.86,11.86,0,0,1,3.46-1.53c3.68-.81,5,1.38,8.86.64a8.11,8.11,0,0,0,3.7-1.69,6,6,0,0,0,2.27-3.8c0-.53,0-1.38-.21-1.44s-.5.49-.8,1a12.1,12.1,0,0,1-2.78,2.86,9.39,9.39,0,0,1-3.37,1.53c-4.08.89-6.21-2.16-8.88-.8C1207,283.13,1206.47,284.44,1205.65,284.19Z" transform="translate(-6.19 -3.67)"/><path class="cls-4" d="M1237.42,268.32c.87-3.22,2.3-5,2.13-5.16s-2.07,1.55-3.31,4.28c-.48,1.05-2.23,4.9-1.13,8.65,1,3.52,3.58,3.51,4.35,7.36a13.38,13.38,0,0,1,0,4.2c-.37,3.87-1.35,4.23-1.69,7.36-.06.6-.59,6,2,8.51.85.82,1.92,1.15,2,1s-1.59-1.18-2.24-3.37a15.65,15.65,0,0,1-.25-4.62,9,9,0,0,1,.08-1.53c.36-1.77,1.71-2.59,2.23-5.72.72-4.36-1.17-6.65.18-8.3.58-.72,1.84-.87,4.35-1.16a28,28,0,0,1,3.73-.21c5,0,7.52.07,10.18.77,2.25.6,3.57,1.3,4.49,2.66.19.29,1.24,1.83.82,3-.34,1-1.47,1.13-1.41,1.47s1.28.63,2,0c1-.84.8-3,.42-4.35a7.13,7.13,0,0,0-3.31-4c-.38-.24-1.6-1-5-1.4a44.77,44.77,0,0,0-6.39-.14c-3.76.06-5.64.09-6.39.14-2.58.14-3.23.28-4.38-.14a6.18,6.18,0,0,1-3.79-3.5C1236.36,272.19,1236.88,270.3,1237.42,268.32Z" transform="translate(-6.19 -3.67)"/><path class="cls-4" d="M1217,191.49c.39-.14-1.33-3.1-.14-5.74.88-2,2.91-2.76,5-3.57,1.27-.51,6.55-2.6,10.65-.29,1.1.62,2,1.51,2.45,1.19s-.52-1.76-.52-3.46c0-3.71,4.84-6.53,6.2-7.33a23.56,23.56,0,0,1,7.41-2.55c5.08-1.13,6.87-.47,9.48-2.35,1.64-1.18,1.18-3.36,2.87-4a5.19,5.19,0,0,1,2.82.1,4.85,4.85,0,0,0-3.94-.87c-1.77.44-1.87,2.4-3.5,3.22-3.71,1.85-6,.94-10.59,2.1-3.16.81-8.72,2.22-10.59,6.31-.64,1.38-.85,3.07-2.26,3.67-1.12.48-2-.12-3.36-.42-4.6-1-9.06,2.77-10.06,3.61-1.55,1.32-3.78,3.2-3.85,6C1215,189.55,1216.69,191.61,1217,191.49Z" transform="translate(-6.19 -3.67)"/><path class="cls-4" d="M1288.5,163.87a1,1,0,0,1,.43.72c.21,1.33-2.15,1.76-3.46,4.22-.76,1.41-1.08,3.3-.35,4.5a2,2,0,0,0,.17.26c.34.4,1,.72,3,1.44a32,32,0,0,0,5.89,1.76c2.77.4,4.51,0,4.54.28s-2.23,1.19-4.93,1.13-3.51-1-7.53-1.49c-1.27-.14-2.21-.17-3.32-.2a45.63,45.63,0,0,0-7,.28,29.31,29.31,0,0,0-13,4.93c-3.79,2.87-8.22,8.06-8.35,12.29,0,.76,0,4.86-.18,6.73a13.13,13.13,0,0,0-.07,1.77c.06,1,.23,1.31.07,1.62-.3.58-1.7.51-3.24.42-2.55-.14-3.83-.21-4.74-.19a17.42,17.42,0,0,0-4.7,1c-4,1.23-8,2.49-11.83,6.13l-.63.63a29.77,29.77,0,0,0-6.82,10.81,28.8,28.8,0,0,0-1.48,7.82,25.61,25.61,0,0,0,0,6.13,31.07,31.07,0,0,1,.7,7.54c-.07,1.16-.2,1.58-.37,1.6-.48.07-1.32-3-1.82-4.86a45.89,45.89,0,0,1-1.82-8.22c-.37-4.79,1.31-8.51,2.91-12,1.69-3.75,5-11.12,12.71-15.47a31.34,31.34,0,0,1,9.65-3.39,16.38,16.38,0,0,1,4.81-.45c1.59.2,2.69.72,3.5.1a2.61,2.61,0,0,0,.75-2.11c.24-4.14-.2-5.87.24-8a11.55,11.55,0,0,1,1.3-3.27,22.13,22.13,0,0,1,7.08-7.93,35.27,35.27,0,0,1,14.27-5.18,8.93,8.93,0,0,0,3.67-.93,8.75,8.75,0,0,0,.73-.51c2-1.58,3-4,4.7-6.26C1285.23,165.89,1287.5,163.39,1288.5,163.87Z" transform="translate(-6.19 -3.67)"/><path class="cls-4" d="M1244.92,215.38c.09.16,1.08-.27,1.2-.32a8.67,8.67,0,0,0,2.16-1.5c2.32-1.64,7.24,1.82,7.63,2.1a4.66,4.66,0,0,1,1.9,2.25,4,4,0,0,1,.14,2,27.83,27.83,0,0,0,0,9.17,13.87,13.87,0,0,0,1.89,4.28,11.94,11.94,0,0,0,3.36,3.85c1.34,1,3.08,1.52,3.29,1.19s-1.61-1.54-3.06-3.47a15,15,0,0,1-2.68-8.09c-.1-1.11-.48-5.61,2.94-12.75,2.33-4.85,6.07-12.64,14.85-17.58,5.6-3.14,10.64-3.68,16.33-4.28a44.47,44.47,0,0,1,16.6.91,28.63,28.63,0,0,1,10.86,4.77,21.78,21.78,0,0,1,8.34,11.21c1.51,5,1.21,11.67-1.39,13.48-.3.2-1.23.76-1.13,1s1.52.26,2.66-.28c3.22-1.52,3.1-8,3.08-9-.12-6.83-4-11.79-5.46-13.66a28.21,28.21,0,0,0-10.58-8.06A33.41,33.41,0,0,0,1309,190a52.28,52.28,0,0,0-15.76-.21c-6.28.83-12.92,1.71-19.55,6.51a38.81,38.81,0,0,0-8.59,9.14c-1.85,2.84-2.77,4.26-3.18,6.14-.27,1.24-.23,2.06-.84,2.38-1.25.68-2.75-2.15-6.17-2.66a10.3,10.3,0,0,0-5.46.84C1246.8,213.22,1244.76,215.13,1244.92,215.38Z" transform="translate(-6.19 -3.67)"/><path class="cls-4" d="M1309.43,207.66c.29.21-4.18,5.25-6.22,13.48a35.53,35.53,0,0,0-.71,13.34c.51,3.64,2,13.81,9.53,18.85,4.15,2.76,9.43,3.5,11.79,3.84l5.24.36c3.08.21,3.77.3,4.34-.27,1.13-1.12,1-4-.16-5.31a6,6,0,0,1-1.12-1.36c-.37-.66-.74-1.68-.53-1.82.39-.28,3.55,2,4.56,5.71a9.71,9.71,0,0,1-2.43,9.3c-2.14,2.09-5.2,2.43-5.34,2.13s1.4-1.35,2-1.76a7.76,7.76,0,0,0,1.31-1c.12-.14,1.33-1.46,1-2.35-.24-.7-1.33-.84-7.57-1.41-1.53-.14-1.41-.14-1.74-.16a57.26,57.26,0,0,1-7.46-1.06,19.84,19.84,0,0,1-10-5.75,22.16,22.16,0,0,1-5-9.75,33.29,33.29,0,0,1-1-11.38,37.63,37.63,0,0,1,2.81-13.79C1305.32,211.45,1309.16,207.47,1309.43,207.66Z" transform="translate(-6.19 -3.67)"/><path class="cls-3" d="M163.93,76.91s.38,293.93.08,293.77-37.84,0-37.84,0l0-293.77Z" transform="translate(-6.19 -3.67)"/><path class="cls-3" d="M352,43.83s.43,328.33.08,328.15-43.25,0-43.25,0l-.05-328.15Z" transform="translate(-6.19 -3.67)"/><path class="cls-3" d="M701.71,112.67s.38,258.13.08,258-37.84,0-37.84,0l0-258Z" transform="translate(-6.19 -3.67)"/><path class="cls-3" d="M1597.05,82.64s.38,288.89.08,288.74-37.73,0-37.73,0q0-65.43,0-130.86l0-157.88Z" transform="translate(-6.19 -3.67)"/><path class="cls-3" d="M1683.56,150.36s-204.66.33-204.55.07,0-32.87,0-32.87l204.55,0Z" transform="translate(-6.19 -3.67)"/><path class="cls-3" d="M799.52,114s.39,259.23.08,259.1-37.84,0-37.84,0l0-259.1Z" transform="translate(-6.19 -3.67)"/><path class="cls-3" d="M1066.16,372.08l-37.82.19c1.41-27.55,1.71-51.26,1.59-70.14-.14-23.93-1-39.61-5.55-58.32a138.89,138.89,0,0,0-10.73-29.93,142.1,142.1,0,0,0-18.33-27.12c-17.56-19.8-42.41-29.9-44.39-30.69-37.66-14.91-70.38-4.69-84.22-.38a102.58,102.58,0,0,0-26.18,12.17,97.88,97.88,0,0,0-23.1,20.91,78.63,78.63,0,0,0-13.23,22.8c-4.36,12.05-4.89,23.58-5.24,30.91a62.36,62.36,0,0,0-.16,6.24c0,3.4-.69,22.84-.82,26.29-.47,12.33-.21,22.65,0,56.54.06,9.51.13,23.54.16,40.76l-35-.06c.27-10.89.54-28.19.14-49.56-.5-27-1.67-37.86-1.54-63.57.15-27.06.29-40.86,4.12-54.39a129,129,0,0,1,21-41.79A143.6,143.6,0,0,1,837.39,124a147.28,147.28,0,0,1,17.66-6.48c4.35-1.24,8.42-2.16,12.16-2.84a144.13,144.13,0,0,1,20-2.08h.21c11.85-.58,23.37-.27,25.09-.21,37.79,1.42,65.07,14.23,65.14,14.27,18.82,9.09,55,30.27,73.31,70.7,8.43,18.57,12,38.85,13.24,45.64.53,3,.85,5.24,1.1,7,3.13,21.66,3.11,39.46,3,52.93-.28,26.62-1.14,50.22-2.06,69.16" transform="translate(-6.19 -3.67)"/><path class="cls-3" d="M1749.94,117.53s112.88,239.31,112.54,239.32-34.13,17.08-34.13,17.08L1708.5,117.53Z" transform="translate(-6.19 -3.67)"/><polygon class="cls-3" points="1821.98 370.26 1859.54 370.26 1840.76 352.05 1821.98 370.26"/><path class="cls-3" d="M1952,117.53s-120.22,239.31-119.88,239.32,34.13,17.08,34.13,17.08l127.09-256.4Z" transform="translate(-6.19 -3.67)"/><path class="cls-3" d="M649.23,19.2a31.43,31.43,0,0,1,7.44-7.57,36.78,36.78,0,0,1,7.38-4.3,41.93,41.93,0,0,1,10.72-2.82,61.11,61.11,0,0,1,9.43-.83,60.15,60.15,0,0,1,10.14.7c4.64.75,14.35,2.32,22.86,9.74a39.06,39.06,0,0,1,6.91,8,32.53,32.53,0,0,1,4.82,10.46c2.51,10.74-2.5,22.37-2.5,22.37a39.09,39.09,0,0,1-6.73,9.53,35.22,35.22,0,0,1-7.42,5.6,28.9,28.9,0,0,1-7,3,26.45,26.45,0,0,1-8.93.91c-5.15-.42-8.86-2.35-9.8-3.26-.61-.59-1.29-1.11-1.86-1.74a4.1,4.1,0,0,0-1.12-1,3.86,3.86,0,0,0-1.83-.48c-13.71-.38-18.24-4.84-18.24-4.84-1.15-1.12-4.15-4.67-4.77-7.49a4.1,4.1,0,0,0-1.06-2.2,8.83,8.83,0,0,0-2.58-1.36c-.64-.3-1.25-.66-1.89-1-1.37-.72-5.55-4.53-7.41-10.68-3.17-10.46,2.77-19.73,3.48-20.8" transform="translate(-6.19 -3.67)"/><path class="cls-4" d="M710.48,33.32c-.33.08-.12,1.23-.6,3.39a5.06,5.06,0,0,1-.68,2c-.72,1-2.16,1.88-3,1.5-.36-.16-.84-.65-1-.5,0,0,0,0,0,0a3.15,3.15,0,0,0,.05,1.89c.58,1.89-1.08,4.21-1.23,4.42a10.42,10.42,0,0,1-2,1.84,13.93,13.93,0,0,0-2.29,2.07,6.31,6.31,0,0,0-.55.74c-.2.34-1,1.74-.48,2.54,0,0,.28.4.51.34.38-.09.09-1.21.82-2.15,1.09-1.39,2.06-1.08,3.55-2.15a5.87,5.87,0,0,0,3-4.54c0-.85-.13-1.83.3-2.3s.75-.11,1.28-.06c1.81.17,2.9-2.39,3.15-3a5.8,5.8,0,0,0,.56-3.74C711.53,34.43,710.83,33.24,710.48,33.32Z" transform="translate(-6.19 -3.67)"/><path class="cls-4" d="M662.14,29c.71-.42.83-.74,1.35-1a6.31,6.31,0,0,1,1.92-.42c.65-.07,3.4-.37,3.86,2.11.12.66.07,1.48.36,1.36s.56-1.34,1.29-2.51a9.4,9.4,0,0,1,5.29-3.71,7.35,7.35,0,0,1,3.69-.16c2.27.32,2.62,1.16,4.33.44.65-.28,2.4-.83,2.71-2.14,0-.06.15-.64-.07-.77s-1.06,1.11-2.6,1.46c-2.08.47-2.52-.65-4.61-.84a7.25,7.25,0,0,0-6.41,2.05c-.81.83-1.6,1.94-2.36,2-.6.09-.66-.52-1-1-1.19-1.7-4.36-.06-5.07.31-2.41,1.24-4.05,3.09-3.89,3.27S662.05,29,662.14,29Z" transform="translate(-6.19 -3.67)"/><path class="cls-4" d="M692.21,49.1a4.52,4.52,0,0,1-.47-2.64c-.06-1.27-.68-3.14-2-3.76a1.84,1.84,0,0,0-.64-.2c-1.07-.19-2.07.35-5.79,1-.48.09-1.4.16-2.66.4a14.58,14.58,0,0,0-2.21.52c-1.88.74-2.46,2-4,2.33h0a2.34,2.34,0,0,1-1.06.12.94.94,0,0,1-.6-.88c.05-.45.63-.61,1.37-1.12a6.5,6.5,0,0,0,1.56-1.54c.12-.07.3-.19.58-.34a11.76,11.76,0,0,1,1.72-.68c3.37-1.1,6.69.28,8.72-1.54.76-.69.25-.82,1.81-3,1.35-1.88,2-2.08,2-2.89.05-1.93-3.42-3.25-3.17-3.75.16-.32,1.6-.14,2.72.62a4.47,4.47,0,0,1,2,4.09c-.33,2.24-2.9,3.08-2.51,4.28a.56.56,0,0,0,.15.26,4,4,0,0,0,1.52.87c1.91.73,2.15,8.35,1.34,8.24C692.46,49.53,692.38,49.39,692.21,49.1Z" transform="translate(-6.19 -3.67)"/><path class="cls-5" d="M1499.68,325c-.33.08-.11,1.23-.59,3.39a5.16,5.16,0,0,1-.68,2c-.73,1-2.17,1.88-3,1.5-.35-.16-.83-.64-1-.5l0,0a3.22,3.22,0,0,0,.05,1.89c.59,1.9-1.08,4.22-1.23,4.43a10.12,10.12,0,0,1-2,1.84,14.24,14.24,0,0,0-2.29,2.06,9,9,0,0,0-.55.75c-.2.34-1,1.74-.48,2.54,0,0,.28.39.52.33s.08-1.21.82-2.15c1.09-1.38,2-1.07,3.54-2.14a5.89,5.89,0,0,0,3-4.55c0-.84-.13-1.83.3-2.3s.76-.11,1.28-.06c1.82.17,2.91-2.39,3.15-3a5.77,5.77,0,0,0,.56-3.73c-.28-1.23-1-2.43-1.33-2.35" transform="translate(-6.19 -3.67)"/><path class="cls-5" d="M1451.34,320.61c.71-.42.84-.73,1.35-1a6.11,6.11,0,0,1,1.92-.43c.66-.07,3.4-.36,3.86,2.12.13.66.08,1.48.36,1.35s.57-1.33,1.29-2.5a9.41,9.41,0,0,1,5.29-3.71,7.39,7.39,0,0,1,3.7-.16c2.27.32,2.61,1.16,4.32.43.65-.28,2.41-.82,2.72-2.13,0-.06.14-.65-.07-.78s-1.07,1.12-2.61,1.47c-2.08.47-2.51-.66-4.61-.84a7.24,7.24,0,0,0-6.41,2c-.81.82-1.6,1.94-2.35,2.05-.6.09-.66-.53-1-1-1.18-1.69-4.36-.05-5.07.31-2.41,1.25-4,3.09-3.89,3.28s1.13-.48,1.21-.53" transform="translate(-6.19 -3.67)"/><path class="cls-3" d="M1443.58,316.53A31.25,31.25,0,0,1,1451,309a36,36,0,0,1,7.37-4.3,41,41,0,0,1,10.72-2.82,62.63,62.63,0,0,1,9.43-.84,59.71,59.71,0,0,1,10.14.71c4.64.74,14.35,2.31,22.86,9.73a39.63,39.63,0,0,1,6.92,8,32.73,32.73,0,0,1,4.81,10.47c2.51,10.74-2.5,22.36-2.5,22.36a39.09,39.09,0,0,1-6.73,9.53,35.5,35.5,0,0,1-7.42,5.61,29.35,29.35,0,0,1-7,3,26.16,26.16,0,0,1-8.93.91c-5.15-.42-8.86-2.34-9.8-3.26-.61-.59-1.29-1.1-1.86-1.73a4,4,0,0,0-1.12-1,3.67,3.67,0,0,0-1.83-.47c-13.71-.39-18.24-4.85-18.24-4.85-1.14-1.12-4.14-4.67-4.77-7.49a4,4,0,0,0-1.06-2.19c-.54-.54-1-.64-2.58-1.37-.64-.29-1.25-.65-1.89-1-1.37-.71-5.55-4.53-7.41-10.67-3.17-10.46,2.78-19.73,3.48-20.8" transform="translate(-6.19 -3.67)"/><path class="cls-4" d="M1504.83,330.64c-.33.08-.11,1.23-.6,3.39a5.06,5.06,0,0,1-.68,2c-.72,1-2.16,1.88-3,1.5-.36-.16-.84-.64-1-.5l0,0a3.14,3.14,0,0,0,0,1.89c.58,1.9-1.08,4.22-1.23,4.43a9.83,9.83,0,0,1-2,1.83,14,14,0,0,0-2.29,2.07,7,7,0,0,0-.55.75c-.2.34-1,1.74-.48,2.54,0,0,.28.39.51.33.38-.09.09-1.21.82-2.15,1.09-1.38,2.05-1.07,3.55-2.15a5.87,5.87,0,0,0,3-4.54c0-.85-.13-1.82.3-2.3s.75-.11,1.28-.06c1.81.17,2.9-2.39,3.15-2.95a5.83,5.83,0,0,0,.56-3.75C1505.88,331.76,1505.18,330.56,1504.83,330.64Z" transform="translate(-6.19 -3.67)"/><path class="cls-4" d="M1456.49,326.27c.71-.42.83-.73,1.35-1a6,6,0,0,1,1.92-.43c.65-.07,3.4-.37,3.86,2.12.12.66.07,1.47.36,1.35s.56-1.33,1.28-2.51a9.5,9.5,0,0,1,5.3-3.71,7.59,7.59,0,0,1,3.69-.16c2.27.33,2.62,1.17,4.33.44.65-.28,2.41-.83,2.71-2.13,0-.06.15-.65-.07-.78s-1.06,1.12-2.6,1.47c-2.08.47-2.52-.66-4.61-.84a7.26,7.26,0,0,0-6.41,2.05c-.81.82-1.6,1.94-2.36,2.05-.59.09-.66-.53-1-1-1.19-1.7-4.36-.06-5.07.31-2.41,1.25-4.05,3.09-3.89,3.28S1456.4,326.32,1456.49,326.27Z" transform="translate(-6.19 -3.67)"/><path class="cls-4" d="M1486.56,346.42a4.5,4.5,0,0,1-.47-2.63c-.06-1.27-.68-3.14-2-3.77a2.19,2.19,0,0,0-.65-.19c-1.07-.19-2.07.34-5.79,1-.48.09-1.4.15-2.66.39a14.58,14.58,0,0,0-2.21.52c-1.88.75-2.46,2-4,2.33a2.2,2.2,0,0,1-1.06.12.92.92,0,0,1-.6-.88c0-.45.63-.6,1.37-1.12a6.31,6.31,0,0,0,1.56-1.54,6.13,6.13,0,0,1,.58-.33,11.76,11.76,0,0,1,1.72-.68c3.38-1.11,6.69.28,8.72-1.55.76-.68.25-.82,1.81-3,1.35-1.88,2-2.08,2-2.89,0-1.93-3.41-3.24-3.17-3.75.15-.31,1.6-.14,2.72.63a4.46,4.46,0,0,1,2,4.09c-.34,2.23-2.9,3.08-2.51,4.27a.64.64,0,0,0,.15.27,4,4,0,0,0,1.52.86c1.91.73,2.15,8.35,1.34,8.24C1486.82,346.85,1486.73,346.71,1486.56,346.42Z" transform="translate(-6.19 -3.67)"/></g><g class="cls-6"><path class="cls-1" d="M1159.12,163.81a83.67,83.67,0,0,0-28.33,45.66c-1.62,7.25-3.22,15.08-.44,24.44,2.4,8.1,7.49,13.88,10.06,16.9a27.72,27.72,0,0,0,6.83,6.14,50.3,50.3,0,0,0,7.77,3.4,42.86,42.86,0,0,0,5.85,2,31.32,31.32,0,0,0,7.7.74,19.86,19.86,0,0,0,6.22-.63c2-.58,2.42-1.14,4.89-2.22a43.43,43.43,0,0,1,6.22-2c7.73-2.08,11.6-3.13,15.56-2.85a46.42,46.42,0,0,1,9.77,1.67c2.37.75,3.18,1.28,4.45.89,3.15-1,6-5.49,5.09-8.23a7.14,7.14,0,0,1-.5-2.55A3.24,3.24,0,0,1,1221,245c.29-.33.65-.56.72-.5s-.32.51-.4,1.22a2.57,2.57,0,0,0,0,.74c.26,1.49,1,2.58,1.23,4.18.16,1,0,1,.17,1.21.72.81,3.34-.32,10-3.79s6.21-3.52,7.37-3.83c5.26-1.41,7.21.89,10.73-1.17a58.84,58.84,0,0,0,5.12-3.78,13.51,13.51,0,0,0,1.19-1.05c.54-.59.78-1,1-1s.18.56.14.87a2,2,0,0,1-.42,1c-1.29,1.72-3.28,3.47-3.1,4.28.22,1,4.07,1.24,7.67.88a25.09,25.09,0,0,0,10.43-2.88c3.51-1.93,7.69-5.41,8.22-8.44.12-.67.49-3.79,0-4.85,0-.08-.23-.49-.11-.59s.58.19.63.22a3.06,3.06,0,0,1,1.07,2,11.36,11.36,0,0,1-.85,6.4c-2,4-5.27,4.4-5,6.3a1.57,1.57,0,0,0,.07.29c.36,1.34,1,3.84,3.1,5.26a6,6,0,0,0,2.29,1c.91.18,1.66.08,1.71.29s-.14.31-1.09.73a5.43,5.43,0,0,1-3.27-.23,5.23,5.23,0,0,1-1.86-1.29c-1.07-2.24-2.21-3.66-2.6-3.8s-.56-.16-.56-.16a3.86,3.86,0,0,0-.49-.09,10.35,10.35,0,0,0-4,.42c-.62.21-5.18,1.75-7.11,2.2-.64.15-4-.24-10.61-1a37.61,37.61,0,0,0-8.07.06,13.45,13.45,0,0,0-1.71.38c-1.64.48-2.4.95-5.55,2.67-10.79,5.88-12,5.88-14.67,8.55s-4.19,4.16-4.62,6.45a12.8,12.8,0,0,1-1.45,4.26c-.13.23-1.15,2-1.59,1.85-.08,0-.46-.2,0-2.89.5-2.9.82-5,0-6.33-.34-.56-.92-1-4-1.67a32.82,32.82,0,0,0-7.33-1.11,34.3,34.3,0,0,0-14.67,2.22c-3.7,1.51-9.94,4.09-12.55,10.44a16.41,16.41,0,0,0-1.11,7c.16,6.21,3.17,10.66,6.75,15.81,2.72,3.9,5.49,7.9,10.13,11.52,9.49,7.42,20,7.95,31.22,8.67,8.71.56,17.77,1.15,24.67-2.67a26.14,26.14,0,0,1,7.88-3.11,30,30,0,0,1,9.56-.22c9.89.85,13.9,3.54,19,1.26.9-.4,2.31-1.19,2.41-1s-2,2.1-4.48,3.26c-.87.4-3.59,1.55-9.19,1.19-6.62-.44-8.49-2.43-9.77-1.34-2.17,1.83,0,10.13,5.11,15.78,7.32,8.09,18.69,8.45,25.22,8.66a54.67,54.67,0,0,0,25.67-5.67c5.78-2.74,9.74-5.79,15.32-10.1a93.7,93.7,0,0,0,13.28-12.24c1.14-1.29,2.16-2.52,3-3.65,11.06-11.69,12.63-15.16,15.78-22.11.63-1.39,1.7-4,.55-6a4.83,4.83,0,0,0-2-1.77,6,6,0,0,0-3.88-.45,5.18,5.18,0,0,0-2.66,1.32c-.92.91-1.06,1.87-1.29,1.82s-.57-1.86.28-3.25c1-1.73,3.49-2.22,4.89-2.56,2.11-.5,2.54-.24,3.55-.55s3.41-1.29,5.89-7.11c1.84-4.32,2.31-8.08,2.67-12.67,1.07-13.66.09-20.29-2.34-24.66-.91-1.64-2-3-3.62-3.37-.54-.13-1.94-.37-5.15,1.48-2.88,1.66-7.71,4.5-8.91,9.6-.49,2.07.2,2-.37,6.41a14.29,14.29,0,0,1-2.74,6.54c-.21.23-.48.52-.65.45-.4-.17.52-2.24.78-4.63.53-4.83-.56-6.11.54-9.24a35.09,35.09,0,0,1,1.79-3.57c1.92-3.6,2.83-4.73,2.45-5.19s-1.88.47-4.67,1.41c-3,1-5.54,1.29-9.7,1.74-3.94.42-5.91.63-6.41.63-1.48,0-2.9-.14-4.29.74a6.71,6.71,0,0,0-1.85,2c-2.51,3.47-2.44,4.32-3.91,5.58-.48.41-2.23,1.87-4.06,1.47a2.93,2.93,0,0,1-1.49-.75,5.79,5.79,0,0,0,1.58.27,3.62,3.62,0,0,0,2.39-1.28,5.81,5.81,0,0,0,.89-1.61,13.06,13.06,0,0,0,1.16-4.27,3.76,3.76,0,0,0-.2-2.33c-.39-.71-1-1-2.07-1.48a10.41,10.41,0,0,0-3.85-.89,7.45,7.45,0,0,0-3,.45,10.44,10.44,0,0,0-3.06,2.13c-.14-.13.86-2.41,3.06-3.48a9.62,9.62,0,0,1,4-.73,12.46,12.46,0,0,1,3,.06c1.78.31,2.46,1.07,3.72,1.61,1.68.71,2.9.43,5.82.18,6.35-.54,5.89.31,10.63-.35a31.22,31.22,0,0,0,7.22-1.72,25.44,25.44,0,0,0,5.16-2.61,29.67,29.67,0,0,0,3.34-2.72c3.17-2.87,4.76-4.31,5.39-5.45,1.92-3.5,1-7.45.5-9.55-.42-1.77-1.06-3.29-3.45-7.33a93.8,93.8,0,0,0-6.61-10.17,98.71,98.71,0,0,0-18.83-18.72,97.3,97.3,0,0,0-15.83-9.55s-3.4-2-14.83-6.78a12.93,12.93,0,0,0-6.17-1.11c-.92.08-4.93.19-5.72,2.17-.27.67-.18,1.59-.83,1.92a.92.92,0,0,1-1,0c-.49-.47.5-1.68.5-3.17a7,7,0,0,0-1.44-3.56c-3.79-5.16-21.55-7.16-21.55-7.16a135.66,135.66,0,0,0-19.3-2c-1.34-.05-.14,0-10.62,0a82,82,0,0,0-10.88.53c-.83.1-1.25.14-1.64.23-2,.47-7.68,1.76-9.11,5.61-.93,2.48.8,3.29.51,9.65a17.15,17.15,0,0,1-.87,5.06,9.7,9.7,0,0,1-3,4.74,7.43,7.43,0,0,1-3,1.44c-.84.18-1.83.22-1.88,0s1-.49,2.19-1.48a8.26,8.26,0,0,0,1.56-1.77,12,12,0,0,0,1.66-3.79,14.09,14.09,0,0,0-.08-6.59c-.57-2.58-1.38-6.28-4.22-8-1.86-1.12-3.88-1-6.89-.45a92.68,92.68,0,0,0-21.55,6.67c-3.5,1.53-5.86,2.56-9.11,4.3A112.84,112.84,0,0,0,1159.12,163.81Z" transform="translate(-6.19 -3.67)"/><path class="cls-3" d="M1181.6,176c0,.35-3.13-.12-7.26,1-2.24.63-6.41,1.85-8.3,5.33a10.88,10.88,0,0,0-1,4.59c-.24,2.71-.44,4.88.74,6.3,1.72,2.07,4.2-.06,8.29,1.85,2.79,1.3,2.62,2.74,7.11,5.33,2.62,1.51,3.7,1.61,4.15,1.63a9.68,9.68,0,0,0,6.15-2.37c.81-.73,1.26-1.42,1.41-1.33s-.38,2.07-1.63,3.41c-2.7,2.87-6.82,2.55-7.26,2.51-2-.18-3.66-1.16-7-3.11s-3.07-2.32-4.74-3a12.67,12.67,0,0,0-8.89.15c-1.17.49-3.88,1.62-4.59,4-.36,1.2.07,1.77.29,3.85.13,1.18.5,4.6-.59,7-1.92,4.16-8.55,5-8.59,4.89a16.34,16.34,0,0,0,3.48-2,8.59,8.59,0,0,0,2.44-2.44,7.48,7.48,0,0,0,.82-4.3c-.16-5.11-2.08-5.77-1.41-7.85,1-3,5.19-2.36,6.67-6.07.28-.71.23-1,.29-4.45a79.83,79.83,0,0,1,.3-8.14c1.45-4.81,7.93-7.49,12.59-7.86C1178.54,174.68,1181.62,175.64,1181.6,176Z" transform="translate(-6.19 -3.67)"/><path class="cls-3" d="M1146.13,226.69c.3-.05.3,2.7,2.17,4.86.27.32,2.17,2.51,4.6,2.39,1.88-.09,2.21-1.14,6.71-4.58.49-.37,1.48-1,2.75-2a17.4,17.4,0,0,0,2.2-1.85c1.7-1.93,1.7-3.72,3.19-5a7.45,7.45,0,0,1,1.12-.73c3-1.59,4.17-.18,12.48-.51,4.15-.16,7.45-.31,11.52-1.63,3.58-1.17,7.58-2.53,10.25-6.54a13.07,13.07,0,0,0,2.33-6.94c.12-4.75-2.66-8.26-3.87-9.8-3.39-4.29-5.85-3.76-7.55-7.66a12.87,12.87,0,0,1-.87-6.74,14.69,14.69,0,0,1,3-6.84c4.65-6.31,12-8.67,12.19-8.27.08.14-1.16.75-3.48,2.75-3.88,3.33-8.44,7.24-8.52,12.36a10.1,10.1,0,0,0,1.36,5.07c1.45,2.59,3.48,3.41,5,4.56,4,3,5.77,9,5.71,13.14-.13,8.48-8,14.63-13.52,16.95a25.79,25.79,0,0,1-7.58,1.73c-8.86,1-12.8-1.88-17.13,1-1.37.92-1.33,1.57-2.1,2.85a11.7,11.7,0,0,1-2,2.49c-3.17,3.19-7.59,3.39-8.89,6.7-.48,1.23.14,1.11-.46,4.53-.53,3-1.11,3.58-.72,4.56,1,2.32,5.48,2,5.47,2.7,0,.46-1.71,1-3.34.77a5.58,5.58,0,0,1-4.3-3.78c-.79-2.85,1.62-5.28.57-6.49-.49-.56-1.08-.13-2.46-.41-2.75-.56-4.86-3.19-5.67-5.58C1145.58,228.78,1145.87,226.74,1146.13,226.69Z" transform="translate(-6.19 -3.67)"/><path class="cls-3" d="M1202.45,285a2.27,2.27,0,0,1-1.14-2.28c.07-.5.32-.86.5-2,.1-.61,0-.65,0-.66-.2-.09-1.19,1.27-1.73,2.78-1,2.71-.15,3.67-1.18,4.75-.89.93-2,.79-2.67,2.07a3.58,3.58,0,0,0-.31,1.12c-.5,2.59.37,6.19.76,6.15s-.68-2.86.83-5.71c1.18-2.26,3.42-3.52,5.38-4.61a12.71,12.71,0,0,1,3.67-1.62c3.89-.85,5.31,1.46,9.36.68a8.6,8.6,0,0,0,3.92-1.79,6.44,6.44,0,0,0,2.39-4c.06-.57,0-1.47-.22-1.53s-.53.52-.84,1a12.68,12.68,0,0,1-3,3,9.53,9.53,0,0,1-3.55,1.61c-4.33.95-6.57-2.27-9.4-.84C1203.85,283.9,1203.32,285.29,1202.45,285Z" transform="translate(-6.19 -3.67)"/><path class="cls-3" d="M1236,268.24c.92-3.4,2.43-5.27,2.25-5.45s-2.19,1.64-3.51,4.52c-.5,1.11-2.35,5.19-1.18,9.15,1.09,3.72,3.77,3.71,4.59,7.78a14,14,0,0,1,0,4.44c-.38,4.08-1.42,4.47-1.78,7.78-.07.63-.63,6.38,2.07,9,.89.88,2,1.22,2.16,1s-1.69-1.25-2.37-3.57A16.28,16.28,0,0,1,1238,298a9,9,0,0,1,.07-1.61c.39-1.87,1.82-2.74,2.37-6,.76-4.61-1.25-7,.19-8.78.61-.75,1.94-.91,4.59-1.22a32.77,32.77,0,0,1,3.94-.23c5.27,0,8,.07,10.77.82,2.38.63,3.78,1.37,4.75,2.81.2.3,1.3,1.94.86,3.19-.36,1-1.55,1.2-1.48,1.55s1.34.68,2.12,0c1-.88.84-3.2.44-4.59a7.54,7.54,0,0,0-3.5-4.22c-.4-.26-1.69-1-5.32-1.48a47.24,47.24,0,0,0-6.76-.15c-4,.07-6,.11-6.75.15-2.73.15-3.42.3-4.63-.15a6.45,6.45,0,0,1-4-3.7C1234.92,272.34,1235.46,270.34,1236,268.24Z" transform="translate(-6.19 -3.67)"/><path class="cls-3" d="M1214.48,187c.42-.15-1.4-3.28-.15-6.08.93-2.06,3.08-2.91,5.26-3.77,1.34-.53,6.92-2.74,11.26-.3,1.16.65,2.15,1.59,2.59,1.26s-.55-1.87-.55-3.67c0-3.91,5.12-6.9,6.55-7.74a24.89,24.89,0,0,1,7.83-2.7c5.38-1.2,7.26-.5,10-2.48,1.74-1.25,1.26-3.56,3-4.22,1.46-.55,2.94.23,3,.11a5.15,5.15,0,0,0-4.17-.93c-1.87.47-2,2.55-3.7,3.41-3.91,2-6.36,1-11.18,2.22-3.35.85-9.23,2.35-11.2,6.67-.68,1.46-.9,3.24-2.39,3.89-1.19.5-2.15-.14-3.56-.45-4.86-1.07-9.57,2.92-10.63,3.81-1.64,1.4-4,3.39-4.07,6.3C1212.34,185,1214.13,187.16,1214.48,187Z" transform="translate(-6.19 -3.67)"/><path class="cls-3" d="M1291.81,155.25a1.1,1.1,0,0,1,.46.76c.21,1.4-2.26,1.85-3.65,4.43-.8,1.48-1.13,3.47-.37,4.74a2.46,2.46,0,0,0,.18.27c.36.42,1,.76,3.15,1.5a33.14,33.14,0,0,0,6.19,1.86c2.91.42,4.75.06,4.78.29s-2.35,1.25-5.19,1.19-3.69-1-7.92-1.56a34.21,34.21,0,0,0-3.49-.22,51.37,51.37,0,0,0-7.33.3A30.85,30.85,0,0,0,1265,174c-4,3-8.64,8.48-8.78,12.93,0,.78,0,5.09-.19,7.07a12.67,12.67,0,0,0-.07,1.85c0,1.09.24,1.38.07,1.7-.31.61-1.79.54-3.4.45-2.69-.15-4-.22-5-.2a18,18,0,0,0-4.94,1.09c-4.25,1.29-8.45,2.62-12.44,6.44l-.67.67a31.62,31.62,0,0,0-7.17,11.36,30.25,30.25,0,0,0-1.55,8.22,27.15,27.15,0,0,0,0,6.44,32.35,32.35,0,0,1,.74,7.93c-.08,1.21-.21,1.65-.39,1.67-.51.08-1.39-3.15-1.92-5.11-1.17-4.33-1.76-6.49-1.92-8.64-.37-5,1.39-8.93,3.07-12.66,1.78-3.93,5.29-11.68,13.36-16.25A32.61,32.61,0,0,1,1244,195.4a17.7,17.7,0,0,1,5-.49c1.67.21,2.84.76,3.69.12a2.79,2.79,0,0,0,.79-2.23c.25-4.34-.21-6.16.25-8.44a11.87,11.87,0,0,1,1.37-3.44,23.21,23.21,0,0,1,7.44-8.34,37.25,37.25,0,0,1,15-5.44,9.38,9.38,0,0,0,3.86-1,7.22,7.22,0,0,0,.77-.54c2-1.65,3.17-4.22,4.94-6.57C1288.37,157.38,1290.76,154.74,1291.81,155.25Z" transform="translate(-6.19 -3.67)"/><path class="cls-3" d="M1244,212.28c.1.17,1.14-.28,1.27-.34a9.54,9.54,0,0,0,2.29-1.58c2.45-1.74,7.64,1.92,8.07,2.22a4.91,4.91,0,0,1,2,2.37,4.26,4.26,0,0,1,.15,2.07c-.19,1.26-.85,6.06,0,9.71a14.34,14.34,0,0,0,2,4.51,12.68,12.68,0,0,0,3.55,4.08c1.42,1,3.26,1.6,3.48,1.26s-1.7-1.64-3.24-3.68a15.75,15.75,0,0,1-2.83-8.55c-.11-1.17-.51-5.92,3.11-13.47,2.46-5.14,6.41-13.37,15.7-18.59,5.91-3.33,11.24-3.89,17.26-4.52a46.74,46.74,0,0,1,17.55,1,30.17,30.17,0,0,1,11.48,5,23.08,23.08,0,0,1,8.82,11.85c1.59,5.33,1.28,12.34-1.47,14.24-.33.23-1.3.81-1.2,1.09s1.6.28,2.81-.3c3.41-1.61,3.28-8.46,3.26-9.48-.13-7.22-4.19-12.46-5.77-14.44a29.81,29.81,0,0,0-11.19-8.52,35.22,35.22,0,0,0-9.4-2.74,55.43,55.43,0,0,0-16.67-.22c-6.63.88-13.65,1.8-20.66,6.89a41,41,0,0,0-9.09,9.65c-2,3-2.93,4.51-3.36,6.49-.28,1.32-.24,2.18-.88,2.52-1.33.71-2.91-2.27-6.52-2.81a10.74,10.74,0,0,0-5.78.89C1246,210,1243.8,212,1244,212.28Z" transform="translate(-6.19 -3.67)"/><path class="cls-3" d="M1312.16,204.12c.31.22-4.42,5.55-6.57,14.24a37.76,37.76,0,0,0-.76,14.11c.55,3.85,2.07,14.6,10.08,19.92,4.39,2.92,10,3.71,12.47,4.07l5.53.38c3.26.22,4,.31,4.59-.29,1.19-1.19,1.07-4.22-.17-5.61a6.84,6.84,0,0,1-1.19-1.44c-.39-.7-.77-1.77-.56-1.92.41-.3,3.76,2.15,4.83,6a10.28,10.28,0,0,1-2.57,9.84c-2.26,2.2-5.5,2.57-5.65,2.24s1.48-1.42,2.07-1.85a8.58,8.58,0,0,0,1.39-1c.13-.14,1.41-1.54,1.09-2.48-.26-.74-1.41-.89-8-1.5l-1.84-.17a61.73,61.73,0,0,1-7.89-1.11,21.05,21.05,0,0,1-10.57-6.08,23.52,23.52,0,0,1-5.32-10.31,35.54,35.54,0,0,1-1-12,39.93,39.93,0,0,1,3-14.57C1307.81,208.12,1311.88,203.91,1312.16,204.12Z" transform="translate(-6.19 -3.67)"/><polygon class="cls-3" points="1254.22 263.05 1310.9 320.09 1324.38 304.89 1332.11 321.01 1367.18 386.98 1386.78 360.89 1432.59 428.63 1434.33 426.49 1399.63 319.82 1371.9 354.45 1343.32 260.37 1320.51 286.21 1294.68 241.96 1254.22 263.05"/><polyline class="cls-7" points="1353.04 290.17 1343.32 260.37 1320.51 286.21 1294.68 241.96 1254.22 263.05 1310.9 320.1 1324.39 304.89 1329.98 315.86"/></g><path class="cls-3" d="M1125.63,138.71c1.23-.22,2.52,1.6,2.82,2,2.79,3.84,10.71,11.15,14.65,14.79,6.51,6,12.31,8.37,11.58,10.8-.15.51-.45.57-2,2.05a24,24,0,0,1-4.23,4.63c-2.81,2.57-8.58,10.72-12.85,19.94a83.66,83.66,0,0,0-6.62,21.39,44.62,44.62,0,0,0-.88,11.17,42.12,42.12,0,0,0,6.15,18.67,45.58,45.58,0,0,0,6.78,8.46,28.73,28.73,0,0,0,7.82,6.07c2.11,1,3.64,1,6.38,2.47a17.32,17.32,0,0,0,3.27,1.38,22.67,22.67,0,0,0,2.66.59,44,44,0,0,0,4.76.66,32.12,32.12,0,0,0,5.91-.08,16,16,0,0,0,4.15-.82c1.19-.43,1.09-.59,3-1.46a35.56,35.56,0,0,1,5.48-2.05c.91-.26.89-.21,2.5-.61,4.41-1.1,5.25-1.61,8.46-2.24a23.33,23.33,0,0,1,3.86-.48,25.74,25.74,0,0,1,2.9.11,48.75,48.75,0,0,1,5.53.77,20.64,20.64,0,0,1,3.48.8,20.85,20.85,0,0,0,2.34.82,4.07,4.07,0,0,0,3-.08,7.93,7.93,0,0,0,2.95-2.26,10.41,10.41,0,0,0,2.2-4.3c0-.28.08-.56.08-.56s0-.33,0-.64a6.2,6.2,0,0,0-.45-2s.06.22.19.66a11.89,11.89,0,0,1,.5,1.78c.06.55-.05.69.11,1a1.33,1.33,0,0,0,.69.58c1,.46,2.57-.36,2.79-.48,1.56-.83-22,11.87,6.31-2.92,3.35-1.75,5-2.63,5.32-2.82a13.51,13.51,0,0,1,1.86-1,9.58,9.58,0,0,1,2.92-.91,17.51,17.51,0,0,1,2.56,0c.13,0,.82,0,1.75.06h0c.49,0,1.88,0,2.39,0a6.51,6.51,0,0,0,3-1.28c.68-.44.71-.59,1.7-1.22a14.43,14.43,0,0,0,1.3-.89c.45-.36.82-.72.83-.71a5,5,0,0,0-.88,1,4.4,4.4,0,0,0-.56,1.31,1.63,1.63,0,0,0-.08.58,1.53,1.53,0,0,0,.35.8c.43.54,1.26.69,2.37.8a18.51,18.51,0,0,0,2.47.13,40.72,40.72,0,0,0,7.5-.72,22.59,22.59,0,0,0,2.61-.69,25.1,25.1,0,0,0,6.38-3.35,20,20,0,0,0,4.52-3.94,10.2,10.2,0,0,0,.68-1.06,8.94,8.94,0,0,0,.92-2.45,6.16,6.16,0,0,0,.1-2.23,8.89,8.89,0,0,1-.95,5.53,11,11,0,0,1-2.18,2.5,11.52,11.52,0,0,0-2,1.73,3,3,0,0,0-.85,1.46c-.05.23-.07.54.32,1.81a9.42,9.42,0,0,0,1.38,3.19,8.15,8.15,0,0,0,.71.82,7.33,7.33,0,0,0,.86.72c.29.2.53.34.62.4.52.29.85.38.84.4s-.52-.15-1.54-.5a1.61,1.61,0,0,1-.72-.4,1.51,1.51,0,0,1-.32-.56,14,14,0,0,0-.74-1.44,5.4,5.4,0,0,0-2-2.36,4.55,4.55,0,0,0-2.63-.35,13.16,13.16,0,0,0-3.06.61c-1.72.48-2.27.74-4.52,1.41a15.49,15.49,0,0,1-2.34.61,12.84,12.84,0,0,1-3.62-.26c-1.23-.17-2.47-.25-3.7-.37-2.77-.29-4.15-.43-5.93-.54a20.27,20.27,0,0,0-5.21.14,17.09,17.09,0,0,0-2,.5c-2.06.63-2.8,1.22-7.48,3.78-2,1.08-3.37,1.81-3.88,2.07s-.91.48-1.65.86c-2.48,1.27-2.89,1.47-3.75,2a24.14,24.14,0,0,0-2.1,1.33,20,20,0,0,0-1.75,1.44,15,15,0,0,0-4,4.84c-.23.54-.43,1.17-.43,1.17a18.45,18.45,0,0,0-.48,2,7.45,7.45,0,0,1-1.51,3.4c-.09,0,.19-.71.45-2.18a12.82,12.82,0,0,0,.26-2.76,5.77,5.77,0,0,0-.53-2.72,3.6,3.6,0,0,0-.8-1.11c-.57-.53-1.17-.67-3.45-1.12l-1.65-.32-4.63-.8a31,31,0,0,0-7.82.11,39.05,39.05,0,0,0-10.22,2.66,25.46,25.46,0,0,0-5.69,3.11,17.17,17.17,0,0,0-2.79,2.53,18.9,18.9,0,0,0-3.75,7.13,17.14,17.14,0,0,0-.05,7.6,24.32,24.32,0,0,0,3,8.09c.93,1.58.89,1.1,3,4.36,1.81,2.76,2.18,3.62,3.56,5.43a35.33,35.33,0,0,0,3.19,3.61,42.41,42.41,0,0,0,7.29,5.91,40.87,40.87,0,0,0,17.88,5.8c.49.05,0,0,3.88.26,7.73.55,8.86.73,12.34.86a68.78,68.78,0,0,0,7.18,0,26.77,26.77,0,0,0,7.4-1.07c1.88-.62,1.83-.92,6.33-2.87a39.61,39.61,0,0,1,4.41-1.76,25.91,25.91,0,0,1,6.71-.95,41.7,41.7,0,0,1,6.7.63c3.5.5,5.26.74,7.55,1.23a19.07,19.07,0,0,0,4.52.58c1.62,0,2.75-.25,2.77-.16a15,15,0,0,1-4.79,1.12,24.75,24.75,0,0,1-7.55-.37c-2.68-.58-2.87-.64-2.87-.64a7.08,7.08,0,0,0-2.93-.59,2.84,2.84,0,0,0-2,1,3.08,3.08,0,0,0-.42,1.65,11.62,11.62,0,0,0-.06,2.55,19.82,19.82,0,0,0,2.08,6.23,25.21,25.21,0,0,0,3.3,5.27,24.39,24.39,0,0,0,6.65,5.47,26.62,26.62,0,0,0,6.33,2.56,43.23,43.23,0,0,0,10.85,1.49,55.39,55.39,0,0,0,11.91-.37,51.52,51.52,0,0,0,9.31-2.35,61.83,61.83,0,0,0,11.49-5.16s3.46-2,10.22-7c1.74-1.29,1.57-1.43,2.31-1.74.27-.11.68-.26.77-.6s-.25-.74-.58-1.17a17.88,17.88,0,0,1-1.23-2.13c-.81-1.36-.58-1.42-1.59-3.4-1.11-2.18-1.24-1.84-1.81-3.25-.37-.92-.64-1.87-1-1.86-.19,0-.25.26-.75.8a6.43,6.43,0,0,1-.74.69,38.27,38.27,0,0,0-3.25,3.83c-1.28,1.68-1,1-3.56,3.94-1,1.22-2.69,3.22-3.72,4.17a7.43,7.43,0,0,0-.63.63c-.63.76-.74,1.36-1,1.34s-.19-.18-.53-.58a5.66,5.66,0,0,0-.7-.67c-.88-.79-5.34-5.56-8.83-9-1.46-1.45-1.12-1.06-3.06-3-2.53-2.49-4.26-4.3-5.45-5.53-1-1-1-1-7.79-7.85l-9.82-9.86c-12.15-12.22-13.33-13.4-14.25-14.39a19.21,19.21,0,0,0-2.48-2.53c-.33-.25-1.63-1.19-1.83-1.73a.9.9,0,0,0-.4-.53c-.1-.05-.18,0-.19-.08s.88-.53,1.07-.61c.92-.4,1.76-1,2.66-1.41,5-2.51,9.94-5.17,14.92-7.74,12.63-6.52,19-9.78,19.18-10,0,0,.7-.72,1-.55s.1.36.39.8c.17.25.27.26.49.58a4,4,0,0,1,.31.57c.23.55,1,1.93,1.87,3.31,1.31,2.21,2.58,4.43,3.91,6.63,2.35,3.87,4.79,8.13,8.25,14.15,0,0,6.79,11.84,9.22,15.85l.57.94c.65,1.06.55.89.67,1.08.3.52.29.54.34.56.64.33,2.93-3,4.23-4.73.14-.2,2-2.29,5.69-6.47s4.73-5.27,7.15-8.06,3.5-4,3.75-4.36c.38-.49.83-.92,1.2-1.41s.45-.64.61-.61.28.84.32,1.33a9.9,9.9,0,0,0,1.28,3.48,36.82,36.82,0,0,1,1.67,5.38c.56,1.93,1.59,5,3.65,11.17,2.72,8.13,2.73,7.73,2.75,8.09,0,.15,0,.79.31.87s1-1,2-2.63c1.41-2.26,1.25-1.69,2.34-3.49.63-1,1.36-2.48,2.82-5.4.22-.43.7-1.4,1.22-2.71a9.92,9.92,0,0,0,.77-2.42,5.71,5.71,0,0,0-.16-2.9,5.57,5.57,0,0,0-3.16-3,7.89,7.89,0,0,0-4.56-.16,4.45,4.45,0,0,0-1.43.58,10,10,0,0,0-1.09,1,2.48,2.48,0,0,1,.72-1.17,5.19,5.19,0,0,1,2.13-1.2,15.1,15.1,0,0,1,1.91-.56,8.29,8.29,0,0,1,1.41-.26c.32,0,.5,0,1-.06a7,7,0,0,0,.88-.1,4.38,4.38,0,0,0,1.09-.4,7,7,0,0,0,1.83-1.41,15.11,15.11,0,0,0,2-2.61,21.41,21.41,0,0,0,1.67-3.32,47.21,47.21,0,0,0,2.34-8.22,77.12,77.12,0,0,0,.64-19,39.59,39.59,0,0,0-1.7-8.51A9.76,9.76,0,0,0,1371,223a4.91,4.91,0,0,0-1.32-.88c-2.09-.89-4.33.28-7,1.68a18.8,18.8,0,0,0-5.15,3.67,12.65,12.65,0,0,0-2.8,3.83,12.5,12.5,0,0,0-1.07,4.47c-.06,1.64.3,1.9.08,3.59a16,16,0,0,1-.74,3,8.3,8.3,0,0,1-.91,2.18c-.08,0,.19-.86.35-2.21a19.78,19.78,0,0,0,.11-2.53c0-1.28-.09-1.62-.1-3.4a8.59,8.59,0,0,1,.12-1.76,8.25,8.25,0,0,1,.54-1.64,14.59,14.59,0,0,1,1.06-2c2.35-4,1.85-3.83,2.55-4.73a2.27,2.27,0,0,0,.51-1.17,1.34,1.34,0,0,0-.14-.85,1.41,1.41,0,0,0-1-.64c-.5-.07-.78.17-1.75.58-.44.19-.91.34-1.36.51,0,0-1.63.63-3.43,1.17a34.48,34.48,0,0,1-4.73.77c-.91.12-.87.11-6.25.69a24.15,24.15,0,0,1-2.74.22,15.71,15.71,0,0,0-2,0,7.31,7.31,0,0,0-2.12.51,5,5,0,0,0-1.15.64,6.74,6.74,0,0,0-1.43,1.65L1328,232c-.94,1.42-1.07,1.95-2,3.17-.32.42-.81,1-.87,1a9.08,9.08,0,0,1,.58-1.25,11.36,11.36,0,0,0,.85-2.5c.07-.32,0-.08.24-1.86a6.87,6.87,0,0,0,.14-1.41,3.45,3.45,0,0,0-.64-1.75,5.34,5.34,0,0,0-2.34-1.44,12.25,12.25,0,0,0-1.23-.48,11.29,11.29,0,0,0-3.77-.45s.92-.05,2.12-.11,1.12-.06,1.47-.05a7.26,7.26,0,0,1,2.07.27,13,13,0,0,1,2,1,12,12,0,0,0,1.76.77,8,8,0,0,0,2.42.19c.45,0,.83-.07,1.2-.11,1-.12,1.15-.22,1.83-.24.47,0,.53,0,1.2,0l1,0,1-.05c.76,0,1.4,0,2.26,0,1.6,0,1.44.09,2.1.07s.47,0,1.94-.18c1-.09,1.12-.08,1.59-.14s1-.14,1.81-.32,2-.42,3.17-.78a25.86,25.86,0,0,0,4.53-1.77,30.33,30.33,0,0,0,5.59-3.87l1.77-1.62c1.29-1.17,1.54-1.41,1.88-1.73a16.58,16.58,0,0,0,1.83-1.94,9.09,9.09,0,0,0,1.44-3.11,11.08,11.08,0,0,0,.36-2.69,15,15,0,0,0-.18-2.6,21.93,21.93,0,0,0-1-4.31,17.57,17.57,0,0,0-1.71-3.58c-.22-.33-.34-.5-.68-1.05-.72-1.14-1.13-2-1.44-2.53-.59-1.1-1.06-1.85-2-3.33-.24-.37-1.07-1.66-2.44-3.55-.35-.49-2.47-3.41-4.86-6.23A105.08,105.08,0,0,0,1341.45,170a114.47,114.47,0,0,0-19.2-12.6c-4-2-8.35-3.94-8.35-3.94-2.3-1-2.32-.95-4.2-1.81a34,34,0,0,0-4.31-1.81,16,16,0,0,0-2.77-.69,16.52,16.52,0,0,0-6.44.64,3.43,3.43,0,0,0-2,1.12c-.25.31-.47.77-.54.74s.07-.29.11-.74a4.4,4.4,0,0,0,0-.7,8.28,8.28,0,0,0-1.44-3.45c-2-2.63-7.18-4.21-7.18-4.21a63.67,63.67,0,0,0-12.82-2.87c-4.62-.7-8.22-1.07-15.43-1.81-4-.41-5.7-.54-7.76-.64-2.46-.1-4.71-.08-9.2,0-3.07,0-5.51.1-8.41.4-.89.09-2,.22-3.4.48a25.84,25.84,0,0,0-5,1.33,10.41,10.41,0,0,0-3.09,1.54,6.48,6.48,0,0,0-2.44,3.56,5.44,5.44,0,0,0-.06,2.56c.14.57.32.85.48,1.7a10.33,10.33,0,0,1,.16,1.59c.07,1.42.11,2.13.11,2.77a16.14,16.14,0,0,1-.48,4.68,14,14,0,0,1-1.38,3.14,7.48,7.48,0,0,1-1.6,2.13,3.74,3.74,0,0,1-1.65,1c-.06-.08.66-.54,1.33-1.39a7.93,7.93,0,0,0,1.22-2.39,14.58,14.58,0,0,0,1-5.32,17.31,17.31,0,0,0-.42-3.57,26.76,26.76,0,0,0-.85-3.19,11.91,11.91,0,0,0-1.23-3,7.17,7.17,0,0,0-2.55-2.29c-1.92-1-3.89-.87-6.06-.58a69.72,69.72,0,0,0-10.75,2.29c-2.75.85-5.58,1.83-8.62,3a86.2,86.2,0,0,0-11.43,5.16c-4.55,2.52-9.26,5.53-9.26,5.53a9.45,9.45,0,0,1-1.38.85c-7.07,2.12-18.6-24.18-22.84-28.89-.17-.2-1.65-1.81-1.21-2.6a1.86,1.86,0,0,1,.64-.53,5.56,5.56,0,0,1,1.28-.64,10.13,10.13,0,0,0,2.18-1.33c.92-.63,1.38-.83,5.32-3s3.58-2.06,4.62-2.61a83.14,83.14,0,0,1,8-3.56c3.94-1.61,5.91-2.41,8.46-3.3a136.85,136.85,0,0,1,14.09-4c4.29-1,7.71-1.56,14.37-2.66,8.39-1.37,12.58-2.06,18.67-2.71,3.91-.42,10.22-1,18-1.22,2.63-.08,9.61-.25,18.51.16,1.29.06,9.87.46,15.06,1.22.5.07,2.17.33,4.52.64s3,.36,4.58.58c2.22.31,3.83.61,5.21.86,8.39,1.51,8.41,1.4,11.49,2,6,1.2,10.51,2.52,14.79,3.77,3.12.92,6.93,2,11.91,3.89,1,.36,5.18,1.92,10.64,4.36,2.6,1.16,5.43,2.42,9.1,4.36a132.47,132.47,0,0,1,11.81,7.08c1.5,1,4.14,2.76,7.33,5.13,1.21.9,3.07,2.28,5.33,4.12,4.38,3.57,7.47,6.6,9.42,8.51,3.16,3.11,5.72,5.9,7.6,8a160.16,160.16,0,0,1,11.5,14.73,157.82,157.82,0,0,1,11.59,19.63,109.67,109.67,0,0,1,5.32,12.13,105.23,105.23,0,0,1,5,19.31,111.89,111.89,0,0,1,1.33,15.32,133.7,133.7,0,0,1-1,19.1c-.54,4.85-1.18,8.46-1.59,10.8a181.55,181.55,0,0,1-4.58,19.63,122.21,122.21,0,0,1-5.48,15.37,103.88,103.88,0,0,1-15.48,25.27,150.13,150.13,0,0,1-15.9,16.65,130.77,130.77,0,0,1-17.77,14,118.72,118.72,0,0,1-28.94,13.62,112.43,112.43,0,0,1-23.83,4.74c-3,.24-16.35,1.18-29.58-1.92a92.32,92.32,0,0,1-11.23-3.46,48.87,48.87,0,0,1-7.92-3.56,45.18,45.18,0,0,1-11.17-9,24.16,24.16,0,0,0-3.94-3.83,14.06,14.06,0,0,0-5.48-2.82,22.31,22.31,0,0,0-4.26-.43c-1.29,0-1.4.05-2.71,0-1.79-.06-2.58-.25-4.25-.42-1.93-.2-2.64-.13-4.53-.21a71.81,71.81,0,0,1-7.28-.8c-6.16-.87-12.79-1.8-18.68-3.14-3.11-.71-6.16-1.53-6.16-1.53l-2.35-.65a98.62,98.62,0,0,1-13.08-5.11,63.63,63.63,0,0,1-10.64-6c-12.48-9-17.48-22.68-18.3-25.64-.67-2.39-1.45-4.74-2.13-7.13a14.91,14.91,0,0,0-.91-2.71,13,13,0,0,0-4.46-5,25.56,25.56,0,0,0-4-2.07c-4.75-2.17-6.14-2.41-9-3.94a38.52,38.52,0,0,1-4.36-2.77c-7.78-5.51-13.78-14.1-15.53-16.65a89.13,89.13,0,0,1-8.46-15.21,86,86,0,0,1-6.33-23.62,89.3,89.3,0,0,1,1.54-29.69,109.25,109.25,0,0,1,8.35-24.63,94.75,94.75,0,0,1,5.38-10.21,99.83,99.83,0,0,1,10.05-13.35,54.76,54.76,0,0,1,6.06-6.44,49.94,49.94,0,0,0,4.42-3.83,27.62,27.62,0,0,1,2.13-1.91C1125.17,138.9,1125.36,138.76,1125.63,138.71Z" transform="translate(-6.19 -3.67)"/><path class="cls-3" d="M1125.13,138.76c.15-.31,2.7-2.17,7.82-5.9,1.44-1.05,0,0,6.34-4.5a10.34,10.34,0,0,1,1-.69c3.93-1.37,7.52,12.09,19.4,23.23,1.64,1.54,5.71,5.16,4.78,7.57-.13.35-.68.8-1.76,1.68-2.47,2-3.59,2.52-5.49,4.16-1.31,1.13-1.53,1.53-1.93,1.82C1150,170,1121.28,147,1125.13,138.76Z" transform="translate(-6.19 -3.67)"/></svg>