<svg id="Layer_1" data-name="Layer 1" xmlns="http://www.w3.org/2000/svg" xmlns:xlink="http://www.w3.org/1999/xlink" viewBox="0 0 1985.58 428.29"><defs><style>.cls-1,.cls-4,.cls-7{fill:none;}.cls-2{clip-path:url(#clip-path);}.cls-3{fill:#ffc72b;}.cls-4,.cls-7{stroke:#fff;stroke-miterlimit:10;}.cls-4{stroke-width:0.25px;}.cls-5{fill:#fff;}.cls-6{clip-path:url(#clip-path-2);}.cls-7{stroke-width:0.39px;}</style><clipPath id="clip-path" transform="translate(-6.99 -5.72)"><rect class="cls-1" x="-70.61" y="-50.9" width="2141.21" height="535.3"/></clipPath><clipPath id="clip-path-2" transform="translate(-6.99 -5.72)"><rect class="cls-1" x="1077.86" y="84.82" width="368.36" height="368.36"/></clipPath></defs><g class="cls-2"><path class="cls-3" d="M618.41,372.41c-12.6.07-25.39-.06-38,0,1.42-27.52,2.13-54.45,2-73.3-.15-23.92-1-39.59-5.54-58.29a139.83,139.83,0,0,0-10.73-29.9,142.42,142.42,0,0,0-18.31-27.1c-17.55-19.79-42.39-29.88-44.36-30.66-37.63-14.89-70.32-4.69-84.16-.38a103.56,103.56,0,0,0-26.16,12.15,98,98,0,0,0-23.07,20.9,78.34,78.34,0,0,0-13.22,22.79c-4.36,12-4.89,23.55-5.24,30.87,0,.75-.11.06-.16,6.25,0,3.39-.68,22.82-.81,26.27-.48,12.32-.22,22.63,0,56.49.05,9.5.13,23.52.16,40.73l-35-.07c.27-10.88.54-28.16.14-49.52-.5-26.94-1.67-37.83-1.54-63.52.15-27,.29-40.82,4.12-54.34a128.68,128.68,0,0,1,21-41.75,143.43,143.43,0,0,1,50.45-38.88,147.87,147.87,0,0,1,17.65-6.49c4.34-1.23,8.41-2.15,12.14-2.83a144.13,144.13,0,0,1,20-2.08H440c11.84-.57,23.35-.27,25.07-.21,37.76,1.42,65,14.22,65.09,14.26,18.8,9.08,54.92,30.24,73.25,70.65,8.42,18.55,12,38.81,13.23,45.6.53,3,.85,5.24,1.1,7,3.13,21.64,3.1,39.42,3,52.88-.28,26.6-1.37,53.6-2.29,72.52" transform="translate(-6.99 -5.72)"/><path class="cls-3" d="M279.06,82S6.84,82.39,7,82.09,7,44.28,7,44.28l272.07,0Z" transform="translate(-6.99 -5.72)"/><path class="cls-4" d="M1185.77,183c0,.33-3-.11-6.86,1-2.12.59-6.05,1.75-7.84,5a10.38,10.38,0,0,0-1,4.34c-.23,2.55-.41,4.6.7,6,1.62,2,4-.05,7.84,1.75,2.64,1.22,2.48,2.59,6.72,5,2.47,1.42,3.5,1.52,3.92,1.54a9.16,9.16,0,0,0,5.81-2.24c.77-.69,1.2-1.35,1.33-1.26s-.35,2-1.53,3.22c-2.55,2.71-6.45,2.41-6.86,2.38-1.9-.18-3.46-1.1-6.59-2.94s-2.89-2.2-4.48-2.8a11.89,11.89,0,0,0-8.4.14c-1.11.46-3.66,1.53-4.34,3.78-.34,1.13.07,1.67.28,3.64.13,1.11.47,4.35-.56,6.58-1.82,3.92-8.08,4.72-8.12,4.62a15.44,15.44,0,0,0,3.29-1.89,8.07,8.07,0,0,0,2.31-2.31,7,7,0,0,0,.77-4.06c-.15-4.83-2-5.45-1.33-7.42.91-2.84,4.9-2.23,6.3-5.74.27-.67.22-.93.28-4.2.09-4.81.14-7.22.28-7.7,1.37-4.55,7.5-7.08,11.91-7.43C1182.89,181.72,1185.79,182.63,1185.77,183Z" transform="translate(-6.99 -5.72)"/><path class="cls-4" d="M1152.25,230.88c.28,0,.29,2.55,2,4.59.25.3,2,2.37,4.35,2.26,1.78-.08,2.09-1.07,6.34-4.33.47-.35,1.4-.9,2.6-1.84a17.64,17.64,0,0,0,2.08-1.75c1.61-1.82,1.61-3.51,3-4.71a6.41,6.41,0,0,1,1-.68c2.87-1.51,3.94-.18,11.8-.49a37.18,37.18,0,0,0,10.89-1.54c3.39-1.1,7.16-2.39,9.69-6.18a12.4,12.4,0,0,0,2.2-6.56c.11-4.49-2.51-7.81-3.66-9.27-3.2-4-5.53-3.55-7.14-7.24a12.16,12.16,0,0,1-.82-6.37,14.14,14.14,0,0,1,2.83-6.47c4.39-6,11.33-8.19,11.53-7.81.08.14-1.09.71-3.29,2.6-3.67,3.15-8,6.85-8,11.68a9.48,9.48,0,0,0,1.28,4.79c1.37,2.46,3.3,3.23,4.76,4.31,3.77,2.83,5.45,8.51,5.39,12.42-.12,8-7.57,13.84-12.78,16a24.39,24.39,0,0,1-7.16,1.65c-8.38,1-12.1-1.78-16.19,1-1.3.87-1.26,1.49-2,2.7a11,11,0,0,1-1.91,2.35c-3,3-7.18,3.21-8.41,6.33-.46,1.17.14,1.06-.43,4.29-.51,2.82-1,3.39-.68,4.3.89,2.2,5.18,1.86,5.17,2.56,0,.43-1.62,1-3.16.72a5.29,5.29,0,0,1-4.07-3.57c-.74-2.69,1.53-5,.54-6.13-.46-.53-1-.13-2.32-.39-2.6-.53-4.6-3-5.36-5.27C1151.73,232.85,1152,230.92,1152.25,230.88Z" transform="translate(-6.99 -5.72)"/><path class="cls-4" d="M1205.48,286a2.17,2.17,0,0,1-1.07-2.17c.06-.47.3-.81.47-1.89.09-.57,0-.61,0-.62-.18-.08-1.12,1.2-1.62,2.63-.92,2.57-.15,3.47-1.13,4.49s-1.9.74-2.52,2a3.68,3.68,0,0,0-.29,1.06c-.47,2.44.34,5.85.72,5.8s-.64-2.7.78-5.4c1.12-2.13,3.23-3.31,5.09-4.35a12,12,0,0,1,3.46-1.53c3.68-.81,5,1.38,8.85.64a8.24,8.24,0,0,0,3.7-1.68,6.11,6.11,0,0,0,2.27-3.8c0-.53,0-1.38-.21-1.45s-.5.5-.8,1a12.24,12.24,0,0,1-2.78,2.87,9.47,9.47,0,0,1-3.36,1.52c-4.09.89-6.21-2.15-8.88-.8C1206.8,285,1206.31,286.26,1205.48,286Z" transform="translate(-6.99 -5.72)"/><path class="cls-4" d="M1237.23,270.15c.87-3.22,2.3-5,2.13-5.15s-2.07,1.55-3.31,4.27c-.48,1.05-2.23,4.9-1.13,8.65,1,3.51,3.57,3.51,4.35,7.35a13.38,13.38,0,0,1,0,4.2c-.37,3.86-1.35,4.22-1.69,7.35-.06.6-.6,6,2,8.51.85.82,1.93,1.14,2,.94s-1.6-1.17-2.25-3.37a15.66,15.66,0,0,1-.24-4.61,9.09,9.09,0,0,1,.07-1.53c.37-1.76,1.72-2.59,2.24-5.72.72-4.35-1.18-6.64.18-8.29.58-.71,1.83-.86,4.34-1.16a32.12,32.12,0,0,1,3.73-.21c5,0,7.52.07,10.17.77,2.25.6,3.57,1.3,4.49,2.66.19.29,1.23,1.83.82,3-.35,1-1.47,1.14-1.41,1.47s1.28.64,2,0c1-.83.8-3,.41-4.34a7.11,7.11,0,0,0-3.3-4c-.38-.24-1.6-1-5-1.4a48.87,48.87,0,0,0-6.39-.14c-3.76.07-5.64.1-6.38.14-2.58.15-3.23.29-4.38-.14a6.13,6.13,0,0,1-3.79-3.49C1236.17,274,1236.69,272.13,1237.23,270.15Z" transform="translate(-6.99 -5.72)"/><path class="cls-4" d="M1216.86,193.39c.38-.15-1.33-3.1-.14-5.74.87-2,2.9-2.76,5-3.57,1.26-.5,6.54-2.59,10.63-.28,1.1.61,2,1.5,2.45,1.18s-.52-1.76-.52-3.46c0-3.7,4.84-6.52,6.2-7.32a23.67,23.67,0,0,1,7.4-2.55c5.08-1.13,6.86-.47,9.47-2.35,1.64-1.18,1.18-3.35,2.87-4a5.2,5.2,0,0,1,2.81.11,4.8,4.8,0,0,0-3.93-.88c-1.77.45-1.86,2.41-3.5,3.22-3.7,1.85-6,1-10.57,2.1-3.16.81-8.72,2.22-10.59,6.3-.64,1.39-.84,3.07-2.26,3.68-1.11.48-2-.13-3.36-.42-4.59-1-9,2.76-10,3.61-1.56,1.31-3.78,3.19-3.85,5.94C1214.83,191.44,1216.52,193.51,1216.86,193.39Z" transform="translate(-6.99 -5.72)"/><path class="cls-4" d="M1288.26,165.79a1,1,0,0,1,.44.71c.21,1.34-2.15,1.77-3.46,4.22-.76,1.41-1.08,3.3-.35,4.5a1.3,1.3,0,0,0,.17.25c.34.41,1,.73,3,1.44a31.16,31.16,0,0,0,5.88,1.76c2.77.41,4.51.06,4.54.28s-2.23,1.19-4.93,1.13-3.5-1-7.52-1.48c-1.27-.15-2.21-.18-3.31-.21a48.35,48.35,0,0,0-7,.28,29.44,29.44,0,0,0-13,4.93c-3.79,2.87-8.21,8.06-8.35,12.29,0,.75,0,4.84-.17,6.72a11.46,11.46,0,0,0-.07,1.76c0,1,.23,1.31.07,1.62-.3.58-1.7.51-3.24.42-2.55-.13-3.83-.2-4.74-.18a17.2,17.2,0,0,0-4.69,1c-4,1.23-8,2.49-11.83,6.13-.26.25-.44.43-.63.63a29.83,29.83,0,0,0-6.81,10.8,28.75,28.75,0,0,0-1.48,7.81,26.13,26.13,0,0,0,0,6.13,30.49,30.49,0,0,1,.7,7.53c-.07,1.16-.2,1.58-.37,1.6-.48.07-1.32-3-1.82-4.86a47.52,47.52,0,0,1-1.82-8.21c-.36-4.78,1.32-8.5,2.92-12,1.68-3.74,5-11.11,12.69-15.46a31,31,0,0,1,9.65-3.38,16.8,16.8,0,0,1,4.8-.46c1.59.2,2.69.72,3.5.11.54-.41.69-1.1.75-2.11.24-4.13-.2-5.86.24-8a11.42,11.42,0,0,1,1.3-3.28,22.07,22.07,0,0,1,7.07-7.92,35.37,35.37,0,0,1,14.25-5.17,9,9,0,0,0,3.67-.93,8.6,8.6,0,0,0,.74-.51c2-1.58,3-4,4.69-6.25C1285,167.81,1287.27,165.3,1288.26,165.79Z" transform="translate(-6.99 -5.72)"/><path class="cls-4" d="M1244.72,217.26c.09.15,1.08-.27,1.2-.32a9,9,0,0,0,2.16-1.5c2.32-1.65,7.23,1.82,7.63,2.1a4.62,4.62,0,0,1,1.89,2.24,4,4,0,0,1,.14,2,27.83,27.83,0,0,0,0,9.17,13.8,13.8,0,0,0,1.89,4.27A11.94,11.94,0,0,0,1263,239c1.33.95,3.08,1.51,3.29,1.19s-1.61-1.55-3.07-3.47a15,15,0,0,1-2.67-8.08c-.1-1.11-.48-5.6,2.94-12.74,2.32-4.85,6.06-12.64,14.84-17.57,5.59-3.14,10.63-3.67,16.31-4.27a44.21,44.21,0,0,1,16.59.91,28.34,28.34,0,0,1,10.85,4.76,21.84,21.84,0,0,1,8.34,11.2c1.5,5,1.21,11.66-1.39,13.47-.31.2-1.23.76-1.14,1s1.52.26,2.67-.28c3.22-1.52,3.09-8,3.07-9-.12-6.83-4-11.78-5.46-13.65a28.12,28.12,0,0,0-10.57-8.06,33.29,33.29,0,0,0-8.89-2.58,51.87,51.87,0,0,0-15.75-.21c-6.27.82-12.9,1.7-19.53,6.5a39.11,39.11,0,0,0-8.59,9.13c-1.84,2.84-2.77,4.26-3.17,6.14-.27,1.24-.23,2.05-.84,2.38-1.25.67-2.74-2.16-6.16-2.66a10.3,10.3,0,0,0-5.46.84C1246.6,215.1,1244.57,217,1244.72,217.26Z" transform="translate(-6.99 -5.72)"/><path class="cls-4" d="M1309.18,209.54c.3.21-4.18,5.24-6.21,13.47a35.47,35.47,0,0,0-.71,13.33c.51,3.64,1.94,13.8,9.52,18.83,4.15,2.76,9.42,3.51,11.78,3.84.09,0,1.81.13,5.23.36,3.08.21,3.77.3,4.34-.27,1.13-1.12,1-4-.16-5.3a6.16,6.16,0,0,1-1.12-1.37c-.37-.66-.74-1.67-.53-1.81.39-.28,3.55,2,4.56,5.7a9.73,9.73,0,0,1-2.42,9.3c-2.14,2.08-5.2,2.43-5.34,2.12s1.4-1.35,2-1.75a7.66,7.66,0,0,0,1.31-1c.12-.13,1.34-1.45,1-2.34-.24-.7-1.33-.84-7.56-1.41-1.53-.14-1.41-.14-1.74-.16a57.57,57.57,0,0,1-7.46-1.06,19.77,19.77,0,0,1-10-5.74,22.18,22.18,0,0,1-5-9.74,33.31,33.31,0,0,1-1-11.38,37.51,37.51,0,0,1,2.81-13.77C1305.07,213.32,1308.91,209.35,1309.18,209.54Z" transform="translate(-6.99 -5.72)"/><path class="cls-3" d="M164.6,78.9s.38,293.69.08,293.53-37.81,0-37.81,0l0-293.53Z" transform="translate(-6.99 -5.72)"/><path class="cls-3" d="M352.52,45.85s.43,328.06.09,327.88-43.23,0-43.23,0l0-327.88Z" transform="translate(-6.99 -5.72)"/><path class="cls-3" d="M702,114.62s.38,257.93.08,257.79-37.81,0-37.81,0l0-257.79Z" transform="translate(-6.99 -5.72)"/><path class="cls-3" d="M1596.57,84.62s.38,288.66.08,288.51-37.7,0-37.7,0q0-65.38,0-130.75l0-157.76Z" transform="translate(-6.99 -5.72)"/><path class="cls-3" d="M1683,152.29s-204.5.33-204.39.06,0-32.83,0-32.83l204.39,0Z" transform="translate(-6.99 -5.72)"/><path class="cls-3" d="M799.68,115.91s.39,259,.08,258.88-37.81,0-37.81,0l0-258.88Z" transform="translate(-6.99 -5.72)"/><path class="cls-3" d="M1066.1,373.83l-37.79.19c1.41-27.53,1.71-51.22,1.6-70.08-.15-23.92-1-39.58-5.55-58.28a139.12,139.12,0,0,0-10.72-29.91,142.52,142.52,0,0,0-18.31-27.09C977.78,168.87,953,158.78,951,158c-37.63-14.89-70.32-4.69-84.16-.37a102.85,102.85,0,0,0-26.16,12.15,98,98,0,0,0-23.07,20.9,78.26,78.26,0,0,0-13.22,22.78c-4.36,12-4.89,23.56-5.24,30.88,0,.75-.11.06-.16,6.24,0,3.39-.68,22.82-.82,26.27-.47,12.32-.21,22.63,0,56.49.07,9.51.14,23.52.17,40.73l-35-.06c.27-10.88.54-28.17.14-49.52-.5-26.94-1.67-37.84-1.54-63.52.15-27,.29-40.82,4.12-54.35a128.87,128.87,0,0,1,21-41.75A143.56,143.56,0,0,1,837.52,126a146.11,146.11,0,0,1,17.65-6.48c4.34-1.24,8.41-2.16,12.15-2.84a144.13,144.13,0,0,1,19.94-2.07h.21c11.85-.58,23.35-.27,25.07-.21,37.76,1.41,65,14.22,65.09,14.25,18.81,9.09,54.92,30.25,73.25,70.65,8.42,18.55,12,38.82,13.23,45.6.53,3,.85,5.24,1.1,7,3.13,21.64,3.1,39.42,3,52.89-.28,26.59-1.14,50.18-2.07,69.1" transform="translate(-6.99 -5.72)"/><path class="cls-3" d="M1749.34,119.48s112.79,239.12,112.45,239.13-34.11,17.07-34.11,17.07l-119.75-256.2Z" transform="translate(-6.99 -5.72)"/><polygon class="cls-3" points="1820.52 369.96 1858.04 369.96 1839.28 351.77 1820.52 369.96"/><path class="cls-3" d="M1951.26,119.48S1831.14,358.6,1831.48,358.61s34.1,17.07,34.1,17.07l127-256.2Z" transform="translate(-6.99 -5.72)"/><path class="cls-3" d="M649.51,21.24A31.25,31.25,0,0,1,657,13.67a36.34,36.34,0,0,1,7.37-4.29A41.9,41.9,0,0,1,675,6.55a63.63,63.63,0,0,1,9.43-.83,59.65,59.65,0,0,1,10.13.71c4.64.74,14.34,2.31,22.84,9.72a39.68,39.68,0,0,1,6.91,8,32.61,32.61,0,0,1,4.8,10.45c2.51,10.74-2.49,22.35-2.49,22.35a39.3,39.3,0,0,1-6.73,9.53A35.2,35.2,0,0,1,712.51,72a28.73,28.73,0,0,1-7,3,26.39,26.39,0,0,1-8.92.91c-5.15-.42-8.85-2.35-9.79-3.26-.61-.59-1.29-1.11-1.85-1.73a4.27,4.27,0,0,0-1.12-1,3.81,3.81,0,0,0-1.84-.47c-13.69-.39-18.22-4.84-18.22-4.84-1.15-1.12-4.14-4.67-4.77-7.49A4,4,0,0,0,657.9,55a8.73,8.73,0,0,0-2.57-1.36c-.64-.3-1.26-.66-1.89-1C652.07,52,647.89,48.16,646,42c-3.17-10.45,2.78-19.72,3.48-20.78" transform="translate(-6.99 -5.72)"/><path class="cls-4" d="M710.71,35.34c-.33.08-.11,1.23-.6,3.39a5.31,5.31,0,0,1-.67,2c-.73,1-2.16,1.87-3,1.49-.36-.16-.84-.64-1-.5l0,0a3.16,3.16,0,0,0,0,1.89c.59,1.9-1.07,4.21-1.22,4.42a10.42,10.42,0,0,1-2,1.84,13.82,13.82,0,0,0-2.29,2.06,7,7,0,0,0-.55.75c-.2.34-1,1.74-.48,2.54,0,0,.28.39.51.34.38-.09.09-1.22.82-2.16,1.09-1.38,2.06-1.07,3.55-2.14a5.86,5.86,0,0,0,3-4.54c0-.85-.13-1.83.3-2.3s.76-.11,1.28-.06c1.81.17,2.91-2.38,3.15-2.95a5.81,5.81,0,0,0,.56-3.74C711.76,36.45,711.06,35.26,710.71,35.34Z" transform="translate(-6.99 -5.72)"/><path class="cls-4" d="M662.41,31c.71-.42.83-.73,1.35-1a6,6,0,0,1,1.92-.42c.65-.08,3.39-.37,3.85,2.11.13.66.08,1.47.36,1.35s.57-1.33,1.29-2.51a9.37,9.37,0,0,1,5.29-3.7,7.35,7.35,0,0,1,3.69-.16c2.27.32,2.61,1.16,4.33.43.65-.27,2.4-.82,2.7-2.13,0-.06.15-.64-.07-.77s-1.06,1.11-2.59,1.46c-2.09.47-2.52-.65-4.62-.84a7.25,7.25,0,0,0-6.4,2.05c-.81.82-1.6,1.94-2.35,2.05s-.66-.52-1-1c-1.18-1.69-4.36-.05-5.06.31-2.41,1.25-4.05,3.09-3.89,3.28S662.33,31,662.41,31Z" transform="translate(-6.99 -5.72)"/><path class="cls-4" d="M692.46,51.11a4.52,4.52,0,0,1-.47-2.64c-.06-1.26-.68-3.13-2-3.76a2.51,2.51,0,0,0-.64-.2c-1.07-.19-2.07.35-5.78,1-.49.09-1.4.15-2.66.39a15.15,15.15,0,0,0-2.22.52c-1.87.75-2.45,2-4,2.33h0a2.31,2.31,0,0,1-1.05.12.94.94,0,0,1-.61-.88c0-.45.63-.6,1.37-1.12A6.5,6.5,0,0,0,676,45.37c.12-.07.3-.19.58-.33a11.6,11.6,0,0,1,1.72-.69c3.37-1.1,6.69.29,8.71-1.54.76-.68.26-.82,1.81-3,1.35-1.88,2-2.08,2-2.89.05-1.93-3.41-3.24-3.16-3.75.15-.31,1.59-.13,2.71.62a4.48,4.48,0,0,1,1.95,4.09c-.33,2.23-2.89,3.08-2.5,4.27a.55.55,0,0,0,.15.27,4,4,0,0,0,1.52.86c1.9.73,2.14,8.35,1.34,8.24C692.71,51.54,692.63,51.4,692.46,51.11Z" transform="translate(-6.99 -5.72)"/><path class="cls-5" d="M1499.28,326.77c-.33.08-.11,1.23-.59,3.39a5.23,5.23,0,0,1-.68,2c-.73,1-2.16,1.87-3,1.49-.36-.16-.84-.64-1-.5a.09.09,0,0,0,0,.05,3.17,3.17,0,0,0,0,1.89c.59,1.89-1.07,4.2-1.22,4.42a10.26,10.26,0,0,1-2,1.83,13.85,13.85,0,0,0-2.28,2.07,5.33,5.33,0,0,0-.55.75c-.2.33-1,1.73-.48,2.53,0,0,.28.39.51.34s.09-1.22.83-2.16c1.08-1.38,2-1.07,3.54-2.14a5.86,5.86,0,0,0,3-4.54c0-.84-.13-1.83.31-2.3s.75-.11,1.28-.06c1.81.17,2.89-2.38,3.14-2.95a5.8,5.8,0,0,0,.56-3.74c-.28-1.23-1-2.42-1.33-2.34" transform="translate(-6.99 -5.72)"/><path class="cls-5" d="M1451,322.4c.71-.42.83-.73,1.35-1a6,6,0,0,1,1.91-.42c.66-.08,3.41-.37,3.87,2.11.12.66.07,1.48.35,1.35s.57-1.33,1.29-2.5a9.38,9.38,0,0,1,5.29-3.71,7.35,7.35,0,0,1,3.69-.16c2.27.32,2.61,1.16,4.32.43.65-.27,2.41-.82,2.71-2.13,0-.06.15-.64-.06-.77s-1.07,1.11-2.61,1.46c-2.08.47-2.51-.65-4.61-.84a7.25,7.25,0,0,0-6.4,2.05c-.81.82-1.6,1.94-2.35,2.05-.6.09-.66-.52-1-1-1.18-1.7-4.35-.06-5.06.3-2.41,1.25-4,3.09-3.89,3.28s1.13-.48,1.21-.53" transform="translate(-6.99 -5.72)"/><path class="cls-3" d="M1443.23,318.32a31,31,0,0,1,7.43-7.56,35.76,35.76,0,0,1,7.38-4.3,41.69,41.69,0,0,1,10.7-2.82,62.64,62.64,0,0,1,19.56-.13c4.63.75,14.34,2.32,22.84,9.73a39.38,39.38,0,0,1,6.91,8,32.37,32.37,0,0,1,4.81,10.45c2.5,10.73-2.5,22.34-2.5,22.34a39.09,39.09,0,0,1-6.73,9.53,34.78,34.78,0,0,1-7.41,5.6,28.85,28.85,0,0,1-7,3,26.16,26.16,0,0,1-8.93.91c-5.14-.42-8.85-2.34-9.79-3.25-.61-.59-1.29-1.11-1.85-1.74a4.47,4.47,0,0,0-1.12-1,3.93,3.93,0,0,0-1.83-.47c-13.7-.38-18.23-4.84-18.23-4.84-1.14-1.12-4.14-4.66-4.76-7.48a4.18,4.18,0,0,0-1.06-2.2,8.83,8.83,0,0,0-2.58-1.36c-.64-.3-1.25-.66-1.89-1-1.37-.71-5.55-4.53-7.41-10.66-3.16-10.45,2.78-19.72,3.49-20.79" transform="translate(-6.99 -5.72)"/><path class="cls-4" d="M1504.42,332.43c-.33.07-.11,1.22-.59,3.38a5.23,5.23,0,0,1-.68,2c-.73,1-2.16,1.88-3,1.5-.36-.16-.84-.64-1-.5a.05.05,0,0,0,0,0,3.16,3.16,0,0,0,0,1.89c.59,1.89-1.07,4.21-1.22,4.42a9.83,9.83,0,0,1-2,1.83,14,14,0,0,0-2.28,2.07,5.53,5.53,0,0,0-.56.75c-.2.34-1,1.73-.48,2.53,0,0,.28.4.51.34s.09-1.21.83-2.15c1.08-1.38,2-1.08,3.54-2.15a5.89,5.89,0,0,0,3-4.53c0-.85-.13-1.83.3-2.3s.75-.11,1.28-.06c1.81.17,2.9-2.39,3.14-3a5.8,5.8,0,0,0,.56-3.74C1505.47,333.54,1504.77,332.34,1504.42,332.43Z" transform="translate(-6.99 -5.72)"/><path class="cls-4" d="M1456.12,328.06c.71-.42.84-.73,1.35-1a6.11,6.11,0,0,1,1.92-.43c.65-.07,3.4-.37,3.86,2.11.12.66.07,1.48.35,1.36s.57-1.33,1.29-2.51a9.51,9.51,0,0,1,5.29-3.71,7.59,7.59,0,0,1,3.69-.16c2.27.33,2.61,1.17,4.33.44.64-.28,2.4-.83,2.7-2.13,0-.06.16-.65-.06-.78s-1.07,1.12-2.6,1.47c-2.09.47-2.52-.66-4.61-.84a7.26,7.26,0,0,0-6.41,2.05c-.81.82-1.59,1.94-2.35,2-.6.1-.66-.52-1-1-1.18-1.7-4.35-.06-5.06.31-2.41,1.24-4,3.09-3.88,3.27S1456,328.11,1456.12,328.06Z" transform="translate(-6.99 -5.72)"/><path class="cls-4" d="M1486.17,348.19a4.49,4.49,0,0,1-.47-2.63c-.06-1.27-.68-3.14-2-3.77a2.6,2.6,0,0,0-.65-.19c-1.06-.19-2.07.35-5.78,1-.48.09-1.4.16-2.66.4a13.42,13.42,0,0,0-2.21.52c-1.88.74-2.46,2-4,2.33a2.29,2.29,0,0,1-1.06.11.89.89,0,0,1-.59-.87c0-.46.62-.61,1.37-1.13a6.4,6.4,0,0,0,1.55-1.53c.12-.08.3-.19.58-.34a11.76,11.76,0,0,1,1.72-.68c3.37-1.1,6.69.28,8.72-1.54.75-.69.25-.82,1.8-3,1.35-1.88,2-2.08,2-2.89,0-1.92-3.41-3.24-3.16-3.74.15-.32,1.6-.14,2.71.62a4.47,4.47,0,0,1,2,4.09c-.34,2.23-2.9,3.07-2.51,4.27a.66.66,0,0,0,.15.26,4,4,0,0,0,1.52.87c1.91.73,2.14,8.34,1.34,8.23C1486.42,348.62,1486.34,348.48,1486.17,348.19Z" transform="translate(-6.99 -5.72)"/></g><g class="cls-6"><path class="cls-1" d="M1159,165.72a83.7,83.7,0,0,0-28.3,45.63c-1.62,7.24-3.22,15.07-.45,24.42,2.4,8.09,7.49,13.87,10.06,16.88a27.56,27.56,0,0,0,6.82,6.14,50.53,50.53,0,0,0,7.76,3.4,43.32,43.32,0,0,0,5.85,2,31.24,31.24,0,0,0,7.7.74,20.44,20.44,0,0,0,6.21-.63c2-.58,2.41-1.14,4.89-2.22a43.55,43.55,0,0,1,6.21-2c7.73-2.08,11.59-3.12,15.55-2.85a47.2,47.2,0,0,1,9.76,1.67c2.37.75,3.17,1.28,4.44.89,3.15-1,6-5.48,5.09-8.22a7.19,7.19,0,0,1-.5-2.55,3.24,3.24,0,0,1,.69-2.17c.29-.33.65-.56.72-.5s-.31.51-.4,1.22a2.57,2.57,0,0,0,0,.74c.26,1.49.95,2.58,1.23,4.18.17,1,0,1,.17,1.21.72.8,3.34-.32,10-3.79s6.2-3.52,7.36-3.83c5.26-1.41,7.21.9,10.73-1.17a58.66,58.66,0,0,0,5.11-3.77,12.28,12.28,0,0,0,1.19-1c.55-.59.79-1,1-1s.18.56.14.86a2.24,2.24,0,0,1-.41,1c-1.29,1.72-3.28,3.47-3.11,4.27.22,1,4.07,1.24,7.67.88a25,25,0,0,0,10.42-2.87c3.5-1.93,7.68-5.41,8.22-8.44.12-.66.49-3.78,0-4.85,0-.08-.24-.48-.11-.59s.58.19.63.22a3.15,3.15,0,0,1,1.07,2,11.47,11.47,0,0,1-.85,6.4c-2,4-5.27,4.4-5,6.29a1.41,1.41,0,0,0,.07.29c.36,1.34,1,3.84,3.09,5.26a6.09,6.09,0,0,0,2.29,1c.92.18,1.66.08,1.71.29s-.14.3-1.09.73a5.43,5.43,0,0,1-3.27-.23,5.3,5.3,0,0,1-1.85-1.29c-1.07-2.24-2.22-3.66-2.6-3.8s-.56-.16-.56-.16a3.86,3.86,0,0,0-.49-.09,10.58,10.58,0,0,0-4,.42c-.62.21-5.17,1.75-7.1,2.2-.64.15-4-.24-10.6-1a37.53,37.53,0,0,0-8.06.06,13.08,13.08,0,0,0-1.71.38c-1.64.48-2.41.95-5.55,2.67-10.78,5.87-12,5.87-14.65,8.54s-4.19,4.16-4.63,6.44a12.87,12.87,0,0,1-1.44,4.26c-.13.23-1.15,2-1.59,1.85-.08,0-.47-.2,0-2.89.49-2.89.82-5,0-6.32-.34-.56-.93-1-4-1.67a32.74,32.74,0,0,0-7.33-1.11,34.24,34.24,0,0,0-14.65,2.22c-3.7,1.51-9.93,4.09-12.54,10.44a16.33,16.33,0,0,0-1.11,7c.15,6.2,3.17,10.65,6.74,15.79,2.72,3.9,5.49,7.89,10.13,11.52,9.48,7.41,20,7.93,31.19,8.65,8.7.57,17.75,1.15,24.65-2.66a26.14,26.14,0,0,1,7.88-3.11,29.92,29.92,0,0,1,9.54-.22c9.89.85,13.89,3.54,19,1.26.91-.4,2.31-1.19,2.41-1s-2,2.1-4.48,3.26c-.86.4-3.58,1.55-9.17,1.18-6.62-.43-8.49-2.42-9.77-1.33-2.17,1.83,0,10.12,5.1,15.76,7.32,8.09,18.68,8.45,25.2,8.66a54.78,54.78,0,0,0,25.66-5.67c5.76-2.73,9.72-5.78,15.3-10.09a93,93,0,0,0,13.27-12.23c1.14-1.29,2.16-2.52,3-3.65,11-11.68,12.62-15.15,15.76-22.09.64-1.39,1.7-4,.56-6a4.94,4.94,0,0,0-2-1.78,6,6,0,0,0-3.88-.44,5.23,5.23,0,0,0-2.66,1.31c-.92.91-1.06,1.88-1.28,1.83s-.57-1.86.27-3.25c1.05-1.73,3.49-2.22,4.89-2.56,2.11-.5,2.54-.23,3.55-.55s3.4-1.29,5.88-7.1c1.84-4.32,2.31-8.08,2.67-12.66,1.07-13.65.09-20.28-2.34-24.64-.91-1.64-2-3-3.62-3.37-.54-.13-1.94-.37-5.15,1.48-2.87,1.66-7.69,4.49-8.9,9.59-.49,2.06.21,2-.36,6.4a14.23,14.23,0,0,1-2.75,6.54c-.2.23-.48.52-.64.45-.4-.17.52-2.24.78-4.63.52-4.82-.56-6.1.53-9.23a36.16,36.16,0,0,1,1.8-3.57c1.91-3.59,2.82-4.73,2.44-5.18s-1.87.47-4.66,1.41a42.66,42.66,0,0,1-9.7,1.74c-3.93.42-5.9.63-6.4.62-1.48,0-2.9-.13-4.29.75a6.51,6.51,0,0,0-1.84,2c-2.51,3.47-2.45,4.32-3.91,5.58-.48.41-2.23,1.86-4.06,1.47a3,3,0,0,1-1.49-.75,6.28,6.28,0,0,0,1.58.27,3.67,3.67,0,0,0,2.39-1.28,5.81,5.81,0,0,0,.89-1.61,13.06,13.06,0,0,0,1.16-4.27,3.73,3.73,0,0,0-.2-2.32c-.39-.72-1-1-2.07-1.48a10.41,10.41,0,0,0-3.85-.89,7.43,7.43,0,0,0-3,.44,10.69,10.69,0,0,0-3,2.13c-.15-.13.86-2.4,3-3.48a9.72,9.72,0,0,1,4-.72,12.45,12.45,0,0,1,3,.06c1.78.31,2.45,1.07,3.72,1.61,1.68.71,2.89.43,5.81.18,6.34-.54,5.88.31,10.62-.35a31.22,31.22,0,0,0,7.22-1.72,25.75,25.75,0,0,0,5.16-2.61,30,30,0,0,0,3.33-2.72c3.17-2.87,4.76-4.3,5.38-5.44,1.93-3.5,1-7.44.5-9.55-.42-1.76-1-3.29-3.44-7.32a92.67,92.67,0,0,0-6.61-10.16,94.25,94.25,0,0,0-34.63-28.25s-3.4-2-14.82-6.77a12.86,12.86,0,0,0-6.16-1.11c-.92.08-4.93.19-5.72,2.16-.27.67-.18,1.59-.82,1.92a.9.9,0,0,1-1,0c-.5-.46.5-1.67.5-3.16a7.13,7.13,0,0,0-1.45-3.56c-3.78-5.16-21.53-7.16-21.53-7.16a138.29,138.29,0,0,0-19.28-2c-1.34,0-.14,0-10.61,0a83.8,83.8,0,0,0-10.87.54c-.83.1-1.25.14-1.65.23-2,.46-7.67,1.76-9.1,5.6-.92,2.49.8,3.29.52,9.64a16.78,16.78,0,0,1-.88,5.06,9.55,9.55,0,0,1-3,4.74,7.32,7.32,0,0,1-3,1.43c-.84.18-1.83.23-1.88,0s1-.49,2.19-1.47a8,8,0,0,0,1.56-1.78,11.63,11.63,0,0,0,1.65-3.78,14,14,0,0,0-.08-6.59c-.56-2.57-1.37-6.27-4.21-8-1.85-1.12-3.87-1-6.88-.44a92.17,92.17,0,0,0-21.54,6.66c-3.5,1.53-5.86,2.56-9.1,4.29A113.65,113.65,0,0,0,1159,165.72Z" transform="translate(-6.99 -5.72)"/><path class="cls-3" d="M1181.45,177.9c0,.35-3.12-.13-7.25,1-2.24.63-6.4,1.86-8.29,5.33a11,11,0,0,0-1,4.59c-.24,2.7-.43,4.87.75,6.29,1.71,2.07,4.2,0,8.28,1.85,2.79,1.3,2.62,2.74,7.11,5.33,2.61,1.5,3.69,1.61,4.14,1.63a9.64,9.64,0,0,0,6.14-2.37c.81-.73,1.27-1.42,1.41-1.33s-.37,2.06-1.63,3.4c-2.69,2.87-6.81,2.56-7.25,2.52-2-.19-3.65-1.16-7-3.11s-3.06-2.32-4.73-3a12.57,12.57,0,0,0-8.88.15c-1.17.49-3.88,1.61-4.59,4-.36,1.2.07,1.77.29,3.85.13,1.18.51,4.6-.59,7-1.92,4.15-8.54,5-8.58,4.88a16.34,16.34,0,0,0,3.48-2,8.34,8.34,0,0,0,2.44-2.44,7.38,7.38,0,0,0,.81-4.29c-.16-5.1-2.07-5.76-1.4-7.84,1-3,5.18-2.36,6.66-6.07.28-.71.23-1,.29-4.44a79.63,79.63,0,0,1,.3-8.14c1.44-4.81,7.92-7.48,12.58-7.85C1178.4,176.59,1181.47,177.55,1181.45,177.9Z" transform="translate(-6.99 -5.72)"/><path class="cls-3" d="M1146,228.56c.3-.05.31,2.7,2.17,4.85.27.32,2.17,2.51,4.6,2.39,1.88-.09,2.21-1.14,6.7-4.57.49-.38,1.48-1,2.75-1.95a17.18,17.18,0,0,0,2.19-1.85c1.7-1.93,1.71-3.72,3.2-5a7.66,7.66,0,0,1,1.11-.73c3-1.59,4.17-.18,12.48-.51,4.14-.16,7.44-.31,11.5-1.63,3.59-1.16,7.58-2.52,10.25-6.53a13.09,13.09,0,0,0,2.32-6.94c.12-4.74-2.65-8.25-3.87-9.79-3.38-4.29-5.83-3.76-7.54-7.65a13,13,0,0,1-.87-6.74,15,15,0,0,1,3-6.84c4.64-6.29,12-8.66,12.18-8.26.08.15-1.15.76-3.48,2.75-3.87,3.33-8.43,7.24-8.51,12.35a10.21,10.21,0,0,0,1.36,5.07c1.45,2.59,3.48,3.4,5,4.56,4,3,5.77,9,5.71,13.12-.13,8.47-8,14.63-13.51,16.94a26.1,26.1,0,0,1-7.57,1.74c-8.86,1-12.79-1.88-17.11,1-1.38.91-1.34,1.57-2.11,2.85a12.1,12.1,0,0,1-2,2.49c-3.18,3.19-7.58,3.38-8.88,6.69-.49,1.23.14,1.11-.47,4.53-.53,3-1.11,3.58-.71,4.55.94,2.32,5.47,2,5.46,2.7,0,.46-1.71,1.05-3.33.77a5.61,5.61,0,0,1-4.31-3.78c-.79-2.84,1.62-5.28.57-6.49-.48-.55-1.07-.12-2.45-.4-2.75-.56-4.86-3.19-5.67-5.58C1145.47,230.64,1145.75,228.6,1146,228.56Z" transform="translate(-6.99 -5.72)"/><path class="cls-3" d="M1202.29,286.83a2.26,2.26,0,0,1-1.14-2.28c.06-.5.32-.86.5-2,.1-.6,0-.65,0-.66-.19-.08-1.18,1.27-1.72,2.78-1,2.71-.15,3.67-1.18,4.75-.89.93-2,.79-2.67,2.07a3.91,3.91,0,0,0-.31,1.11c-.5,2.59.37,6.19.76,6.15s-.67-2.86.83-5.71c1.18-2.26,3.42-3.51,5.38-4.61a12.61,12.61,0,0,1,3.66-1.61c3.89-.85,5.31,1.46,9.35.68a8.71,8.71,0,0,0,3.92-1.79,6.41,6.41,0,0,0,2.39-4c.06-.56,0-1.46-.22-1.53s-.53.53-.84,1a12.88,12.88,0,0,1-2.94,3,9.87,9.87,0,0,1-3.55,1.6c-4.33.95-6.56-2.27-9.4-.84C1203.68,285.72,1203.16,287.11,1202.29,286.83Z" transform="translate(-6.99 -5.72)"/><path class="cls-3" d="M1235.85,270.07c.92-3.4,2.43-5.27,2.25-5.44s-2.19,1.63-3.5,4.52c-.51,1.1-2.36,5.17-1.19,9.14,1.09,3.71,3.77,3.71,4.59,7.77a14,14,0,0,1,0,4.44c-.39,4.08-1.42,4.46-1.78,7.77-.07.63-.63,6.37,2.06,9,.9.87,2,1.22,2.16,1s-1.68-1.24-2.36-3.56a16.28,16.28,0,0,1-.26-4.88,9,9,0,0,1,.07-1.61c.39-1.87,1.82-2.74,2.36-6,.77-4.6-1.24-7,.19-8.77.62-.75,1.94-.91,4.6-1.22A31.85,31.85,0,0,1,1249,282c5.27,0,8,.07,10.76.81,2.38.64,3.78,1.37,4.75,2.81.2.3,1.3,1.93.86,3.19-.36,1-1.55,1.2-1.49,1.55s1.35.67,2.13,0c1-.89.84-3.21.44-4.59a7.54,7.54,0,0,0-3.5-4.22c-.4-.25-1.69-1-5.32-1.48a50.09,50.09,0,0,0-6.75-.14c-4,.07-6,.1-6.75.14-2.73.16-3.41.31-4.63-.14a6.53,6.53,0,0,1-4-3.7C1234.73,274.17,1235.27,272.17,1235.85,270.07Z" transform="translate(-6.99 -5.72)"/><path class="cls-3" d="M1214.31,188.92c.41-.14-1.4-3.27-.15-6.06.93-2.07,3.07-2.91,5.26-3.78,1.33-.53,6.91-2.73,11.25-.29,1.15.65,2.14,1.58,2.59,1.25s-.56-1.86-.56-3.66c0-3.91,5.12-6.9,6.55-7.73a24.55,24.55,0,0,1,7.83-2.7c5.37-1.2,7.25-.5,10-2.48,1.73-1.25,1.25-3.55,3-4.22,1.46-.55,2.94.23,3,.11a5.15,5.15,0,0,0-4.16-.92c-1.87.46-2,2.54-3.7,3.4-3.92,1.95-6.36,1-11.18,2.22-3.34.85-9.21,2.34-11.19,6.66-.67,1.46-.89,3.24-2.39,3.89-1.18.5-2.14-.14-3.55-.45-4.85-1.07-9.57,2.92-10.62,3.81-1.65,1.39-4,3.38-4.07,6.29C1212.17,186.87,1214,189.05,1214.31,188.92Z" transform="translate(-6.99 -5.72)"/><path class="cls-3" d="M1291.57,157.18a1,1,0,0,1,.46.75c.22,1.4-2.26,1.85-3.64,4.43-.8,1.48-1.13,3.47-.37,4.73a2.46,2.46,0,0,0,.18.27c.36.42,1,.76,3.15,1.51a33.45,33.45,0,0,0,6.18,1.85c2.91.42,4.74.06,4.77.29s-2.34,1.25-5.18,1.19-3.68-1-7.92-1.56c-1.33-.15-2.31-.18-3.47-.22a51.21,51.21,0,0,0-7.33.3,30.85,30.85,0,0,0-13.62,5.18c-4,3-8.63,8.47-8.77,12.91,0,.79,0,5.1-.18,7.07a11.26,11.26,0,0,0-.08,1.85c.06,1.09.25,1.38.08,1.7-.32.61-1.79.53-3.41.45-2.68-.15-4-.22-5-.2a17.84,17.84,0,0,0-4.93,1.09c-4.25,1.29-8.45,2.61-12.44,6.44-.28.26-.46.46-.66.66a31.62,31.62,0,0,0-7.17,11.35,30.65,30.65,0,0,0-1.55,8.22,27.07,27.07,0,0,0,0,6.43,32.26,32.26,0,0,1,.74,7.92c-.08,1.22-.21,1.65-.39,1.68-.51.07-1.39-3.15-1.92-5.11-1.17-4.33-1.75-6.49-1.91-8.63-.38-5,1.38-8.93,3.06-12.65,1.78-3.93,5.29-11.67,13.36-16.24a32.45,32.45,0,0,1,10.13-3.55,17.73,17.73,0,0,1,5-.49c1.67.22,2.84.77,3.69.12a2.83,2.83,0,0,0,.79-2.22c.24-4.34-.22-6.16.24-8.44a12.28,12.28,0,0,1,1.37-3.44,23.24,23.24,0,0,1,7.44-8.33,37.16,37.16,0,0,1,15-5.44,9.43,9.43,0,0,0,3.85-1c.19-.13.46-.29.77-.54,2.06-1.66,3.17-4.22,4.94-6.57C1288.14,159.3,1290.53,156.67,1291.57,157.18Z" transform="translate(-6.99 -5.72)"/><path class="cls-3" d="M1243.76,214.16c.11.17,1.15-.28,1.27-.34a9.54,9.54,0,0,0,2.29-1.58c2.45-1.74,7.64,1.92,8.06,2.22a4.87,4.87,0,0,1,2,2.36,4.3,4.3,0,0,1,.15,2.08c-.19,1.25-.84,6,0,9.69a14.75,14.75,0,0,0,2,4.52,12.76,12.76,0,0,0,3.55,4.07c1.41,1,3.26,1.59,3.48,1.25s-1.7-1.63-3.24-3.67a15.75,15.75,0,0,1-2.83-8.54c-.11-1.18-.51-5.92,3.11-13.47,2.46-5.12,6.4-13.35,15.69-18.57,5.9-3.32,11.23-3.88,17.24-4.52a47,47,0,0,1,17.54,1,30.16,30.16,0,0,1,11.47,5,23.13,23.13,0,0,1,8.81,11.84c1.59,5.33,1.28,12.33-1.47,14.24-.33.22-1.3.8-1.2,1.08s1.61.28,2.81-.3c3.41-1.61,3.28-8.45,3.26-9.47-.13-7.21-4.19-12.45-5.77-14.43a29.56,29.56,0,0,0-11.18-8.51,35.06,35.06,0,0,0-9.39-2.74,55.36,55.36,0,0,0-16.66-.22c-6.62.88-13.64,1.8-20.64,6.88a41.09,41.09,0,0,0-9.08,9.65c-2,3-2.93,4.5-3.36,6.48-.28,1.32-.24,2.17-.88,2.52-1.33.71-2.91-2.27-6.52-2.81a10.82,10.82,0,0,0-5.77.89C1245.76,211.87,1243.6,213.89,1243.76,214.16Z" transform="translate(-6.99 -5.72)"/><path class="cls-3" d="M1311.91,206c.31.22-4.42,5.55-6.57,14.24a37.58,37.58,0,0,0-.75,14.09c.54,3.85,2.06,14.59,10.07,19.91,4.38,2.91,10,3.7,12.45,4.06l5.54.38c3.25.22,4,.32,4.58-.29,1.19-1.18,1.07-4.22-.17-5.6a6.69,6.69,0,0,1-1.19-1.45c-.39-.7-.77-1.76-.56-1.91.41-.3,3.76,2.15,4.83,6a10.26,10.26,0,0,1-2.57,9.82c-2.26,2.2-5.49,2.57-5.64,2.25s1.47-1.43,2.06-1.85a8.46,8.46,0,0,0,1.39-1c.13-.14,1.41-1.53,1.09-2.47-.26-.74-1.41-.89-8-1.5-1.62-.15-1.49-.14-1.84-.16a63.32,63.32,0,0,1-7.88-1.12,21,21,0,0,1-10.56-6.08,23.42,23.42,0,0,1-5.31-10.29,35,35,0,0,1-1-12,39.85,39.85,0,0,1,3-14.56C1307.56,210,1311.63,205.8,1311.91,206Z" transform="translate(-6.99 -5.72)"/><polygon class="cls-3" points="1253.22 262.83 1309.85 319.84 1323.32 304.64 1331.04 320.75 1366.09 386.67 1385.67 360.6 1431.44 428.29 1433.18 426.14 1398.51 319.56 1370.8 354.16 1342.24 260.16 1319.45 285.98 1293.64 241.77 1253.22 262.83"/><polyline class="cls-7" points="1351.95 289.94 1342.24 260.16 1319.45 285.98 1293.64 241.77 1253.21 262.83 1309.85 319.84 1323.32 304.64 1328.91 315.61"/></g><path class="cls-3" d="M1125.53,140.65c1.23-.23,2.52,1.6,2.82,2,2.78,3.83,10.69,11.13,14.64,14.77,6.5,6,12.3,8.37,11.57,10.79-.16.51-.46.57-2,2.05a24,24,0,0,1-4.23,4.63c-2.81,2.57-8.58,10.71-12.84,19.93a83.21,83.21,0,0,0-6.61,21.37,44.08,44.08,0,0,0-.88,11.16,42.17,42.17,0,0,0,6.14,18.66,46,46,0,0,0,6.78,8.45,28.65,28.65,0,0,0,7.81,6.06c2.11,1,3.64,1,6.38,2.47a17,17,0,0,0,3.27,1.38,21.78,21.78,0,0,0,2.65.59,44,44,0,0,0,4.76.66,33,33,0,0,0,5.9-.08,16,16,0,0,0,4.15-.82c1.19-.43,1.09-.59,3-1.47a36.81,36.81,0,0,1,5.47-2c.91-.26.89-.21,2.5-.61,4.41-1.09,5.24-1.61,8.45-2.24a22.17,22.17,0,0,1,3.86-.47,23.33,23.33,0,0,1,2.89.1,48.42,48.42,0,0,1,5.53.77,20.64,20.64,0,0,1,3.48.8,20.85,20.85,0,0,0,2.34.82,4.35,4.35,0,0,0,1.44.24,4.31,4.31,0,0,0,1.51-.32,7.84,7.84,0,0,0,3-2.25,10.41,10.41,0,0,0,2.2-4.3c0-.28.08-.57.08-.57s0-.33,0-.64a6.08,6.08,0,0,0-.45-2s.06.23.19.67a11.55,11.55,0,0,1,.5,1.78c.06.54,0,.68.11,1a1.46,1.46,0,0,0,.69.59c1,.45,2.57-.36,2.79-.48,1.56-.83-22,11.86,6.3-2.92,3.35-1.76,5-2.63,5.32-2.82a13.51,13.51,0,0,1,1.86-1,9.58,9.58,0,0,1,2.92-.91,17.36,17.36,0,0,1,2.55,0c.14,0,.82,0,1.75.06h0c.49,0,1.87,0,2.38,0a6.41,6.41,0,0,0,3-1.28c.68-.44.71-.59,1.7-1.22a12.36,12.36,0,0,0,1.29-.88c.45-.36.82-.72.83-.72a5.1,5.1,0,0,0-.87,1,4,4,0,0,0-.56,1.3,1.65,1.65,0,0,0-.08.58,1.42,1.42,0,0,0,.34.8,3.4,3.4,0,0,0,2.37.8,18.55,18.55,0,0,0,2.47.13,40,40,0,0,0,7.5-.72,22,22,0,0,0,2.6-.69,25.08,25.08,0,0,0,6.38-3.34,20,20,0,0,0,4.52-3.94,11.19,11.19,0,0,0,.67-1.06,8.94,8.94,0,0,0,.92-2.45,6.32,6.32,0,0,0,.11-2.23,8.94,8.94,0,0,1-1,5.53,10.94,10.94,0,0,1-2.18,2.5,11.77,11.77,0,0,0-2,1.72,3.17,3.17,0,0,0-.86,1.47,3.9,3.9,0,0,0,.32,1.8,9.63,9.63,0,0,0,1.39,3.19,8.15,8.15,0,0,0,.71.82,7,7,0,0,0,.85.71,5.25,5.25,0,0,0,.63.4c.52.3.84.39.84.41s-.52-.15-1.55-.5a1.63,1.63,0,0,1-.71-.4,1.44,1.44,0,0,1-.32-.56,13,13,0,0,0-.75-1.43,5.26,5.26,0,0,0-2-2.37,4.63,4.63,0,0,0-2.63-.35,13.46,13.46,0,0,0-3.06.62c-1.71.47-2.26.73-4.52,1.4a17.44,17.44,0,0,1-2.33.62,13.28,13.28,0,0,1-3.62-.27c-1.23-.17-2.46-.25-3.69-.37-2.77-.29-4.15-.43-5.93-.53a20.4,20.4,0,0,0-5.21.13,17.58,17.58,0,0,0-2,.5c-2,.63-2.79,1.22-7.46,3.78-2,1.08-3.38,1.81-3.88,2.07l-1.65.85c-2.48,1.28-2.89,1.47-3.75,2a22,22,0,0,0-2.1,1.33c-.27.2-.89.66-1.75,1.43a15.14,15.14,0,0,0-4,4.84c-.23.54-.42,1.17-.42,1.17a14.15,14.15,0,0,0-.48,2,7.41,7.41,0,0,1-1.52,3.4c-.08,0,.2-.72.45-2.18a12.88,12.88,0,0,0,.27-2.77,5.73,5.73,0,0,0-.53-2.71,3.38,3.38,0,0,0-.8-1.11c-.57-.53-1.17-.67-3.45-1.12l-1.65-.32-4.63-.8a31.44,31.44,0,0,0-7.81.11,38.91,38.91,0,0,0-10.21,2.66,25.31,25.31,0,0,0-5.68,3.11,17.7,17.7,0,0,0-6.54,9.65,17.15,17.15,0,0,0,0,7.6,24.37,24.37,0,0,0,3,8.08c.92,1.57.89,1.09,3,4.35,1.82,2.76,2.19,3.62,3.56,5.43a36.47,36.47,0,0,0,3.19,3.61,42.36,42.36,0,0,0,7.28,5.9,40.8,40.8,0,0,0,17.86,5.79c.5.06,0,0,3.89.27,7.72.55,8.85.72,12.33.85a66,66,0,0,0,7.17,0,26.67,26.67,0,0,0,7.39-1.06c1.88-.62,1.83-.92,6.33-2.87a39.61,39.61,0,0,1,4.41-1.76,25.8,25.8,0,0,1,6.7-.95,41.5,41.5,0,0,1,6.69.63c3.51.49,5.26.74,7.55,1.23a19.53,19.53,0,0,0,4.52.58c1.61,0,2.75-.25,2.76-.16a14.94,14.94,0,0,1-4.78,1.12,24.75,24.75,0,0,1-7.55-.37l-2.87-.64A7,7,0,0,0,1264,312a2.84,2.84,0,0,0-2,1,3.08,3.08,0,0,0-.42,1.65,11.62,11.62,0,0,0-.06,2.55,19.84,19.84,0,0,0,2.08,6.22,24.83,24.83,0,0,0,3.29,5.26,24.53,24.53,0,0,0,6.65,5.48,27.07,27.07,0,0,0,6.32,2.55,43.21,43.21,0,0,0,10.84,1.49,55.43,55.43,0,0,0,11.91-.38,50.9,50.9,0,0,0,9.3-2.34,61.82,61.82,0,0,0,11.48-5.15s3.46-2,10.21-7c1.74-1.29,1.57-1.43,2.31-1.74.27-.11.68-.26.77-.6s-.25-.74-.58-1.17a17.13,17.13,0,0,1-1.22-2.12c-.82-1.36-.59-1.42-1.6-3.4-1.11-2.18-1.24-1.84-1.81-3.25-.37-.92-.64-1.87-1-1.86-.19,0-.25.27-.74.8a7.4,7.4,0,0,1-.74.69,37,37,0,0,0-3.25,3.83c-1.28,1.68-1,.95-3.56,3.93-1,1.22-2.69,3.22-3.72,4.17a6.22,6.22,0,0,0-.62.63c-.63.76-.74,1.36-1,1.34s-.18-.18-.53-.58a5.73,5.73,0,0,0-.69-.67c-.89-.79-5.34-5.56-8.82-9-1.46-1.44-1.13-1.05-3.06-3-2.53-2.48-4.26-4.29-5.45-5.53-1-1-1-1-7.79-7.84q-4.9-4.92-9.8-9.86c-12.15-12.2-13.32-13.38-14.25-14.37a18.67,18.67,0,0,0-2.47-2.53c-.33-.25-1.63-1.19-1.83-1.73a.86.86,0,0,0-.4-.52c-.1-.05-.18-.05-.19-.09s.88-.53,1.07-.61c.92-.39,1.76-1,2.65-1.41,5-2.5,9.94-5.16,14.91-7.73,12.63-6.51,18.94-9.77,19.17-10,0,0,.7-.71,1-.54s.09.36.39.79c.17.26.27.27.49.59a2.64,2.64,0,0,1,.3.57c.23.55,1.06,1.93,1.88,3.31,1.3,2.2,2.58,4.43,3.9,6.62,2.35,3.87,4.79,8.12,8.24,14.14,0,0,6.79,11.83,9.22,15.83l.57.94c.65,1.06.55.9.66,1.09.31.52.3.53.34.55.64.33,2.93-3,4.23-4.73.14-.19,2-2.28,5.69-6.45s4.73-5.27,7.15-8.06,3.49-4,3.74-4.36.83-.91,1.2-1.4.45-.65.61-.62.27.85.32,1.33a9.9,9.9,0,0,0,1.28,3.48,38.33,38.33,0,0,1,1.67,5.37c.55,1.94,1.58,5,3.64,11.17,2.72,8.12,2.74,7.72,2.75,8.08,0,.15,0,.79.31.87s1-1,2-2.63c1.41-2.25,1.24-1.68,2.34-3.48.62-1,1.35-2.49,2.81-5.4.22-.43.7-1.4,1.23-2.71a10.72,10.72,0,0,0,.77-2.42,5.79,5.79,0,0,0-.16-2.89,5.61,5.61,0,0,0-3.17-3,7.85,7.85,0,0,0-4.55-.16,4.23,4.23,0,0,0-1.43.58,9.29,9.29,0,0,0-1.08,1,2.33,2.33,0,0,1,.71-1.17,5.19,5.19,0,0,1,2.13-1.2,13.61,13.61,0,0,1,1.91-.56,8.12,8.12,0,0,1,1.41-.26c.32,0,.5,0,1-.06a7,7,0,0,0,.87-.1,4.22,4.22,0,0,0,1.09-.4,7,7,0,0,0,1.84-1.41,15.48,15.48,0,0,0,2-2.6,20.47,20.47,0,0,0,1.67-3.33,47,47,0,0,0,2.34-8.21,77.44,77.44,0,0,0,.64-19,40.21,40.21,0,0,0-1.7-8.5,9.76,9.76,0,0,0-2.94-4.81,4.86,4.86,0,0,0-1.31-.88c-2.09-.89-4.33.28-7,1.67a19.08,19.08,0,0,0-5.14,3.67,12.75,12.75,0,0,0-2.81,3.83,12.4,12.4,0,0,0-1.06,4.46c-.06,1.64.29,1.91.08,3.59a15.81,15.81,0,0,1-.74,3,8.3,8.3,0,0,1-.91,2.18c-.08,0,.19-.85.35-2.2a18.14,18.14,0,0,0,.1-2.53c0-1.28-.08-1.62-.09-3.4a8.48,8.48,0,0,1,.12-1.76,8.67,8.67,0,0,1,.53-1.64,16.18,16.18,0,0,1,1.06-2c2.35-4,1.85-3.84,2.56-4.73a2.33,2.33,0,0,0,.5-1.17,1.38,1.38,0,0,0-.13-.85,1.45,1.45,0,0,0-1-.64c-.51-.07-.79.17-1.76.58-.44.19-.9.33-1.35.51,0,0-1.63.63-3.43,1.17a34.48,34.48,0,0,1-4.73.77c-.9.12-.87.1-6.25.69a23.33,23.33,0,0,1-2.73.21,17.61,17.61,0,0,0-1.94,0,7.45,7.45,0,0,0-2.13.5,5.15,5.15,0,0,0-1.14.64,6.93,6.93,0,0,0-1.44,1.65c-.72,1-1.09,1.49-1.19,1.65-.94,1.41-1.07,1.94-2,3.16-.32.42-.81,1-.87,1a8.49,8.49,0,0,1,.58-1.25,11.42,11.42,0,0,0,.85-2.49c.07-.32,0-.09.24-1.86a5.91,5.91,0,0,0,.13-1.41,3.4,3.4,0,0,0-.63-1.76,5.43,5.43,0,0,0-2.34-1.43,10.24,10.24,0,0,0-1.23-.48,11.29,11.29,0,0,0-3.77-.45s.93-.06,2.13-.11,1.12-.06,1.46,0a7.58,7.58,0,0,1,2.07.26,15.39,15.39,0,0,1,2,1,11.56,11.56,0,0,0,1.75.77,8,8,0,0,0,2.42.18c.46,0,.83-.06,1.2-.1a17.84,17.84,0,0,1,1.83-.24c.47,0,.53,0,1.2,0l1-.06,1,0c.76,0,1.4,0,2.26,0,1.59,0,1.43.1,2.09.07s.48,0,2-.17l1.58-.14c.47-.06,1-.14,1.81-.32s2-.42,3.17-.78a25.86,25.86,0,0,0,4.53-1.77,30.08,30.08,0,0,0,5.58-3.87l1.77-1.62c1.29-1.17,1.54-1.4,1.88-1.73a17.7,17.7,0,0,0,1.83-1.93,9.51,9.51,0,0,0,1.44-3.11,11,11,0,0,0,.35-2.69,14,14,0,0,0-.18-2.6,22.06,22.06,0,0,0-1-4.3,17,17,0,0,0-1.72-3.58c-.21-.33-.34-.51-.67-1-.72-1.14-1.14-2-1.44-2.53-.59-1.1-1.06-1.84-2-3.33-.24-.36-1.07-1.65-2.43-3.54-.36-.49-2.47-3.41-4.87-6.22a103.15,103.15,0,0,0-11.4-11.26,114.63,114.63,0,0,0-19.19-12.6c-4-2-8.34-3.94-8.34-3.94-2.3-1-2.32-.95-4.2-1.8a34,34,0,0,0-4.31-1.81,15.89,15.89,0,0,0-2.76-.69,16.46,16.46,0,0,0-6.43.64,3.51,3.51,0,0,0-2,1.11c-.24.32-.47.78-.53.75s.06-.29.1-.75a4.25,4.25,0,0,0,0-.69,8.37,8.37,0,0,0-1.43-3.45c-2-2.63-7.18-4.2-7.18-4.2a62.83,62.83,0,0,0-12.81-2.87c-4.61-.7-8.21-1.07-15.41-1.81-4-.41-5.7-.55-7.76-.64-2.46-.11-4.7-.08-9.2,0-3.06,0-5.49.1-8.4.39-.89.09-2,.22-3.4.48a26.54,26.54,0,0,0-4.94,1.33,10.46,10.46,0,0,0-3.08,1.54,6.52,6.52,0,0,0-2.45,3.56,5.48,5.48,0,0,0,0,2.56c.13.57.31.85.48,1.7a11.58,11.58,0,0,1,.16,1.59c.07,1.42.11,2.13.1,2.77a15.77,15.77,0,0,1-.48,4.67,13.12,13.12,0,0,1-1.38,3.14,7.53,7.53,0,0,1-1.59,2.13,3.71,3.71,0,0,1-1.65.95c-.06-.08.65-.53,1.33-1.38a8.54,8.54,0,0,0,1.22-2.39,15,15,0,0,0,1-5.32,17.21,17.21,0,0,0-.42-3.56,25.93,25.93,0,0,0-.86-3.19,11.76,11.76,0,0,0-1.22-3,7.11,7.11,0,0,0-2.55-2.28c-1.92-1-3.88-.88-6.06-.59a70.09,70.09,0,0,0-10.74,2.29c-2.74.85-5.57,1.83-8.61,3a88,88,0,0,0-11.43,5.15c-4.54,2.53-9.24,5.53-9.24,5.53a9,9,0,0,1-1.39.85c-7.06,2.12-18.57-24.16-22.81-28.87-.18-.19-1.65-1.81-1.21-2.6a2,2,0,0,1,.64-.53,5.56,5.56,0,0,1,1.27-.63,9.67,9.67,0,0,0,2.18-1.33c.93-.63,1.38-.84,5.32-3s3.58-2.06,4.62-2.61a83.85,83.85,0,0,1,8-3.56c3.94-1.6,5.91-2.4,8.45-3.3a138.63,138.63,0,0,1,14.08-4c4.29-1,7.71-1.57,14.36-2.66,8.38-1.38,12.57-2.07,18.65-2.71,3.91-.42,10.21-1,18-1.23,2.63-.07,9.6-.24,18.5.16,1.29.06,9.86.46,15,1.23.5.07,2.17.32,4.52.63s3,.36,4.57.59c2.22.31,3.83.6,5.21.85,8.39,1.51,8.4,1.4,11.48,2,6,1.2,10.5,2.52,14.78,3.77,3.12.92,6.93,2,11.91,3.88,1,.37,5.17,1.93,10.63,4.36,2.59,1.16,5.42,2.42,9.09,4.36a135.44,135.44,0,0,1,11.8,7.07c1.49,1,4.13,2.76,7.32,5.13,1.21.89,3.07,2.27,5.33,4.12,4.37,3.56,7.46,6.59,9.41,8.5,3.16,3.11,5.71,5.89,7.6,8A161.06,161.06,0,0,1,1406,193.06a110.65,110.65,0,0,1,5.31,12.12,104.51,104.51,0,0,1,4.94,19.29,108.59,108.59,0,0,1,1.33,15.31,133.72,133.72,0,0,1-1,19.08c-.55,4.84-1.18,8.46-1.6,10.79a180.23,180.23,0,0,1-4.57,19.62,124.06,124.06,0,0,1-5.47,15.36,104.67,104.67,0,0,1-15.47,25.25,149.64,149.64,0,0,1-15.9,16.63,129.8,129.8,0,0,1-17.75,14,118.35,118.35,0,0,1-28.91,13.61,112,112,0,0,1-23.82,4.73c-3,.25-16.33,1.19-29.55-1.91a91.89,91.89,0,0,1-11.22-3.46,48.87,48.87,0,0,1-7.92-3.56,45.07,45.07,0,0,1-11.16-9,24,24,0,0,0-3.93-3.83,14.2,14.2,0,0,0-5.48-2.82,22.21,22.21,0,0,0-4.25-.42c-1.29,0-1.41,0-2.71,0-1.79-.06-2.59-.25-4.25-.43-1.92-.2-2.64-.13-4.52-.21a66.2,66.2,0,0,1-7.28-.8c-6.16-.86-12.78-1.8-18.66-3.13-3.11-.71-6.16-1.53-6.16-1.53l-2.35-.65a99.5,99.5,0,0,1-13.07-5.1,64.65,64.65,0,0,1-10.63-6c-12.47-9-17.47-22.66-18.29-25.62-.66-2.39-1.44-4.74-2.12-7.12a14.63,14.63,0,0,0-.91-2.71,13.1,13.1,0,0,0-4.46-5,26.16,26.16,0,0,0-4-2.07c-4.75-2.16-6.14-2.4-9-3.93a38.52,38.52,0,0,1-4.36-2.77c-7.78-5.5-13.77-14.09-15.52-16.64a89.54,89.54,0,0,1-8.46-15.2,86.26,86.26,0,0,1-6.32-23.6,89.12,89.12,0,0,1,1.54-29.66,108,108,0,0,1,8.35-24.61,94.62,94.62,0,0,1,5.36-10.2,99.83,99.83,0,0,1,10-13.35,54.52,54.52,0,0,1,6.06-6.43,53,53,0,0,0,4.41-3.82,25.17,25.17,0,0,1,2.13-1.92C1125.07,140.84,1125.26,140.7,1125.53,140.65Z" transform="translate(-6.99 -5.72)"/><path class="cls-3" d="M1125,140.7c.15-.31,2.7-2.18,7.81-5.9,1.44-1.05,0,0,6.34-4.49a6.38,6.38,0,0,1,1-.69c3.93-1.38,7.52,12.08,19.38,23.2,1.64,1.54,5.7,5.16,4.78,7.57-.14.35-.68.8-1.76,1.68-2.47,2-3.58,2.51-5.49,4.16-1.31,1.12-1.53,1.53-1.92,1.82C1149.9,171.89,1121.18,148.94,1125,140.7Z" transform="translate(-6.99 -5.72)"/></svg>